<?xml version="1.0" encoding="UTF-8"?>
<svg xmlns="http://www.w3.org/2000/svg" xmlns:ns1="http://sodipodi.sourceforge.net/DTD/sodipodi-0.dtd" version="1.1" id="svg8632" width="244.72517" height="265.60358" viewBox="0 0 244.72517 265.60358">
  <defs id="defs8636" />
  <ns1:namedview pagecolor="#ffffff" bordercolor="#666666" borderopacity="1" objecttolerance="10" gridtolerance="10" guidetolerance="10" id="namedview8634" showgrid="false" />
  <g id="g8640" transform="translate(276.78448,98.485803)">
    <path style="color:#000000;font-style:normal;font-variant:normal;font-weight:normal;font-stretch:normal;font-size:medium;line-height:normal;font-family:sans-serif;font-variant-ligatures:normal;font-variant-position:normal;font-variant-caps:normal;font-variant-numeric:normal;font-variant-alternates:normal;font-variant-east-asian:normal;font-feature-settings:normal;font-variation-settings:normal;text-indent:0;text-align:start;text-decoration:none;text-decoration-line:none;text-decoration-style:solid;text-decoration-color:#000000;letter-spacing:normal;word-spacing:normal;text-transform:none;writing-mode:lr-tb;direction:ltr;text-orientation:mixed;dominant-baseline:auto;baseline-shift:baseline;text-anchor:start;white-space:normal;shape-padding:0;shape-margin:0;inline-size:0;clip-rule:nonzero;display:inline;overflow:visible;visibility:visible;opacity:1;isolation:auto;mix-blend-mode:normal;color-interpolation:sRGB;color-interpolation-filters:linearRGB;solid-color:#000000;solid-opacity:1;vector-effect:none;fill:#ffffff;fill-opacity:1;fill-rule:nonzero;stroke:none;stroke-width:4.36266;stroke-linecap:butt;stroke-linejoin:miter;stroke-miterlimit:4;stroke-dasharray:none;stroke-dashoffset:0;stroke-opacity:1;color-rendering:auto;image-rendering:auto;shape-rendering:auto;text-rendering:auto;enable-background:accumulate;stop-color:#000000;stop-opacity:1" d="m -259.5564,-96.054409 h 210.267827 c 8.1974,0 14.79673,6.59934 14.79673,14.796753 V 149.89139 c 0,8.19741 -6.59933,14.79674 -14.79673,14.79674 H -259.5564 c -8.19743,0 -14.79677,-6.59933 -14.79677,-14.79674 V -81.257656 c 0,-8.197413 6.59934,-14.796753 14.79677,-14.796753 z" id="path81" />
    <path style="color:#000000;font-style:normal;font-variant:normal;font-weight:normal;font-stretch:normal;font-size:medium;line-height:normal;font-family:sans-serif;font-variant-ligatures:normal;font-variant-position:normal;font-variant-caps:normal;font-variant-numeric:normal;font-variant-alternates:normal;font-variant-east-asian:normal;font-feature-settings:normal;font-variation-settings:normal;text-indent:0;text-align:start;text-decoration:none;text-decoration-line:none;text-decoration-style:solid;text-decoration-color:#000000;letter-spacing:normal;word-spacing:normal;text-transform:none;writing-mode:lr-tb;direction:ltr;text-orientation:mixed;dominant-baseline:auto;baseline-shift:baseline;text-anchor:start;white-space:normal;shape-padding:0;shape-margin:0;inline-size:0;clip-rule:nonzero;display:inline;overflow:visible;visibility:visible;opacity:1;isolation:auto;mix-blend-mode:normal;color-interpolation:sRGB;color-interpolation-filters:linearRGB;solid-color:#000000;solid-opacity:1;vector-effect:none;fill:#245041;fill-opacity:1;fill-rule:nonzero;stroke:none;stroke-width:0.5;stroke-linecap:butt;stroke-linejoin:miter;stroke-miterlimit:4;stroke-dasharray:none;stroke-dashoffset:0;stroke-opacity:1;color-rendering:auto;image-rendering:auto;shape-rendering:auto;text-rendering:auto;enable-background:accumulate;stop-color:#000000;stop-opacity:1" d="m -259.55776,-98.235803 c -9.36812,0 -16.97672,7.608588 -16.97672,16.976735 V 149.89102 c 0,9.36812 7.6086,16.97674 16.97672,16.97674 h 210.268097 c 9.36812,0 16.98035,-7.60862 16.98035,-16.97674 V -81.259068 c 0,-9.368147 -7.61223,-16.976735 -16.98035,-16.976735 z m 0,4.362951 h 210.268097 c 7.02668,0 12.61737,5.587101 12.61739,12.613784 V 149.89102 c 0,7.02667 -5.59071,12.61738 -12.61739,12.61738 H -259.55776 c -7.02666,0 -12.61377,-5.59071 -12.61377,-12.61738 V -81.259068 c 0,-7.026683 5.58711,-12.613784 12.61377,-12.613784 z" id="path83" />
    <path d="m -259.56578,-89.414857 c -4.50181,0 -8.12891,3.652677 -8.12891,8.171874 v 110.43963 h 226.548127 v -110.43963 c 0,-4.519197 -3.62709,-8.171874 -8.1289,-8.171874 z m 12.3457,17.718749 h 104.8086 v 84.564455 h -104.8086 z M -267.69469,32.661317 V 149.89765 c 0,4.50546 3.62349,8.12695 8.12891,8.12695 h 210.290317 c 4.50543,0 8.1289,-3.62149 8.1289,-8.12695 V 32.661317 Z" style="color:#000000;font-style:normal;font-variant:normal;font-weight:normal;font-stretch:normal;font-size:medium;line-height:normal;font-family:sans-serif;font-variant-ligatures:normal;font-variant-position:normal;font-variant-caps:normal;font-variant-numeric:normal;font-variant-alternates:normal;font-variant-east-asian:normal;font-feature-settings:normal;font-variation-settings:normal;text-indent:0;text-align:start;text-decoration:none;text-decoration-line:none;text-decoration-style:solid;text-decoration-color:#000000;letter-spacing:normal;word-spacing:normal;text-transform:none;writing-mode:lr-tb;direction:ltr;text-orientation:mixed;dominant-baseline:auto;baseline-shift:baseline;text-anchor:start;white-space:normal;shape-padding:0;shape-margin:0;inline-size:0;clip-rule:nonzero;display:inline;overflow:visible;visibility:visible;opacity:1;isolation:auto;mix-blend-mode:normal;color-interpolation:sRGB;color-interpolation-filters:linearRGB;solid-color:#000000;solid-opacity:1;vector-effect:none;fill:#245041;fill-opacity:1;fill-rule:nonzero;stroke:none;stroke-width:4.36266;stroke-linecap:butt;stroke-linejoin:miter;stroke-miterlimit:4;stroke-dasharray:none;stroke-dashoffset:0;stroke-opacity:1;color-rendering:auto;image-rendering:auto;shape-rendering:auto;text-rendering:auto;enable-background:accumulate;stop-color:#000000;stop-opacity:1" id="path75" />
    <path d="m -228.69469,-67.67853 c -6.8089,-6.57e-4 -12.32878,5.519217 -12.32812,12.328125 5.2e-4,6.025628 4.35711,11.167782 10.30078,12.158203 h -0.19531 V 0.09686226 h 4.44333 l 3e-5,-43.28906426 h -0.20117 c 5.946,-0.987864 10.30563,-6.130697 10.30664,-12.158203 6.5e-4,-6.808145 -5.51803,-12.327704 -12.32618,-12.328125 z m -0.41015,2.511719 h 0.002 v 4.367187 h 0.81445 v -4.367187 c 5.08241,0.211244 9.16325,4.266666 9.40625,9.347656 h -4.42578 v 0.814453 h 4.43164 c -0.18099,5.131181 -4.28215,9.257874 -9.41211,9.470703 v -4.490234 h -0.81445 v 4.490234 c -5.1292,-0.213821 -9.22924,-4.340242 -9.41016,-9.470703 h 4.42969 v -0.814453 h -4.42383 c 0.24285,-5.079556 4.32146,-9.134446 9.40235,-9.347656 z m 36.06445,9.794922 c -2.43019,0 -4.38672,1.956533 -4.38672,4.386719 v 9.5 h 11.33008 v -13.886719 z m 7.57813,0 v 13.886719 h 20.86523 v -13.886719 z m 21.5,0 v 13.886719 h 10.93945 v -9.5 c 0,-2.430186 -1.95653,-4.386719 -4.38672,-4.386719 z m -37.03711,10.964843 -0.7461,0.0098 h -0.0918 -4.74414 -5.62304 l -0.15235,0.08203 c -0.20915,0.113091 -0.41157,0.358448 -0.47656,0.582032 -0.0294,0.103267 -0.21293,0.475674 -0.40625,0.830078 -0.59387,1.088691 -1.50025,2.932391 -1.79492,3.65039 -0.15392,0.375276 -0.44778,1.113439 -0.6543,1.640625 -0.61289,1.565028 -0.90228,2.222894 -1.53516,3.486328 -1.10735,2.210589 -1.70428,3.198335 -2.51367,4.160157 -0.36962,0.439244 -0.83134,0.85426 -1.86914,1.68164 -0.81786,0.652064 -1.59543,1.401906 -1.78515,1.72461 -0.25343,0.430663 -0.37305,0.833625 -0.37305,1.248047 0,0.247229 0.097,0.928279 0.25781,1.814453 0.3789,2.089286 1.13575,5.195359 2.14063,8.777343 0.18208,0.64894 0.32571,1.183482 0.32031,1.1875 -0.005,0 -0.66375,0.13135 -1.46484,0.28125 l -1.45704,0.273438 -0.01,1.123047 c -0.004,0.617918 -6.3e-4,1.144139 0.01,1.169922 0.0153,0.03779 0.51703,0.04883 2.39649,0.04883 h 2.3789 0.2129 c 1.22551,-3.316368 4.40761,-5.669922 8.16015,-5.669922 3.74573,0 6.92394,2.343609 8.1543,5.650391 h 0.0566 11.2207 11.21875 0.52539 c 1.23025,-3.307028 4.40838,-5.652344 8.15431,-5.652344 3.7527,0 6.93481,2.353398 8.16015,5.669922 h 0.15039 6.47656 6.47657 l -0.0234,-1.501953 c -0.0138,-0.82659 -0.051,-4.289962 -0.084,-7.697266 -0.0328,-3.407305 -0.0665,-6.202382 -0.0742,-6.210937 -0.0159,-0.02357 -37.77322,0.06208 -44.76759,0.0957 l -4.91015,0.02344 -0.0176,-0.345703 c -0.0109,-0.19256 -0.0139,-4.197042 -0.0117,-8.902344 l 0.004,-7.927734 h -0.004 v -0.416016 c 0,-0.490267 -0.39437,-0.886719 -0.88477,-0.886719 z m -5.87305,2.289063 h 4.23633 v 5.550781 5.548828 h -6.11719 -6.11914 l 0.26953,-0.800781 c 0.48426,-1.439711 3.44253,-10.168026 3.46875,-10.234375 0.024,-0.06156 0.26115,-0.06445 4.26172,-0.06445 z m 9.44531,1.267578 v 9.498047 c 0,2.430187 1.95653,4.386719 4.38672,4.386719 h 6.94336 v -13.884766 z m 11.96485,0 v 13.884766 h 20.86523 v -13.884766 z m 21.5,0 v 13.884766 h 6.55273 c 2.43019,0 4.38672,-1.956532 4.38672,-4.386719 v -9.498047 z m -46.91016,26.277344 c -3.92746,0 -7.16797,3.242619 -7.16797,7.1699223 0,3.927508 3.24051,7.16796896 7.16797,7.16796896 3.92753,0 7.16992,-3.24046096 7.16992,-7.16796896 0,-3.9273033 -3.24239,-7.1699223 -7.16992,-7.1699223 z m 39.4668,0 c -3.92748,0 -7.16797,3.242619 -7.16797,7.1699223 0,3.927508 3.24049,7.16796896 7.16797,7.16796896 3.92746,0 7.16992,-3.24046096 7.16992,-7.16796896 0,-3.9273033 -3.24246,-7.1699223 -7.16992,-7.1699223 z m -39.4668,2.693359 c 2.47166,0 4.47656,2.0050613 4.47656,4.4765633 0,2.471681 -2.0049,4.474609 -4.47656,4.474609 -2.47159,0 -4.47461,-2.002928 -4.47461,-4.474609 0,-2.471502 2.00302,-4.4765633 4.47461,-4.4765633 z m 39.4668,0 c 2.47163,0 4.47656,2.0050613 4.47656,4.4765633 0,2.471681 -2.00493,4.474609 -4.47656,4.474609 -2.47164,0 -4.47461,-2.002928 -4.47461,-4.474609 0,-2.471502 2.00297,-4.4765633 4.47461,-4.4765633 z m -60.44727,12.83007426 -4,7.75586504 h 9.38141 V 0.95037226 Z m 6.38141,0 V 8.7062373 h 75.06 V 0.95037226 Z" style="opacity:1;fill:#000000;stroke-width:0.5" id="rect6465" />
    <g transform="translate(7.5391743)" id="g10275">
      <g id="g735" style="opacity:1;fill:#ffffff;fill-opacity:1" transform="matrix(3.404229,0,0,3.404229,-565.93356,-332.90739)">
        <g transform="translate(93.599998,120.84)" id="use733" style="fill:#ffffff">
          <path style="fill:#ffffff;stroke:none" d="m 6.5,-0.40625 v 0.4375 H 5.359375 v -3.6875 h 0.46875 c -0.1875,-0.164063 -0.4375,-0.316406 -0.75,-0.453125 v 0.59375 h -1.21875 v 0.9375 H 5.0625 v 1.03125 H 3.859375 V 0 c 0.457031,0.175781 1.019531,0.265625 1.6875,0.265625 2.226563,0 3.757813,-0.058594 4.59375,-0.171875 C 9.910156,0.632813 9.773438,1.082031 9.734375,1.4375 7.128906,1.445313 5.519531,1.4375 4.90625,1.40625 4.300781,1.382813 3.734375,1.238281 3.203125,0.96875 2.679688,0.707031 2.257813,0.316406 1.9375,-0.203125 1.78125,0.453125 1.550781,1.085938 1.25,1.703125 0.894531,1.429688 0.566406,1.21875 0.265625,1.0625 0.773438,0.101563 1.0625,-1.296875 1.125,-3.140625 L 2.25,-3.0625 c 0.125,0 0.1875,0.03125 0.1875,0.09375 0,0.0625 -0.027344,0.15625 -0.078125,0.28125 -0.042969,0.117187 -0.101562,0.429687 -0.171875,0.9375 0.15625,0.375 0.332031,0.6875 0.53125,0.9375 V -3.515625 H 0.5 V -4.5625 H 2.375 V -5.5 H 0.90625 V -6.625 H 2.375 v -1.328125 h 1.109375 c 0.175781,0 0.265625,0.027344 0.265625,0.078125 0,0.054687 -0.015625,0.109375 -0.046875,0.171875 C 3.628906,-7.503906 3.59375,-7.144531 3.59375,-6.625 h 1.25 V -5.5 h -1.25 v 0.9375 h 1.484375 v 0.296875 C 5.648438,-4.773438 5.957031,-5.460938 6,-6.328125 H 5.109375 V -7.40625 h 4.40625 l -0.125,2.296875 c -0.023437,0.34375 -0.085937,0.605469 -0.1875,0.78125 -0.105469,0.167969 -0.289062,0.289062 -0.546875,0.359375 -0.25,0.0625 -0.648437,0.105469 -1.1875,0.125 -0.011719,-0.394531 -0.109375,-0.769531 -0.296875,-1.125 0.300781,0.042969 0.515625,0.0625 0.640625,0.0625 0.132813,0 0.222656,-0.023438 0.265625,-0.078125 0.039063,-0.050781 0.066406,-0.15625 0.078125,-0.3125 l 0.0625,-1.03125 H 7.171875 C 7.148438,-5.722656 7.050781,-5.226563 6.875,-4.84375 c -0.167969,0.375 -0.480469,0.773437 -0.9375,1.1875 h 3.421875 v 3.640625 H 8.140625 V -0.40625 Z M 8.140625,-1.328125 V -2.625 H 6.5 v 1.296875 z m 0,0" id="path7471" />
        </g>
      </g>
      <g id="g739" style="opacity:1;fill:#ffffff;fill-opacity:1" transform="matrix(3.404229,0,0,3.404229,-555.93356,-332.90739)">
        <g transform="translate(103.95795,120.84)" id="use737" style="fill:#ffffff">
          <path style="fill:#ffffff;stroke:none" d="M 2.078125,-0.90625 V 1.734375 H 0.875 v -9.40625 h 3.328125 c -0.230469,1.386719 -0.511719,2.5625 -0.84375,3.53125 0.226563,0.324219 0.410156,0.699219 0.546875,1.125 0.132813,0.417969 0.203125,0.855469 0.203125,1.3125 0,0.449219 -0.136719,0.808594 -0.40625,1.078125 C 3.429688,-0.363281 3.007813,-0.164063 2.4375,-0.03125 2.375,-0.332031 2.253906,-0.625 2.078125,-0.90625 Z m 0,-3.1875 C 2.398438,-4.863281 2.625,-5.675781 2.75,-6.53125 H 2.078125 Z m 0,2.75 c 0.507813,0 0.765625,-0.207031 0.765625,-0.625 0,-0.414063 -0.257812,-1.054688 -0.765625,-1.921875 z m 5.59375,-0.484375 C 8.054688,-2.171875 8.421875,-2.5625 8.765625,-3 9.378906,-2.507813 9.707031,-2.238281 9.75,-2.1875 c 0.039063,0.054687 0.0625,0.105469 0.0625,0.15625 0,0.054687 -0.101562,0.117187 -0.296875,0.1875 -0.1875,0.0625 -0.617187,0.371094 -1.28125,0.921875 0.519531,0.636719 1.175781,1.070313 1.96875,1.3125 C 9.785156,0.734375 9.40625,1.128906 9.0625,1.578125 8.175781,1.003906 7.5,0.351563 7.03125,-0.375 6.570313,-1.113281 6.28125,-2 6.15625,-3.03125 h -0.625 v 2.875 C 5.851563,-0.332031 6.195313,-0.550781 6.5625,-0.8125 6.664063,-0.382813 6.789063,0.00390625 6.9375,0.359375 5.9375,0.796875 5.132813,1.238281 4.53125,1.6875 4.289063,1.300781 4.066406,0.890625 3.859375,0.453125 4.160156,0.296875 4.3125,-0.125 4.3125,-0.8125 V -7.578125 H 9.109375 V -3.03125 H 7.28125 c 0.09375,0.4375 0.222656,0.839844 0.390625,1.203125 z M 5.53125,-5.84375 H 7.828125 V -6.5 H 5.53125 Z m 2.296875,1 H 5.53125 v 0.78125 h 2.296875 z m 0,0" id="path7475" />
        </g>
      </g>
      <g id="g743" style="opacity:1;fill:#ffffff;fill-opacity:1" transform="matrix(3.404229,0,0,3.404229,-555.93356,-332.90739)">
        <g transform="translate(114.21233,120.84)" id="use741" style="fill:#ffffff">
          <path style="fill:#ffffff;stroke:none" d="m 9.4375225,-0.40625 v 0.4375 h -1.140625 v -3.6875 h 0.46875 c -0.1875,-0.164063 -0.4375,-0.316406 -0.75,-0.453125 v 0.59375 h -1.21875 v 0.9375 h 1.203125 v 1.03125 H 6.7968975 V 0 c 0.457031,0.175781 1.019531,0.265625 1.6875,0.265625 2.2265635,0 3.7578145,-0.058594 4.5937525,-0.171875 -0.230469,0.539063 -0.367187,0.988281 -0.40625,1.34375 -2.605471,0.00781 -4.2148465,0 -4.8281275,-0.03125 -0.605469,-0.023437 -1.171875,-0.167969 -1.703125,-0.4375 -0.523437,-0.261719 -0.945312,-0.652344 -1.265625,-1.171875 -0.15625,0.65625 -0.386719,1.289063 -0.6875,1.90625 C 3.8320535,1.429688 3.5039285,1.21875 3.2031476,1.0625 3.7109605,0.101563 4.0000225,-1.296875 4.0625225,-3.140625 l 1.125,0.078125 c 0.125,0 0.1875,0.03125 0.1875,0.09375 0,0.0625 -0.027344,0.15625 -0.078125,0.28125 -0.042969,0.117187 -0.101562,0.429687 -0.171875,0.9375 0.15625,0.375 0.332031,0.6875 0.53125,0.9375 v -2.703125 h -2.21875 V -4.5625 h 1.875 V -5.5 h -1.46875 v -1.125 h 1.46875 v -1.328125 h 1.109375 c 0.175781,0 0.265625,0.027344 0.265625,0.078125 0,0.054687 -0.015625,0.109375 -0.046875,0.171875 -0.074219,0.199219 -0.109375,0.558594 -0.109375,1.078125 h 1.25 V -5.5 h -1.25 v 0.9375 h 1.484375 v 0.296875 c 0.570313,-0.507813 0.878906,-1.195313 0.921875,-2.0625 H 8.0468975 V -7.40625 H 12.45315 l -0.125001,2.296875 c -0.02344,0.34375 -0.08594,0.605469 -0.1875,0.78125 -0.105469,0.167969 -0.289062,0.289062 -0.546875,0.359375 -0.25,0.0625 -0.648438,0.105469 -1.187501,0.125 -0.01172,-0.394531 -0.109375,-0.769531 -0.296875,-1.125 0.300781,0.042969 0.515625,0.0625 0.640625,0.0625 0.132813,0 0.222656,-0.023438 0.265625,-0.078125 0.03906,-0.050781 0.06641,-0.15625 0.07813,-0.3125 l 0.0625,-1.03125 h -1.04688 c -0.02344,0.605469 -0.1210945,1.101562 -0.2968755,1.484375 -0.167969,0.375 -0.480469,0.773437 -0.9375,1.1875 h 3.4218765 v 3.640625 H 11.078148 V -0.40625 Z M 11.078148,-1.328125 V -2.625 H 9.4375225 v 1.296875 z m 0,0" id="path7479" />
        </g>
      </g>
      <g id="g747" style="opacity:1;fill:#ffffff;fill-opacity:1" transform="matrix(3.404229,0,0,3.404229,-545.93356,-332.90739)">
        <g transform="translate(124.67385,120.84)" id="use745" style="fill:#ffffff">
          <path style="fill:#ffffff;stroke:none" d="m 5.7187725,-5.984375 h -1.59375 V -6.96875 h 1.59375 v -0.953125 h 1.125 c 0.175781,0 0.265625,0.046875 0.265625,0.140625 0,0.042969 -0.023437,0.117187 -0.0625,0.21875 -0.03125,0.09375 -0.046875,0.292969 -0.046875,0.59375 h 1.453125 v 0.984375 h -1.46875 v 0.515625 h 1.953125 l -0.015625,-2.5 c 0.25,-0.00781 0.625,-0.015625 1.1250005,-0.015625 0.15625,0 0.234375,0.039062 0.234375,0.109375 0,0.0625 -0.01172,0.132812 -0.03125,0.203125 -0.05469,0.210937 -0.07813,0.476562 -0.07813,0.796875 l 1.046876,-0.59375 c 0.507813,0.636719 0.878906,1.132812 1.109375,1.484375 l -0.9375,0.515625 H 12.7969 v 0.984375 h -2.593752 c 0.01953,1.011719 0.07813,1.835937 0.171875,2.46875 0.300781,-0.539063 0.550781,-1.132813 0.75,-1.78125 0.363282,0.117187 0.660157,0.21875 0.890626,0.3125 0.238281,0.085937 0.382814,0.140625 0.437501,0.171875 0.0625,0.03125 0.09375,0.074219 0.09375,0.125 0,0.054687 -0.03906,0.109375 -0.109375,0.171875 -0.218751,0.1875 -0.460938,0.53125 -0.718751,1.03125 -0.25,0.492187 -0.539062,0.953125 -0.859376,1.390625 0.08203,0.15625 0.191406,0.324219 0.328126,0.5 0.132813,0.1640625 0.234375,0.25 0.296875,0.25 0.07031,0 0.128906,-0.0898437 0.171875,-0.265625 0.03906,-0.1875 0.08203,-0.453125 0.125,-0.796875 0.34375,0.25 0.722657,0.421875 1.140626,0.515625 -0.167969,1.4375 -0.546875,2.15625 -1.140626,2.15625 -0.273437,0 -0.578125,-0.152344 -0.921876,-0.453125 C 10.523461,1.019531 10.250023,0.71875 10.031273,0.40625 9.5508035,0.90625 9.0547105,1.332031 8.5468975,1.6875 8.2422105,1.382813 7.8750225,1.101563 7.4375225,0.84375 c 0.394531,-0.167969 0.789063,-0.414062 1.1875,-0.734375 l -1.34375,0.125 V 1.71875 h -1.15625 v -1.375 C 5.1758035,0.4375 4.3515855,0.550781 3.6562725,0.6875 L 3.4218975,-0.5 6.1250225,-0.65625 v -0.5 c -0.59375,0 -1.261719,0.058594 -2,0.171875 -0.105469,-0.28125 -0.214844,-0.632813 -0.328125,-1.0625 0.394531,-0.09375 0.738281,-0.367188 1.03125,-0.828125 h -1.21875 v -0.984375 h 1.75 c 0.070313,-0.132813 0.171875,-0.34375 0.296875,-0.625 H 3.3593975 V -5.46875 h 2.359375 z m 5.3750005,0.515625 c -0.199219,-0.34375 -0.507812,-0.789063 -0.921875,-1.34375 -0.02344,0.335937 -0.02344,0.78125 0,1.34375 z m -2.1406255,0.984375 h -2.6875 c 0.257813,0.085937 0.453125,0.140625 0.578125,0.171875 0.132813,0.03125 0.203125,0.078125 0.203125,0.140625 0,0.0625 -0.039062,0.109375 -0.109375,0.140625 C 6.8633035,-4 6.7851785,-3.941406 6.7031475,-3.859375 h 2.0625 V -2.875 h -2.734375 c -0.21875,0.3125 -0.421875,0.59375 -0.609375,0.84375 h 0.703125 v -0.5625 h 1.015625 c 0.175781,0 0.265625,0.042969 0.265625,0.125 0,0.042969 -0.023437,0.09375 -0.0625,0.15625 -0.03125,0.054687 -0.054687,0.148437 -0.0625,0.28125 h 1.359375 v 0.875 h -1.359375 v 0.421875 c 0.695313,-0.050781 1.160156,-0.085938 1.390625,-0.109375 -0.011719,0.167969 -0.015625,0.339844 -0.015625,0.515625 0,0.167969 0.00391,0.3046875 0.015625,0.40625 0.28125,-0.25 0.546875,-0.507813 0.796875,-0.78125 -0.335937,-0.9375 -0.507812,-2.195313 -0.515625,-3.78125 z m 0,0" id="path7483" />
        </g>
      </g>
      <g id="g755" style="opacity:1;fill:#ffffff;fill-opacity:1" transform="matrix(3.404229,0,0,3.404229,-715.96542,-276.90739)">
        <g transform="translate(137.82845,120.84)" id="use753" style="fill:#ffffff">
          <path style="fill:#ffffff;stroke:none" d="m 4.65625,-3.828125 -0.5,0.40625 c -0.179687,-0.1875 -0.359375,-0.351563 -0.546875,-0.5 0.25,0.46875 0.484375,0.9375 0.703125,1.40625 L 5.1875,-2.8125 c 0.28125,0.917969 0.492188,1.773437 0.640625,2.5625 L 4.71875,0.03125 c -0.125,-0.6875 -0.308594,-1.375 -0.546875,-2.0625 L 3.484375,-1.75 C 3.367188,-2.132813 3.207031,-2.546875 3,-2.984375 v 4.75 H 1.828125 V -2.65625 C 1.554688,-1.695313 1.269531,-0.976563 0.96875,-0.5 0.65625,-0.882813 0.367188,-1.191406 0.109375,-1.421875 c 0.632813,-0.78125 1.09375,-1.898438 1.375,-3.359375 H 0.5 V -5.9375 H 1.828125 V -7.890625 H 2.90625 c 0.144531,0 0.21875,0.03125 0.21875,0.09375 0,0.0625 -0.023437,0.140625 -0.0625,0.234375 C 3.019531,-7.46875 3,-7.28125 3,-7 v 1.0625 h 1.046875 v 1.15625 H 3 v 0.921875 l 0.421875,-0.21875 C 3.378906,-4.117188 3.320313,-4.164063 3.25,-4.21875 4,-4.65625 4.554688,-5.144531 4.921875,-5.6875 c 0.375,-0.539063 0.71875,-1.347656 1.03125,-2.421875 0.300781,0.054687 0.609375,0.121094 0.921875,0.203125 0.3125,0.074219 0.484375,0.121094 0.515625,0.140625 0.03125,0.023437 0.046875,0.058594 0.046875,0.109375 0,0.054687 -0.023437,0.09375 -0.0625,0.125 C 7.332031,-7.5 7.273438,-7.4375 7.203125,-7.34375 7.835938,-5.957031 8.84375,-4.988281 10.21875,-4.4375 9.863281,-4.007813 9.566406,-3.613281 9.328125,-3.25 9.023438,-3.4375 8.726563,-3.644531 8.4375,-3.875 v 0.59375 H 4.65625 Z M 6.5625,-6.15625 c -0.34375,0.667969 -0.765625,1.25 -1.265625,1.75 h 2.5 C 7.304688,-4.882813 6.894531,-5.46875 6.5625,-6.15625 Z M 7.25,-0.640625 6.234375,-0.359375 C 6.054688,-1.378906 5.847656,-2.226563 5.609375,-2.90625 L 6.8125,-3.1875 c 0.207031,0.699219 0.378906,1.445312 0.515625,2.234375 0.164063,-0.570313 0.316406,-1.273438 0.453125,-2.109375 0.757813,0.179687 1.191406,0.289062 1.296875,0.328125 0.101563,0.03125 0.15625,0.078125 0.15625,0.140625 0,0.054687 -0.054687,0.140625 -0.15625,0.265625 C 8.984375,-2.210938 8.851563,-1.90625 8.6875,-1.40625 L 8.125,0.21875 H 9.796875 V 1.390625 H 3.46875 V 0.21875 h 3.5 C 7.082031,-0.113281 7.175781,-0.398438 7.25,-0.640625 Z m 0,0" id="path7487" />
        </g>
      </g>
      <g id="g759" style="opacity:1;fill:#ffffff;fill-opacity:1" transform="matrix(3.404229,0,0,3.404229,-715.96542,-276.90739)">
        <g transform="translate(148.1864,120.84)" id="use757" style="fill:#ffffff">
          <path style="fill:#ffffff;stroke:none" d="m 12.431324,-6.78125 v -0.359375 h 3.750003 V -1.0625 h -1.078126 v -5.03125 h -1.609376 v 5.125 h -1.062501 v -5.375 l -0.828126,0.65625 c -0.398437,-0.40625 -0.875,-0.8125 -1.437501,-1.21875 l 0.937501,-0.953125 c 0.507813,0.398437 0.953126,0.757812 1.328126,1.078125 z m 6.640631,0.390625 V 0.1875 c 0,0.363281 -0.04687,0.640625 -0.140625,0.828125 -0.09375,0.195313 -0.277345,0.34375 -0.546876,0.4375 -0.261719,0.09375 -0.667969,0.164063 -1.218751,0.21875 -0.02344,-0.542969 -0.171875,-1.023437 -0.453125,-1.4375 0.394531,0.050781 0.675781,0.078125 0.84375,0.078125 0.164064,0 0.269532,-0.039062 0.312501,-0.109375 0.05078,-0.0625 0.07813,-0.1953125 0.07813,-0.390625 v -7.46875 h 1.000001 c 0.164063,0 0.25,0.046875 0.25,0.140625 0,0.042969 -0.01172,0.09375 -0.03125,0.15625 -0.0625,0.210937 -0.09375,0.53125 -0.09375,0.96875 z M 16.509453,-6.53125 h 0.9375 c 0.175781,0 0.265626,0.039062 0.265626,0.109375 0,0.0625 -0.02344,0.148437 -0.0625,0.25 -0.04297,0.105469 -0.0625,0.414062 -0.0625,0.921875 v 4.5625 h -1.078126 z m -2.078127,6.25 C 14.126639,0.394531 13.548513,1.066406 12.696949,1.734375 12.415699,1.472656 12.09148,1.226563 11.728198,1 c 0.726564,-0.398437 1.253908,-0.867187 1.578127,-1.40625 0.332031,-0.539063 0.5,-1.3125 0.5,-2.3125 v -2.921875 h 0.890626 c 0.175781,0 0.265625,0.054687 0.265625,0.15625 0,0.042969 -0.01563,0.101562 -0.04687,0.171875 -0.0625,0.136719 -0.09375,0.449219 -0.09375,0.9375 v 1.734375 c 0,0.90625 -0.109375,1.640625 -0.328125,2.203125 L 15.353202,-1 c 0.289063,0.3125 0.738281,0.886719 1.343751,1.71875 l -1.062501,0.625 c -0.460938,-0.699219 -0.859376,-1.242187 -1.203126,-1.625 z m -2.234377,-3.890625 -1.000001,0.90625 C 10.798511,-3.660156 10.290697,-4.085938 9.6656971,-4.546875 L 10.587573,-5.5 c 0.570313,0.429687 1.109375,0.871094 1.609376,1.328125 z m 0.140625,1.890625 c -0.449219,0.980469 -0.945313,2.2578125 -1.484376,3.828125 -0.429688,-0.242187 -0.835938,-0.511719 -1.2187509,-0.8125 0.4882809,-0.8203125 1.0390639,-2.050781 1.6562509,-3.6875 0.3125,0.28125 0.660157,0.507812 1.046876,0.671875 z m 0,0" id="path7491" />
        </g>
      </g>
      <g id="g763" style="opacity:1;fill:#ffffff;fill-opacity:1" transform="matrix(3.404229,0,0,3.404229,-715.96542,-276.90739)">
        <g transform="translate(158.44077,120.84)" id="use761" style="fill:#ffffff">
          <path style="fill:#ffffff;stroke:none" d="m 24.815782,0.890625 v 0.8125 H 23.597031 V -3.4375 h 1.484376 v -4.453125 h 1.171876 c 0.164063,0 0.25,0.039062 0.25,0.109375 0,0.0625 -0.02344,0.140625 -0.0625,0.234375 -0.04297,0.1875 -0.0625,0.664062 -0.0625,1.421875 h 2.421877 v 1.15625 h -2.421877 v 1.53125 h 1.906252 v 5.140625 h -1.296877 v -0.8125 z M 26.987658,-0.15625 V -2.3125 h -2.171876 v 2.15625 z m -5.843755,-5.859375 h 2.578128 v 1.125 h -4.437504 v -1.125 h 1.812501 c -0.09375,-0.488281 -0.242187,-1.003906 -0.4375,-1.546875 l 1.343751,-0.3125 c 0.144531,0.429687 0.269531,0.949219 0.375001,1.5625 z m 1.421877,5.03125 c 0.382813,-0.09375 0.671875,-0.171875 0.859375,-0.234375 0,0.335937 0.03906,0.695312 0.125001,1.078125 -1.585939,0.363281 -2.917972,0.75 -4.000004,1.15625 l -0.453125,-1.34375 c 1.039064,-0.175781 1.835939,-0.316406 2.390627,-0.421875 0.21875,-1.363281 0.347656,-2.671875 0.390625,-3.921875 0.843751,0.0625 1.296876,0.105469 1.359376,0.125 0.07031,0.023437 0.109375,0.058594 0.109375,0.109375 0,0.042969 -0.04687,0.140625 -0.140625,0.296875 -0.08594,0.148437 -0.164062,0.433594 -0.234375,0.859375 z m -1.671877,-3.5 c 0.132813,0.867187 0.25,1.984375 0.343751,3.359375 l -1.109376,0.140625 C 20.022809,-2.179688 19.870465,-3.28125 19.675152,-4.28125 Z m 0,0" id="path7495" />
        </g>
      </g>
    </g>
    <g id="use3109" style="opacity:1;fill:#ffffff;fill-opacity:1" transform="matrix(1.9540622,0,0,2.8024111,-139.09025,-13.338726)">
      <path id="path8673" d="M 4.234375,-8.03125 C 4.828125,-8.175781 5.5625,-8.25 6.4375,-8.25 7.832031,-8.25 8.941406,-7.832031 9.765625,-7 10.585938,-6.164063 11,-5.171875 11,-4.015625 c 0,1.15625 -0.429687,2.136719 -1.28125,2.9375 C 8.863281,-0.273438 7.738281,0.125 6.34375,0.125 c -1.917969,0 -3.585937,-0.425781 -5,-1.28125 L 2.671875,-3.1875 c 0.957031,0.625 2.128906,0.9375 3.515625,0.9375 0.851563,0 1.472656,-0.15625 1.859375,-0.46875 0.394531,-0.320313 0.59375,-0.773438 0.59375,-1.359375 0,-0.59375 -0.210937,-1.039063 -0.625,-1.34375 C 7.597656,-5.722656 7,-5.875 6.21875,-5.875 c -0.773437,0 -1.515625,0.152344 -2.234375,0.453125 L 1.5625,-6.375 2.078125,-12.015625 H 9.9375 v 2.40625 H 4.46875 Z m 0,0" style="fill:#ffffff;stroke:none" />
    </g>
    <g style="opacity:1;fill:#ffffff;fill-opacity:1" id="g3115" transform="matrix(1.9540622,0,0,2.8024111,-436.2491,-344.24744)">
      <g style="fill:#ffffff" id="use3113" transform="translate(164.45592,118.08)">
        <path id="path8669" d="m 6.296875,-12.140625 c 1.425781,0 2.613281,0.554687 3.5625,1.65625 0.945313,1.105469 1.421875,2.601562 1.421875,4.484375 0,1.875 -0.449219,3.367187 -1.34375,4.46875 C 9.039063,-0.425781 7.8125,0.125 6.25,0.125 4.695313,0.125 3.46875,-0.414063 2.5625,-1.5 1.65625,-2.59375 1.203125,-4.082031 1.203125,-5.96875 c 0,-1.894531 0.453125,-3.394531 1.359375,-4.5 0.90625,-1.113281 2.148438,-1.671875 3.734375,-1.671875 z M 6.40625,-2.25 c 0.75,0 1.359375,-0.347656 1.828125,-1.046875 C 8.703125,-4.003906 8.9375,-4.957031 8.9375,-6.15625 8.9375,-7.351563 8.722656,-8.253906 8.296875,-8.859375 7.867188,-9.472656 7.191406,-9.78125 6.265625,-9.78125 c -1.804687,0 -2.703125,1.273437 -2.703125,3.8125 0,1.199219 0.242188,2.121094 0.734375,2.765625 C 4.785156,-2.566406 5.488281,-2.25 6.40625,-2.25 Z m 0,0" style="fill:#ffffff;stroke:none" />
      </g>
    </g>
    <g transform="matrix(1.9540622,0,0,2.8024111,-411.87709,-344.24744)" id="g8685" style="opacity:1;fill:#ffffff;fill-opacity:1">
      <g style="fill:#ffffff" transform="translate(164.45592,118.08)" id="g8683">
        <path style="fill:#ffffff;stroke:none" d="m 6.296875,-12.140625 c 1.425781,0 2.613281,0.554687 3.5625,1.65625 0.945313,1.105469 1.421875,2.601562 1.421875,4.484375 0,1.875 -0.449219,3.367187 -1.34375,4.46875 C 9.039063,-0.425781 7.8125,0.125 6.25,0.125 4.695313,0.125 3.46875,-0.414063 2.5625,-1.5 1.65625,-2.59375 1.203125,-4.082031 1.203125,-5.96875 c 0,-1.894531 0.453125,-3.394531 1.359375,-4.5 0.90625,-1.113281 2.148438,-1.671875 3.734375,-1.671875 z M 6.40625,-2.25 c 0.75,0 1.359375,-0.347656 1.828125,-1.046875 C 8.703125,-4.003906 8.9375,-4.957031 8.9375,-6.15625 8.9375,-7.351563 8.722656,-8.253906 8.296875,-8.859375 7.867188,-9.472656 7.191406,-9.78125 6.265625,-9.78125 c -1.804687,0 -2.703125,1.273437 -2.703125,3.8125 0,1.199219 0.242188,2.121094 0.734375,2.765625 C 4.785156,-2.566406 5.488281,-2.25 6.40625,-2.25 Z m 0,0" id="path8681" />
      </g>
    </g>
    <g id="g731" style="opacity:1;fill:#ffffff;fill-opacity:1" transform="matrix(2.1078402,0,0,2.5693542,-438.64832,-266.30206)">
      <g style="fill:#ffffff" id="use729" transform="translate(177.64441,99)">
        <path style="fill:#ffffff;stroke:none" d="M 8.09375,0 H 6.875 V -2.796875 C 6.875,-2.992188 6.789063,-3.164063 6.625,-3.3125 6.457031,-3.457031 6.265625,-3.53125 6.046875,-3.53125 5.835938,-3.53125 5.65625,-3.457031 5.5,-3.3125 5.351563,-3.164063 5.28125,-2.992188 5.28125,-2.796875 V 0 H 4.078125 V -2.8125 C 4.078125,-3 4.007813,-3.164063 3.875,-3.3125 3.738281,-3.457031 3.550781,-3.53125 3.3125,-3.53125 c -0.230469,0 -0.429687,0.070312 -0.59375,0.203125 C 2.5625,-3.191406 2.484375,-3.019531 2.484375,-2.8125 V 0 H 1.25 V -4.65625 H 2.484375 V -4.375 c 0.363281,-0.226563 0.753906,-0.34375 1.171875,-0.34375 0.519531,0 0.929688,0.179687 1.234375,0.53125 0.425781,-0.351563 0.890625,-0.53125 1.390625,-0.53125 0.5,0 0.925781,0.152344 1.28125,0.453125 0.351563,0.304687 0.53125,0.664062 0.53125,1.078125 z m 0,0" id="path8707" />
      </g>
    </g>
  </g>
</svg>
