<?xml version="1.0" encoding="UTF-8"?>
<svg xmlns="http://www.w3.org/2000/svg" xmlns:ns1="http://sodipodi.sourceforge.net/DTD/sodipodi-0.dtd" viewBox="0 0 216.49998 126.14832" height="126.14832" width="216.49998" id="svg2861" version="1.1">
  <defs id="defs2865" />
  <ns1:namedview showgrid="false" id="namedview2863" guidetolerance="10" gridtolerance="10" objecttolerance="10" borderopacity="1" bordercolor="#666666" pagecolor="#ffffff" />
  <g transform="translate(-1.5726099,-2.3929612)" id="g2869">
    <path id="path81" d="m 13.8761,4.1916339 h 191.89215 c 5.81971,0 10.50489,4.6851716 10.50489,10.5048831 V 116.23899 c 0,5.81971 -4.68518,10.50486 -10.50489,10.50486 H 13.8761 c -5.8197021,0 -10.5048691,-4.68515 -10.5048691,-10.50486 V 14.696517 c 0,-5.8197115 4.685167,-10.5048831 10.5048691,-10.5048831 z" style="color:#000000;font-style:normal;font-variant:normal;font-weight:normal;font-stretch:normal;font-size:medium;line-height:normal;font-family:sans-serif;font-variant-ligatures:normal;font-variant-position:normal;font-variant-caps:normal;font-variant-numeric:normal;font-variant-alternates:normal;font-variant-east-asian:normal;font-feature-settings:normal;font-variation-settings:normal;text-indent:0;text-align:start;text-decoration:none;text-decoration-line:none;text-decoration-style:solid;text-decoration-color:#000000;letter-spacing:normal;word-spacing:normal;text-transform:none;writing-mode:lr-tb;direction:ltr;text-orientation:mixed;dominant-baseline:auto;baseline-shift:baseline;text-anchor:start;white-space:normal;shape-padding:0;shape-margin:0;inline-size:0;clip-rule:nonzero;display:inline;overflow:visible;visibility:visible;opacity:1;isolation:auto;mix-blend-mode:normal;color-interpolation:sRGB;color-interpolation-filters:linearRGB;solid-color:#000000;solid-opacity:1;vector-effect:none;fill:#000000;fill-opacity:1;fill-rule:nonzero;stroke:none;stroke-width:3.09725;stroke-linecap:butt;stroke-linejoin:miter;stroke-miterlimit:4;stroke-dasharray:none;stroke-dashoffset:0;stroke-opacity:1;color-rendering:auto;image-rendering:auto;shape-rendering:auto;text-rendering:auto;enable-background:accumulate;stop-color:#000000;stop-opacity:1" />
    <path id="path83" d="m 13.875163,2.6429612 c -6.6508561,0 -12.0525531,5.4016897 -12.0525531,12.0525558 V 116.23873 c 0,6.65085 5.401697,12.05255 12.0525531,12.05255 H 205.76748 c 6.65085,0 12.05512,-5.40171 12.05512,-12.05255 V 14.695517 c 0,-6.6508661 -5.40427,-12.0525558 -12.05512,-12.0525558 z m 0,3.0974613 H 205.76748 c 4.98855,0 8.95765,3.966525 8.95767,8.9550945 V 116.23873 c 0,4.98854 -3.96912,8.95766 -8.95767,8.95766 H 13.875163 c -4.9885581,0 -8.9550911,-3.96913 -8.9550911,-8.95767 V 14.695517 c 0,-4.9885695 3.966533,-8.9550945 8.9550911,-8.9550945 z" style="color:#000000;font-style:normal;font-variant:normal;font-weight:normal;font-stretch:normal;font-size:medium;line-height:normal;font-family:sans-serif;font-variant-ligatures:normal;font-variant-position:normal;font-variant-caps:normal;font-variant-numeric:normal;font-variant-alternates:normal;font-variant-east-asian:normal;font-feature-settings:normal;font-variation-settings:normal;text-indent:0;text-align:start;text-decoration:none;text-decoration-line:none;text-decoration-style:solid;text-decoration-color:#000000;letter-spacing:normal;word-spacing:normal;text-transform:none;writing-mode:lr-tb;direction:ltr;text-orientation:mixed;dominant-baseline:auto;baseline-shift:baseline;text-anchor:start;white-space:normal;shape-padding:0;shape-margin:0;inline-size:0;clip-rule:nonzero;display:inline;overflow:visible;visibility:visible;opacity:1;isolation:auto;mix-blend-mode:normal;color-interpolation:sRGB;color-interpolation-filters:linearRGB;solid-color:#000000;solid-opacity:1;vector-effect:none;fill:#ffff00;fill-opacity:1;fill-rule:nonzero;stroke:none;stroke-width:0.5;stroke-linecap:butt;stroke-linejoin:miter;stroke-miterlimit:4;stroke-dasharray:none;stroke-dashoffset:0;stroke-opacity:1;color-rendering:auto;image-rendering:auto;shape-rendering:auto;text-rendering:auto;enable-background:accumulate;stop-color:#000000;stop-opacity:1" />
    <path d="m 13.869734,8.9049555 c -3.196047,0 -5.7701441,2.5924265 -5.7701441,5.8008055 V 116.24381 c 0,3.19863 2.5715261,5.77014 5.7701441,5.77014 H 205.77802 c 3.19862,0 5.77014,-2.57151 5.77014,-5.77014 V 14.705761 c 0,-3.208379 -2.57411,-5.8008055 -5.77014,-5.8008055 z" style="color:#000000;font-style:normal;font-variant:normal;font-weight:normal;font-stretch:normal;font-size:medium;line-height:normal;font-family:sans-serif;font-variant-ligatures:normal;font-variant-position:normal;font-variant-caps:normal;font-variant-numeric:normal;font-variant-alternates:normal;font-variant-east-asian:normal;font-feature-settings:normal;font-variation-settings:normal;text-indent:0;text-align:start;text-decoration:none;text-decoration-line:none;text-decoration-style:solid;text-decoration-color:#000000;letter-spacing:normal;word-spacing:normal;text-transform:none;writing-mode:lr-tb;direction:ltr;text-orientation:mixed;dominant-baseline:auto;baseline-shift:baseline;text-anchor:start;white-space:normal;shape-padding:0;shape-margin:0;inline-size:0;clip-rule:nonzero;display:inline;overflow:visible;visibility:visible;opacity:1;isolation:auto;mix-blend-mode:normal;color-interpolation:sRGB;color-interpolation-filters:linearRGB;solid-color:#000000;solid-opacity:1;vector-effect:none;fill:#ffff00;fill-opacity:1;fill-rule:nonzero;stroke:none;stroke-width:3.09725;stroke-linecap:butt;stroke-linejoin:miter;stroke-miterlimit:4;stroke-dasharray:none;stroke-dashoffset:0;stroke-opacity:1;color-rendering:auto;image-rendering:auto;shape-rendering:auto;text-rendering:auto;enable-background:accumulate;stop-color:#000000;stop-opacity:1" id="path75" />
    <path d="m 33.723216,30.617975 h -8.109853 v -4.137242 h 10.063949 c 0.672839,-1.524624 1.288414,-3.145879 1.846727,-4.867343 1.413678,0.336418 2.684197,0.658522 3.804404,0.951993 1.145256,0.307789 1.789463,0.490315 1.900412,0.558313 0.139578,0.0859 0.221902,0.225473 0.221902,0.447368 0,0.196832 -0.221902,0.475996 -0.669261,0.841047 -0.418735,0.332841 -0.923364,1.034313 -1.510307,2.068622 h 14.874028 v 4.137242 H 38.977094 c -1.227574,2.165253 -2.684197,4.348399 -4.359136,6.542282 h 5.590286 v -5.031973 h 4.251769 c 0.894731,0 1.342098,0.207569 1.342098,0.615575 0,0.193262 -0.100201,0.472419 -0.282734,0.83747 -0.193262,0.375787 -0.279157,1.567571 -0.279157,3.578928 h 9.172796 v 4.137245 H 45.24022 v 4.026295 h 12.583514 v 3.97261 H 45.24022 v 7.4907 h -5.031976 v -7.4907 h -15.87971 v -3.97261 h 15.87971 v -4.026295 c -5.228816,0 -9.115533,0.225472 -11.688782,0.672837 -0.375787,-1.567571 -0.669261,-3.102932 -0.894734,-4.641871 1.259785,-0.40442 2.322727,-1.091575 3.188826,-2.068622 0.894735,-0.966311 1.861046,-2.515987 2.90967,-4.641871 z" style="opacity:1;fill:#000000;fill-opacity:1;fill-rule:nonzero;stroke:none;stroke-width:3.57892" id="path1345" />
    <path d="m 80.350601,40.180876 h 3.743561 v 3.800823 h -3.743561 v 4.362714 c 2.304832,-0.669259 3.632615,-1.077257 3.969034,-1.231153 0,1.202521 0.182525,2.433673 0.558313,3.693456 -6.191549,2.03999 -11.001631,3.757876 -14.426666,5.142922 l -1.789463,-4.584609 c 0.475997,-0.110938 1.23115,-0.279157 2.23683,-0.504629 V 38.334148 h 3.410721 c 0.629889,0 0.951993,0.168219 0.951993,0.504629 0,0.153885 -0.05725,0.336419 -0.168218,0.558313 -0.225473,0.447364 -0.336422,1.606938 -0.336422,3.467983 v 7.046911 c 0.697892,-0.182525 1.231153,-0.307789 1.567571,-0.393683 V 36.265526 H 71.235057 V 23.907482 H 84.040468 V 36.265526 H 80.35059 Z m -0.504629,-7.437017 v -5.200184 h -4.47366 v 5.200184 z m 9.731108,0.279157 h 11.517 v 13.027302 h -11.517 v 5.257449 h 13.64288 v 4.137241 H 85.271631 V 24.354849 h 17.164539 v 4.137242 H 89.57708 Z m 0,9.001007 h 7.043334 V 37.049311 H 89.57708 Z" style="opacity:1;fill:#000000;fill-opacity:1;fill-rule:nonzero;stroke:none;stroke-width:3.57892" id="path1347" />
    <path d="m 134.39715,25.417791 h 9.61658 l -3.80082,6.764177 h 5.20018 v 20.188741 c 0,1.707149 -0.58694,2.823775 -1.73578,3.357034 -1.11662,0.515366 -2.54104,0.80884 -4.24818,0.894734 -0.19684,-1.538941 -0.65853,-2.991986 -1.39937,-4.362717 0.89474,0.110938 1.53894,0.168219 1.95768,0.168219 0.44736,0 0.72652,-0.100201 0.84105,-0.279157 0.11093,-0.153885 0.16462,-0.475996 0.16462,-0.951996 v -3.074307 h -3.13156 v 7.605224 h -4.07998 v -7.605224 h -3.07788 c -0.55831,3.271142 -1.7322,6.234496 -3.52166,8.890061 -1.31347,-0.937679 -2.65557,-1.721465 -4.0263,-2.347779 0.58695,-0.715784 1.12021,-1.456623 1.56757,-2.23683 h -3.18882 v -1.342099 h -2.12589 v 3.131564 H 115.3823 V 41.859393 l -1.45305,1.843149 c -0.7122,-1.231152 -1.56757,-2.319146 -2.57325,-3.299774 2.75578,-2.684198 4.59893,-6.624599 5.53661,-11.853413 h -3.96904 v -3.972611 h 13.64288 v 3.972611 h -4.86376 c -0.49032,2.054305 -1.14526,4.026294 -1.95768,5.926705 h 5.7585 V 50.8604 c 0.96631,-2.125884 1.45663,-4.767134 1.45663,-7.941643 v -7.716173 c -0.82674,-0.783786 -1.73579,-1.481677 -2.74147,-2.125884 1.564,-1.481677 2.80946,-3.045668 3.74714,-4.695555 0.96274,-1.678517 1.8181,-3.886718 2.57325,-6.653231 1.3421,0.150315 2.51599,0.33284 3.52167,0.558313 1.00568,0.221903 1.57831,0.390105 1.7322,0.501051 0.13958,0.08589 0.22547,0.211166 0.22547,0.393683 0,0.193262 -0.16821,0.418735 -0.50462,0.669259 -0.30779,0.225473 -0.66926,0.755153 -1.11663,1.567571 z m 1.11663,6.764177 1.45304,-3.0743 h -4.4164 c -0.66926,1.159574 -1.38504,2.179566 -2.12588,3.0743 z m -1.73221,6.377653 v -2.684198 h -2.79514 v 2.684198 z m 4.07998,-2.684198 v 2.684198 h 3.13157 v -2.684198 z m -16.32707,11.685205 v -9.115534 h -2.12589 v 9.115534 z m 12.24709,-2.963354 v -2.684197 h -2.79514 v 2.684197 z m 4.07998,-2.684197 v 2.684197 h 3.13157 v -2.684197 z" style="opacity:1;fill:#000000;fill-opacity:1;fill-rule:nonzero;stroke:none;stroke-width:3.57892" id="path1349" />
    <path d="m 170.17322,29.723243 -4.75282,2.125885 c -1.11662,-2.71283 -2.4444,-5.103553 -3.96903,-7.15786 l 4.47366,-2.351357 c 1.67852,2.659145 3.08862,5.11787 4.24819,7.383332 z m 10.68311,15.432344 c -1.78947,4.334082 -5.06061,8.292379 -9.78838,11.914255 -1.67494,-1.427993 -3.11724,-2.50525 -4.30545,-3.246089 4.09788,-2.723566 7.01828,-5.536602 8.77912,-8.442694 1.75009,-2.934721 2.63051,-6.95028 2.63051,-12.021625 V 22.454438 h 4.52734 c 0.70148,0 1.06295,0.168218 1.06295,0.501051 0,0.196832 -0.11094,0.447364 -0.33285,0.783785 -0.19683,0.336419 -0.28273,1.20252 -0.28273,2.573249 v 5.983969 c 0,1.60694 -0.0823,3.117249 -0.2219,4.527347 0.78378,3.84377 1.92904,7.046911 3.46798,9.620162 1.56399,2.573249 3.70419,4.767135 6.43134,6.599545 -1.31704,1.034312 -2.7844,2.430095 -4.41997,4.190928 -3.62188,-3.353459 -6.13787,-7.379754 -7.54796,-12.078887 z m -7.15786,0.504629 c -3.73283,4.026296 -6.93597,7.394067 -9.62017,10.121211 -1.31346,-1.313466 -2.43009,-2.612618 -3.35345,-3.915347 1.45304,-1.453047 2.17957,-3.213881 2.17957,-5.311133 v -9.562898 h -5.03198 v -4.527346 h 9.67385 v 14.201193 c 0.81241,-1.00568 1.9863,-2.684197 3.52166,-5.031976 0.51895,1.159573 1.39936,2.501672 2.63052,4.026296 z" style="opacity:1;fill:#000000;fill-opacity:1;fill-rule:nonzero;stroke:none;stroke-width:3.57892" id="path1351" />
    <path d="m 31.791768,83.821145 c -0.550434,-0.733043 -1.223476,-1.47652 -2.039995,-2.240867 l 3.628687,-1.588692 c 0.89739,1.171302 1.651301,2.240866 2.282605,3.219125 l -1.672171,0.610434 h 4.648686 c 0.733043,-1.160869 1.385215,-2.496517 1.956518,-3.993907 l 3.545213,1.181737 c 0.326093,0.112167 0.49044,0.245218 0.49044,0.406956 0,0.164347 -0.195652,0.388695 -0.571303,0.652174 -0.357397,0.245216 -0.918266,0.837389 -1.672179,1.75304 h 7.173908 v 2.812167 H 24.657 v -2.812167 z m 15.448667,7.419114 v 10.719111 c 0,0.89739 -0.153978,1.5913 -0.448688,2.07912 -0.307838,0.49044 -0.847837,0.83739 -1.630445,1.06174 -0.795637,0.24261 -1.987816,0.41739 -3.586945,0.52957 -0.08348,-1.54957 -0.479998,-2.83304 -1.181736,-3.83217 1.322606,0.24522 2.178258,0.36783 2.566951,0.36783 0.406956,0 0.652168,-0.073 0.733051,-0.20609 0.101739,-0.14087 0.164347,-0.39652 0.164347,-0.77217 V 87.165485 h 3.219118 c 0.427832,0 0.652166,0.08086 0.652166,0.242609 0,0.164347 -0.06007,0.357389 -0.161804,0.571303 -0.08354,0.224346 -0.164348,0.641738 -0.24521,1.262605 -0.06261,0.602608 -0.08081,1.265216 -0.08081,1.998257 z M 29.83525,99.066331 v 6.399119 H 26.655256 V 87.898526 h 10.515633 v 13.940844 c 0,0.89478 -0.101739,1.54695 -0.284349,1.95652 -0.193049,0.40695 -0.592171,0.70173 -1.181737,0.89478 -0.602607,0.21391 -1.5913,0.38869 -2.976515,0.52956 -0.06001,-1.22087 -0.469564,-2.3426 -1.223475,-3.34173 0.83739,0.16435 1.406083,0.24522 1.71391,0.24522 0.326085,0 0.529563,-0.0704 0.610433,-0.20348 0.08086,-0.14347 0.122615,-0.39913 0.122615,-0.77478 v -2.079129 z m 4.116513,-6.806073 V 90.588087 H 29.83525 v 1.672171 z M 29.83525,94.82721 v 1.672169 h 4.116513 V 94.82721 Z m 9.088679,-5.788685 h 2.893037 c 0.427826,0 0.652174,0.122615 0.652174,0.367825 0,0.112167 -0.03913,0.263478 -0.119994,0.448694 -0.143471,0.326087 -0.206086,1.171303 -0.206086,2.527821 v 8.233025 h -3.219123 z" style="opacity:1;fill:#000000;fill-opacity:1;fill-rule:nonzero;stroke:none;stroke-width:2.60868" id="path1353" />
    <path d="M 65.327756,84.473317 C 65.053843,83.526362 64.48254,82.425494 63.616448,81.173322 l 4.116514,-1.346084 c 0.589577,1.385215 1.111302,2.720865 1.549562,3.993907 l -2.895647,0.652172 h 12.268679 v 3.138254 h -12.83736 c -0.06261,1.366953 -0.112109,2.394778 -0.164348,3.099125 h 9.78259 l -0.936526,9.172154 c -0.143413,1.40609 -0.409558,2.46521 -0.816514,3.17739 -0.386099,0.70434 -1.038265,1.22347 -1.956518,1.54956 -0.897396,0.32608 -2.282611,0.52956 -4.158266,0.61043 -0.112108,-1.44521 -0.558253,-2.80173 -1.343462,-4.07477 1.651301,0.32608 2.731299,0.48782 3.219117,0.48782 0.508695,0 0.855644,-0.10174 1.019992,-0.28434 0.161804,-0.16175 0.253056,-0.45913 0.28436,-0.89739 l 0.693899,-6.764339 h -6.114764 c -0.469565,2.60869 -1.252172,4.839121 -2.363474,6.683469 -1.090426,1.81304 -2.62956,3.47477 -4.606954,4.97216 -0.813912,-0.76435 -1.94607,-1.54695 -3.383465,-2.36347 2.548697,-1.71131 4.372172,-3.667821 5.462598,-5.869557 1.079998,-2.201735 1.599121,-5.36086 1.549562,-9.498242 H 54.893 v -3.138254 z" style="opacity:1;fill:#000000;fill-opacity:1;fill-rule:nonzero;stroke:none;stroke-width:2.60868" id="path1355" />
    <path d="M 122.25153,106.67687 H 103.4133 c 0.19335,-3.95998 0.78476,-7.211636 1.77807,-9.722838 1.02361,-2.559523 2.25194,-4.614601 3.67361,-6.122412 1.45201,-1.55071 3.28694,-2.8707 5.50855,-3.9385 0.90227,-0.380985 1.61502,-0.94438 2.1306,-1.679497 0.54974,-0.778042 0.83027,-1.593644 0.83027,-2.430712 0,-0.837068 -0.44358,-1.593647 -1.30414,-2.264374 -0.82648,-0.670724 -1.88044,-1.003407 -3.13908,-1.003407 -2.29365,0 -4.36739,1.126819 -6.21748,3.35363 l -3.2604,-4.780938 c 1.543,-1.717058 3.05189,-3.020947 4.56076,-3.858015 1.49752,-0.837068 3.19974,-1.255601 5.09529,-1.255601 2.87369,0 5.06499,0.922918 6.57766,2.763393 1.53919,1.802911 2.3088,4.088748 2.3088,6.878972 0,2.806318 -0.6369,5.092155 -1.89557,6.873607 -1.27384,1.802921 -3.48028,3.439485 -6.6345,4.947273 -1.58472,0.837075 -3.0064,2.68292 -4.26505,5.532156 h 13.09084 z" style="opacity:1;fill:#000000;fill-opacity:1;fill-rule:nonzero;stroke:none;stroke-width:4.51026" id="path1357" />
    <path d="m 137.13556,72.974206 c 2.79788,0 5.12183,1.550717 6.99089,4.609231 1.85005,3.079976 2.78268,7.25458 2.78268,12.491613 0,5.199476 -0.88712,9.347242 -2.66517,12.41111 -1.74771,3.0156 -4.13234,4.52877 -7.16905,4.52877 -3.04809,0 -5.44787,-1.51317 -7.22592,-4.52877 -1.77808,-3.020926 -2.66521,-7.147246 -2.66521,-12.41111 0,-5.237033 0.88713,-9.411637 2.66521,-12.491613 1.77805,-3.058514 4.20437,-4.609231 7.28657,-4.609231 z m 0.23516,27.499794 c 1.452,0 2.63863,-0.965849 3.5561,-2.935091 0.94776,-2.012185 1.42166,-4.652187 1.42166,-7.962881 0,-3.294609 -0.44358,-5.789713 -1.30414,-7.463846 -0.83026,-1.717057 -2.13063,-2.597052 -3.90866,-2.597052 -3.55611,0 -5.33036,3.519974 -5.33036,10.55992 0,3.353631 0.4739,5.934577 1.42169,7.716033 0.94776,1.802904 2.32395,2.682917 4.14371,2.682917 z" style="opacity:1;fill:#000000;fill-opacity:1;fill-rule:nonzero;stroke:none;stroke-width:4.51026" id="path1359" />
    <path d="m 161.64534,72.974206 c 2.79785,0 5.12181,1.550717 6.98707,4.609231 1.85386,3.079976 2.78649,7.25458 2.78649,12.491613 0,5.199476 -0.89092,9.347242 -2.66518,12.41111 -1.74771,3.0156 -4.13232,4.52877 -7.16902,4.52877 -3.0519,0 -5.44789,-1.51317 -7.22596,-4.52877 -1.77805,-3.020926 -2.66517,-7.147246 -2.66517,-12.41111 0,-5.237033 0.88712,-9.411637 2.66517,-12.491613 1.77807,-3.058514 4.20438,-4.609231 7.2866,-4.609231 z m 0.23513,27.499794 c 1.45199,0 2.63484,-0.965849 3.55608,-2.935091 0.9478,-2.012185 1.42168,-4.652187 1.42168,-7.962881 0,-3.294609 -0.44735,-5.789713 -1.30414,-7.463846 -0.83025,-1.717057 -2.13441,-2.597052 -3.90867,-2.597052 -3.55612,0 -5.33414,3.519974 -5.33414,10.55992 0,3.353631 0.4739,5.934577 1.42167,7.716033 0.94778,1.802904 2.32777,2.682917 4.14752,2.682917 z" style="opacity:1;fill:#000000;fill-opacity:1;fill-rule:nonzero;stroke:none;stroke-width:4.51026" id="path1361" />
    <path d="m 192.08972,106.87228 h -2.38503 v -6.33299 c 0,-0.44152 -0.1684,-0.830963 -0.48953,-1.166068 -0.32897,-0.328309 -0.70494,-0.495861 -1.13377,-0.495861 -0.41319,0 -0.76368,0.167557 -1.06916,0.495861 -0.29177,0.335105 -0.42883,0.724548 -0.42883,1.166068 v 6.33299 h -2.35566 v -6.36695 c 0,-0.42567 -0.13908,-0.797003 -0.39751,-1.132108 -0.26828,-0.328309 -0.6364,-0.495861 -1.10245,-0.495861 -0.45036,0 -0.84199,0.158489 -1.16313,0.459635 -0.30548,0.310197 -0.45821,0.697374 -0.45821,1.168334 v 6.36695 h -2.41636 V 96.330127 h 2.41636 v 0.636243 c 0.71081,-0.513976 1.47645,-0.778888 2.29496,-0.778888 1.01628,0 1.81912,0.407557 2.41636,1.204559 0.83417,-0.797002 1.74471,-1.204559 2.72378,-1.204559 0.97908,0 1.81326,0.346423 2.5084,1.025686 0.68926,0.690584 1.03978,1.503435 1.03978,2.443081 z" style="opacity:1;fill:#000000;fill-opacity:1;fill-rule:nonzero;stroke:none;stroke-width:2.10562" id="path1363" />
  </g>
</svg>
