<?xml version="1.0" encoding="UTF-8"?>
<svg xmlns="http://www.w3.org/2000/svg" xmlns:ns1="http://sodipodi.sourceforge.net/DTD/sodipodi-0.dtd" viewBox="0 0 179.98517 156.95244" height="156.95244" width="179.98517" id="svg8201" version="1.1">
  <defs id="defs8205" />
  <ns1:namedview showgrid="false" id="namedview8203" guidetolerance="10" gridtolerance="10" objecttolerance="10" borderopacity="1" bordercolor="#666666" pagecolor="#ffffff" />
  <g transform="translate(-2.8721995,-4.7625366)" id="g8209">
    <path id="path17489" d="m 11.731166,6.0605075 c -4.188228,0 -7.560991,3.3727684 -7.560991,7.5609825 v 139.23453 c 0,4.18822 3.372763,7.56098 7.560991,7.56098 H 173.99842 c 4.18822,0 7.56098,-3.37276 7.56098,-7.56098 V 13.62149 c 0,-4.1882141 -3.37276,-7.5609825 -7.56098,-7.5609825 z" style="color:#000000;font-style:normal;font-variant:normal;font-weight:normal;font-stretch:normal;font-size:medium;line-height:normal;font-family:sans-serif;font-variant-ligatures:normal;font-variant-position:normal;font-variant-caps:normal;font-variant-numeric:normal;font-variant-alternates:normal;font-variant-east-asian:normal;font-feature-settings:normal;font-variation-settings:normal;text-indent:0;text-align:start;text-decoration:none;text-decoration-line:none;text-decoration-style:solid;text-decoration-color:#000000;letter-spacing:normal;word-spacing:normal;text-transform:none;writing-mode:lr-tb;direction:ltr;text-orientation:mixed;dominant-baseline:auto;baseline-shift:baseline;text-anchor:start;white-space:normal;shape-padding:0;shape-margin:0;inline-size:0;clip-rule:nonzero;display:inline;overflow:visible;visibility:visible;opacity:1;isolation:auto;mix-blend-mode:normal;color-interpolation:sRGB;color-interpolation-filters:linearRGB;solid-color:#000000;solid-opacity:1;vector-effect:none;fill:#ffffff;fill-opacity:1;fill-rule:nonzero;stroke:none;stroke-width:2.22896;stroke-linecap:butt;stroke-linejoin:miter;stroke-miterlimit:4;stroke-dasharray:none;stroke-dashoffset:0;stroke-opacity:1;color-rendering:auto;image-rendering:auto;shape-rendering:auto;text-rendering:auto;enable-background:accumulate;stop-color:#000000;stop-opacity:1" />
    <path id="path17491" d="M 11.731166,4.9463371 C 6.944618,4.9463371 3.056,8.8349502 3.056,13.62149 v 139.23453 c 0,4.78656 3.888618,8.67516 8.675166,8.67516 H 173.99842 c 4.78654,0 8.67515,-3.8886 8.67515,-8.67516 V 13.62149 c 0,-4.7865398 -3.88861,-8.6751529 -8.67515,-8.6751529 z m 0,2.2283458 H 173.99842 c 3.58989,0 6.4468,2.8569201 6.4468,6.4468071 v 139.23453 c 0,3.58989 -2.85691,6.44681 -6.4468,6.44681 H 11.731166 c -3.589896,0 -6.446821,-2.85692 -6.446821,-6.44681 V 13.62149 c 0,-3.589887 2.856925,-6.4468071 6.446821,-6.4468071 z" style="color:#000000;font-style:normal;font-variant:normal;font-weight:normal;font-stretch:normal;font-size:medium;line-height:normal;font-family:sans-serif;font-variant-ligatures:normal;font-variant-position:normal;font-variant-caps:normal;font-variant-numeric:normal;font-variant-alternates:normal;font-variant-east-asian:normal;font-feature-settings:normal;font-variation-settings:normal;text-indent:0;text-align:start;text-decoration:none;text-decoration-line:none;text-decoration-style:solid;text-decoration-color:#000000;letter-spacing:normal;word-spacing:normal;text-transform:none;writing-mode:lr-tb;direction:ltr;text-orientation:mixed;dominant-baseline:auto;baseline-shift:baseline;text-anchor:start;white-space:normal;shape-padding:0;shape-margin:0;inline-size:0;clip-rule:nonzero;display:inline;overflow:visible;visibility:visible;opacity:1;isolation:auto;mix-blend-mode:normal;color-interpolation:sRGB;color-interpolation-filters:linearRGB;solid-color:#000000;solid-opacity:1;vector-effect:none;fill:#244a38;fill-opacity:1;fill-rule:nonzero;stroke:none;stroke-width:0.367601;stroke-linecap:butt;stroke-linejoin:miter;stroke-miterlimit:4;stroke-dasharray:none;stroke-dashoffset:0;stroke-opacity:1;color-rendering:auto;image-rendering:auto;shape-rendering:auto;text-rendering:auto;enable-background:accumulate;stop-color:#000000;stop-opacity:1" />
    <path d="m 7.574955,116.14552 v 36.71479 c 0,2.30179 1.850236,4.15204 4.152037,4.15204 H 174.00543 c 2.3018,0 4.15203,-1.85025 4.15203,-4.15204 v -36.71479 z" style="color:#000000;font-style:normal;font-variant:normal;font-weight:normal;font-stretch:normal;font-size:medium;line-height:normal;font-family:sans-serif;font-variant-ligatures:normal;font-variant-position:normal;font-variant-caps:normal;font-variant-numeric:normal;font-variant-alternates:normal;font-variant-east-asian:normal;font-feature-settings:normal;font-variation-settings:normal;text-indent:0;text-align:start;text-decoration:none;text-decoration-line:none;text-decoration-style:solid;text-decoration-color:#000000;letter-spacing:normal;word-spacing:normal;text-transform:none;writing-mode:lr-tb;direction:ltr;text-orientation:mixed;dominant-baseline:auto;baseline-shift:baseline;text-anchor:start;white-space:normal;shape-padding:0;shape-margin:0;inline-size:0;clip-rule:nonzero;display:inline;overflow:visible;visibility:visible;opacity:1;isolation:auto;mix-blend-mode:normal;color-interpolation:sRGB;color-interpolation-filters:linearRGB;solid-color:#000000;solid-opacity:1;vector-effect:none;fill:#244a38;fill-opacity:1;fill-rule:nonzero;stroke:none;stroke-width:2.22896;stroke-linecap:butt;stroke-linejoin:miter;stroke-miterlimit:4;stroke-dasharray:none;stroke-dashoffset:0;stroke-opacity:1;color-rendering:auto;image-rendering:auto;shape-rendering:auto;text-rendering:auto;enable-background:accumulate;stop-color:#000000;stop-opacity:1" id="path17493" />
    <path d="m 11.726992,9.4525017 c -2.300031,0 -4.152037,1.8662653 -4.152037,4.1750873 V 113.86629 H 178.15746 V 13.627589 c 0,-2.308822 -1.85199,-4.1750873 -4.15203,-4.1750873 z" style="color:#000000;font-style:normal;font-variant:normal;font-weight:normal;font-stretch:normal;font-size:medium;line-height:normal;font-family:sans-serif;font-variant-ligatures:normal;font-variant-position:normal;font-variant-caps:normal;font-variant-numeric:normal;font-variant-alternates:normal;font-variant-east-asian:normal;font-feature-settings:normal;font-variation-settings:normal;text-indent:0;text-align:start;text-decoration:none;text-decoration-line:none;text-decoration-style:solid;text-decoration-color:#000000;letter-spacing:normal;word-spacing:normal;text-transform:none;writing-mode:lr-tb;direction:ltr;text-orientation:mixed;dominant-baseline:auto;baseline-shift:baseline;text-anchor:start;white-space:normal;shape-padding:0;shape-margin:0;inline-size:0;clip-rule:nonzero;display:inline;overflow:visible;visibility:visible;opacity:1;isolation:auto;mix-blend-mode:normal;color-interpolation:sRGB;color-interpolation-filters:linearRGB;solid-color:#000000;solid-opacity:1;vector-effect:none;fill:#ffee33;fill-opacity:1;fill-rule:nonzero;stroke:none;stroke-width:2.22896;stroke-linecap:butt;stroke-linejoin:miter;stroke-miterlimit:4;stroke-dasharray:none;stroke-dashoffset:0;stroke-opacity:1;color-rendering:auto;image-rendering:auto;shape-rendering:auto;text-rendering:auto;enable-background:accumulate;stop-color:#000000;stop-opacity:1" id="path17535" />
    <g transform="matrix(0.98026685,0,0,0.98026685,-142.94148,-32.102165)" style="opacity:1;fill:#ffffff;fill-opacity:1" id="g17499">
      <g id="g17497" transform="translate(161.28,180.12001)" style="fill:#ffffff">
        <path id="path17495" d="m 17.125,-15.109375 h 8 v 2.9375 h -2.515625 c -0.230469,4.21875 -1.105469,7.570312 -2.625,10.046875 1.46875,1.542969 3.398438,2.773438 5.796875,3.703125 C 24.976563,2.429688 24.164063,3.445313 23.34375,4.625 21.207031,3.3125 19.460938,1.910156 18.109375,0.421875 c -1.304687,1.394531 -3,2.6875 -5.09375,3.875 C 12.523438,3.742188 11.851563,3.109375 11,2.390625 V 4.375 H 7.640625 v -7.5 c -2.105469,0.949219 -3.804687,1.789062 -5.09375,2.515625 L 1,-3.4375 C 1.414063,-3.769531 1.71875,-4.082031 1.90625,-4.375 2.101563,-4.675781 2.203125,-5.160156 2.203125,-5.828125 V -16.5 h 2.90625 c 0.4375,0 0.65625,0.105469 0.65625,0.3125 0,0.105469 -0.03125,0.234375 -0.09375,0.390625 -0.15625,0.386719 -0.234375,1.078125 -0.234375,2.078125 v 8.78125 c 0.957031,-0.5 1.691406,-0.910156 2.203125,-1.234375 V -19.78125 H 10.4375 c 0.332031,0 0.546875,0.02734 0.640625,0.07813 0.101563,0.05469 0.15625,0.136719 0.15625,0.25 0,0.117187 -0.04297,0.277344 -0.125,0.484375 C 11.035156,-18.757813 11,-17.921875 11,-16.453125 V -8.6875 c 1.5,-2.1875 2.84375,-6.015625 4.03125,-11.484375 1.820313,0.492187 2.925781,0.820312 3.3125,0.984375 0.394531,0.167969 0.59375,0.324219 0.59375,0.46875 0,0.136719 -0.121094,0.308594 -0.359375,0.515625 -0.230469,0.210937 -0.714844,1.242187 -1.453125,3.09375 z m 2.234375,2.9375 H 16.15625 c 0.226563,2.699219 0.804688,5.027344 1.734375,6.984375 0.925781,-2.050781 1.414063,-4.378906 1.46875,-6.984375 z M 13.9375,-7.84375 c -0.355469,0.625 -0.683594,1.132812 -0.984375,1.515625 C 12.304688,-6.847656 11.65625,-7.289063 11,-7.65625 v 9.25 C 13.019531,0.664063 14.710938,-0.613281 16.078125,-2.25 15.066406,-3.96875 14.351563,-5.832031 13.9375,-7.84375 Z m 0,0" style="fill:#ffffff;stroke:none" />
      </g>
    </g>
    <g transform="matrix(0.98026685,0,0,0.98026685,-149.61473,-32.102165)" style="opacity:1;fill:#ffffff;fill-opacity:1" id="g17505">
      <g id="g17503" transform="translate(187.51259,180.12001)" style="fill:#ffffff">
        <path id="path17501" d="M 26.602977,-0.234375 V -4.28125 h -9.625 V 0.421875 H 13.587352 V -4.90625 l -1.828125,0.734375 C 11.216258,-5.117188 10.435008,-6.0625 9.4154774,-7 12.39204,-7.300781 14.477977,-7.984375 15.665477,-9.046875 h -3.9375 L 12.071727,-14.75 h 5.4375 v -1.015625 h -6.375 v -2.515625 h 6.375 v -1.859375 h 2.796875 c 0.507813,0 0.765625,0.132812 0.765625,0.390625 0,0.105469 -0.04687,0.257812 -0.140625,0.453125 -0.08594,0.199219 -0.152344,0.539062 -0.203125,1.015625 h 2 v -2 h 2.78125 c 0.4375,0 0.65625,0.140625 0.65625,0.421875 0,0.08594 -0.03906,0.257812 -0.109375,0.515625 -0.07422,0.25 -0.125,0.605469 -0.15625,1.0625 h 5.84375 l -0.234375,5.734375 h -5.609375 v 1.109375 h 7.296875 l -0.140625,3.5625 c -0.03125,0.84375 -0.3125,1.421875 -0.84375,1.734375 -0.523437,0.304687 -1.234375,0.511719 -2.140625,0.625 v 5.359375 h -3.25 c 1.832031,0.613281 3.765625,1.296875 5.796875,2.046875 l -2.046875,2.8125 C 27.790477,3.347656 24.868602,2.164063 21.806102,1.15625 l 1.515625,-2.4375 z m -0.703125,-15.53125 V -14.75 h 2.46875 l 0.09375,-1.015625 z M 22.727977,-14.75 v -1.015625 H 20.681102 L 20.649852,-14.75 Z m -5.59375,3.3125 c 0.101563,-0.351563 0.179688,-0.722656 0.234375,-1.109375 h -2.328125 l -0.07813,1.109375 z m 5.59375,0 v -1.109375 h -2.265625 c -0.0625,0.492187 -0.121094,0.859375 -0.171875,1.109375 z m -5.4375,4.59375 h 11.171875 c -0.105469,-0.539063 -0.3125,-1.078125 -0.625,-1.609375 C 28.731883,-8.148438 29.278758,-8 29.477977,-8 c 0.195313,0 0.304688,-0.125 0.328125,-0.375 l 0.03125,-0.671875 h -3.9375 v 1.96875 h -3.171875 v -1.96875 h -3.328125 c -0.5,0.824219 -1.203125,1.558594 -2.109375,2.203125 z m 2.703125,2.796875 c 0.945313,0.042969 1.769531,0.101562 2.46875,0.171875 0.695313,0.0625 1.109375,0.125 1.234375,0.1875 0.125,0.0625 0.1875,0.15625 0.1875,0.28125 0,0.117187 -0.07422,0.273437 -0.21875,0.46875 C 23.247508,-2.375 22.696727,-1.394531 22.009227,0 21.45454,1.113281 20.313915,2.066406 18.587352,2.859375 16.868602,3.660156 14.634227,4.238281 11.884227,4.59375 11.497508,3.625 10.790477,2.59375 9.7592274,1.5 13.290477,1.550781 15.821727,1.15625 17.352977,0.3125 c 1.53125,-0.832031 2.410156,-2.285156 2.640625,-4.359375 z m 0,0" style="fill:#ffffff;stroke:none" />
      </g>
    </g>
    <g transform="matrix(0.98026685,0,0,0.98026685,-147.95251,-32.102165)" style="opacity:1;fill:#ffffff;fill-opacity:1" id="g17511">
      <g id="g17509" transform="translate(213.74519,180.12001)" style="fill:#ffffff">
        <path id="path17507" d="m 23.634227,2.25 v 2.078125 h -3.09375 v -13.03125 h 3.78125 V -19.96875 h 2.9375 c 0.414063,0 0.625,0.08594 0.625,0.25 0,0.167969 -0.04297,0.375 -0.125,0.625 -0.125,0.449219 -0.1875,1.648437 -0.1875,3.59375 h 6.171875 v 2.90625 h -6.171875 v 3.890625 h 4.828125 v 13.03125 h -3.28125 V 2.25 Z m 5.484375,-2.640625 V -5.84375 h -5.484375 v 5.453125 z M 14.321728,-15.21875 h 6.546874 V -12.375 H 9.6342276 v -2.84375 h 4.5625004 c -0.230469,-1.238281 -0.589844,-2.550781 -1.078125,-3.9375 l 3.390624,-0.78125 c 0.382813,1.085937 0.707031,2.398437 0.96875,3.9375 z M 17.915477,-2.5 c 0.988281,-0.238281 1.71875,-0.425781 2.1875,-0.5625 0.01953,0.835937 0.125,1.730469 0.3125,2.6875 -4.011719,0.925781 -7.386718,1.910156 -10.124999,2.953125 L 9.1342276,-0.8125 c 2.6445314,-0.457031 4.6757814,-0.828125 6.0937494,-1.109375 0.539063,-3.4375 0.863281,-6.738281 0.96875,-9.90625 2.144531,0.15625 3.300781,0.261719 3.46875,0.3125 0.164063,0.05469 0.25,0.140625 0.25,0.265625 0,0.117187 -0.109375,0.367187 -0.328125,0.75 -0.21875,0.375 -0.421875,1.105469 -0.609375,2.1875 z m -4.218749,-8.859375 c 0.332031,2.210937 0.628906,5.042969 0.890624,8.5 L 11.759228,-2.5 c -0.261719,-3.019531 -0.648437,-5.796875 -1.15625,-8.328125 z m 0,0" style="fill:#ffffff;stroke:none" />
      </g>
    </g>
    <path d="m 97.948146,27.331991 v 4.457804 63.476843 h 4.457824 46.13891 V 90.808833 H 102.40597 V 31.789795 h 41.68109 v 12.176004 h 4.45782 V 31.789795 27.331991 h -4.45782 z m 22.677434,16.975667 a 7.3313354,7.3313354 0 0 0 -7.32786,7.331367 7.3313354,7.3313354 0 0 0 7.33136,7.331369 7.3313354,7.3313354 0 0 0 7.33124,-7.331369 7.3313354,7.3313354 0 0 0 -7.33124,-7.331367 7.3313354,7.3313354 0 0 0 -0.004,0 z m -6.68534,16.831518 c -2.95543,-2.2e-5 -5.33468,2.379246 -5.33468,5.334676 v 21.492226 h 19.16836 V 74.943882 h 0.0168 v -0.295715 c 0,-0.840075 0.67631,-1.516263 1.51638,-1.516263 0.21411,0 0.46079,0.04434 0.70959,0.123744 l 1.47233,1.676274 v 0.01197 h 0.0105 l 3.53634,4.026133 h 5.98967 4.39515 c 1.62954,2.3e-5 2.94142,-1.311872 2.94142,-2.941416 0,-1.629522 -1.31188,-2.941453 -2.94142,-2.941411 h -7.38295 -1.0517 l -4.60963,-6.668324 -3.34528,-3.85338 c -0.94492,-1.057526 -2.08231,-1.42025 -3.68927,-1.426444 h -2.90261 -0.17599 z m 38.25328,7.397524 v 7.286007 h 12.55686 V 68.5367 Z" style="opacity:1;fill:#000000;fill-opacity:1;stroke-width:0.069602" id="path17543" />
    <path id="path883" style="color:#000000;font-style:normal;font-variant:normal;font-weight:normal;font-stretch:normal;font-size:medium;line-height:normal;font-family:sans-serif;font-variant-ligatures:normal;font-variant-position:normal;font-variant-caps:normal;font-variant-numeric:normal;font-variant-alternates:normal;font-variant-east-asian:normal;font-feature-settings:normal;font-variation-settings:normal;text-indent:0;text-align:start;text-decoration:none;text-decoration-line:none;text-decoration-style:solid;text-decoration-color:#000000;letter-spacing:normal;word-spacing:normal;text-transform:none;writing-mode:lr-tb;direction:ltr;text-orientation:mixed;dominant-baseline:auto;baseline-shift:baseline;text-anchor:start;white-space:normal;shape-padding:0;shape-margin:0;inline-size:0;clip-rule:nonzero;display:inline;overflow:visible;visibility:visible;opacity:1;isolation:auto;mix-blend-mode:normal;color-interpolation:sRGB;color-interpolation-filters:linearRGB;solid-color:#000000;solid-opacity:1;vector-effect:none;fill:#000000;fill-opacity:1;fill-rule:evenodd;stroke:none;stroke-width:0.904611;stroke-linecap:butt;stroke-linejoin:miter;stroke-miterlimit:4;stroke-dasharray:none;stroke-dashoffset:0;stroke-opacity:1;color-rendering:auto;image-rendering:auto;shape-rendering:auto;text-rendering:auto;enable-background:accumulate;stop-color:#000000;stop-opacity:1" d="m 73.656074,36.95004 -0.369743,0.897654 c 4.661929,0.11254 8.451185,3.532298 9.13994,8.021276 l 0.853662,-0.40117 c -0.843281,-4.666794 -4.780535,-8.241577 -9.623859,-8.51776 z m -1.800543,4.364671 -0.355083,0.860994 c 3.273455,0.327727 5.959678,2.541374 6.982218,5.54618 l 0.818048,-0.384409 c -1.133711,-3.197439 -3.979541,-5.57087 -7.445183,-6.022765 z m -1.35329,3.280574 -0.347745,0.842139 c 2.099551,0.626936 3.848257,2.031189 4.930287,3.881804 l 0.816997,-0.38441 c -1.179913,-2.051905 -3.096548,-3.623624 -5.399539,-4.339533 z m -1.086193,2.633258 -0.343557,0.831665 c 1.236509,0.615957 2.298305,1.518837 3.103558,2.625925 l 0.827477,-0.389647 c -0.914087,-1.303034 -2.147261,-2.359978 -3.587478,-3.067943 z m -16.307551,0.627415 c -0.362917,-0.0024 -0.737954,-9.67e-4 -1.12704,0.0032 -5.269771,0.06835 -7.370083,-0.0015 -10.848312,1.047437 -3.589751,1.082545 -9.927612,5.288512 -9.927612,5.288512 l -5.787091,0.313183 c 0,0 -1.12099,2.015971 -1.131233,3.904848 -0.0046,0.772001 0.284905,1.521786 0.557238,2.068686 l -1.603625,1.12704 c 2.5e-5,0 -0.295036,3.530616 2.131533,3.997025 l 5.087405,0.664075 c 0,0 -0.201045,-5.880552 5.920115,-6.103417 2.783769,0.12055 3.715633,1.396316 4.789931,2.761045 0.78401,1.16029 0.922892,2.39799 0.934314,3.21563 h -0.01464 l 0.0063,0.591805 30.847037,-0.33518 -0.0074,-0.591803 c 0,0 0.295328,-5.371305 5.941066,-5.606934 5.545294,0.253305 5.713769,5.548279 5.713769,5.548279 l 3.493207,-0.03771 1.596293,-0.852612 c 0,0 -0.03615,-1.035656 -0.08798,-2.078117 l 0.627415,-0.225197 -0.02198,-1.982801 -0.899747,-0.795004 c -0.0027,-0.006 -0.0048,-0.02311 -0.0074,-0.02827 0,0 -0.25383,-1.964212 -3.33504,-2.91816 C 79.38996,54.941205 72.891382,54.661175 72.891382,54.661175 L 61.064764,48.603784 c 0,0 -2.512713,-0.714338 -7.956337,-0.74787 z m 4.422279,1.598389 c 0.796034,-0.01366 2.32882,0.917437 3.419888,1.522974 2.652678,1.472223 7.541547,5.095784 7.541547,5.095784 L 53.2499,55.637372 52.328155,49.543379 Z m -6.932985,0.166542 0.60018,5.986108 -13.713049,-0.153975 c 0,0 1.113591,-2.283838 2.018412,-3.136028 0.912686,-0.859606 2.909593,-1.802195 3.278478,-1.842442 z m 28.083891,11.3008 c -2.801969,0.03046 -5.050319,2.308377 -5.019322,5.087405 0.03099,2.776812 2.32942,5.003699 5.131397,4.973234 h 0.0011 c 2.801975,-0.03046 5.050319,-2.307448 5.019322,-5.084262 -0.03106,-2.779028 -2.329414,-5.006843 -5.131396,-4.976377 z m -42.442164,0.0094 c -0.262684,0.0027 -0.520451,0.02509 -0.77196,0.06599 -0.335202,0.05454 -0.659414,0.141489 -0.968879,0.257669 -0.154654,0.05808 -0.305512,0.12367 -0.452493,0.195869 -0.441139,0.216752 -0.845736,0.495685 -1.20246,0.824334 -0.0022,0.0022 -0.0042,0.0032 -0.0063,0.0053 -0.05731,0.05298 -0.113853,0.107875 -0.168635,0.163396 -0.05683,0.05761 -0.112539,0.115742 -0.166544,0.175973 -0.26969,0.300793 -0.50314,0.634391 -0.694451,0.992969 -0.07646,0.143324 -0.145979,0.290954 -0.20844,0.44202 -0.05479,0.132472 -0.103202,0.268589 -0.146642,0.406404 -0.0061,0.01936 -0.01297,0.03817 -0.01887,0.05762 -0.142916,0.474155 -0.217427,0.977958 -0.211583,1.498887 0.0022,0.173543 0.01223,0.344398 0.03144,0.513244 0.0288,0.253251 0.07718,0.501273 0.142448,0.741583 0.0435,0.160072 0.09434,0.317011 0.152928,0.470298 0.05865,0.153412 0.125063,0.303578 0.197965,0.449351 0.03648,0.07289 0.07432,0.143897 0.114171,0.214726 0.07973,0.141654 0.16603,0.279925 0.258716,0.412692 0.04634,0.06637 0.09411,0.130818 0.1435,0.194825 0.148279,0.192028 0.310887,0.373808 0.484965,0.542573 0.05802,0.05625 0.117394,0.110984 0.178064,0.164446 0.121362,0.106914 0.247845,0.207592 0.379172,0.302708 0.459616,0.332922 0.977562,0.591907 1.535542,0.757298 0.159423,0.04724 0.321543,0.08669 0.487059,0.118358 0.331033,0.06342 0.674149,0.09472 1.024393,0.09113 h 0.0022 c 0.174973,-0.0022 0.348249,-0.01239 0.518477,-0.03144 0.01014,-0.0011 0.02022,-0.0032 0.03035,-0.0042 0.224442,-0.02644 0.44448,-0.06809 0.65884,-0.122553 0.01947,-0.0048 0.03937,-0.0084 0.05865,-0.01362 0.242299,-0.06461 0.477463,-0.147291 0.703877,-0.245099 0.301915,-0.13047 0.589016,-0.288845 0.856805,-0.472395 v -0.0011 c 0.06688,-0.04586 0.132427,-0.09354 0.19692,-0.142455 h 0.0011 c 0.19375,-0.146927 0.376486,-0.307218 0.546762,-0.479726 0.113499,-0.115001 0.220586,-0.235006 0.32261,-0.360315 0.15304,-0.187958 0.293108,-0.387253 0.417928,-0.595993 0.08322,-0.139162 0.159767,-0.282115 0.229393,-0.429449 0.0348,-0.07367 0.06824,-0.148605 0.0995,-0.224152 0.156345,-0.377875 0.267299,-0.778155 0.326805,-1.195129 0.01185,-0.08336 0.02161,-0.167826 0.02934,-0.252431 0.01566,-0.169215 0.02205,-0.340742 0.0199,-0.514295 -0.0011,-0.08698 -0.0042,-0.172861 -0.0094,-0.258717 -0.0011,-0.0069 -0.0016,-0.01405 -0.0022,-0.02097 -0.01019,-0.153743 -0.02757,-0.304981 -0.05133,-0.45459 -0.0011,-0.01019 -0.0022,-0.02023 -0.0042,-0.03035 v -0.0011 c -0.0027,-0.01578 -0.0063,-0.03137 -0.0094,-0.04714 -0.03654,-0.208037 -0.08524,-0.411286 -0.146642,-0.609609 -0.0074,-0.02354 -0.01438,-0.04677 -0.02199,-0.07017 v -0.0011 c -0.02559,-0.0785 -0.05234,-0.155781 -0.0817,-0.232535 -0.293098,-0.767434 -0.770663,-1.444861 -1.377332,-1.979653 -0.121345,-0.106962 -0.247863,-0.207555 -0.379173,-0.302712 -0.196968,-0.142729 -0.404161,-0.272687 -0.621129,-0.386504 -0.07221,-0.03786 -0.145757,-0.07338 -0.219963,-0.107885 -0.07433,-0.03453 -0.150026,-0.06745 -0.22625,-0.09846 -0.152342,-0.06195 -0.308918,-0.117206 -0.468201,-0.164448 -0.07971,-0.02366 -0.159619,-0.0451 -0.240911,-0.06495 -0.08115,-0.01979 -0.16353,-0.03759 -0.24615,-0.05342 -0.248264,-0.04757 -0.502969,-0.07778 -0.762533,-0.08798 -0.08652,-0.0037 -0.173252,-0.0037 -0.260812,-0.0032 z m 42.466255,2.172386 h 0.0011 c 1.586071,-0.01727 2.890098,1.244242 2.907688,2.818653 0.01759,1.574408 -1.257735,2.864273 -2.843794,2.881503 h -0.0011 c -1.586056,0.01727 -2.888055,-1.244242 -2.905592,-2.818655 -0.01759,-1.574412 1.255639,-2.86427 2.841698,-2.881501 z m -42.442166,0.0083 h 0.0022 c 0.792911,-0.0086 1.515558,0.302906 2.041455,0.812808 0.06574,0.06374 0.128117,0.130335 0.18749,0.200062 0.05935,0.06974 0.115088,0.14262 0.16759,0.217866 0.05251,0.07524 0.101488,0.152254 0.146643,0.232531 v 0.0011 c 0.0451,0.08017 0.08738,0.162462 0.124645,0.247189 0.07472,0.16981 0.132387,0.347881 0.172824,0.533147 0.04039,0.185137 0.0628,0.377193 0.06495,0.573998 0.0011,0.0984 -0.0027,0.195253 -0.01154,0.291184 -0.0087,0.09608 -0.02274,0.190736 -0.04086,0.283858 -0.03148,0.161497 -0.07841,0.317594 -0.136162,0.468206 -0.0087,0.02274 -0.01587,0.04558 -0.02516,0.06808 v 0.0011 c -0.03539,0.08553 -0.07508,0.168146 -0.118359,0.249287 -0.260147,0.487636 -0.658036,0.891987 -1.1438,1.160558 -0.242854,0.134267 -0.507802,0.234343 -0.787673,0.294332 -0.186575,0.04001 -0.379934,0.0628 -0.578187,0.06493 h -0.0032 c -0.793024,0.0086 -1.514487,-0.302771 -2.040403,-0.812808 -0.197198,-0.191246 -0.366253,-0.410673 -0.501718,-0.651509 h -0.0011 c -0.04505,-0.08012 -0.08639,-0.162528 -0.123593,-0.247191 v -0.0011 c -0.106588,-0.24244 -0.177722,-0.502797 -0.212632,-0.775103 -0.0016,-0.01341 -0.0053,-0.02634 -0.0074,-0.03979 -0.01084,-0.09571 -0.01673,-0.192785 -0.0178,-0.291189 -0.0011,-0.09825 0.0027,-0.195391 0.01153,-0.291182 v -0.0011 c 0.01748,-0.191718 0.05391,-0.378255 0.107884,-0.557235 0.08101,-0.26867 0.201607,-0.520843 0.354037,-0.749968 0.355617,-0.534437 0.888324,-0.942648 1.515641,-1.143799 0.08966,-0.02875 0.181141,-0.05439 0.27443,-0.07437 0.186573,-0.04001 0.379927,-0.06176 0.578182,-0.06389 z" />
    <g id="surface529739" transform="matrix(0.67786354,0,0,0.67786354,-24.054954,22.007284)" style="opacity:1">
      <g id="g1023" style="fill:#000000;fill-opacity:1">
        <g transform="translate(93.599998,99)" id="use1021">
          <path style="stroke:none" d="M 17.765625,0 H 2.84375 v -20.265625 h 14.625 v 4.046875 H 6.890625 v 3.421875 H 12.84375 V -8.75 H 6.890625 v 4.703125 h 10.875 z m 0,0" id="path1044" />
        </g>
      </g>
      <g id="g1027" style="fill:#000000;fill-opacity:1">
        <g transform="translate(112.85225,99)" id="use1025">
          <path style="stroke:none" d="M 15.8125,-16.34375 H 10.265625 V 0 H 6.3125 v -16.34375 h -5.5 v -3.921875 h 15 z m 0,0" id="path1048" />
        </g>
      </g>
      <g id="g1031" style="fill:#000000;fill-opacity:1">
        <g transform="translate(129.46999,99)" id="use1029">
          <path style="stroke:none" d="m 18.140625,-4.21875 c -1.761719,2.949219 -4.242187,4.421875 -7.4375,4.421875 -2.605469,0 -4.703125,-0.957031 -6.296875,-2.875 -1.585937,-1.914063 -2.375,-4.609375 -2.375,-8.078125 0,-2.582031 0.796875,-4.84375 2.390625,-6.78125 1.601563,-1.9375 3.664063,-2.90625 6.1875,-2.90625 1.59375,0 3.066406,0.382812 4.421875,1.140625 1.351563,0.75 2.390625,1.8125 3.109375,3.1875 l -3.484375,1.890625 c -0.449219,-0.789063 -1.03125,-1.363281 -1.75,-1.71875 -0.71875,-0.363281 -1.417969,-0.546875 -2.09375,-0.546875 -1.554687,0 -2.746094,0.601562 -3.578125,1.796875 -0.835937,1.1875 -1.25,2.726562 -1.25,4.609375 0,1.875 0.414063,3.390625 1.25,4.546875 0.832031,1.148437 1.804688,1.71875 2.921875,1.71875 1.113281,0 1.953125,-0.140625 2.515625,-0.421875 0.5625,-0.28125 1.222656,-0.90625 1.984375,-1.875 z m 0,0" id="path1052" />
        </g>
      </g>
      <g id="g1035" style="fill:#000000;fill-opacity:1">
        <g transform="translate(93.599998,131.52)" id="use1033">
          <path style="stroke:none" d="" id="path1056" />
        </g>
      </g>
    </g>
    <path style="opacity:1;fill:#ffffff;fill-opacity:1;fill-rule:nonzero;stroke:none;stroke-width:3.00179" d="m 117.17399,133.43402 c 0.74911,-0.26416 1.6574,-0.41113 2.73423,-0.41113 1.72293,0 3.09005,0.8223 4.12007,2.46685 1.02063,1.61522 1.53565,3.52408 1.53565,5.75598 0,2.23192 -0.54309,4.14081 -1.61057,5.69727 -1.04873,1.57115 -2.43459,2.34937 -4.15753,2.34937 -2.3784,0 -4.44779,-0.82229 -6.21754,-2.46685 l 1.64803,-3.93521 c 1.19855,1.21874 2.65932,1.82077 4.38225,1.82077 1.04875,0 1.80719,-0.30835 2.28475,-0.93975 0.49628,-0.61671 0.74911,-1.49773 0.74911,-2.64305 0,-1.13064 -0.26218,-1.997 -0.78656,-2.58434 -0.50564,-0.58733 -1.23602,-0.88101 -2.20986,-0.88101 -0.9551,0 -1.87276,0.2791 -2.77168,0.82229 l -2.99639,-1.82076 0.63674,-10.98339 h 9.73833 v 4.69878 h -6.77938 z m 0,0" id="path6753" />
    <path style="opacity:1;fill:#ffffff;fill-opacity:1;fill-rule:nonzero;stroke:none;stroke-width:3.00179" d="m 134.8715,125.44613 c 1.76978,0 3.23989,1.0866 4.41972,3.23039 1.17048,2.15851 1.76039,5.08056 1.76039,8.75147 0,3.64152 -0.56185,6.54891 -1.68549,8.69271 -1.10491,2.11444 -2.61249,3.17166 -4.53205,3.17166 -1.92894,0 -3.44587,-1.05722 -4.56953,-3.17166 -1.12365,-2.11445 -1.68548,-5.00712 -1.68548,-8.69271 0,-3.67091 0.56183,-6.59296 1.68548,-8.75147 1.12366,-2.14379 2.65931,-3.23039 4.60696,-3.23039 z m 0.14976,19.26494 c 0.91768,0 1.66679,-0.67544 2.24731,-2.05572 0.59929,-1.40963 0.89892,-3.25975 0.89892,-5.57977 0,-2.30534 -0.2809,-4.05269 -0.82401,-5.22739 -0.52437,-1.20405 -1.34838,-1.82076 -2.47203,-1.82076 -2.2473,0 -3.37096,2.46685 -3.37096,7.40056 0,2.34937 0.29964,4.15547 0.89892,5.40356 0.59928,1.2628 1.47013,1.87952 2.62185,1.87952 z m 0,0" id="path6755" />
    <path style="opacity:1;fill:#ffffff;fill-opacity:1;fill-rule:nonzero;stroke:none;stroke-width:3.00179" d="m 150.26556,125.44613 c 1.76975,0 3.23986,1.0866 4.4197,3.23039 1.17046,2.15851 1.76038,5.08056 1.76038,8.75147 0,3.64152 -0.56181,6.54891 -1.68547,8.69271 -1.10493,2.11444 -2.61248,3.17166 -4.53207,3.17166 -1.92893,0 -3.44588,-1.05722 -4.56953,-3.17166 -1.12365,-2.11445 -1.68546,-5.00712 -1.68546,-8.69271 0,-3.67091 0.56181,-6.59296 1.68546,-8.75147 1.12365,-2.14379 2.65933,-3.23039 4.60699,-3.23039 z m 0.14976,19.26494 c 0.91764,0 1.66675,-0.67544 2.24731,-2.05572 0.59927,-1.40963 0.89892,-3.25975 0.89892,-5.57977 0,-2.30534 -0.28091,-4.05269 -0.824,-5.22739 -0.52438,-1.20405 -1.34839,-1.82076 -2.47204,-1.82076 -2.24731,0 -3.37096,2.46685 -3.37096,7.40056 0,2.34937 0.29965,4.15547 0.89892,5.40356 0.59928,1.2628 1.47012,1.87952 2.62185,1.87952 z m 0,0" id="path6757" />
    <path style="opacity:1;fill:#ffffff;fill-opacity:1;fill-rule:nonzero;stroke:none;stroke-width:1.4459" d="m 171.74842,149.05743 h -1.67102 v -4.26467 c 0,-0.29781 -0.11774,-0.55989 -0.34277,-0.78623 -0.23029,-0.22038 -0.49273,-0.33354 -0.79265,-0.33354 -0.28923,0 -0.5356,0.11322 -0.74983,0.33354 -0.20351,0.22634 -0.29993,0.48842 -0.29993,0.78623 v 4.26467 h -1.64959 v -4.28849 c 0,-0.2859 -0.0963,-0.53607 -0.2785,-0.76241 -0.18744,-0.22038 -0.44453,-0.33354 -0.77125,-0.33354 -0.31598,0 -0.58914,0.10716 -0.81409,0.30972 -0.21423,0.20847 -0.32134,0.47055 -0.32134,0.78623 v 4.28849 H 162.365 v -7.09983 h 1.69245 v 0.42884 c 0.49809,-0.34547 1.03368,-0.52415 1.60674,-0.52415 0.71234,0 1.2747,0.27399 1.69246,0.81005 0.58379,-0.53606 1.22111,-0.81005 1.90667,-0.81005 0.68554,0 1.26935,0.2323 1.75671,0.69092 0.48203,0.46459 0.72839,1.01257 0.72839,1.64393 z m 0,0" id="path6759" />
  </g>
</svg>
