<?xml version="1.0" encoding="UTF-8"?>
<svg xmlns="http://www.w3.org/2000/svg" xmlns:ns1="http://sodipodi.sourceforge.net/DTD/sodipodi-0.dtd" viewBox="0 0 253.79369 64.743621" height="64.743622" width="253.79369" id="svg564" version="1.1">
  <defs id="defs568" />
  <ns1:namedview showgrid="false" id="namedview566" guidetolerance="10" gridtolerance="10" objecttolerance="10" borderopacity="1" bordercolor="#666666" pagecolor="#ffffff" />
  <g transform="translate(-5.4587765,-1.8240495)" id="g572">
    <path style="color:#000000;font-style:normal;font-variant:normal;font-weight:normal;font-stretch:normal;font-size:medium;line-height:normal;font-family:sans-serif;font-variant-ligatures:normal;font-variant-position:normal;font-variant-caps:normal;font-variant-numeric:normal;font-variant-alternates:normal;font-variant-east-asian:normal;font-feature-settings:normal;font-variation-settings:normal;text-indent:0;text-align:start;text-decoration:none;text-decoration-line:none;text-decoration-style:solid;text-decoration-color:#000000;letter-spacing:normal;word-spacing:normal;text-transform:none;writing-mode:lr-tb;direction:ltr;text-orientation:mixed;dominant-baseline:auto;baseline-shift:baseline;text-anchor:start;white-space:normal;shape-padding:0;shape-margin:0;inline-size:0;clip-rule:nonzero;display:inline;overflow:visible;visibility:visible;opacity:1;isolation:auto;mix-blend-mode:normal;color-interpolation:sRGB;color-interpolation-filters:linearRGB;solid-color:#000000;solid-opacity:1;vector-effect:none;fill:#ffffff;fill-opacity:1;fill-rule:nonzero;stroke:none;stroke-width:2.94253;stroke-linecap:butt;stroke-linejoin:miter;stroke-miterlimit:4;stroke-dasharray:none;stroke-dashoffset:0;stroke-opacity:1;color-rendering:auto;image-rendering:auto;shape-rendering:auto;text-rendering:auto;enable-background:accumulate;stop-color:#000000;stop-opacity:1" d="M 17.160173,3.545363 H 247.55025 c 5.529,0 9.98015,4.4511397 9.98015,9.980145 v 41.34191 c 0,5.529005 -4.45115,9.980142 -9.98015,9.980142 H 17.160173 c -5.528994,0 -9.9801329,-4.451137 -9.9801329,-9.980142 v -41.34191 c 0,-5.5290053 4.4511389,-9.980145 9.9801329,-9.980145 z" id="path81" />
    <path style="color:#000000;font-style:normal;font-variant:normal;font-weight:normal;font-stretch:normal;font-size:medium;line-height:normal;font-family:sans-serif;font-variant-ligatures:normal;font-variant-position:normal;font-variant-caps:normal;font-variant-numeric:normal;font-variant-alternates:normal;font-variant-east-asian:normal;font-feature-settings:normal;font-variation-settings:normal;text-indent:0;text-align:start;text-decoration:none;text-decoration-line:none;text-decoration-style:solid;text-decoration-color:#000000;letter-spacing:normal;word-spacing:normal;text-transform:none;writing-mode:lr-tb;direction:ltr;text-orientation:mixed;dominant-baseline:auto;baseline-shift:baseline;text-anchor:start;white-space:normal;shape-padding:0;shape-margin:0;inline-size:0;clip-rule:nonzero;display:inline;overflow:visible;visibility:visible;opacity:1;isolation:auto;mix-blend-mode:normal;color-interpolation:sRGB;color-interpolation-filters:linearRGB;solid-color:#000000;solid-opacity:1;vector-effect:none;fill:#253898;fill-opacity:1;fill-rule:nonzero;stroke:none;stroke-width:0.5;stroke-linecap:butt;stroke-linejoin:miter;stroke-miterlimit:4;stroke-dasharray:none;stroke-dashoffset:0;stroke-opacity:1;color-rendering:auto;image-rendering:auto;shape-rendering:auto;text-rendering:auto;enable-background:accumulate;stop-color:#000000;stop-opacity:1" d="m 17.159285,2.0740495 c -6.318633,0 -11.4505085,5.1318651 -11.4505085,11.4505075 v 41.342606 c 0,6.318633 5.1318755,11.450508 11.4505085,11.450508 H 247.54952 c 6.31862,0 11.45295,-5.131875 11.45295,-11.450508 V 13.524557 c 0,-6.3186424 -5.13433,-11.4505075 -11.45295,-11.4505075 z m 0,2.9427378 H 247.54952 c 4.73936,0 8.51021,3.7683909 8.51022,8.5077697 v 41.342606 c 0,4.739367 -3.77086,8.51021 -8.51022,8.510227 H 17.159285 c -4.739371,0 -8.5077706,-3.77086 -8.5077706,-8.510227 V 13.524557 c 0,-4.7393788 3.7683996,-8.5077697 8.5077706,-8.5077697 z" id="path83" />
    <path id="path75" style="color:#000000;font-style:normal;font-variant:normal;font-weight:normal;font-stretch:normal;font-size:medium;line-height:normal;font-family:sans-serif;font-variant-ligatures:normal;font-variant-position:normal;font-variant-caps:normal;font-variant-numeric:normal;font-variant-alternates:normal;font-variant-east-asian:normal;font-feature-settings:normal;font-variation-settings:normal;text-indent:0;text-align:start;text-decoration:none;text-decoration-line:none;text-decoration-style:solid;text-decoration-color:#000000;letter-spacing:normal;word-spacing:normal;text-transform:none;writing-mode:lr-tb;direction:ltr;text-orientation:mixed;dominant-baseline:auto;baseline-shift:baseline;text-anchor:start;white-space:normal;shape-padding:0;shape-margin:0;inline-size:0;clip-rule:nonzero;display:inline;overflow:visible;visibility:visible;opacity:1;isolation:auto;mix-blend-mode:normal;color-interpolation:sRGB;color-interpolation-filters:linearRGB;solid-color:#000000;solid-opacity:1;vector-effect:none;fill:#253898;fill-opacity:1;fill-rule:nonzero;stroke:none;stroke-width:2.94253;stroke-linecap:butt;stroke-linejoin:miter;stroke-miterlimit:4;stroke-dasharray:none;stroke-dashoffset:0;stroke-opacity:1;color-rendering:auto;image-rendering:auto;shape-rendering:auto;text-rendering:auto;enable-background:accumulate;stop-color:#000000;stop-opacity:1" d="m 17.154132,8.0232467 c -3.036402,0 -5.481919,2.4629313 -5.481919,5.5110423 v 41.337714 c 0,3.038849 2.443074,5.48192 5.481919,5.48192 H 247.55953 c 3.03884,0 5.48191,-2.443071 5.48191,-5.48192 V 13.534289 c 0,-3.048111 -2.44552,-5.5110423 -5.48191,-5.5110423 z" />
    <g transform="matrix(0.64301579,0,0,0.64301579,-148.23725,-76.245234)" style="opacity:1;fill:#ffffff;fill-opacity:1" id="g357">
      <g style="fill:#ffffff" id="use355" transform="translate(262.79999,180.12001)">
        <path id="path5658" d="m 11.546875,-17.28125 0.265625,-3.046875 3.109375,0.1875 c 0.425781,0.03125 0.640625,0.164062 0.640625,0.390625 0,0.117187 -0.09375,0.328125 -0.28125,0.640625 -0.1875,0.304687 -0.324219,0.914062 -0.40625,1.828125 h 10.28125 v 2.6875 H 14.640625 l -0.1875,1.890625 H 23.40625 V 0.765625 C 23.40625,1.492188 23.269531,2.070313 23,2.5 22.726563,2.925781 22.226563,3.269531 21.5,3.53125 20.769531,3.800781 19.707031,4.015625 18.3125,4.171875 18.1875,3.085938 17.785156,1.90625 17.109375,0.625 18.117188,0.820313 18.8125,0.921875 19.1875,0.921875 c 0.375,0 0.609375,-0.070312 0.703125,-0.203125 C 19.992188,0.59375 20.046875,0.351563 20.046875,0 V -10 H 15.65625 c 0.789063,0.28125 1.363281,0.476562 1.71875,0.578125 0.363281,0.105469 0.546875,0.25 0.546875,0.4375 0,0.1875 -0.121094,0.355469 -0.359375,0.5 -0.242187,0.148437 -0.734375,0.65625 -1.484375,1.53125 H 18.8125 V -4.5625 H 14.5 v 1.46875 h 4.546875 v 2.484375 H 14.5 V 2.8125 H 11.390625 V -0.609375 H 6.984375 V -3.09375 h 4.40625 V -4.5625 H 7.21875 V -6.953125 H 9.9375 C 9.488281,-7.722656 8.972656,-8.457031 8.390625,-9.15625 L 10.546875,-10 H 6.21875 V 4.125 H 3.046875 V -12.703125 H 11.15625 L 11.3125,-14.59375 H 1.359375 v -2.6875 z M 14.6875,-10 h -3.375 c 0.46875,0.75 0.921875,1.523437 1.359375,2.3125 l -1.96875,0.734375 h 2.625 C 13.898438,-7.847656 14.351563,-8.863281 14.6875,-10 Z m 0,0" style="fill:#ffffff;stroke:none" />
      </g>
    </g>
    <g transform="matrix(1.2808312,0,0,1.2808312,-311.38824,-186.04976)" style="opacity:1;fill:#ffffff;fill-opacity:1" id="g361">
      <g style="fill:#ffffff" id="use359" transform="translate(289.03259,180.12001)">
        <path id="path5662" d="M 6.71875,2.46875 V 3.984375 H 3.625 V -12.59375 h 5.421875 v -2.8125 h -7.5 v -2.9375 h 23.25 v 2.9375 h -7.6875 v 2.8125 H 22.84375 V 3.859375 H 19.546875 V 2.46875 Z m 5.375,-15.0625 h 1.859375 v -2.8125 H 12.09375 Z m 7.453125,7.265625 V -9.78125 h -2.4375 v 3.828125 c 0,0.28125 0.08594,0.476562 0.265625,0.578125 0.1875,0.105469 0.457031,0.15625 0.8125,0.15625 0.363281,0 0.816406,-0.035156 1.359375,-0.109375 z M 9.03125,-9.78125 h -2.3125 v 6.375 c 1.4375,-1.726563 2.207031,-3.851563 2.3125,-6.375 z m 10.515625,9.4375 v -2.203125 c -1.054687,0.105469 -1.984375,0.15625 -2.796875,0.15625 -0.8125,0 -1.484375,-0.117188 -2.015625,-0.359375 -0.523437,-0.25 -0.78125,-0.878906 -0.78125,-1.890625 V -9.78125 H 12.09375 c 0,3.460937 -1.105469,6.351562 -3.3125,8.671875 C 8.1875,-1.660156 7.5,-2.128906 6.71875,-2.515625 v 2.171875 z m 0,0" style="fill:#ffffff;stroke:none" />
      </g>
    </g>
    <g transform="matrix(1.3333333,0,0,1.3333333,-335.46721,-146.03145)" style="opacity:1;fill:#ffffff;fill-opacity:1" id="g365">
      <g style="fill:#ffffff" id="use363" transform="translate(315.2652,180.12001)">
        <path id="path5666" d="m 22.964267,-48.46861 h 7.835085 v 2.89688 h -7.835085 v 8.69064 h 9.666273 v 2.956919 H 9.7857156 v -2.956919 h 9.7413204 v -8.69064 h -8.105259 v -2.89688 h 8.105259 v -7.715007 h 3.137036 c 0.409015,0 0.615399,0.0863 0.615399,0.255165 0,0.172612 -0.05628,0.390254 -0.165107,0.660429 -0.101316,0.26267 -0.150097,0.990643 -0.150097,2.191422 z m 0,0" style="fill:#ffffff;stroke:none;stroke-width:0.960623" />
      </g>
    </g>
    <g transform="matrix(1.3333333,0,0,1.3333333,-330.76743,-146.03145)" style="opacity:1;fill:#ffffff;fill-opacity:1" id="g369">
      <g style="fill:#ffffff" id="use367" transform="translate(341.4978,180.12001)">
        <path id="path5670" d="m 26.539308,-54.967828 2.596686,-1.245809 c 0.690448,0.911842 1.335867,1.936257 1.936256,3.076997 l -2.161402,0.930604 h 2.761792 v 2.701754 h -5.103312 c 0,1.493469 0.165107,3.399706 0.495321,5.718711 0.570371,-1.410915 1.050682,-2.964424 1.440936,-4.668029 0.769249,0.270175 1.474706,0.536598 2.116373,0.795516 0.649171,0.251413 1.013158,0.412767 1.095711,0.480312 0.0788,0.06004 0.120078,0.157601 0.120078,0.285185 0,0.120078 -0.09756,0.292689 -0.285185,0.510331 -0.502826,0.611647 -1.028167,1.561013 -1.576023,2.851851 -0.54035,1.290838 -1.208283,2.581675 -1.996295,3.872513 0.667934,1.681091 1.073197,2.521637 1.215789,2.521637 0.13884,0 0.232651,-0.213889 0.285185,-0.645419 0.04878,-0.439035 0.08256,-1.129483 0.105068,-2.071344 1.028168,0.720467 1.970028,1.167007 2.821831,1.335867 -0.251413,1.879969 -0.622903,3.294638 -1.11072,4.247756 -0.480312,0.949366 -1.043177,1.425926 -1.681092,1.425926 -0.641666,0 -1.283332,-0.352729 -1.921246,-1.050682 -0.641667,-0.701706 -1.238304,-1.647319 -1.78616,-2.836841 -0.923098,1.088207 -2.056334,2.176412 -3.407211,3.257114 -0.851803,-0.791764 -1.658576,-1.380896 -2.416568,-1.77115 1.951266,-1.343371 3.546051,-2.86686 4.788107,-4.577971 -0.690448,-2.791812 -1.121978,-6.018906 -1.290838,-9.681283 h -4.397854 v 2.191422 h 4.09766 l -0.240156,7.639958 c -0.02252,0.652924 -0.131336,1.17076 -0.330215,1.561014 -0.191374,0.382748 -0.547855,0.705457 -1.065691,0.975633 -0.521589,0.270175 -1.290838,0.487817 -2.311501,0.660428 -0.150097,-0.889327 -0.382747,-1.643567 -0.690448,-2.266471 -0.40151,2.060087 -1.305847,4.101412 -2.716763,6.123975 -0.893079,-0.611647 -1.816179,-1.15575 -2.776801,-1.636062 1.448439,-1.752387 2.341519,-3.444736 2.671733,-5.088302 -2.20268,0.971881 -4.22524,1.943761 -6.0639337,2.91189 l -1.3658865,-3.242105 c 1.1294828,-0.288937 2.0338202,-0.544102 2.7167632,-0.765496 v -6.349121 H 8.6777179 v -2.821831 h 2.4315781 v -6.138985 h 2.596683 c 0.288938,0 0.480312,0.02626 0.570371,0.07505 0.09006,0.05254 0.135087,0.135087 0.135087,0.255165 0,0.112573 -0.06004,0.345224 -0.180117,0.705458 -0.112572,0.352729 -0.165107,0.953118 -0.165107,1.801169 v 3.302143 h 1.906237 v 2.821832 h -1.906237 v 5.328458 c 0.848051,-0.33772 1.429678,-0.574122 1.74113,-0.705458 0.04878,1.242057 0.09006,2.037573 0.120078,2.386549 0.187622,-0.919346 0.285185,-2.120126 0.285185,-3.602338 v -8.825728 h 7.249705 l -0.120078,-4.247757 c 0.697954,-0.03752 1.384649,-0.06004 2.056335,-0.06004 0.679191,0 1.088207,0.02626 1.230799,0.07505 0.13884,0.04128 0.210136,0.112572 0.210136,0.210136 0,0.101316 -0.04502,0.221394 -0.135087,0.360234 -0.09006,0.131335 -0.146346,0.43153 -0.165108,0.900584 z m 1.666082,2.761792 c -0.510331,-0.938109 -1.065692,-1.808674 -1.666082,-2.611695 0,0.923099 -0.01126,1.793664 -0.03002,2.611695 z m -9.020855,7.414813 c -0.02252,2.131383 -0.157602,3.902532 -0.405263,5.313448 0.270175,0.04128 0.525341,0.06004 0.765497,0.06004 0.240156,0 0.412768,-0.06379 0.525341,-0.195127 0.10882,-0.138839 0.172612,-0.439034 0.195126,-0.900584 l 0.150098,-4.277776 z m 0,0" style="fill:#ffffff;stroke:none;stroke-width:0.960623" />
      </g>
    </g>
    <g transform="matrix(1.3333333,0,0,1.3333333,-331.96739,-146.03145)" style="opacity:1;fill:#ffffff;fill-opacity:1" id="g373">
      <g style="fill:#ffffff" id="use371" transform="translate(367.99271,180.12001)">
        <path id="path5674" d="m 20.780493,-49.099019 c 1.358383,-1.429678 2.416569,-3.951314 3.167056,-7.56491 0.577875,0.0713 1.249561,0.165107 2.011305,0.285185 0.757993,0.112573 1.219542,0.191375 1.380897,0.240156 0.157602,0.04128 0.240155,0.127582 0.240155,0.255166 0,0.120077 -0.08256,0.277679 -0.240155,0.465302 -0.161355,0.180116 -0.390254,0.615399 -0.690449,1.305847 h 6.349121 c -0.720467,2.953167 -1.846198,5.283429 -3.377192,6.99454 1.459697,0.881822 3.275876,1.546003 5.448536,1.996295 -0.773001,1.020663 -1.425925,2.037573 -1.966276,3.046978 -0.401511,-0.150098 -0.697952,-0.262671 -0.885574,-0.345224 v 9.426117 H 29.09589 v -1.515983 h -3.827484 v 1.515983 h -3.031968 v -9.230991 l -0.600389,0.255166 c -0.270176,-0.487817 -0.521589,-0.89308 -0.750487,-1.215789 v 1.951266 h -2.551656 v 2.536647 c 1.039424,-0.300195 2.01881,-0.619152 2.941909,-0.960624 -0.03002,0.29269 -0.04502,0.675439 -0.04502,1.15575 0,0.480312 0.06754,1.020663 0.210136,1.621052 -3.403464,1.009405 -6.664328,2.168909 -9.786354,3.48226 l -1.125733,-3.43723 c 0.360233,-0.06004 0.81803,-0.150098 1.380895,-0.270176 v -8.13528 h 2.221441 c 0.469054,0 0.705458,0.112573 0.705458,0.330215 0,0.08256 -0.03752,0.195126 -0.105068,0.345224 -0.150098,0.322709 -0.225147,1.110721 -0.225147,2.371539 v 4.487913 l 1.080702,-0.225147 v -8.645611 H 12.43508 v -8.600582 h 8.345413 z m -2.791811,-0.135088 v -3.272124 h -2.746781 v 3.272124 z m 9.396098,0.330214 c 0.589132,-0.750487 1.118226,-1.643567 1.591032,-2.686743 h -3.302143 c 0.378996,0.971881 0.949366,1.868712 1.711111,2.686743 z m -3.437231,0.07505 c -0.401511,0.622904 -0.791764,1.185769 -1.17076,1.696101 -0.881822,-0.660429 -1.546003,-1.099464 -1.996296,-1.320858 v 1.876218 h -2.446587 v 2.596685 h 1.891227 c -0.131335,-0.150102 -0.326462,-0.352734 -0.58538,-0.615404 2.371539,-0.667934 4.22149,-1.44844 5.553604,-2.341519 -0.491569,-0.547857 -0.908088,-1.178266 -1.245808,-1.891228 z m 3.377192,3.827479 c -1.050682,0.742982 -2.251461,1.440935 -3.602338,2.101364 h 7.384793 c -1.470955,-0.66793 -2.731773,-1.369635 -3.782455,-2.10136 z m 1.771149,8.12027 v -3.407211 h -3.827484 v 3.407211 z m 0,0" style="fill:#ffffff;stroke:none;stroke-width:0.960623" />
      </g>
    </g>
    <g transform="matrix(0.65383963,0,0,0.65383963,-39.443342,-77.988171)" style="opacity:1;fill:#ffffff;fill-opacity:1" id="g381">
      <g style="fill:#ffffff" id="use379" transform="translate(407.39999,180.12001)">
        <path id="path5682" d="m 17.53125,-11.40625 c 1.757813,-1.175781 3.234375,-2.425781 4.421875,-3.75 1.851563,1.90625 2.78125,2.992187 2.78125,3.25 0,0.179687 -0.234375,0.308594 -0.703125,0.390625 -0.460937,0.08594 -1.375,0.570312 -2.75,1.453125 -1.367187,0.886719 -2.617187,1.640625 -3.75,2.265625 V -0.9375 c 0,0.46875 0.05078,0.777344 0.15625,0.921875 0.101563,0.132813 0.363281,0.203125 0.78125,0.203125 h 1.546875 c 0.46875,0 0.789063,-0.0625 0.96875,-0.1875 0.175781,-0.132813 0.296875,-0.4375 0.359375,-0.90625 0.0625,-0.476563 0.109375,-1.347656 0.140625,-2.609375 1.332031,0.824219 2.554688,1.339844 3.671875,1.546875 -0.230469,1.542969 -0.605469,2.820313 -1.125,3.84375 -0.523437,1.019531 -1.5625,1.53125 -3.125,1.53125 H 16.8125 c -1.054687,0 -1.757812,-0.246094 -2.109375,-0.734375 -0.355469,-0.492187 -0.53125,-1.304687 -0.53125,-2.4375 v -19.9375 h 3.0625 c 0.40625,0 0.609375,0.117187 0.609375,0.34375 0,0.08594 -0.03906,0.214844 -0.109375,0.390625 -0.136719,0.335937 -0.203125,0.796875 -0.203125,1.390625 z m -9.34375,1.75 H 2.3125 V -12.875 h 5.875 v -6.609375 H 11.25 c 0.40625,0 0.609375,0.132812 0.609375,0.390625 0,0.117187 -0.04297,0.257812 -0.125,0.421875 -0.21875,0.367187 -0.328125,1.152344 -0.328125,2.359375 V 3.828125 H 8.1875 v -4.5625 c -2.324219,1.132813 -4.117187,2.125 -5.375,2.96875 l -1.578125,-3.65625 c 1.75,-0.539063 4.066406,-1.472656 6.953125,-2.796875 z m 0,0" style="fill:#ffffff;stroke:none" />
      </g>
    </g>
    <path d="M 42.621,34.538019 54.285156,47.703125 V 20.743 Z" style="opacity:1;fill:#ffffff;fill-rule:evenodd" id="rect651" />
    <path id="path655" style="opacity:1;fill:#ffffff;fill-rule:evenodd" d="M 222.28516,34.538019 210.621,47.703125 V 20.743 Z" />
    <g transform="matrix(0.62210016,0,0,0.62210016,-39.455486,-33.230046)" style="opacity:1;fill:#ffffff;fill-opacity:1" id="g684">
      <g style="fill:#ffffff" id="use682" transform="translate(93.599998,88.68)">
        <path id="path753" d="M 5.671875,0 H 2.96875 V -9.28125 H 1.625 v -2.78125 c 0.757813,-0.238281 1.257813,-0.765625 1.5,-1.578125 h 2.546875 z m 0,0" style="fill:#ffffff;stroke:none" />
      </g>
    </g>
    <g transform="matrix(0.62210016,0,0,0.62210016,-39.455486,-33.230046)" style="opacity:1;fill:#ffffff;fill-opacity:1" id="g688">
      <g style="fill:#ffffff" id="use686" transform="translate(101.1658,88.68)">
        <path id="path757" d="M 12.25,0 H 1.46875 C 1.582031,-1.601563 1.925781,-2.921875 2.5,-3.953125 c 0.582031,-1.039063 1.28125,-1.875 2.09375,-2.5 0.820313,-0.625 1.875,-1.144531 3.15625,-1.5625 C 8.269531,-8.160156 8.679688,-8.382813 8.984375,-8.6875 9.285156,-9 9.4375,-9.328125 9.4375,-9.671875 c 0,-0.351563 -0.246094,-0.664063 -0.734375,-0.9375 -0.492187,-0.269531 -1.09375,-0.40625 -1.8125,-0.40625 -1.324219,0 -2.511719,0.460937 -3.5625,1.375 L 1.46875,-11.59375 C 2.351563,-12.28125 3.222656,-12.789063 4.078125,-13.125 4.929688,-13.46875 5.90625,-13.640625 7,-13.640625 c 1.65625,0 2.914063,0.367187 3.78125,1.09375 0.875,0.730469 1.3125,1.667969 1.3125,2.8125 0,1.136719 -0.367187,2.0625 -1.09375,2.78125 -0.730469,0.71875 -1.996094,1.386719 -3.796875,2 -0.898437,0.335937 -1.714844,1.085937 -2.453125,2.25 h 7.5 z m 0,0" style="fill:#ffffff;stroke:none" />
      </g>
    </g>
    <g transform="matrix(0.62210016,0,0,0.62210016,-39.455486,-33.230046)" style="opacity:1;fill:#ffffff;fill-opacity:1" id="g692">
      <g style="fill:#ffffff" id="use690" transform="translate(115.08146,88.68)">
        <path id="path761" d="m 9.90625,-7.234375 c 0.570313,0.460937 0.992188,0.953125 1.265625,1.484375 0.28125,0.53125 0.421875,1.171875 0.421875,1.921875 0,1.0625 -0.464844,1.992187 -1.390625,2.78125 -0.917969,0.792969 -2.125,1.1875 -3.625,1.1875 -1.15625,0 -2.261719,-0.257813 -3.3125,-0.78125 -1.054687,-0.519531 -1.90625,-1.238281 -2.5625,-2.15625 l 2.15625,-1.53125 c 0.28125,0.480469 0.773438,0.902344 1.484375,1.265625 0.71875,0.367187 1.519531,0.546875 2.40625,0.546875 0.882813,0 1.484375,-0.164063 1.796875,-0.5 0.320313,-0.34375 0.484375,-0.695313 0.484375,-1.0625 0,-0.445313 -0.226562,-0.863281 -0.671875,-1.25 -0.4375,-0.394531 -0.992187,-0.59375 -1.65625,-0.59375 -0.136719,0 -0.273437,0.00781 -0.40625,0.015625 V -8.578125 H 7.40625 c 0.238281,0 0.457031,-0.109375 0.65625,-0.328125 C 8.269531,-9.132813 8.375,-9.414063 8.375,-9.75 c 0,-0.34375 -0.199219,-0.628906 -0.59375,-0.859375 -0.398437,-0.238281 -0.917969,-0.359375 -1.5625,-0.359375 -1.21875,0 -2.1875,0.375 -2.90625,1.125 L 1.375,-11.578125 c 0.644531,-0.675781 1.390625,-1.1875 2.234375,-1.53125 0.851563,-0.351563 1.726563,-0.53125 2.625,-0.53125 1.351563,0 2.476563,0.367187 3.375,1.09375 0.90625,0.730469 1.359375,1.636719 1.359375,2.71875 0,1.085937 -0.355469,1.949219 -1.0625,2.59375 z m 0,0" style="fill:#ffffff;stroke:none" />
      </g>
    </g>
    <g transform="matrix(0.63560242,0,0,0.63560242,-84.740116,-1.1272363)" style="opacity:1;fill:#ffffff;fill-opacity:1" id="g700">
      <g style="fill:#ffffff" id="use698" transform="translate(161.15175,88.68)">
        <path id="path769" d="M 5.671875,0 H 2.96875 V -9.28125 H 1.625 v -2.78125 c 0.757813,-0.238281 1.257813,-0.765625 1.5,-1.578125 h 2.546875 z m 0,0" style="fill:#ffffff;stroke:none" />
      </g>
    </g>
    <g transform="matrix(0.63560242,0,0,0.63560242,-84.740116,-1.1272363)" style="opacity:1;fill:#ffffff;fill-opacity:1" id="g704">
      <g style="fill:#ffffff" id="use702" transform="translate(168.71754,88.68)">
        <path id="path773" d="m 9.5625,-6.109375 c -0.929687,0.398437 -1.820312,0.59375 -2.671875,0.59375 -0.855469,0 -1.699219,-0.132813 -2.53125,-0.40625 -0.835937,-0.28125 -1.5,-0.742188 -2,-1.390625 C 1.867188,-7.957031 1.625,-8.738281 1.625,-9.65625 c 0,-1.15625 0.492188,-2.113281 1.484375,-2.875 1,-0.757813 2.253906,-1.140625 3.765625,-1.140625 1.71875,0 3.066406,0.433594 4.046875,1.296875 0.988281,0.867187 1.484375,2.324219 1.484375,4.375 0,1.042969 -0.171875,2.023437 -0.515625,2.9375 -0.335937,0.917969 -0.78125,1.703125 -1.34375,2.359375 -0.5625,0.65625 -1.257812,1.214844 -2.078125,1.671875 -0.8125,0.460937 -1.574219,0.773437 -2.28125,0.9375 C 5.488281,0.0625 4.640625,0.140625 3.640625,0.140625 v -2.65625 c 0.15625,0.011719 0.320313,0.015625 0.5,0.015625 1.082031,0 2.113281,-0.289063 3.09375,-0.875 C 8.222656,-3.957031 9,-4.867188 9.5625,-6.109375 Z m -2.65625,-2.125 c 0.84375,0 1.488281,-0.113281 1.9375,-0.34375 0.457031,-0.238281 0.6875,-0.5625 0.6875,-0.96875 0,-0.988281 -0.902344,-1.484375 -2.703125,-1.484375 -0.773437,0 -1.386719,0.136719 -1.84375,0.40625 -0.460937,0.273437 -0.6875,0.625 -0.6875,1.0625 0,0.886719 0.867188,1.328125 2.609375,1.328125 z m 0,0" style="fill:#ffffff;stroke:none" />
      </g>
    </g>
    <g transform="matrix(0.63560242,0,0,0.63560242,-84.740116,-1.1272363)" style="opacity:1;fill:#ffffff;fill-opacity:1" id="g708">
      <g style="fill:#ffffff" id="use706" transform="translate(182.36301,88.68)">
        <path id="path777" d="M 12.25,0 H 1.46875 C 1.582031,-1.601563 1.925781,-2.921875 2.5,-3.953125 c 0.582031,-1.039063 1.28125,-1.875 2.09375,-2.5 0.820313,-0.625 1.875,-1.144531 3.15625,-1.5625 C 8.269531,-8.160156 8.679688,-8.382813 8.984375,-8.6875 9.285156,-9 9.4375,-9.328125 9.4375,-9.671875 c 0,-0.351563 -0.246094,-0.664063 -0.734375,-0.9375 -0.492187,-0.269531 -1.09375,-0.40625 -1.8125,-0.40625 -1.324219,0 -2.511719,0.460937 -3.5625,1.375 L 1.46875,-11.59375 C 2.351563,-12.28125 3.222656,-12.789063 4.078125,-13.125 4.929688,-13.46875 5.90625,-13.640625 7,-13.640625 c 1.65625,0 2.914063,0.367187 3.78125,1.09375 0.875,0.730469 1.3125,1.667969 1.3125,2.8125 0,1.136719 -0.367187,2.0625 -1.09375,2.78125 -0.730469,0.71875 -1.996094,1.386719 -3.796875,2 -0.898437,0.335937 -1.714844,1.085937 -2.453125,2.25 h 7.5 z m 0,0" style="fill:#ffffff;stroke:none" />
      </g>
    </g>
    <g transform="matrix(0.65145994,0,0,0.65145994,74.924513,-35.95746)" style="opacity:1;fill:#ffffff;fill-opacity:1" id="g716">
      <g style="fill:#ffffff" id="use714" transform="translate(228.92868,88.68)">
        <path id="path785" d="M 5.671875,0 H 2.96875 V -9.28125 H 1.625 v -2.78125 c 0.757813,-0.238281 1.257813,-0.765625 1.5,-1.578125 h 2.546875 z m 0,0" style="fill:#ffffff;stroke:none" />
      </g>
    </g>
    <g transform="matrix(0.65145994,0,0,0.65145994,74.924513,-35.95746)" style="opacity:1;fill:#ffffff;fill-opacity:1" id="g720">
      <g style="fill:#ffffff" id="use718" transform="translate(236.35937,88.68)">
        <path id="path789" d="m 9.5625,-6.109375 c -0.929687,0.398437 -1.820312,0.59375 -2.671875,0.59375 -0.855469,0 -1.699219,-0.132813 -2.53125,-0.40625 -0.835937,-0.28125 -1.5,-0.742188 -2,-1.390625 C 1.867188,-7.957031 1.625,-8.738281 1.625,-9.65625 c 0,-1.15625 0.492188,-2.113281 1.484375,-2.875 1,-0.757813 2.253906,-1.140625 3.765625,-1.140625 1.71875,0 3.066406,0.433594 4.046875,1.296875 0.988281,0.867187 1.484375,2.324219 1.484375,4.375 0,1.042969 -0.171875,2.023437 -0.515625,2.9375 -0.335937,0.917969 -0.78125,1.703125 -1.34375,2.359375 -0.5625,0.65625 -1.257812,1.214844 -2.078125,1.671875 -0.8125,0.460937 -1.574219,0.773437 -2.28125,0.9375 C 5.488281,0.0625 4.640625,0.140625 3.640625,0.140625 v -2.65625 c 0.15625,0.011719 0.320313,0.015625 0.5,0.015625 1.082031,0 2.113281,-0.289063 3.09375,-0.875 C 8.222656,-3.957031 9,-4.867188 9.5625,-6.109375 Z m -2.65625,-2.125 c 0.84375,0 1.488281,-0.113281 1.9375,-0.34375 0.457031,-0.238281 0.6875,-0.5625 0.6875,-0.96875 0,-0.988281 -0.902344,-1.484375 -2.703125,-1.484375 -0.773437,0 -1.386719,0.136719 -1.84375,0.40625 -0.460937,0.273437 -0.6875,0.625 -0.6875,1.0625 0,0.886719 0.867188,1.328125 2.609375,1.328125 z m 0,0" style="fill:#ffffff;stroke:none" />
      </g>
    </g>
    <g transform="matrix(0.65145994,0,0,0.65145994,74.924513,-35.95746)" style="opacity:1;fill:#ffffff;fill-opacity:1" id="g724">
      <g style="fill:#ffffff" id="use722" transform="translate(250.00482,88.68)">
        <path id="path793" d="m 9.90625,-7.234375 c 0.570313,0.460937 0.992188,0.953125 1.265625,1.484375 0.28125,0.53125 0.421875,1.171875 0.421875,1.921875 0,1.0625 -0.464844,1.992187 -1.390625,2.78125 -0.917969,0.792969 -2.125,1.1875 -3.625,1.1875 -1.15625,0 -2.261719,-0.257813 -3.3125,-0.78125 -1.054687,-0.519531 -1.90625,-1.238281 -2.5625,-2.15625 l 2.15625,-1.53125 c 0.28125,0.480469 0.773438,0.902344 1.484375,1.265625 0.71875,0.367187 1.519531,0.546875 2.40625,0.546875 0.882813,0 1.484375,-0.164063 1.796875,-0.5 0.320313,-0.34375 0.484375,-0.695313 0.484375,-1.0625 0,-0.445313 -0.226562,-0.863281 -0.671875,-1.25 -0.4375,-0.394531 -0.992187,-0.59375 -1.65625,-0.59375 -0.136719,0 -0.273437,0.00781 -0.40625,0.015625 V -8.578125 H 7.40625 c 0.238281,0 0.457031,-0.109375 0.65625,-0.328125 C 8.269531,-9.132813 8.375,-9.414063 8.375,-9.75 c 0,-0.34375 -0.199219,-0.628906 -0.59375,-0.859375 -0.398437,-0.238281 -0.917969,-0.359375 -1.5625,-0.359375 -1.21875,0 -2.1875,0.375 -2.90625,1.125 L 1.375,-11.578125 c 0.644531,-0.675781 1.390625,-1.1875 2.234375,-1.53125 0.851563,-0.351563 1.726563,-0.53125 2.625,-0.53125 1.351563,0 2.476563,0.367187 3.375,1.09375 0.90625,0.730469 1.359375,1.636719 1.359375,2.71875 0,1.085937 -0.355469,1.949219 -1.0625,2.59375 z m 0,0" style="fill:#ffffff;stroke:none" />
      </g>
    </g>
    <g style="opacity:1;fill:#ffffff;fill-opacity:1" id="use730" transform="matrix(0.50206355,0,0,0.65786048,225.52989,55.312879)">
      <path id="path801" d="M 12.25,0 H 1.46875 C 1.582031,-1.601563 1.925781,-2.921875 2.5,-3.953125 c 0.582031,-1.039063 1.28125,-1.875 2.09375,-2.5 0.820313,-0.625 1.875,-1.144531 3.15625,-1.5625 C 8.269531,-8.160156 8.679688,-8.382813 8.984375,-8.6875 9.285156,-9 9.4375,-9.328125 9.4375,-9.671875 c 0,-0.351563 -0.246094,-0.664063 -0.734375,-0.9375 -0.492187,-0.269531 -1.09375,-0.40625 -1.8125,-0.40625 -1.324219,0 -2.511719,0.460937 -3.5625,1.375 L 1.46875,-11.59375 C 2.351563,-12.28125 3.222656,-12.789063 4.078125,-13.125 4.929688,-13.46875 5.90625,-13.640625 7,-13.640625 c 1.65625,0 2.914063,0.367187 3.78125,1.09375 0.875,0.730469 1.3125,1.667969 1.3125,2.8125 0,1.136719 -0.367187,2.0625 -1.09375,2.78125 -0.730469,0.71875 -1.996094,1.386719 -3.796875,2 -0.898437,0.335937 -1.714844,1.085937 -2.453125,2.25 h 7.5 z m 0,0" style="fill:#ffffff;stroke:none" />
    </g>
    <g transform="matrix(0.50206355,0,0,0.65786048,76.655234,-3.0261897)" style="opacity:1;fill:#ffffff;fill-opacity:1" id="g736">
      <g style="fill:#ffffff" id="use734" transform="translate(310.44113,88.68)">
        <path id="path805" d="M 12.25,0 H 1.46875 C 1.582031,-1.601563 1.925781,-2.921875 2.5,-3.953125 c 0.582031,-1.039063 1.28125,-1.875 2.09375,-2.5 0.820313,-0.625 1.875,-1.144531 3.15625,-1.5625 C 8.269531,-8.160156 8.679688,-8.382813 8.984375,-8.6875 9.285156,-9 9.4375,-9.328125 9.4375,-9.671875 c 0,-0.351563 -0.246094,-0.664063 -0.734375,-0.9375 -0.492187,-0.269531 -1.09375,-0.40625 -1.8125,-0.40625 -1.324219,0 -2.511719,0.460937 -3.5625,1.375 L 1.46875,-11.59375 C 2.351563,-12.28125 3.222656,-12.789063 4.078125,-13.125 4.929688,-13.46875 5.90625,-13.640625 7,-13.640625 c 1.65625,0 2.914063,0.367187 3.78125,1.09375 0.875,0.730469 1.3125,1.667969 1.3125,2.8125 0,1.136719 -0.367187,2.0625 -1.09375,2.78125 -0.730469,0.71875 -1.996094,1.386719 -3.796875,2 -0.898437,0.335937 -1.714844,1.085937 -2.453125,2.25 h 7.5 z m 0,0" style="fill:#ffffff;stroke:none" />
      </g>
    </g>
    <g transform="matrix(0.50206355,0,0,0.65786048,76.655234,-3.0261897)" style="opacity:1;fill:#ffffff;fill-opacity:1" id="g740">
      <g style="fill:#ffffff" id="use738" transform="translate(324.17664,88.68)">
        <path id="path809" d="m 7.0625,-13.640625 c 1.613281,0 2.953125,0.621094 4.015625,1.859375 1.0625,1.242187 1.59375,2.917969 1.59375,5.03125 0,2.117187 -0.507812,3.792969 -1.515625,5.03125 -1,1.242187 -2.375,1.859375 -4.125,1.859375 -1.75,0 -3.136719,-0.609375 -4.15625,-1.828125 -1.023437,-1.226563 -1.53125,-2.90625 -1.53125,-5.03125 0,-2.125 0.507813,-3.804688 1.53125,-5.046875 1.019531,-1.25 2.414063,-1.875 4.1875,-1.875 z m 0.140625,11.125 c 0.84375,0 1.523438,-0.394531 2.046875,-1.1875 0.53125,-0.800781 0.796875,-1.875 0.796875,-3.21875 0,-1.34375 -0.246094,-2.351563 -0.734375,-3.03125 -0.480469,-0.6875 -1.234375,-1.03125 -2.265625,-1.03125 -2.03125,0 -3.046875,1.429687 -3.046875,4.28125 0,1.34375 0.273438,2.382812 0.828125,3.109375 0.550781,0.71875 1.34375,1.078125 2.375,1.078125 z m 0,0" style="fill:#ffffff;stroke:none" />
      </g>
    </g>
  </g>
</svg>
