<?xml version="1.0" encoding="UTF-8"?>
<svg xmlns="http://www.w3.org/2000/svg" xmlns:ns1="http://sodipodi.sourceforge.net/DTD/sodipodi-0.dtd" viewBox="0 0 109.40063 151.97885" height="151.97885" width="109.40063" id="svg2528" version="1.1">
  <defs id="defs2532" />
  <ns1:namedview showgrid="false" id="namedview2530" guidetolerance="10" gridtolerance="10" objecttolerance="10" borderopacity="1" bordercolor="#666666" pagecolor="#ffffff" />
  <g transform="translate(-2.6249861,-0.8699999)" id="g2536">
    <path style="color:#000000;font-style:normal;font-variant:normal;font-weight:normal;font-stretch:normal;font-size:medium;line-height:normal;font-family:sans-serif;font-variant-ligatures:normal;font-variant-position:normal;font-variant-caps:normal;font-variant-numeric:normal;font-variant-alternates:normal;font-variant-east-asian:normal;font-feature-settings:normal;font-variation-settings:normal;text-indent:0;text-align:start;text-decoration:none;text-decoration-line:none;text-decoration-style:solid;text-decoration-color:#000000;letter-spacing:normal;word-spacing:normal;text-transform:none;writing-mode:lr-tb;direction:ltr;text-orientation:mixed;dominant-baseline:auto;baseline-shift:baseline;text-anchor:start;white-space:normal;shape-padding:0;shape-margin:0;inline-size:0;clip-rule:nonzero;display:inline;overflow:visible;visibility:visible;opacity:1;isolation:auto;mix-blend-mode:normal;color-interpolation:sRGB;color-interpolation-filters:linearRGB;solid-color:#000000;solid-opacity:1;vector-effect:none;fill:#ffffff;fill-opacity:1;fill-rule:nonzero;stroke:none;stroke-width:3.28256;stroke-linecap:butt;stroke-linejoin:miter;stroke-miterlimit:4;stroke-dasharray:none;stroke-dashoffset:0;stroke-opacity:1;color-rendering:auto;image-rendering:auto;shape-rendering:auto;text-rendering:auto;enable-background:accumulate;stop-color:#000000;stop-opacity:1" d="m 15.649686,2.7613359 h 83.350318 c 6.167926,0 11.133426,4.9655052 11.133426,11.1334301 V 139.82543 c 0,6.16792 -4.9655,11.13342 -11.133426,11.13342 H 15.649686 c -6.1679169,0 -11.1334199,-4.9655 -11.1334199,-11.13342 V 13.894766 c 0,-6.1679249 4.965503,-11.1334301 11.1334199,-11.1334301 z" id="path81" />
    <path style="color:#000000;font-style:normal;font-variant:normal;font-weight:normal;font-stretch:normal;font-size:medium;line-height:normal;font-family:sans-serif;font-variant-ligatures:normal;font-variant-position:normal;font-variant-caps:normal;font-variant-numeric:normal;font-variant-alternates:normal;font-variant-east-asian:normal;font-feature-settings:normal;font-variation-settings:normal;text-indent:0;text-align:start;text-decoration:none;text-decoration-line:none;text-decoration-style:solid;text-decoration-color:#000000;letter-spacing:normal;word-spacing:normal;text-transform:none;writing-mode:lr-tb;direction:ltr;text-orientation:mixed;dominant-baseline:auto;baseline-shift:baseline;text-anchor:start;white-space:normal;shape-padding:0;shape-margin:0;inline-size:0;clip-rule:nonzero;display:inline;overflow:visible;visibility:visible;opacity:1;isolation:auto;mix-blend-mode:normal;color-interpolation:sRGB;color-interpolation-filters:linearRGB;solid-color:#000000;solid-opacity:1;vector-effect:none;fill:#1b4833;fill-opacity:1;fill-rule:nonzero;stroke:none;stroke-width:0.5;stroke-linecap:butt;stroke-linejoin:miter;stroke-miterlimit:4;stroke-dasharray:none;stroke-dashoffset:0;stroke-opacity:1;color-rendering:auto;image-rendering:auto;shape-rendering:auto;text-rendering:auto;enable-background:accumulate;stop-color:#000000;stop-opacity:1" d="m 15.648692,1.1199999 c -7.0488009,0 -12.7737059,5.7248941 -12.7737059,12.7737051 V 139.82515 c 0,7.04879 5.724905,12.7737 12.7737059,12.7737 h 83.350492 c 7.048786,0 12.776426,-5.72491 12.776426,-12.7737 V 13.893705 c 0,-7.048811 -5.72764,-12.7737051 -12.776426,-12.7737051 z m 0,3.2827951 h 83.350492 c 5.287026,0 9.493616,4.2038591 9.493646,9.49091 V 139.82515 c 0,5.28703 -4.20662,9.49363 -9.493646,9.49365 H 15.648692 c -5.287042,0 -9.4909119,-4.20662 -9.4909119,-9.49365 V 13.893705 c 0,-5.2870509 4.2038699,-9.49091 9.4909119,-9.49091 z" id="path83" />
    <path id="path75" style="color:#000000;font-style:normal;font-variant:normal;font-weight:normal;font-stretch:normal;font-size:medium;line-height:normal;font-family:sans-serif;font-variant-ligatures:normal;font-variant-position:normal;font-variant-caps:normal;font-variant-numeric:normal;font-variant-alternates:normal;font-variant-east-asian:normal;font-feature-settings:normal;font-variation-settings:normal;text-indent:0;text-align:start;text-decoration:none;text-decoration-line:none;text-decoration-style:solid;text-decoration-color:#000000;letter-spacing:normal;word-spacing:normal;text-transform:none;writing-mode:lr-tb;direction:ltr;text-orientation:mixed;dominant-baseline:auto;baseline-shift:baseline;text-anchor:start;white-space:normal;shape-padding:0;shape-margin:0;inline-size:0;clip-rule:nonzero;display:inline;overflow:visible;visibility:visible;opacity:1;isolation:auto;mix-blend-mode:normal;color-interpolation:sRGB;color-interpolation-filters:linearRGB;solid-color:#000000;solid-opacity:1;vector-effect:none;fill:#1b4833;fill-opacity:1;fill-rule:nonzero;stroke:none;stroke-width:3.28256;stroke-linecap:butt;stroke-linejoin:miter;stroke-miterlimit:4;stroke-dasharray:none;stroke-dashoffset:0;stroke-opacity:1;color-rendering:auto;image-rendering:auto;shape-rendering:auto;text-rendering:auto;enable-background:accumulate;stop-color:#000000;stop-opacity:1" d="m 15.642939,7.7566761 c -3.387278,0 -6.1153939,2.7475399 -6.1153939,6.1478869 V 139.83055 c 0,3.39001 2.7253909,6.11539 6.1153939,6.11539 h 83.367425 c 3.389986,0 6.115376,-2.72538 6.115376,-6.11539 V 13.904563 c 0,-3.400347 -2.72813,-6.1478869 -6.115376,-6.1478869 z" />
    <path d="m 40.828578,51.032465 v 4.965844 h 3.751712 c 0.866792,0 1.564537,0.697915 1.564537,1.564715 V 85.82352 c 0,0.866805 -0.697745,1.564692 -1.564537,1.564692 h -3.751712 v 5.215384 h 19.276638 v -5.215384 h -4.458799 c -0.866796,0 -1.564721,-0.697887 -1.564721,-1.564692 V 71.523962 h 12.401871 c 4.707868,-0.976928 8.224885,-5.130756 8.224885,-10.136787 0,-5.736507 -4.618211,-10.35471 -10.354743,-10.35471 h -4.248493 -9.138732 z m 13.465664,4.880512 h 5.568725 c 2.982897,0 5.384234,2.4015 5.384234,5.384393 0,2.982858 -2.401337,5.384209 -5.384234,5.384209 h -5.568725 z" style="opacity:1;fill:#ffffff;fill-opacity:1;stroke:none;stroke-width:0.789059;stroke-miterlimit:4;stroke-dasharray:none;stroke-opacity:1;paint-order:stroke fill markers" id="path955" />
    <path style="opacity:1;fill:#ffffff;fill-opacity:1;fill-rule:nonzero;stroke:none;stroke-width:2.78525" d="m 31.684055,19.39081 0.261118,-3.351001 3.438054,0.217528 c 0.456954,0.03259 0.696314,0.174072 0.696314,0.435197 0,0.119759 -0.108793,0.348157 -0.304637,0.696315 -0.206722,0.348156 -0.348158,1.022718 -0.435196,2.001905 H 46.654813 V 22.35009 H 35.07859 l -0.217614,2.088944 h 9.835452 v 14.796692 c 0,0.805134 -0.152347,1.447052 -0.435196,1.914866 -0.293762,0.489619 -0.84864,0.870392 -1.653748,1.13151 -0.783355,0.282899 -1.947509,0.522236 -3.481573,0.696316 -0.152347,-1.196771 -0.598413,-2.480609 -1.349124,-3.873237 1.13151,0.195797 1.893112,0.304622 2.306556,0.304622 0.402555,0 0.663673,-0.07604 0.783355,-0.217528 0.108896,-0.152346 0.174071,-0.413444 0.174071,-0.783354 V 27.39843 h -4.830682 c 0.870384,0.326403 1.490549,0.544015 1.871352,0.652807 0.402552,0.119759 0.609274,0.282872 0.609274,0.478702 0,0.20666 -0.130621,0.391692 -0.39169,0.56577 -0.26098,0.152347 -0.815998,0.696317 -1.653739,1.653749 h 3.002863 v 2.654687 H 34.94803 v 1.610241 h 4.961248 v 2.741725 H 34.94803 v 3.742693 h -3.438055 v -3.742693 h -4.874202 v -2.741725 h 4.874202 V 33.404145 H 26.89689 v -2.654687 h 3.002857 C 29.39927,29.911707 28.833515,29.117464 28.202481,28.355862 L 30.596062,27.39843 H 25.808899 V 42.934968 H 22.327324 V 24.439091 h 8.921533 l 0.174071,-2.088944 H 20.455979 V 19.39081 Z m 3.438054,8.00762 h -3.699172 c 0.522236,0.848639 1.01183,1.697279 1.479668,2.567673 l -2.132464,0.783355 h 2.872299 c 0.631032,-0.979187 1.131511,-2.099834 1.479669,-3.351028 z m 0,0" id="path223" />
    <path style="opacity:1;fill:#ffffff;fill-opacity:1;fill-rule:nonzero;stroke:none;stroke-width:2.78525" d="m 75.139653,38.800584 v 2.654714 H 71.484 V 19.86954 H 91.851208 V 41.368259 H 87.890931 V 38.800584 Z M 87.890931,35.710701 V 23.046461 H 75.139653 v 12.66424 z m 0,0" id="path225" />
    <path d="m 44.670622,113.90721 13.212707,-0.67674 0.05498,0.01 -18.976584,18.65848 6.665113,6.56768 18.863435,-18.54367 0.08641,13.59912 10.566525,-10.7233 0.522335,-20.51376 -20.428366,0.89875 z" style="opacity:1;fill:#ffffff;stroke-width:0.382111" id="rect6457" />
  </g>
</svg>
