<?xml version="1.0" encoding="UTF-8"?>
<svg xmlns="http://www.w3.org/2000/svg" xmlns:ns1="http://sodipodi.sourceforge.net/DTD/sodipodi-0.dtd" viewBox="0 0 150.07452 54.995682" height="54.995682" width="150.07452" id="svg9881" version="1.1">
  <defs id="defs9885" />
  <ns1:namedview showgrid="false" id="namedview9883" guidetolerance="10" gridtolerance="10" objecttolerance="10" borderopacity="1" bordercolor="#666666" pagecolor="#ffffff" />
  <g transform="translate(-2.8922555,-3.2195504)" id="g9889">
    <path id="path11391" d="m 14.007663,4.8360395 c -5.2616871,0 -9.4989181,4.23723 -9.4989181,9.4989175 v 32.764862 c 0,5.261694 4.237231,9.498917 9.4989181,9.498917 H 141.85136 c 5.26168,0 9.49892,-4.237223 9.49892,-9.498917 V 14.334957 c 0,-5.2616875 -4.23724,-9.4989175 -9.49892,-9.4989175 z" style="color:#000000;font-style:normal;font-variant:normal;font-weight:normal;font-stretch:normal;font-size:medium;line-height:normal;font-family:sans-serif;font-variant-ligatures:normal;font-variant-position:normal;font-variant-caps:normal;font-variant-numeric:normal;font-variant-alternates:normal;font-variant-east-asian:normal;font-feature-settings:normal;font-variation-settings:normal;text-indent:0;text-align:start;text-decoration:none;text-decoration-line:none;text-decoration-style:solid;text-decoration-color:#000000;letter-spacing:normal;word-spacing:normal;text-transform:none;writing-mode:lr-tb;direction:ltr;text-orientation:mixed;dominant-baseline:auto;baseline-shift:baseline;text-anchor:start;white-space:normal;shape-padding:0;shape-margin:0;inline-size:0;clip-rule:nonzero;display:inline;overflow:visible;visibility:visible;opacity:1;isolation:auto;mix-blend-mode:normal;color-interpolation:sRGB;color-interpolation-filters:linearRGB;solid-color:#000000;solid-opacity:1;vector-effect:none;fill:#ffffff;fill-opacity:1;fill-rule:nonzero;stroke:none;stroke-width:2.80027;stroke-linecap:butt;stroke-linejoin:miter;stroke-miterlimit:4;stroke-dasharray:none;stroke-dashoffset:0;stroke-opacity:1;color-rendering:auto;image-rendering:auto;shape-rendering:auto;text-rendering:auto;enable-background:accumulate;stop-color:#000000;stop-opacity:1" />
    <path id="path11393" d="M 14.007663,3.4362949 C 7.9942939,3.4362949 3.109,8.3215879 3.109,14.334957 v 32.764862 c 0,6.013372 4.8852939,10.898669 10.898663,10.898669 H 141.85136 c 6.01338,0 10.89867,-4.885297 10.89867,-10.898669 V 14.334957 c 0,-6.0133691 -4.88529,-10.8986621 -10.89867,-10.8986621 z m 0,2.7994892 H 141.85136 c 4.51002,0 8.09917,3.589167 8.09917,8.0991729 v 32.764862 c 0,4.510008 -3.58915,8.099173 -8.09917,8.099173 H 14.007663 c -4.5100051,0 -8.0991741,-3.589165 -8.0991741,-8.099173 V 14.334957 c 0,-4.510005 3.58917,-8.0991729 8.0991741,-8.0991729 z" style="color:#000000;font-style:normal;font-variant:normal;font-weight:normal;font-stretch:normal;font-size:medium;line-height:normal;font-family:sans-serif;font-variant-ligatures:normal;font-variant-position:normal;font-variant-caps:normal;font-variant-numeric:normal;font-variant-alternates:normal;font-variant-east-asian:normal;font-feature-settings:normal;font-variation-settings:normal;text-indent:0;text-align:start;text-decoration:none;text-decoration-line:none;text-decoration-style:solid;text-decoration-color:#000000;letter-spacing:normal;word-spacing:normal;text-transform:none;writing-mode:lr-tb;direction:ltr;text-orientation:mixed;dominant-baseline:auto;baseline-shift:baseline;text-anchor:start;white-space:normal;shape-padding:0;shape-margin:0;inline-size:0;clip-rule:nonzero;display:inline;overflow:visible;visibility:visible;opacity:1;isolation:auto;mix-blend-mode:normal;color-interpolation:sRGB;color-interpolation-filters:linearRGB;solid-color:#000000;solid-opacity:1;vector-effect:none;fill:#2138a5;fill-opacity:1;fill-rule:nonzero;stroke:none;stroke-width:0.433489;stroke-linecap:butt;stroke-linejoin:miter;stroke-miterlimit:4;stroke-dasharray:none;stroke-dashoffset:0;stroke-opacity:1;color-rendering:auto;image-rendering:auto;shape-rendering:auto;text-rendering:auto;enable-background:accumulate;stop-color:#000000;stop-opacity:1" />
    <path d="m 14.002188,9.0973212 c -2.889544,0 -5.2157381,2.3443508 -5.2157381,5.2449368 v 32.76304 c 0,2.891768 2.3239661,5.215736 5.2157381,5.215736 H 141.86049 c 2.89177,0 5.21573,-2.323959 5.21573,-5.215736 v -32.76304 c 0,-2.900587 -2.32618,-5.2449368 -5.21573,-5.2449368 z" style="color:#000000;font-style:normal;font-variant:normal;font-weight:normal;font-stretch:normal;font-size:medium;line-height:normal;font-family:sans-serif;font-variant-ligatures:normal;font-variant-position:normal;font-variant-caps:normal;font-variant-numeric:normal;font-variant-alternates:normal;font-variant-east-asian:normal;font-feature-settings:normal;font-variation-settings:normal;text-indent:0;text-align:start;text-decoration:none;text-decoration-line:none;text-decoration-style:solid;text-decoration-color:#000000;letter-spacing:normal;word-spacing:normal;text-transform:none;writing-mode:lr-tb;direction:ltr;text-orientation:mixed;dominant-baseline:auto;baseline-shift:baseline;text-anchor:start;white-space:normal;shape-padding:0;shape-margin:0;inline-size:0;clip-rule:nonzero;display:inline;overflow:visible;visibility:visible;opacity:1;isolation:auto;mix-blend-mode:normal;color-interpolation:sRGB;color-interpolation-filters:linearRGB;solid-color:#000000;solid-opacity:1;vector-effect:none;fill:#2138a5;fill-opacity:1;fill-rule:nonzero;stroke:none;stroke-width:2.80027;stroke-linecap:butt;stroke-linejoin:miter;stroke-miterlimit:4;stroke-dasharray:none;stroke-dashoffset:0;stroke-opacity:1;color-rendering:auto;image-rendering:auto;shape-rendering:auto;text-rendering:auto;enable-background:accumulate;stop-color:#000000;stop-opacity:1" id="path11374" />
    <path d="M 25.521841,35.296719 H 14.792 v -3.18408 h 10.729841 v -9.43153 h -8.801152 v -3.18408 h 21.290684 v 3.18408 h -8.717994 v 9.43153 h 10.855915 v 3.18408 H 29.293379 v 9.222298 h -3.771538 z m 8.425607,-11.735763 c 1.005921,0.335308 1.896498,0.670616 2.682457,1.005922 0.804738,0.313848 1.236615,0.504303 1.298312,0.587459 0.08315,0.0617 0.126083,0.158272 0.126083,0.292389 0,0.115339 -0.168995,0.29507 -0.504301,0.544538 -0.313848,0.252153 -0.700122,0.818151 -1.172236,1.676539 -0.482843,0.839609 -1.3305,2.15938 -2.556383,3.940533 -0.756454,-0.472112 -1.802613,-0.941544 -3.143844,-1.424387 1.424386,-1.979655 2.513466,-4.192685 3.26992,-6.622993 z m -9.766837,6.370843 -3.562308,1.550462 c -0.901306,-1.86431 -2.086953,-3.865426 -3.562305,-5.992616 l 3.226999,-1.719458 c 1.593381,2.18084 2.891691,4.232922 3.897614,6.161612 z" style="opacity:1;fill:#ffffff;fill-opacity:1;fill-rule:nonzero;stroke:none;stroke-width:2.68245" id="path9921" />
    <path d="m 73.507702,24.650036 -3.100923,2.642222 c -2.379342,-2.483959 -4.903538,-4.578959 -7.585997,-6.287685 l 2.513464,-2.556386 c 2.872915,2.044035 5.595613,4.106846 8.173456,6.201849 z m -16.89145,-5.992617 c 1.762376,1.038112 2.77903,1.676537 3.060688,1.92869 0.273611,0.23069 0.418464,0.407732 0.418464,0.544538 0,0.252152 -0.198509,0.461384 -0.584777,0.627695 -0.399687,0.147529 -1.027383,0.60892 -1.888453,1.38415 -2.12719,2.044034 -4.002229,3.709842 -5.614387,4.986694 -0.871801,-0.858388 -1.866992,-1.655079 -2.977531,-2.38739 3.489879,-2.116461 6.014075,-4.485073 7.585996,-7.084377 z m -0.08315,24.351372 v 1.467305 h -3.436231 v -9.89023 c -0.839609,0.480161 -1.676537,0.920085 -2.516148,1.341231 -0.75377,-1.091762 -1.655077,-2.054764 -2.682459,-2.894375 2.95607,-1.024699 5.36492,-2.355199 7.210452,-3.98077 1.84285,-1.644349 3.44696,-3.854695 4.820381,-6.622993 2.14865,0.619648 3.331615,0.987144 3.562305,1.09176 0.252153,0.08315 0.378227,0.198508 0.378227,0.335308 0,0.144853 -0.06438,0.270929 -0.168995,0.375545 0.922767,1.990385 2.347153,3.7313 4.275843,5.238844 1.947466,1.510224 4.149764,2.537607 6.580073,3.060686 -0.922765,1.06762 -1.719456,2.221077 -2.390072,3.47915 -1.005923,-0.388956 -2.001114,-0.850338 -2.974847,-1.384149 v 9.849993 H 65.586405 V 43.008791 Z M 56.07172,32.697416 h 10.185299 c -1.958195,-1.507544 -3.583766,-3.393313 -4.860617,-5.657309 -1.456576,2.242536 -3.227,4.128306 -5.324682,5.657309 z m 9.514685,7.462603 V 35.80102 h -9.053303 v 4.358999 z" style="opacity:1;fill:#ffffff;fill-opacity:1;fill-rule:nonzero;stroke:none;stroke-width:2.68245" id="path9923" />
    <path d="m 96.590722,22.093651 c 0.418464,-0.836928 0.901307,-2.145969 1.464623,-3.937851 2.033305,0.616964 3.154575,0.984462 3.353075,1.089078 0.19046,0.08315 0.29507,0.209232 0.29507,0.375545 0,0.147529 -0.11534,0.295069 -0.33531,0.461383 -0.36749,0.230692 -0.86911,0.901306 -1.510222,2.011845 h 5.029612 v 2.72538 h -7.417002 c -0.06438,0.482842 -0.147528,0.912035 -0.25215,1.29831 h 5.531232 v 13.833446 h -3.353074 v -1.300994 h -6.746388 v 1.08908 H 89.38027 V 26.117341 h 4.401916 c 0.08315,-0.418464 0.144853,-0.847657 0.209232,-1.29831 h -6.330604 v -2.72538 h 4.485073 C 91.56111,21.31842 90.952192,20.575378 90.343273,19.872574 l 3.060687,-1.593382 c 0.753772,0.954957 1.467305,1.971609 2.137921,3.060687 l -1.885771,0.753772 z m -3.940534,7.54576 h 6.746388 v -1.08908 h -6.746388 z m 0,3.184079 h 6.746388 v -1.089078 h -6.746388 z m 6.746388,2.221077 h -6.746388 v 1.300994 h 6.746388 z M 87.494501,24.735873 83.97243,25.951027 c -0.418463,-1.614839 -1.215154,-3.489879 -2.387388,-5.617071 l 3.393311,-1.467305 c 0.944227,1.759695 1.783836,3.720572 2.516148,5.869222 z m 18.860379,15.214914 c -0.50162,1.056888 -0.87985,2.231806 -1.132,3.519387 -2.34715,0.02147 -4.4207,0.04291 -6.201849,0.04291 -5.029613,0 -8.33172,-0.168995 -9.892912,-0.504303 -1.571921,-0.335308 -2.639541,-0.796691 -3.226999,-1.381467 -0.281659,-0.31653 -0.490891,-0.461383 -0.627696,-0.461383 -0.147529,0 -0.295071,0.05096 -0.461382,0.166319 -0.147529,0.104616 -0.493574,0.461383 -1.048844,1.048841 -0.565998,0.606236 -0.995191,1.131999 -1.29831,1.550463 -1.089078,-1.08908 -2.033305,-2.127192 -2.808535,-3.100925 1.781153,-1.258073 2.851454,-1.971608 3.186762,-2.137919 0.335308,-0.187766 0.50162,-0.724265 0.50162,-1.593382 v -7.124613 h -3.227 v -3.186762 h 6.663231 v 9.557606 c 0,1.089078 0.262882,1.928689 0.79669,2.513464 0.525764,0.566 1.424387,0.933496 2.682462,1.131999 1.279533,0.219961 3.648145,0.335308 7.084376,0.335308 3.457686,0 6.464726,-0.126083 9.010386,-0.375545 z" style="opacity:1;fill:#ffffff;fill-opacity:1;fill-rule:nonzero;stroke:none;stroke-width:2.68245" id="path9925" />
    <path d="m 124.42707,18.448187 h 2.76829 c 0.41847,0 0.6277,0.08315 0.6277,0.252151 0,0.144853 -0.0322,0.281658 -0.0831,0.418464 -0.14747,0.418464 -0.20923,1.298312 -0.20923,2.63954 v 9.305455 c 0,5.678767 -1.8348,10.1853 -5.49099,13.538375 -0.73501,-0.533809 -1.82408,-1.131998 -3.26993,-1.802613 1.92869,-1.571921 3.35308,-3.310155 4.27583,-5.238844 0.92008,-1.950148 1.38148,-4.275841 1.38148,-6.958302 z m -9.47177,4.777462 h -2.84878 v -3.100925 h 9.09355 v 3.100925 h -3.01777 v 5.324682 h 2.18084 v 3.017768 h -2.18084 v 5.90946 l 3.31284,-0.922767 c 0,0.785962 0.094,1.781153 0.29238,2.974849 -3.33161,1.059571 -6.3923,2.108414 -9.17938,3.143842 l -1.21515,-3.688382 c 1.27685,-0.219961 2.47323,-0.461382 3.56231,-0.710851 v -6.706151 h -2.76562 v -3.017768 h 2.76562 z m 15.55021,0.08315 h -2.55639 v -3.017768 h 9.38862 v 3.017768 h -3.52208 v 5.576834 h 2.97753 v 3.184079 h -2.97753 v 7.502842 h 4.06662 v 2.974849 h -11.40046 v -2.974849 h 4.02369 v -7.50284 h -2.39007 v -3.184081 h 2.39007 z m -6.66323,0.839609 c 0.0509,4.085387 -0.16899,7.23996 -0.67061,9.471766 l -2.85144,-0.418463 c 0.43991,-2.011845 0.6706,-4.463614 0.6706,-7.376766 0,-0.608917 -0.0215,-1.225883 -0.0429,-1.845532 z" style="opacity:1;fill:#ffffff;fill-opacity:1;fill-rule:nonzero;stroke:none;stroke-width:2.68245" id="path9927" />
  </g>
</svg>
