<?xml version="1.0" encoding="UTF-8"?>
<svg xmlns="http://www.w3.org/2000/svg" xmlns:ns1="http://sodipodi.sourceforge.net/DTD/sodipodi-0.dtd" viewBox="0 0 200.5 117.75482" height="117.75481" width="200.5" id="svg1403" version="1.1">
  <defs id="defs1407" />
  <ns1:namedview showgrid="false" id="namedview1405" guidetolerance="10" gridtolerance="10" objecttolerance="10" borderopacity="1" bordercolor="#666666" pagecolor="#ffffff" />
  <g transform="translate(-4.455,-5.5577282)" id="g1411">
    <path style="color:#000000;font-style:normal;font-variant:normal;font-weight:normal;font-stretch:normal;font-size:medium;line-height:normal;font-family:sans-serif;font-variant-ligatures:normal;font-variant-position:normal;font-variant-caps:normal;font-variant-numeric:normal;font-variant-alternates:normal;font-variant-east-asian:normal;font-feature-settings:normal;font-variation-settings:normal;text-indent:0;text-align:start;text-decoration:none;text-decoration-line:none;text-decoration-style:solid;text-decoration-color:#000000;letter-spacing:normal;word-spacing:normal;text-transform:none;writing-mode:lr-tb;direction:ltr;text-orientation:mixed;dominant-baseline:auto;baseline-shift:baseline;text-anchor:start;white-space:normal;shape-padding:0;shape-margin:0;inline-size:0;clip-rule:nonzero;display:inline;overflow:visible;visibility:visible;opacity:1;isolation:auto;mix-blend-mode:normal;color-interpolation:sRGB;color-interpolation-filters:linearRGB;solid-color:#000000;solid-opacity:1;vector-effect:none;fill:#000000;fill-opacity:1;fill-rule:nonzero;stroke:none;stroke-width:3.09725;stroke-linecap:butt;stroke-linejoin:miter;stroke-miterlimit:4;stroke-dasharray:none;stroke-dashoffset:0;stroke-opacity:1;color-rendering:auto;image-rendering:auto;shape-rendering:auto;text-rendering:auto;enable-background:accumulate;stop-color:#000000;stop-opacity:1" d="m 16.75849,7.356401 h 175.89216 c 5.81971,0 10.50489,4.685172 10.50489,10.504882 v 93.148967 c 0,5.81971 -4.68518,10.50487 -10.50489,10.50487 H 16.75849 c -5.819702,0 -10.5048691,-4.68516 -10.5048691,-10.50487 V 17.861283 c 0,-5.81971 4.6851671,-10.504882 10.5048691,-10.504882 z" id="path81" />
    <path style="color:#000000;font-style:normal;font-variant:normal;font-weight:normal;font-stretch:normal;font-size:medium;line-height:normal;font-family:sans-serif;font-variant-ligatures:normal;font-variant-position:normal;font-variant-caps:normal;font-variant-numeric:normal;font-variant-alternates:normal;font-variant-east-asian:normal;font-feature-settings:normal;font-variation-settings:normal;text-indent:0;text-align:start;text-decoration:none;text-decoration-line:none;text-decoration-style:solid;text-decoration-color:#000000;letter-spacing:normal;word-spacing:normal;text-transform:none;writing-mode:lr-tb;direction:ltr;text-orientation:mixed;dominant-baseline:auto;baseline-shift:baseline;text-anchor:start;white-space:normal;shape-padding:0;shape-margin:0;inline-size:0;clip-rule:nonzero;display:inline;overflow:visible;visibility:visible;opacity:1;isolation:auto;mix-blend-mode:normal;color-interpolation:sRGB;color-interpolation-filters:linearRGB;solid-color:#000000;solid-opacity:1;vector-effect:none;fill:#ffff00;fill-opacity:1;fill-rule:nonzero;stroke:none;stroke-width:0.5;stroke-linecap:butt;stroke-linejoin:miter;stroke-miterlimit:4;stroke-dasharray:none;stroke-dashoffset:0;stroke-opacity:1;color-rendering:auto;image-rendering:auto;shape-rendering:auto;text-rendering:auto;enable-background:accumulate;stop-color:#000000;stop-opacity:1" d="M 16.757553,5.8077282 C 10.106697,5.8077282 4.705,11.209418 4.705,17.860283 v 93.149707 c 0,6.65085 5.401697,12.05255 12.052553,12.05255 H 192.64988 c 6.65085,0 12.05512,-5.4017 12.05512,-12.05255 V 17.860283 c 0,-6.650865 -5.40427,-12.0525548 -12.05512,-12.0525548 z m 0,3.0974614 H 192.64988 c 4.98855,0 8.95765,3.9665254 8.95767,8.9550934 v 93.149707 c 0,4.98854 -3.96912,8.95766 -8.95767,8.95767 H 16.757553 c -4.988558,0 -8.9550915,-3.96913 -8.9550915,-8.95767 V 17.860283 c 0,-4.988568 3.9665335,-8.9550934 8.9550915,-8.9550934 z" id="path83" />
    <path id="path75" style="color:#000000;font-style:normal;font-variant:normal;font-weight:normal;font-stretch:normal;font-size:medium;line-height:normal;font-family:sans-serif;font-variant-ligatures:normal;font-variant-position:normal;font-variant-caps:normal;font-variant-numeric:normal;font-variant-alternates:normal;font-variant-east-asian:normal;font-feature-settings:normal;font-variation-settings:normal;text-indent:0;text-align:start;text-decoration:none;text-decoration-line:none;text-decoration-style:solid;text-decoration-color:#000000;letter-spacing:normal;word-spacing:normal;text-transform:none;writing-mode:lr-tb;direction:ltr;text-orientation:mixed;dominant-baseline:auto;baseline-shift:baseline;text-anchor:start;white-space:normal;shape-padding:0;shape-margin:0;inline-size:0;clip-rule:nonzero;display:inline;overflow:visible;visibility:visible;opacity:1;isolation:auto;mix-blend-mode:normal;color-interpolation:sRGB;color-interpolation-filters:linearRGB;solid-color:#000000;solid-opacity:1;vector-effect:none;fill:#ffff00;fill-opacity:1;fill-rule:nonzero;stroke:none;stroke-width:3.09725;stroke-linecap:butt;stroke-linejoin:miter;stroke-miterlimit:4;stroke-dasharray:none;stroke-dashoffset:0;stroke-opacity:1;color-rendering:auto;image-rendering:auto;shape-rendering:auto;text-rendering:auto;enable-background:accumulate;stop-color:#000000;stop-opacity:1" d="m 16.752124,12.069723 c -3.196047,0 -5.770144,2.592426 -5.770144,5.800804 v 93.144553 c 0,3.19863 2.571526,5.77014 5.770144,5.77014 H 192.66042 c 3.19862,0 5.77014,-2.57151 5.77014,-5.77014 V 17.870527 c 0,-3.208378 -2.57411,-5.800804 -5.77014,-5.800804 z" />
    <path d="m 41.213498,47.511346 v 2.091463 h -4.07852 v -22.78751 h 4.538579 c 0.205556,-0.982111 0.420902,-2.192614 0.662352,-3.621728 2.140409,0.205558 3.494476,0.38175 4.078522,0.508999 0.613406,0.140286 0.916849,0.306704 0.916849,0.512261 0,0.176193 -0.140284,0.407854 -0.407851,0.711296 -0.241457,0.2806 -0.548153,0.907061 -0.916852,1.889172 h 7.595836 v 9.17504 H 41.213498 v 2.039259 h 13.103471 v 11.165359 h -4.231873 v -1.683611 z m 0,-14.731619 h 8.108103 v -2.600465 h -8.108103 z m 8.871598,11.521007 v -2.907172 h -8.871598 v 2.907172 z M 35.147923,31.350612 30.916047,32.828668 c -0.508998,-1.960951 -1.478056,-4.244926 -2.903905,-6.829076 l 4.07852,-1.784761 c 1.285551,2.42101 2.306813,4.789815 3.057261,7.135781 z m 22.229569,18.712255 c -0.548152,1.28555 -0.956006,2.662457 -1.223555,4.127463 -2.016423,0.0261 -3.876227,0.05219 -5.608783,0.05219 -7.481639,0 -12.160518,-0.241456 -14.020324,-0.714558 -1.872856,-0.482895 -3.096412,-1.017998 -3.670669,-1.631406 -0.345858,-0.342597 -0.613407,-0.509001 -0.815703,-0.509001 -0.205558,0 -0.587306,0.22839 -1.122411,0.714558 -0.548153,0.469853 -1.376906,1.337762 -2.496055,2.597209 -1.468268,-1.465005 -2.600463,-2.727716 -3.416169,-3.771815 1.386699,-0.995159 2.675511,-1.797813 3.872966,-2.447113 0.407851,-0.228388 0.688453,-0.508999 0.867908,-0.815707 0.166408,-0.306704 0.254501,-0.727607 0.254501,-1.272498 v -8.669302 h -4.43417 v -3.872965 h 8.666044 v 11.622153 c 0,1.057153 0.202303,1.977267 0.610144,2.75382 0.433956,0.750445 1.135462,1.262708 2.091466,1.53026 0.982108,0.306704 2.218716,0.509 3.722875,0.610146 1.491109,0.10442 3.846861,0.153355 7.083574,0.153355 3.262818,0 6.476692,-0.153355 9.638361,-0.456795 z" style="fill:#000000;fill-opacity:1;fill-rule:nonzero;stroke:none;stroke-width:3.26282;opacity:1" id="path1329" />
    <path d="m 82.552867,39.200951 c -2.039258,0.205557 -4.33302,0.40785 -6.881281,0.613407 -0.306704,-1.083254 -0.740658,-2.16651 -1.275761,-3.262816 6.385333,-0.12725 12.082211,-0.969057 17.080847,-2.499316 H 73.939031 c 0,6.49953 -0.280602,11.051161 -0.815704,13.664677 -0.512261,2.574363 -1.517209,4.99537 -3.008316,7.240188 -1.057154,-0.815701 -2.332917,-1.569414 -3.824023,-2.244818 1.249661,-1.833701 2.15346,-3.82402 2.701613,-5.964428 0.535104,-2.166513 0.815705,-5.507635 0.815705,-9.994009 V 25.232831 h 25.541333 v 8.819395 h -2.854967 c 1.288807,1.771709 2.000102,2.753817 2.140403,2.959373 0.127255,0.176191 0.205564,0.355647 0.205564,0.557942 0,0.205558 -0.306706,0.306704 -0.916849,0.306704 -0.854864,0 -2.091471,0.12725 -3.72288,0.358911 -1.605307,0.241457 -2.789709,0.394799 -3.56952,0.456794 v 1.683615 l 7.700248,-0.662353 0.303437,3.158407 -8.003685,0.76676 v 1.631411 l 10.147358,-0.815707 0.2545,3.26282 -10.401858,0.916848 v 1.376911 c 0,0.535103 0.06526,0.877699 0.205557,1.017999 0.166407,0.127249 0.469846,0.205558 0.916851,0.205558 h 5.200931 c 0.433948,0 0.724348,-0.153354 0.86464,-0.460058 0.166414,-0.303442 0.280613,-1.057152 0.358912,-2.241555 1.285557,0.584045 2.649413,1.017998 4.078522,1.324703 -0.241454,1.556362 -0.639515,2.76687 -1.174618,3.618465 -0.54815,0.841807 -1.566151,1.275761 -3.057253,1.275761 h -7.289134 c -1.631408,0 -2.740766,-0.241457 -3.31502,-0.714558 -0.587308,-0.443742 -0.867911,-1.399747 -0.867911,-2.854963 v -2.192613 l -8.613836,0.815702 -0.358908,-3.412907 8.972744,-0.714555 v -1.683615 l -7.236927,0.662353 -0.306703,-3.311758 7.54363,-0.662352 z m 8.463748,-8.460485 V 28.802354 H 73.939031 v 1.938112 z" style="fill:#000000;fill-opacity:1;fill-rule:nonzero;stroke:none;stroke-width:3.26282;opacity:1" id="path1331" />
    <path d="m 114.36181,35.275781 c -0.2806,0.241458 -0.89401,0.714558 -1.83696,1.429114 -1.11915,-0.98211 -2.31987,-1.836965 -3.56627,-2.54826 4.48637,-2.613517 7.77203,-6.323339 9.88961,-11.116417 3.02136,0.649301 4.63971,1.008212 4.84202,1.070203 0.20555,0.07831 0.30669,0.205558 0.30669,0.407854 0,0.179446 -0.19251,0.407852 -0.5612,0.714556 -0.38175,0.280604 -0.7635,0.6493 -1.17134,1.122409 h 12.74455 l -3.61846,5.912225 h 8.5649 v 3.569521 h -21.36166 v 5.099781 c 0,3.70656 -0.3948,6.574579 -1.17462,8.613837 -0.7896,2.065363 -2.01315,4.052419 -3.67067,5.964429 -1.6053,-0.91685 -2.99526,-1.618356 -4.17967,-2.088202 1.65751,-1.429114 2.86802,-3.148619 3.61846,-5.148724 0.77981,-2.003372 1.17462,-4.639728 1.17462,-7.902542 z m 5.50437,-5.556579 c -0.68846,0.894014 -1.37691,1.732558 -2.08819,2.548263 h 8.86833 l 1.83696,-2.548263 z m 20.64711,18.862346 c -0.24146,1.696664 -0.54816,2.972428 -0.91685,3.824021 -0.38176,0.880961 -0.86465,1.491108 -1.47806,1.836965 -0.58731,0.329547 -1.37691,0.509001 -2.3949,0.509001 h -10.55522 c -1.87286,0 -3.14862,-0.241457 -3.82402,-0.714558 -0.6493,-0.482896 -0.96579,-1.65751 -0.96579,-3.517316 V 37.775099 h 15.80181 l -0.35564,6.626781 c -0.0751,1.26271 -0.28061,2.192613 -0.61341,2.806024 -0.34259,0.584042 -1.01799,1.004945 -2.03925,1.272498 -1.01801,0.241457 -2.63636,0.345857 -4.84203,0.306704 -0.10115,-1.556365 -0.509,-2.92022 -1.22355,-4.078522 1.53025,0.179445 2.56131,0.254499 3.10946,0.254499 0.57425,0 0.9299,-0.05219 1.0702,-0.153354 0.16641,-0.12725 0.26755,-0.381751 0.30671,-0.763501 l 0.10114,-2.753815 h -6.98242 v 8.209247 c 0,0.610146 0.10114,0.991896 0.30343,1.171352 0.20557,0.166409 0.57426,0.2545 1.12241,0.2545 h 8.61709 c 0.43396,0 0.72435,-0.228389 0.86466,-0.662353 0.13051,-0.407852 0.26754,-1.425851 0.40785,-3.057261 1.42911,0.685195 2.92022,1.145251 4.48637,1.373649 z" style="fill:#000000;fill-opacity:1;fill-rule:nonzero;stroke:none;stroke-width:3.26282;opacity:1" id="path1333" />
    <path d="m 165.08178,37.161688 c -0.75372,0.548153 -1.32798,0.969056 -1.73582,1.275763 -0.81571,-0.942956 -1.73255,-1.784763 -2.75055,-2.49932 0,0.03916 -0.0262,0.104422 -0.0522,0.205559 -0.0392,0.07507 -0.0522,0.101144 -0.0522,0.101144 1.89896,2.753819 2.85497,5.135673 2.85497,7.139045 0,1.631406 -0.40786,2.877805 -1.22355,3.719612 -0.78962,0.854856 -2.02622,1.465004 -3.71962,1.836965 -0.30673,-1.148514 -0.85489,-2.270919 -1.63144,-3.363965 v 9.380598 h -3.97736 V 25.030535 h 11.21756 c -0.85488,4.052419 -1.88915,7.481641 -3.11272,10.297451 2.16651,-1.249657 3.87623,-2.779921 5.09978,-4.58752 1.24964,-1.797812 2.3068,-4.297129 3.16168,-7.494691 1.01799,0.176191 2.03925,0.38175 3.05724,0.610147 1.02126,0.241454 1.58248,0.407852 1.68362,0.512264 0.10107,0.07507 0.15344,0.189234 0.15344,0.355645 0,0.140285 -0.0913,0.293656 -0.2545,0.460057 -0.17937,0.176191 -0.30671,0.329547 -0.40784,0.456796 1.8337,4.486373 5.09651,7.595838 9.78844,9.331656 -1.2627,1.605306 -2.21871,2.930009 -2.85496,3.974111 -1.02129,-0.574256 -2.03928,-1.23661 -3.06053,-1.987056 v 1.833702 h -12.18337 z m -8.31039,-0.965792 c 0.77654,-1.863068 1.59226,-4.349334 2.4471,-7.44575 h -2.4471 z m 14.47711,-6.476694 c -1.11914,2.244821 -2.3688,4.029581 -3.71961,5.354284 h 7.4947 c -1.50416,-1.491106 -2.75384,-3.275866 -3.77509,-5.354284 z m -14.47711,15.041589 c 0.91685,0.03589 1.57918,-0.06526 1.98705,-0.306708 0.43395,-0.267549 0.66236,-0.688452 0.66236,-1.27576 0,-1.083257 -0.89075,-3.109466 -2.64941,-6.065576 z m 16.72192,2.649405 -3.2628,0.867911 c -0.48617,-2.982216 -1.14852,-5.762137 -1.99032,-8.310396 l 3.87623,-0.916851 c 0.61014,2.075151 1.14525,4.522263 1.63139,7.341336 0.509,-1.836964 0.99517,-4.143775 1.47806,-6.933484 l 3.92516,0.965794 c 0.50901,0.140285 0.76677,0.332807 0.76677,0.561204 0,0.205558 -0.13041,0.460057 -0.3589,0.766761 -0.44702,0.548154 -0.90379,1.566151 -1.37692,3.05726 l -1.93482,5.608785 h 5.35099 v 3.771814 h -20.80046 v -3.771814 h 11.72656 c 0.32956,-0.942957 0.66238,-1.951168 0.96906,-3.00832 z m -6.52562,-7.086838 c 0.91683,3.096415 1.5792,5.850232 1.98707,8.25819 l -3.61848,1.021261 c -0.61342,-3.328074 -1.35081,-6.065575 -2.19261,-8.209247 z" style="fill:#000000;fill-opacity:1;fill-rule:nonzero;stroke:none;stroke-width:3.26282;opacity:1" id="path1335" />
    <path d="m 51.175856,89.663046 c -0.313951,0.469673 -0.80624,1.12772 -1.451725,1.96158 -0.658038,-0.992093 -1.403997,-1.856092 -2.237864,-2.58949 2.639714,-3.034047 4.39534,-7.025027 5.25935,-11.970423 0.803731,0.216 1.607432,0.452092 2.3936,0.705766 0.783623,0.236094 1.225652,0.391816 1.33366,0.472186 0.09797,0.07786 0.158237,0.195908 0.158237,0.35163 0,0.138133 -0.13807,0.374233 -0.394331,0.708279 -0.233585,0.313955 -0.469671,0.763535 -0.705758,1.333674 -0.216008,0.550048 -0.627931,1.715444 -1.255826,3.491165 v 13.22624 c 2.373493,-1.589859 4.179363,-3.511256 5.415087,-5.769213 h -4.591278 v -2.825582 h 6.555356 v -1.883721 h -4.671636 v -8.47675 h 12.638531 v 8.47675 h -4.78968 v 1.883721 h 6.829113 v 2.825582 h -5.415065 c 1.303538,2.149956 3.383173,3.865398 6.238895,5.14131 -0.999637,0.992088 -1.873684,2.001765 -2.629679,3.021486 -2.305678,-1.677774 -3.983454,-3.38568 -5.023264,-5.141302 v 6.751256 h -3.177215 v -7.220935 c -0.766045,1.705391 -2.345864,3.57154 -4.749485,5.610981 -0.627909,-0.735915 -1.512013,-1.431627 -2.62968,-2.079627 v 3.767441 H 51.175856 Z M 66.167755,84.24546 v -2.981304 h -5.927432 v 2.981304 z" style="fill:#000000;fill-opacity:1;fill-rule:nonzero;stroke:none;stroke-width:2.51163;opacity:1" id="path1337" />
    <path d="m 90.877122,83.107692 h -4.475728 v -2.66735 h 4.475728 v -3.179723 h 3.099366 c 0.236079,0 0.391814,0.03014 0.472165,0.07786 0.07777,0.03014 0.115528,0.08038 0.115528,0.158233 0,0.07786 -0.03767,0.226046 -0.115528,0.432002 -0.215978,0.607813 -0.313936,1.441673 -0.313936,2.511628 h 5.219146 v 2.66735 h -5.219146 v 2.511629 h 6.866783 v 2.669861 h -3.727255 v 2.157491 h 3.021485 v 2.785394 h -3.021485 v 5.299537 c 0,0.756004 -0.138078,1.333668 -0.394317,1.725486 -0.263736,0.39434 -0.763529,0.68819 -1.48941,0.90419 -0.735893,0.23359 -1.846039,0.40186 -3.337951,0.50986 -0.107869,-1.31609 -0.469665,-2.463912 -1.097566,-3.453492 1.097566,0.09795 1.843518,0.155733 2.237856,0.155733 0.391822,0 0.635443,-0.05777 0.743422,-0.155733 0.09797,-0.107984 0.158237,-0.313956 0.158237,-0.627903 v -4.357678 h -4.081375 c 0.675615,1.130233 1.343711,2.413678 2.001748,3.847813 l -3.021487,1.175445 c -0.296366,-1.097583 -0.904174,-2.441304 -1.846048,-4.041211 l 2.197684,-0.982047 h -4.119074 v -2.785394 h 8.868552 v -2.157491 h -8.554601 c 0.07776,0.499817 0.216008,1.039815 0.432002,1.607445 -1.785777,0.921766 -2.727637,1.404 -2.825588,1.451721 v 6.359445 c 0,1.381397 -0.394316,2.323257 -1.177953,2.825577 -0.786124,0.48977 -1.944007,0.8615 -3.453474,1.09758 -0.158237,-1.3638 -0.550059,-2.511628 -1.177976,-3.453487 0.884119,0.128091 1.491913,0.195909 1.805871,0.195909 0.334051,0 0.567622,-0.05777 0.70578,-0.155733 0.128072,-0.107984 0.195908,-0.354132 0.195908,-0.74595 v -4.395342 c -0.766053,0.452094 -1.509511,0.90168 -2.23537,1.373861 l -1.491898,-3.297767 c 1.303532,-0.469676 2.549292,-0.951908 3.727268,-1.451722 v -4.433025 h -3.099373 v -2.787909 h 3.099373 v -5.023259 h 2.669843 c 0.489773,0 0.745967,0.118048 0.745967,0.35414 0,0.07786 -0.03007,0.195908 -0.08042,0.351629 -0.155772,0.472185 -0.233577,1.218139 -0.233577,2.237861 v 2.079629 h 2.393585 v 2.787909 H 83.1463 v 3.099349 l 1.411531,-0.705769 v -2.041953 h 6.319268 z" style="fill:#000000;fill-opacity:1;fill-rule:nonzero;stroke:none;stroke-width:2.51163;opacity:1" id="path1339" />
    <path d="m 111.14153,83.107692 h -5.68884 v -2.903443 h 7.06271 c 0.47218,-1.069954 0.9042,-2.207721 1.29601,-3.413305 0.98958,0.233582 1.88372,0.459629 2.66735,0.665582 0.80624,0.216 1.2558,0.344095 1.33618,0.391815 0.098,0.06026 0.15578,0.158232 0.15578,0.313954 0,0.138134 -0.15578,0.334044 -0.46967,0.590231 -0.29639,0.236094 -0.64799,0.72586 -1.05992,1.451723 h 10.43832 v 2.903443 h -12.04826 c -0.864,1.522047 -1.88374,3.05163 -3.06167,4.591257 h 3.92567 v -3.531348 h 2.98131 c 0.6279,0 0.94185,0.148191 0.94185,0.431998 0,0.138134 -0.0678,0.334047 -0.19591,0.587723 -0.13561,0.26623 -0.1959,1.100093 -0.1959,2.511627 h 6.4373 v 2.905957 h -6.4373 v 2.825583 h 8.8309 v 2.785396 h -8.8309 v 5.259345 h -3.53135 v -5.259345 h -11.14663 v -2.785396 h 11.14663 v -2.825583 c -3.66949,0 -6.39713,0.155726 -8.20298,0.469676 -0.26374,-1.097585 -0.46967,-2.177584 -0.62792,-3.257585 0.88409,-0.283815 1.63005,-0.766047 2.23786,-1.451722 0.62791,-0.67814 1.30353,-1.765676 2.03944,-3.257583 z" style="fill:#000000;fill-opacity:1;fill-rule:nonzero;stroke:none;stroke-width:2.51163;opacity:1" id="path1341" />
    <path d="m 140.24491,89.818764 h 2.62968 v 2.669865 h -2.62968 v 3.059168 c 1.62,-0.469683 2.55181,-0.756006 2.78792,-0.861498 0,0.841401 0.12806,1.705398 0.39181,2.589492 -4.34513,1.431627 -7.72076,2.639721 -10.12439,3.609209 l -1.25582,-3.217391 c 0.33406,-0.07782 0.86402,-0.195909 1.56977,-0.354151 v -8.790695 h 2.39359 c 0.44205,0 0.6681,0.11805 0.6681,0.35414 0,0.107988 -0.0402,0.236095 -0.11817,0.391815 -0.15823,0.313953 -0.23609,1.127722 -0.23609,2.433766 v 4.945395 c 0.48977,-0.128091 0.864,-0.215997 1.09759,-0.276279 v -9.300556 h -3.56904 v -8.672657 h 8.98669 v 8.672657 h -2.59201 z m -0.35163,-5.219165 v -3.649396 h -3.13953 v 3.649396 z m 6.82911,0.195907 h 8.08245 v 9.144841 h -8.08245 v 3.687077 h 9.57434 v 2.905946 H 143.6984 V 78.712342 h 12.04828 v 2.903442 h -9.02429 z m 0,6.319262 h 4.94289 V 87.62109 h -4.94289 z" style="fill:#000000;fill-opacity:1;fill-rule:nonzero;stroke:none;stroke-width:2.51163;opacity:1" id="path1343" />
  </g>
</svg>
