<?xml version="1.0" encoding="UTF-8"?>
<svg xmlns="http://www.w3.org/2000/svg" xmlns:ns1="http://sodipodi.sourceforge.net/DTD/sodipodi-0.dtd" viewBox="0 0 155.64417 94.436829" height="94.436829" width="155.64417" id="svg10" version="1.1">
  <defs id="defs14" />
  <ns1:namedview showgrid="false" id="namedview12" guidetolerance="10" gridtolerance="10" objecttolerance="10" borderopacity="1" bordercolor="#666666" pagecolor="#ffffff" />
  <g transform="translate(-59.775699,57.950274)" id="g18">
    <path style="color:#000000;font-style:normal;font-variant:normal;font-weight:normal;font-stretch:normal;font-size:medium;line-height:normal;font-family:sans-serif;font-variant-ligatures:normal;font-variant-position:normal;font-variant-caps:normal;font-variant-numeric:normal;font-variant-alternates:normal;font-variant-east-asian:normal;font-feature-settings:normal;font-variation-settings:normal;text-indent:0;text-align:start;text-decoration:none;text-decoration-line:none;text-decoration-style:solid;text-decoration-color:#000000;letter-spacing:normal;word-spacing:normal;text-transform:none;writing-mode:lr-tb;direction:ltr;text-orientation:mixed;dominant-baseline:auto;baseline-shift:baseline;text-anchor:start;white-space:normal;shape-padding:0;shape-margin:0;inline-size:0;clip-rule:nonzero;display:inline;overflow:visible;visibility:visible;opacity:1;isolation:auto;mix-blend-mode:normal;color-interpolation:sRGB;color-interpolation-filters:linearRGB;solid-color:#000000;solid-opacity:1;vector-effect:none;fill:#ffffff;fill-opacity:1;fill-rule:nonzero;stroke:none;stroke-width:2.31349;stroke-linecap:butt;stroke-linejoin:miter;stroke-miterlimit:4;stroke-dasharray:none;stroke-dashoffset:0;stroke-opacity:1;color-rendering:auto;image-rendering:auto;shape-rendering:auto;text-rendering:auto;enable-background:accumulate;stop-color:#000000;stop-opacity:1" d="m 69.029809,-56.543852 c -4.34703,0 -7.847688,3.500657 -7.847688,7.847687 v 75.928608 c 0,4.34703 3.500658,7.847687 7.847688,7.847687 H 206.16576 c 4.34703,0 7.84769,-3.500657 7.84769,-7.847687 v -75.928608 c 0,-4.34703 -3.50066,-7.847687 -7.84769,-7.847687 z" id="path11391" />
    <path style="color:#000000;font-style:normal;font-variant:normal;font-weight:normal;font-stretch:normal;font-size:medium;line-height:normal;font-family:sans-serif;font-variant-ligatures:normal;font-variant-position:normal;font-variant-caps:normal;font-variant-numeric:normal;font-variant-alternates:normal;font-variant-east-asian:normal;font-feature-settings:normal;font-variation-settings:normal;text-indent:0;text-align:start;text-decoration:none;text-decoration-line:none;text-decoration-style:solid;text-decoration-color:#000000;letter-spacing:normal;word-spacing:normal;text-transform:none;writing-mode:lr-tb;direction:ltr;text-orientation:mixed;dominant-baseline:auto;baseline-shift:baseline;text-anchor:start;white-space:normal;shape-padding:0;shape-margin:0;inline-size:0;clip-rule:nonzero;display:inline;overflow:visible;visibility:visible;opacity:1;isolation:auto;mix-blend-mode:normal;color-interpolation:sRGB;color-interpolation-filters:linearRGB;solid-color:#000000;solid-opacity:1;vector-effect:none;fill:#244a38;fill-opacity:1;fill-rule:nonzero;stroke:none;stroke-width:0.5;stroke-linecap:butt;stroke-linejoin:miter;stroke-miterlimit:4;stroke-dasharray:none;stroke-dashoffset:0;stroke-opacity:1;color-rendering:auto;image-rendering:auto;shape-rendering:auto;text-rendering:auto;enable-background:accumulate;stop-color:#000000;stop-opacity:1" d="m 69.029809,-57.700274 c -4.968044,0 -9.00411,4.036065 -9.00411,9.004109 v 75.928608 c 0,4.968045 4.036066,9.004109 9.00411,9.004109 H 206.16576 c 4.96805,0 9.00411,-4.036065 9.00411,-9.004109 v -75.928608 c 0,-4.968044 -4.03606,-9.004109 -9.00411,-9.004109 z m 0,2.312844 H 206.16576 c 3.72603,0 6.69126,2.965249 6.69126,6.691265 v 75.928608 c 0,3.726016 -2.96523,6.691265 -6.69126,6.691265 H 69.029809 c -3.726015,0 -6.691266,-2.965249 -6.691266,-6.691265 v -75.928608 c 0,-3.726015 2.965252,-6.691265 6.691266,-6.691265 z" id="path11393" />
    <path id="path11374" style="color:#000000;font-style:normal;font-variant:normal;font-weight:normal;font-stretch:normal;font-size:medium;line-height:normal;font-family:sans-serif;font-variant-ligatures:normal;font-variant-position:normal;font-variant-caps:normal;font-variant-numeric:normal;font-variant-alternates:normal;font-variant-east-asian:normal;font-feature-settings:normal;font-variation-settings:normal;text-indent:0;text-align:start;text-decoration:none;text-decoration-line:none;text-decoration-style:solid;text-decoration-color:#000000;letter-spacing:normal;word-spacing:normal;text-transform:none;writing-mode:lr-tb;direction:ltr;text-orientation:mixed;dominant-baseline:auto;baseline-shift:baseline;text-anchor:start;white-space:normal;shape-padding:0;shape-margin:0;inline-size:0;clip-rule:nonzero;display:inline;overflow:visible;visibility:visible;opacity:1;isolation:auto;mix-blend-mode:normal;color-interpolation:sRGB;color-interpolation-filters:linearRGB;solid-color:#000000;solid-opacity:1;vector-effect:none;fill:#244a38;fill-opacity:1;fill-rule:nonzero;stroke:none;stroke-width:2.31349;stroke-linecap:butt;stroke-linejoin:miter;stroke-miterlimit:4;stroke-dasharray:none;stroke-dashoffset:0;stroke-opacity:1;color-rendering:auto;image-rendering:auto;shape-rendering:auto;text-rendering:auto;enable-background:accumulate;stop-color:#000000;stop-opacity:1" d="m 69.025286,-53.023324 c -2.387245,0 -4.309068,1.936824 -4.309068,4.333191 v 75.9271 c 0,2.389085 1.919983,4.309066 4.309068,4.309066 H 206.1733 c 2.38909,0 4.30907,-1.91998 4.30907,-4.309066 v -75.9271 c 0,-2.396368 -1.92182,-4.333191 -4.30907,-4.333191 z" />
    <path style="opacity:1;fill:#ffffff;fill-opacity:1;fill-rule:nonzero;stroke:none;stroke-width:2.84618" d="m 85.95963,-37.630666 -0.978376,0.17788 v 22.102438 H 81.912708 V -37.00807 c -0.478072,0.0333 -0.822727,0.0666 -1.022849,0.0888 v 7.693614 c 0,6.759696 -0.833844,11.696038 -2.490413,14.809055 -0.922788,-0.800491 -1.867811,-1.467551 -2.846189,-2.001211 0.822725,-1.689924 1.400858,-3.524377 1.734396,-5.514488 0.32242,-2.01234 0.489189,-4.936371 0.489189,-8.760934 v -8.716451 c 4.235927,-0.20008 7.782543,-1.045062 10.628732,-2.534871 l 2.045697,2.712759 v -0.489174 h 11.784999 v 11.562636 h -8.760935 v 3.246419 c 0,0.65596 0.355774,0.978376 1.06732,0.978376 h 4.491653 c 0.26669,0 0.455819,-0.0444 0.578119,-0.133479 0.144579,-0.111279 0.244486,-0.366902 0.311316,-0.756032 0.0888,-0.378002 0.144577,-0.989477 0.177877,-1.823325 1.12291,0.600374 2.26805,1.000606 3.42431,1.200721 -0.21118,1.456452 -0.46695,2.512672 -0.75601,3.157504 -0.26668,0.655961 -0.66708,1.100677 -1.20074,1.334151 -0.51141,0.21118 -1.27857,0.311286 -2.312534,0.311286 h -5.425537 c -1.222963,0 -2.090161,-0.266687 -2.623821,-0.80049 -0.511424,-0.53366 -0.756017,-1.489779 -0.756017,-2.890645 v -13.964107 c -0.422482,-0.02278 -0.933906,0 -1.55651,0.0888 -0.03336,1.245208 -0.04449,2.979589 -0.04449,5.203173 0,2.201355 0.100072,4.180338 0.311303,5.959204 0.233472,1.756638 0.589249,3.201961 1.067321,4.358225 0.46695,1.134035 1.378621,2.001239 2.712771,2.623843 1.334142,0.622604 3.046323,1.045092 5.158705,1.289664 2.101279,0.233387 4.024709,0.355775 5.781319,0.355775 -0.86718,1.356406 -1.46755,2.679428 -1.82333,3.957993 -2.757238,-0.333544 -5.047537,-0.711546 -6.848634,-1.156265 -1.812224,-0.422488 -3.246438,-0.92279 -4.313756,-1.512036 -1.067321,-0.600374 -1.867811,-1.245206 -2.401471,-1.956755 -0.511426,-0.711546 -0.978378,-1.745508 -1.423094,-3.113017 -0.444716,-1.356378 -0.75602,-2.823958 -0.933906,-4.402709 -0.155658,-1.567624 -0.222372,-3.402077 -0.222372,-5.51449 0,-2.101282 0.0111,-3.935735 0.04449,-5.514487 z m 8.805399,6.626296 v -5.825805 h -1.156264 v 5.825805 z m 4.224793,0 v -5.825805 h -1.245206 v 5.825805 z m 0,0" id="path91" />
    <path style="opacity:1;fill:#ffffff;fill-opacity:1;fill-rule:nonzero;stroke:none;stroke-width:2.84618" d="m 125.90441,-37.897496 v -3.957965 h 3.06856 c 0.53366,0 0.80049,0.0888 0.80049,0.266689 0,0.17788 -0.0666,0.38913 -0.17788,0.622602 -0.17788,0.53366 -0.26668,1.556495 -0.26668,3.068533 h 6.89309 l -1.55649,6.492864 -3.37985,-0.444716 0.756,-3.024075 h -2.71275 v 4.580597 h 5.06977 c -0.80049,4.269282 -2.07906,7.537959 -3.82457,9.783769 1.56763,1.278565 3.62442,2.223585 6.18155,2.846189 -0.97838,1.067321 -1.86781,2.223583 -2.6683,3.468791 -2.37924,-1.222978 -4.30264,-2.490414 -5.78132,-3.824565 -1.54539,1.334151 -3.57996,2.579357 -6.0926,3.735621 -0.51143,-0.92279 -1.23411,-1.812224 -2.17913,-2.668301 -0.47807,0.978377 -1.05619,1.923397 -1.73438,2.846187 -1.04509,-0.744904 -2.13464,-1.400864 -3.2909,-1.956752 1.71215,-1.600981 2.90177,-3.657807 3.55773,-6.181578 -3.68004,1.634336 -6.51512,3.024073 -8.49411,4.180337 l -1.73438,-3.691135 c 1.17849,-0.322416 2.51264,-0.756032 4.00245,-1.289692 v -7.871473 h -3.33539 v -3.246447 h 3.33539 v -6.893096 h 3.06853 c 0.44472,0 0.66709,0.122379 0.66709,0.355772 0,0.244489 -0.0666,0.567018 -0.17788,0.978379 -0.12238,0.422488 -0.17788,1.011734 -0.17788,1.778866 v 3.780079 h 2.97959 v 3.246447 h -2.97959 v 6.581808 c 1.24521,-0.555888 2.19023,-0.989506 2.84619,-1.289692 0.0228,0.92279 0.10018,1.71218 0.22229,2.357013 0.28905,-1.534267 0.44471,-3.346491 0.44471,-5.425546 v -9.205651 z m 0,7.604672 v -4.580597 h -3.37985 v 4.580597 z m 2.44596,7.337813 c 0.73377,-1.178493 1.33415,-2.646043 1.77887,-4.402682 h -3.51328 c 0.35577,1.723281 0.93392,3.190833 1.73441,4.402682 z m -5.82581,-4.402682 c -0.12237,3.768979 -0.8672,7.059882 -2.22358,9.872713 2.40147,-0.622604 4.35823,-1.60098 5.87026,-2.935131 -1.33415,-1.86781 -2.25694,-4.180337 -2.75724,-6.937582 z m 0,0" id="path93" />
    <path style="opacity:1;fill:#ffffff;fill-opacity:1;fill-rule:nonzero;stroke:none;stroke-width:2.84618" d="m 147.62736,-35.095765 h -6.44841 v -3.290905 h 8.0049 c 0.53366,-1.211848 1.02286,-2.501543 1.46758,-3.869049 1.12291,0.266687 2.13464,0.52256 3.02407,0.756032 0.91167,0.244487 1.4231,0.38913 1.51204,0.444716 0.11128,0.0666 0.17788,0.17788 0.17788,0.355774 0,0.15568 -0.17788,0.378002 -0.53366,0.667061 -0.33355,0.266689 -0.73378,0.822748 -1.20075,1.645466 h 11.82948 v 3.290905 h -13.6528 c -0.97838,1.72328 -2.13465,3.457663 -3.4688,5.203172 h 4.44717 v -4.002452 h 3.37985 c 0.71155,0 1.06733,0.16678 1.06733,0.489205 0,0.155679 -0.0777,0.378002 -0.22229,0.66706 -0.15568,0.300188 -0.22229,1.245206 -0.22229,2.846187 h 7.29337 v 3.290905 h -7.29337 v 3.201961 h 10.00611 v 3.157502 h -10.00611 v 5.959206 h -4.00246 v -5.959206 h -12.62994 v -3.157502 h 12.62995 v -3.201961 c -4.15811,0 -7.24889,0.177879 -9.29459,0.53366 -0.30019,-1.245207 -0.53366,-2.468157 -0.71155,-3.691135 1.00064,-0.322417 1.84558,-0.867205 2.5349,-1.645467 0.71155,-0.767132 1.47868,-2.00121 2.31253,-3.691135 z m 0,0" id="path95" />
    <path style="opacity:1;fill:#ffffff;fill-opacity:1;fill-rule:nonzero;stroke:none;stroke-width:2.84618" d="m 190.71882,-37.897496 c 0.44471,-0.889432 0.95611,-2.279168 1.5565,-4.180337 2.15686,0.65596 3.34647,1.045092 3.55772,1.156264 0.20001,0.0888 0.31131,0.222287 0.31131,0.400258 0,0.15568 -0.12231,0.311289 -0.35576,0.489175 -0.38914,0.244489 -0.9228,0.956148 -1.60098,2.13464 h 5.3366 v 2.890675 h -7.8715 c -0.0666,0.51143 -0.15562,0.967248 -0.26668,1.378607 h 5.87026 v 14.675654 h -3.55774 v -1.378609 h -7.15993 v 1.156265 h -3.46879 v -14.45331 h 4.6695 c 0.0888,-0.444717 0.15562,-0.900533 0.2223,-1.378607 h -6.71523 v -2.890675 h 4.75847 c -0.62261,-0.822718 -1.26746,-1.61208 -1.91229,-2.356985 l 3.24644,-1.689922 c 0.80049,1.011734 1.5565,2.090155 2.26804,3.246417 l -2.00121,0.80049 z m -4.18035,8.004903 h 7.15993 v -1.156263 h -7.15993 z m 0,3.379849 h 7.15993 v -1.156265 h -7.15993 z m 7.15993,2.357012 h -7.15993 v 1.378609 h 7.15993 z m -12.62995,-10.940033 -3.73562,1.289664 c -0.44473,-1.712152 -1.28966,-3.702263 -2.53488,-5.959205 l 3.6022,-1.556495 c 1.00059,1.867811 1.89003,3.946865 2.6683,6.226036 z m 20.01226,16.143205 c -0.53366,1.122906 -0.93391,2.368113 -1.20074,3.735621 -2.4904,0.02278 -4.69177,0.0444 -6.5818,0.0444 -5.3366,0 -8.83875,-0.17788 -10.49532,-0.533661 -1.66769,-0.355774 -2.80172,-0.844976 -3.42433,-1.46758 -0.30019,-0.333516 -0.52254,-0.489174 -0.66705,-0.489174 -0.15562,0 -0.31132,0.0555 -0.48922,0.177879 -0.15561,0.111279 -0.52252,0.489175 -1.11176,1.111777 -0.60039,0.644862 -1.05622,1.20075 -1.37864,1.645466 -1.15627,-1.156262 -2.15688,-2.25694 -2.97959,-3.290903 1.89003,-1.33415 3.02408,-2.090184 3.37984,-2.26807 0.35578,-0.20008 0.53366,-0.767133 0.53366,-1.689923 v -7.560178 h -3.42433 v -3.379846 h 7.07102 v 10.139543 c 0,1.156263 0.27806,2.045697 0.84493,2.668299 0.55591,0.600376 1.51205,0.989506 2.8462,1.20075 1.35638,0.233387 3.86904,0.355775 7.51573,0.355775 3.66889,0 6.85973,-0.133479 9.5614,-0.40026 z m 0,0" id="path97" />
    <path d="m 133.58129,-2.9733546 v 10.330609 l -10.32866,-9.981641 v 9.646317 L 137.59929,22.191289 151.94595,7.0219304 v -9.646317 l -10.3306,9.981641 v -10.330609 z" style="opacity:1;fill:#ffffff;fill-rule:evenodd;stroke-width:0.998164" id="rect22-3" />
  </g>
</svg>
