<?xml version="1.0" encoding="UTF-8"?>
<svg xmlns="http://www.w3.org/2000/svg" xmlns:ns1="http://sodipodi.sourceforge.net/DTD/sodipodi-0.dtd" viewBox="0 0 196.66284 106.65995" height="106.65995" width="196.66284" id="svg1322" version="1.1">
  <defs id="defs1326" />
  <ns1:namedview showgrid="false" id="namedview1324" guidetolerance="10" gridtolerance="10" objecttolerance="10" borderopacity="1" bordercolor="#666666" pagecolor="#ffffff" />
  <g transform="translate(-5.114,-4.9597927)" id="g1330">
    <path style="color:#000000;font-style:normal;font-variant:normal;font-weight:normal;font-stretch:normal;font-size:medium;line-height:normal;font-family:sans-serif;font-variant-ligatures:normal;font-variant-position:normal;font-variant-caps:normal;font-variant-numeric:normal;font-variant-alternates:normal;font-variant-east-asian:normal;font-feature-settings:normal;font-variation-settings:normal;text-indent:0;text-align:start;text-decoration:none;text-decoration-line:none;text-decoration-style:solid;text-decoration-color:#000000;letter-spacing:normal;word-spacing:normal;text-transform:none;writing-mode:lr-tb;direction:ltr;text-orientation:mixed;dominant-baseline:auto;baseline-shift:baseline;text-anchor:start;white-space:normal;shape-padding:0;shape-margin:0;inline-size:0;clip-rule:nonzero;display:inline;overflow:visible;visibility:visible;opacity:1;isolation:auto;mix-blend-mode:normal;color-interpolation:sRGB;color-interpolation-filters:linearRGB;solid-color:#000000;solid-opacity:1;vector-effect:none;fill:#ffffff;fill-opacity:1;fill-rule:nonzero;stroke:none;stroke-width:3.47781;stroke-linecap:butt;stroke-linejoin:miter;stroke-miterlimit:4;stroke-dasharray:none;stroke-dashoffset:0;stroke-opacity:1;color-rendering:auto;image-rendering:auto;shape-rendering:auto;text-rendering:auto;enable-background:accumulate;stop-color:#000000;stop-opacity:1" d="M 18.648537,6.6987549 H 188.24134 c 6.53479,0 11.79564,5.2608521 11.79564,11.7956461 V 98.08656 c 0,6.53479 -5.26085,11.79564 -11.79564,11.79564 H 18.648537 c -6.534783,0 -11.7956339,-5.26085 -11.7956339,-11.79564 V 18.494401 c 0,-6.534794 5.2608509,-11.7956461 11.7956339,-11.7956461 z" id="path81" />
    <path style="color:#000000;font-style:normal;font-variant:normal;font-weight:normal;font-stretch:normal;font-size:medium;line-height:normal;font-family:sans-serif;font-variant-ligatures:normal;font-variant-position:normal;font-variant-caps:normal;font-variant-numeric:normal;font-variant-alternates:normal;font-variant-east-asian:normal;font-feature-settings:normal;font-variation-settings:normal;text-indent:0;text-align:start;text-decoration:none;text-decoration-line:none;text-decoration-style:solid;text-decoration-color:#000000;letter-spacing:normal;word-spacing:normal;text-transform:none;writing-mode:lr-tb;direction:ltr;text-orientation:mixed;dominant-baseline:auto;baseline-shift:baseline;text-anchor:start;white-space:normal;shape-padding:0;shape-margin:0;inline-size:0;clip-rule:nonzero;display:inline;overflow:visible;visibility:visible;opacity:1;isolation:auto;mix-blend-mode:normal;color-interpolation:sRGB;color-interpolation-filters:linearRGB;solid-color:#000000;solid-opacity:1;vector-effect:none;fill:#253898;fill-opacity:1;fill-rule:nonzero;stroke:none;stroke-width:3.47781;stroke-linecap:butt;stroke-linejoin:miter;stroke-miterlimit:4;stroke-dasharray:none;stroke-dashoffset:0;stroke-opacity:1;color-rendering:auto;image-rendering:auto;shape-rendering:auto;text-rendering:auto;enable-background:accumulate;stop-color:#000000;stop-opacity:1" d="M 18.647484,4.9597927 C 11.179421,4.9597927 5.114,11.025202 5.114,18.493277 V 98.08626 c 0,7.46806 6.065421,13.53348 13.533484,13.53348 H 188.24047 c 7.46806,0 13.53637,-6.06542 13.53637,-13.53348 V 18.493277 c 0,-7.468075 -6.06831,-13.5334843 -13.53637,-13.5334843 z m 0,3.4780547 H 188.24047 c 5.60151,0 10.05831,4.4539036 10.05833,10.0554296 V 98.08626 c 0,5.60151 -4.45682,10.05831 -10.05833,10.05833 H 18.647484 c -5.601515,0 -10.0554293,-4.45682 -10.0554293,-10.05833 V 18.493277 c 0,-5.601526 4.4539143,-10.0554296 10.0554293,-10.0554296 z" id="path83" />
    <path id="path75" style="color:#000000;font-style:normal;font-variant:normal;font-weight:normal;font-stretch:normal;font-size:medium;line-height:normal;font-family:sans-serif;font-variant-ligatures:normal;font-variant-position:normal;font-variant-caps:normal;font-variant-numeric:normal;font-variant-alternates:normal;font-variant-east-asian:normal;font-feature-settings:normal;font-variation-settings:normal;text-indent:0;text-align:start;text-decoration:none;text-decoration-line:none;text-decoration-style:solid;text-decoration-color:#000000;letter-spacing:normal;word-spacing:normal;text-transform:none;writing-mode:lr-tb;direction:ltr;text-orientation:mixed;dominant-baseline:auto;baseline-shift:baseline;text-anchor:start;white-space:normal;shape-padding:0;shape-margin:0;inline-size:0;clip-rule:nonzero;display:inline;overflow:visible;visibility:visible;opacity:1;isolation:auto;mix-blend-mode:normal;color-interpolation:sRGB;color-interpolation-filters:linearRGB;solid-color:#000000;solid-opacity:1;vector-effect:none;fill:#253898;fill-opacity:1;fill-rule:nonzero;stroke:none;stroke-width:3.47781;stroke-linecap:butt;stroke-linejoin:miter;stroke-miterlimit:4;stroke-dasharray:none;stroke-dashoffset:0;stroke-opacity:1;color-rendering:auto;image-rendering:auto;shape-rendering:auto;text-rendering:auto;enable-background:accumulate;stop-color:#000000;stop-opacity:1" d="m 18.641389,11.991216 c -3.588753,0 -6.479137,2.910965 -6.479137,6.513564 v 79.5872 c 0,3.59165 2.887497,6.47914 6.479137,6.47914 H 188.25231 c 3.59164,0 6.47913,-2.88749 6.47913,-6.47914 v -79.5872 c 0,-3.602599 -2.89039,-6.513564 -6.47913,-6.513564 z" />
    <g style="opacity:1;fill:#ffffff;fill-opacity:1" id="use279" transform="matrix(1.4281268,0,0,1.4281268,20.85774,51.620378)">
      <path id="path1344" d="M 22.359375,-8.375 H 3.90625 V -19.171875 H 22.359375 Z M 7.34375,-14.953125 H 18.625 v -1.5 H 7.34375 Z M 18.625,-12.4375 H 7.34375 v 1.53125 H 18.625 Z m -1.46875,7.65625 c 1.59375,-0.414063 3.296875,-1.164063 5.109375,-2.25 0.6875,0.792969 1.21875,1.46875 1.59375,2.03125 0.375,0.554687 0.5625,0.90625 0.5625,1.0625 0,0.148437 -0.21875,0.25 -0.65625,0.3125 -1.292969,0.179687 -3.496094,0.714844 -6.609375,1.609375 V 0.1875 c 0,0.394531 0.0625,0.648438 0.1875,0.765625 0.125,0.113281 0.359375,0.171875 0.703125,0.171875 H 21.4375 c 0.226563,0 0.394531,-0.058594 0.5,-0.171875 0.101563,-0.117187 0.191406,-0.355469 0.265625,-0.71875 0.08203,-0.363281 0.164063,-0.96875 0.25,-1.8125 1.125,0.5625 2.21875,0.914062 3.28125,1.046875 -0.230469,1.363281 -0.496094,2.363281 -0.796875,3 C 24.632813,3.113281 24.226563,3.539063 23.71875,3.75 23.207031,3.957031 22.453125,4.0625 21.453125,4.0625 h -5.15625 c -1.667969,0 -2.5,-0.726562 -2.5,-2.171875 V -7.84375 H 16.8125 c 0.488281,0 0.734375,0.140625 0.734375,0.421875 0,0.105469 -0.02734,0.234375 -0.07813,0.390625 -0.179687,0.492187 -0.28125,1.242187 -0.3125,2.25 z M 6.84375,-2.828125 V 0.5 c 1.820313,-0.46875 3.753906,-1.097656 5.796875,-1.890625 0,1.03125 0.128906,1.984375 0.390625,2.859375 C 9.539063,2.53125 6.550781,3.585938 4.0625,4.640625 L 2.546875,2.09375 C 2.929688,1.757813 3.203125,1.441406 3.359375,1.140625 3.515625,0.847656 3.59375,0.257813 3.59375,-0.625 v -7.109375 h 2.984375 c 0.4375,0 0.65625,0.117187 0.65625,0.34375 0,0.105469 -0.03125,0.25 -0.09375,0.4375 -0.179687,0.386719 -0.265625,0.886719 -0.265625,1.5 h 6.078125 v 2.625 z m 0,0" style="fill:#ffffff;stroke:none" />
    </g>
    <g style="opacity:1;fill:#ffffff;fill-opacity:1" id="use283" transform="matrix(1.4281268,0,0,1.4281268,63.721452,51.620378)">
      <path id="path1348" d="m 9.4375,-5.0625 c 3.8125,-0.925781 6.832031,-2.253906 9.0625,-3.984375 1.570313,1.5 2.445313,2.355469 2.625,2.5625 0.1875,0.210937 0.28125,0.386719 0.28125,0.53125 0,0.230469 -0.246094,0.371094 -0.734375,0.421875 -0.824219,0.0625 -1.75,0.324219 -2.78125,0.78125 C 15.878906,-3.875 13.0625,-2.988281 9.4375,-2.09375 V -0.125 c 0,0.46875 0.066406,0.765625 0.203125,0.890625 0.132813,0.132813 0.394531,0.203125 0.78125,0.203125 H 18.125 c 0.382813,0 0.664063,-0.070312 0.84375,-0.203125 0.175781,-0.125 0.3125,-0.433594 0.40625,-0.921875 0.09375,-0.488281 0.203125,-1.347656 0.328125,-2.578125 1.082031,0.636719 2.296875,1.074219 3.640625,1.3125 -0.230469,1.769531 -0.632812,3.125 -1.203125,4.0625 C 21.566406,3.585938 20.535156,4.0625 19.046875,4.0625 H 8.875 C 7.800781,4.0625 7.046875,3.863281 6.609375,3.46875 6.171875,3.082031 5.953125,2.257813 5.953125,1 v -9.65625 c -0.90625,0.625 -1.921875,1.257812 -3.046875,1.890625 -0.554687,-0.851563 -1.398437,-1.769531 -2.53125,-2.75 5.34375,-2.226563 9.117188,-5.910156 11.328125,-11.046875 1.050781,0.242187 1.96875,0.46875 2.75,0.6875 0.789063,0.21875 1.226563,0.367187 1.3125,0.4375 0.08203,0.07422 0.125,0.171875 0.125,0.296875 0,0.117187 -0.08594,0.226562 -0.25,0.328125 -0.15625,0.105469 -0.335937,0.28125 -0.53125,0.53125 2.3125,4 5.90625,6.605469 10.78125,7.8125 -0.9375,1.054687 -1.8125,2.214844 -2.625,3.484375 C 18.648438,-9.097656 15.25,-11.945313 13.0625,-15.53125 c -1.625,2.167969 -3.339844,3.980469 -5.140625,5.4375 h 1.3125 c 0.414063,0 0.625,0.09375 0.625,0.28125 0,0.179687 -0.074219,0.429687 -0.21875,0.75 C 9.503906,-8.738281 9.4375,-7.945313 9.4375,-6.6875 Z m 0,0" style="fill:#ffffff;stroke:none" />
    </g>
    <g style="opacity:1;fill:#ffffff;fill-opacity:1" id="use287" transform="matrix(1.4281268,0,0,1.4281268,100.98479,51.620378)">
      <path id="path1352" d="M 23.90634,2.078125 6.5625893,2.96875 v -17.265625 h 2.9375 c 0.351563,0 0.5703127,0.02734 0.6562497,0.07813 0.08203,0.05469 0.125,0.136719 0.125,0.25 0,0.117187 -0.04297,0.304687 -0.125,0.5625 -0.07422,0.25 -0.109375,1.054687 -0.109375,2.40625 V -0.26562 L 15.18759,-0.54687 V -19.75 h 3.125 c 0.507813,0 0.765625,0.08984 0.765625,0.265625 0,0.167969 -0.05469,0.386719 -0.15625,0.65625 -0.09375,0.261719 -0.140625,1.027344 -0.140625,2.296875 V -0.734375 L 23.90634,-1 v -13.375 h 3.203125 c 0.3125,0 0.503906,0.02734 0.578125,0.07813 0.08203,0.05469 0.125,0.136719 0.125,0.25 0,0.117187 -0.04297,0.3125 -0.125,0.59375 -0.07422,0.28125 -0.109375,1.03125 -0.109375,2.25 V 4.0625 H 23.90634 Z m 0,0" style="fill:#ffffff;stroke:none" />
    </g>
    <g style="opacity:1;fill:#ffffff;fill-opacity:1" id="use291" transform="matrix(1.4281268,0,0,1.4281268,133.2482,51.620378)">
      <path id="path1356" d="m 17.721887,0.34375 v 2.4375 H 14.378135 V -16.875 H 32.878138 V 2.671875 h -3.5625 V 0.34375 Z m 11.593751,-2.8125 V -13.953125 H 17.721887 V -2.46875 Z m 0,0" style="fill:#ffffff;stroke:none" />
    </g>
    <g transform="matrix(0.92604069,0,0,0.92604069,-160.63911,-36.415998)" style="opacity:1;fill:#ffffff;fill-opacity:1" id="g297">
      <g style="fill:#ffffff" transform="translate(198.79272,135.95999)" id="use295">
        <path id="path1429" d="m 13.875,-17.84375 h 10.96875 v 2.78125 H 12.328125 l -0.84375,1.390625 H 23.34375 L 23.0625,-7.875 H 25.5 v 2.546875 H 22.921875 L 22.75,-1.8125 h 1.96875 v 2.703125 h -2.125 C 22.488281,2.328125 22.0625,3.269531 21.3125,3.71875 20.570313,4.175781 19.226563,4.476563 17.28125,4.625 17.113281,3.363281 16.75,2.347656 16.1875,1.578125 c 0.769531,0.101563 1.375,0.15625 1.8125,0.15625 0.4375,0 0.753906,-0.0625 0.953125,-0.1875 0.195313,-0.125 0.320313,-0.34375 0.375,-0.65625 h -10.625 L 9.3125,-5.328125 H 7.375 V -7.875 h 2.171875 l 0.34375,-3.4375 c -0.417969,0.5625 -0.804687,1.023437 -1.15625,1.375 -0.773437,-0.644531 -1.621094,-1.179688 -2.546875,-1.609375 2.445313,-2.582031 4.019531,-5.53125 4.71875,-8.84375 1.09375,0.25 1.984375,0.480469 2.671875,0.6875 0.6875,0.199219 1.066406,0.335937 1.140625,0.40625 0.08203,0.0625 0.125,0.167969 0.125,0.3125 0,0.136719 -0.09375,0.265625 -0.28125,0.390625 -0.179687,0.117187 -0.40625,0.367187 -0.6875,0.75 z m 2.703125,9.96875 h 3.28125 L 20.046875,-11 H 16.8125 c 0.539063,0.710937 1.066406,1.5 1.578125,2.375 z m -3.859375,0 h 2.6875 c -0.355469,-0.625 -0.855469,-1.347656 -1.5,-2.171875 L 15.984375,-11 h -2.96875 z m 2.96875,2.546875 h -3.203125 l -0.34375,3.515625 h 3.203125 c -0.574219,-1.101563 -1.15625,-1.976563 -1.75,-2.625 z m 4.046875,0 H 16.5 c 0.664063,0.875 1.242188,1.792969 1.734375,2.75 l -2,0.765625 h 3.28125 z M 8.84375,-16.140625 6.171875,-13.9375 c -1.3125,-1.375 -2.59375,-2.546875 -3.84375,-3.515625 l 2.625,-2.28125 c 1.3125,1.148437 2.609375,2.34375 3.890625,3.59375 z m -1.3125,5.890625 -2.5,2.515625 c -0.992187,-0.875 -2.40625,-1.914063 -4.25,-3.125 l 2.28125,-2.59375 c 1.925781,1.292969 3.414063,2.359375 4.46875,3.203125 z m 0.265625,5.390625 c -1.59375,3.15625 -2.960937,6.125 -4.09375,8.90625 C 2.878906,3.535156 1.820313,2.738281 0.53125,1.65625 c 1.582031,-1.957031 3.171875,-4.816406 4.765625,-8.578125 0.632813,0.667969 1.46875,1.355469 2.5,2.0625 z m 0,0" style="fill:#ffffff;stroke:none" />
      </g>
    </g>
    <g transform="matrix(0.92604069,0,0,0.92604069,53.043225,89.488483)" style="opacity:1;fill:#ffffff;fill-opacity:1" id="use299">
      <path id="path1433" d="M 13.53125,-12.375 H 10.625 v -2.921875 h 3.140625 L 13.9375,-20.125 c 1.675781,0.09375 2.707031,0.140625 3.09375,0.140625 0.394531,0 0.59375,0.07031 0.59375,0.203125 0,0.136719 -0.05859,0.320312 -0.171875,0.546875 -0.21875,0.429687 -0.382812,1.742187 -0.484375,3.9375 h 3.578125 c -0.492187,-0.945313 -1.167969,-1.941406 -2.03125,-2.984375 l 2.8125,-1.5 c 1.050781,1.5 1.8125,2.671875 2.28125,3.515625 l -1.890625,0.96875 H 25 V -12.375 h -8.28125 c -0.0625,0.5 -0.164062,1.152344 -0.296875,1.953125 h 7.421875 c -0.542969,3.804687 -1.640625,6.890625 -3.296875,9.265625 1.34375,1.1757813 3.113281,2.09375 5.3125,2.75 -0.9375,0.914063 -1.757812,1.894531 -2.453125,2.9375 C 21.53125,3.550781 19.9375,2.410156 18.625,1.109375 17.3125,2.398438 15.625,3.550781 13.5625,4.5625 12.882813,3.78125 12.085938,3.054688 11.171875,2.390625 13.609375,1.316406 15.457031,0.144531 16.71875,-1.125 15.957031,-2.28125 15.34375,-3.425781 14.875,-4.5625 14.03125,-2.238281 12.519531,0.410156 10.34375,3.390625 9.707031,2.898438 8.835938,2.347656 7.734375,1.734375 7.671875,2.796875 7.285156,3.5 6.578125,3.84375 5.867188,4.195313 4.5625,4.410156 2.65625,4.484375 c -0.105469,-1.21875 -0.4375,-2.320312 -1,-3.296875 1.0625,0.113281 1.785156,0.171875 2.171875,0.171875 0.382813,0 0.628906,-0.054687 0.734375,-0.15625 0.101563,-0.105469 0.15625,-0.3125 0.15625,-0.625 v -4.59375 c -0.9375,0.5625 -1.75,1.089844 -2.4375,1.578125 L 0.625,-5.71875 c 1.25,-0.4375 2.613281,-1.003906 4.09375,-1.703125 v -4.40625 H 1.265625 v -2.96875 H 4.71875 V -19.90625 H 7.6875 c 0.332031,0 0.5,0.07422 0.5,0.21875 0,0.136719 -0.046875,0.296875 -0.140625,0.484375 -0.167969,0.304687 -0.25,0.84375 -0.25,1.625 v 2.78125 H 10.25 v 2.96875 H 7.796875 v 2.875 c 0.445313,-0.21875 1.15625,-0.597656 2.125,-1.140625 0.21875,0.730469 0.546875,1.636719 0.984375,2.71875 L 7.796875,-5.71875 V 0.625 c 0,0.40625 -0.011719,0.6875 -0.03125,0.84375 3.195313,-3.582031 5.117188,-8.195313 5.765625,-13.84375 z m 5.015625,8.828125 C 19.191406,-4.640625 19.769531,-6.082031 20.28125,-7.875 H 16.6875 c 0.46875,1.625 1.085938,3.070312 1.859375,4.328125 z m 0,0" style="fill:#ffffff;stroke:none" />
    </g>
    <g transform="matrix(1.0727996,0,0,1.4952693,-169.71864,-109.83513)" style="opacity:1;fill:#ffffff;fill-opacity:1" id="g305">
      <g style="fill:#ffffff" id="use303" transform="translate(251.25792,135.95999)">
        <path id="path1437" d="m 14.265625,0 h -12.5625 c 0.144531,-1.875 0.550781,-3.410156 1.21875,-4.609375 0.675781,-1.207031 1.488281,-2.175781 2.4375,-2.90625 0.957031,-0.726563 2.179688,-1.335938 3.671875,-1.828125 0.601563,-0.175781 1.082031,-0.441406 1.4375,-0.796875 C 10.820313,-10.492188 11,-10.875 11,-11.28125 c 0,-0.40625 -0.289062,-0.765625 -0.859375,-1.078125 -0.574219,-0.3125 -1.277344,-0.46875 -2.109375,-0.46875 -1.542969,0 -2.929687,0.53125 -4.15625,1.59375 l -2.171875,-2.28125 C 2.734375,-14.316406 3.75,-14.910156 4.75,-15.296875 c 1,-0.394531 2.132813,-0.59375 3.40625,-0.59375 1.925781,0 3.394531,0.421875 4.40625,1.265625 1.019531,0.84375 1.53125,1.933594 1.53125,3.265625 0,1.335937 -0.429687,2.421875 -1.28125,3.265625 -0.84375,0.835937 -2.320312,1.609375 -4.421875,2.328125 -1.042969,0.386719 -1.996094,1.261719 -2.859375,2.625 h 8.734375 z m 0,0" style="fill:#ffffff;stroke:none" />
      </g>
    </g>
    <g transform="matrix(1.4952693,0,0,1.4952693,-276.58703,-109.83513)" style="opacity:1;fill:#ffffff;fill-opacity:1" id="g309">
      <g style="fill:#ffffff" id="use307" transform="translate(267.2598,135.95999)">
        <path id="path1441" d="m 6.1951148,0 h -9.0131219 c 0.1036955,-1.875 0.3951646,-3.410156 0.8744073,-4.609375 0.4848475,-1.207031 1.06778573,-2.175781 1.74881471,-2.90625 0.6866338,-0.726563 1.56384429,-1.335938 2.63443239,-1.828125 0.4315989,-0.175781 0.7763166,-0.441406 1.0313523,-0.796875 0.2522332,-0.351563 0.3811519,-0.734375 0.3811519,-1.140625 0,-0.40625 -0.2073911,-0.765625 -0.6165693,-1.078125 -0.4119806,-0.3125 -0.9164463,-0.46875 -1.5133973,-0.46875 -1.10702234,0 -2.10194042,0.53125 -2.9819533,1.59375 l -1.5582387,-2.28125 c 0.7398831,-0.800781 1.4685559,-1.394531 2.18601833,-1.78125 0.71746244,-0.394531 1.53021322,-0.59375 2.44385647,-0.59375 1.3816755,0 2.4354485,0.421875 3.1613188,1.265625 0.7314752,0.84375 1.0986144,1.933594 1.0986144,3.265625 0,1.335937 -0.3082843,2.421875 -0.9192487,3.265625 -0.605359,0.835937 -1.6647368,1.609375 -3.1725293,2.328125 -0.7482911,0.386719 -1.43212244,1.261719 -2.05149413,2.625 H 6.1951148 Z m 0,0" style="fill:#ffffff;stroke:none;stroke-width:0.847032" />
      </g>
    </g>
    <g transform="matrix(1.4952693,0,0,1.4952693,-276.58703,-109.83513)" style="opacity:1;fill:#ffffff;fill-opacity:1" id="g313">
      <g style="fill:#ffffff" id="use311" transform="translate(283.78635,135.95999)">
        <path id="path1445" d="M 2.1311026,-3.515625 H 0.43833963 V 0 H -1.725258 v -3.515625 h -6.647738 v -2.96875 l 6.647738,-9.40625 h 2.16359763 v 9.46875 H 2.1311026 Z m -3.8563606,-2.90625 v -5.28125 l -3.6882054,5.28125 z m 0,0" style="fill:#ffffff;stroke:none;stroke-width:0.847032" />
      </g>
    </g>
    <g transform="matrix(1.4952693,0,0,1.4952693,-276.58703,-109.83513)" style="opacity:1;fill:#ffffff;fill-opacity:1" id="g317">
      <g style="fill:#ffffff" id="use315" transform="translate(301.09985,135.95999)">
        <path id="path1449" d="m -3.7807534,-12.640625 c -0.6502003,0.667969 -1.418109,2.210937 -2.2981219,4.625 C -6.9532826,-5.609375 -7.3904863,-2.9375 -7.3904863,0 h -2.2757012 c 0,-2.1875 0.2129967,-4.300781 0.63899,-6.34375 0.4259934,-2.050781 1.1770868,-4.1875 2.2532805,-6.40625 h -6.154482 v -3.140625 h 9.1476456 z m 0,0" style="fill:#ffffff;stroke:none;stroke-width:0.847032" />
      </g>
    </g>
    <g transform="matrix(1.4952693,0,0,1.4952693,-276.58703,-109.83513)" style="opacity:1;fill:#ffffff;fill-opacity:1" id="g321">
      <g style="fill:#ffffff" id="use319" transform="matrix(0.46324831,0,0,0.46324831,299.76899,136.60241)">
        <path id="path1453" d="m 20.484375,0 h -3.09375 v -7.078125 c 0,-0.507813 -0.210937,-0.945313 -0.625,-1.3125 -0.40625,-0.375 -0.886719,-0.5625 -1.4375,-0.5625 -0.554687,0 -1.015625,0.195312 -1.390625,0.578125 C 13.5625,-8 13.375,-7.566406 13.375,-7.078125 V 0 h -3.03125 v -7.140625 c 0,-0.46875 -0.179687,-0.882813 -0.53125,-1.25 -0.355469,-0.375 -0.824219,-0.5625 -1.40625,-0.5625 -0.585937,0 -1.085937,0.179687 -1.5,0.53125 C 6.5,-8.066406 6.296875,-7.640625 6.296875,-7.140625 V 0 h -3.15625 v -11.8125 h 3.15625 v 0.734375 c 0.925781,-0.59375 1.914063,-0.890625 2.96875,-0.890625 1.3125,0 2.347656,0.460937 3.109375,1.375 1.09375,-0.894531 2.265625,-1.34375 3.515625,-1.34375 1.257813,0 2.335938,0.382812 3.234375,1.140625 0.90625,0.761719 1.359375,1.679687 1.359375,2.75 z m 0,0" style="fill:#ffffff;stroke:none" />
      </g>
    </g>
  </g>
</svg>
