<?xml version="1.0" encoding="UTF-8"?>
<svg xmlns="http://www.w3.org/2000/svg" xmlns:ns1="http://sodipodi.sourceforge.net/DTD/sodipodi-0.dtd" viewBox="0 0 173.10083 63.433807" height="63.433807" width="173.10083" id="svg2089" version="1.1">
  <defs id="defs2093" />
  <ns1:namedview showgrid="false" id="namedview2091" guidetolerance="10" gridtolerance="10" objecttolerance="10" borderopacity="1" bordercolor="#666666" pagecolor="#ffffff" />
  <g transform="translate(-2.2107288,-4.3156313)" id="g2097">
    <path id="path11391" d="m 15.031602,6.1801422 c -6.0690023,0 -10.9563623,4.8873588 -10.9563623,10.9563598 V 54.92856 c 0,6.06901 4.88736,10.95636 10.9563623,10.95636 H 162.49068 c 6.069,0 10.95637,-4.88735 10.95637,-10.95636 V 17.136502 c 0,-6.069001 -4.88737,-10.9563598 -10.95637,-10.9563598 z" style="color:#000000;font-style:normal;font-variant:normal;font-weight:normal;font-stretch:normal;font-size:medium;line-height:normal;font-family:sans-serif;font-variant-ligatures:normal;font-variant-position:normal;font-variant-caps:normal;font-variant-numeric:normal;font-variant-alternates:normal;font-variant-east-asian:normal;font-feature-settings:normal;font-variation-settings:normal;text-indent:0;text-align:start;text-decoration:none;text-decoration-line:none;text-decoration-style:solid;text-decoration-color:#000000;letter-spacing:normal;word-spacing:normal;text-transform:none;writing-mode:lr-tb;direction:ltr;text-orientation:mixed;dominant-baseline:auto;baseline-shift:baseline;text-anchor:start;white-space:normal;shape-padding:0;shape-margin:0;inline-size:0;clip-rule:nonzero;display:inline;overflow:visible;visibility:visible;opacity:1;isolation:auto;mix-blend-mode:normal;color-interpolation:sRGB;color-interpolation-filters:linearRGB;solid-color:#000000;solid-opacity:1;vector-effect:none;fill:#ffffff;fill-opacity:1;fill-rule:nonzero;stroke:none;stroke-width:3.22992;stroke-linecap:butt;stroke-linejoin:miter;stroke-miterlimit:4;stroke-dasharray:none;stroke-dashoffset:0;stroke-opacity:1;color-rendering:auto;image-rendering:auto;shape-rendering:auto;text-rendering:auto;enable-background:accumulate;stop-color:#000000;stop-opacity:1" />
    <path id="path11393" d="m 15.031602,4.5656313 c -6.9360161,0 -12.5708732,5.6348557 -12.5708732,12.5708707 V 54.92856 c 0,6.93602 5.6348571,12.57088 12.5708732,12.57088 H 162.49068 c 6.93603,0 12.57088,-5.63486 12.57088,-12.57088 V 17.136502 c 0,-6.936015 -5.63485,-12.5708707 -12.57088,-12.5708707 z m 0,3.2290219 H 162.49068 c 5.20201,0 9.34185,4.1398618 9.34185,9.3418488 V 54.92856 c 0,5.20199 -4.13984,9.34185 -9.34185,9.34185 H 15.031602 c -5.201987,0 -9.3418513,-4.13986 -9.3418513,-9.34185 V 17.136502 c 0,-5.201986 4.1398657,-9.3418488 9.3418513,-9.3418488 z" style="color:#000000;font-style:normal;font-variant:normal;font-weight:normal;font-stretch:normal;font-size:medium;line-height:normal;font-family:sans-serif;font-variant-ligatures:normal;font-variant-position:normal;font-variant-caps:normal;font-variant-numeric:normal;font-variant-alternates:normal;font-variant-east-asian:normal;font-feature-settings:normal;font-variation-settings:normal;text-indent:0;text-align:start;text-decoration:none;text-decoration-line:none;text-decoration-style:solid;text-decoration-color:#000000;letter-spacing:normal;word-spacing:normal;text-transform:none;writing-mode:lr-tb;direction:ltr;text-orientation:mixed;dominant-baseline:auto;baseline-shift:baseline;text-anchor:start;white-space:normal;shape-padding:0;shape-margin:0;inline-size:0;clip-rule:nonzero;display:inline;overflow:visible;visibility:visible;opacity:1;isolation:auto;mix-blend-mode:normal;color-interpolation:sRGB;color-interpolation-filters:linearRGB;solid-color:#000000;solid-opacity:1;vector-effect:none;fill:#2138a5;fill-opacity:1;fill-rule:nonzero;stroke:none;stroke-width:0.5;stroke-linecap:butt;stroke-linejoin:miter;stroke-miterlimit:4;stroke-dasharray:none;stroke-dashoffset:0;stroke-opacity:1;color-rendering:auto;image-rendering:auto;shape-rendering:auto;text-rendering:auto;enable-background:accumulate;stop-color:#000000;stop-opacity:1" />
    <path d="m 15.025287,11.095243 c -3.332895,0 -6.0160022,2.70405 -6.0160022,6.049681 V 54.93488 c 0,3.33546 2.6805382,6.016 6.0160022,6.016 H 162.50121 c 3.33547,0 6.016,-2.68053 6.016,-6.016 V 17.144924 c 0,-3.345632 -2.6831,-6.049681 -6.016,-6.049681 z" style="color:#000000;font-style:normal;font-variant:normal;font-weight:normal;font-stretch:normal;font-size:medium;line-height:normal;font-family:sans-serif;font-variant-ligatures:normal;font-variant-position:normal;font-variant-caps:normal;font-variant-numeric:normal;font-variant-alternates:normal;font-variant-east-asian:normal;font-feature-settings:normal;font-variation-settings:normal;text-indent:0;text-align:start;text-decoration:none;text-decoration-line:none;text-decoration-style:solid;text-decoration-color:#000000;letter-spacing:normal;word-spacing:normal;text-transform:none;writing-mode:lr-tb;direction:ltr;text-orientation:mixed;dominant-baseline:auto;baseline-shift:baseline;text-anchor:start;white-space:normal;shape-padding:0;shape-margin:0;inline-size:0;clip-rule:nonzero;display:inline;overflow:visible;visibility:visible;opacity:1;isolation:auto;mix-blend-mode:normal;color-interpolation:sRGB;color-interpolation-filters:linearRGB;solid-color:#000000;solid-opacity:1;vector-effect:none;fill:#2138a5;fill-opacity:1;fill-rule:nonzero;stroke:none;stroke-width:3.22992;stroke-linecap:butt;stroke-linejoin:miter;stroke-miterlimit:4;stroke-dasharray:none;stroke-dashoffset:0;stroke-opacity:1;color-rendering:auto;image-rendering:auto;shape-rendering:auto;text-rendering:auto;enable-background:accumulate;stop-color:#000000;stop-opacity:1" id="path11374" />
    <path style="opacity:1;fill:#ffffff;fill-opacity:1;fill-rule:nonzero;stroke:none;stroke-width:2.94305" d="m 30.52972,48.291198 v 0.919705 H 27.264762 V 22.309538 h 2.851091 c 0.517344,0 0.781756,0.172455 0.781756,0.505853 0,0.126544 -0.03443,0.275764 -0.09204,0.459852 -0.183868,0.367882 -0.275912,1.092138 -0.275912,2.16129 v 21.842991 c 1.747446,-0.643794 3.17298,-1.494512 4.276625,-2.529201 1.126645,-1.069152 1.701446,-2.943053 1.701446,-5.610197 v -6.5299 h 3.264957 c 0.425367,0 0.643801,0.160978 0.643801,0.459852 0,0.09182 -0.03443,0.183933 -0.09182,0.275765 -0.218301,0.402374 -0.321911,1.092168 -0.321911,2.069348 v 3.724789 c 0,2.299259 -0.310411,4.115683 -0.919712,5.426255 l 2.161335,-1.839408 c 0.05739,0.03443 0.137956,0.115066 0.229845,0.229852 V 31.644316 H 35.128256 V 43.738413 H 31.725365 V 28.609292 h 4.092691 c 0.183867,-0.79324 0.298889,-1.586483 0.367867,-2.39123 h -5.196337 v -3.310936 h 15.129143 v 3.310936 h -6.070048 c -0.06887,0.804747 -0.229845,1.59799 -0.505845,2.39123 h 5.472248 V 43.324561 H 41.98006 c 1.862401,1.563497 3.506369,3.000531 4.920403,4.322609 l -3.12698,2.575173 c -1.172601,-1.655468 -2.793613,-3.402906 -4.874447,-5.242314 -0.988646,1.954363 -2.989024,3.747802 -6.024048,5.380254 -0.643801,-0.735762 -1.425535,-1.425527 -2.345246,-2.069319 z M 19.493268,22.86136 h 2.851091 c 0.517323,0 0.781734,0.115066 0.781734,0.321912 0,0.218367 -0.06887,0.448344 -0.183867,0.689765 -0.183868,0.402373 -0.275912,1.126658 -0.275912,2.161319 v 8.783161 c 0,4.483565 -0.172389,7.65656 -0.505844,9.518954 -0.31039,1.862393 -0.94269,3.678816 -1.885379,5.426255 -1.046168,-1.046168 -2.000357,-1.816424 -2.851091,-2.299262 0.758756,-1.172629 1.299079,-2.529201 1.60949,-4.092698 0.298889,-1.563496 0.459845,-4.41458 0.459845,-8.553249 z m 4.046692,1.379557 h 2.483201 c 0.482845,0 0.735778,0.115066 0.735778,0.321911 0,0.183934 -0.04591,0.402376 -0.137955,0.643794 -0.183867,0.367882 -0.275911,1.092138 -0.275911,2.16129 v 19.451761 h -2.805091 z m 0,0" id="path1770" />
    <path style="opacity:1;fill:#ffffff;fill-opacity:1;fill-rule:nonzero;stroke:none;stroke-width:2.94305" d="m 71.60493,30.035054 -4.000691,1.103645 c -0.827734,-3.000531 -1.873902,-5.633181 -3.127002,-7.909456 l 3.862758,-1.471528 c 1.126645,2.299262 2.218768,5.058375 3.264935,8.277339 z m -3.035024,9.151072 c 3.552369,-3.828265 5.840137,-8.96713 6.851826,-15.405061 l 3.172958,0.781763 c 1.011667,0.25281 1.56349,0.402376 1.655468,0.459854 0.09182,0.06887 0.137955,0.183933 0.137955,0.36788 0,0.160978 -0.126478,0.402376 -0.367889,0.735765 -0.643778,0.770256 -1.310601,2.103812 -1.977379,4.000698 -1.747423,4.943418 -3.931736,8.817683 -6.529893,11.634274 3.058002,2.241783 7.00126,3.678817 11.818207,4.322609 -1.287578,1.402543 -2.276268,2.805084 -2.943046,4.18464 -5.092859,-1.747439 -9.047594,-3.678817 -11.864185,-5.794137 -2.828091,2.172828 -6.713848,4.115685 -11.680251,5.840137 -0.735756,-1.2646 -1.735946,-2.471695 -2.989047,-3.632846 4.598514,-0.770228 8.51875,-2.35674 11.772208,-4.782463 -1.689946,-1.770424 -3.16148,-3.908727 -4.414581,-6.391929 -1.264601,-2.483201 -2.471679,-5.621703 -3.632802,-9.426983 l 3.862758,-1.149617 c 1.712945,6.34596 4.092669,11.105436 7.127693,14.255416 z m 0,0" id="path1772" />
    <path style="opacity:1;fill:#ffffff;fill-opacity:1;fill-rule:nonzero;stroke:none;stroke-width:2.94305" d="m 109.02434,25.758444 c 0.45984,-0.919705 0.98869,-2.356739 1.60949,-4.322609 2.23027,0.678285 3.46039,1.080658 3.67883,1.195614 0.20682,0.09182 0.32186,0.229854 0.32186,0.413854 0,0.160977 -0.12648,0.321911 -0.36786,0.505851 -0.40239,0.252808 -0.95422,0.98869 -1.65547,2.20729 h 5.51822 v 2.989024 h -8.13938 c -0.0689,0.528839 -0.16091,1.000197 -0.27576,1.425557 h 6.07005 v 15.17512 h -3.67882 v -1.425556 h -7.40363 v 1.195616 h -3.58685 v -14.94518 h 4.82847 c 0.0918,-0.459852 0.16091,-0.931212 0.22985,-1.425557 h -6.943764 v -2.989024 h 4.920404 c -0.64378,-0.850718 -1.31056,-1.666974 -1.97734,-2.43723 l 3.35689,-1.747439 c 0.82774,1.046167 1.60952,2.161319 2.34527,3.356935 l -2.06935,0.827734 z m -4.32263,8.277339 h 7.40366 v -1.195617 h -7.40366 z m 0,3.494875 h 7.40366 v -1.195614 h -7.40366 z m 7.40366,2.437202 h -7.40366 v 1.425556 h 7.40366 z M 99.045554,28.655497 95.182796,29.989085 c -0.459845,-1.770424 -1.333578,-3.828267 -2.621179,-6.16202 l 3.724824,-1.609496 c 1.034668,1.931379 1.954357,4.081191 2.759113,6.437928 z M 119.7389,45.348145 c -0.55182,1.161123 -0.96571,2.448708 -1.24162,3.862758 -2.57516,0.02355 -4.8514,0.04591 -6.8058,0.04591 -5.51823,0 -9.13958,-0.183934 -10.85252,-0.551823 -1.724428,-0.367882 -2.897051,-0.873705 -3.540851,-1.517496 -0.310389,-0.344898 -0.540345,-0.505854 -0.689778,-0.505854 -0.160912,0 -0.32189,0.05739 -0.505823,0.183934 -0.160912,0.115066 -0.540345,0.505851 -1.149645,1.149645 -0.620778,0.666778 -1.092145,1.241585 -1.425534,1.701436 -1.195623,-1.195614 -2.230269,-2.333723 -3.081024,-3.402904 1.954401,-1.379556 3.127001,-2.16129 3.494868,-2.345233 0.367889,-0.206889 0.551823,-0.79324 0.551823,-1.747436 v -7.817419 h -3.540847 v -3.494878 h 7.311649 v 10.484629 c 0,1.195616 0.287522,2.115321 0.873734,2.759113 0.5748,0.620809 1.563488,1.023183 2.943048,1.241587 1.40253,0.24133 4.00069,0.367881 7.77149,0.367881 3.79381,0 7.09322,-0.138022 9.88683,-0.413852 z m 0,0" id="path1774" />
    <path style="opacity:1;fill:#ffffff;fill-opacity:1;fill-rule:nonzero;stroke:none;stroke-width:2.94305" d="m 143.17843,21.757715 h 3.03503 c 0.45984,0 0.68978,0.09182 0.68978,0.275766 0,0.160978 -0.0344,0.310402 -0.0918,0.459851 -0.16091,0.459852 -0.22984,1.425557 -0.22984,2.897084 v 10.208718 c 0,6.231003 -2.01184,11.174391 -6.02405,14.853209 -0.80476,-0.586287 -2.00036,-1.241588 -3.58685,-1.97735 2.11532,-1.724453 3.67883,-3.632847 4.6905,-5.748166 1.01166,-2.138306 1.51749,-4.690492 1.51749,-7.633547 z m -10.39267,5.242315 h -3.12698 v -3.402905 h 9.97881 v 3.402905 h -3.31094 v 5.840136 h 2.39123 v 3.310936 h -2.39123 v 6.483902 l 3.63281,-1.011677 c 0,0.862228 0.10352,1.954395 0.32191,3.264967 -3.65583,1.161123 -7.01276,2.310768 -10.07077,3.448875 l -1.33355,-4.046698 c 1.40253,-0.241332 2.71311,-0.505822 3.90871,-0.781734 v -7.357635 h -3.03502 v -3.310936 h 3.03502 z m 17.06055,0.09182 h -2.80512 v -3.310935 h 10.30068 v 3.310935 h -3.86276 v 6.116048 h 3.26498 v 3.494878 h -3.26498 v 8.231338 h 4.46058 v 3.264964 h -12.50796 v -3.264964 h 4.41458 v -8.231338 h -2.62118 v -3.494878 h 2.62118 z m -7.31168,0.919705 c 0.0574,4.483565 -0.18386,7.943949 -0.73575,10.392657 l -3.127,-0.459851 c 0.48284,-2.20729 0.73575,-4.897419 0.73575,-8.093398 0,-0.666779 -0.0236,-1.345063 -0.0459,-2.023348 z m 0,0" id="path1776" />
  </g>
</svg>
