<?xml version="1.0" encoding="UTF-8"?>
<svg xmlns="http://www.w3.org/2000/svg" xmlns:ns1="http://sodipodi.sourceforge.net/DTD/sodipodi-0.dtd" viewBox="0 0 204.54404 92.436829" height="92.436829" width="204.54404" id="svg1140" version="1.1">
  <defs id="defs1144">
    <pattern id="EMFhbasepattern" patternUnits="userSpaceOnUse" width="6" height="6" x="0" y="0" />
  </defs>
  <ns1:namedview showgrid="false" id="namedview1142" guidetolerance="10" gridtolerance="10" objecttolerance="10" borderopacity="1" bordercolor="#666666" pagecolor="#ffffff" />
  <g transform="translate(-3.9590151,-4.0606171)" id="g1148">
    <path id="path11391" d="m 13.213125,5.4670391 c -4.3470299,0 -7.8476879,3.5006572 -7.8476879,7.8476869 v 73.928609 c 0,4.34703 3.500658,7.84769 7.8476879,7.84769 H 199.24894 c 4.34703,0 7.84769,-3.50066 7.84769,-7.84769 V 13.314726 c 0,-4.3470297 -3.50066,-7.8476869 -7.84769,-7.8476869 z" style="color:#000000;font-style:normal;font-variant:normal;font-weight:normal;font-stretch:normal;font-size:medium;line-height:normal;font-family:sans-serif;font-variant-ligatures:normal;font-variant-position:normal;font-variant-caps:normal;font-variant-numeric:normal;font-variant-alternates:normal;font-variant-east-asian:normal;font-feature-settings:normal;font-variation-settings:normal;text-indent:0;text-align:start;text-decoration:none;text-decoration-line:none;text-decoration-style:solid;text-decoration-color:#000000;letter-spacing:normal;word-spacing:normal;text-transform:none;writing-mode:lr-tb;direction:ltr;text-orientation:mixed;dominant-baseline:auto;baseline-shift:baseline;text-anchor:start;white-space:normal;shape-padding:0;shape-margin:0;inline-size:0;clip-rule:nonzero;display:inline;overflow:visible;visibility:visible;opacity:1;isolation:auto;mix-blend-mode:normal;color-interpolation:sRGB;color-interpolation-filters:linearRGB;solid-color:#000000;solid-opacity:1;vector-effect:none;fill:#ffffff;fill-opacity:1;fill-rule:nonzero;stroke:none;stroke-width:2.31349;stroke-linecap:butt;stroke-linejoin:miter;stroke-miterlimit:4;stroke-dasharray:none;stroke-dashoffset:0;stroke-opacity:1;color-rendering:auto;image-rendering:auto;shape-rendering:auto;text-rendering:auto;enable-background:accumulate;stop-color:#000000;stop-opacity:1" />
    <path id="path11393" d="m 13.213125,4.3106171 c -4.9680439,0 -9.0041099,4.0360652 -9.0041099,9.0041089 v 73.928609 c 0,4.96804 4.036066,9.004114 9.0041099,9.004114 H 199.24894 c 4.96805,0 9.00411,-4.036074 9.00411,-9.004114 V 13.314726 c 0,-4.9680437 -4.03606,-9.0041089 -9.00411,-9.0041089 z m 0,2.312844 H 199.24894 c 3.72603,0 6.69126,2.9652492 6.69126,6.6912649 v 73.928609 c 0,3.72601 -2.96523,6.69126 -6.69126,6.69126 H 13.213125 c -3.7260149,0 -6.6912659,-2.96525 -6.6912659,-6.69126 V 13.314726 c 0,-3.7260147 2.965252,-6.6912649 6.6912659,-6.6912649 z" style="color:#000000;font-style:normal;font-variant:normal;font-weight:normal;font-stretch:normal;font-size:medium;line-height:normal;font-family:sans-serif;font-variant-ligatures:normal;font-variant-position:normal;font-variant-caps:normal;font-variant-numeric:normal;font-variant-alternates:normal;font-variant-east-asian:normal;font-feature-settings:normal;font-variation-settings:normal;text-indent:0;text-align:start;text-decoration:none;text-decoration-line:none;text-decoration-style:solid;text-decoration-color:#000000;letter-spacing:normal;word-spacing:normal;text-transform:none;writing-mode:lr-tb;direction:ltr;text-orientation:mixed;dominant-baseline:auto;baseline-shift:baseline;text-anchor:start;white-space:normal;shape-padding:0;shape-margin:0;inline-size:0;clip-rule:nonzero;display:inline;overflow:visible;visibility:visible;opacity:1;isolation:auto;mix-blend-mode:normal;color-interpolation:sRGB;color-interpolation-filters:linearRGB;solid-color:#000000;solid-opacity:1;vector-effect:none;fill:#244a38;fill-opacity:1;fill-rule:nonzero;stroke:none;stroke-width:0.5;stroke-linecap:butt;stroke-linejoin:miter;stroke-miterlimit:4;stroke-dasharray:none;stroke-dashoffset:0;stroke-opacity:1;color-rendering:auto;image-rendering:auto;shape-rendering:auto;text-rendering:auto;enable-background:accumulate;stop-color:#000000;stop-opacity:1" />
    <path d="m 13.208602,8.9875673 c -2.387245,0 -4.3090679,1.9368237 -4.3090679,4.3331907 v 73.927097 c 0,2.38909 1.9199829,4.30907 4.3090679,4.30907 H 199.25648 c 2.38909,0 4.30907,-1.91998 4.30907,-4.30907 V 13.320758 c 0,-2.396368 -1.92182,-4.3331907 -4.30907,-4.3331907 z" style="color:#000000;font-style:normal;font-variant:normal;font-weight:normal;font-stretch:normal;font-size:medium;line-height:normal;font-family:sans-serif;font-variant-ligatures:normal;font-variant-position:normal;font-variant-caps:normal;font-variant-numeric:normal;font-variant-alternates:normal;font-variant-east-asian:normal;font-feature-settings:normal;font-variation-settings:normal;text-indent:0;text-align:start;text-decoration:none;text-decoration-line:none;text-decoration-style:solid;text-decoration-color:#000000;letter-spacing:normal;word-spacing:normal;text-transform:none;writing-mode:lr-tb;direction:ltr;text-orientation:mixed;dominant-baseline:auto;baseline-shift:baseline;text-anchor:start;white-space:normal;shape-padding:0;shape-margin:0;inline-size:0;clip-rule:nonzero;display:inline;overflow:visible;visibility:visible;opacity:1;isolation:auto;mix-blend-mode:normal;color-interpolation:sRGB;color-interpolation-filters:linearRGB;solid-color:#000000;solid-opacity:1;vector-effect:none;fill:#244a38;fill-opacity:1;fill-rule:nonzero;stroke:none;stroke-width:2.31349;stroke-linecap:butt;stroke-linejoin:miter;stroke-miterlimit:4;stroke-dasharray:none;stroke-dashoffset:0;stroke-opacity:1;color-rendering:auto;image-rendering:auto;shape-rendering:auto;text-rendering:auto;enable-background:accumulate;stop-color:#000000;stop-opacity:1" id="path11374" />
    <path d="M 46.095633,17.472608 32.2942,31.231617 v 14.895959 l 9.246207,-8.941818 v 15.20459 L 19.092,65.864059 v 18.88165 h 9.109391 V 70.892308 L 50.649797,57.652987 V 37.185758 l 9.24621,8.941818 V 31.231617 Z M 19.622294,30.662081 v 29.698587 l 8.635308,-4.546741 V 30.662081 Z" style="opacity:1;fill:#ffffff;stroke-width:0.271511" id="rect1165" />
    <path id="path91" d="m 82.490087,60.014706 -0.924693,0.168121 V 81.072642 H 78.665197 V 60.603144 c -0.451842,0.03147 -0.777583,0.06295 -0.966733,0.08393 v 7.271514 c 0,6.388833 -0.788092,11.054349 -2.353777,13.996574 -0.872162,-0.756573 -1.765335,-1.387036 -2.690037,-1.891417 0.777592,-1.597208 1.324004,-3.331016 1.639244,-5.211942 0.304731,-1.901936 0.462351,-4.665544 0.462351,-8.280277 v -8.238233 c 4.003522,-0.189103 7.355561,-0.987726 10.045598,-2.395799 l 1.933465,2.563927 v -0.462336 h 11.138421 v 10.928266 h -8.280272 v 3.068309 c 0,0.619971 0.336251,0.924698 1.008763,0.924698 h 4.245221 c 0.252058,0 0.430812,-0.04196 0.546402,-0.126156 0.136648,-0.105174 0.231076,-0.346772 0.29424,-0.714553 0.08393,-0.357263 0.136638,-0.935191 0.168111,-1.72329 1.061303,0.567435 2.143617,0.945709 3.23644,1.134844 -0.199594,1.376546 -0.441332,2.374818 -0.714533,2.984272 -0.252049,0.619972 -0.630481,1.04029 -1.134863,1.260954 -0.483352,0.199594 -1.208422,0.294208 -2.185655,0.294208 h -5.127875 c -1.155864,0 -1.975486,-0.252056 -2.479867,-0.756572 -0.483362,-0.504382 -0.714533,-1.408044 -0.714533,-2.732053 V 59.384026 c -0.39931,-0.02153 -0.882672,0 -1.471114,0.08393 -0.03157,1.176891 -0.04206,2.816118 -0.04206,4.917708 0,2.08058 0.09458,3.950988 0.294221,5.632259 0.220661,1.660262 0.556921,3.026289 1.008763,4.119116 0.441331,1.071818 1.302983,1.891444 2.563937,2.47989 1.260944,0.588445 2.879187,0.987754 4.875683,1.218908 1.985987,0.220582 3.80389,0.336256 5.464126,0.336256 -0.819603,1.281988 -1.387035,2.532424 -1.723295,3.740842 -2.605958,-0.315244 -4.770604,-0.672508 -6.472889,-1.092828 -1.712794,-0.399309 -3.068328,-0.872162 -4.07709,-1.42908 -1.008763,-0.567435 -1.765335,-1.176889 -2.269717,-1.8494 -0.483361,-0.672508 -0.924693,-1.649743 -1.345014,-2.942225 -0.420321,-1.281962 -0.714542,-2.669025 -0.882672,-4.16116 -0.14711,-1.481618 -0.21017,-3.215426 -0.21017,-5.211944 0,-1.985998 0.01049,-3.719806 0.04206,-5.211941 z m 8.322303,6.262753 v -5.50618 h -1.092823 v 5.50618 z m 3.993011,0 v -5.50618 h -1.176893 v 5.50618 z m 0,0" style="opacity:1;fill:#ffffff;fill-opacity:1;fill-rule:nonzero;stroke:none;stroke-width:2.69003" />
    <path id="path93" d="m 121.14341,59.762515 v -3.740816 h 2.9002 c 0.50438,0 0.75658,0.08393 0.75658,0.252058 0,0.168121 -0.063,0.367781 -0.16813,0.588443 -0.16812,0.504382 -0.25204,1.4711 -0.25204,2.900182 h 6.5149 l -1.47109,6.136641 -3.19442,-0.420317 0.71452,-2.858163 h -2.56391 v 4.329288 h 4.79162 c -0.75657,4.035053 -1.965,7.124398 -3.61474,9.246995 1.48162,1.208418 3.42557,2.101591 5.84241,2.690036 -0.92471,1.008764 -1.76534,2.101589 -2.52191,3.27848 -2.24871,-1.155881 -4.06658,-2.35378 -5.46414,-3.614735 -1.4606,1.260955 -3.38355,2.437844 -5.75833,3.530671 -0.48337,-0.872162 -1.16641,-1.712799 -2.05958,-2.521908 -0.45184,0.9247 -0.99824,1.817872 -1.63922,2.690034 -0.98776,-0.704035 -2.01753,-1.324007 -3.11035,-1.849397 1.61821,-1.513145 2.74257,-3.457126 3.36254,-5.842433 -3.47814,1.54467 -6.15768,2.858161 -8.02809,3.950988 L 104.541,75.019936 c 1.11383,-0.304727 2.37479,-0.714553 3.78286,-1.218934 v -7.439614 h -3.1524 v -3.068335 h 3.1524 v -6.514915 h 2.90018 c 0.42032,0 0.63049,0.115665 0.63049,0.336253 0,0.231076 -0.0629,0.535909 -0.16812,0.924702 -0.11567,0.399308 -0.16812,0.956226 -0.16812,1.68127 v 3.57269 h 2.81612 v 3.068335 h -2.81612 v 6.220705 c 1.17689,-0.52539 2.07007,-0.935218 2.69004,-1.218935 0.0216,0.872162 0.0947,1.618243 0.21009,2.227698 0.27319,-1.450091 0.42031,-3.162889 0.42031,-5.12788 v -8.700594 z m 0,7.187451 v -4.329288 h -3.19442 v 4.329288 z m 2.31176,6.935233 c 0.69351,-1.113836 1.26095,-2.500871 1.68128,-4.161134 h -3.32053 c 0.33625,1.628735 0.88268,3.015772 1.63925,4.161134 z m -5.50618,-4.161134 c -0.11566,3.562199 -0.81962,6.67255 -2.10159,9.331059 2.26972,-0.588446 4.11912,-1.513144 5.5482,-2.774099 -1.26096,-1.765335 -2.13312,-3.950988 -2.60597,-6.55696 z m 0,0" style="opacity:1;fill:#ffffff;fill-opacity:1;fill-rule:nonzero;stroke:none;stroke-width:2.69003" />
    <path id="path95" d="m 141.67455,62.410533 h -6.09462 v -3.110354 h 7.56572 c 0.50438,-1.145361 0.96674,-2.364299 1.38706,-3.656778 1.0613,0.252056 2.01753,0.49389 2.85816,0.714553 0.86165,0.231074 1.34502,0.367781 1.42908,0.420317 0.10518,0.06295 0.16812,0.168121 0.16812,0.336255 0,0.147139 -0.16812,0.357264 -0.50438,0.630464 -0.31525,0.252057 -0.69352,0.777609 -1.13487,1.555189 h 11.18047 v 3.110354 h -12.90376 c -0.9247,1.628734 -2.01753,3.267962 -3.27848,4.917706 h 4.20318 v -3.782862 h 3.19442 c 0.67251,0 1.00877,0.15763 1.00877,0.462365 0,0.147138 -0.0734,0.357264 -0.2101,0.630463 -0.14714,0.283718 -0.21009,1.176889 -0.21009,2.690034 h 6.89323 v 3.110354 h -6.89323 v 3.026289 h 9.45714 v 2.98427 h -9.45714 v 5.632261 h -3.78287 v -5.632261 h -11.93701 v -2.98427 h 11.93702 v -3.026289 c -3.92998,0 -6.85119,0.16812 -8.78465,0.504381 -0.28373,-1.17689 -0.50439,-2.332744 -0.67252,-3.488625 0.94574,-0.304728 1.74433,-0.819627 2.39583,-1.555191 0.67251,-0.725044 1.39755,-1.891416 2.18566,-3.488625 z m 0,0" style="opacity:1;fill:#ffffff;fill-opacity:1;fill-rule:nonzero;stroke:none;stroke-width:2.69003" />
    <path id="path97" d="m 182.40185,59.762515 c 0.42031,-0.840634 0.90366,-2.154124 1.47111,-3.950987 2.03852,0.619971 3.16287,0.987754 3.36253,1.092826 0.18903,0.08393 0.29423,0.210092 0.29423,0.378299 0,0.147139 -0.1156,0.29421 -0.33624,0.462337 -0.36779,0.231075 -0.87218,0.90369 -1.51315,2.017525 h 5.04382 v 2.732082 h -7.43964 c -0.063,0.483371 -0.14709,0.914181 -0.25205,1.302972 h 5.54819 v 13.870492 h -3.36255 v -1.302974 h -6.76711 v 1.092828 h -3.27847 V 63.797569 h 4.41331 c 0.0839,-0.420319 0.14708,-0.851127 0.2101,-1.302972 h -6.3468 v -2.732082 h 4.4974 c -0.58845,-0.77758 -1.19792,-1.523635 -1.80738,-2.227671 l 3.06833,-1.597207 c 0.75657,0.956226 1.47111,1.975481 2.14361,3.068306 l -1.89142,0.756572 z m -3.951,7.565724 h 6.76711 v -1.092826 h -6.76711 z m 0,3.194418 h 6.76711 v -1.092828 h -6.76711 z m 6.76711,2.227697 h -6.76711 v 1.302974 h 6.76711 z m -11.93702,-10.339821 -3.53067,1.218908 c -0.42033,-1.618217 -1.21891,-3.499143 -2.39581,-5.63226 l 3.40457,-1.4711 c 0.9457,1.765336 1.78634,3.730325 2.52191,5.884452 z m 18.91431,15.257528 c -0.50438,1.061299 -0.88267,2.238189 -1.13486,3.53067 -2.35377,0.02153 -4.43436,0.04197 -6.2207,0.04197 -5.04381,0 -8.35382,-0.168121 -9.91951,-0.504383 -1.57619,-0.336255 -2.648,-0.798617 -3.23646,-1.387063 -0.28372,-0.315218 -0.49387,-0.462336 -0.63045,-0.462336 -0.14708,0 -0.29424,0.05245 -0.46238,0.16812 -0.14707,0.105174 -0.49385,0.462337 -1.05076,1.050781 -0.56745,0.609482 -0.99827,1.134872 -1.30301,1.555189 -1.09283,-1.092825 -2.03854,-2.133116 -2.81611,-3.110351 1.78633,-1.260954 2.85816,-1.975509 3.19441,-2.143636 0.33626,-0.189102 0.50438,-0.725045 0.50438,-1.597207 v -7.145398 h -3.23646 v -3.194415 h 6.68308 v 9.583249 c 0,1.092826 0.2628,1.933463 0.79857,2.521906 0.52541,0.567438 1.42909,0.935218 2.69005,1.134873 1.28196,0.220582 3.65677,0.336256 7.10338,0.336256 3.46761,0 6.48338,-0.126156 9.03683,-0.378301 z m 0,0" style="opacity:1;fill:#ffffff;fill-opacity:1;fill-rule:nonzero;stroke:none;stroke-width:2.69003" />
    <g transform="matrix(1.7578835,0,0,1.7578835,-50.947166,-407.79895)" style="opacity:1;fill:#ffffff;fill-opacity:1" id="g1648">
      <g style="fill:#ffffff" id="use1646" transform="translate(93.599998,251.16)">
        <path id="path2097" d="m 5.90625,-5.296875 h 3.671875 v 1.21875 h -3.5 c 0.332031,1.105469 0.796875,1.980469 1.390625,2.625 0.601563,0.648437 1.492188,1.230469 2.671875,1.75 -0.398437,0.34375 -0.792969,0.800781 -1.1875,1.375 C 7.234375,0.734375 6.023438,-0.5625 5.328125,-2.21875 4.753906,-0.695313 3.4375,0.617188 1.375,1.734375 1.144531,1.359375 0.769531,0.945313 0.25,0.5 1.59375,-0.0703125 2.546875,-0.695313 3.109375,-1.375 3.671875,-2.0625 4.039063,-2.960938 4.21875,-4.078125 H 0.734375 v -1.21875 H 4.34375 c 0.039063,-0.476563 0.0625,-0.941406 0.0625,-1.390625 0,-0.445313 -0.011719,-0.859375 -0.03125,-1.234375 0.289063,-0.019531 0.609375,-0.03125 0.953125,-0.03125 0.351563,0 0.570313,0.015625 0.65625,0.046875 0.082031,0.03125 0.125,0.078125 0.125,0.140625 0,0.0625 -0.011719,0.132812 -0.03125,0.203125 -0.105469,0.21875 -0.15625,0.625 -0.15625,1.21875 0,0.261719 -0.00781,0.609375 -0.015625,1.046875 z m 0,0" style="fill:#ffffff;stroke:none" />
      </g>
    </g>
    <g transform="matrix(1.7578835,0,0,1.7578835,-50.947166,-407.79895)" style="opacity:1;fill:#ffffff;fill-opacity:1" id="g1652">
      <g style="fill:#ffffff" id="use1650" transform="translate(103.95795,251.16)">
        <path id="path2101" d="m 9.2627322,-7.734375 h 1.2656248 c 0.144531,0 0.21875,0.042969 0.21875,0.125 0,0.042969 -0.01563,0.101562 -0.04687,0.171875 -0.05469,0.148437 -0.07813,0.367187 -0.07813,0.65625 v 3.875 c 0,0.449219 -0.171875,0.757812 -0.515625,0.921875 -0.3359368,0.167969 -0.7890618,0.265625 -1.3593752,0.296875 -0.03125,-0.4375 -0.15625,-0.851563 -0.375,-1.25 0.289063,0.054687 0.488281,0.078125 0.5937504,0.078125 0.101563,0 0.175781,-0.00781 0.21875,-0.03125 C 9.2353882,-2.921875 9.2627322,-3 9.2627322,-3.125 Z M 3.0908568,-6.375 h -1.0625 v -1.0625 h 5.09375 v 1.0625 h -0.75 v 1.203125 h 0.90625 V -4.125 h -0.90625 v 1.890625 h 0.59375 c 0.1875,0 0.28125,0.046875 0.28125,0.140625 0,0.042969 -0.027344,0.109375 -0.078125,0.203125 -0.054687,0.085937 -0.078125,0.230469 -0.078125,0.4375 h 2.9843752 v 1 H 7.0752318 v 0.78125 H 11.075232 V 1.4375 H 1.6846068 V 0.328125 h 4.078125 v -0.78125 h -3.015625 v -1 h 3.015625 v -0.5 h -0.65625 V -4.125 h -0.84375 c -0.074219,0.542969 -0.234375,1.007812 -0.484375,1.390625 -0.25,0.375 -0.621094,0.734375 -1.109375,1.078125 -0.375,-0.289063 -0.730469,-0.53125 -1.0625,-0.71875 0.445313,-0.25 0.78125,-0.507813 1,-0.78125 0.21875,-0.269531 0.359375,-0.59375 0.421875,-0.96875 h -1.296875 v -1.046875 h 1.359375 z m 2.015625,0 h -0.796875 v 1.203125 h 0.796875 z m 2.34375,-0.5625 h 1.140625 c 0.15625,0 0.234375,0.039062 0.234375,0.109375 0,0.074219 -0.027344,0.164062 -0.078125,0.265625 -0.042969,0.09375 -0.0625,0.296875 -0.0625,0.609375 V -3.25 h -1.234375 z m 0,0" style="fill:#ffffff;stroke:none" />
      </g>
    </g>
    <g transform="matrix(1.7578835,0,0,1.7578835,-46.947166,-407.79895)" style="opacity:1;fill:#ffffff;fill-opacity:1" id="g1656">
      <g style="fill:#ffffff" id="use1654" transform="translate(114.21233,251.16)">
        <path id="path2105" d="m 4.2627318,-5.578125 h -2.265625 v -1.15625 h 2.8125 c 0.1875,-0.425781 0.359375,-0.878906 0.515625,-1.359375 0.394531,0.09375 0.75,0.183594 1.0625,0.265625 0.320313,0.085937 0.5,0.136719 0.53125,0.15625 0.039063,0.023437 0.0625,0.0625 0.0625,0.125 0,0.054687 -0.0625,0.132812 -0.1875,0.234375 -0.117187,0.09375 -0.257812,0.289062 -0.421875,0.578125 h 4.1562502 v 1.15625 H 5.7314818 c -0.34375,0.605469 -0.75,1.214844 -1.21875,1.828125 h 1.5625 v -1.40625 h 1.1875 c 0.25,0 0.375,0.058594 0.375,0.171875 0,0.054687 -0.027344,0.132812 -0.078125,0.234375 -0.054687,0.105469 -0.078125,0.4375 -0.078125,1 h 2.5625002 v 1.15625 H 7.4814818 v 1.125 h 3.5156252 v 1.109375 H 7.4814818 v 2.09375 h -1.40625 v -2.09375 h -4.4375 V -1.46875 h 4.4375 v -1.125 c -1.460937,0 -2.546875,0.0625 -3.265625,0.1875 -0.105469,-0.4375 -0.1875,-0.867188 -0.25,-1.296875 0.351563,-0.113281 0.648438,-0.304688 0.890625,-0.578125 0.25,-0.269531 0.519531,-0.703125 0.8125,-1.296875 z m 0,0" style="fill:#ffffff;stroke:none" />
      </g>
    </g>
    <g transform="matrix(1.7578835,0,0,1.7578835,-44.947166,-407.79895)" style="opacity:1;fill:#ffffff;fill-opacity:1" id="g1660">
      <g style="fill:#ffffff" id="use1658" transform="translate(124.67385,251.16)">
        <path id="path2109" d="M 6.7471068,-6.296875 H 5.1377318 V -5.5 h -1.5625 c -0.042969,0.136719 -0.109375,0.328125 -0.203125,0.578125 h 0.921875 c 0.09375,0 0.160156,0.011719 0.203125,0.03125 0.039063,0.023437 0.0625,0.058594 0.0625,0.109375 0,0.042969 -0.011719,0.09375 -0.03125,0.15625 -0.054687,0.148437 -0.078125,0.464844 -0.078125,0.953125 h 0.703125 v 1.03125 h -0.703125 v 0.71875 c 0.175781,-0.0625 0.390625,-0.125 0.640625,-0.1875 -0.023437,0.355469 0,0.703125 0.0625,1.046875 -0.273437,0.0625 -0.507812,0.132812 -0.703125,0.203125 v 2.53125 H 3.3408568 V -0.5 c -0.46875,0.179687 -0.976562,0.382812 -1.515625,0.609375 l -0.453125,-1.3125 c 0.71875,-0.132813 1.375,-0.28125 1.96875,-0.4375 v -1 c -0.574219,0.011719 -1.109375,0.042969 -1.609375,0.09375 -0.117187,-0.445313 -0.203125,-0.804688 -0.265625,-1.078125 0.320313,-0.125 0.640625,-0.75 0.953125,-1.875 h -0.921875 v -1.0625 h 1.203125 c 0.113281,-0.507813 0.203125,-1.007813 0.265625,-1.5 0.769531,0.136719 1.195313,0.226562 1.28125,0.265625 0.09375,0.03125 0.140625,0.085937 0.140625,0.15625 0,0.0625 -0.03125,0.132812 -0.09375,0.203125 -0.167969,0.21875 -0.304687,0.511719 -0.40625,0.875 h 1.171875 V -7.375 h 6.0000002 v 1.078125 H 9.2939822 v 1.125 h 1.5624998 v 5.34375 c 0,0.320313 -0.04297,0.5625 -0.125,0.71875 -0.07422,0.164063 -0.242187,0.296875 -0.5,0.390625 -0.2499998,0.101563 -0.6562498,0.179688 -1.2187498,0.234375 -0.01172,-0.46875 -0.121094,-0.898437 -0.3281254,-1.28125 0.3828134,0.082031 0.6328134,0.125 0.7500004,0.125 0.113281,0 0.1875,-0.027344 0.21875,-0.078125 0.03125,-0.042969 0.04687,-0.121094 0.04687,-0.234375 v -1.15625 l -0.46875,0.328125 C 9.1689822,-1 9.0908572,-1.210938 8.9971072,-1.421875 c -0.125,0.53125 -0.3398444,1.148437 -0.6406254,1.84375 -0.3125,-0.1875 -0.65625,-0.34375 -1.03125,-0.46875 0.269531,-0.46875 0.476563,-0.9375 0.625,-1.40625 -0.1875,-0.21875 -0.3125,-0.351563 -0.375,-0.40625 -0.105469,0.5625 -0.34375,1.230469 -0.71875,2 -0.125,-0.0859375 -0.296875,-0.171875 -0.515625,-0.265625 v 1.671875 h -1.0625 v -6.71875 h 1.484375 z m 1.515625,0 h -0.5 c 0.00781,0.25 0.015625,0.625 0.015625,1.125 h 0.484375 z m -4.921875,1.453125 c -0.1875,0.511719 -0.34375,0.902344 -0.46875,1.171875 h 0.46875 z m 5.9218754,0.703125 c 0,0.375 -0.02344,0.820312 -0.0625,1.328125 0.113281,0.148437 0.28125,0.402344 0.5,0.765625 v -2.09375 z m -1.5000004,0 c 0,0.375 -0.011719,0.714844 -0.03125,1.015625 0.101563,0.105469 0.25,0.25 0.4375,0.4375 0.050781,-0.445313 0.078125,-0.929688 0.078125,-1.453125 z M 6.3408568,-1.1875 c 0.257813,-0.613281 0.394531,-1.597656 0.40625,-2.953125 h -0.40625 z m 0,0" style="fill:#ffffff;stroke:none" />
      </g>
    </g>
  </g>
</svg>
