<?xml version="1.0" encoding="UTF-8"?>
<svg xmlns="http://www.w3.org/2000/svg" xmlns:ns1="http://sodipodi.sourceforge.net/DTD/sodipodi-0.dtd" viewBox="0 0 164.49919 80.691132" height="80.691132" width="164.49919" id="svg11360" version="1.1">
  <defs id="defs11364" />
  <ns1:namedview showgrid="false" id="namedview11362" guidetolerance="10" gridtolerance="10" objecttolerance="10" borderopacity="1" bordercolor="#666666" pagecolor="#ffffff" />
  <g transform="translate(-4.3336746,-2.7577337)" id="g11368">
    <path style="color:#000000;font-style:normal;font-variant:normal;font-weight:normal;font-stretch:normal;font-size:medium;line-height:normal;font-family:sans-serif;font-variant-ligatures:normal;font-variant-position:normal;font-variant-caps:normal;font-variant-numeric:normal;font-variant-alternates:normal;font-variant-east-asian:normal;font-feature-settings:normal;font-variation-settings:normal;text-indent:0;text-align:start;text-decoration:none;text-decoration-line:none;text-decoration-style:solid;text-decoration-color:#000000;letter-spacing:normal;word-spacing:normal;text-transform:none;writing-mode:lr-tb;direction:ltr;text-orientation:mixed;dominant-baseline:auto;baseline-shift:baseline;text-anchor:start;white-space:normal;shape-padding:0;shape-margin:0;inline-size:0;clip-rule:nonzero;display:inline;overflow:visible;visibility:visible;opacity:1;isolation:auto;mix-blend-mode:normal;color-interpolation:sRGB;color-interpolation-filters:linearRGB;solid-color:#000000;solid-opacity:1;vector-effect:none;fill:#ffffff;fill-opacity:1;fill-rule:nonzero;stroke:none;stroke-width:3.03178;stroke-linecap:butt;stroke-linejoin:miter;stroke-miterlimit:4;stroke-dasharray:none;stroke-dashoffset:0;stroke-opacity:1;color-rendering:auto;image-rendering:auto;shape-rendering:auto;text-rendering:auto;enable-background:accumulate;stop-color:#000000;stop-opacity:1" d="m 16.383398,4.523203 c -5.696704,0 -10.2842531,4.5875488 -10.2842531,10.284253 v 56.591683 c 0,5.696704 4.5875491,10.284252 10.2842531,10.284252 H 156.78314 c 5.6967,0 10.28425,-4.587548 10.28425,-10.284252 V 14.807456 c 0,-5.6967042 -4.58755,-10.284253 -10.28425,-10.284253 z" id="path11391" />
    <path style="color:#000000;font-style:normal;font-variant:normal;font-weight:normal;font-stretch:normal;font-size:medium;line-height:normal;font-family:sans-serif;font-variant-ligatures:normal;font-variant-position:normal;font-variant-caps:normal;font-variant-numeric:normal;font-variant-alternates:normal;font-variant-east-asian:normal;font-feature-settings:normal;font-variation-settings:normal;text-indent:0;text-align:start;text-decoration:none;text-decoration-line:none;text-decoration-style:solid;text-decoration-color:#000000;letter-spacing:normal;word-spacing:normal;text-transform:none;writing-mode:lr-tb;direction:ltr;text-orientation:mixed;dominant-baseline:auto;baseline-shift:baseline;text-anchor:start;white-space:normal;shape-padding:0;shape-margin:0;inline-size:0;clip-rule:nonzero;display:inline;overflow:visible;visibility:visible;opacity:1;isolation:auto;mix-blend-mode:normal;color-interpolation:sRGB;color-interpolation-filters:linearRGB;solid-color:#000000;solid-opacity:1;vector-effect:none;fill:#244a38;fill-opacity:1;fill-rule:nonzero;stroke:none;stroke-width:0.5;stroke-linecap:butt;stroke-linejoin:miter;stroke-miterlimit:4;stroke-dasharray:none;stroke-dashoffset:0;stroke-opacity:1;color-rendering:auto;image-rendering:auto;shape-rendering:auto;text-rendering:auto;enable-background:accumulate;stop-color:#000000;stop-opacity:1" d="m 16.383398,3.0077337 c -6.5105319,0 -11.7997234,5.2891895 -11.7997234,11.7997223 v 56.591683 c 0,6.510533 5.2891915,11.799723 11.7997234,11.799723 H 156.78314 c 6.51053,0 11.79972,-5.289191 11.79972,-11.799723 V 14.807456 c 0,-6.5105318 -5.28919,-11.7997223 -11.79972,-11.7997223 z m 0,3.0309395 H 156.78314 c 4.88288,0 8.76878,3.8859061 8.76878,8.7687828 v 56.591683 c 0,4.882877 -3.8859,8.768783 -8.76878,8.768783 H 16.383398 c -4.882876,0 -8.7687828,-3.885906 -8.7687828,-8.768783 V 14.807456 c 0,-4.8828757 3.8859078,-8.7687828 8.7687828,-8.7687828 z" id="path11393" />
    <path id="path11374" style="color:#000000;font-style:normal;font-variant:normal;font-weight:normal;font-stretch:normal;font-size:medium;line-height:normal;font-family:sans-serif;font-variant-ligatures:normal;font-variant-position:normal;font-variant-caps:normal;font-variant-numeric:normal;font-variant-alternates:normal;font-variant-east-asian:normal;font-feature-settings:normal;font-variation-settings:normal;text-indent:0;text-align:start;text-decoration:none;text-decoration-line:none;text-decoration-style:solid;text-decoration-color:#000000;letter-spacing:normal;word-spacing:normal;text-transform:none;writing-mode:lr-tb;direction:ltr;text-orientation:mixed;dominant-baseline:auto;baseline-shift:baseline;text-anchor:start;white-space:normal;shape-padding:0;shape-margin:0;inline-size:0;clip-rule:nonzero;display:inline;overflow:visible;visibility:visible;opacity:1;isolation:auto;mix-blend-mode:normal;color-interpolation:sRGB;color-interpolation-filters:linearRGB;solid-color:#000000;solid-opacity:1;vector-effect:none;fill:#244a38;fill-opacity:1;fill-rule:nonzero;stroke:none;stroke-width:3.03178;stroke-linecap:butt;stroke-linejoin:miter;stroke-miterlimit:4;stroke-dasharray:none;stroke-dashoffset:0;stroke-opacity:1;color-rendering:auto;image-rendering:auto;shape-rendering:auto;text-rendering:auto;enable-background:accumulate;stop-color:#000000;stop-opacity:1" d="m 16.377471,9.1367922 c -3.128442,0 -5.646955,2.5381718 -5.646955,5.6785678 v 56.589707 c 0,3.130854 2.516101,5.646953 5.646955,5.646953 H 156.79301 c 3.13086,0 5.64696,-2.516097 5.64696,-5.646953 V 14.81536 c 0,-3.140398 -2.51851,-5.6785678 -5.64696,-5.6785678 z" />
    <g id="g341" style="opacity:1;fill:#ffffff;fill-opacity:1" transform="matrix(1.3333333,0,0,1.3333333,-192.20275,-186.2389)">
      <g style="fill:#ffffff" transform="translate(161.28,180.12001)" id="use339">
        <path style="fill:#ffffff;stroke:none" d="m 17.125,-15.109375 h 8 v 2.9375 h -2.515625 c -0.230469,4.21875 -1.105469,7.570312 -2.625,10.046875 1.46875,1.542969 3.398438,2.773438 5.796875,3.703125 C 24.976563,2.429688 24.164063,3.445313 23.34375,4.625 21.207031,3.3125 19.460938,1.910156 18.109375,0.421875 c -1.304687,1.394531 -3,2.6875 -5.09375,3.875 C 12.523438,3.742188 11.851563,3.109375 11,2.390625 V 4.375 H 7.640625 v -7.5 c -2.105469,0.949219 -3.804687,1.789062 -5.09375,2.515625 L 1,-3.4375 C 1.414063,-3.769531 1.71875,-4.082031 1.90625,-4.375 2.101563,-4.675781 2.203125,-5.160156 2.203125,-5.828125 V -16.5 h 2.90625 c 0.4375,0 0.65625,0.105469 0.65625,0.3125 0,0.105469 -0.03125,0.234375 -0.09375,0.390625 -0.15625,0.386719 -0.234375,1.078125 -0.234375,2.078125 v 8.78125 c 0.957031,-0.5 1.691406,-0.910156 2.203125,-1.234375 V -19.78125 H 10.4375 c 0.332031,0 0.546875,0.02734 0.640625,0.07813 0.101563,0.05469 0.15625,0.136719 0.15625,0.25 0,0.117187 -0.04297,0.277344 -0.125,0.484375 C 11.035156,-18.757813 11,-17.921875 11,-16.453125 V -8.6875 c 1.5,-2.1875 2.84375,-6.015625 4.03125,-11.484375 1.820313,0.492187 2.925781,0.820312 3.3125,0.984375 0.394531,0.167969 0.59375,0.324219 0.59375,0.46875 0,0.136719 -0.121094,0.308594 -0.359375,0.515625 -0.230469,0.210937 -0.714844,1.242187 -1.453125,3.09375 z m 2.234375,2.9375 H 16.15625 c 0.226563,2.699219 0.804688,5.027344 1.734375,6.984375 0.925781,-2.050781 1.414063,-4.378906 1.46875,-6.984375 z M 13.9375,-7.84375 c -0.355469,0.625 -0.683594,1.132812 -0.984375,1.515625 C 12.304688,-6.847656 11.65625,-7.289063 11,-7.65625 v 9.25 C 13.019531,0.664063 14.710938,-0.613281 16.078125,-2.25 15.066406,-3.96875 14.351563,-5.832031 13.9375,-7.84375 Z m 0,0" id="path5646" />
      </g>
    </g>
    <g id="g345" style="opacity:1;fill:#ffffff;fill-opacity:1" transform="matrix(1.3333333,0,0,1.3333333,-192.20275,-186.2389)">
      <g style="fill:#ffffff" transform="translate(187.51259,180.12001)" id="use343">
        <path style="fill:#ffffff;stroke:none" d="M 26.602977,-0.234375 V -4.28125 h -9.625 V 0.421875 H 13.587352 V -4.90625 l -1.828125,0.734375 C 11.216258,-5.117188 10.435008,-6.0625 9.4154774,-7 12.39204,-7.300781 14.477977,-7.984375 15.665477,-9.046875 h -3.9375 L 12.071727,-14.75 h 5.4375 v -1.015625 h -6.375 v -2.515625 h 6.375 v -1.859375 h 2.796875 c 0.507813,0 0.765625,0.132812 0.765625,0.390625 0,0.105469 -0.04687,0.257812 -0.140625,0.453125 -0.08594,0.199219 -0.152344,0.539062 -0.203125,1.015625 h 2 v -2 h 2.78125 c 0.4375,0 0.65625,0.140625 0.65625,0.421875 0,0.08594 -0.03906,0.257812 -0.109375,0.515625 -0.07422,0.25 -0.125,0.605469 -0.15625,1.0625 h 5.84375 l -0.234375,5.734375 h -5.609375 v 1.109375 h 7.296875 l -0.140625,3.5625 c -0.03125,0.84375 -0.3125,1.421875 -0.84375,1.734375 -0.523437,0.304687 -1.234375,0.511719 -2.140625,0.625 v 5.359375 h -3.25 c 1.832031,0.613281 3.765625,1.296875 5.796875,2.046875 l -2.046875,2.8125 C 27.790477,3.347656 24.868602,2.164063 21.806102,1.15625 l 1.515625,-2.4375 z m -0.703125,-15.53125 V -14.75 h 2.46875 l 0.09375,-1.015625 z M 22.727977,-14.75 v -1.015625 H 20.681102 L 20.649852,-14.75 Z m -5.59375,3.3125 c 0.101563,-0.351563 0.179688,-0.722656 0.234375,-1.109375 h -2.328125 l -0.07813,1.109375 z m 5.59375,0 v -1.109375 h -2.265625 c -0.0625,0.492187 -0.121094,0.859375 -0.171875,1.109375 z m -5.4375,4.59375 h 11.171875 c -0.105469,-0.539063 -0.3125,-1.078125 -0.625,-1.609375 C 28.731883,-8.148438 29.278758,-8 29.477977,-8 c 0.195313,0 0.304688,-0.125 0.328125,-0.375 l 0.03125,-0.671875 h -3.9375 v 1.96875 h -3.171875 v -1.96875 h -3.328125 c -0.5,0.824219 -1.203125,1.558594 -2.109375,2.203125 z m 2.703125,2.796875 c 0.945313,0.042969 1.769531,0.101562 2.46875,0.171875 0.695313,0.0625 1.109375,0.125 1.234375,0.1875 0.125,0.0625 0.1875,0.15625 0.1875,0.28125 0,0.117187 -0.07422,0.273437 -0.21875,0.46875 C 23.247508,-2.375 22.696727,-1.394531 22.009227,0 21.45454,1.113281 20.313915,2.066406 18.587352,2.859375 16.868602,3.660156 14.634227,4.238281 11.884227,4.59375 11.497508,3.625 10.790477,2.59375 9.7592274,1.5 13.290477,1.550781 15.821727,1.15625 17.352977,0.3125 c 1.53125,-0.832031 2.410156,-2.285156 2.640625,-4.359375 z m 0,0" id="path5650" />
      </g>
    </g>
    <g id="g349" style="opacity:1;fill:#ffffff;fill-opacity:1" transform="matrix(1.3333333,0,0,1.3333333,-181.30255,-186.2389)">
      <g style="fill:#ffffff" transform="translate(213.74519,180.12001)" id="use347">
        <path style="fill:#ffffff;stroke:none" d="m 23.634227,2.25 v 2.078125 h -3.09375 v -13.03125 h 3.78125 V -19.96875 h 2.9375 c 0.414063,0 0.625,0.08594 0.625,0.25 0,0.167969 -0.04297,0.375 -0.125,0.625 -0.125,0.449219 -0.1875,1.648437 -0.1875,3.59375 h 6.171875 v 2.90625 h -6.171875 v 3.890625 h 4.828125 v 13.03125 h -3.28125 V 2.25 Z m 5.484375,-2.640625 V -5.84375 h -5.484375 v 5.453125 z M 14.321728,-15.21875 h 6.546874 V -12.375 H 9.6342276 v -2.84375 h 4.5625004 c -0.230469,-1.238281 -0.589844,-2.550781 -1.078125,-3.9375 l 3.390624,-0.78125 c 0.382813,1.085937 0.707031,2.398437 0.96875,3.9375 z M 17.915477,-2.5 c 0.988281,-0.238281 1.71875,-0.425781 2.1875,-0.5625 0.01953,0.835937 0.125,1.730469 0.3125,2.6875 -4.011719,0.925781 -7.386718,1.910156 -10.124999,2.953125 L 9.1342276,-0.8125 c 2.6445314,-0.457031 4.6757814,-0.828125 6.0937494,-1.109375 0.539063,-3.4375 0.863281,-6.738281 0.96875,-9.90625 2.144531,0.15625 3.300781,0.261719 3.46875,0.3125 0.164063,0.05469 0.25,0.140625 0.25,0.265625 0,0.117187 -0.109375,0.367187 -0.328125,0.75 -0.21875,0.375 -0.421875,1.105469 -0.609375,2.1875 z m -4.218749,-8.859375 c 0.332031,2.210937 0.628906,5.042969 0.890624,8.5 L 11.759228,-2.5 c -0.261719,-3.019531 -0.648437,-5.796875 -1.15625,-8.328125 z m 0,0" id="path5654" />
      </g>
    </g>
  </g>
</svg>
