<?xml version="1.0" encoding="UTF-8"?>
<svg xmlns="http://www.w3.org/2000/svg" xmlns:ns1="http://sodipodi.sourceforge.net/DTD/sodipodi-0.dtd" viewBox="0 0 103.08702 88.091484" height="88.091484" width="103.08702" id="svg938" version="1.1">
  <defs id="defs942" />
  <ns1:namedview showguides="true" showgrid="false" id="namedview940" guidetolerance="10" gridtolerance="10" objecttolerance="10" borderopacity="1" bordercolor="#666666" pagecolor="#ffffff">
    <ns1:guide id="guide1949" orientation="0.70710678,-0.70710678" position="65.103304,68.734327" />
    <ns1:guide id="guide1951" orientation="0.70710678,-0.70710678" position="37.985961,68.734328" />
    <ns1:guide id="guide1953" orientation="-0.70710678,-0.70710678" position="65.103304,68.734327" />
    <ns1:guide id="guide1955" orientation="-0.70710678,-0.70710678" position="37.985961,68.734328" />
    <ns1:guide id="guide1957" orientation="1,0" position="7.483353,11.114376" />
    <ns1:guide id="guide1959" orientation="1,0" position="-253.53612,3.4738047" />
    <ns1:guide id="guide1961" orientation="0,-1" position="53.110843,11.114376" />
    <ns1:guide id="guide1963" orientation="1,0" position="95.605913,11.114376" />
  </ns1:namedview>
  <g transform="translate(-7.66753,-1.6226066)" id="g946">
    <path style="color:#000000;font-style:normal;font-variant:normal;font-weight:normal;font-stretch:normal;font-size:medium;line-height:normal;font-family:sans-serif;font-variant-ligatures:normal;font-variant-position:normal;font-variant-caps:normal;font-variant-numeric:normal;font-variant-alternates:normal;font-variant-east-asian:normal;font-feature-settings:normal;font-variation-settings:normal;text-indent:0;text-align:start;text-decoration:none;text-decoration-line:none;text-decoration-style:solid;text-decoration-color:#000000;letter-spacing:normal;word-spacing:normal;text-transform:none;writing-mode:lr-tb;direction:ltr;text-orientation:mixed;dominant-baseline:auto;baseline-shift:baseline;text-anchor:start;white-space:normal;shape-padding:0;shape-margin:0;inline-size:0;clip-rule:nonzero;display:inline;overflow:visible;visibility:visible;opacity:1;isolation:auto;mix-blend-mode:normal;color-interpolation:sRGB;color-interpolation-filters:linearRGB;solid-color:#000000;solid-opacity:1;vector-effect:none;fill:#ffffff;fill-opacity:1;fill-rule:nonzero;stroke:none;stroke-width:1.71562;stroke-linecap:butt;stroke-linejoin:miter;stroke-miterlimit:4;stroke-dasharray:none;stroke-dashoffset:0;stroke-opacity:1;color-rendering:auto;image-rendering:auto;shape-rendering:auto;text-rendering:auto;enable-background:accumulate;stop-color:#000000;stop-opacity:1" d="m 14.486243,2.6216523 c -3.223658,0 -5.8196668,2.5960083 -5.8196668,5.8196671 V 82.895379 c 0,3.223656 2.5960088,5.819665 5.8196668,5.819665 h 89.449597 c 3.22366,0 5.81967,-2.596009 5.81967,-5.819665 V 8.4413194 c 0,-3.2236588 -2.59601,-5.8196671 -5.81967,-5.8196671 z" id="path11391" />
    <path style="color:#000000;font-style:normal;font-variant:normal;font-weight:normal;font-stretch:normal;font-size:medium;line-height:normal;font-family:sans-serif;font-variant-ligatures:normal;font-variant-position:normal;font-variant-caps:normal;font-variant-numeric:normal;font-variant-alternates:normal;font-variant-east-asian:normal;font-feature-settings:normal;font-variation-settings:normal;text-indent:0;text-align:start;text-decoration:none;text-decoration-line:none;text-decoration-style:solid;text-decoration-color:#000000;letter-spacing:normal;word-spacing:normal;text-transform:none;writing-mode:lr-tb;direction:ltr;text-orientation:mixed;dominant-baseline:auto;baseline-shift:baseline;text-anchor:start;white-space:normal;shape-padding:0;shape-margin:0;inline-size:0;clip-rule:nonzero;display:inline;overflow:visible;visibility:visible;opacity:1;isolation:auto;mix-blend-mode:normal;color-interpolation:sRGB;color-interpolation-filters:linearRGB;solid-color:#000000;solid-opacity:1;vector-effect:none;fill:#253898;fill-opacity:1;fill-rule:nonzero;stroke:none;stroke-width:0.28294;stroke-linecap:butt;stroke-linejoin:miter;stroke-miterlimit:4;stroke-dasharray:none;stroke-dashoffset:0;stroke-opacity:1;color-rendering:auto;image-rendering:auto;shape-rendering:auto;text-rendering:auto;enable-background:accumulate;stop-color:#000000;stop-opacity:1" d="M 14.486243,1.7640766 C 10.802055,1.7640766 7.809,4.75713 7.809,8.4413194 V 82.895379 c 0,3.684187 2.993055,6.677242 6.677243,6.677242 h 89.449597 c 3.68419,0 6.67724,-2.993055 6.67724,-6.677242 V 8.4413194 c 0,-3.6841888 -2.99305,-6.6772428 -6.67724,-6.6772428 z m 0,1.7151519 h 89.449597 c 2.76313,0 4.96209,2.1989617 4.96209,4.9620909 V 82.895379 c 0,2.763125 -2.19896,4.962088 -4.96209,4.962088 H 14.486243 c -2.763128,0 -4.96209,-2.198963 -4.96209,-4.962088 V 8.4413194 c 0,-2.7631287 2.198963,-4.9620909 4.96209,-4.9620909 z" id="path11393" />
    <path id="path11374" style="color:#000000;font-style:normal;font-variant:normal;font-weight:normal;font-stretch:normal;font-size:medium;line-height:normal;font-family:sans-serif;font-variant-ligatures:normal;font-variant-position:normal;font-variant-caps:normal;font-variant-numeric:normal;font-variant-alternates:normal;font-variant-east-asian:normal;font-feature-settings:normal;font-variation-settings:normal;text-indent:0;text-align:start;text-decoration:none;text-decoration-line:none;text-decoration-style:solid;text-decoration-color:#000000;letter-spacing:normal;word-spacing:normal;text-transform:none;writing-mode:lr-tb;direction:ltr;text-orientation:mixed;dominant-baseline:auto;baseline-shift:baseline;text-anchor:start;white-space:normal;shape-padding:0;shape-margin:0;inline-size:0;clip-rule:nonzero;display:inline;overflow:visible;visibility:visible;opacity:1;isolation:auto;mix-blend-mode:normal;color-interpolation:sRGB;color-interpolation-filters:linearRGB;solid-color:#000000;solid-opacity:1;vector-effect:none;fill:#253898;fill-opacity:1;fill-rule:nonzero;stroke:none;stroke-width:1.71562;stroke-linecap:butt;stroke-linejoin:miter;stroke-miterlimit:4;stroke-dasharray:none;stroke-dashoffset:0;stroke-opacity:1;color-rendering:auto;image-rendering:auto;shape-rendering:auto;text-rendering:auto;enable-background:accumulate;stop-color:#000000;stop-opacity:1" d="m 14.48289,5.2323962 c -1.770327,0 -3.195506,1.4363044 -3.195506,3.2133959 V 82.898735 c 0,1.771689 1.423814,3.195503 3.195506,3.195503 h 89.45854 c 1.77169,0 3.19551,-1.423814 3.19551,-3.195503 V 8.4457921 c 0,-1.7770927 -1.42518,-3.2133959 -3.19551,-3.2133959 z" />
    <g style="opacity:1" id="g1245">
      <path d="m 45.222298,43.463869 c -2.464208,0 -3.272661,1.232397 -3.272661,2.763196 0,1.530796 1.983785,2.76311 4.447993,2.76311 h 2.758083 v 0.01719 h 13.954291 c 1.056089,0 1.906329,0.850173 1.906329,1.906248 0,1.056092 -0.85024,1.906327 -1.906329,1.906327 H 48.196951 v 0.0024 H 34.038465 c -1.228446,0 -2.217443,0.988931 -2.217443,2.217361 0,1.228446 0.988997,2.217443 2.217443,2.217443 H 48.196951 V 60.8422 H 30.43759 c -1.228429,0 -2.21736,0.988996 -2.217365,2.217443 5e-6,1.228425 0.988936,2.21736 2.217365,2.21736 h 17.759361 v 2.603124 H 32.565365 c -1.228446,0 -2.217365,0.988919 -2.217365,2.217361 0,1.228447 0.988919,2.217443 2.217365,2.217443 h 15.631586 v 2.054252 H 39.91137 c -1.153764,0 -2.082624,0.92886 -2.082624,2.082627 0,1.153764 0.92886,2.082537 2.082624,2.082542 h 8.285581 10.665659 1.64635 3.330044 C 68.544018,78.2655 72.933256,75.660447 75.459909,71.859246 H 90.204098 V 50.248152 H 74.327492 c -1.811402,-4.05176 -5.299768,-6.784271 -9.323859,-6.784271 h -5.975359 c -0.0018,-4e-6 -0.0036,0 -0.0054,0 z m 24.959763,2.855656 c 0,0 1.073435,1.012973 1.558954,1.557555 1.089861,1.22245 2.973108,3.880766 2.973108,3.880766 L 68.24472,62.455309 63.896625,56.668072 Z m 5.252908,4.397088 h 7.982542 V 71.346976 H 75.434969 Z M 74.725633,53.2514 v 18.140649 l -6.163484,-8.266485 z m -25.786019,0.222414 h 11.428858 l 13.521633,18.054972 0.436026,0.588984 c 0,0 -1.940823,2.129115 -3.094528,2.975853 -1.648552,1.209922 -3.256061,1.920422 -5.585445,2.493631 z m 0.07568,1.489561 7.537887,10.607795 -7.537887,11.466818 z m 8.053587,11.037348 7.617407,11.650067 H 49.45148 Z" style="opacity:1;fill:#ffffff;fill-rule:evenodd;stroke-width:0.186221" id="rect1191" />
      <path d="m 54.69265,11.940671 v 9.039092 h -9.039159 v 9.03909 h 9.039159 v 9.039158 h 9.039092 v -9.039158 h 9.039092 v -9.03909 h -9.039092 v -9.039092 z" style="fill:#c0111e;fill-opacity:1;stroke:none;stroke-width:0.00898288;stroke-miterlimit:10;stroke-dasharray:none;stroke-opacity:1" id="rect1934" />
    </g>
  </g>
</svg>
