<?xml version="1.0" encoding="UTF-8"?>
<svg xmlns="http://www.w3.org/2000/svg" xmlns:ns1="http://sodipodi.sourceforge.net/DTD/sodipodi-0.dtd" version="1.1" id="svg101" width="193.94547" height="134.33691" viewBox="0 0 193.94547 134.33691">
  <defs id="defs105" />
  <ns1:namedview pagecolor="#ffffff" bordercolor="#666666" borderopacity="1" objecttolerance="10" gridtolerance="10" guidetolerance="10" id="namedview103" showgrid="false" />
  <g id="g109" transform="translate(-5.929681,-3.551263)">
    <path id="path81" d="M 15.902782,5.0505159 H 189.90137 c 4.69453,0 8.47386,3.7793447 8.47386,8.4738851 V 127.91606 c 0,4.69454 -3.77933,8.47388 -8.47386,8.47388 H 15.902782 c -4.694542,0 -8.4738878,-3.77934 -8.4738878,-8.47388 V 13.524401 c 0,-4.6945404 3.7793458,-8.4738851 8.4738878,-8.4738851 z" style="color:#000000;font-style:normal;font-variant:normal;font-weight:normal;font-stretch:normal;font-size:medium;line-height:normal;font-family:sans-serif;font-variant-ligatures:normal;font-variant-position:normal;font-variant-caps:normal;font-variant-numeric:normal;font-variant-alternates:normal;font-variant-east-asian:normal;font-feature-settings:normal;font-variation-settings:normal;text-indent:0;text-align:start;text-decoration:none;text-decoration-line:none;text-decoration-style:solid;text-decoration-color:#000000;letter-spacing:normal;word-spacing:normal;text-transform:none;writing-mode:lr-tb;direction:ltr;text-orientation:mixed;dominant-baseline:auto;baseline-shift:baseline;text-anchor:start;white-space:normal;shape-padding:0;shape-margin:0;inline-size:0;clip-rule:nonzero;display:inline;overflow:visible;visibility:visible;opacity:1;isolation:auto;mix-blend-mode:normal;color-interpolation:sRGB;color-interpolation-filters:linearRGB;solid-color:#000000;solid-opacity:1;vector-effect:none;fill:#000000;fill-opacity:1;fill-rule:nonzero;stroke:none;stroke-width:2.49843;stroke-linecap:butt;stroke-linejoin:miter;stroke-miterlimit:4;stroke-dasharray:none;stroke-dashoffset:0;stroke-opacity:1;color-rendering:auto;image-rendering:auto;shape-rendering:auto;text-rendering:auto;enable-background:accumulate;stop-color:#000000;stop-opacity:1" />
    <path id="path83" d="m 15.902011,3.801263 c -5.364989,0 -9.72233,4.3573276 -9.72233,9.722329 V 127.91583 c 0,5.36499 4.357341,9.72234 9.72233,9.72234 H 189.90073 c 5.365,0 9.72441,-4.35734 9.72441,-9.72233 V 13.523592 c 0,-5.3650014 -4.35941,-9.722329 -9.72441,-9.722329 z m 0,2.4985983 H 189.90073 c 4.02408,0 7.22579,3.1996514 7.2258,7.2237307 V 127.91583 c 0,4.02408 -3.20172,7.22581 -7.2258,7.22581 H 15.902011 c -4.024067,0 -7.2237317,-3.20172 -7.2237317,-7.22581 V 13.523592 c 0,-4.0240793 3.1996647,-7.2237307 7.2237317,-7.2237307 z" style="color:#000000;font-style:normal;font-variant:normal;font-weight:normal;font-stretch:normal;font-size:medium;line-height:normal;font-family:sans-serif;font-variant-ligatures:normal;font-variant-position:normal;font-variant-caps:normal;font-variant-numeric:normal;font-variant-alternates:normal;font-variant-east-asian:normal;font-feature-settings:normal;font-variation-settings:normal;text-indent:0;text-align:start;text-decoration:none;text-decoration-line:none;text-decoration-style:solid;text-decoration-color:#000000;letter-spacing:normal;word-spacing:normal;text-transform:none;writing-mode:lr-tb;direction:ltr;text-orientation:mixed;dominant-baseline:auto;baseline-shift:baseline;text-anchor:start;white-space:normal;shape-padding:0;shape-margin:0;inline-size:0;clip-rule:nonzero;display:inline;overflow:visible;visibility:visible;opacity:1;isolation:auto;mix-blend-mode:normal;color-interpolation:sRGB;color-interpolation-filters:linearRGB;solid-color:#000000;solid-opacity:1;vector-effect:none;fill:#ffee33;fill-opacity:1;fill-rule:nonzero;stroke:none;stroke-width:0.5;stroke-linecap:butt;stroke-linejoin:miter;stroke-miterlimit:4;stroke-dasharray:none;stroke-dashoffset:0;stroke-opacity:1;color-rendering:auto;image-rendering:auto;shape-rendering:auto;text-rendering:auto;enable-background:accumulate;stop-color:#000000;stop-opacity:1" />
    <path id="path75" style="color:#000000;font-style:normal;font-variant:normal;font-weight:normal;font-stretch:normal;font-size:medium;line-height:normal;font-family:sans-serif;font-variant-ligatures:normal;font-variant-position:normal;font-variant-caps:normal;font-variant-numeric:normal;font-variant-alternates:normal;font-variant-east-asian:normal;font-feature-settings:normal;font-variation-settings:normal;text-indent:0;text-align:start;text-decoration:none;text-decoration-line:none;text-decoration-style:solid;text-decoration-color:#000000;letter-spacing:normal;word-spacing:normal;text-transform:none;writing-mode:lr-tb;direction:ltr;text-orientation:mixed;dominant-baseline:auto;baseline-shift:baseline;text-anchor:start;white-space:normal;shape-padding:0;shape-margin:0;inline-size:0;clip-rule:nonzero;display:inline;overflow:visible;visibility:visible;opacity:1;isolation:auto;mix-blend-mode:normal;color-interpolation:sRGB;color-interpolation-filters:linearRGB;solid-color:#000000;solid-opacity:1;vector-effect:none;fill:#ffee33;fill-opacity:1;fill-rule:nonzero;stroke:none;stroke-width:2.49843;stroke-linecap:butt;stroke-linejoin:miter;stroke-miterlimit:4;stroke-dasharray:none;stroke-dashoffset:0;stroke-opacity:1;color-rendering:auto;image-rendering:auto;shape-rendering:auto;text-rendering:auto;enable-background:accumulate;stop-color:#000000;stop-opacity:1" d="m 15.89719,8.8533375 c -2.578124,0 -4.654933,2.0908495 -4.654933,4.6789275 v 54.87549 H 194.56399 v -54.87549 c 0,-2.588078 -2.07682,-4.6789275 -4.65493,-4.6789275 z M 11.242257,70.962245 v 56.956945 c 0,2.5802 2.074739,4.65494 4.654933,4.65494 h 174.01187 c 2.58019,0 4.65493,-2.07473 4.65493,-4.65494 V 70.962245 Z" />
    <g id="g771" style="opacity:1;fill:#000000;fill-opacity:1" transform="matrix(2.924179,0,0,2.924179,-248.2534,-369.17533)">
      <g transform="translate(93.599998,142.44)" id="use769">
        <path style="stroke:none" d="m 4.390625,-5.578125 c 0.425781,-0.613281 0.78125,-1.429688 1.0625,-2.453125 0.6875,0.179687 1.09375,0.292969 1.21875,0.34375 0.132813,0.054687 0.203125,0.109375 0.203125,0.171875 0,0.0625 -0.042969,0.125 -0.125,0.1875 -0.085937,0.0625 -0.171875,0.167969 -0.265625,0.3125 h 2.875 C 8.992188,-5.753906 8.453125,-4.75 7.734375,-4 c 0.6875,0.40625 1.503906,0.699219 2.453125,0.875 -0.40625,0.492187 -0.695312,0.902344 -0.859375,1.234375 -1.105469,-0.394531 -1.96875,-0.816406 -2.59375,-1.265625 -0.667969,0.480469 -1.46875,0.902344 -2.40625,1.265625 -0.105469,-0.175781 -0.21875,-0.34375 -0.34375,-0.5 -0.03125,0.1875 -0.058594,0.5 -0.078125,0.9375 -1.230469,0.179687 -2.210937,0.355469 -2.9375,0.53125 -0.117187,-0.375 -0.21875,-0.789063 -0.3125,-1.25 C 0.925781,-2.273438 1.144531,-2.414063 1.3125,-2.59375 1.476563,-2.769531 1.734375,-3.125 2.078125,-3.65625 1.679688,-3.601563 1.257813,-3.515625 0.8125,-3.390625 0.6875,-3.753906 0.570313,-4.15625 0.46875,-4.59375 0.695313,-4.707031 0.863281,-4.84375 0.96875,-5 1.070313,-5.15625 1.234375,-5.507813 1.453125,-6.0625 1.679688,-6.613281 1.882813,-7.234375 2.0625,-7.921875 c 0.78125,0.230469 1.21875,0.367187 1.3125,0.40625 0.09375,0.03125 0.140625,0.085937 0.140625,0.15625 0,0.0625 -0.042969,0.136719 -0.125,0.21875 -0.085937,0.085937 -0.148437,0.164062 -0.1875,0.234375 -0.042969,0.0625 -0.199219,0.371094 -0.46875,0.921875 -0.273437,0.542969 -0.492187,0.976562 -0.65625,1.296875 0.132813,0 0.363281,-0.015625 0.6875,-0.046875 0.21875,-0.375 0.441406,-0.800781 0.671875,-1.28125 z m 1.5625,-0.390625 C 5.910156,-5.882813 5.875,-5.820313 5.84375,-5.78125 6.09375,-5.375 6.394531,-5.015625 6.75,-4.703125 7.082031,-5.035156 7.378906,-5.457031 7.640625,-5.96875 Z m -0.75,1.171875 c -0.136719,0.199219 -0.339844,0.4375 -0.609375,0.71875 -0.148437,-0.132813 -0.324219,-0.269531 -0.53125,-0.40625 -0.09375,0.136719 -0.152344,0.21875 -0.171875,0.25 -0.492187,0.742187 -0.96875,1.371094 -1.4375,1.890625 0.34375,-0.039063 0.800781,-0.125 1.375,-0.25 C 3.703125,-2.738281 3.570313,-2.875 3.4375,-3 c 1.03125,-0.300781 1.828125,-0.617188 2.390625,-0.953125 -0.199219,-0.21875 -0.40625,-0.5 -0.625,-0.84375 z m 3.28125,3.5 L 7.8125,-0.25 C 7.144531,-0.664063 6.304688,-1.054688 5.296875,-1.421875 L 5.953125,-2.4375 c 0.894531,0.34375 1.738281,0.726562 2.53125,1.140625 z m -4.4375,0.25 C 4.035156,-0.929688 4.03125,-0.78125 4.03125,-0.59375 c 0,0.1875 0.019531,0.40625 0.0625,0.65625 C 2.789063,0.507813 1.726563,0.898438 0.90625,1.234375 L 0.4375,-0.09375 C 1.570313,-0.3125 2.773438,-0.628906 4.046875,-1.046875 Z m 5,1.609375 L 8.375,1.796875 C 7.257813,1.328125 5.921875,0.878906 4.359375,0.453125 L 4.96875,-0.703125 C 6.457031,-0.285156 7.816406,0.132813 9.046875,0.5625 Z m 0,0" id="path868" />
      </g>
    </g>
    <g id="g775" style="opacity:1;fill:#000000;fill-opacity:1" transform="matrix(2.924179,0,0,2.924179,-248.2534,-369.17533)">
      <g transform="translate(103.95795,142.44)" id="use773">
        <path style="stroke:none" d="m 7.749173,-6.859375 h 3.796877 v 1.1875 H 7.749173 v 0.828125 h 2.890628 v 3.578125 H 3.921048 V -4.84375 h 2.421875 v -3.140625 h 1.25 c 0.125,0 0.203125,0.011719 0.234375,0.03125 0.03125,0.023437 0.046875,0.058594 0.046875,0.109375 0,0.042969 -0.023437,0.121094 -0.0625,0.234375 -0.042969,0.105469 -0.0625,0.355469 -0.0625,0.75 z M 9.217923,-2.375 V -3.734375 H 5.249173 V -2.375 Z m 2.79688,3.453125 -1.375002,0.578125 C 10.397613,0.976563 10.018704,0.25 9.499173,-0.53125 L 10.749176,-1.125 c 0.414063,0.648437 0.835937,1.378906 1.265627,2.203125 z M 4.733548,-0.59375 C 4.452298,0.320313 4.069486,1.109375 3.592923,1.765625 3.018704,1.503906 2.5929231,1.332031 2.311673,1.25 2.7999541,0.664063 3.174954,-0.0820313 3.436673,-1 Z M 9.311673,1.25 l -1.375,0.234375 c -0.148437,-0.6875 -0.355469,-1.3867187 -0.625,-2.09375 L 8.639798,-0.9375 c 0.269531,0.75 0.492188,1.476563 0.671875,2.1875 z M 6.889798,1.421875 5.499173,1.609375 C 5.436673,0.890625 5.303861,0.1875 5.108548,-0.5 l 1.34375,-0.21875 c 0.175781,0.7109375 0.320313,1.421875 0.4375,2.140625 z m 0,0" id="path872" />
      </g>
    </g>
    <g id="g779" style="opacity:1;fill:#000000;fill-opacity:1" transform="matrix(2.924179,0,0,2.924179,-242.45315,-369.17533)">
      <g transform="translate(114.21233,142.44)" id="use777">
        <path style="stroke:none;stroke-width:1.29625" d="M 9.3191476,1.9017316 H 4.0916385 c 0.053425,-1.17910846 0.2178126,-2.14610287 0.4931612,-2.89474341 0.2835675,-0.76111869 0.6246709,-1.37250779 1.0192,-1.82169199 0.4027488,-0.4616624 0.9123487,-0.8546975 1.5287998,-1.1728701 0.25069,-0.1122969 0.4479546,-0.2807398 0.5917935,-0.4990937 0.1520578,-0.2308305 0.2301419,-0.474139 0.2301419,-0.7236859 0,-0.2495468 -0.1232898,-0.474139 -0.3616515,-0.6737764 -0.230142,-0.1996375 -0.5219293,-0.2994563 -0.8712516,-0.2994563 -0.6370002,0 -1.212355,0.3368875 -1.7260644,0.9981874 l -0.9041289,-1.422417 c 0.4274064,-0.511572 0.846594,-0.8983688 1.2657805,-1.1479156 0.4150772,-0.2495469 0.8876903,-0.3743203 1.413729,-0.3743203 0.7972778,0 1.4055098,0.2745015 1.8246965,0.8235046 0.4274066,0.5365251 0.6411098,1.2165414 0.6411098,2.0462843 0,0.8359811 -0.1767168,1.5159974 -0.5260387,2.0462841 -0.3534317,0.5365247 -0.9657745,1.0231419 -1.8411354,1.4723264 -0.4397357,0.2495468 -0.8342647,0.79854986 -1.183587,1.64700913 h 3.6329544 z m 0,0" id="path876" />
      </g>
    </g>
    <g id="g783" style="opacity:1;fill:#000000;fill-opacity:1" transform="matrix(3.0764624,0,0,4.6702057,-256.05042,-614.94027)">
      <g transform="translate(120.53067,142.44)" id="use781">
        <path style="stroke:none" d="m 5.233548,-5.7198391 c 0.738281,0 1.351563,0.289062 1.84375,0.8593751 0.488281,0.574219 0.734375,1.351562 0.734375,2.328125 0,0.96875 -0.234375,1.742187 -0.703125,2.31250007 -0.460937,0.5625 -1.089844,0.84375001 -1.890625,0.84375001 -0.804687,0 -1.4375,-0.28125001 -1.90625,-0.84375001 C 2.8429231,-0.78233901 2.6085482,-1.55187 2.6085482,-2.532339 c 0,-0.976563 0.2343749,-1.753906 0.7031248,-2.328125 0.46875,-0.5703131 1.109375,-0.8593751 1.921875,-0.8593751 z m 0.0625,5.12499994 c 0.382813,0 0.695313,-0.17968782 0.9375,-0.54687484 0.25,-0.375 0.375,-0.867188 0.375,-1.484375 0,-0.613281 -0.117187,-1.078125 -0.34375,-1.390625 -0.21875,-0.320313 -0.5625,-0.484375 -1.03125,-0.484375 -0.9375,0 -1.40625,0.65625 -1.40625,1.96875 0,0.625 0.125,1.105469 0.375,1.4375001 0.25,0.33593687 0.613281,0.49999974 1.09375,0.49999974 z m 0,0" id="path880" />
      </g>
    </g>
    <g id="g787" style="opacity:1;fill:#000000;fill-opacity:1" transform="matrix(3.3169298,0,0,4.6657182,-286.34948,-614.32674)">
      <g transform="translate(126.9526,142.44)" id="use785">
        <path style="stroke:none" d="m 5.233548,-5.7198391 c 0.738281,0 1.351563,0.289062 1.84375,0.8593751 0.488281,0.574219 0.734375,1.351562 0.734375,2.328125 0,0.96875 -0.234375,1.742187 -0.703125,2.31250007 -0.460937,0.5625 -1.089844,0.84375001 -1.890625,0.84375001 -0.804687,0 -1.4375,-0.28125001 -1.90625,-0.84375001 C 2.8429231,-0.78233901 2.6085482,-1.55187 2.6085482,-2.532339 c 0,-0.976563 0.2343749,-1.753906 0.7031248,-2.328125 0.46875,-0.5703131 1.109375,-0.8593751 1.921875,-0.8593751 z m 0.0625,5.12499994 c 0.382813,0 0.695313,-0.17968782 0.9375,-0.54687484 0.25,-0.375 0.375,-0.867188 0.375,-1.484375 0,-0.613281 -0.117187,-1.078125 -0.34375,-1.390625 -0.21875,-0.320313 -0.5625,-0.484375 -1.03125,-0.484375 -0.9375,0 -1.40625,0.65625 -1.40625,1.96875 0,0.625 0.125,1.105469 0.375,1.4375001 0.25,0.33593687 0.613281,0.49999974 1.09375,0.49999974 z m 0,0" id="path884" />
      </g>
    </g>
    <g id="g791" style="opacity:1;fill:#000000;fill-opacity:1" transform="matrix(1.5805035,0,0,1.9692145,-48.909144,-227.50852)">
      <g transform="translate(133.37453,142.44)" id="use789">
        <path style="stroke:none" d="M 10.077299,0 H 8.858548 v -2.796875 c 0,-0.195313 -0.085937,-0.367188 -0.25,-0.515625 -0.167969,-0.144531 -0.359375,-0.21875 -0.578125,-0.21875 -0.210937,0 -0.390625,0.074219 -0.546875,0.21875 -0.148437,0.148437 -0.21875,0.320312 -0.21875,0.515625 V 0 H 6.061673 v -2.8125 c 0,-0.1875 -0.070312,-0.351563 -0.203125,-0.5 -0.136719,-0.144531 -0.324219,-0.21875 -0.5625,-0.21875 -0.230469,0 -0.429687,0.070312 -0.59375,0.203125 -0.15625,0.136719 -0.234375,0.308594 -0.234375,0.515625 V 0 H 3.233548 V -4.65625 H 4.467923 V -4.375 c 0.363281,-0.226563 0.753906,-0.34375 1.171875,-0.34375 0.519531,0 0.929688,0.179687 1.234375,0.53125 0.425781,-0.351563 0.890625,-0.53125 1.390625,-0.53125 0.5,0 0.925781,0.152344 1.28125,0.453125 0.351563,0.304687 0.531251,0.664062 0.531251,1.078125 z m 0,0" id="path888" />
      </g>
    </g>
    <g id="g799" style="opacity:1;fill:#000000;fill-opacity:1" transform="matrix(3.0524213,0,0,3.0524213,-416.75033,-323.39823)">
      <g transform="translate(145.67978,142.44)" id="use797">
        <path style="stroke:none" d="M 6.6875,-5.46875 H 4.0625 V -3.25 c 0,1.230469 -0.101562,2.21875 -0.296875,2.96875 -0.1875,0.75 -0.5,1.457031 -0.9375,2.125 C 2.453125,1.632813 2.070313,1.453125 1.6875,1.296875 2.15625,0.742188 2.476563,0.160156 2.65625,-0.453125 2.84375,-1.078125 2.9375,-2.0625 2.9375,-3.40625 V -6.5 H 6.625 C 6.582031,-7.050781 6.5625,-7.53125 6.5625,-7.9375 l 1.15625,-0.03125 c 0.101563,0 0.15625,0.027344 0.15625,0.078125 0,0.042969 -0.00781,0.085937 -0.015625,0.125 -0.0625,0.21875 -0.09375,0.449219 -0.09375,0.6875 V -6.5 H 8.40625 C 8.269531,-6.789063 8.085938,-7.097656 7.859375,-7.421875 L 8.875,-7.859375 c 0.257813,0.40625 0.460938,0.757812 0.609375,1.046875 L 8.71875,-6.5 h 1.046875 v 1.03125 H 7.796875 C 7.828125,-4.289063 7.894531,-3.378906 8,-2.734375 c 0.238281,-0.625 0.4375,-1.332031 0.59375,-2.125 0.738281,0.210937 1.140625,0.328125 1.203125,0.359375 0.070313,0.023437 0.109375,0.0625 0.109375,0.125 0,0.0625 -0.070312,0.171875 -0.203125,0.328125 -0.125,0.148437 -0.292969,0.527344 -0.5,1.140625 -0.199219,0.617187 -0.464844,1.210937 -0.796875,1.78125 0.257813,0.6875 0.425781,1.03125 0.5,1.03125 0.0625,0 0.109375,-0.332031 0.140625,-1 0.375,0.25 0.722656,0.417969 1.046875,0.5 C 10.019531,0.164063 9.890625,0.734375 9.703125,1.109375 9.515625,1.492188 9.289063,1.6875 9.03125,1.6875 8.78125,1.6875 8.519531,1.5 8.25,1.125 7.976563,0.75 7.765625,0.378906 7.609375,0.015625 7.148438,0.597656 6.585938,1.117188 5.921875,1.578125 5.679688,1.335938 5.375,1.101563 5,0.875 5.4375,0.59375 5.851563,0.269531 6.25,-0.09375 H 5.703125 v -0.171875 h -0.5 v 0.34375 h -0.9375 v -3.59375 h 2.375 V -0.5 c 0.1875,-0.207031 0.375,-0.441406 0.5625,-0.703125 C 6.921875,-2.273438 6.75,-3.695313 6.6875,-5.46875 Z m -1.484375,4.3125 h 0.5 v -1.4375 h -0.5 z M 2.84375,-4.6875 1.671875,-4.234375 C 1.359375,-5.066406 1,-5.78125 0.59375,-6.375 l 1.171875,-0.53125 c 0.445313,0.84375 0.804688,1.585937 1.078125,2.21875 z m 3.6875,0.671875 H 4.3125 V -4.96875 h 2.21875 z m -3.703125,1.09375 C 2.492188,-2.078125 2.0625,-0.867188 1.53125,0.703125 1.09375,0.535156 0.671875,0.335938 0.265625,0.109375 c 0.625,-1 1.125,-2.207031 1.5,-3.625 0.363281,0.230469 0.71875,0.429687 1.0625,0.59375 z m 0,0" id="path892" />
      </g>
    </g>
    <g id="g803" style="opacity:1;fill:#000000;fill-opacity:1" transform="matrix(3.0524213,0,0,3.0524213,-416.75033,-323.39823)">
      <g transform="translate(156.1413,142.44)" id="use801">
        <path style="stroke:none" d="M 8.511495,-5.96875 H 6.02712 v -1.0625 H 8.511495 V -7.890625 H 9.65212 c 0.15625,0 0.234375,0.042969 0.234375,0.125 0,0.042969 -0.023437,0.105469 -0.0625,0.1875 -0.042969,0.085937 -0.0625,0.265625 -0.0625,0.546875 h 2.546877 v 1.0625 H 9.74587 v 0.578125 h 2.109376 V -2.625 H 10.65212 c 0.539064,0.449219 1.128907,0.980469 1.765627,1.59375 l -1.031251,0.8125 C 10.937277,-0.789063 10.390401,-1.320313 9.74587,-1.8125 v 1.78125 H 8.511495 v -1.859375 c -0.460937,0.625 -1.070312,1.199219 -1.828125,1.71875 C 6.409933,-0.453125 6.08962,-0.738281 5.71462,-1.03125 6.222433,-1.3125 6.613058,-1.5625 6.886495,-1.78125 7.167745,-2 7.421651,-2.28125 7.65212,-2.625 H 6.448995 v -2.765625 h 2.0625 z m 0,2.375 v -0.796875 h -0.875 V -3.59375 Z M 9.74587,-4.390625 v 0.796875 h 0.890625 v -0.796875 z m 0,1.765625 v 0.6875 l 0.8125,-0.6875 z M 5.980245,-5.78125 4.698995,-5.203125 C 4.425558,-5.847656 4.046651,-6.472656 3.55837,-7.078125 l 1.234375,-0.65625 c 0.519531,0.78125 0.914063,1.433594 1.1875,1.953125 z m 6.890627,5.828125 c -0.148437,0.40625 -0.25,0.847656 -0.3125,1.328125 -0.929688,0.03125 -1.777345,0.046875 -2.546877,0.046875 -1.65625,0 -2.761719,-0.0625 -3.3125,-0.1875 C 6.144308,1.117188 5.753683,0.957031 5.52712,0.75 5.37087,0.601563 5.253683,0.53125 5.18337,0.53125 c -0.074219,0 -0.15625,0.039063 -0.25,0.125 C 4.83962,0.738281 4.675558,0.890625 4.448995,1.109375 4.218526,1.335938 4.05837,1.53125 3.96462,1.6875 3.546651,1.269531 3.187276,0.910156 2.8864951,0.609375 3.331808,0.265625 3.659933,0.03125 3.87087,-0.09375 4.08962,-0.21875 4.218526,-0.316406 4.261495,-0.390625 4.312276,-0.460938 4.33962,-0.59375 4.33962,-0.78125 V -3.546875 H 3.136495 v -1.15625 H 5.62087 V -1 c 0,0.230469 0.085938,0.433594 0.265625,0.609375 0.175781,0.179687 0.382813,0.3085937 0.625,0.390625 0.25,0.0820313 0.644531,0.144531 1.1875,0.1875 0.539063,0.039063 1.289063,0.0625 2.25,0.0625 0.968751,0 1.941407,-0.070312 2.921877,-0.203125 z m 0,0" id="path896" />
      </g>
    </g>
    <g id="g807" style="opacity:1;fill:#000000;fill-opacity:1" transform="matrix(3.0524213,0,0,3.0524213,-416.75033,-323.39823)">
      <g transform="translate(166.2921,142.44)" id="use805">
        <path style="stroke:none" d="m 7.6097966,-4.8125 v 6.609375 h -1.125 V -7.8125 h 1 c 0.15625,0 0.234375,0.046875 0.234375,0.140625 0,0.03125 -0.011719,0.078125 -0.03125,0.140625 -0.054687,0.136719 -0.078125,0.398437 -0.078125,0.78125 v 1.125 l 0.609375,-0.203125 c 0.207031,0.5 0.390625,0.984375 0.546875,1.453125 h 5.6718794 v 2.296875 H 8.3285466 V -3.65625 l -0.328125,0.140625 C 7.9144846,-3.910156 7.7855776,-4.34375 7.6097966,-4.8125 Z m 2.375,1.96875 v -0.6875 h -0.609375 v 0.6875 z m 2.7187524,-0.6875 v 0.6875 h 0.640626 v -0.6875 z m -1.0625,0.6875 v -0.6875 h -0.625001 v 0.6875 z M 13.8598,-4.625 H 8.8285466 V -7.703125 H 13.8598 Z M 9.9535466,-6.5 H 12.656674 V -6.84375 H 9.9535466 Z m 2.7031274,0.765625 H 9.9535466 v 0.34375 h 2.7031274 z m -6.2500024,0.1875 c -0.042969,1.117187 -0.136719,2.164062 -0.28125,3.140625 L 5.0316717,-2.609375 c 0.2070309,-0.851563 0.3124999,-1.863281 0.3124999,-3.03125 z m 5.0312514,6.53125 c -0.75,0.34375 -1.6953134,0.625 -2.8281264,0.84375 -0.210937,-0.417969 -0.449219,-0.792969 -0.71875,-1.125 0.945313,-0.03125 1.78125,-0.167969 2.5000014,-0.40625 C 9.9847966,-0.078125 9.6566716,-0.46875 9.4066716,-0.875 h -0.5625 V -1.796875 H 14.01605 C 13.6723,-0.898438 13.180113,-0.195313 12.547299,0.3125 13.211363,0.507813 13.969175,0.617188 14.812926,0.640625 14.570739,0.984375 14.367614,1.363281 14.203551,1.78125 13.14105,1.664063 12.219174,1.398438 11.437923,0.984375 Z m 0.01563,-1.1875 c 0.312501,-0.1875 0.570314,-0.410156 0.781251,-0.671875 h -1.578131 c 0.25,0.273437 0.515625,0.496094 0.796875,0.671875 z m 0,0" id="path900" />
      </g>
    </g>
    <g id="g811" style="opacity:1;fill:#000000;fill-opacity:1" transform="matrix(3.0524213,0,0,3.0524213,-416.75033,-323.39823)">
      <g transform="translate(176.75363,142.44)" id="use809">
        <path style="stroke:none" d="m 9.9798273,-8.015625 c 0.8320337,0.40625 1.2656297,0.632812 1.2968797,0.671875 0.03125,0.03125 0.04687,0.070312 0.04687,0.109375 0,0.042969 -0.07422,0.109375 -0.21875,0.203125 -0.13672,0.085937 -0.277345,0.210937 -0.421877,0.375 -0.6992213,0.835937 -1.4531273,1.5625 -2.2656273,2.1875 -0.273437,-0.289063 -0.589844,-0.566406 -0.953125,-0.828125 1.0625,-0.695313 1.898438,-1.601563 2.5156246,-2.71875 z M 16.401715,-6.1875 h -4.45313 v -1.078125 h 4.45313 z m -6.171887,2.734375 v 5.1875 H 9.0110773 v -3.9375 c -0.304687,0.273437 -0.617187,0.527344 -0.9375,0.765625 -0.230469,-0.300781 -0.515625,-0.59375 -0.8593749,-0.875 1.1953129,-0.832031 2.2109379,-1.953125 3.0468756,-3.359375 0.363283,0.1875 0.656253,0.339844 0.875004,0.453125 0.21875,0.117187 0.343751,0.1875 0.375001,0.21875 0.03125,0.03125 0.04687,0.074219 0.04687,0.125 0,0.042969 -0.0625,0.085937 -0.187501,0.125 -0.117187,0.042969 -0.234375,0.148437 -0.359376,0.3125 -0.117187,0.15625 -0.375001,0.484375 -0.781253,0.984375 z m 4.00001,-0.015625 H 11.323582 V -4.625 h 5.718758 v 1.15625 h -1.515626 v 3.703125 c 0,0.570313 -0.1875,0.953125 -0.562501,1.140625 -0.375,0.195313 -0.902344,0.300781 -1.578126,0.3125 -0.04297,-0.5 -0.199219,-0.953125 -0.46875,-1.359375 0.414063,0.039063 0.710938,0.0625 0.890626,0.0625 0.1875,0 0.300781,-0.027344 0.34375,-0.078125 0.05078,-0.054687 0.07813,-0.164062 0.07813,-0.328125 z m 0,0" id="path904" />
      </g>
    </g>
  </g>
</svg>
