<?xml version="1.0" encoding="UTF-8"?>
<svg xmlns="http://www.w3.org/2000/svg" xmlns:ns1="http://sodipodi.sourceforge.net/DTD/sodipodi-0.dtd" viewBox="0 0 105.75851 133.98301" height="133.98302" width="105.75851" id="svg7712" version="1.1">
  <defs id="defs7716" />
  <ns1:namedview showgrid="false" id="namedview7714" guidetolerance="10" gridtolerance="10" objecttolerance="10" borderopacity="1" bordercolor="#666666" pagecolor="#ffffff" />
  <g transform="translate(-118.80021,-5.3208519)" id="g7720">
    <path style="color:#000000;font-style:normal;font-variant:normal;font-weight:normal;font-stretch:normal;font-size:medium;line-height:normal;font-family:sans-serif;font-variant-ligatures:normal;font-variant-position:normal;font-variant-caps:normal;font-variant-numeric:normal;font-variant-alternates:normal;font-variant-east-asian:normal;font-feature-settings:normal;font-variation-settings:normal;text-indent:0;text-align:start;text-decoration:none;text-decoration-line:none;text-decoration-style:solid;text-decoration-color:#000000;letter-spacing:normal;word-spacing:normal;text-transform:none;writing-mode:lr-tb;direction:ltr;text-orientation:mixed;dominant-baseline:auto;baseline-shift:baseline;text-anchor:start;white-space:normal;shape-padding:0;shape-margin:0;inline-size:0;clip-rule:nonzero;display:inline;overflow:visible;visibility:visible;opacity:1;isolation:auto;mix-blend-mode:normal;color-interpolation:sRGB;color-interpolation-filters:linearRGB;solid-color:#000000;solid-opacity:1;vector-effect:none;fill:#ffffff;fill-opacity:1;fill-rule:nonzero;stroke:none;stroke-width:3.17328;stroke-linecap:butt;stroke-linejoin:miter;stroke-miterlimit:4;stroke-dasharray:none;stroke-dashoffset:0;stroke-opacity:1;color-rendering:auto;image-rendering:auto;shape-rendering:auto;text-rendering:auto;enable-background:accumulate;stop-color:#000000;stop-opacity:1" d="m 131.3913,7.1492212 h 80.57545 c 5.96259,0 10.76278,4.8001948 10.76278,10.7627808 V 126.71402 c 0,5.96258 -4.80019,10.76277 -10.76278,10.76277 H 131.3913 c -5.96258,0 -10.76277,-4.80019 -10.76277,-10.76277 V 17.912002 c 0,-5.962586 4.80019,-10.7627808 10.76277,-10.7627808 z" id="path8330" />
    <path style="color:#000000;font-style:normal;font-variant:normal;font-weight:normal;font-stretch:normal;font-size:medium;line-height:normal;font-family:sans-serif;font-variant-ligatures:normal;font-variant-position:normal;font-variant-caps:normal;font-variant-numeric:normal;font-variant-alternates:normal;font-variant-east-asian:normal;font-feature-settings:normal;font-variation-settings:normal;text-indent:0;text-align:start;text-decoration:none;text-decoration-line:none;text-decoration-style:solid;text-decoration-color:#000000;letter-spacing:normal;word-spacing:normal;text-transform:none;writing-mode:lr-tb;direction:ltr;text-orientation:mixed;dominant-baseline:auto;baseline-shift:baseline;text-anchor:start;white-space:normal;shape-padding:0;shape-margin:0;inline-size:0;clip-rule:nonzero;display:inline;overflow:visible;visibility:visible;opacity:1;isolation:auto;mix-blend-mode:normal;color-interpolation:sRGB;color-interpolation-filters:linearRGB;solid-color:#000000;solid-opacity:1;vector-effect:none;fill:#214a3a;fill-opacity:1;fill-rule:nonzero;stroke:none;stroke-width:0.483;stroke-linecap:butt;stroke-linejoin:miter;stroke-miterlimit:4;stroke-dasharray:none;stroke-dashoffset:0;stroke-opacity:1;color-rendering:auto;image-rendering:auto;shape-rendering:auto;text-rendering:auto;enable-background:accumulate;stop-color:#000000;stop-opacity:1" d="m 131.39034,5.5625289 c -6.81414,0 -12.34845,5.5343021 -12.34845,12.3484471 V 126.71375 c 0,6.81412 5.53431,12.34844 12.34845,12.34844 h 80.57561 c 6.81413,0 12.35109,-5.53432 12.35109,-12.34844 V 17.910976 c 0,-6.814145 -5.53696,-12.3484471 -12.35109,-12.3484471 z m 0,3.1735054 h 80.57561 c 5.11102,0 9.17757,4.0639037 9.1776,9.1749417 V 126.71375 c 0,5.11102 -4.06658,9.17757 -9.1776,9.17759 h -80.57561 c -5.11103,0 -9.17495,-4.06657 -9.17495,-9.17759 V 17.910976 c 0,-5.111038 4.06392,-9.1749417 9.17495,-9.1749417 z" id="path8332" />
    <path id="path8334" style="color:#000000;font-style:normal;font-variant:normal;font-weight:normal;font-stretch:normal;font-size:medium;line-height:normal;font-family:sans-serif;font-variant-ligatures:normal;font-variant-position:normal;font-variant-caps:normal;font-variant-numeric:normal;font-variant-alternates:normal;font-variant-east-asian:normal;font-feature-settings:normal;font-variation-settings:normal;text-indent:0;text-align:start;text-decoration:none;text-decoration-line:none;text-decoration-style:solid;text-decoration-color:#000000;letter-spacing:normal;word-spacing:normal;text-transform:none;writing-mode:lr-tb;direction:ltr;text-orientation:mixed;dominant-baseline:auto;baseline-shift:baseline;text-anchor:start;white-space:normal;shape-padding:0;shape-margin:0;inline-size:0;clip-rule:nonzero;display:inline;overflow:visible;visibility:visible;opacity:1;isolation:auto;mix-blend-mode:normal;color-interpolation:sRGB;color-interpolation-filters:linearRGB;solid-color:#000000;solid-opacity:1;vector-effect:none;fill:#214a3a;fill-opacity:1;fill-rule:nonzero;stroke:none;stroke-width:3.17328;stroke-linecap:butt;stroke-linejoin:miter;stroke-miterlimit:4;stroke-dasharray:none;stroke-dashoffset:0;stroke-opacity:1;color-rendering:auto;image-rendering:auto;shape-rendering:auto;text-rendering:auto;enable-background:accumulate;stop-color:#000000;stop-opacity:1" d="m 131.38478,11.978257 c -3.27452,0 -5.91181,2.656071 -5.91181,5.943216 V 126.71897 c 0,3.27715 2.63466,5.9118 5.91181,5.9118 h 80.59198 c 3.27714,0 5.9118,-2.63465 5.9118,-5.9118 V 17.921473 c 0,-3.287145 -2.63731,-5.943216 -5.9118,-5.943216 z" />
    <path d="m 153.66874,64.447189 v 6.383478 h 4.82274 c 1.11424,0 2.01118,0.897153 2.01118,2.011405 v 36.328218 c 0,1.11426 -0.89694,2.01138 -2.01118,2.01138 h -4.82274 v 6.70426 h 24.77968 v -6.70426 h -5.73168 c -1.11425,0 -2.01142,-0.89712 -2.01142,-2.01138 V 90.788538 h 15.94232 c 6.05186,-1.25582 10.5729,-6.59547 10.5729,-13.030607 0,-7.37415 -5.9366,-13.310742 -13.31078,-13.310742 h -5.46134 -11.74763 z m 17.30981,6.273787 h 7.15846 c 3.83445,0 6.92131,3.087073 6.92131,6.921512 0,3.834396 -3.08686,6.921277 -6.92131,6.921277 h -7.15846 z" style="opacity:1;fill:#ffffff;fill-opacity:1;stroke:none;stroke-width:1.01432;stroke-miterlimit:4;stroke-dasharray:none;stroke-opacity:1;paint-order:stroke fill markers" id="path8336" />
    <path id="path8338" style="opacity:1;fill:#ffffff;stroke-width:0.709802" d="m 136.57934,61.295014 h 11.79832 l 23.99668,-20.90625 23.89653,20.90625 h 11.89831 L 172.37434,30.630951 Z" />
  </g>
</svg>
