<?xml version="1.0" encoding="UTF-8"?>
<svg xmlns="http://www.w3.org/2000/svg" xmlns:ns1="http://sodipodi.sourceforge.net/DTD/sodipodi-0.dtd" viewBox="0 0 601.42737 433.85227" height="433.85226" width="601.42737" id="svg15347" version="1.1">
  <defs id="defs15351" />
  <ns1:namedview showgrid="false" id="namedview15349" guidetolerance="10" gridtolerance="10" objecttolerance="10" borderopacity="1" bordercolor="#666666" pagecolor="#ffffff" />
  <g transform="translate(671.5465,476.42926)" id="g15355">
    <path id="path81" d="m -634.36508,-471.02984 h 527.06196 c 17.607463,0 31.782432,14.17521 31.782432,31.78231 v 359.491932 c 0,17.608323 -14.174969,31.783416 -31.782432,31.783416 h -527.06196 c -17.6075,0 -31.78236,-14.175093 -31.78236,-31.783416 V -439.24753 c 0,-17.6071 14.17486,-31.78231 31.78236,-31.78231 z" style="color:#000000;font-style:normal;font-variant:normal;font-weight:normal;font-stretch:normal;font-size:medium;line-height:normal;font-family:sans-serif;font-variant-ligatures:normal;font-variant-position:normal;font-variant-caps:normal;font-variant-numeric:normal;font-variant-alternates:normal;font-variant-east-asian:normal;font-feature-settings:normal;font-variation-settings:normal;text-indent:0;text-align:start;text-decoration:none;text-decoration-line:none;text-decoration-style:solid;text-decoration-color:#000000;letter-spacing:normal;word-spacing:normal;text-transform:none;writing-mode:lr-tb;direction:ltr;text-orientation:mixed;dominant-baseline:auto;baseline-shift:baseline;text-anchor:start;white-space:normal;shape-padding:0;shape-margin:0;inline-size:0;clip-rule:nonzero;display:inline;overflow:visible;visibility:visible;opacity:1;isolation:auto;mix-blend-mode:normal;color-interpolation:sRGB;color-interpolation-filters:linearRGB;solid-color:#000000;solid-opacity:1;vector-effect:none;fill:#ffffff;fill-opacity:1;fill-rule:nonzero;stroke:none;stroke-width:9.37067;stroke-linecap:butt;stroke-linejoin:miter;stroke-miterlimit:4;stroke-dasharray:none;stroke-dashoffset:0;stroke-opacity:1;color-rendering:auto;image-rendering:auto;shape-rendering:auto;text-rendering:auto;enable-background:accumulate;stop-color:#000000;stop-opacity:1" />
    <path id="path83" d="m -634.36789,-475.71558 c -20.12217,0 -36.46493,16.34265 -36.46493,36.46478 v 359.495202 c 0,20.122292 16.34276,36.464941 36.46493,36.464941 h 527.06239 c 20.122041,0 36.47268,-16.342649 36.47268,-36.464941 V -439.2508 c 0,-20.12213 -16.350639,-36.46478 -36.47268,-36.46478 z m 0,9.37164 h 527.06239 c 15.092827,0 27.101269,11.99999 27.101392,27.09314 v 359.495202 c 0,15.092217 -12.008565,27.100944 -27.101392,27.100944 h -527.06239 c -15.0928,0 -27.09361,-12.008727 -27.09361,-27.100944 V -439.2508 c 0,-15.09315 12.00081,-27.09314 27.09361,-27.09314 z" style="color:#000000;font-style:normal;font-variant:normal;font-weight:normal;font-stretch:normal;font-size:medium;line-height:normal;font-family:sans-serif;font-variant-ligatures:normal;font-variant-position:normal;font-variant-caps:normal;font-variant-numeric:normal;font-variant-alternates:normal;font-variant-east-asian:normal;font-feature-settings:normal;font-variation-settings:normal;text-indent:0;text-align:start;text-decoration:none;text-decoration-line:none;text-decoration-style:solid;text-decoration-color:#000000;letter-spacing:normal;word-spacing:normal;text-transform:none;writing-mode:lr-tb;direction:ltr;text-orientation:mixed;dominant-baseline:auto;baseline-shift:baseline;text-anchor:start;white-space:normal;shape-padding:0;shape-margin:0;inline-size:0;clip-rule:nonzero;display:inline;overflow:visible;visibility:visible;opacity:1;isolation:auto;mix-blend-mode:normal;color-interpolation:sRGB;color-interpolation-filters:linearRGB;solid-color:#000000;solid-opacity:1;vector-effect:none;fill:#1b4833;fill-opacity:1;fill-rule:nonzero;stroke:none;stroke-width:1.42735;stroke-linecap:butt;stroke-linejoin:miter;stroke-miterlimit:4;stroke-dasharray:none;stroke-dashoffset:0;stroke-opacity:1;color-rendering:auto;image-rendering:auto;shape-rendering:auto;text-rendering:auto;enable-background:accumulate;stop-color:#000000;stop-opacity:1" />
    <path id="path75" style="color:#000000;font-style:normal;font-variant:normal;font-weight:normal;font-stretch:normal;font-size:medium;line-height:normal;font-family:sans-serif;font-variant-ligatures:normal;font-variant-position:normal;font-variant-caps:normal;font-variant-numeric:normal;font-variant-alternates:normal;font-variant-east-asian:normal;font-feature-settings:normal;font-variation-settings:normal;text-indent:0;text-align:start;text-decoration:none;text-decoration-line:none;text-decoration-style:solid;text-decoration-color:#000000;letter-spacing:normal;word-spacing:normal;text-transform:none;writing-mode:lr-tb;direction:ltr;text-orientation:mixed;dominant-baseline:auto;baseline-shift:baseline;text-anchor:start;white-space:normal;shape-padding:0;shape-margin:0;inline-size:0;clip-rule:nonzero;display:inline;overflow:visible;visibility:visible;opacity:1;isolation:auto;mix-blend-mode:normal;color-interpolation:sRGB;color-interpolation-filters:linearRGB;solid-color:#000000;solid-opacity:1;vector-effect:none;fill:#1b4833;fill-opacity:1;fill-rule:nonzero;stroke:none;stroke-width:9.37067;stroke-linecap:butt;stroke-linejoin:miter;stroke-miterlimit:4;stroke-dasharray:none;stroke-dashoffset:0;stroke-opacity:1;color-rendering:auto;image-rendering:auto;shape-rendering:auto;text-rendering:auto;enable-background:accumulate;stop-color:#000000;stop-opacity:1" d="m -651.84171,-234.53384 v 154.793456 c 0,9.677049 7.77983,17.457197 17.45725,17.457197 h 527.1112 c 9.6773,0 17.457218,-7.780148 17.457218,-17.457197 V -234.53384 Z" />
    <path id="path955" style="opacity:1;fill:#1b4833;fill-opacity:1;stroke:none;stroke-width:2.78666;stroke-miterlimit:4;stroke-dasharray:none;stroke-opacity:1;paint-order:stroke fill markers" d="m -430.09653,-425.32901 v 17.53783 h 13.24961 c 3.06121,0 5.52537,2.46397 5.52537,5.526 v 99.80477 c 0,3.06188 -2.46416,5.52585 -5.52537,5.52585 h -13.24961 v 18.41887 h 68.07788 v -18.41887 h -15.74687 c -3.0612,0 -5.52603,-2.46397 -5.52603,-5.52585 v -50.50036 h 43.79876 c 16.62638,-3.45041 29.04724,-18.11985 29.04724,-35.79917 0,-20.25911 -16.30974,-36.56907 -36.56902,-36.56907 h -15.00408 -32.27464 z m 47.55566,17.23615 h 19.66662 c 10.5344,0 19.01512,8.48125 19.01512,19.01537 0,10.53412 -8.48072,19.01553 -19.01512,19.01553 h -19.66662 z" />
    <path id="path223" d="m -564.37812,-181.11419 0.82978,-10.64759 10.92328,0.69658 c 1.45179,0.12142 2.21228,0.5523 2.21228,1.38197 0,0.38433 -0.34584,1.10489 -0.96787,2.21305 -0.65684,1.10489 -1.10596,3.24945 -1.38273,6.35958 h 35.95013 v 9.40261 h -36.77968 l -0.69167,6.63696 h 31.24904 v 47.01229 c 0,2.55768 -0.48391,4.59779 -1.38273,6.08327 -0.93304,1.55631 -2.69633,2.76565 -5.25422,3.59533 -2.48893,0.9005 -6.1876,1.65951 -11.06163,2.2118 -0.48392,-3.80173 -1.90126,-7.88086 -4.28647,-12.30602 3.59504,0.62451 6.01482,0.97273 7.3284,0.97273 1.279,0 2.10865,-0.24003 2.48884,-0.69643 0.34582,-0.48037 0.55358,-1.31379 0.55358,-2.48935 v -34.9824 h -15.34797 c 2.76537,1.03265 4.73579,1.72909 5.94564,2.07512 1.279,0.38418 1.93572,0.90051 1.93572,1.52004 0,0.66063 -0.41548,1.24421 -1.24443,1.79775 -0.82975,0.48021 -2.59256,2.21196 -5.2542,5.25484 h 9.54067 v 8.4333 h -14.93321 v 5.11677 h 15.76286 v 8.7107 h -15.76286 v 11.89196 h -10.92329 v -11.89196 h -15.4862 v -8.7107 h 15.4862 v -5.11677 h -14.65655 v -8.4333 h 9.54056 c -1.59014,-2.66229 -3.38764,-5.18511 -5.39255,-7.60487 l 7.60482,-3.04288 h -15.20965 v 49.36247 h -11.06163 v -58.76478 h 28.34535 l 0.55357,-6.63696 h -34.84395 v -9.40152 z m 10.92329,25.44079 h -11.75295 c 1.65931,2.697 3.21485,5.39292 4.70123,8.15841 l -6.77531,2.48919 h 9.12593 c 2.0049,-3.11121 3.5949,-6.67168 4.7011,-10.6476 z m 0,0" style="opacity:1;fill:#ffffff;fill-opacity:1;fill-rule:nonzero;stroke:none;stroke-width:8.84926" />
    <path id="path225" d="m -410.66119,-119.44585 v 8.43362 h -11.61472 v -68.5816 h 64.71038 v 68.30545 h -12.5826 v -8.15747 z m 40.51306,-9.81792 v -40.23585 h -40.51306 v 40.23585 z m 0,0" style="opacity:1;fill:#ffffff;fill-opacity:1;fill-rule:nonzero;stroke:none;stroke-width:8.84926" />
    <path id="rect6457" style="opacity:1;fill:#ffffff;stroke-width:1.0908" d="m -228.62228,-166.92387 37.71813,-1.93115 h 0.1575 l -54.17219,53.26368 19.02683,18.748716 53.84918,-52.935846 0.24707,38.82119 30.16416,-30.61158 1.49109,-58.56023 -58.31666,2.56562 z" />
  </g>
</svg>
