<?xml version="1.0" encoding="UTF-8"?>
<svg xmlns="http://www.w3.org/2000/svg" xmlns:ns1="http://sodipodi.sourceforge.net/DTD/sodipodi-0.dtd" viewBox="0 0 168.50728 79.079948" height="79.079948" width="168.50728" id="svg2289" version="1.1">
  <defs id="defs2293" />
  <ns1:namedview showgrid="false" id="namedview2291" guidetolerance="10" gridtolerance="10" objecttolerance="10" borderopacity="1" bordercolor="#666666" pagecolor="#ffffff" />
  <g transform="translate(-6.5370815,-3.4651216)" id="g2297">
    <path id="path81" d="M 15.880626,4.8921339 H 165.70015 c 4.3858,0 7.91656,3.5307906 7.91656,7.9165781 v 60.393726 c 0,4.385787 -3.53076,7.916576 -7.91656,7.916576 H 15.880626 c -4.38578,0 -7.9165717,-3.530788 -7.9165717,-7.916576 V 12.808712 c 0,-4.3857875 3.5307917,-7.9165781 7.9165717,-7.9165781 z" style="color:#000000;font-style:normal;font-variant:normal;font-weight:normal;font-stretch:normal;font-size:medium;line-height:normal;font-family:sans-serif;font-variant-ligatures:normal;font-variant-position:normal;font-variant-caps:normal;font-variant-numeric:normal;font-variant-alternates:normal;font-variant-east-asian:normal;font-feature-settings:normal;font-variation-settings:normal;text-indent:0;text-align:start;text-decoration:none;text-decoration-line:none;text-decoration-style:solid;text-decoration-color:#000000;letter-spacing:normal;word-spacing:normal;text-transform:none;writing-mode:lr-tb;direction:ltr;text-orientation:mixed;dominant-baseline:auto;baseline-shift:baseline;text-anchor:start;white-space:normal;shape-padding:0;shape-margin:0;inline-size:0;clip-rule:nonzero;display:inline;overflow:visible;visibility:visible;opacity:1;isolation:auto;mix-blend-mode:normal;color-interpolation:sRGB;color-interpolation-filters:linearRGB;solid-color:#000000;solid-opacity:1;vector-effect:none;fill:#ffffff;fill-opacity:1;fill-rule:nonzero;stroke:none;stroke-width:2.33411;stroke-linecap:butt;stroke-linejoin:miter;stroke-miterlimit:4;stroke-dasharray:none;stroke-dashoffset:0;stroke-opacity:1;color-rendering:auto;image-rendering:auto;shape-rendering:auto;text-rendering:auto;enable-background:accumulate;stop-color:#000000;stop-opacity:1" />
    <path id="path83" d="m 15.87992,3.7250401 c -5.012146,0 -9.08292,4.070764 -9.08292,9.0829179 v 60.394275 c 0,5.012151 4.070773,9.082921 9.08292,9.082921 h 149.81965 c 5.01215,0 9.08487,-4.07077 9.08487,-9.082921 V 12.807958 c 0,-5.0121539 -4.07272,-9.0829179 -9.08487,-9.0829179 z m 0,2.334276 h 149.81965 c 3.75942,0 6.75057,2.9892114 6.7506,6.7486419 v 60.394275 c 0,3.75942 -2.99118,6.75058 -6.7506,6.750595 H 15.87992 c -3.759424,0 -6.748644,-2.991175 -6.748644,-6.750595 V 12.807958 c 0,-3.7594305 2.98922,-6.7486419 6.748644,-6.7486419 z" style="color:#000000;font-style:normal;font-variant:normal;font-weight:normal;font-stretch:normal;font-size:medium;line-height:normal;font-family:sans-serif;font-variant-ligatures:normal;font-variant-position:normal;font-variant-caps:normal;font-variant-numeric:normal;font-variant-alternates:normal;font-variant-east-asian:normal;font-feature-settings:normal;font-variation-settings:normal;text-indent:0;text-align:start;text-decoration:none;text-decoration-line:none;text-decoration-style:solid;text-decoration-color:#000000;letter-spacing:normal;word-spacing:normal;text-transform:none;writing-mode:lr-tb;direction:ltr;text-orientation:mixed;dominant-baseline:auto;baseline-shift:baseline;text-anchor:start;white-space:normal;shape-padding:0;shape-margin:0;inline-size:0;clip-rule:nonzero;display:inline;overflow:visible;visibility:visible;opacity:1;isolation:auto;mix-blend-mode:normal;color-interpolation:sRGB;color-interpolation-filters:linearRGB;solid-color:#000000;solid-opacity:1;vector-effect:none;fill:#2c4e36;fill-opacity:1;fill-rule:nonzero;stroke:none;stroke-width:0.519837;stroke-linecap:butt;stroke-linejoin:miter;stroke-miterlimit:4;stroke-dasharray:none;stroke-dashoffset:0;stroke-opacity:1;color-rendering:auto;image-rendering:auto;shape-rendering:auto;text-rendering:auto;enable-background:accumulate;stop-color:#000000;stop-opacity:1" />
    <path d="m 15.875829,8.4441387 c -2.408572,0 -4.348435,1.9536763 -4.348435,4.3715413 v 60.390393 c 0,2.410515 1.937926,4.348441 4.348435,4.348441 H 165.70752 c 2.41051,0 4.34842,-1.937926 4.34842,-4.348441 V 12.81568 c 0,-2.417865 -1.93985,-4.3715413 -4.34842,-4.3715413 z" style="color:#000000;font-style:normal;font-variant:normal;font-weight:normal;font-stretch:normal;font-size:medium;line-height:normal;font-family:sans-serif;font-variant-ligatures:normal;font-variant-position:normal;font-variant-caps:normal;font-variant-numeric:normal;font-variant-alternates:normal;font-variant-east-asian:normal;font-feature-settings:normal;font-variation-settings:normal;text-indent:0;text-align:start;text-decoration:none;text-decoration-line:none;text-decoration-style:solid;text-decoration-color:#000000;letter-spacing:normal;word-spacing:normal;text-transform:none;writing-mode:lr-tb;direction:ltr;text-orientation:mixed;dominant-baseline:auto;baseline-shift:baseline;text-anchor:start;white-space:normal;shape-padding:0;shape-margin:0;inline-size:0;clip-rule:nonzero;display:inline;overflow:visible;visibility:visible;opacity:1;isolation:auto;mix-blend-mode:normal;color-interpolation:sRGB;color-interpolation-filters:linearRGB;solid-color:#000000;solid-opacity:1;vector-effect:none;fill:#2c4e36;fill-opacity:1;fill-rule:nonzero;stroke:none;stroke-width:2.33411;stroke-linecap:butt;stroke-linejoin:miter;stroke-miterlimit:4;stroke-dasharray:none;stroke-dashoffset:0;stroke-opacity:1;color-rendering:auto;image-rendering:auto;shape-rendering:auto;text-rendering:auto;enable-background:accumulate;stop-color:#000000;stop-opacity:1" id="path75" />
    <path id="path38" d="m 31.055742,42.242533 v 7.339914 l 4.905584,-0.147532 v -5.901452 h 2.618755 c 0.562479,0 0.848345,0.147532 0.848345,0.44261 0,0.101498 -0.03683,0.248969 -0.110706,0.442608 -0.129117,0.368839 -0.184361,1.19875 -0.184361,2.471243 v 6.74977 h -3.172033 v -1.475362 l -16.007682,0.516376 v -9.147245 h 2.729419 c 0.44261,0 0.663912,0.110708 0.663912,0.331969 0,0.101498 -0.06453,0.276636 -0.184431,0.516377 -0.101427,0.24897 -0.14753,0.737682 -0.14753,1.47536 v 3.983478 l 4.868692,-0.14753 v -7.450584 h -7.044851 v -8.925939 h 2.618767 c 0.516377,0 0.774562,0.110704 0.774562,0.331944 0,0.101499 -0.05533,0.2582 -0.147527,0.479504 -0.101429,0.221187 -0.147532,0.728453 -0.147532,1.512234 v 3.983478 h 3.946592 v -8.557099 h 2.655652 c 0.341177,0 0.56248,0.02762 0.663912,0.07365 0.119876,0.05523 0.184435,0.138323 0.184435,0.258198 0,0.129118 -0.06453,0.350405 -0.184435,0.663915 -0.101428,0.29507 -0.147531,1.032751 -0.147531,2.213042 v 5.348176 h 3.946599 v -6.233275 h 2.618755 c 0.516378,0 0.774577,0.147531 0.774577,0.442609 0,0.129116 -0.03683,0.313508 -0.110705,0.553249 -0.07366,0.221185 -0.129117,0.497939 -0.14753,0.811447 v 1.586026 5.458841 z" style="opacity:1;fill:#ffffff;fill-opacity:1;fill-rule:nonzero;stroke:none;stroke-width:2.36058" />
    <path id="path40" d="m 50.096694,51.387755 v 2.421082 h -3.33393 V 34.12277 h 18.574754 v 19.606686 h -3.611744 v -2.341701 z m 11.62908,-2.817952 V 37.020102 h -11.62908 v 11.549701 z" style="opacity:1;fill:#ffffff;fill-opacity:1;fill-rule:nonzero;stroke:none;stroke-width:2.54014" />
    <ellipse style="opacity:1;fill:#ffffff;stroke-width:1.16175" id="path1452" cx="118.25774" cy="43.131554" rx="45.112274" ry="28.675577" />
    <g style="fill:#2c4e36;fill-opacity:1" transform="translate(-3.3240638,0.43808865)" id="g2701">
      <path id="path2453" d="m 147.76111,41.548834 c 1.11038,1.103756 1.9516,2.289262 2.48994,3.597414 0.53838,1.267272 0.80755,2.779819 0.80755,4.578524 0,2.575425 -0.92533,4.803367 -2.75911,6.704273 -1.80019,1.921348 -4.17233,2.861576 -7.13337,2.861576 -2.28803,0 -4.49196,-0.613191 -6.59495,-1.880464 -2.06936,-1.246829 -3.75174,-2.963776 -5.04717,-5.150842 l 4.23963,-3.679172 c 0.57201,1.144629 1.5646,2.166627 2.96099,3.025097 1.43003,0.878915 3.0283,1.308148 4.778,1.308148 1.74969,0 2.92736,-0.408794 3.56668,-1.22639 0.62246,-0.817593 0.94212,-1.655625 0.94212,-2.534541 0,-1.083308 -0.45424,-2.08486 -1.34589,-3.025095 -0.85804,-0.919794 -1.93476,-1.389911 -3.2302,-1.389911 -0.26907,0 -0.53837,0 -0.80755,0 V 38.27846 h 2.15344 c 0.48789,0 0.94215,-0.245279 1.34594,-0.735835 0.40376,-0.531434 0.60564,-1.226391 0.60564,-2.043988 0,-0.817592 -0.40376,-1.492107 -1.21131,-2.043983 -0.80755,-0.592753 -1.85064,-0.899355 -3.09559,-0.899355 -2.42264,0 -4.3574,0.899355 -5.78744,2.69806 L 130.8026,31.08363 c 1.29544,-1.635185 2.77593,-2.861576 4.44152,-3.679168 1.69921,-0.858475 3.44891,-1.308153 5.24907,-1.308153 2.64136,0 4.86211,0.899354 6.66227,2.698059 1.78331,1.757828 2.6918,3.924452 2.6918,6.540753 0,2.616298 -0.70659,4.701167 -2.08615,6.213713 z m 0,0" style="opacity:1;fill:#2c4e36;fill-opacity:1;fill-rule:nonzero;stroke:none;stroke-width:4.74724" />
      <path id="path2465" d="m 121.41511,58.963585 h -5.51686 V 36.64327 h -2.79333 v -6.704269 c 1.57125,-0.592756 2.60129,-1.880467 3.07268,-3.842692 h 5.23751 z m 0,0" style="opacity:1;fill:#2c4e36;fill-opacity:1;fill-rule:nonzero;stroke:none;stroke-width:4.83592" />
      <path style="opacity:1;fill:#2c4e36;fill-opacity:1;fill-rule:nonzero;stroke:none;stroke-width:4.83592" d="M 100.41519,58.963585 H 94.89833 V 36.64327 H 92.105 v -6.704269 c 1.57125,-0.592756 2.60129,-1.880467 3.07268,-3.842692 h 5.23751 z m 0,0" id="path2696" />
    </g>
  </g>
</svg>
