<?xml version="1.0" encoding="UTF-8"?>
<svg xmlns="http://www.w3.org/2000/svg" xmlns:ns1="http://sodipodi.sourceforge.net/DTD/sodipodi-0.dtd" viewBox="0 0 182.5206 159.16341" height="159.16341" width="182.5206" id="svg7508" version="1.1">
  <defs id="defs7512" />
  <ns1:namedview showgrid="false" id="namedview7510" guidetolerance="10" gridtolerance="10" objecttolerance="10" borderopacity="1" bordercolor="#666666" pagecolor="#ffffff" />
  <g transform="translate(-4.1026605,-2.5197692)" id="g7516">
    <path style="color:#000000;font-style:normal;font-variant:normal;font-weight:normal;font-stretch:normal;font-size:medium;line-height:normal;font-family:sans-serif;font-variant-ligatures:normal;font-variant-position:normal;font-variant-caps:normal;font-variant-numeric:normal;font-variant-alternates:normal;font-variant-east-asian:normal;font-feature-settings:normal;font-variation-settings:normal;text-indent:0;text-align:start;text-decoration:none;text-decoration-line:none;text-decoration-style:solid;text-decoration-color:#000000;letter-spacing:normal;word-spacing:normal;text-transform:none;writing-mode:lr-tb;direction:ltr;text-orientation:mixed;dominant-baseline:auto;baseline-shift:baseline;text-anchor:start;white-space:normal;shape-padding:0;shape-margin:0;inline-size:0;clip-rule:nonzero;display:inline;overflow:visible;visibility:visible;opacity:1;isolation:auto;mix-blend-mode:normal;color-interpolation:sRGB;color-interpolation-filters:linearRGB;solid-color:#000000;solid-opacity:1;vector-effect:none;fill:#ffffff;fill-opacity:1;fill-rule:nonzero;stroke:none;stroke-width:2.26036;stroke-linecap:butt;stroke-linejoin:miter;stroke-miterlimit:4;stroke-dasharray:none;stroke-dashoffset:0;stroke-opacity:1;color-rendering:auto;image-rendering:auto;shape-rendering:auto;text-rendering:auto;enable-background:accumulate;stop-color:#000000;stop-opacity:1" d="m 13.086422,3.8360243 c -4.247227,0 -7.6675005,3.4202801 -7.6675005,7.6674937 V 152.69942 c 0,4.24722 3.4202735,7.6675 7.6675005,7.6675 H 177.63951 c 4.24722,0 7.66749,-3.42028 7.66749,-7.6675 V 11.503518 c 0,-4.2472136 -3.42027,-7.6674937 -7.66749,-7.6674937 z" id="path17489" />
    <path style="color:#000000;font-style:normal;font-variant:normal;font-weight:normal;font-stretch:normal;font-size:medium;line-height:normal;font-family:sans-serif;font-variant-ligatures:normal;font-variant-position:normal;font-variant-caps:normal;font-variant-numeric:normal;font-variant-alternates:normal;font-variant-east-asian:normal;font-feature-settings:normal;font-variation-settings:normal;text-indent:0;text-align:start;text-decoration:none;text-decoration-line:none;text-decoration-style:solid;text-decoration-color:#000000;letter-spacing:normal;word-spacing:normal;text-transform:none;writing-mode:lr-tb;direction:ltr;text-orientation:mixed;dominant-baseline:auto;baseline-shift:baseline;text-anchor:start;white-space:normal;shape-padding:0;shape-margin:0;inline-size:0;clip-rule:nonzero;display:inline;overflow:visible;visibility:visible;opacity:1;isolation:auto;mix-blend-mode:normal;color-interpolation:sRGB;color-interpolation-filters:linearRGB;solid-color:#000000;solid-opacity:1;vector-effect:none;fill:#244a38;fill-opacity:1;fill-rule:nonzero;stroke:none;stroke-width:0.372779;stroke-linecap:butt;stroke-linejoin:miter;stroke-miterlimit:4;stroke-dasharray:none;stroke-dashoffset:0;stroke-opacity:1;color-rendering:auto;image-rendering:auto;shape-rendering:auto;text-rendering:auto;enable-background:accumulate;stop-color:#000000;stop-opacity:1" d="m 13.086422,2.7061587 c -4.853975,0 -8.797372,3.9433915 -8.797372,8.7973593 V 152.69942 c 0,4.85399 3.943397,8.79737 8.797372,8.79737 H 177.63951 c 4.85397,0 8.79736,-3.94338 8.79736,-8.79737 V 11.503518 c 0,-4.8539678 -3.94339,-8.7973593 -8.79736,-8.7973593 z m 0,2.2597362 H 177.63951 c 3.64046,0 6.53762,2.8971647 6.53762,6.5376231 V 152.69942 c 0,3.64046 -2.89716,6.53763 -6.53762,6.53763 H 13.086422 c -3.640466,0 -6.5376358,-2.89717 -6.5376358,-6.53763 V 11.503518 c 0,-3.6404584 2.8971698,-6.5376231 6.5376358,-6.5376231 z" id="path17491" />
    <path id="path17493" style="color:#000000;font-style:normal;font-variant:normal;font-weight:normal;font-stretch:normal;font-size:medium;line-height:normal;font-family:sans-serif;font-variant-ligatures:normal;font-variant-position:normal;font-variant-caps:normal;font-variant-numeric:normal;font-variant-alternates:normal;font-variant-east-asian:normal;font-feature-settings:normal;font-variation-settings:normal;text-indent:0;text-align:start;text-decoration:none;text-decoration-line:none;text-decoration-style:solid;text-decoration-color:#000000;letter-spacing:normal;word-spacing:normal;text-transform:none;writing-mode:lr-tb;direction:ltr;text-orientation:mixed;dominant-baseline:auto;baseline-shift:baseline;text-anchor:start;white-space:normal;shape-padding:0;shape-margin:0;inline-size:0;clip-rule:nonzero;display:inline;overflow:visible;visibility:visible;opacity:1;isolation:auto;mix-blend-mode:normal;color-interpolation:sRGB;color-interpolation-filters:linearRGB;solid-color:#000000;solid-opacity:1;vector-effect:none;fill:#244a38;fill-opacity:1;fill-rule:nonzero;stroke:none;stroke-width:2.26036;stroke-linecap:butt;stroke-linejoin:miter;stroke-miterlimit:4;stroke-dasharray:none;stroke-dashoffset:0;stroke-opacity:1;color-rendering:auto;image-rendering:auto;shape-rendering:auto;text-rendering:auto;enable-background:accumulate;stop-color:#000000;stop-opacity:1" d="m 8.871663,115.47179 v 37.23198 c 0,2.33422 1.8763,4.21053 4.210527,4.21053 h 164.56443 c 2.33423,0 4.21052,-1.87631 4.21052,-4.21053 v -37.23198 z" />
    <path id="path17535" style="color:#000000;font-style:normal;font-variant:normal;font-weight:normal;font-stretch:normal;font-size:medium;line-height:normal;font-family:sans-serif;font-variant-ligatures:normal;font-variant-position:normal;font-variant-caps:normal;font-variant-numeric:normal;font-variant-alternates:normal;font-variant-east-asian:normal;font-feature-settings:normal;font-variation-settings:normal;text-indent:0;text-align:start;text-decoration:none;text-decoration-line:none;text-decoration-style:solid;text-decoration-color:#000000;letter-spacing:normal;word-spacing:normal;text-transform:none;writing-mode:lr-tb;direction:ltr;text-orientation:mixed;dominant-baseline:auto;baseline-shift:baseline;text-anchor:start;white-space:normal;shape-padding:0;shape-margin:0;inline-size:0;clip-rule:nonzero;display:inline;overflow:visible;visibility:visible;opacity:1;isolation:auto;mix-blend-mode:normal;color-interpolation:sRGB;color-interpolation-filters:linearRGB;solid-color:#000000;solid-opacity:1;vector-effect:none;fill:#ffee33;fill-opacity:1;fill-rule:nonzero;stroke:none;stroke-width:2.26036;stroke-linecap:butt;stroke-linejoin:miter;stroke-miterlimit:4;stroke-dasharray:none;stroke-dashoffset:0;stroke-opacity:1;color-rendering:auto;image-rendering:auto;shape-rendering:auto;text-rendering:auto;enable-background:accumulate;stop-color:#000000;stop-opacity:1" d="m 13.08219,7.2758011 c -2.332432,0 -4.210527,1.8925556 -4.210527,4.2339019 V 113.16045 H 181.85714 V 11.509703 c 0,-2.3413463 -1.87808,-4.2339019 -4.21052,-4.2339019 z" />
    <g id="g17499" style="opacity:1;fill:#ffffff;fill-opacity:1" transform="matrix(0.99407574,0,0,0.99407574,-143.76508,-34.864241)">
      <g style="fill:#ffffff" transform="translate(161.28,180.12001)" id="g17497">
        <path style="fill:#ffffff;stroke:none" d="m 17.125,-15.109375 h 8 v 2.9375 h -2.515625 c -0.230469,4.21875 -1.105469,7.570312 -2.625,10.046875 1.46875,1.542969 3.398438,2.773438 5.796875,3.703125 C 24.976563,2.429688 24.164063,3.445313 23.34375,4.625 21.207031,3.3125 19.460938,1.910156 18.109375,0.421875 c -1.304687,1.394531 -3,2.6875 -5.09375,3.875 C 12.523438,3.742188 11.851563,3.109375 11,2.390625 V 4.375 H 7.640625 v -7.5 c -2.105469,0.949219 -3.804687,1.789062 -5.09375,2.515625 L 1,-3.4375 C 1.414063,-3.769531 1.71875,-4.082031 1.90625,-4.375 2.101563,-4.675781 2.203125,-5.160156 2.203125,-5.828125 V -16.5 h 2.90625 c 0.4375,0 0.65625,0.105469 0.65625,0.3125 0,0.105469 -0.03125,0.234375 -0.09375,0.390625 -0.15625,0.386719 -0.234375,1.078125 -0.234375,2.078125 v 8.78125 c 0.957031,-0.5 1.691406,-0.910156 2.203125,-1.234375 V -19.78125 H 10.4375 c 0.332031,0 0.546875,0.02734 0.640625,0.07813 0.101563,0.05469 0.15625,0.136719 0.15625,0.25 0,0.117187 -0.04297,0.277344 -0.125,0.484375 C 11.035156,-18.757813 11,-17.921875 11,-16.453125 V -8.6875 c 1.5,-2.1875 2.84375,-6.015625 4.03125,-11.484375 1.820313,0.492187 2.925781,0.820312 3.3125,0.984375 0.394531,0.167969 0.59375,0.324219 0.59375,0.46875 0,0.136719 -0.121094,0.308594 -0.359375,0.515625 -0.230469,0.210937 -0.714844,1.242187 -1.453125,3.09375 z m 2.234375,2.9375 H 16.15625 c 0.226563,2.699219 0.804688,5.027344 1.734375,6.984375 0.925781,-2.050781 1.414063,-4.378906 1.46875,-6.984375 z M 13.9375,-7.84375 c -0.355469,0.625 -0.683594,1.132812 -0.984375,1.515625 C 12.304688,-6.847656 11.65625,-7.289063 11,-7.65625 v 9.25 C 13.019531,0.664063 14.710938,-0.613281 16.078125,-2.25 15.066406,-3.96875 14.351563,-5.832031 13.9375,-7.84375 Z m 0,0" id="path17495" />
      </g>
    </g>
    <g id="g17505" style="opacity:1;fill:#ffffff;fill-opacity:1" transform="matrix(0.99407574,0,0,0.99407574,-150.53233,-34.864241)">
      <g style="fill:#ffffff" transform="translate(187.51259,180.12001)" id="g17503">
        <path style="fill:#ffffff;stroke:none" d="M 26.602977,-0.234375 V -4.28125 h -9.625 V 0.421875 H 13.587352 V -4.90625 l -1.828125,0.734375 C 11.216258,-5.117188 10.435008,-6.0625 9.4154774,-7 12.39204,-7.300781 14.477977,-7.984375 15.665477,-9.046875 h -3.9375 L 12.071727,-14.75 h 5.4375 v -1.015625 h -6.375 v -2.515625 h 6.375 v -1.859375 h 2.796875 c 0.507813,0 0.765625,0.132812 0.765625,0.390625 0,0.105469 -0.04687,0.257812 -0.140625,0.453125 -0.08594,0.199219 -0.152344,0.539062 -0.203125,1.015625 h 2 v -2 h 2.78125 c 0.4375,0 0.65625,0.140625 0.65625,0.421875 0,0.08594 -0.03906,0.257812 -0.109375,0.515625 -0.07422,0.25 -0.125,0.605469 -0.15625,1.0625 h 5.84375 l -0.234375,5.734375 h -5.609375 v 1.109375 h 7.296875 l -0.140625,3.5625 c -0.03125,0.84375 -0.3125,1.421875 -0.84375,1.734375 -0.523437,0.304687 -1.234375,0.511719 -2.140625,0.625 v 5.359375 h -3.25 c 1.832031,0.613281 3.765625,1.296875 5.796875,2.046875 l -2.046875,2.8125 C 27.790477,3.347656 24.868602,2.164063 21.806102,1.15625 l 1.515625,-2.4375 z m -0.703125,-15.53125 V -14.75 h 2.46875 l 0.09375,-1.015625 z M 22.727977,-14.75 v -1.015625 H 20.681102 L 20.649852,-14.75 Z m -5.59375,3.3125 c 0.101563,-0.351563 0.179688,-0.722656 0.234375,-1.109375 h -2.328125 l -0.07813,1.109375 z m 5.59375,0 v -1.109375 h -2.265625 c -0.0625,0.492187 -0.121094,0.859375 -0.171875,1.109375 z m -5.4375,4.59375 h 11.171875 c -0.105469,-0.539063 -0.3125,-1.078125 -0.625,-1.609375 C 28.731883,-8.148438 29.278758,-8 29.477977,-8 c 0.195313,0 0.304688,-0.125 0.328125,-0.375 l 0.03125,-0.671875 h -3.9375 v 1.96875 h -3.171875 v -1.96875 h -3.328125 c -0.5,0.824219 -1.203125,1.558594 -2.109375,2.203125 z m 2.703125,2.796875 c 0.945313,0.042969 1.769531,0.101562 2.46875,0.171875 0.695313,0.0625 1.109375,0.125 1.234375,0.1875 0.125,0.0625 0.1875,0.15625 0.1875,0.28125 0,0.117187 -0.07422,0.273437 -0.21875,0.46875 C 23.247508,-2.375 22.696727,-1.394531 22.009227,0 21.45454,1.113281 20.313915,2.066406 18.587352,2.859375 16.868602,3.660156 14.634227,4.238281 11.884227,4.59375 11.497508,3.625 10.790477,2.59375 9.7592274,1.5 13.290477,1.550781 15.821727,1.15625 17.352977,0.3125 c 1.53125,-0.832031 2.410156,-2.285156 2.640625,-4.359375 z m 0,0" id="path17501" />
      </g>
    </g>
    <g id="g17511" style="opacity:1;fill:#ffffff;fill-opacity:1" transform="matrix(0.99407574,0,0,0.99407574,-148.8467,-34.864241)">
      <g style="fill:#ffffff" transform="translate(213.74519,180.12001)" id="g17509">
        <path style="fill:#ffffff;stroke:none" d="m 23.634227,2.25 v 2.078125 h -3.09375 v -13.03125 h 3.78125 V -19.96875 h 2.9375 c 0.414063,0 0.625,0.08594 0.625,0.25 0,0.167969 -0.04297,0.375 -0.125,0.625 -0.125,0.449219 -0.1875,1.648437 -0.1875,3.59375 h 6.171875 v 2.90625 h -6.171875 v 3.890625 h 4.828125 v 13.03125 h -3.28125 V 2.25 Z m 5.484375,-2.640625 V -5.84375 h -5.484375 v 5.453125 z M 14.321728,-15.21875 h 6.546874 V -12.375 H 9.6342276 v -2.84375 h 4.5625004 c -0.230469,-1.238281 -0.589844,-2.550781 -1.078125,-3.9375 l 3.390624,-0.78125 c 0.382813,1.085937 0.707031,2.398437 0.96875,3.9375 z M 17.915477,-2.5 c 0.988281,-0.238281 1.71875,-0.425781 2.1875,-0.5625 0.01953,0.835937 0.125,1.730469 0.3125,2.6875 -4.011719,0.925781 -7.386718,1.910156 -10.124999,2.953125 L 9.1342276,-0.8125 c 2.6445314,-0.457031 4.6757814,-0.828125 6.0937494,-1.109375 0.539063,-3.4375 0.863281,-6.738281 0.96875,-9.90625 2.144531,0.15625 3.300781,0.261719 3.46875,0.3125 0.164063,0.05469 0.25,0.140625 0.25,0.265625 0,0.117187 -0.109375,0.367187 -0.328125,0.75 -0.21875,0.375 -0.421875,1.105469 -0.609375,2.1875 z m -4.218749,-8.859375 c 0.332031,2.210937 0.628906,5.042969 0.890624,8.5 L 11.759228,-2.5 c -0.261719,-3.019531 -0.648437,-5.796875 -1.15625,-8.328125 z m 0,0" id="path17507" />
      </g>
    </g>
    <path id="path17543" style="opacity:1;fill:#000000;fill-opacity:1;stroke-width:0.0705825" d="m 100.51793,25.407157 v 4.5206 64.371033 h 4.52062 46.78886 V 89.778189 H 105.03855 V 29.927757 h 42.26825 v 12.347526 h 4.52061 v -12.347526 -4.5206 h -4.52061 z m 22.99689,17.214801 a 7.434611,7.434611 0 0 0 -7.43109,7.434643 7.434611,7.434611 0 0 0 7.43464,7.434645 7.434611,7.434611 0 0 0 7.43451,-7.434645 7.434611,7.434611 0 0 0 -7.43451,-7.434643 7.434611,7.434611 0 0 0 -0.004,0 z m -6.77951,17.068621 c -2.99707,-2.2e-5 -5.40984,2.412762 -5.40984,5.409825 v 21.794984 h 19.43838 V 73.68975 h 0.017 v -0.29988 c 0,-0.851909 0.68584,-1.537623 1.53774,-1.537623 0.21713,0 0.46729,0.04497 0.71959,0.125487 l 1.49307,1.699888 v 0.01214 h 0.0107 l 3.58616,4.082848 h 6.07404 4.45707 c 1.6525,2.3e-5 2.98286,-1.330352 2.98286,-2.982851 0,-1.652477 -1.33036,-2.982889 -2.98286,-2.982846 h -7.48696 -1.06651 l -4.67457,-6.76226 -3.3924,-3.907662 c -0.95829,-1.072425 -2.1117,-1.440258 -3.7413,-1.446539 h -2.94345 -0.17847 z m 38.79214,7.501732 v 7.388644 h 12.73375 v -7.388644 z" />
    <path d="m 75.883659,35.160694 -0.374952,0.910299 c 4.727601,0.114125 8.570236,3.582057 9.268693,8.134271 l 0.865688,-0.406821 C 84.787927,39.065908 80.79521,35.440768 75.883659,35.160694 Z m -1.825907,4.426156 -0.360085,0.873122 c 3.319567,0.332344 6.043631,2.577174 7.080575,5.624309 l 0.829572,-0.389824 c -1.149682,-3.242481 -4.0356,-5.649347 -7.550062,-6.107607 z m -1.372354,3.326787 -0.352644,0.854002 c 2.129127,0.635767 3.902467,2.059802 4.99974,3.936486 L 78.161,47.3143 c -1.196535,-2.08081 -3.140169,-3.674669 -5.475602,-4.400663 z m -1.101494,2.670352 -0.348397,0.843381 c 1.253928,0.624633 2.330681,1.540232 3.147278,2.662916 l 0.839133,-0.395136 c -0.926963,-1.32139 -2.177509,-2.393223 -3.638014,-3.111161 z m -16.537273,0.636253 c -0.368029,-0.0024 -0.748349,-9.8e-4 -1.142917,0.0032 -5.344005,0.06931 -7.473904,-0.0015 -11.00113,1.062192 -3.64032,1.097795 -10.067461,5.36301 -10.067461,5.36301 l -5.868613,0.317595 c 0,0 -1.136781,2.04437 -1.147168,3.959855 -0.0047,0.782876 0.288918,1.543223 0.565087,2.097828 l -1.626215,1.142916 c 2.6e-5,0 -0.299192,3.580351 2.16156,4.053331 l 5.159071,0.673429 c 0,0 -0.203877,-5.96339 6.00351,-6.189395 2.822984,0.122249 3.767975,1.415986 4.857406,2.79994 0.795054,1.176635 0.935893,2.43177 0.947476,3.260928 h -0.01485 l 0.0064,0.600142 31.281574,-0.339902 -0.0075,-0.60014 c 0,0 0.299488,-5.446969 6.024757,-5.685918 5.62341,0.256873 5.794258,5.626437 5.794258,5.626437 l 3.542415,-0.03824 1.61878,-0.864623 c 0,0 -0.03666,-1.050245 -0.08922,-2.107391 l 0.636253,-0.228369 -0.02229,-2.010733 -0.912422,-0.806203 c -0.0027,-0.0061 -0.0049,-0.02344 -0.0075,-0.02867 0,0 -0.257406,-1.991882 -3.382021,-2.959268 -6.657547,-1.916895 -13.247669,-2.20087 -13.247669,-2.20087 l -11.993226,-6.14272 c 0,0 -2.548109,-0.724401 -8.068416,-0.758405 z m 4.484575,1.620906 c 0.807247,-0.01385 2.361625,0.93036 3.468063,1.544428 2.690046,1.492962 7.647784,5.167567 7.647784,5.167567 l -15.457027,-0.441871 -0.93473,-6.179838 z m -7.030649,0.168888 0.608635,6.070433 -13.906223,-0.156144 c 0,0 1.129278,-2.31601 2.046845,-3.180205 0.925543,-0.871715 2.95058,-1.827582 3.324661,-1.868396 z m 28.479505,11.459993 c -2.84144,0.03089 -5.121463,2.340894 -5.090029,5.15907 0.03143,2.815929 2.362234,5.074186 5.203682,5.043291 h 0.0011 c 2.841446,-0.03089 5.121462,-2.339952 5.090028,-5.155883 -0.0315,-2.818176 -2.362228,-5.077374 -5.203681,-5.046478 z m -43.040041,0.0095 c -0.266385,0.0027 -0.527783,0.02544 -0.782835,0.06692 -0.339924,0.05531 -0.668703,0.143482 -0.982527,0.261299 -0.156833,0.0589 -0.309816,0.125412 -0.458868,0.198628 -0.447353,0.219805 -0.85765,0.502668 -1.219399,0.835946 -0.0022,0.0022 -0.0043,0.0032 -0.0064,0.0054 -0.05812,0.05373 -0.115457,0.109395 -0.17101,0.165698 -0.05763,0.05842 -0.114125,0.117373 -0.16889,0.178452 -0.273488,0.30503 -0.510227,0.643328 -0.704233,1.006957 -0.07754,0.145343 -0.148035,0.295052 -0.211376,0.448247 -0.05556,0.134338 -0.104656,0.272372 -0.148708,0.412128 -0.0062,0.01963 -0.01315,0.03871 -0.01914,0.05843 -0.144929,0.480834 -0.22049,0.991735 -0.214563,1.520002 0.0022,0.175987 0.0124,0.349249 0.03188,0.520474 0.0292,0.256818 0.07827,0.508334 0.144454,0.752029 0.04411,0.162327 0.09567,0.321477 0.155082,0.476923 0.05948,0.155573 0.126825,0.307855 0.200754,0.455681 0.03699,0.07392 0.07537,0.145924 0.115779,0.217751 0.08085,0.14365 0.168369,0.283868 0.262361,0.418506 0.04699,0.06731 0.09544,0.13266 0.145521,0.197569 0.150367,0.194733 0.315266,0.379074 0.491796,0.550216 0.05884,0.05704 0.119048,0.112548 0.180572,0.166763 0.123072,0.10842 0.251337,0.210516 0.384514,0.306972 0.46609,0.337612 0.991332,0.600245 1.557173,0.767966 0.161669,0.04791 0.326073,0.08791 0.49392,0.120025 0.335697,0.06431 0.683646,0.09606 1.038824,0.09241 h 0.0022 c 0.177438,-0.0022 0.353154,-0.01256 0.52578,-0.03188 0.01028,-0.0011 0.02051,-0.0032 0.03078,-0.0043 0.227604,-0.02681 0.450742,-0.06905 0.668121,-0.124279 0.01974,-0.0049 0.03992,-0.0085 0.05948,-0.01381 0.245713,-0.06552 0.484189,-0.149366 0.713793,-0.248552 0.306168,-0.132307 0.597313,-0.292913 0.868875,-0.479049 v -0.0011 c 0.06782,-0.04651 0.134292,-0.09486 0.199694,-0.144462 h 0.0011 c 0.196479,-0.148997 0.381789,-0.311546 0.554464,-0.486484 0.115098,-0.116621 0.223693,-0.238316 0.327154,-0.365391 0.155196,-0.190605 0.297237,-0.392708 0.423816,-0.604388 0.08439,-0.141123 0.162017,-0.286089 0.232624,-0.435499 0.03529,-0.07471 0.0692,-0.150698 0.100899,-0.22731 0.158547,-0.383198 0.271064,-0.789116 0.331409,-1.211964 0.01202,-0.08453 0.02191,-0.17019 0.02975,-0.255987 0.01588,-0.171599 0.02236,-0.345542 0.02018,-0.52154 -0.0011,-0.08821 -0.0043,-0.175296 -0.0095,-0.262361 -0.0011,-0.007 -0.0016,-0.01425 -0.0022,-0.02127 -0.01033,-0.155909 -0.02796,-0.309277 -0.05205,-0.460994 -0.0011,-0.01033 -0.0022,-0.02051 -0.0043,-0.03078 v -0.0011 c -0.0027,-0.016 -0.0064,-0.03181 -0.0095,-0.0478 -0.03705,-0.210968 -0.08644,-0.41708 -0.148708,-0.618197 -0.0075,-0.02387 -0.01458,-0.04743 -0.0223,-0.07116 v -0.0011 c -0.02595,-0.07961 -0.05308,-0.157975 -0.08285,-0.23581 -0.297276,-0.778245 -0.781568,-1.465215 -1.396783,-2.007541 -0.123055,-0.108468 -0.251355,-0.210478 -0.384514,-0.306976 -0.199743,-0.144739 -0.409855,-0.276528 -0.629879,-0.391948 -0.07323,-0.03839 -0.147811,-0.07441 -0.223062,-0.109405 -0.07538,-0.03502 -0.152139,-0.0684 -0.229437,-0.09985 -0.154488,-0.06282 -0.31327,-0.118857 -0.474796,-0.166765 -0.08083,-0.02399 -0.161868,-0.04574 -0.244305,-0.06586 -0.08229,-0.02007 -0.165834,-0.03812 -0.249618,-0.05417 -0.251761,-0.04824 -0.510054,-0.07888 -0.773274,-0.08922 -0.08774,-0.0038 -0.175693,-0.0038 -0.264486,-0.0032 z m 43.064471,2.202988 h 0.0011 c 1.608414,-0.01751 2.930811,1.261769 2.948649,2.858359 0.01784,1.596586 -1.275453,2.904621 -2.883855,2.922094 h -0.0011 c -1.608398,0.01751 -2.928739,-1.261769 -2.946523,-2.858361 -0.01784,-1.596591 1.273327,-2.904619 2.881729,-2.922092 z m -43.040043,0.0084 h 0.0022 c 0.804081,-0.0087 1.536908,0.307173 2.070213,0.824258 0.06667,0.06464 0.129922,0.132171 0.190131,0.202881 0.06019,0.07072 0.116709,0.144629 0.169951,0.220935 0.05325,0.0763 0.102917,0.154398 0.148709,0.235806 v 0.0011 c 0.04574,0.0813 0.08861,0.164751 0.1264,0.250672 0.07577,0.172202 0.134252,0.352781 0.175259,0.540657 0.04096,0.187745 0.06368,0.382506 0.06586,0.582084 0.0011,0.09979 -0.0027,0.198003 -0.0117,0.295286 -0.0088,0.09743 -0.02306,0.193423 -0.04144,0.287856 -0.03192,0.163772 -0.07951,0.322068 -0.13808,0.474802 -0.0088,0.02306 -0.01609,0.04622 -0.02551,0.06904 v 0.0011 c -0.03589,0.08673 -0.07614,0.170515 -0.120026,0.252799 -0.263812,0.494505 -0.667306,0.904552 -1.159913,1.176907 -0.246275,0.136158 -0.514955,0.237644 -0.798769,0.298478 -0.189203,0.04057 -0.385286,0.06368 -0.586332,0.06585 h -0.0032 C 37.224,67.480128 36.492374,67.164391 35.959049,66.64717 35.759073,66.45323 35.587637,66.230711 35.450263,65.986483 h -0.0011 c -0.04569,-0.08125 -0.08761,-0.164818 -0.125334,-0.250673 v -0.0011 c -0.108089,-0.245855 -0.180225,-0.509879 -0.215627,-0.786021 -0.0016,-0.0136 -0.0054,-0.02671 -0.0075,-0.04035 -0.01099,-0.09706 -0.01697,-0.195501 -0.01805,-0.295291 -0.0011,-0.09963 0.0027,-0.198143 0.01169,-0.295284 v -0.0011 c 0.01773,-0.194419 0.05467,-0.383583 0.109404,-0.565085 0.08215,-0.272454 0.204447,-0.52818 0.359024,-0.760532 0.360627,-0.541966 0.900838,-0.955927 1.536992,-1.159912 0.09092,-0.02915 0.183693,-0.05516 0.278296,-0.07542 0.189201,-0.04057 0.385279,-0.06263 0.586327,-0.06479 z" style="color:#000000;font-style:normal;font-variant:normal;font-weight:normal;font-stretch:normal;font-size:medium;line-height:normal;font-family:sans-serif;font-variant-ligatures:normal;font-variant-position:normal;font-variant-caps:normal;font-variant-numeric:normal;font-variant-alternates:normal;font-variant-east-asian:normal;font-feature-settings:normal;font-variation-settings:normal;text-indent:0;text-align:start;text-decoration:none;text-decoration-line:none;text-decoration-style:solid;text-decoration-color:#000000;letter-spacing:normal;word-spacing:normal;text-transform:none;writing-mode:lr-tb;direction:ltr;text-orientation:mixed;dominant-baseline:auto;baseline-shift:baseline;text-anchor:start;white-space:normal;shape-padding:0;shape-margin:0;inline-size:0;clip-rule:nonzero;display:inline;overflow:visible;visibility:visible;opacity:1;isolation:auto;mix-blend-mode:normal;color-interpolation:sRGB;color-interpolation-filters:linearRGB;solid-color:#000000;solid-opacity:1;vector-effect:none;fill:#000000;fill-opacity:1;fill-rule:evenodd;stroke:none;stroke-width:0.917354;stroke-linecap:butt;stroke-linejoin:miter;stroke-miterlimit:4;stroke-dasharray:none;stroke-dashoffset:0;stroke-opacity:1;color-rendering:auto;image-rendering:auto;shape-rendering:auto;text-rendering:auto;enable-background:accumulate;stop-color:#000000;stop-opacity:1" id="path883" />
    <g style="opacity:1" transform="matrix(0.68741252,0,0,0.68741252,-23.203813,20.007441)" id="surface529739">
      <g style="fill:#000000;fill-opacity:1" id="g1023">
        <g id="use1021" transform="translate(93.599998,99)">
          <path id="path1044" d="M 17.765625,0 H 2.84375 v -20.265625 h 14.625 v 4.046875 H 6.890625 v 3.421875 H 12.84375 V -8.75 H 6.890625 v 4.703125 h 10.875 z m 0,0" style="stroke:none" />
        </g>
      </g>
      <g style="fill:#000000;fill-opacity:1" id="g1027">
        <g id="use1025" transform="translate(112.85225,99)">
          <path id="path1048" d="M 15.8125,-16.34375 H 10.265625 V 0 H 6.3125 v -16.34375 h -5.5 v -3.921875 h 15 z m 0,0" style="stroke:none" />
        </g>
      </g>
      <g style="fill:#000000;fill-opacity:1" id="g1031">
        <g id="use1029" transform="translate(129.46999,99)">
          <path id="path1052" d="m 18.140625,-4.21875 c -1.761719,2.949219 -4.242187,4.421875 -7.4375,4.421875 -2.605469,0 -4.703125,-0.957031 -6.296875,-2.875 -1.585937,-1.914063 -2.375,-4.609375 -2.375,-8.078125 0,-2.582031 0.796875,-4.84375 2.390625,-6.78125 1.601563,-1.9375 3.664063,-2.90625 6.1875,-2.90625 1.59375,0 3.066406,0.382812 4.421875,1.140625 1.351563,0.75 2.390625,1.8125 3.109375,3.1875 l -3.484375,1.890625 c -0.449219,-0.789063 -1.03125,-1.363281 -1.75,-1.71875 -0.71875,-0.363281 -1.417969,-0.546875 -2.09375,-0.546875 -1.554687,0 -2.746094,0.601562 -3.578125,1.796875 -0.835937,1.1875 -1.25,2.726562 -1.25,4.609375 0,1.875 0.414063,3.390625 1.25,4.546875 0.832031,1.148437 1.804688,1.71875 2.921875,1.71875 1.113281,0 1.953125,-0.140625 2.515625,-0.421875 0.5625,-0.28125 1.222656,-0.90625 1.984375,-1.875 z m 0,0" style="stroke:none" />
        </g>
      </g>
      <g style="fill:#000000;fill-opacity:1" id="g1035">
        <g id="use1033" transform="translate(93.599998,131.52)">
          <path id="path1056" d="" style="stroke:none" />
        </g>
      </g>
    </g>
    <path id="path6711" d="m 159.4295,139.46241 -2.0126,2.59632 1.96467,6.00039 h -1.96467 l -1.26986,-4.00988 -1.12609,1.38472 v 2.62517 h -1.89281 V 137.2411 l 1.89281,-0.89428 v 5.53884 l 2.01259,-2.42324 z m 0,0" style="opacity:1;fill:#ffffff;fill-opacity:1;fill-rule:nonzero;stroke:none;stroke-width:1.68258" />
    <path id="path6713" d="m 172.67314,148.05913 h -1.86884 v -5.16379 c 0,-0.36061 -0.13179,-0.67794 -0.38336,-0.952 -0.25755,-0.26685 -0.55106,-0.40386 -0.88649,-0.40386 -0.32346,0 -0.599,0.13708 -0.8386,0.40386 -0.22762,0.27406 -0.33541,0.59139 -0.33541,0.952 v 5.16379 h -1.84489 v -5.19264 c 0,-0.34619 -0.10785,-0.64909 -0.31147,-0.92315 -0.20965,-0.26685 -0.49718,-0.40386 -0.86256,-0.40386 -0.3534,0 -0.65888,0.12974 -0.91046,0.37503 -0.23961,0.25242 -0.3594,0.56974 -0.3594,0.95198 v 5.19264 h -1.89279 v -8.59671 h 1.89279 v 0.51926 c 0.55706,-0.41828 1.15604,-0.63466 1.79696,-0.63466 0.79666,0 1.4256,0.33176 1.8928,0.98084 0.65291,-0.64908 1.36571,-0.98084 2.13241,-0.98084 0.76672,0 1.4196,0.28126 1.96467,0.8366 0.53912,0.56253 0.81464,1.22604 0.81464,1.9905 z m 0,0" style="opacity:1;fill:#ffffff;fill-opacity:1;fill-rule:nonzero;stroke:none;stroke-width:1.68258" />
    <path style="opacity:1;fill:#ffffff;fill-opacity:1;fill-rule:nonzero;stroke:none;stroke-width:3.11389" d="m 144.00379,148.05913 h -3.28655 v -15.53451 h -1.66409 v -4.66604 c 0.93604,-0.41254 1.54966,-1.30878 1.83049,-2.67445 h 3.12015 z m 0,0" id="path6715" />
  </g>
</svg>
