<?xml version="1.0" encoding="UTF-8"?>
<svg xmlns="http://www.w3.org/2000/svg" xmlns:ns1="http://sodipodi.sourceforge.net/DTD/sodipodi-0.dtd" viewBox="0 0 155.52571 94.318367" height="94.318367" width="155.52571" id="svg25" version="1.1">
  <defs id="defs29" />
  <ns1:namedview showguides="false" showgrid="false" id="namedview27" guidetolerance="10" gridtolerance="10" objecttolerance="10" borderopacity="1" bordercolor="#666666" pagecolor="#ffffff" />
  <g transform="translate(-4.6936724,-3.4444583)" id="g33">
    <path style="color:#000000;font-style:normal;font-variant:normal;font-weight:normal;font-stretch:normal;font-size:medium;line-height:normal;font-family:sans-serif;font-variant-ligatures:normal;font-variant-position:normal;font-variant-caps:normal;font-variant-numeric:normal;font-variant-alternates:normal;font-variant-east-asian:normal;font-feature-settings:normal;font-variation-settings:normal;text-indent:0;text-align:start;text-decoration:none;text-decoration-line:none;text-decoration-style:solid;text-decoration-color:#000000;letter-spacing:normal;word-spacing:normal;text-transform:none;writing-mode:lr-tb;direction:ltr;text-orientation:mixed;dominant-baseline:auto;baseline-shift:baseline;text-anchor:start;white-space:normal;shape-padding:0;shape-margin:0;inline-size:0;clip-rule:nonzero;display:inline;overflow:visible;visibility:visible;opacity:1;isolation:auto;mix-blend-mode:normal;color-interpolation:sRGB;color-interpolation-filters:linearRGB;solid-color:#000000;solid-opacity:1;vector-effect:none;fill:#ffffff;fill-opacity:1;fill-rule:nonzero;stroke:none;stroke-width:2.31349;stroke-linecap:butt;stroke-linejoin:miter;stroke-miterlimit:4;stroke-dasharray:none;stroke-dashoffset:0;stroke-opacity:1;color-rendering:auto;image-rendering:auto;shape-rendering:auto;text-rendering:auto;enable-background:accumulate;stop-color:#000000;stop-opacity:1" d="m 13.888551,4.7916496 c -4.3470295,0 -7.8476872,3.5006568 -7.8476872,7.8476864 v 75.928609 c 0,4.34703 3.5006577,7.847687 7.8476872,7.847687 H 151.0245 c 4.34703,0 7.84769,-3.500657 7.84769,-7.847687 V 12.639336 c 0,-4.3470296 -3.50066,-7.8476864 -7.84769,-7.8476864 z" id="path11391" />
    <path style="color:#000000;font-style:normal;font-variant:normal;font-weight:normal;font-stretch:normal;font-size:medium;line-height:normal;font-family:sans-serif;font-variant-ligatures:normal;font-variant-position:normal;font-variant-caps:normal;font-variant-numeric:normal;font-variant-alternates:normal;font-variant-east-asian:normal;font-feature-settings:normal;font-variation-settings:normal;text-indent:0;text-align:start;text-decoration:none;text-decoration-line:none;text-decoration-style:solid;text-decoration-color:#000000;letter-spacing:normal;word-spacing:normal;text-transform:none;writing-mode:lr-tb;direction:ltr;text-orientation:mixed;dominant-baseline:auto;baseline-shift:baseline;text-anchor:start;white-space:normal;shape-padding:0;shape-margin:0;inline-size:0;clip-rule:nonzero;display:inline;overflow:visible;visibility:visible;opacity:1;isolation:auto;mix-blend-mode:normal;color-interpolation:sRGB;color-interpolation-filters:linearRGB;solid-color:#000000;solid-opacity:1;vector-effect:none;fill:#244a38;fill-opacity:1;fill-rule:nonzero;stroke:none;stroke-width:0.381539;stroke-linecap:butt;stroke-linejoin:miter;stroke-miterlimit:4;stroke-dasharray:none;stroke-dashoffset:0;stroke-opacity:1;color-rendering:auto;image-rendering:auto;shape-rendering:auto;text-rendering:auto;enable-background:accumulate;stop-color:#000000;stop-opacity:1" d="m 13.888551,3.6352278 c -4.9680436,0 -9.0041091,4.0360644 -9.0041091,9.0041082 v 75.928609 c 0,4.968045 4.0360655,9.004109 9.0041091,9.004109 H 151.0245 c 4.96805,0 9.00411,-4.036065 9.00411,-9.004109 V 12.639336 c 0,-4.9680431 -4.03606,-9.0041082 -9.00411,-9.0041082 z m 0,2.3128436 H 151.0245 c 3.72603,0 6.69126,2.9652491 6.69126,6.6912646 v 75.928609 c 0,3.726016 -2.96523,6.691265 -6.69126,6.691265 H 13.888551 c -3.726015,0 -6.6912653,-2.965249 -6.6912653,-6.691265 V 12.639336 c 0,-3.7260146 2.9652513,-6.6912646 6.6912653,-6.6912646 z" id="path11393" />
    <path id="path11374" style="color:#000000;font-style:normal;font-variant:normal;font-weight:normal;font-stretch:normal;font-size:medium;line-height:normal;font-family:sans-serif;font-variant-ligatures:normal;font-variant-position:normal;font-variant-caps:normal;font-variant-numeric:normal;font-variant-alternates:normal;font-variant-east-asian:normal;font-feature-settings:normal;font-variation-settings:normal;text-indent:0;text-align:start;text-decoration:none;text-decoration-line:none;text-decoration-style:solid;text-decoration-color:#000000;letter-spacing:normal;word-spacing:normal;text-transform:none;writing-mode:lr-tb;direction:ltr;text-orientation:mixed;dominant-baseline:auto;baseline-shift:baseline;text-anchor:start;white-space:normal;shape-padding:0;shape-margin:0;inline-size:0;clip-rule:nonzero;display:inline;overflow:visible;visibility:visible;opacity:1;isolation:auto;mix-blend-mode:normal;color-interpolation:sRGB;color-interpolation-filters:linearRGB;solid-color:#000000;solid-opacity:1;vector-effect:none;fill:#244a38;fill-opacity:1;fill-rule:nonzero;stroke:none;stroke-width:2.31349;stroke-linecap:butt;stroke-linejoin:miter;stroke-miterlimit:4;stroke-dasharray:none;stroke-dashoffset:0;stroke-opacity:1;color-rendering:auto;image-rendering:auto;shape-rendering:auto;text-rendering:auto;enable-background:accumulate;stop-color:#000000;stop-opacity:1" d="m 13.884028,8.3121777 c -2.387245,0 -4.3090672,1.9368233 -4.3090672,4.3331903 v 75.927101 c 0,2.389085 1.9199822,4.309066 4.3090672,4.309066 H 151.03204 c 2.38909,0 4.30907,-1.91998 4.30907,-4.309066 V 12.645368 c 0,-2.396368 -1.92182,-4.3331903 -4.30907,-4.3331903 z" />
    <path style="opacity:1;fill:#ffffff;fill-opacity:1;fill-rule:nonzero;stroke:none;stroke-width:2.84618" d="m 30.818373,23.704836 -0.978376,0.17788 V 45.985154 H 26.771451 V 24.327432 c -0.478072,0.0333 -0.822727,0.0666 -1.022849,0.0888 v 7.693614 c 0,6.759696 -0.833844,11.696038 -2.490413,14.809055 C 22.335401,46.11841 21.390378,45.45135 20.412,44.91769 c 0.822725,-1.689924 1.400858,-3.524377 1.734396,-5.514488 0.32242,-2.01234 0.489189,-4.936371 0.489189,-8.760934 v -8.716451 c 4.235927,-0.20008 7.782543,-1.045062 10.628732,-2.534871 l 2.045697,2.712759 v -0.489174 h 11.784998 v 11.562636 h -8.760934 v 3.246419 c 0,0.65596 0.355774,0.978376 1.06732,0.978376 h 4.491653 c 0.26669,0 0.455819,-0.0444 0.578119,-0.133479 0.144579,-0.111279 0.244486,-0.366902 0.311316,-0.756032 0.0888,-0.378002 0.144579,-0.989477 0.177879,-1.823325 1.122907,0.600374 2.268043,1.000606 3.424305,1.200721 -0.21118,1.456452 -0.466944,2.512672 -0.756004,3.157504 -0.266687,0.655961 -0.667088,1.100677 -1.200748,1.334151 -0.511405,0.21118 -1.278564,0.311286 -2.312529,0.311286 h -5.425537 c -1.222963,0 -2.090161,-0.266687 -2.623821,-0.80049 -0.511424,-0.53366 -0.756017,-1.489779 -0.756017,-2.890645 V 23.037546 c -0.422482,-0.02278 -0.933906,0 -1.55651,0.0888 -0.03336,1.245208 -0.04449,2.979589 -0.04449,5.203173 0,2.201355 0.100072,4.180338 0.311303,5.959204 0.233472,1.756638 0.589249,3.201961 1.067321,4.358225 0.46695,1.134035 1.378621,2.001239 2.712771,2.623843 1.334142,0.622604 3.046323,1.045092 5.158705,1.289664 2.101283,0.233387 4.024709,0.355775 5.781318,0.355775 -0.867176,1.356406 -1.467551,2.679428 -1.823325,3.957993 -2.757242,-0.333544 -5.047541,-0.711546 -6.848638,-1.156265 -1.812224,-0.422488 -3.246438,-0.92279 -4.313756,-1.512036 -1.067321,-0.600374 -1.867811,-1.245206 -2.401471,-1.956755 -0.511426,-0.711546 -0.978378,-1.745508 -1.423094,-3.113017 -0.444716,-1.356378 -0.75602,-2.823958 -0.933906,-4.402709 -0.155658,-1.567624 -0.222372,-3.402077 -0.222372,-5.51449 0,-2.101282 0.0111,-3.935735 0.04449,-5.514487 z m 8.805399,6.626296 v -5.825805 h -1.156264 v 5.825805 z m 4.224793,0 v -5.825805 h -1.245206 v 5.825805 z m 0,0" id="path91" />
    <path style="opacity:1;fill:#ffffff;fill-opacity:1;fill-rule:nonzero;stroke:none;stroke-width:2.84618" d="m 70.763157,23.438006 v -3.957965 h 3.068558 c 0.53366,0 0.80049,0.0888 0.80049,0.266689 0,0.17788 -0.0666,0.38913 -0.177879,0.622602 -0.17788,0.53366 -0.266687,1.556495 -0.266687,3.068533 h 6.893096 l -1.556495,6.492864 -3.379849,-0.444716 0.756005,-3.024075 h -2.712757 v 4.580597 h 5.069771 c -0.80049,4.269282 -2.079054,7.537959 -3.824565,9.783769 1.567623,1.278565 3.624421,2.223585 6.18155,2.846189 -0.978378,1.067321 -1.86781,2.223583 -2.668301,3.468791 -2.379242,-1.222978 -4.302639,-2.490414 -5.781319,-3.824565 -1.545395,1.334151 -3.579964,2.579357 -6.092606,3.735621 -0.51143,-0.92279 -1.234107,-1.812224 -2.179125,-2.668301 -0.478074,0.978377 -1.056192,1.923397 -1.734383,2.846187 -1.04509,-0.744904 -2.13464,-1.400864 -3.290902,-1.956752 1.712152,-1.600981 2.901772,-3.657807 3.557733,-6.181578 -3.680036,1.634336 -6.515122,3.024073 -8.494105,4.180337 L 53.197,39.581098 c 1.178493,-0.322416 2.512643,-0.756032 4.002451,-1.289692 V 30.419933 H 53.86406 v -3.246447 h 3.335391 V 20.28039 h 3.068531 c 0.444716,0 0.66709,0.122379 0.66709,0.355772 0,0.244489 -0.0666,0.567018 -0.177879,0.978379 -0.122379,0.422488 -0.17788,1.011734 -0.17788,1.778866 v 3.780079 h 2.979589 v 3.246447 h -2.979589 v 6.581808 c 1.245207,-0.555888 2.190227,-0.989506 2.846187,-1.289692 0.02278,0.92279 0.100179,1.71218 0.222289,2.357013 0.289058,-1.534267 0.444716,-3.346491 0.444716,-5.425546 v -9.205651 z m 0,7.604672 v -4.580597 h -3.37985 v 4.580597 z m 2.445956,7.337813 c 0.733774,-1.178493 1.334151,-2.646043 1.778867,-4.402682 h -3.513277 c 0.355774,1.723281 0.93392,3.190833 1.73441,4.402682 z m -5.825806,-4.402682 c -0.122379,3.768979 -0.867204,7.059882 -2.223582,9.872713 2.401471,-0.622604 4.358223,-1.60098 5.870262,-2.935131 -1.334151,-1.86781 -2.256943,-4.180337 -2.757245,-6.937582 z m 0,0" id="path93" />
    <path style="opacity:1;fill:#ffffff;fill-opacity:1;fill-rule:nonzero;stroke:none;stroke-width:2.84618" d="m 92.486099,26.239737 h -6.448407 v -3.290905 h 8.004902 c 0.53366,-1.211848 1.022862,-2.501543 1.46758,-3.869049 1.122907,0.266687 2.134639,0.52256 3.024073,0.756032 0.911662,0.244487 1.423095,0.38913 1.512033,0.444716 0.11128,0.0666 0.17788,0.17788 0.17788,0.355774 0,0.15568 -0.17788,0.378002 -0.533657,0.667061 -0.333546,0.266689 -0.733776,0.822748 -1.20075,1.645466 h 11.829477 v 3.290905 H 96.666428 c -0.978376,1.72328 -2.134641,3.457663 -3.468791,5.203172 h 4.447167 v -4.002452 h 3.379846 c 0.71155,0 1.06733,0.16678 1.06733,0.489205 0,0.155679 -0.0777,0.378002 -0.22229,0.66706 -0.15568,0.300188 -0.22229,1.245206 -0.22229,2.846187 h 7.29337 v 3.290905 h -7.29337 v 3.201961 h 10.00611 v 3.157502 H 101.6474 v 5.959206 H 97.644947 V 41.093277 H 85.015 v -3.157502 h 12.629956 v -3.201961 c -4.158109,0 -7.248898,0.177879 -9.294595,0.53366 -0.300188,-1.245207 -0.53366,-2.468157 -0.711546,-3.691135 1.000634,-0.322417 1.84558,-0.867205 2.534899,-1.645467 0.711548,-0.767132 1.47868,-2.00121 2.312528,-3.691135 z m 0,0" id="path95" />
    <path style="opacity:1;fill:#ffffff;fill-opacity:1;fill-rule:nonzero;stroke:none;stroke-width:2.84618" d="m 135.57756,23.438006 c 0.44471,-0.889432 0.95611,-2.279168 1.5565,-4.180337 2.15686,0.65596 3.34647,1.045092 3.55772,1.156264 0.20001,0.0888 0.31131,0.222287 0.31131,0.400258 0,0.15568 -0.12231,0.311289 -0.35576,0.489175 -0.38914,0.244489 -0.9228,0.956148 -1.60098,2.13464 h 5.3366 v 2.890675 h -7.8715 c -0.0666,0.51143 -0.15562,0.967248 -0.26668,1.378607 h 5.87026 v 14.675654 h -3.55774 v -1.378609 h -7.15993 v 1.156265 h -3.46879 v -14.45331 h 4.6695 c 0.0888,-0.444717 0.15562,-0.900533 0.2223,-1.378607 h -6.71523 v -2.890675 h 4.75847 c -0.62261,-0.822718 -1.26746,-1.61208 -1.91229,-2.356985 l 3.24644,-1.689922 c 0.80049,1.011734 1.5565,2.090155 2.26804,3.246417 l -2.00121,0.80049 z m -4.18035,8.004903 h 7.15993 v -1.156263 h -7.15993 z m 0,3.379849 h 7.15993 v -1.156265 h -7.15993 z m 7.15993,2.357012 h -7.15993 v 1.378609 h 7.15993 z m -12.62995,-10.940033 -3.73562,1.289664 c -0.44473,-1.712152 -1.28966,-3.702263 -2.53488,-5.959205 l 3.6022,-1.556495 c 1.00059,1.867811 1.89003,3.946865 2.6683,6.226036 z m 20.01226,16.143205 c -0.53366,1.122906 -0.93391,2.368113 -1.20074,3.735621 -2.4904,0.02278 -4.69177,0.0444 -6.5818,0.0444 -5.3366,0 -8.83875,-0.17788 -10.49532,-0.533661 -1.66769,-0.355774 -2.80172,-0.844976 -3.42433,-1.46758 -0.30019,-0.333516 -0.52254,-0.489174 -0.66705,-0.489174 -0.15562,0 -0.31132,0.0555 -0.48922,0.177879 -0.15561,0.111279 -0.52252,0.489175 -1.11176,1.111777 -0.60039,0.644862 -1.05622,1.20075 -1.37864,1.645466 -1.15627,-1.156262 -2.15688,-2.25694 -2.97959,-3.290903 1.89003,-1.33415 3.02408,-2.090184 3.37984,-2.26807 0.35578,-0.20008 0.53366,-0.767133 0.53366,-1.689923 v -7.560178 h -3.42433 V 28.41875 h 7.07102 v 10.139543 c 0,1.156263 0.27806,2.045697 0.84493,2.668299 0.55591,0.600376 1.51205,0.989506 2.8462,1.20075 1.35638,0.233387 3.86904,0.355775 7.51573,0.355775 3.66889,0 6.85973,-0.133479 9.5614,-0.40026 z m 0,0" id="path97" />
    <path style="opacity:1;fill:#ffffff;fill-opacity:1;fill-rule:nonzero;stroke:none;stroke-width:1.78255" d="m 117.57803,69.823543 h -3.9272 V 67.84601 h 3.9272 v -2.590268 h 2.08893 c 0.27853,0 0.4178,0.06969 0.4178,0.194958 0,0.132261 -0.0417,0.278525 -0.11137,0.445639 -0.0556,0.167026 -0.0835,0.598833 -0.0835,1.281213 v 0.668458 h 4.15002 v 1.977533 h -4.15002 v 1.838262 h 3.56511 v 1.977514 h -9.44197 v -1.977514 h 3.56512 z m -7.40875,3.091613 c -0.94698,0.132262 -1.76863,0.271573 -2.45101,0.417796 -0.24371,-0.570972 -0.46653,-1.267292 -0.66846,-2.088943 0.38994,-0.167025 0.67542,-0.348151 0.86342,-0.557049 0.20193,-0.222819 0.50134,-0.779868 0.89127,-1.671147 0.40389,-0.891279 0.82166,-2.075002 1.25337,-3.565113 1.44833,0.410826 2.24212,0.654537 2.39532,0.724163 0.16702,0.07664 0.25066,0.167026 0.25066,0.278525 0,0.111405 -0.0975,0.250681 -0.27853,0.417796 -0.188,0.167025 -0.37598,0.43867 -0.55704,0.807712 -0.83558,1.671147 -1.44833,2.813105 -1.83827,3.425861 0.29247,-0.01427 0.76595,-0.04171 1.42049,-0.0836 0.33423,-0.536158 0.65453,-1.141942 0.97482,-1.810401 0.59186,0.33423 1.08626,0.626675 1.4762,0.863416 0.38993,0.22282 0.61274,0.362091 0.66845,0.417796 0.0697,0.05562 0.11137,0.132261 0.11137,0.22282 0,0.07664 -0.11137,0.188005 -0.33423,0.33423 -0.22283,0.132261 -0.62668,0.57097 -1.19767,1.309056 -0.55705,0.724162 -1.35083,1.692037 -2.36746,2.896654 1.44835,-0.222819 2.49281,-0.396887 3.14732,-0.529188 -0.1531,0.487422 -0.21584,1.155881 -0.19494,2.005376 -2.10287,0.320307 -4.01076,0.661489 -5.73762,1.030532 l -0.58489,-2.200335 c 0.53615,-0.236742 0.96092,-0.515266 1.28121,-0.835574 0.33423,-0.313337 0.82165,-0.919138 1.47617,-1.810417 z m 6.23895,8.4393 v 1.086236 h -2.06108 v -7.40875 h 8.6064 v 7.380908 h -2.14462 v -1.058394 z m 4.4007,-1.866123 v -2.50672 h -4.4007 v 2.50672 z m -6.85171,0.167026 c -2.80613,0.849513 -4.83241,1.566707 -6.07183,2.144648 l -0.91915,-2.423172 c 2.18643,-0.403856 4.49818,-1.002689 6.93528,-1.782557 -0.0417,0.243711 -0.0556,0.529206 -0.0556,0.863435 0,0.334229 0.0348,0.738085 0.11136,1.197646 z m 0,0" id="path99" />
    <path style="opacity:1;fill:#ffffff;fill-opacity:1;fill-rule:nonzero;stroke:none;stroke-width:1.78255" d="m 134.99436,69.43361 h -6.8517 v -1.921828 h 6.8517 v -2.088925 h 2.08894 c 0.33423,0 0.50134,0.07664 0.50134,0.222819 0,0.07664 -0.0486,0.194959 -0.13923,0.362073 -0.0975,0.167025 -0.13921,0.66846 -0.13921,1.504033 h 6.796 v 1.921828 h -6.796 v 1.197646 h 5.34767 v 5.291965 h -3.76007 c 1.62935,1.859152 3.65563,3.056816 6.07183,3.592974 -0.71024,0.835573 -1.25336,1.58758 -1.6433,2.256039 -1.49011,-0.710225 -2.67384,-1.413514 -3.56511,-2.116785 -0.89128,-0.682381 -1.71293,-1.56669 -2.45102,-2.645974 v 5.626193 h -2.31174 v -5.709759 c -1.32299,1.991454 -3.23089,3.655631 -5.73761,5.01344 -0.48741,-0.612754 -1.12803,-1.197646 -1.92182,-1.754695 1.51795,-0.577941 2.72953,-1.176773 3.62081,-1.810418 0.89129,-0.647567 1.62937,-1.46225 2.22821,-2.451015 h -3.56512 v -5.291965 h 5.37553 z m 0,4.707053 v -1.643285 h -3.11946 v 1.643285 z m 2.31175,-1.643285 v 1.643285 h 2.95237 v -1.643285 z m 0,0" id="path101" />
  </g>
</svg>
