<?xml version="1.0" encoding="UTF-8"?>
<svg xmlns="http://www.w3.org/2000/svg" xmlns:ns1="http://sodipodi.sourceforge.net/DTD/sodipodi-0.dtd" viewBox="0 0 276.52338 128.54471" height="128.54471" width="276.52338" id="svg3910" version="1.1">
  <defs id="defs3914" />
  <ns1:namedview showgrid="false" id="namedview3912" guidetolerance="10" gridtolerance="10" objecttolerance="10" borderopacity="1" bordercolor="#666666" pagecolor="#ffffff" />
  <g transform="translate(-3.7079593,-2.7856258)" id="g3918">
    <path style="color:#000000;font-style:normal;font-variant:normal;font-weight:normal;font-stretch:normal;font-size:medium;line-height:normal;font-family:sans-serif;font-variant-ligatures:normal;font-variant-position:normal;font-variant-caps:normal;font-variant-numeric:normal;font-variant-alternates:normal;font-variant-east-asian:normal;font-feature-settings:normal;font-variation-settings:normal;text-indent:0;text-align:start;text-decoration:none;text-decoration-line:none;text-decoration-style:solid;text-decoration-color:#000000;letter-spacing:normal;word-spacing:normal;text-transform:none;writing-mode:lr-tb;direction:ltr;text-orientation:mixed;dominant-baseline:auto;baseline-shift:baseline;text-anchor:start;white-space:normal;shape-padding:0;shape-margin:0;inline-size:0;clip-rule:nonzero;display:inline;overflow:visible;visibility:visible;opacity:1;isolation:auto;mix-blend-mode:normal;color-interpolation:sRGB;color-interpolation-filters:linearRGB;solid-color:#000000;solid-opacity:1;vector-effect:none;fill:#ffffff;fill-opacity:1;fill-rule:nonzero;stroke:none;stroke-width:2.16339;stroke-linecap:butt;stroke-linejoin:miter;stroke-miterlimit:4;stroke-dasharray:none;stroke-dashoffset:0;stroke-opacity:1;color-rendering:auto;image-rendering:auto;shape-rendering:auto;text-rendering:auto;enable-background:accumulate;stop-color:#000000;stop-opacity:1" d="M 12.377236,4.117368 H 271.56142 c 4.06504,0 7.33759,3.2725567 7.33759,7.337591 V 122.66188 c 0,4.06504 -3.27255,7.3376 -7.33759,7.3376 H 12.377236 c -4.0650142,0 -7.3375698,-3.27256 -7.3375698,-7.3376 V 11.454959 c 0,-4.0650343 3.2725556,-7.337591 7.3375698,-7.337591 z" id="path81" />
    <path style="color:#000000;font-style:normal;font-variant:normal;font-weight:normal;font-stretch:normal;font-size:medium;line-height:normal;font-family:sans-serif;font-variant-ligatures:normal;font-variant-position:normal;font-variant-caps:normal;font-variant-numeric:normal;font-variant-alternates:normal;font-variant-east-asian:normal;font-feature-settings:normal;font-variation-settings:normal;text-indent:0;text-align:start;text-decoration:none;text-decoration-line:none;text-decoration-style:solid;text-decoration-color:#000000;letter-spacing:normal;word-spacing:normal;text-transform:none;writing-mode:lr-tb;direction:ltr;text-orientation:mixed;dominant-baseline:auto;baseline-shift:baseline;text-anchor:start;white-space:normal;shape-padding:0;shape-margin:0;inline-size:0;clip-rule:nonzero;display:inline;overflow:visible;visibility:visible;opacity:1;isolation:auto;mix-blend-mode:normal;color-interpolation:sRGB;color-interpolation-filters:linearRGB;solid-color:#000000;solid-opacity:1;vector-effect:none;fill:#253898;fill-opacity:1;fill-rule:nonzero;stroke:none;stroke-width:0.5;stroke-linecap:butt;stroke-linejoin:miter;stroke-miterlimit:4;stroke-dasharray:none;stroke-dashoffset:0;stroke-opacity:1;color-rendering:auto;image-rendering:auto;shape-rendering:auto;text-rendering:auto;enable-background:accumulate;stop-color:#000000;stop-opacity:1" d="m 12.376569,3.0356258 c -4.6455514,0 -8.4186097,3.7730243 -8.4186097,8.4186392 V 122.66168 c 0,4.64559 3.7730583,8.41865 8.4186097,8.41865 H 271.56088 c 4.64558,0 8.42046,-3.77306 8.42046,-8.41866 V 11.454265 c 0,-4.6456149 -3.77488,-8.4186392 -8.42046,-8.4186392 z m 0,2.1635665 H 271.56088 c 3.48449,0 6.25688,2.7705873 6.2569,6.2550727 V 122.66168 c 0,3.4845 -2.77241,6.25688 -6.2569,6.25688 H 12.376569 c -3.4844582,0 -6.2550761,-2.77238 -6.2550761,-6.25688 V 11.454265 c 0,-3.4844854 2.7706179,-6.2550727 6.2550761,-6.2550727 z" id="path83" />
    <path d="M 29.270643,7.4097407 V 28.414604 H 8.3424572 v 94.250856 c 0,2.23422 1.7960688,4.03027 4.0302678,4.03027 H 271.56815 c 2.23423,0 4.03027,-1.79605 4.03027,-4.03027 V 11.461278 c 0,-2.2410259 -1.79784,-4.0515373 -4.03027,-4.0515373 z" style="color:#000000;font-style:normal;font-variant:normal;font-weight:normal;font-stretch:normal;font-size:medium;line-height:normal;font-family:sans-serif;font-variant-ligatures:normal;font-variant-position:normal;font-variant-caps:normal;font-variant-numeric:normal;font-variant-alternates:normal;font-variant-east-asian:normal;font-feature-settings:normal;font-variation-settings:normal;text-indent:0;text-align:start;text-decoration:none;text-decoration-line:none;text-decoration-style:solid;text-decoration-color:#000000;letter-spacing:normal;word-spacing:normal;text-transform:none;writing-mode:lr-tb;direction:ltr;text-orientation:mixed;dominant-baseline:auto;baseline-shift:baseline;text-anchor:start;white-space:normal;shape-padding:0;shape-margin:0;inline-size:0;clip-rule:nonzero;display:inline;overflow:visible;visibility:visible;opacity:1;isolation:auto;mix-blend-mode:normal;color-interpolation:sRGB;color-interpolation-filters:linearRGB;solid-color:#000000;solid-opacity:1;vector-effect:none;fill:#253898;fill-opacity:1;fill-rule:nonzero;stroke:none;stroke-width:2.16339;stroke-linecap:butt;stroke-linejoin:miter;stroke-miterlimit:4;stroke-dasharray:none;stroke-dashoffset:0;stroke-opacity:1;color-rendering:auto;image-rendering:auto;shape-rendering:auto;text-rendering:auto;enable-background:accumulate;stop-color:#000000;stop-opacity:1" id="path75" />
    <path d="m 137.34522,74.732762 v 12.956084 c 0,3.231755 -2.60181,5.833003 -5.83355,5.833003 h -19.94092 l -4.6136,4.734062 4.6136,4.734069 h 19.94092 c 3.23174,0 5.83355,2.60183 5.83355,5.83357 v 8.71145 h 9.43121 v -8.71145 c 0,-3.23174 2.60181,-5.83357 5.83356,-5.83357 h 19.6248 l 4.68626,-4.734058 -4.68626,-4.734073 h -19.6248 c -3.23175,0 -5.83356,-2.601248 -5.83356,-5.833003 V 74.732762 l -4.73408,-4.613616 z" style="opacity:1;fill:#ffffff;fill-rule:evenodd;stroke-width:1.044" id="rect23" />
    <g transform="matrix(2.3548184,0,0,2.3548184,-198.32183,-76.000416)" style="opacity:1;fill:#ffffff;fill-opacity:1" id="g451-9">
      <g style="fill:#ffffff" id="use449-4" transform="translate(93.599998,77.279999)">
        <path id="path816" d="m 4.5625,-6.828125 0.09375,-1.203125 1.234375,0.078125 c 0.164063,0.011719 0.25,0.0625 0.25,0.15625 0,0.042969 -0.039062,0.125 -0.109375,0.25 -0.074219,0.125 -0.125,0.367187 -0.15625,0.71875 h 4.0625 v 1.0625 H 5.78125 l -0.078125,0.75 h 3.53125 v 5.3125 c 0,0.289063 -0.054687,0.519531 -0.15625,0.6875 -0.105469,0.175781 -0.304687,0.3125 -0.59375,0.40625 -0.28125,0.101563 -0.699219,0.1875 -1.25,0.25 C 7.179688,1.210938 7.019531,0.75 6.75,0.25 c 0.40625,0.070313 0.679688,0.109375 0.828125,0.109375 0.144531,0 0.238281,-0.027344 0.28125,-0.078125 C 7.898438,0.226563 7.921875,0.132813 7.921875,0 V -3.953125 H 6.1875 c 0.3125,0.117187 0.535156,0.195312 0.671875,0.234375 0.144531,0.042969 0.21875,0.101562 0.21875,0.171875 0,0.074219 -0.046875,0.140625 -0.140625,0.203125 -0.09375,0.054687 -0.292969,0.25 -0.59375,0.59375 h 1.078125 v 0.953125 h -1.6875 v 0.578125 h 1.78125 v 0.984375 h -1.78125 v 1.34375 H 4.5 v -1.34375 H 2.75 V -1.21875 H 4.5 V -1.796875 H 2.84375 V -2.75 H 3.921875 C 3.742188,-3.050781 3.539063,-3.335938 3.3125,-3.609375 l 0.859375,-0.34375 H 2.453125 V 1.625 h -1.25 V -5.015625 H 4.40625 l 0.0625,-0.75 h -3.9375 v -1.0625 z m 1.234375,2.875 H 4.46875 C 4.65625,-3.648438 4.832031,-3.34375 5,-3.03125 L 4.234375,-2.75 h 1.03125 c 0.226563,-0.351563 0.40625,-0.753906 0.53125,-1.203125 z m 0,0" style="fill:#ffffff;stroke:none" />
      </g>
    </g>
    <g transform="matrix(2.3548184,0,0,2.3548184,-195.45622,-76.000416)" style="opacity:1;fill:#ffffff;fill-opacity:1" id="g455-3">
      <g style="fill:#ffffff" id="use453-1" transform="translate(103.95795,77.279999)">
        <path id="path820" d="M 4.546875,-6.953125 C 4.453125,-7.316406 4.351563,-7.597656 4.25,-7.796875 L 5.9375,-8.0625 c 0.09375,0.398437 0.160156,0.765625 0.203125,1.109375 h 3.65625 V -5.84375 H 0.65625 v -1.109375 z m 1.375,4.875 V 0.5 c 0,0.269531 -0.054687,0.488281 -0.15625,0.65625 C 5.660156,1.320313 5.457031,1.453125 5.15625,1.546875 4.863281,1.648438 4.429688,1.734375 3.859375,1.796875 3.773438,1.304688 3.585938,0.84375 3.296875,0.40625 3.710938,0.46875 3.992188,0.5 4.140625,0.5 4.296875,0.5 4.394531,0.46875 4.4375,0.40625 4.488281,0.351563 4.515625,0.257813 4.515625,0.125 V -2.078125 H 2.046875 V -5.1875 H 8.59375 v 3.109375 z m 1.25,-1.03125 v -1 h -3.78125 v 1 z m -4.59375,1.34375 C 2.847656,-1.640625 3.113281,-1.5 3.375,-1.34375 c 0.269531,0.148437 0.425781,0.242187 0.46875,0.28125 0.050781,0.03125 0.078125,0.074219 0.078125,0.125 0,0.042969 -0.0625,0.101562 -0.1875,0.171875 -0.34375,0.1875 -1.105469,0.7890625 -2.28125,1.8125 -0.304687,-0.28125 -0.65625,-0.515625 -1.0625,-0.703125 0.769531,-0.539063 1.5,-1.242188 2.1875,-2.109375 z M 9.90625,0.15625 8.875,1.09375 C 8.144531,0.414063 7.375,-0.191406 6.5625,-0.734375 L 7.515625,-1.625 c 0.875,0.605469 1.671875,1.199219 2.390625,1.78125 z m 0,0" style="fill:#ffffff;stroke:none" />
      </g>
    </g>
    <g transform="matrix(2.3548184,0,0,2.3548184,-194.88311,-76.000416)" style="opacity:1;fill:#ffffff;fill-opacity:1" id="g459-3">
      <g style="fill:#ffffff" id="use457-0" transform="translate(114.21233,77.279999)">
        <path id="path824" d="m 5.607522,-4.9375 c 0.5625,-0.582031 1,-1.613281 1.3125,-3.09375 0.226563,0.023437 0.5,0.058594 0.8125,0.109375 0.320313,0.042969 0.515625,0.074219 0.578125,0.09375 0.0625,0.023437 0.09375,0.058594 0.09375,0.109375 0,0.054687 -0.03125,0.117187 -0.09375,0.1875 -0.0625,0.074219 -0.15625,0.25 -0.28125,0.53125 h 2.609374 c -0.304686,1.21875 -0.765624,2.183594 -1.390624,2.890625 0.601563,0.355469 1.347655,0.625 2.234373,0.8125 -0.3125,0.429687 -0.585936,0.84375 -0.812499,1.25 -0.167969,-0.0625 -0.289061,-0.109375 -0.359374,-0.140625 v 3.875 H 9.029397 V 1.0625 H 7.451272 v 0.625 H 6.216897 V -2.109375 L 5.966897,-2 C 5.84971,-2.195313 5.748147,-2.363281 5.654397,-2.5 v 0.796875 H 4.607522 v 1.046875 c 0.425781,-0.125 0.828125,-0.253906 1.203125,-0.390625 -0.011719,0.117187 -0.015625,0.273437 -0.015625,0.46875 0,0.199219 0.023438,0.421875 0.078125,0.671875 C 4.47471,0.507813 3.138772,0.984375 1.857522,1.515625 L 1.388772,0.109375 C 1.545022,0.0859375 1.736428,0.0507813 1.966897,0 v -3.34375 h 0.90625 c 0.195313,0 0.296875,0.042969 0.296875,0.125 0,0.042969 -0.015625,0.09375 -0.046875,0.15625 -0.0625,0.125 -0.09375,0.449219 -0.09375,0.96875 V -0.25 L 3.482522,-0.34375 V -3.890625 H 2.185647 v -3.53125 H 5.607522 Z M 4.466897,-4.984375 v -1.34375 H 3.326272 v 1.34375 z m 3.859375,0.140625 c 0.238281,-0.3125 0.457031,-0.679688 0.65625,-1.109375 H 7.623147 c 0.15625,0.398437 0.390625,0.765625 0.703125,1.109375 z m -1.40625,0.03125 c -0.167969,0.25 -0.335937,0.480469 -0.5,0.6875 -0.355469,-0.269531 -0.625,-0.445313 -0.8125,-0.53125 v 0.765625 h -1 v 1.0625 h 0.78125 c -0.0625,-0.0625 -0.148437,-0.144531 -0.25,-0.25 0.976563,-0.269531 1.738281,-0.59375 2.28125,-0.96875 -0.199219,-0.21875 -0.367187,-0.472656 -0.5,-0.765625 z m 1.375,1.5625 c -0.429687,0.3125 -0.917969,0.605469 -1.46875,0.875 h 3.03125 c -0.605469,-0.28125 -1.125,-0.570313 -1.5625,-0.875 z M 9.029397,0.09375 V -1.3125 H 7.451272 v 1.40625 z m 0,0" style="fill:#ffffff;stroke:none" />
      </g>
    </g>
    <g transform="matrix(2.2548211,0,0,2.2548211,-144.09182,-68.689142)" style="opacity:1;fill:#ffffff;fill-opacity:1" id="g471">
      <g style="fill:#ffffff" id="use469" transform="translate(145.28618,77.279999)">
        <path id="path836" d="M 3.078125,-5.421875 H 0.75 V -6.5625 H 3.546875 C 3.753906,-7.09375 3.90625,-7.59375 4,-8.0625 c 0.90625,0.136719 1.410156,0.226562 1.515625,0.265625 0.101563,0.03125 0.15625,0.089844 0.15625,0.171875 0,0.085937 -0.058594,0.164062 -0.171875,0.234375 C 5.382813,-7.316406 5.21875,-7.039063 5,-6.5625 h 4.609375 v 1.140625 h -5.125 C 4.117188,-4.617188 3.785156,-4 3.484375,-3.5625 h 1.6875 v -1.484375 h 1.21875 c 0.1875,0 0.28125,0.042969 0.28125,0.125 0,0.03125 -0.015625,0.078125 -0.046875,0.140625 -0.074219,0.125 -0.109375,0.351562 -0.109375,0.671875 V -3.5625 h 2.625 v 1.15625 h -2.625 v 2.546875 c 0,0.6875 -0.203125,1.128906 -0.609375,1.328125 C 5.507813,1.675781 4.941406,1.789063 4.203125,1.8125 4.148438,1.257813 4.003906,0.800781 3.765625,0.4375 c 0.46875,0.050781 0.789063,0.078125 0.96875,0.078125 0.1875,0 0.304688,-0.023437 0.359375,-0.0625 0.050781,-0.042969 0.078125,-0.125 0.078125,-0.25 V -2.40625 c -1.78125,0 -2.945312,0.039062 -3.484375,0.109375 -0.074219,-0.269531 -0.164062,-0.664063 -0.265625,-1.1875 0.414063,-0.101563 0.703125,-0.257813 0.859375,-0.46875 0.164063,-0.21875 0.429688,-0.707031 0.796875,-1.46875 z m -0.3125,3.234375 c 0.351563,0.148437 0.671875,0.289062 0.953125,0.421875 0.289063,0.125 0.445313,0.203125 0.46875,0.234375 0.03125,0.023437 0.046875,0.058594 0.046875,0.109375 0,0.054687 -0.046875,0.105469 -0.140625,0.15625 -0.242187,0.125 -0.429687,0.28125 -0.5625,0.46875 C 3.394531,-0.617188 3.125,-0.304688 2.71875,0.140625 2.3125,0.597656 1.972656,0.957031 1.703125,1.21875 1.453125,1.007813 1.070313,0.738281 0.5625,0.40625 1.519531,-0.300781 2.253906,-1.164063 2.765625,-2.1875 Z M 10,0.359375 8.78125,1.125 C 8.300781,0.320313 7.6875,-0.53125 6.9375,-1.4375 l 1.15625,-0.703125 c 0.59375,0.730469 1.226563,1.5625 1.90625,2.5 z m 0,0" style="fill:#ffffff;stroke:none" />
      </g>
    </g>
    <g transform="matrix(2.2548211,0,0,2.2548211,-144.09182,-68.689142)" style="opacity:1;fill:#ffffff;fill-opacity:1" id="g475">
      <g style="fill:#ffffff" id="use473" transform="translate(155.64412,77.279999)">
        <path id="path840" d="m 8.8429514,-4.5 c 0.695313,-0.46875 1.2812506,-0.960938 1.7500006,-1.484375 0.726561,0.75 1.093749,1.179687 1.093749,1.28125 0,0.074219 -0.09375,0.125 -0.281251,0.15625 -0.179686,0.03125 -0.53906,0.226562 -1.078123,0.578125 C 9.7843574,-3.625 9.2882644,-3.328125 8.8429514,-3.078125 V -0.375 c 0,0.1875 0.019531,0.3125 0.0625,0.375 0.039063,0.0507813 0.144531,0.078125 0.3125,0.078125 h 0.609375 c 0.1874996,0 0.3125006,-0.0273437 0.3750006,-0.078125 0.07031,-0.0507813 0.117188,-0.171875 0.140625,-0.359375 0.03125,-0.1875 0.05078,-0.53125 0.0625,-1.03125 0.519531,0.324219 1.003904,0.527344 1.453125,0.609375 -0.09375,0.617187 -0.246096,1.117188 -0.453127,1.515625 -0.210936,0.40625 -0.621092,0.609375 -1.234373,0.609375 H 8.5617014 c -0.417969,0 -0.699219,-0.101562 -0.84375,-0.296875 -0.136719,-0.1875 -0.203125,-0.507812 -0.203125,-0.953125 v -7.875 h 1.21875 c 0.15625,0 0.234375,0.046875 0.234375,0.140625 0,0.03125 -0.015625,0.085937 -0.046875,0.15625 -0.054687,0.125 -0.078125,0.308594 -0.078125,0.546875 z m -3.6875,0.6875 H 2.8273263 v -1.28125 h 2.3281251 v -2.609375 h 1.203125 c 0.164063,0 0.25,0.054687 0.25,0.15625 0,0.054687 -0.023437,0.109375 -0.0625,0.171875 -0.085937,0.148437 -0.125,0.460937 -0.125,0.9375 v 7.953125 h -1.265625 v -1.8125 c -0.917969,0.457031 -1.625,0.847656 -2.125,1.171875 L 2.4054512,-0.5625 c 0.6875002,-0.207031 1.6015632,-0.578125 2.7500002,-1.109375 z m 0,0" style="fill:#ffffff;stroke:none" />
      </g>
    </g>
    <g transform="matrix(2.2548211,0,0,2.2548211,-139.50689,-68.689142)" style="opacity:1;fill:#ffffff;fill-opacity:1" id="g479">
      <g style="fill:#ffffff" id="use477" transform="translate(165.8985,77.279999)">
        <path id="path844" d="m 6.3117014,-4.9375 c 0.5625,-0.582031 1,-1.613281 1.3125,-3.09375 0.226563,0.023437 0.5,0.058594 0.8125,0.109375 0.320313,0.042969 0.515625,0.074219 0.578125,0.09375 0.0625,0.023437 0.09375,0.058594 0.09375,0.109375 0,0.054687 -0.03125,0.117187 -0.09375,0.1875 -0.0625,0.074219 -0.15625,0.25 -0.28125,0.53125 H 11.34295 c -0.304686,1.21875 -0.765623,2.183594 -1.3906236,2.890625 0.6015636,0.355469 1.3476546,0.625 2.2343756,0.8125 -0.3125,0.429687 -0.585939,0.84375 -0.812502,1.25 -0.167968,-0.0625 -0.289061,-0.109375 -0.359374,-0.140625 v 3.875 H 9.7335764 v -0.625 h -1.578125 v 0.625 H 6.9210764 V -2.109375 L 6.6710764,-2 c -0.117187,-0.195313 -0.21875,-0.363281 -0.3125,-0.5 v 0.796875 h -1.046875 v 1.046875 c 0.425781,-0.125 0.828125,-0.253906 1.203125,-0.390625 -0.011719,0.117187 -0.015625,0.273437 -0.015625,0.46875 0,0.199219 0.023438,0.421875 0.078125,0.671875 -1.398437,0.414063 -2.734375,0.890625 -4.0156252,1.421875 L 2.0929513,0.109375 C 2.2492012,0.0859375 2.4406072,0.0507813 2.6710762,0 v -3.34375 h 0.9062502 c 0.195313,0 0.296875,0.042969 0.296875,0.125 0,0.042969 -0.015625,0.09375 -0.046875,0.15625 -0.0625,0.125 -0.09375,0.449219 -0.09375,0.96875 V -0.25 l 0.453125,-0.09375 v -3.546875 h -1.296875 v -3.53125 h 3.421875 z m -1.140625,-0.046875 v -1.34375 h -1.140625 v 1.34375 z m 3.859375,0.140625 c 0.238281,-0.3125 0.457031,-0.679688 0.65625,-1.109375 h -1.359375 c 0.15625,0.398437 0.390625,0.765625 0.703125,1.109375 z m -1.40625,0.03125 c -0.167969,0.25 -0.335937,0.480469 -0.5,0.6875 -0.355469,-0.269531 -0.625,-0.445313 -0.8125,-0.53125 v 0.765625 h -1 v 1.0625 h 0.78125 c -0.0625,-0.0625 -0.148437,-0.144531 -0.25,-0.25 0.976563,-0.269531 1.738281,-0.59375 2.28125,-0.96875 -0.199219,-0.21875 -0.367187,-0.472656 -0.5,-0.765625 z m 1.375,1.5625 c -0.429687,0.3125 -0.917969,0.605469 -1.46875,0.875 H 10.561702 C 9.9562324,-2.65625 9.4367014,-2.945313 8.9992014,-3.25 Z m 0.734375,3.34375 V -1.3125 h -1.578125 v 1.40625 z m 0,0" style="fill:#ffffff;stroke:none" />
      </g>
    </g>
    <path d="m 15.947025,28.186381 2.115176,-2.749237 2.245851,2.749237 -2.245851,-7.046933 z" style="opacity:1;fill:#253898;fill-opacity:1;stroke-width:0.026512" id="path1182" />
    <path style="opacity:1;fill:#253898;fill-opacity:1;stroke:none;stroke-width:1.21566" d="m 20.207455,11.740935 c 0.845269,-0.56984 1.557566,-1.168173 2.127408,-1.8044973 0.883248,0.9117483 1.329628,1.4341023 1.329628,1.5575683 0,0.09023 -0.113975,0.151955 -0.341907,0.189947 -0.218437,0.03799 -0.655315,0.275422 -1.310629,0.702804 -0.660068,0.417884 -1.263151,0.778782 -1.8045,1.082696 v 3.286082 c 0,0.22794 0.02376,0.379896 0.07598,0.455877 0.04749,0.06173 0.175697,0.09498 0.379892,0.09498 h 0.740792 c 0.227939,0 0.379897,-0.03324 0.455877,-0.09498 0.08547,-0.06173 0.142462,-0.208944 0.170949,-0.436879 0.038,-0.227938 0.06173,-0.645821 0.07598,-1.253652 0.631576,0.39414 1.220408,0.641072 1.766511,0.740794 -0.113964,0.750289 -0.299174,1.358124 -0.550851,1.842485 -0.256427,0.493863 -0.755038,0.740793 -1.500577,0.740793 h -1.956455 c -0.508109,0 -0.850018,-0.123463 -1.025715,-0.360899 -0.166206,-0.227935 -0.246934,-0.617326 -0.246934,-1.158676 V 7.7520476 h 1.481588 c 0.189948,0 0.284923,0.056988 0.284923,0.1709545 0,0.037988 -0.01902,0.1044641 -0.05699,0.1899472 -0.06649,0.1519546 -0.09498,0.3751434 -0.09498,0.6648131 z m -4.482751,0.835767 h -2.830211 v -1.557565 h 2.830211 V 7.8470201 h 1.462592 c 0.199446,0 0.303917,0.066488 0.303917,0.1899484 0,0.066488 -0.02846,0.1329629 -0.07598,0.2089425 -0.104476,0.1804485 -0.151959,0.560343 -0.151959,1.1396813 V 19.053896 H 15.724707 V 16.85051 c -1.115936,0.555596 -1.97545,1.030462 -2.583281,1.424604 L 12.381639,16.5276 c 0.835771,-0.251677 1.946962,-0.702801 3.343068,-1.348624 z m 0,0" id="path1199" />
    <path id="path1129" d="m 162.85684,57.629351 c 0,2.484367 -1.19164,3.675688 -3.67551,3.675688 l -35.11814,-0.0059 c -2.48387,0 -3.67536,-1.19131 -3.67536,-3.675686 l -1.5e-4,-35.111627 c 0,-2.483553 1.19164,-3.67568 3.67535,-3.67568 h 35.11813 c 2.48388,0 3.67552,1.192127 3.67552,3.67568 z" fill="#008000" style="opacity:1;fill:#244a38;fill-opacity:1;stroke-width:0.162503" />
    <path id="path1131" d="M 120.38783,31.156443 V 22.51138 c 0,-2.484528 1.19165,-3.676004 3.67536,-3.676004 H 159.181 c 2.4842,0 3.67568,1.191476 3.67568,3.676004 v 8.645063 z" fill="#ff0000" style="opacity:1;stroke-width:0.162503" />
    <path id="path1133" d="m 126.92376,27.065564 v 0.253513 h -0.60452 v -4.397373 h 3.89036 v 4.35836 h -0.61915 v -0.2145 z m 2.66669,-0.516765 v -3.100581 h -2.66669 v 3.100581 z m -1.69167,-2.335188 h -0.83851 v -0.487503 h 2.35468 v 0.487503 h -0.9214 v 0.419249 h 0.82877 v 0.487526 h -0.30226 c 0.10722,0.159251 0.21126,0.325002 0.31201,0.497423 l -0.32663,0.136507 h 0.49725 v 0.502134 h -2.49605 v -0.502134 h 0.89214 v -0.633769 h -0.74588 v -0.487515 h 0.74588 z m 1.06765,0.906775 h -0.47288 v 0.633766 h 0.31201 c -0.0682,-0.130159 -0.15601,-0.268131 -0.26325,-0.414547 z" fill="#ffffff" style="opacity:1;stroke-width:0.162503" />
    <path id="path1135" d="m 136.47413,24.350108 h -0.78489 v -0.467996 h 2.60331 v 0.467996 h -0.96041 c -0.10721,0.0847 -0.22262,0.169009 -0.34612,0.253673 0.1885,0.172422 0.33313,0.367262 0.43389,0.58502 0.2925,-0.149505 0.59151,-0.370512 0.89702,-0.663021 0.26976,0.191764 0.42657,0.307292 0.47044,0.346141 0.0439,0.039 0.0658,0.07235 0.0658,0.09997 0,0.02762 -0.0399,0.05113 -0.11944,0.07062 -0.0796,0.01949 -0.26245,0.107224 -0.54846,0.263258 0.12352,0.50702 0.45502,0.930989 0.99453,1.2724 -0.19175,0.123512 -0.36888,0.267979 -0.53139,0.433892 -0.45501,-0.367426 -0.75564,-0.854765 -0.90189,-1.46253 -0.039,0.02276 -0.0958,0.05362 -0.17064,0.09259 0.0585,0.279515 0.0877,0.52814 0.0877,0.745886 0,0.334758 -0.0854,0.572663 -0.25594,0.714382 -0.17062,0.141206 -0.4672,0.21206 -0.8897,0.21206 -0.0195,-0.221007 -0.091,-0.420884 -0.21451,-0.599481 0.0975,0.0032 0.182,0.0043 0.25351,0.0043 0.21125,0 0.34938,-0.01949 0.41438,-0.05837 0.065,-0.039 0.0975,-0.102561 0.0975,-0.190127 0,-0.08794 -0.006,-0.216132 -0.0195,-0.385296 -0.50052,0.409677 -1.11966,0.76052 -1.85742,1.053029 -0.0813,-0.201501 -0.20655,-0.357503 -0.37539,-0.468008 0.36726,-0.09769 0.74671,-0.250259 1.13834,-0.458259 0.39164,-0.208012 0.72071,-0.430481 0.98722,-0.667896 -0.0195,-0.07137 -0.039,-0.128212 -0.0585,-0.170474 -0.37701,0.286014 -0.89378,0.567152 -1.5503,0.843232 -0.0975,-0.156004 -0.21938,-0.297385 -0.36562,-0.424125 0.6271,-0.152588 1.17814,-0.419107 1.65266,-0.799528 -0.0261,-0.03249 -0.0634,-0.0665 -0.11214,-0.10235 -0.46801,0.263258 -0.90677,0.455174 -1.31628,0.575262 -0.10404,-0.178759 -0.21289,-0.338009 -0.32664,-0.477754 0.72802,-0.15959 1.26428,-0.372473 1.60879,-0.638967 z m 0.195,-1.20431 c -0.009,-0.110512 -0.0373,-0.240339 -0.0829,-0.390017 l 0.77514,-0.08295 c 0.0228,0.156164 0.0341,0.313802 0.0341,0.472891 h 1.68193 v 0.989648 h -0.64352 v -0.502146 h -2.86656 v 0.502146 h -0.59965 v -0.989648 z" fill="#ffffff" style="opacity:1;stroke-width:0.162503" />
    <path id="path1137" d="m 145.44923,23.126455 c -0.0259,-0.139745 -0.0537,-0.263409 -0.0829,-0.370674 l 0.76539,-0.06824 c 0.0325,0.169172 0.0537,0.315405 0.0634,0.438916 h 1.66242 v 0.506845 h -4.19748 v -0.506839 z m -0.11214,3.675692 v 0.160865 H 144.8057 V 25.6807 h 1.91592 v 1.004444 c 0.11379,0.01625 0.19582,0.02417 0.24619,0.02417 0.0504,0 0.0821,-0.0097 0.0951,-0.03151 0.013,-0.02112 0.0195,-0.06272 0.0195,-0.124323 v -1.023929 h -2.61793 v 1.7258 h -0.59965 v -2.217861 h 3.83672 v 1.574497 c 0,0.159251 -0.0236,0.284376 -0.0707,0.375546 -0.0471,0.09087 -0.13407,0.160878 -0.26082,0.209475 -0.12675,0.04896 -0.31363,0.08122 -0.56064,0.09758 -0.004,-0.162664 -0.0325,-0.303894 -0.0877,-0.424134 v 0.07311 h -0.56063 v -0.141381 h -0.8239 z m 1.83792,-1.915779 h -2.75445 v -1.1068 h 2.75445 z m -0.67764,-0.419258 v -0.253672 h -1.45279 v 0.253672 z m -0.33638,1.930398 v -0.287637 h -0.8239 v 0.287637 z" fill="#ffffff" style="opacity:1;stroke-width:0.162503" />
    <path id="path1139" d="m 156.92528,26.495167 c -0.0715,0.195013 -0.12188,0.404486 -0.15113,0.628895 -0.43552,0.01625 -0.83364,0.02437 -1.19441,0.02437 -0.78327,0 -1.3041,-0.02861 -1.56247,-0.08535 -0.25838,-0.05707 -0.44299,-0.13586 -0.55333,-0.236442 -0.0715,-0.06499 -0.12432,-0.09748 -0.15844,-0.09748 -0.0342,0 -0.074,0.01928 -0.11944,0.05827 -0.0454,0.039 -0.12188,0.110512 -0.22914,0.214508 -0.10721,0.103971 -0.18362,0.193229 -0.22912,0.268143 -0.19193,-0.198425 -0.35914,-0.367424 -0.50215,-0.507183 0.20801,-0.162501 0.36321,-0.273002 0.46558,-0.331346 0.1024,-0.05848 0.16413,-0.105052 0.18526,-0.138946 0.0211,-0.03411 0.0317,-0.09671 0.0317,-0.18752 v -1.301823 h -0.56552 v -0.541146 h 1.16514 v 1.745305 c 0,0.107118 0.0423,0.202312 0.12676,0.285187 0.0846,0.08296 0.18444,0.143818 0.29983,0.182809 0.11543,0.039 0.30062,0.06824 0.55576,0.08784 0.25513,0.0194 0.60938,0.02934 1.06277,0.02934 0.45339,0 0.91084,-0.03272 1.37235,-0.09748 z m -3.24684,-2.739979 -0.59964,0.273005 c -0.13,-0.305344 -0.30875,-0.601093 -0.53626,-0.887106 l 0.57526,-0.307304 c 0.24701,0.367263 0.43389,0.674567 0.56064,0.921405 z m 1.19441,-0.08751 h -1.17003 V 23.16538 h 1.17003 v -0.404476 h 0.53138 c 0.078,0 0.11696,0.02113 0.11696,0.06325 0,0.0196 -0.0106,0.04896 -0.0317,0.08784 -0.0211,0.039 -0.0317,0.123501 -0.0317,0.253509 h 1.19928 V 23.6678 h -1.20415 v 0.273 h 0.98965 v 1.301663 h -0.56064 c 0.25351,0.211414 0.52977,0.461512 0.82877,0.750601 l -0.48751,0.38043 c -0.21125,-0.269766 -0.46801,-0.520027 -0.77027,-0.750768 v 0.838506 h -0.58014 v -0.877518 c -0.21451,0.295758 -0.50214,0.567138 -0.8629,0.814149 -0.12675,-0.133095 -0.27951,-0.269593 -0.45827,-0.40951 0.24376,-0.130001 0.42984,-0.246364 0.55821,-0.348572 0.12839,-0.102562 0.24619,-0.234816 0.35345,-0.397318 h -0.56065 V 23.9408 h 0.97016 z m 0,1.116406 V 24.40853 h -0.41438 v 0.375556 z m 0.58014,-0.375556 v 0.375556 h 0.41925 V 24.40853 Z m 0,0.833807 V 25.5641 l 0.38026,-0.321763 z" fill="#ffffff" style="opacity:1;stroke-width:0.162503" />
    <path id="path1141" d="m 139.63874,45.769146 c -0.254,6.928698 -2.40035,10.392968 -6.43939,10.392968 -1.90195,0 -3.46427,-0.928231 -4.68695,-2.785166 -1.22268,-1.856285 -1.83402,-4.324394 -1.83402,-7.404014 0,-3.328422 0.62027,-5.914996 1.86132,-7.760719 1.24039,-1.845075 2.83927,-2.767942 4.79566,-2.767942 1.23162,0 2.34559,0.430317 3.3419,1.290444 0.99615,0.860799 1.78413,2.105894 2.36394,3.735983 l -2.98877,1.392488 c -0.50734,-1.584578 -1.43995,-2.377425 -2.79864,-2.377425 -2.21023,0 -3.31477,2.117265 -3.31477,6.350987 0,4.23437 1.13185,6.351314 3.39634,6.351314 1.2677,0 2.17365,-0.781163 2.71707,-2.343633 h -1.90228 v -4.07561 h 5.48859 z" fill="#ffffff" style="opacity:1;stroke-width:0.162503" />
    <path id="path1143" d="m 156.23984,55.992287 h -13.0148 c 0.14479,-2.422619 0.56583,-4.415239 1.26331,-5.97771 0.69714,-1.56216 1.53955,-2.813118 2.52694,-3.75288 0.98704,-0.939277 2.25051,-1.726287 3.79024,-2.360368 0.63377,-0.226054 1.13185,-0.571699 1.49439,-1.035971 0.36222,-0.463784 0.54342,-0.956336 0.54342,-1.477488 0,-0.520492 -0.29462,-0.984938 -0.88305,-1.392335 -0.58892,-0.407566 -1.31775,-0.611343 -2.1873,-0.611343 -1.59418,0 -3.02519,0.690967 -4.29304,2.071598 l -2.25507,-2.954639 c 1.06846,-1.041332 2.11922,-1.817131 3.15193,-2.326578 1.03254,-0.509444 2.20973,-0.764091 3.53203,-0.764091 1.99246,0 3.51399,0.549259 4.56474,1.647309 1.05027,1.098516 1.57581,2.508086 1.57581,4.228348 0,1.721088 -0.43942,3.124797 -1.31775,4.211464 -0.87867,1.086832 -2.40458,2.094835 -4.57823,3.022901 -1.08684,0.498241 -2.07437,1.63009 -2.96165,3.396342 h 9.04792 v 4.075441 z" fill="#ffffff" style="opacity:1;stroke-width:0.162503" />
  </g>
</svg>
