<?xml version="1.0" encoding="UTF-8"?>
<svg xmlns="http://www.w3.org/2000/svg" width="283.35791" height="127.38435">
  <g transform="translate(-632.222 -397.24993)">
    <path fill="#fff" d="M639.64645 398.42173h268.5085c3.46398 0 6.25269 2.78869 6.25269 6.2527v112.53612c0 3.464-2.78871 6.25269-6.25269 6.25269h-268.5085c-3.46398 0-6.25267-2.78869-6.25267-6.25269V404.67443c0-3.46401 2.78869-6.2527 6.25267-6.2527z" color="#000" font-family="sans-serif" font-weight="400" overflow="visible" style="line-height:normal;font-variant-ligatures:normal;font-variant-position:normal;font-variant-caps:normal;font-variant-numeric:normal;font-variant-alternates:normal;font-variant-east-asian:normal;font-feature-settings:normal;font-variation-settings:normal;text-indent:0;text-align:start;text-decoration-line:none;text-decoration-style:solid;text-decoration-color:#000;text-transform:none;text-orientation:mixed;white-space:normal;shape-padding:0;shape-margin:0;inline-size:0;isolation:auto;mix-blend-mode:normal;solid-color:#000;solid-opacity:1" />
    <path fill="#253898" d="M639.64588 397.49993c-3.95869 0-7.17388 3.21516-7.17388 7.17391v112.53654c0 3.95871 3.21519 7.1739 7.17388 7.1739h268.50861c3.95871 0 7.17542-3.21519 7.17542-7.1739V404.67384c0-3.95875-3.21671-7.17391-7.17542-7.17391zm0 1.84367h268.50861c2.96927 0 5.33175 2.36094 5.33177 5.33024v112.53654c0 2.96929-2.3625 5.33178-5.33177 5.33178H639.64588c-2.96926 0-5.33023-2.36249-5.33023-5.33178V404.67384c0-2.9693 2.36097-5.33024 5.33023-5.33024z" color="#000" font-family="sans-serif" font-weight="400" overflow="visible" style="line-height:normal;font-variant-ligatures:normal;font-variant-position:normal;font-variant-caps:normal;font-variant-numeric:normal;font-variant-alternates:normal;font-variant-east-asian:normal;font-feature-settings:normal;font-variation-settings:normal;text-indent:0;text-align:start;text-decoration-line:none;text-decoration-style:solid;text-decoration-color:#000;text-transform:none;text-orientation:mixed;white-space:normal;shape-padding:0;shape-margin:0;inline-size:0;isolation:auto;mix-blend-mode:normal;solid-color:#000;solid-opacity:1" />
    <path fill="#253898" d="M653.17734 401.22697v16.91052h-16.96918v99.07608c0 1.90386 1.53051 3.43436 3.43437 3.43436h268.51845c1.90389 0 3.43437-1.5305 3.43437-3.43436V404.67994c0-1.90969-1.53202-3.45297-3.43437-3.45297z" color="#000" font-family="sans-serif" font-weight="400" overflow="visible" style="line-height:normal;font-variant-ligatures:normal;font-variant-position:normal;font-variant-caps:normal;font-variant-numeric:normal;font-variant-alternates:normal;font-variant-east-asian:normal;font-feature-settings:normal;font-variation-settings:normal;text-indent:0;text-align:start;text-decoration-line:none;text-decoration-style:solid;text-decoration-color:#000;text-transform:none;text-orientation:mixed;white-space:normal;shape-padding:0;shape-margin:0;inline-size:0;isolation:auto;mix-blend-mode:normal;solid-color:#000;solid-opacity:1" />
    <path fill="#fff" d="M872.3497 471.52484h6.34114v2.07364h-5.8603c.24043.82645.54846 1.56274.93164 2.22391.3982.66116.8565 1.20211 1.38243 1.62285.54095.42074.9091.63111 1.11195.63111.21788 0 .36064-.19534.42073-.57101.0751-.3982.12774-.99174.15028-1.77311.75884.52592 1.60783.8565 2.55448.99174-.24041 2.88507-1.09693 4.3276-2.55448 4.3276-.70625 0-1.56275-.3456-2.58455-1.02179-1.0218-.6837-1.88581-1.57777-2.58454-2.6747-.6837-1.11947-1.20211-2.37417-1.56274-3.7566h-4.47787v4.02708c1.27725-.45831 2.55449-.99926 3.8167-1.62286.12021.6837.30054 1.41249.54096 2.19386-1.84825.73629-3.982 1.68295-6.40125 2.82496-.46581-.64613-.91661-1.34486-1.35238-2.10369.3982-.32308.64614-.64614.75133-.96169.12021-.32307.18031-.78889.18031-1.41249v-13.34344h14.09476v6.22093h-5.19913c.0751.78138.18031 1.48761.30053 2.1037zm2.1638-4.23745v-2.01353h-8.89563v2.01353zm-8.89563 4.23745h4.02708c-.10519-.75883-.17281-1.45756-.21038-2.1037h-3.8167zm25.65106-3.42602c1.08191-1.11946 1.92338-3.10295 2.52445-5.95045.43575.0451.96169.11269 1.56273.21036.61609.0827.99175.14276 1.11197.18032.12021.0451.1803.1127.1803.21037 0 .10519-.0601.2254-.1803.36064-.12022.14274-.30053.48083-.54096 1.02179h5.01883c-.58603 2.34412-1.4726 4.19988-2.67472 5.55976 1.15704.68371 2.59206 1.20212 4.29757 1.56275-.60107.82645-1.12698 1.62285-1.56276 2.40422-.32306-.12021-.55596-.21037-.69122-.27047v7.4531h-2.46432v-1.20212h-3.03534v1.20212h-2.37417v-7.30284l-.48083.21038c-.22541-.37567-.42074-.69873-.60107-.9617v1.5327h-2.01353v2.01353c.81894-.24042 1.59279-.48836 2.31405-.75131-.0224.22539-.03.52592-.03.90158 0 .38317.0451.81143.15026 1.29227-2.68971.7964-5.25924 1.71301-7.72356 2.73481l-.90159-2.70476c.30052-.0451.66869-.1127 1.11196-.21037v-6.4313h1.74306c.37566 0 .57099.0827.57099.24042 0 .0827-.03.18032-.0901.30053-.12022.24042-.18031.86402-.18031 1.86327v3.54623l.87153-.18031v-6.82199h-2.49439v-6.79192h6.58156zm-2.19386-.0902v-2.58454h-2.19383v2.58454zm7.42306.27047c.4583-.60105.87903-1.30729 1.26221-2.13374h-2.6146c.30053.76634.75132 1.47258 1.35239 2.13374zm-2.70475.0601c-.32309.48085-.64615.92413-.96169 1.32233-.6837-.51841-1.20211-.85651-1.56276-1.0218v1.47259h-1.92337v2.04359h1.50264c-.12021-.12021-.28551-.27799-.48086-.48085 1.87832-.5184 3.34338-1.142 4.38773-1.86327-.38318-.42074-.70624-.9091-.96169-1.47259zm2.64463 3.00528c-.82645.60106-1.7656 1.16455-2.82496 1.68296h5.83024c-1.16454-.54095-2.1638-1.09693-3.00528-1.68296zm1.41249 6.4313v-2.70475h-3.03534v2.70475zm-154.374 25.34956c-.29466-.39288-.6548-.79121-1.09134-1.20046l1.94258-.85124c.48018.62752.88397 1.20046 1.22228 1.7243l-.89489.3274h2.48824c.39288-.62206.74211-1.33687 1.04768-2.13901l1.89892.63297c.17461.0601.26191.13097.26191.21827 0 .0873-.10367.20735-.30557.34923-.19098.13096-.49109.44745-.89489.93854h3.84149v1.50604h-13.33607v-1.50604zm8.27229 3.97245v5.74041c0 .48019-.0818.85124-.24009 1.11315-.1637.26193-.4529.44745-.87307.5675-.42561.13096-1.06405.22372-1.92074.28374-.0436-.82941-.25646-1.51694-.63297-2.0517.70936.13096 1.16773.19644 1.37507.19644.21827 0 .34923-.0382.39288-.10913.0546-.0764.0873-.21281.0873-.41471v-7.50836h1.7243c.22919 0 .34923.0436.34923.13096 0 .0873-.0328.19098-.0873.30557-.0436.12005-.0873.34377-.13096.67663-.0328.32194-.0436.67662-.0436 1.0695zm-9.31997 4.19072v3.42678h-1.70248V505.308h5.63127v7.46471c0 .48018-.0546.82941-.15279 1.04768-.10367.21826-.31648.3765-.63296.48018-.32195.11459-.85124.20735-1.59335.28375-.0328-.6548-.251-1.25504-.6548-1.78979.44745.0873.75302.13096.91672.13096.17461 0 .28374-.0382.3274-.10913.0436-.0764.0654-.21281.0654-.41471v-1.11315zm2.20449-3.64505v-.8949h-2.20449v.8949zm-2.20449 1.37508v.89489h2.20449v-.89489zm4.86733-3.09939h1.5497c.22918 0 .34922.0654.34922.19644 0 .06-.0218.14187-.0654.24009-.0764.17462-.10914.62752-.10914 1.35326v4.40898h-1.72431zm14.22133-2.44459c-.14733-.50747-.4529-1.09678-.91672-1.76795l2.20449-.72028c.31649.7421.59478 1.45693.8294 2.139l-1.54968.34923h6.56981v1.68066h-6.87538c-.0327.73119-.0601 1.28231-.0873 1.65882h5.23839l-.50201 4.91099c-.0764.75303-.21827 1.32052-.43654 1.70247-.20734.37651-.55657.6548-1.04766.82942-.4802.17461-1.22231.28375-2.22633.32741-.0601-.77485-.30012-1.50059-.72027-2.18267.88397.17461 1.46237.26192 1.72429.26192.27284 0 .45837-.0546.54568-.15279.0873-.0873.13647-.24555.15277-.48019l.37107-3.62322h-3.274c-.25101 1.39691-.67117 2.59191-1.26594 3.57957-.58387.97129-1.40782 1.86072-2.46642 2.66285-.43654-.40926-1.04222-.82941-1.81161-1.26595 1.36416-.91672 2.34091-1.96439 2.92477-3.14303.57841-1.17864.8567-2.8702.82941-5.0856h-3.79784v-1.68066zm12.64668 1.71339c.49266-.15175 1.09002-.23605 1.79822-.23605 1.13313 0 2.03225.4721 2.70966 1.41629.67126.92734 1.00997 2.02328 1.00997 3.30467 0 1.28141-.3572 2.37735-1.05924 3.27097-.68973.90204-1.60115 1.34885-2.73429 1.34885-1.56421 0-2.9252-.4721-4.08911-1.41629l1.08386-2.25933c.78826.69972 1.74895 1.04536 2.8821 1.04536.68971 0 1.18853-.17703 1.50261-.53954.32639-.35407.49266-.85989.49266-1.51746 0-.64912-.17243-1.14651-.5173-1.48372-.33254-.33721-.81288-.50582-1.45335-.50582-.62814 0-1.23166.16017-1.82286.4721l-1.97066-1.04536.41877-6.30587h6.40463v2.69769h-4.45861zm11.76674-4.58608c1.16392 0 2.13077.62384 2.90672 1.85465.7698 1.23927 1.15776 2.91689 1.15776 5.02448 0 2.0907-.3695 3.7599-1.10849 4.99073-.72668 1.21397-1.71817 1.82095-2.98063 1.82095-1.26861 0-2.26625-.60698-3.00526-1.82095-.73899-1.21396-1.10849-2.87474-1.10849-4.99073 0-2.10759.3695-3.78521 1.10849-5.02448.73901-1.23081 1.74897-1.85465 3.0299-1.85465zm.0985 11.06055c.60352 0 1.0962-.38779 1.478-1.18025.39414-.80931.5912-1.87153.5912-3.2035 0-1.32357-.18474-2.32677-.54193-3.0012-.34487-.69128-.88679-1.04535-1.62579-1.04535-1.47799 0-2.217 1.41628-2.217 4.24888 0 1.34884.19708 2.38577.5912 3.10234.39414.72501.96685 1.07908 1.72432 1.07908zm10.02587-11.06055c1.16393 0 2.13078.62384 2.90671 1.85465.7698 1.23927 1.15777 2.91689 1.15777 5.02448 0 2.0907-.36949 3.7599-1.10849 4.99073-.72669 1.21397-1.71817 1.82095-2.98062 1.82095-1.26861 0-2.26627-.60698-3.00527-1.82095-.739-1.21396-1.10849-2.87474-1.10849-4.99073 0-2.10759.36949-3.78521 1.10849-5.02448.739-1.23081 1.74896-1.85465 3.0299-1.85465zm.0985 11.06055c.60352 0 1.09618-.38779 1.478-1.18025.39412-.80931.5912-1.87153.5912-3.2035 0-1.32357-.18476-2.32677-.54193-3.0012-.34486-.69128-.8868-1.04535-1.6258-1.04535-1.478 0-2.21699 1.41628-2.21699 4.24888 0 1.34884.19707 2.38577.5912 3.10234.39412.72501.96686 1.07908 1.72432 1.07908zm13.94311 2.49537h-1.36004v-3.55063c0-.24796-.096-.46615-.27899-.65458-.18744-.18348-.40104-.2777-.64514-.2777-.2354 0-.43593.0943-.61028.2777-.16565.18843-.24412.40662-.24412.65458v3.55063h-1.34262v-3.57047c0-.23803-.0785-.44631-.22667-.63474-.15257-.18348-.3618-.2777-.62771-.2777-.25719 0-.4795.0893-.66258.25786-.17437.17357-.26156.39175-.26156.65458v3.57047h-1.37748v-5.91111h1.37748v.35705c.40541-.28762.84131-.43639 1.30774-.43639.57977 0 1.03748.22811 1.37749.67442.47515-.44631.99388-.67442 1.55185-.67442.55796 0 1.03312.1934 1.4298.57524.39232.3868.59283.84303.59283 1.36868zm0 0" />
    <path fill="#253898" d="m642.29473 417.87698 1.80244-2.34276 1.91378 2.34276-1.91378-6.00502z" />
    <path fill="#fff" d="M652.66223322 466.32261145h-5.51796672v-2.13785098h15.10940626v2.13785098h-6.875791l-.72224695 3.1778866h5.89353514l-.63557732 7.8002671h3.52456513v2.25341049h-17.59393578v-2.2534105h4.56460074l1.15559513-5.63352623h-3.4378955v-2.16674086h3.87124367Zm.2600089 10.9781537h4.39126148l.5200178-5.63352624h-3.64012464Zm32.39530244-4.79571978h-17.1605876v-2.36897h17.1605876zm0 0" />
    <path fill="#253898" d="M641.54951898 409.50438727v.58644506h-1.18792717v-6.30052512h2.07511328v-1.06763075h-2.85704003v-1.11274191h8.84178705v1.1127419h-2.9322253v1.06763076h2.18037266v6.24037691h-1.24807538v-.52629685Zm2.04503918-5.71408006h.70674148v-1.06763075h-.70674148Zm2.82696593 2.75178066v-1.68414991h-.93229728v1.45859412c0 .10150035.03383313.17292562.10525937.21051874.06766722.04135213.1691666.0601482.30074106.0601482.1390925 0 .31577811-.01503704.52629685-.04511115zm-3.99985605-1.68414991h-.87214906v2.4209655c.5413339-.66163033.83079693-1.46611313.87214906-2.4209655zm3.99985605 3.57881856v-.8270379c-.4022414.04135214-.75937069.06014821-1.06763075.06014821-.31201909 0-.56764898-.04511116-.7668897-.13533347-.19172266-.09774133-.285704-.33833417-.285704-.72177854v-1.95481686h-.70674148c0 1.31574164-.42103748 2.4134465-1.26311244 3.29311456-.22179677-.21051874-.48118569-.39096337-.78192674-.5413339v.8270379zm0 0" />
    <path fill="#fff" fill-rule="evenodd" d="M770.52005 441.7851v21.7761c0 2.50814-2.01924 4.52694-4.52737 4.52694h-48.68553l-3.58057 3.67405 3.58057 3.67406h48.68553c2.50813 0 4.52737 2.01925 4.52737 4.52737v12.62137h7.31946v-12.62137c0-2.50812 2.01923-4.52737 4.52736-4.52737h48.4402l3.63696-3.67406-3.63696-3.67405h-48.4402c-2.50813 0-4.52736-2.0188-4.52736-4.52694v-21.7761l-3.67407-3.58059z" />
    <path fill="#fff" d="M848.60311 472.60674c-.58603 1.72804-1.48761 3.26072-2.70474 4.59808-1.20212 1.33735-2.82497 2.61459-4.86856 3.8167-.56349-.70624-1.34486-1.43502-2.34412-2.19386 2.10369-.84147 3.76412-1.9384 4.98876-3.3058 1.23968-1.35989 2.08116-2.93015 2.52444-4.71829.43576-1.80317.63111-4.6131.571-8.44484.75883.0226 1.47259.0601 2.13375.12021.67619.0451 1.05936.0827 1.14201.12022.0751.0451.12021.10518.12021.18031 0 .0827-.0601.25545-.18032.5109-.10518.24042-.18031.50339-.24042.78137-.0601.28551-.10518.70624-.12021 1.26222l-.12021 2.07365c.51841 2.64464 1.51015 4.92865 2.97522 6.85203 1.4801 1.92338 3.28327 3.29829 5.40951 4.11723-.94667.91661-1.68295 1.75058-2.22391 2.49439-3.48612-2.24645-5.84527-4.99628-7.06241-8.26452zm-102.6093918-54.46395478c-.82802835.13680507-1.74245777.3600112-2.73609217.66242232-.23040776-.69122329-.44641412-1.45444992-.63362135-2.30407763.3816124-.11520388.69842307-.32401045.95043202-.63362134.26640852-.32401046.63362135-.979233 1.09443687-1.95846598.46081553-.979233.90002987-2.17447418 1.32484464-3.6001213 1.5552524.50401607 2.39768032.79202577 2.53448539.86402912.15120463.05760194.23040776.15840441.23040776.2880097 0 .11520388-.05760194.23040776-.17280582.34561164-.33121024.3096109-.6912233.83522814-1.09443688 1.58405337-.40321358.74882523-.96483158 1.69205747-1.67045627 2.82249509l1.46884948-.14400485c.34561165-.59042081.7776262-1.39684798 1.29604367-2.4192815.64802275.36721282 1.18803956.67682187 1.61285433.92163104.417615.25200895.66242232.41761315.72002426.4896165.07200335.05760194.11520388.13680507.11520388.23040776 0 .07920313-.15840441.24480733-.46081552.4896165-.3096109.25200895-.67682188.69122328-1.09443687 1.32484463-.90722965 1.31044323-1.77125876 2.46968367-2.59208733 3.4849174 1.16644022-.15120463 2.31847903-.34561164 3.45611644-.5760194-.15840442.71282448-.21600636 1.44004852-.17280583 2.18887375-2.75049174.30961089-4.96816645.6480209-6.65302414 1.00803396-.21600635-.6912233-.3960138-1.41844733-.54721843-2.18887375.64802275-.20880657 1.16644021-.51841746 1.5552524-.92163105.40321358-.40321358.89283007-1.05123634 1.46884948-1.95846598zm7.63225714-3.77292711h-3.22570867v-2.24647568h9.18750953v2.24647568h-3.42731547v10.74276193h4.08973778v2.24647568h-10.71396095v-1.3536456c-2.9808995.61202015-5.05456937 1.12323784-6.2210096 1.52645142l-.63362134-2.76489315c1.90086404-.23040776 4.55055331-.64082113 7.9490678-1.23844172-.05760193.80642717-.0864029 1.33924512-.0864029 1.58405337h3.08170382Zm20.20698061 2.62088829h-1.15203881v-1.26724268c-.25200895.25200895-.46081553.45361574-.63362135.60482037-.38881217-.3024111-.93603061-.64082113-1.6416553-1.00803396.07200334-.03600075.17280582-.11520388.2880097-.23040776h-1.81446113c0 .8640291-.01439588 1.46884948-.02880097 1.81446113h2.99530091l-.08640291 8.09307266c-.02160119.5904208-.1080041 1.0440347-.25920873 1.3536456-.13680507.30241111-.42481478.55441822-.86402911.74882523-.44641412.18720723-1.1376374.37441261-2.07366986.54721843-.05760195-.90722964-.28080993-1.68485584-.66242232-2.3328786.49681627.03600076.87122889.05760195 1.12323784.05760195.24480917 0 .40321358-.04320053.46081553-.11520388.07200334-.05760194.11520388-.19440646.11520388-.40321359l.0864029-6.07700473h-.92163104c-.07920313 2.05926845-.28080992 3.7585257-.60482038 5.09777174-.33121024 1.33924604-.8640291 2.70729121-1.61285434 4.08973779-.5976206-.42481478-1.25284128-.80642717-1.95846598-1.15203881.80642717-1.23124195 1.36804701-2.714491 1.69925725-4.4641504.32401046-1.74245963.46081553-4.16174113.40321358-7.25784452h-1.87206307v-1.92966501h3.13930577c-.21600636-.82082858-.46081553-1.62005412-.74882523-2.39048054l2.4192815-.60482038c.24480918.82802836.47521694 1.69205747.6912233 2.59208733l-1.8432621.40321359h3.25450964v.74882523c.97923299-1.22404216 1.65605671-2.5128842 2.0448689-3.85933003 1.41844732.34561165 2.20327514.561618 2.36167956.63362135.15120463.05760194.23040776.14400485.23040776.25920873 0 .11520388-.07920313.22320798-.23040776.31681068-.13680507.10080247-.3096109.24480732-.51841747.43201455h7.02743676v1.8432621h-8.20827654c-.07920313.10080248-.17280582.23040776-.2880097.40321359h1.61285433c.2880097 0 .43201456.05760194.43201456.17280582 0 .11520388-.04320054.25200895-.11520388.40321358-.05760194.13680507-.10080248.38881218-.11520388.74882523h2.79369412v-1.41124755h1.98726695c.26640851 0 .40321358.05760195.40321358.17280583s-.04320053.25200895-.11520388.40321358c-.05760194.13680507-.10080247.41761315-.11520388.83522814h1.38244657v1.72805822h-1.41124754v5.41458242h1.98726695v1.78566016h-3.28331062c1.51205187 1.10883828 2.63528971 1.96566576 3.36971353 2.56328635l-1.78566016 1.4688495c-.94323224-.94323225-2.12407202-1.87206308-3.54251935-2.79369413l1.38244658-1.23844172h-3.71532517c.82082857.56161892 1.29604366.87122944 1.41124754.95043202.11520388.09360269.17280583.17280582.17280583.23040776 0 .07200335-.08640292.15120463-.25920874.23040776-.17280582.07200335-.37441261.1800056-.60482037.31681068-.23040777.15120463-.40321359.27361014-.51841747.37441261-.65522254.53281887-1.61285434 1.20964075-2.88009703 2.01606792-.38881218-.40321358-.89283008-.8496277-1.52645143-1.32484463 1.45444992-.8496277 2.64968927-1.77846038 3.57132032-2.79369412h-2.67849024v-1.78566016h1.8432621zm-.72002426-1.72805821h.72002426v-.8640291c-.194407.27360829-.43201455.56161799-.72002426.8640291zm5.64499019 1.72805822h-2.8224951v.74882523h2.8224951zm-2.8224951 3.08170382h2.8224951v-.7776262h-2.8224951zm0 2.3328786h2.8224951v-.74882523h-2.8224951zm18.93977024-6.5954222c1.03683493-1.07283569 1.8432621-2.97369973 2.4192815-5.70259213.417615.04320054.92163106.1080041 1.49765046.2016068.59042082.07920313.95043202.13680507 1.0656359.17280582.11520389.04320053.17280583.1080041.17280583.20160679 0 .10080247-.05760194.21600636-.17280583.34561164-.11520388.13680507-.2880097.46081553-.51841746.979233h4.80975872c-.56161615 2.24647568-1.4112457 4.02493606-2.56328304 5.3281795 1.1088368.65522254 2.48407991 1.15203882 4.1185336 1.49765046-.5760194.79202576-1.08003362 1.5552524-1.49764862 2.30407762-.30961089-.11520388-.53281518-.20160679-.66242047-.25920873v7.14264064h-2.3616781v-1.15203881h-2.908898v1.1520388h-2.27527665v-6.99863578l-.46081552.2016068c-.21600636-.36001306-.40321359-.6696221-.5760194-.92163106v1.4688495h-1.92966502v1.929665c.78482598-.23040776 1.52645143-.4680153 2.21767471-.72002426-.02160118.21600636-.02880097.50401606-.02880097.86402911 0 .36721284.04320238.7776262.14400486 1.23844173-2.57768593.76322663-5.0401698 1.6416553-7.40184956 2.6208883l-.8640293-2.59208733c.2880099-.04320146.64082132-.10800355 1.06563628-.2016068v-6.16340764h1.67045628c.36001305 0 .54721843.07920313.54721843.23040776 0 .07920313-.02880097.17280582-.0864029.2880097-.11520389.23040777-.17280583.82802836-.17280583 1.78566016v3.3985145l.83522814-.17280582v-6.53782026h-2.39048054v-6.5090193h6.3074125zm-2.10247083-.08640291v-2.47688345h-2.10247083v2.47688345zm7.11383967.25920873c.43921433-.5760194.84242792-1.25284313 1.20964075-2.0448689h-2.50568442c.2880097.73442383.72002426 1.41124755 1.29604367 2.0448689zm-2.59208733.05760194c-.3096109.46081552-.61921994.8856303-.92163105 1.2672427-.65522254-.49681628-1.15203882-.82082858-1.49765046-.979233v1.41124755h-1.8432621v1.95846598h1.44004852c-.11520388-.11520388-.2736083-.26640852-.46081553-.46081553 1.80006157-.49681627 3.20410749-1.09443687 4.20494167-1.78566016-.36721284-.40321358-.67682188-.87122889-.92163105-1.41124754zm2.53448538 2.88009703c-.79202576.5760194-1.69205746 1.11603806-2.7072912 1.61285434h5.58738676c-1.11603658-.51841747-2.07366839-1.05123634-2.88009556-1.61285434Zm1.3536456 6.16340765v-2.59208733h-2.908898v2.59208733zm-104.02864244 43.31886361c1.04003561-1.0761475 1.8489522-2.98287945 2.42674976-5.72019587.41890416.0433339.9244761.1083375 1.50227366.20222915.59224343.07944762.95336598.13722738 1.0689255.17333927.1155595.04333389.17333926.1083375.17333926.20222914 0 .10111365-.05777975.21667316-.17333927.34667854-.1155595.13722738-.28889878.46223805-.5200178.98225586h4.82460965c-.5633517 2.2534105-1.41560403 4.03736093-2.57119916 5.34462745 1.11226123.65724519 2.49175153 1.15559513 4.13125257 1.50227366-.57779756.79447073-1.0833695 1.56005342-1.50227366 2.31119025-.31056665-.11555951-.53446182-.20222914-.6644672-.2600089v7.16468977h-2.36897v-1.15559512h-2.9178777v1.15559512h-2.28230036v-7.02024038l-.46223805.20222915c-.21667317-.3611244-.4044583-.6716892-.57779757-.9244761v1.47338378h-1.93562183v1.93562184c.78724872-.23111903 1.53116354-.46946006 2.22452061-.72224696-.02166787.21667316-.02888987.50557195-.02888987.86669635 0 .3683464.04333574.7800267.14444939 1.24226476-2.58564317.7655827-5.05572867 1.64672305-7.42469887 2.6289789l-.86669634-2.60008903c.28889878-.04333481.64279933-.10833695 1.06892568-.20222914v-6.18243392h1.67561293c.3611244 0 .54890768.07944763.54890768.23111902 0 .07944763-.02888988.17333927-.08666963.28889878-.11555952.23111903-.17333927.83058446-.17333927 1.79117245v3.40900562l.83780646-.17333927v-6.55800234h-2.39785988v-6.52911245h6.3268833Zm-2.1089611-.08666963v-2.48452952h-2.1089611v2.48452952zm7.1357999.2600089c.44057017-.57779756.84502847-1.25671062 1.21337487-2.05118135h-2.5134194c.28889879.73669097.72224696 1.41560403 1.30004452 2.05118135zm-2.60008904.05777975c-.31056665.46223805-.62113145.88836422-.9244761 1.27115464-.65724519-.49834993-1.15559512-.82336245-1.50227366-.98225585v1.41560402h-1.8489522v1.96451172h1.4444939c-.1155595-.11555952-.27445291-.26723091-.46223804-.46223805 1.8056183-.49834994 3.21399847-1.09781537 4.2179222-1.79117245-.3683464-.4044583-.67891121-.87391835-.9244761-1.41560403zm2.54230928 2.88898782c-.79447073.57779756-1.6972808 1.11948324-2.71564855 1.61783317h5.60463636c-1.11948324-.5200178-2.08007123-1.05448147-2.88898781-1.61783317zm1.35782427 6.18243392v-2.60008904h-2.9178777v2.60008904zm0 0" />
    <path fill="#fff" d="M790.98819 462.75648h30.89118c1.55771 0 2.81173 1.25404 2.81173 2.81174v12.33657c0 1.5577-1.25402 2.81174-2.81173 2.81174h-30.89118c-1.5577 0-2.81174-1.25404-2.81174-2.81174v-12.33657c0-1.5577 1.25404-2.81174 2.81174-2.81174z" color="#000" font-family="sans-serif" font-weight="400" overflow="visible" style="line-height:normal;font-variant-ligatures:normal;font-variant-position:normal;font-variant-caps:normal;font-variant-numeric:normal;font-variant-alternates:normal;font-variant-east-asian:normal;font-feature-settings:normal;font-variation-settings:normal;text-indent:0;text-align:start;text-decoration-line:none;text-decoration-style:solid;text-decoration-color:#000;text-transform:none;text-orientation:mixed;white-space:normal;shape-padding:0;shape-margin:0;inline-size:0;isolation:auto;mix-blend-mode:normal;solid-color:#000;solid-opacity:1" />
    <path fill="red" d="M790.98828 462.34209c-1.78017 0-3.22651 1.4458-3.22651 3.22597v12.3366c0 1.78016 1.44634 3.2265 3.22651 3.2265h30.89118c1.78016 0 3.22597-1.44634 3.22597-3.2265v-12.3366c0-1.78017-1.4458-3.22597-3.22597-3.22597zm0 .82878h30.89118c1.33524 0 2.39718 1.06196 2.39718 2.39719v12.3366c0 1.33523-1.06194 2.39718-2.39718 2.39718h-30.89118c-1.33524 0-2.39719-1.06195-2.39719-2.39718v-12.3366c0-1.33523 1.06195-2.39719 2.39719-2.39719z" color="#000" font-family="sans-serif" font-weight="400" overflow="visible" style="line-height:normal;font-variant-ligatures:normal;font-variant-position:normal;font-variant-caps:normal;font-variant-numeric:normal;font-variant-alternates:normal;font-variant-east-asian:normal;font-feature-settings:normal;font-variation-settings:normal;text-indent:0;text-align:start;text-decoration-line:none;text-decoration-style:solid;text-decoration-color:#000;text-transform:none;text-orientation:mixed;white-space:normal;shape-padding:0;shape-margin:0;inline-size:0;isolation:auto;mix-blend-mode:normal;solid-color:#000;solid-opacity:1" />
    <path fill="red" d="M790.98684 464.01519c-.85658 0-1.54681.6956-1.54681 1.55545v12.3355c0 .85724.68957 1.54681 1.54681 1.54681h30.89496c.85723 0 1.54681-.68957 1.54681-1.54681v-12.3355c0-.85985-.69023-1.55545-1.54681-1.55545z" color="#000" font-family="sans-serif" font-weight="400" overflow="visible" style="line-height:normal;font-variant-ligatures:normal;font-variant-position:normal;font-variant-caps:normal;font-variant-numeric:normal;font-variant-alternates:normal;font-variant-east-asian:normal;font-feature-settings:normal;font-variation-settings:normal;text-indent:0;text-align:start;text-decoration-line:none;text-decoration-style:solid;text-decoration-color:#000;text-transform:none;text-orientation:mixed;white-space:normal;shape-padding:0;shape-margin:0;inline-size:0;isolation:auto;mix-blend-mode:normal;solid-color:#000;solid-opacity:1" />
    <path fill="#fff" d="M803.88065 476.50105h-1.48742v-6.38199h-.74352v-1.9212c.4213-.16514.69814-.52646.83051-1.08399h1.40043z" font-family="STJTBZ" font-size="50.0879" font-weight="400" letter-spacing="0" style="line-height:0%;-inkscape-font-specification:STJTBZ;text-align:start" word-spacing="0" />
    <path fill="#fff" d="M332.09658 603.50234c-.46776 10.21794-4.4247 15.3269-11.87081 15.3269-3.50653 0-6.38659-1.36908-8.6402-4.10725-2.25361-2.73816-3.38041-6.37817-3.38041-10.92005 0-4.90768 1.14361-8.72246 3.43086-11.44434 2.28723-2.72183 5.23404-4.08276 8.84044-4.08279 2.2704.00003 4.32377.63464 6.1601 1.90382 1.83629 1.26925 3.28893 3.10581 4.35793 5.50971l-5.50894 2.05438c-.9355-2.33765-2.65564-3.50649-5.16042-3.50652-4.07312.00003-6.10967 3.12211-6.10966 9.36627-.00001 6.24418 2.08698 9.36627 6.26099 9.36626 2.33766.00001 4.00736-1.15202 5.00909-3.45608h-3.50652v-6.01031z" font-family="STJTBZ" font-size="50.0879" font-weight="400" letter-spacing="0" style="line-height:0%;-inkscape-font-specification:STJTBZ;text-align:start" transform="matrix(.24742 0 0 .30927 716.62623 285.14677)" word-spacing="0" />
    <path fill="#fff" d="M809.82399 467.0673c.88396.00001 1.61922.42595 2.2058 1.27782.58657.85188.87986 2.00591.87986 3.4621 0 1.45619-.27677 2.6103-.83031 3.46233-.55356.85205-1.31151 1.27806-2.27388 1.27806-.96237 0-1.72448-.42089-2.28635-1.26269-.56187-.84179-.8428-1.9933-.8428-3.45454 0-1.46123.28093-2.62038.8428-3.47747.56187-.85707 1.33016-1.2856 2.30488-1.28561zm.0745 7.65222c.46264 0 .83856-.27363 1.12776-.8209.28918-.54728.43378-1.2831.43379-2.20746-.00001-.92436-.13225-1.62149-.39673-2.0914-.26448-.46989-.68175-.70484-1.25181-.70485-1.11516.00001-1.67274.9811-1.67274 2.94327 0 .9294.15077 1.64198.45232 2.13773.30154.49575.73734.74361 1.30741.74361zm9.23602-3.40796c.26447.32019.45458.64552.57032.97595.11572.33045.17358.73836.17359 1.2237-.00001.85724-.26853 1.56988-.80555 2.13796-.53704.56807-1.20215.85211-1.99534.85211-.7932 0-1.41903-.14719-1.87753-.44153-.45849-.29436-.78897-.70746-.99143-1.23929-.20245-.53183-.30368-1.00433-.30368-1.4175 0-.78475.26448-1.48692.79344-2.10654-.35525-.51653-.53287-1.0742-.53286-1.67301-.00001-.81595.26844-1.45367.80535-1.91319.5369-.45948 1.20813-.68922 2.01368-.68924.80554.00002 1.45413.23749 1.94579.71241.49164.47495.73747 1.1152.73747 1.92075 0 .65081-.17776 1.20327-.53325 1.65742zm-2.13148-.94501c.3802 0 .67564-.067.88628-.20114.21066-.13409.31598-.31224.31599-.53445-.00001-.22217-.10949-.40811-.32846-.55783-.21898-.14969-.52878-.22454-.9294-.22455-.40064.00001-.71869.0698-.95418.2092-.2355.13946-.35323.32541-.35323.55782 0 .23244.11773.41572.35323.54981.23549.13411.57207.20114 1.00977.20114zm-.0121 4.33786c.47072 0 .83-.10849 1.07784-.32549.24784-.21699.37177-.5319.37177-.94476 0-.79547-.49569-1.1932-1.48704-1.19321-.49569.00001-.87779.10591-1.14631.31769-.26851.21179-.40277.50867-.40277.89065 0 .83674.52884 1.25512 1.58651 1.25512z" font-family="STJTBZ" font-size="50.0879" font-weight="400" letter-spacing="0" style="line-height:0%;-inkscape-font-specification:STJTBZ;text-align:start" word-spacing="0" />
    <path fill="#fff" d="M725.54569 462.75648h30.89118c1.5577 0 2.81173 1.25404 2.81173 2.81174v12.33657c0 1.5577-1.25403 2.81174-2.81173 2.81174h-30.89118c-1.5577 0-2.81174-1.25404-2.81174-2.81174v-12.33657c0-1.5577 1.25404-2.81174 2.81174-2.81174z" color="#000" font-family="sans-serif" font-weight="400" overflow="visible" style="line-height:normal;font-variant-ligatures:normal;font-variant-position:normal;font-variant-caps:normal;font-variant-numeric:normal;font-variant-alternates:normal;font-variant-east-asian:normal;font-feature-settings:normal;font-variation-settings:normal;text-indent:0;text-align:start;text-decoration-line:none;text-decoration-style:solid;text-decoration-color:#000;text-transform:none;text-orientation:mixed;white-space:normal;shape-padding:0;shape-margin:0;inline-size:0;isolation:auto;mix-blend-mode:normal;solid-color:#000;solid-opacity:1" />
    <path fill="red" d="M725.54578 462.34209c-1.78017 0-3.22651 1.4458-3.22651 3.22597v12.3366c0 1.78016 1.44634 3.2265 3.22651 3.2265h30.89118c1.78017 0 3.22597-1.44634 3.22597-3.2265v-12.3366c0-1.78017-1.4458-3.22597-3.22597-3.22597zm0 .82878h30.89118c1.33524 0 2.39719 1.06196 2.39719 2.39719v12.3366c0 1.33523-1.06195 2.39718-2.39719 2.39718h-30.89118c-1.33523 0-2.39719-1.06195-2.39719-2.39718v-12.3366c0-1.33523 1.06196-2.39719 2.39719-2.39719z" color="#000" font-family="sans-serif" font-weight="400" overflow="visible" style="line-height:normal;font-variant-ligatures:normal;font-variant-position:normal;font-variant-caps:normal;font-variant-numeric:normal;font-variant-alternates:normal;font-variant-east-asian:normal;font-feature-settings:normal;font-variation-settings:normal;text-indent:0;text-align:start;text-decoration-line:none;text-decoration-style:solid;text-decoration-color:#000;text-transform:none;text-orientation:mixed;white-space:normal;shape-padding:0;shape-margin:0;inline-size:0;isolation:auto;mix-blend-mode:normal;solid-color:#000;solid-opacity:1" />
    <path fill="red" d="M725.54434 464.01519c-.85659 0-1.5468.6956-1.5468 1.55545v12.3355c0 .85724.68957 1.54681 1.5468 1.54681h30.89496c.85723 0 1.5468-.68957 1.5468-1.54681v-12.3355c0-.85985-.69021-1.55545-1.5468-1.55545z" color="#000" font-family="sans-serif" font-weight="400" overflow="visible" style="line-height:normal;font-variant-ligatures:normal;font-variant-position:normal;font-variant-caps:normal;font-variant-numeric:normal;font-variant-alternates:normal;font-variant-east-asian:normal;font-feature-settings:normal;font-variation-settings:normal;text-indent:0;text-align:start;text-decoration-line:none;text-decoration-style:solid;text-decoration-color:#000;text-transform:none;text-orientation:mixed;white-space:normal;shape-padding:0;shape-margin:0;inline-size:0;isolation:auto;mix-blend-mode:normal;solid-color:#000;solid-opacity:1" />
    <path fill="#fff" d="M738.43816 476.50105h-1.48743v-6.38199h-.74353v-1.9212c.42131-.16514.69815-.52646.83051-1.08399h1.40045z" font-family="STJTBZ" font-size="50.0879" font-weight="400" letter-spacing="0" style="line-height:0%;-inkscape-font-specification:STJTBZ;text-align:start" word-spacing="0" />
    <path fill="#fff" d="M332.09658 603.50234c-.46776 10.21794-4.4247 15.3269-11.87081 15.3269-3.50653 0-6.38659-1.36908-8.6402-4.10725-2.25361-2.73816-3.38041-6.37817-3.38041-10.92005 0-4.90768 1.14361-8.72246 3.43086-11.44434 2.28723-2.72183 5.23404-4.08276 8.84044-4.08279 2.2704.00003 4.32377.63464 6.1601 1.90382 1.83629 1.26925 3.28893 3.10581 4.35793 5.50971l-5.50894 2.05438c-.9355-2.33765-2.65564-3.50649-5.16042-3.50652-4.07312.00003-6.10967 3.12211-6.10966 9.36627-.00001 6.24418 2.08698 9.36627 6.26099 9.36626 2.33766.00001 4.00736-1.15202 5.00909-3.45608h-3.50652v-6.01031z" font-family="STJTBZ" font-size="50.0879" font-weight="400" letter-spacing="0" style="line-height:0%;-inkscape-font-specification:STJTBZ;text-align:start" transform="matrix(.24742 0 0 .30927 651.18358 285.14677)" word-spacing="0" />
    <path fill="#fff" d="M744.38149 467.0673c.88396.00001 1.61923.42595 2.2058 1.27782.58657.85188.87985 2.00591.87986 3.4621-.00001 1.45619-.27678 2.6103-.83032 3.46233-.55355.85205-1.31151 1.27806-2.27387 1.27806-.96237 0-1.72449-.42089-2.28635-1.26269-.56187-.84179-.8428-1.9933-.8428-3.45454 0-1.46123.28093-2.62038.8428-3.47747.56186-.85707 1.33016-1.2856 2.30488-1.28561zm.0745 7.65222c.46265 0 .83857-.27363 1.12777-.8209.28918-.54728.43378-1.2831.43378-2.20746 0-.92436-.13224-1.62149-.39672-2.0914-.26448-.46989-.68176-.70484-1.25182-.70485-1.11516.00001-1.67273.9811-1.67273 2.94327 0 .9294.15077 1.64198.45232 2.13773.30154.49575.73734.74361 1.3074.74361zm9.23602-3.40796c.26448.32019.45458.64552.57031.97595.11572.33045.17358.73836.17359 1.2237-.00001.85724-.26852 1.56988-.80554 2.13796-.53704.56807-1.20215.85211-1.99534.85211-.79319 0-1.41904-.14719-1.87753-.44153-.4585-.29436-.78897-.70746-.99142-1.23929-.20247-.53183-.30369-1.00433-.30369-1.4175 0-.78475.26448-1.48692.79344-2.10654-.35524-.51653-.53287-1.0742-.53287-1.67301 0-.81595.26846-1.45367.80536-1.91319.5369-.45948 1.20812-.68922 2.01368-.68924.80554.00002 1.45414.23749 1.94579.71241.49164.47495.73746 1.1152.73747 1.92075-.00001.65081-.17775 1.20327-.53325 1.65742zm-2.13148-.94501c.3802 0 .67563-.067.88629-.20114.21065-.13409.31597-.31224.31597-.53445 0-.22217-.10949-.40811-.32846-.55783-.21897-.14969-.52877-.22454-.9294-.22455-.40063.00001-.71869.0698-.95417.2092-.23549.13946-.35323.32541-.35323.55782 0 .23244.11774.41572.35323.54981.23548.13411.57207.20114 1.00977.20114zm-.0121 4.33786c.47072 0 .83-.10849 1.07785-.32549.24784-.21699.37175-.5319.37175-.94476 0-.79547-.49568-1.1932-1.48704-1.19321-.49568.00001-.87779.10591-1.14629.31769-.26852.21179-.40277.50867-.40277.89065 0 .83674.52883 1.25512 1.5865 1.25512z" font-family="STJTBZ" font-size="50.0879" font-weight="400" letter-spacing="0" style="line-height:0%;-inkscape-font-specification:STJTBZ;text-align:start" word-spacing="0" />
  </g>
</svg>
