<?xml version="1.0" encoding="UTF-8"?>
<svg xmlns="http://www.w3.org/2000/svg" xmlns:ns1="http://sodipodi.sourceforge.net/DTD/sodipodi-0.dtd" viewBox="0 0 133.90021 171.271" height="171.271" width="133.90021" id="svg3873" version="1.1">
  <defs id="defs3877">
    <pattern id="EMFhbasepattern" patternUnits="userSpaceOnUse" width="6" height="6" x="0" y="0" />
  </defs>
  <ns1:namedview showguides="false" showgrid="false" id="namedview3875" guidetolerance="10" gridtolerance="10" objecttolerance="10" borderopacity="1" bordercolor="#666666" pagecolor="#ffffff" />
  <g transform="translate(-9.3125,-3.95638)" id="g3881">
    <path id="path81" d="M 17.318369,5.1187786 H 135.20628 c 3.7913,0 6.84351,3.0522035 6.84351,6.8435134 V 167.2223 c 0,3.7913 -3.05221,6.8435 -6.84351,6.8435 H 17.318369 c -3.791304,0 -6.843505,-3.0522 -6.843505,-6.8435 V 11.962292 c 0,-3.7913099 3.052201,-6.8435134 6.843505,-6.8435134 z" style="color:#000000;font-style:normal;font-variant:normal;font-weight:normal;font-stretch:normal;font-size:medium;line-height:normal;font-family:sans-serif;font-variant-ligatures:normal;font-variant-position:normal;font-variant-caps:normal;font-variant-numeric:normal;font-variant-alternates:normal;font-variant-east-asian:normal;font-feature-settings:normal;font-variation-settings:normal;text-indent:0;text-align:start;text-decoration:none;text-decoration-line:none;text-decoration-style:solid;text-decoration-color:#000000;letter-spacing:normal;word-spacing:normal;text-transform:none;writing-mode:lr-tb;direction:ltr;text-orientation:mixed;dominant-baseline:auto;baseline-shift:baseline;text-anchor:start;white-space:normal;shape-padding:0;shape-margin:0;inline-size:0;clip-rule:nonzero;display:inline;overflow:visible;visibility:visible;opacity:1;isolation:auto;mix-blend-mode:normal;color-interpolation:sRGB;color-interpolation-filters:linearRGB;solid-color:#000000;solid-opacity:1;vector-effect:none;fill:#ffffff;fill-opacity:1;fill-rule:nonzero;stroke:none;stroke-width:2.01773;stroke-linecap:butt;stroke-linejoin:miter;stroke-miterlimit:4;stroke-dasharray:none;stroke-dashoffset:0;stroke-opacity:1;color-rendering:auto;image-rendering:auto;shape-rendering:auto;text-rendering:auto;enable-background:accumulate;stop-color:#000000;stop-opacity:1" />
    <path id="path83" d="M 17.317758,4.10988 C 12.984992,4.10988 9.466,7.6288657 9.466,11.96164 v 155.26048 c 0,4.33276 3.518992,7.85176 7.851758,7.85176 H 135.20578 c 4.33275,0 7.85342,-3.519 7.85342,-7.85176 V 11.96164 c 0,-4.3327743 -3.52067,-7.85176 -7.85342,-7.85176 z m 0,2.0178729 H 135.20578 c 3.24983,0 5.83554,2.5840338 5.83556,5.8338871 v 155.26048 c 0,3.24984 -2.58573,5.83556 -5.83556,5.83557 H 17.317758 c -3.249846,0 -5.833886,-2.58573 -5.833886,-5.83557 V 11.96164 c 0,-3.2498533 2.58404,-5.8338871 5.833886,-5.8338871 z" style="color:#000000;font-style:normal;font-variant:normal;font-weight:normal;font-stretch:normal;font-size:medium;line-height:normal;font-family:sans-serif;font-variant-ligatures:normal;font-variant-position:normal;font-variant-caps:normal;font-variant-numeric:normal;font-variant-alternates:normal;font-variant-east-asian:normal;font-feature-settings:normal;font-variation-settings:normal;text-indent:0;text-align:start;text-decoration:none;text-decoration-line:none;text-decoration-style:solid;text-decoration-color:#000000;letter-spacing:normal;word-spacing:normal;text-transform:none;writing-mode:lr-tb;direction:ltr;text-orientation:mixed;dominant-baseline:auto;baseline-shift:baseline;text-anchor:start;white-space:normal;shape-padding:0;shape-margin:0;inline-size:0;clip-rule:nonzero;display:inline;overflow:visible;visibility:visible;opacity:1;isolation:auto;mix-blend-mode:normal;color-interpolation:sRGB;color-interpolation-filters:linearRGB;solid-color:#000000;solid-opacity:1;vector-effect:none;fill:#1b4833;fill-opacity:1;fill-rule:nonzero;stroke:none;stroke-width:0.307;stroke-linecap:butt;stroke-linejoin:miter;stroke-miterlimit:4;stroke-dasharray:none;stroke-dashoffset:0;stroke-opacity:1;color-rendering:auto;image-rendering:auto;shape-rendering:auto;text-rendering:auto;enable-background:accumulate;stop-color:#000000;stop-opacity:1" />
    <path d="m 17.314453,8.1894531 c -2.082097,0 -3.759766,1.6891666 -3.759765,3.7792969 V 124.5293 H 138.9707 V 11.96875 c 0,-2.0901303 -1.67574,-3.7792969 -3.75781,-3.7792969 z" style="color:#000000;font-style:normal;font-variant:normal;font-weight:normal;font-stretch:normal;font-size:medium;line-height:normal;font-family:sans-serif;font-variant-ligatures:normal;font-variant-position:normal;font-variant-caps:normal;font-variant-numeric:normal;font-variant-alternates:normal;font-variant-east-asian:normal;font-feature-settings:normal;font-variation-settings:normal;text-indent:0;text-align:start;text-decoration:none;text-decoration-line:none;text-decoration-style:solid;text-decoration-color:#000000;letter-spacing:normal;word-spacing:normal;text-transform:none;writing-mode:lr-tb;direction:ltr;text-orientation:mixed;dominant-baseline:auto;baseline-shift:baseline;text-anchor:start;white-space:normal;shape-padding:0;shape-margin:0;inline-size:0;clip-rule:nonzero;display:inline;overflow:visible;visibility:visible;opacity:1;isolation:auto;mix-blend-mode:normal;color-interpolation:sRGB;color-interpolation-filters:linearRGB;solid-color:#000000;solid-opacity:1;vector-effect:none;fill:#c0111e;fill-opacity:1;fill-rule:nonzero;stroke:none;stroke-width:2.01773;stroke-linecap:butt;stroke-linejoin:miter;stroke-miterlimit:4;stroke-dasharray:none;stroke-dashoffset:0;stroke-opacity:1;color-rendering:auto;image-rendering:auto;shape-rendering:auto;text-rendering:auto;enable-background:accumulate;stop-color:#000000;stop-opacity:1" id="path75" />
    <path d="M 51.697266,8.1894531 V 124.5293 H 138.9707 V 11.96875 c 0,-2.0901303 -1.67574,-3.7792969 -3.75781,-3.7792969 z" style="color:#000000;font-style:normal;font-variant:normal;font-weight:normal;font-stretch:normal;font-size:medium;line-height:normal;font-family:sans-serif;font-variant-ligatures:normal;font-variant-position:normal;font-variant-caps:normal;font-variant-numeric:normal;font-variant-alternates:normal;font-variant-east-asian:normal;font-feature-settings:normal;font-variation-settings:normal;text-indent:0;text-align:start;text-decoration:none;text-decoration-line:none;text-decoration-style:solid;text-decoration-color:#000000;letter-spacing:normal;word-spacing:normal;text-transform:none;writing-mode:lr-tb;direction:ltr;text-orientation:mixed;dominant-baseline:auto;baseline-shift:baseline;text-anchor:start;white-space:normal;shape-padding:0;shape-margin:0;inline-size:0;clip-rule:nonzero;display:inline;overflow:visible;visibility:visible;opacity:1;isolation:auto;mix-blend-mode:normal;color-interpolation:sRGB;color-interpolation-filters:linearRGB;solid-color:#000000;solid-opacity:1;vector-effect:none;fill:#1b4833;fill-opacity:1;fill-rule:nonzero;stroke:none;stroke-width:2.01773;stroke-linecap:butt;stroke-linejoin:miter;stroke-miterlimit:4;stroke-dasharray:none;stroke-dashoffset:0;stroke-opacity:1;color-rendering:auto;image-rendering:auto;shape-rendering:auto;text-rendering:auto;enable-background:accumulate;stop-color:#000000;stop-opacity:1" id="path3934" />
    <path d="m 43.119894,38.414604 v 4.270451 h 15.944125 v -4.270451 z m 10.080719,8.37525 v 14.316798 l 19.284231,5.775889 V 52.565749 Z" style="opacity:1;fill:#ffffff;stroke-width:0.266708" id="rect3902" />
    <path d="m 76.920903,80.449968 c 0,0 2.365632,3.662401 5.972945,6.712157 3.154004,2.666494 7.366783,4.67291 10.334995,5.878023 4.441486,1.803267 9.627317,0.511774 14.287607,1.634386 2.74462,0.661145 5.21797,2.189789 7.9298,2.974622 7.69275,2.226344 23.52445,4.880144 23.52445,4.880144 V 88.76456 c 0,0 -10.14675,-0.800165 -15.10381,-1.880883 -3.31576,-0.722887 -9.70976,-3.061356 -9.70976,-3.061356 0,0 -1.74652,-0.634378 -2.4371,-1.278684 -4.15721,-3.878589 -8.61012,-7.930408 -13.004638,-12.046446 -0.961108,-0.900199 -3.964704,-1.840116 -3.93825,-0.311293 0.01607,0.928141 0.775701,2.810185 1.880627,4.503813 1.503334,2.304304 3.472631,4.383529 3.472631,4.383529 -1.051487,0.698704 -1.712259,2.098948 -4.004245,1.915842 -5.060788,-0.404304 -9.450552,-3.727623 -14.062877,-5.975461 -0.899368,-0.400608 -2.331953,-0.533388 -3.047369,-0.02626 -0.642773,0.50034 0.294853,1.86064 0.940823,2.39988 0,0 7.921567,5.850596 11.566906,8.400132 0.23425,0.163823 0.513304,0.572659 0.329615,0.79169 -0.168724,0.201178 -0.546022,-0.03252 -0.768814,-0.171481 -3.973185,-2.478039 -11.582214,-7.944046 -11.582214,-7.944046 -0.671761,-0.804626 -2.685444,-1.299395 -3.404219,-0.41072 -0.531281,0.656864 0.142773,1.433419 0.822897,2.397164 z" style="opacity:1;fill:#ffff00;fill-opacity:1;stroke-width:0.269606" id="rect3898" />
    <g id="g308" style="opacity:1;fill:#1b4833;fill-opacity:1" transform="matrix(2.3253533,0,0,2.3253533,-194.38987,-73.617587)">
      <g style="fill:#1b4833;fill-opacity:1" transform="translate(93.599998,99)" id="use306">
        <path style="fill:#1b4833;fill-opacity:1;stroke:none" d="M 3.625,-7.171875 H 5.953125 C 5.921875,-7.398438 5.851563,-7.628906 5.75,-7.859375 L 7.28125,-8.09375 c 0.070313,0.304687 0.125,0.609375 0.15625,0.921875 h 2.390625 v 1 H 3.625 Z M 2.109375,-8 c 0.863281,0.167969 1.332031,0.261719 1.40625,0.28125 0.082031,0.023437 0.125,0.058594 0.125,0.109375 0,0.054687 -0.042969,0.140625 -0.125,0.265625 -0.085937,0.117187 -0.179687,0.324219 -0.28125,0.625 l -0.3125,0.875 C 2.828125,-5.5625 2.78125,-5.351563 2.78125,-5.21875 V 1.734375 H 1.59375 V -3.03125 C 1.425781,-2.757813 1.226563,-2.484375 1,-2.203125 0.75,-2.472656 0.460938,-2.726563 0.140625,-2.96875 1.128906,-4.15625 1.785156,-5.832031 2.109375,-8 Z m 6.96875,4.453125 h -5.0625 V -5.78125 h 5.0625 z m -1.25,-0.890625 V -4.90625 H 5.234375 V -4.4375 Z M 10.0625,-1.125 H 8.84375 v -1 H 4.375 v 1 H 3.25 v -1.984375 h 6.8125 z M 6.125,-0.671875 H 4.6875 V -1.65625 h 3.84375 v 0.984375 H 7.359375 v 1.21875 c 0,0.34375 -0.046875,0.59375 -0.140625,0.75 C 7.125,1.460938 6.941406,1.582031 6.671875,1.65625 6.410156,1.738281 6.003906,1.796875 5.453125,1.828125 5.398438,1.378906 5.25,0.957031 5,0.5625 5.375,0.625 5.632813,0.65625 5.78125,0.65625 5.925781,0.65625 6.019531,0.628906 6.0625,0.578125 6.101563,0.523438 6.125,0.4375 6.125,0.3125 Z m 0,0" id="path889" />
      </g>
    </g>
    <g id="g312" style="opacity:1;fill:#1b4833;fill-opacity:1" transform="matrix(2.3253533,0,0,2.3253533,-194.38987,-73.617587)">
      <g style="fill:#1b4833;fill-opacity:1" transform="translate(103.95795,99)" id="use310">
        <path style="fill:#1b4833;fill-opacity:1;stroke:none" d="m 4.5872429,-5.578125 h -2.265625 v -1.15625 h 2.8125 c 0.1875,-0.425781 0.359375,-0.878906 0.515625,-1.359375 0.394531,0.09375 0.75,0.183594 1.0625,0.265625 0.320313,0.085937 0.5,0.136719 0.53125,0.15625 0.039063,0.023437 0.0625,0.0625 0.0625,0.125 0,0.054687 -0.0625,0.132812 -0.1875,0.234375 -0.117187,0.09375 -0.257812,0.289062 -0.421875,0.578125 h 4.1562501 v 1.15625 H 6.0559929 c -0.34375,0.605469 -0.75,1.214844 -1.21875,1.828125 h 1.5625 v -1.40625 h 1.1875 c 0.25,0 0.375,0.058594 0.375,0.171875 0,0.054687 -0.027344,0.132812 -0.078125,0.234375 -0.054687,0.105469 -0.078125,0.4375 -0.078125,1 h 2.5625011 v 1.15625 H 7.8059929 v 1.125 h 3.5156251 v 1.109375 H 7.8059929 v 2.09375 h -1.40625 v -2.09375 h -4.4375 V -1.46875 h 4.4375 v -1.125 c -1.460937,0 -2.546875,0.0625 -3.265625,0.1875 -0.105469,-0.4375 -0.1875,-0.867188 -0.25,-1.296875 0.351563,-0.113281 0.648438,-0.304688 0.890625,-0.578125 0.25,-0.269531 0.519531,-0.703125 0.8125,-1.296875 z m 0,0" id="path893" />
      </g>
    </g>
    <g id="g316" style="opacity:1;fill:#1b4833;fill-opacity:1" transform="matrix(2.3253533,0,0,2.3253533,-194.38987,-73.617587)">
      <g style="fill:#1b4833;fill-opacity:1" transform="translate(114.21233,99)" id="use314">
        <path style="fill:#1b4833;fill-opacity:1;stroke:none" d="m 8.9355539,-6.453125 h -1.796875 v -1.15625 h 4.9218721 v 1.15625 h -1.843748 c -0.04297,0.335937 -0.09375,0.648437 -0.156249,0.9375 h 1.671872 v 4.875 h -1.062499 c 0.488281,0.417969 1.031249,0.90625 1.624999,1.46875 l -1.109374,0.78125 c -0.492187,-0.699219 -1.015623,-1.28125 -1.5781231,-1.75 l 0.8437481,-0.6875 c 0.01953,0.03125 0.05078,0.058594 0.09375,0.078125 V -4.34375 H 8.4668039 v 3.796875 h -1.09375 V -4.90625 l -0.640625,0.5 C 6.2832099,-4.988281 5.7558669,-5.539063 5.1543039,-6.0625 4.6113349,-5.101563 3.9394599,-4.253906 3.1386789,-3.515625 2.7832099,-3.835938 2.4589919,-4.082031 2.1699288,-4.25 2.7207099,-4.707031 3.2089919,-5.273438 3.6386789,-5.953125 4.0644599,-6.628906 4.3652419,-7.3125 4.5449289,-8 c 0.820313,0.21875 1.28125,0.34375 1.375,0.375 0.09375,0.03125 0.140625,0.074219 0.140625,0.125 0,0.054687 -0.042969,0.117187 -0.125,0.1875 -0.074219,0.074219 -0.152344,0.164062 -0.234375,0.265625 0.5625,0.46875 1.148438,0.980469 1.765625,1.53125 h 1.359375 c 0.0625,-0.40625 0.097656,-0.71875 0.109375,-0.9375 z m -2.859375,2.734375 -1.171875,0.375 c -0.179687,-0.507813 -0.375,-0.945313 -0.59375,-1.3125 l 1.09375,-0.46875 c 0.21875,0.375 0.441406,0.84375 0.671875,1.40625 z m 0.5625,4.296875 c 0.53125,-0.167969 0.960938,-0.367187 1.296875,-0.59375 0.34375,-0.226563 0.597656,-0.546875 0.765625,-0.953125 0.164063,-0.40625 0.25,-1.066406 0.25,-1.984375 v -1.0625 h 1.015625 c 0.1562501,0 0.2343741,0.046875 0.2343741,0.140625 0,0.042969 -0.02344,0.117187 -0.0625,0.21875 -0.03125,0.105469 -0.04687,0.28125 -0.04687,0.53125 v 0.796875 c 0,1.042969 -0.2343742,1.859375 -0.7031242,2.453125 -0.460937,0.601563 -1.1875,1.140625 -2.1875,1.609375 -0.1875,-0.292969 -0.449219,-0.589844 -0.78125,-0.890625 L 5.6855539,1.4375 C 4.7675849,0.53125 3.8964919,-0.164063 3.0761789,-0.65625 l 0.8125,-0.890625 0.90625,0.65625 c 0.289063,-0.375 0.546875,-0.800781 0.765625,-1.28125 h -2.5625 V -3.25 h 4.3125 c -0.386719,1.03125 -0.914062,2.054687 -1.578125,3.0625 0.332031,0.2578125 0.632813,0.515625 0.90625,0.765625 z m 0,0" id="path897" />
      </g>
    </g>
    <g id="g320" style="opacity:1;fill:#1b4833;fill-opacity:1" transform="matrix(2.3253533,0,0,2.3253533,-194.38987,-73.617587)">
      <g style="fill:#1b4833;fill-opacity:1" transform="translate(124.67385,99)" id="use318">
        <path style="fill:#1b4833;fill-opacity:1;stroke:none" d="m 8.6979853,-5.484375 v 1.3125 h 4.4218677 v 1.1875 H 8.5417353 V 1.78125 h -1.375 v -4.765625 h -3.515625 v -1.1875 h 3.671875 V -7.9375 h 1.25 c 0.175781,0 0.265625,0.046875 0.265625,0.140625 0,0.042969 -0.027344,0.121094 -0.078125,0.234375 -0.042969,0.117187 -0.0625,0.414062 -0.0625,0.890625 h 3.4218687 v 1.1875 z m 3.7499927,4.9375 -1.187498,0.90625 C 10.498765,-0.585938 9.7604853,-1.332031 9.0417353,-1.875 L 10.02611,-2.71875 c 0.863278,0.667969 1.671869,1.390625 2.421868,2.171875 z m 0,0" id="path901" />
      </g>
    </g>
  </g>
</svg>
