<?xml version="1.0" encoding="UTF-8"?>
<svg xmlns="http://www.w3.org/2000/svg" xmlns:ns1="http://sodipodi.sourceforge.net/DTD/sodipodi-0.dtd" viewBox="0 0 88.091476 112.489" height="112.489" width="88.091476" id="svg938" version="1.1">
  <defs id="defs942" />
  <ns1:namedview showguides="true" showgrid="false" id="namedview940" guidetolerance="10" gridtolerance="10" objecttolerance="10" borderopacity="1" bordercolor="#666666" pagecolor="#ffffff" height="103.08702px">
    <ns1:guide id="guide1959" orientation="1,0" position="-253.53612,3.4738047" />
  </ns1:namedview>
  <g transform="translate(-7.66753,-1.6226066)" id="g946">
    <path style="color:#000000;font-style:normal;font-variant:normal;font-weight:normal;font-stretch:normal;font-size:medium;line-height:normal;font-family:sans-serif;font-variant-ligatures:normal;font-variant-position:normal;font-variant-caps:normal;font-variant-numeric:normal;font-variant-alternates:normal;font-variant-east-asian:normal;font-feature-settings:normal;font-variation-settings:normal;text-indent:0;text-align:start;text-decoration:none;text-decoration-line:none;text-decoration-style:solid;text-decoration-color:#000000;letter-spacing:normal;word-spacing:normal;text-transform:none;writing-mode:lr-tb;direction:ltr;text-orientation:mixed;dominant-baseline:auto;baseline-shift:baseline;text-anchor:start;white-space:normal;shape-padding:0;shape-margin:0;inline-size:0;clip-rule:nonzero;display:inline;overflow:visible;visibility:visible;opacity:1;isolation:auto;mix-blend-mode:normal;color-interpolation:sRGB;color-interpolation-filters:linearRGB;solid-color:#000000;solid-opacity:1;vector-effect:none;fill:#ffffff;fill-opacity:1;fill-rule:nonzero;stroke:none;stroke-width:1.71562;stroke-linecap:butt;stroke-linejoin:miter;stroke-miterlimit:4;stroke-dasharray:none;stroke-dashoffset:0;stroke-opacity:1;color-rendering:auto;image-rendering:auto;shape-rendering:auto;text-rendering:auto;enable-background:accumulate;stop-color:#000000;stop-opacity:1" d="m 94.759502,8.4408459 c 0,-3.223658 -2.596009,-5.8196668 -5.819668,-5.8196668 h -74.45406 c -3.223656,0 -5.819665,2.5960088 -5.819665,5.8196668 V 107.29226 c 0,3.22366 2.596009,5.81967 5.819665,5.81967 h 74.45406 c 3.223659,0 5.819668,-2.59601 5.819668,-5.81967 z" id="path11391" />
    <path style="color:#000000;font-style:normal;font-variant:normal;font-weight:normal;font-stretch:normal;font-size:medium;line-height:normal;font-family:sans-serif;font-variant-ligatures:normal;font-variant-position:normal;font-variant-caps:normal;font-variant-numeric:normal;font-variant-alternates:normal;font-variant-east-asian:normal;font-feature-settings:normal;font-variation-settings:normal;text-indent:0;text-align:start;text-decoration:none;text-decoration-line:none;text-decoration-style:solid;text-decoration-color:#000000;letter-spacing:normal;word-spacing:normal;text-transform:none;writing-mode:lr-tb;direction:ltr;text-orientation:mixed;dominant-baseline:auto;baseline-shift:baseline;text-anchor:start;white-space:normal;shape-padding:0;shape-margin:0;inline-size:0;clip-rule:nonzero;display:inline;overflow:visible;visibility:visible;opacity:1;isolation:auto;mix-blend-mode:normal;color-interpolation:sRGB;color-interpolation-filters:linearRGB;solid-color:#000000;solid-opacity:1;vector-effect:none;fill:#253898;fill-opacity:1;fill-rule:nonzero;stroke:none;stroke-width:0.28294;stroke-linecap:butt;stroke-linejoin:miter;stroke-miterlimit:4;stroke-dasharray:none;stroke-dashoffset:0;stroke-opacity:1;color-rendering:auto;image-rendering:auto;shape-rendering:auto;text-rendering:auto;enable-background:accumulate;stop-color:#000000;stop-opacity:1" d="m 95.617072,8.4408496 c 0,-3.684188 -2.99305,-6.677243 -6.677241,-6.677243 H 14.485772 c -3.684187,0 -6.677242,2.993055 -6.677242,6.677243 V 107.29226 c 0,3.6842 2.993055,6.67725 6.677242,6.67725 h 74.454059 c 3.684191,0 6.677241,-2.99305 6.677241,-6.67725 z m -1.71515,0 V 107.29226 c 0,2.76314 -2.198961,4.9621 -4.962091,4.9621 H 14.485772 c -2.763125,0 -4.962088,-2.19896 -4.962088,-4.9621 V 8.4408496 c 0,-2.763128 2.198963,-4.96209 4.962088,-4.96209 h 74.454059 c 2.763129,0 4.962091,2.198963 4.962091,4.96209 z" id="path11393" />
    <path id="path11374" style="color:#000000;font-style:normal;font-variant:normal;font-weight:normal;font-stretch:normal;font-size:medium;line-height:normal;font-family:sans-serif;font-variant-ligatures:normal;font-variant-position:normal;font-variant-caps:normal;font-variant-numeric:normal;font-variant-alternates:normal;font-variant-east-asian:normal;font-feature-settings:normal;font-variation-settings:normal;text-indent:0;text-align:start;text-decoration:none;text-decoration-line:none;text-decoration-style:solid;text-decoration-color:#000000;letter-spacing:normal;word-spacing:normal;text-transform:none;writing-mode:lr-tb;direction:ltr;text-orientation:mixed;dominant-baseline:auto;baseline-shift:baseline;text-anchor:start;white-space:normal;shape-padding:0;shape-margin:0;inline-size:0;clip-rule:nonzero;display:inline;overflow:visible;visibility:visible;opacity:1;isolation:auto;mix-blend-mode:normal;color-interpolation:sRGB;color-interpolation-filters:linearRGB;solid-color:#000000;solid-opacity:1;vector-effect:none;fill:#253898;fill-opacity:1;fill-rule:nonzero;stroke:none;stroke-width:1.71562;stroke-linecap:butt;stroke-linejoin:miter;stroke-miterlimit:4;stroke-dasharray:none;stroke-dashoffset:0;stroke-opacity:1;color-rendering:auto;image-rendering:auto;shape-rendering:auto;text-rendering:auto;enable-background:accumulate;stop-color:#000000;stop-opacity:1" d="M 84.476562,46.855469 22.46875,108.86523 h 58.794922 c 1.777093,0 3.212891,-1.42498 3.21289,-3.19531 z" transform="translate(7.66753,1.6226066)" />
    <path id="path5160" style="color:#000000;font-style:normal;font-variant:normal;font-weight:normal;font-stretch:normal;font-size:medium;line-height:normal;font-family:sans-serif;font-variant-ligatures:normal;font-variant-position:normal;font-variant-caps:normal;font-variant-numeric:normal;font-variant-alternates:normal;font-variant-east-asian:normal;font-feature-settings:normal;font-variation-settings:normal;text-indent:0;text-align:start;text-decoration:none;text-decoration-line:none;text-decoration-style:solid;text-decoration-color:#000000;letter-spacing:normal;word-spacing:normal;text-transform:none;writing-mode:lr-tb;direction:ltr;text-orientation:mixed;dominant-baseline:auto;baseline-shift:baseline;text-anchor:start;white-space:normal;shape-padding:0;shape-margin:0;inline-size:0;clip-rule:nonzero;display:inline;overflow:visible;visibility:visible;opacity:1;isolation:auto;mix-blend-mode:normal;color-interpolation:sRGB;color-interpolation-filters:linearRGB;solid-color:#000000;solid-opacity:1;vector-effect:none;fill:#253898;fill-opacity:1;fill-rule:nonzero;stroke:none;stroke-width:1.71562;stroke-linecap:butt;stroke-linejoin:miter;stroke-miterlimit:4;stroke-dasharray:none;stroke-dashoffset:0;stroke-opacity:1;color-rendering:auto;image-rendering:auto;shape-rendering:auto;text-rendering:auto;enable-background:accumulate;stop-color:#000000;stop-opacity:1" d="m 3.6152344,102.07031 v 3.59961 c 0,1.77169 1.4236235,3.19531 3.1953125,3.19531 H 20.974609 L 84.476562,45.363281 V 34.589844 H 79.033203 V 45.837891 H 66.464844 V 57.083984 H 53.894531 v 11.246094 0.002 h -0.002 -12.568359 v 11.246094 0.002 h -0.002 -12.566407 V 90.824219 H 16.185547 v 11.246091 z" transform="translate(7.66753,1.6226066)" />
    <path id="path5836" style="color:#000000;font-style:normal;font-variant:normal;font-weight:normal;font-stretch:normal;font-size:medium;line-height:normal;font-family:sans-serif;font-variant-ligatures:normal;font-variant-position:normal;font-variant-caps:normal;font-variant-numeric:normal;font-variant-alternates:normal;font-variant-east-asian:normal;font-feature-settings:normal;font-variation-settings:normal;text-indent:0;text-align:start;text-decoration:none;text-decoration-line:none;text-decoration-style:solid;text-decoration-color:#000000;letter-spacing:normal;word-spacing:normal;text-transform:none;writing-mode:lr-tb;direction:ltr;text-orientation:mixed;dominant-baseline:auto;baseline-shift:baseline;text-anchor:start;white-space:normal;shape-padding:0;shape-margin:0;inline-size:0;clip-rule:nonzero;display:inline;overflow:visible;visibility:visible;opacity:1;isolation:auto;mix-blend-mode:normal;color-interpolation:sRGB;color-interpolation-filters:linearRGB;solid-color:#000000;solid-opacity:1;vector-effect:none;fill:#253898;fill-opacity:1;fill-rule:nonzero;stroke:none;stroke-width:1.71562;stroke-linecap:butt;stroke-linejoin:miter;stroke-miterlimit:4;stroke-dasharray:none;stroke-dashoffset:0;stroke-opacity:1;color-rendering:auto;image-rendering:auto;shape-rendering:auto;text-rendering:auto;enable-background:accumulate;stop-color:#000000;stop-opacity:1" d="M 42.353516,3.6132812 H 6.8105469 c -1.771689,0 -3.1953125,1.4236205 -3.1953125,3.1953126 V 42.351562 Z" transform="translate(7.66753,1.6226066)" />
    <g style="opacity:1" id="g1245" />
    <path id="path4364-2" style="display:inline;fill:#253898;fill-opacity:1;fill-rule:nonzero;stroke:none;stroke-width:0.219672" d="m 45.654549,17.299607 c -2.412143,-2.61e-4 -4.367449,1.955046 -4.36719,4.367189 -2.6e-4,2.412142 1.955047,4.367449 4.36719,4.367189 2.412143,2.6e-4 4.367449,-1.955047 4.367189,-4.367189 2.6e-4,-2.412143 -1.955046,-4.36745 -4.367189,-4.367189 z m 0,11.01188 c -2.666968,0 -4.813991,2.149005 -4.813991,4.815968 1.1e-5,-0.0051 -1e-6,2.218289 0,3.596159 l -6.591312,6.419313 c -0.751713,0.835085 -0.728837,2.125831 0.02966,2.890372 0.833025,0.7521 2.123541,0.726504 2.947704,-0.120597 l 3.613953,-3.465678 4.73e-4,32.889563 c 0,1.495729 1.195365,2.617545 2.61557,2.617545 1.346776,0 2.542467,-1.121811 2.542419,-2.617545 l -4.74e-4,-14.732812 7.243721,7.243722 c 1.057644,1.057643 2.697226,1.005693 3.649539,0.05337 1.004218,-1.004236 1.055664,-2.643301 -0.002,-3.70094 L 45.998546,53.308652 50.468539,48.838659 V 33.127455 c 0,-2.666963 -2.147021,-4.815968 -4.81399,-4.815968 z" />
  </g>
</svg>
