<?xml version="1.0" encoding="UTF-8"?>
<svg xmlns="http://www.w3.org/2000/svg" xmlns:ns1="http://sodipodi.sourceforge.net/DTD/sodipodi-0.dtd" version="1.1" id="svg4003" width="142.83258" height="171.01672" viewBox="0 0 142.83258 171.01672">
  <defs id="defs4007" />
  <ns1:namedview pagecolor="#ffffff" bordercolor="#666666" borderopacity="1" objecttolerance="10" gridtolerance="10" guidetolerance="10" id="namedview4005" showgrid="false" showguides="false" />
  <g id="g4011" transform="translate(-5.4439279,-2.6150604)">
    <path style="color:#000000;font-style:normal;font-variant:normal;font-weight:normal;font-stretch:normal;font-size:medium;line-height:normal;font-family:sans-serif;font-variant-ligatures:normal;font-variant-position:normal;font-variant-caps:normal;font-variant-numeric:normal;font-variant-alternates:normal;font-variant-east-asian:normal;font-feature-settings:normal;font-variation-settings:normal;text-indent:0;text-align:start;text-decoration:none;text-decoration-line:none;text-decoration-style:solid;text-decoration-color:#000000;letter-spacing:normal;word-spacing:normal;text-transform:none;writing-mode:lr-tb;direction:ltr;text-orientation:mixed;dominant-baseline:auto;baseline-shift:baseline;text-anchor:start;white-space:normal;shape-padding:0;shape-margin:0;inline-size:0;clip-rule:nonzero;display:inline;overflow:visible;visibility:visible;opacity:1;isolation:auto;mix-blend-mode:normal;color-interpolation:sRGB;color-interpolation-filters:linearRGB;solid-color:#000000;solid-opacity:1;vector-effect:none;fill:#245041;fill-opacity:1;fill-rule:nonzero;stroke:none;stroke-width:0.5;stroke-linecap:butt;stroke-linejoin:miter;stroke-miterlimit:4;stroke-dasharray:none;stroke-dashoffset:0;stroke-opacity:1;color-rendering:auto;image-rendering:auto;shape-rendering:auto;text-rendering:auto;enable-background:accumulate;stop-color:#000000;stop-opacity:1" d="m 17.991928,2.8650604 c -6.784967,0 -12.2975417,5.5105513 -12.2975621,12.2955046 l -4.38e-4,145.923655 c -2.03e-5,6.78497 5.5125951,12.29756 12.2975621,12.29756 h 117.73908 c 6.78495,0 12.29548,-5.51259 12.2955,-12.29756 l 4.4e-4,-145.923655 c 2e-5,-6.7849533 -5.51054,-12.2955046 -12.2955,-12.2955046 z" id="path6631" />
    <path id="path6633" style="color:#000000;font-style:normal;font-variant:normal;font-weight:normal;font-stretch:normal;font-size:medium;line-height:normal;font-family:sans-serif;font-variant-ligatures:normal;font-variant-position:normal;font-variant-caps:normal;font-variant-numeric:normal;font-variant-alternates:normal;font-variant-east-asian:normal;font-feature-settings:normal;font-variation-settings:normal;text-indent:0;text-align:start;text-decoration:none;text-decoration-line:none;text-decoration-style:solid;text-decoration-color:#000000;letter-spacing:normal;word-spacing:normal;text-transform:none;writing-mode:lr-tb;direction:ltr;text-orientation:mixed;dominant-baseline:auto;baseline-shift:baseline;text-anchor:start;white-space:normal;shape-padding:0;shape-margin:0;inline-size:0;clip-rule:nonzero;display:inline;overflow:visible;visibility:visible;opacity:1;isolation:auto;mix-blend-mode:normal;color-interpolation:sRGB;color-interpolation-filters:linearRGB;solid-color:#000000;solid-opacity:1;vector-effect:none;fill:#ffffff;fill-opacity:1;fill-rule:nonzero;stroke:none;stroke-width:2.99692;stroke-linecap:butt;stroke-linejoin:miter;stroke-miterlimit:4;stroke-dasharray:none;stroke-dashoffset:0;stroke-opacity:1;color-rendering:auto;image-rendering:auto;shape-rendering:auto;text-rendering:auto;enable-background:accumulate;stop-color:#000000;stop-opacity:1" d="m 17.992076,6.023884 c -5.089146,0 -9.1366704,4.047547 -9.1366857,9.136691 l -4.38e-4,145.923655 c -1.52e-5,5.08914 4.0475397,9.13668 9.1366857,9.13668 H 135.73072 c 5.08914,0 9.13668,-4.04754 9.13669,-9.13668 l 4.4e-4,-145.923655 c 2e-5,-5.089144 -4.04755,-9.136691 -9.13669,-9.136691 z m -0.0063,3.2288312 H 135.73925 c 3.26043,0 5.88523,2.6452588 5.88522,5.9181498 l -4.4e-4,145.919535 c -1e-5,3.26296 -2.62227,5.88521 -5.88522,5.88521 H 17.985326 c -3.262954,0 -5.885221,-2.62225 -5.885211,-5.88521 l 4.38e-4,-145.919535 c 10e-6,-3.272891 2.62478,-5.9181498 5.885211,-5.9181498 z" />
    <path id="rect4576" style="opacity:1;fill:#ffffff;fill-opacity:1;fill-rule:evenodd;stroke-width:0.506457;stroke-linecap:round" d="M 70.671875,82.529297 65.917969,109.25 h 9.947265 V 82.529297 Z m 8.693359,0 V 109.25 H 89.3125 L 84.558594,82.529297 Z M 48.408203,110.57227 v 2.66601 h 5.652344 v 4.05078 h 2.558594 v -4.05078 h 41.740234 v 4.05078 h 2.560545 v -4.05078 h 5.38672 v -2.66601 z m 16.261484,4.13973 -7.997812,46.50675 H 75.865234 L 75.864999,114.712 Z m 14.695312,0 2.35e-4,46.50675 h 19.19336 L 90.560312,114.712 Z" />
    <g style="opacity:1" id="g11254">
      <path id="path11256" d="m 39.582031,16.886719 c -1.747748,0 -3.426643,0.447929 -4.615234,1.636719 -1.188591,1.188789 -1.636719,2.867691 -1.636719,4.615234 V 63.28125 c 0,1.747854 0.447973,3.426447 1.636719,4.615234 1.188746,1.188788 2.867638,1.636719 4.615234,1.636719 l 77.013669,0.0078 c 1.7476,0 3.42649,-0.447933 4.61524,-1.636719 1.18874,-1.188786 1.63672,-2.867378 1.63672,-4.615235 v -2.21875 -37.93164 c 0,-1.747587 -0.44805,-3.426478 -1.63672,-4.615234 -1.18868,-1.188757 -2.86742,-1.636719 -4.61524,-1.636719 z m 0,4.099609 H 116.5957 c 1.09189,0 1.51428,0.234965 1.7168,0.4375 0.20252,0.202535 0.43555,0.623092 0.43555,1.714844 v 40.15039 c 0,1.092415 -0.23328,1.514525 -0.43555,1.716797 -0.20227,0.202272 -0.62468,0.435547 -1.7168,0.435547 l -77.013669,-0.0078 c -1.092114,0 -1.514532,-0.233275 -1.716797,-0.435547 -0.202265,-0.202272 -0.435546,-0.624383 -0.435546,-1.716797 v -40.14259 c 0,-1.091797 0.233079,-1.512342 0.435546,-1.714844 0.202468,-0.202501 0.62502,-0.4375 1.716797,-0.4375 z" style="color:#000000;font-style:normal;font-variant:normal;font-weight:normal;font-stretch:normal;font-size:medium;line-height:normal;font-family:sans-serif;font-variant-ligatures:normal;font-variant-position:normal;font-variant-caps:normal;font-variant-numeric:normal;font-variant-alternates:normal;font-variant-east-asian:normal;font-feature-settings:normal;font-variation-settings:normal;text-indent:0;text-align:start;text-decoration:none;text-decoration-line:none;text-decoration-style:solid;text-decoration-color:#000000;letter-spacing:normal;word-spacing:normal;text-transform:none;writing-mode:lr-tb;direction:ltr;text-orientation:mixed;dominant-baseline:auto;baseline-shift:baseline;text-anchor:start;white-space:normal;shape-padding:0;shape-margin:0;inline-size:0;clip-rule:nonzero;display:inline;overflow:visible;visibility:visible;isolation:auto;mix-blend-mode:normal;color-interpolation:sRGB;color-interpolation-filters:linearRGB;solid-color:#000000;solid-opacity:1;vector-effect:none;fill:#ffffff;fill-opacity:1;fill-rule:nonzero;stroke:none;stroke-width:4.1;stroke-linecap:butt;stroke-linejoin:miter;stroke-miterlimit:4;stroke-dasharray:none;stroke-dashoffset:0;stroke-opacity:1;paint-order:stroke fill markers;color-rendering:auto;image-rendering:auto;shape-rendering:auto;text-rendering:auto;enable-background:accumulate;stop-color:#000000;stop-opacity:1" />
      <path id="path11258" d="m 120.79788,63.288551 c 0,2.840271 -1.36217,4.202252 -4.20188,4.202252 l -77.013659,-0.0076 c -2.839711,0 -4.201877,-1.361985 -4.201877,-4.202253 l -1.89e-4,-40.141637 c 0,-2.839339 1.362355,-4.202251 4.201881,-4.202251 h 77.013284 c 2.83971,0 4.20225,1.362912 4.20225,4.202251 v 40.149253 z" style="color:#000000;font-style:normal;font-variant:normal;font-weight:normal;font-stretch:normal;font-size:medium;line-height:normal;font-family:sans-serif;font-variant-ligatures:normal;font-variant-position:normal;font-variant-caps:normal;font-variant-numeric:normal;font-variant-alternates:normal;font-variant-east-asian:normal;font-feature-settings:normal;font-variation-settings:normal;text-indent:0;text-align:start;text-decoration:none;text-decoration-line:none;text-decoration-style:solid;text-decoration-color:#000000;letter-spacing:normal;word-spacing:normal;text-transform:none;writing-mode:lr-tb;direction:ltr;text-orientation:mixed;dominant-baseline:auto;baseline-shift:baseline;text-anchor:start;white-space:normal;shape-padding:0;shape-margin:0;inline-size:0;clip-rule:nonzero;display:inline;overflow:visible;visibility:visible;isolation:auto;mix-blend-mode:normal;color-interpolation:sRGB;color-interpolation-filters:linearRGB;solid-color:#000000;solid-opacity:1;vector-effect:none;fill:#245041;fill-opacity:1;fill-rule:nonzero;stroke:none;stroke-width:4.1;stroke-linecap:butt;stroke-linejoin:miter;stroke-miterlimit:4;stroke-dasharray:none;stroke-dashoffset:0;stroke-opacity:1;paint-order:stroke fill markers;color-rendering:auto;image-rendering:auto;shape-rendering:auto;text-rendering:auto;enable-background:accumulate;stop-color:#000000;stop-opacity:1" />
    </g>
    <path id="path7344" d="M 35.380275,33.023201 V 23.13967 c 0,-2.840454 1.362355,-4.202623 4.201881,-4.202623 h 77.013284 c 2.84009,0 4.20225,1.362169 4.20225,4.202623 v 9.883531 z" fill="#ff0000" style="stroke-width:1" />
    <path id="path7346" d="m 49.162301,28.346085 v 0.290009 h -0.691117 v -5.027505 h 4.447486 v 4.982731 h -0.707837 v -0.245235 z m 3.048718,-0.590794 V 24.21053 h -3.048718 v 3.544761 z m -1.934013,-2.669532 h -0.958647 v -0.557352 h 2.692013 v 0.557352 h -1.053397 v 0.479323 h 0.9475 v 0.557352 h -0.345373 c 0.122432,0.181883 0.241519,0.371569 0.356706,0.5685 l -0.373612,0.156059 h 0.568685 v 0.574073 h -2.853644 v -0.574073 h 1.019954 V 26.12262 h -0.852749 v -0.557352 h 0.852749 v -0.479509 z m 1.220601,1.036675 h -0.540632 v 0.724373 h 0.356706 c -0.07803,-0.148627 -0.178353,-0.306358 -0.30097,-0.47375 z" fill="#ffffff" style="stroke-width:1" />
    <path id="path7348" d="m 68.162259,25.241818 h -0.897337 v -0.535245 h 2.976447 v 0.535245 h -1.097984 c -0.122617,0.09661 -0.254524,0.193029 -0.39572,0.289823 0.215509,0.197117 0.380857,0.420058 0.496044,0.669009 0.334411,-0.170922 0.676254,-0.423774 1.025714,-0.758 0.308216,0.219225 0.487683,0.351132 0.537845,0.395535 0.05035,0.04459 0.07524,0.08267 0.07524,0.114257 0,0.03158 -0.04552,0.05852 -0.136552,0.081 -0.09103,0.02211 -0.300041,0.122617 -0.627021,0.300784 0.141196,0.579833 0.520195,1.064544 1.136999,1.45469 -0.219411,0.141196 -0.421916,0.306544 -0.607514,0.496044 -0.520382,-0.419872 -0.863897,-0.977225 -1.031288,-1.672057 -0.0444,0.0262 -0.109613,0.06131 -0.195073,0.105896 0.06688,0.319735 0.100323,0.603799 0.100323,0.85275 0,0.382901 -0.09754,0.654889 -0.29261,0.816707 -0.195073,0.161818 -0.534129,0.242634 -1.017168,0.242634 -0.02229,-0.252852 -0.104225,-0.481367 -0.245235,-0.685543 0.111656,0.0037 0.208078,0.0056 0.290009,0.0056 0.241519,0 0.39925,-0.02248 0.473749,-0.06688 0.07413,-0.04459 0.111471,-0.117044 0.111471,-0.217367 0,-0.100324 -0.0074,-0.247093 -0.02229,-0.440309 -0.572215,0.468176 -1.280053,0.86947 -2.123513,1.203882 -0.09289,-0.230373 -0.236131,-0.408911 -0.429161,-0.535244 0.419872,-0.111471 0.853678,-0.285922 1.301418,-0.523912 0.447554,-0.237618 0.823953,-0.492142 1.128639,-0.763387 -0.02229,-0.08156 -0.04459,-0.14677 -0.06688,-0.195073 -0.431019,0.32698 -1.021813,0.648386 -1.77238,0.96422 -0.111471,-0.178539 -0.250809,-0.339985 -0.418015,-0.485083 0.716941,-0.174451 1.346935,-0.479137 1.889425,-0.914058 -0.02972,-0.03697 -0.07246,-0.07599 -0.128191,-0.116858 -0.535058,0.300784 -1.03649,0.520195 -1.504852,0.65749 -0.119087,-0.204362 -0.243563,-0.386431 -0.373426,-0.54602 0.831942,-0.182625 1.445029,-0.426003 1.838892,-0.730503 z M 68.3852,23.864971 c -0.01115,-0.126333 -0.04255,-0.27496 -0.09475,-0.445882 l 0.886191,-0.09475 c 0.02601,0.178352 0.03901,0.358563 0.03901,0.540631 h 1.923052 v 1.131426 H 70.402998 V 24.422323 H 67.12558 v 0.574073 H 66.440222 V 23.86497 Z" fill="#ffffff" style="stroke-width:1" />
    <path id="path7350" d="m 86.504913,23.842677 c -0.02972,-0.159774 -0.06131,-0.30097 -0.09475,-0.423588 l 0.875043,-0.07803 c 0.03697,0.193215 0.06131,0.360421 0.07246,0.501617 h 1.900572 v 0.579647 h -4.798805 v -0.579647 z m -0.128377,4.202437 v 0.183927 h -0.607514 v -1.466023 h 2.190395 v 1.148146 c 0.129863,0.01858 0.223684,0.02787 0.281463,0.02787 0.05759,0 0.09382,-0.01189 0.108684,-0.03623 0.01486,-0.02415 0.02229,-0.07153 0.02229,-0.142125 v -1.17044 h -2.992982 v 1.972842 h -0.685358 v -2.535579 h 4.386364 v 1.800248 c 0,0.181883 -0.02713,0.325123 -0.081,0.429161 -0.05388,0.10404 -0.153272,0.183927 -0.297998,0.239662 -0.144911,0.05592 -0.358749,0.09289 -0.640955,0.11147 -0.0039,-0.185784 -0.03715,-0.34723 -0.100324,-0.48471 v 0.08342 H 87.318648 V 28.0453 h -0.942111 z m 2.101405,-2.190394 h -3.149042 v -1.265191 h 3.149042 z m -0.77472,-0.479324 V 25.085573 H 86.04231 v 0.289823 z m -0.384574,2.207116 v -0.328838 h -0.941925 v 0.328838 z" fill="#ffffff" style="stroke-width:1" />
    <path id="path7352" d="m 107.7066,27.693982 c -0.0817,0.222941 -0.13934,0.462603 -0.17297,0.719171 -0.4979,0.01858 -0.95307,0.02768 -1.36551,0.02768 -0.89548,0 -1.49092,-0.03251 -1.78631,-0.09735 -0.2954,-0.0654 -0.50627,-0.155315 -0.63241,-0.270315 -0.0817,-0.07431 -0.14231,-0.111657 -0.18133,-0.111657 -0.039,0 -0.0845,0.02229 -0.13636,0.06688 -0.052,0.04459 -0.13934,0.126333 -0.26196,0.245235 -0.12262,0.118716 -0.21012,0.220897 -0.26196,0.306358 -0.21941,-0.226657 -0.41058,-0.420058 -0.57407,-0.579647 0.23762,-0.185784 0.41504,-0.312117 0.53209,-0.378999 0.11723,-0.06688 0.18764,-0.120017 0.21198,-0.15866 0.0242,-0.0392 0.0362,-0.110728 0.0362,-0.214581 V 25.75978 h -0.64653 v -0.618661 h 1.33208 v 1.995322 c 0,0.122618 0.0483,0.231487 0.14491,0.326237 0.0966,0.09475 0.21086,0.164419 0.34277,0.209007 0.13191,0.04459 0.3437,0.07803 0.63538,0.100138 0.29168,0.02248 0.69669,0.03363 1.21503,0.03363 0.51834,0 1.04113,-0.03716 1.56895,-0.111471 z m -3.71215,-3.13232 -0.68536,0.312117 c -0.14881,-0.349088 -0.35299,-0.687215 -0.61309,-1.014381 l 0.65749,-0.351132 c 0.28258,0.419872 0.49623,0.77119 0.64096,1.053396 z m 1.3657,-0.100323 H 104.0225 V 23.88708 h 1.33765 v -0.462417 h 0.60751 c 0.0892,0 0.13376,0.02415 0.13376,0.07246 0,0.02229 -0.0119,0.05592 -0.036,0.100323 -0.0243,0.04459 -0.0362,0.141382 -0.0362,0.289824 h 1.37109 v 0.574258 h -1.37666 v 0.312118 h 1.13161 v 1.488316 h -0.64095 c 0.28982,0.24152 0.60565,0.527627 0.94749,0.858137 l -0.55735,0.434735 c -0.24152,-0.308401 -0.53506,-0.594323 -0.88061,-0.858137 v 0.958646 h -0.66307 v -1.003234 c -0.24523,0.338127 -0.57407,0.648387 -0.9867,0.930778 -0.14472,-0.152342 -0.31955,-0.308401 -0.52372,-0.468175 0.27867,-0.148814 0.4914,-0.281649 0.63816,-0.398693 0.14677,-0.117044 0.28147,-0.268273 0.40409,-0.454057 h -0.64096 v -1.488316 h 1.10932 v -0.312303 z m 0,1.276522 v -0.429347 h -0.47394 v 0.429347 z m 0.66306,-0.429347 v 0.429347 h 0.47932 v -0.429347 z m 0,0.953258 v 0.367667 l 0.43492,-0.367667 z" fill="#ffffff" style="stroke-width:1" />
    <path id="path7354" d="m 63.551654,49.729281 c -0.290195,7.921281 -2.744217,11.881827 -7.361882,11.881827 -2.174418,0 -3.960547,-1.061199 -5.358386,-3.184155 -1.39784,-2.122212 -2.09676,-4.943902 -2.09676,-8.464699 0,-3.805231 0.709138,-6.762355 2.127971,-8.872492 1.418091,-2.109393 3.246021,-3.164461 5.482676,-3.164461 1.408058,0 2.681608,0.491956 3.820651,1.475312 1.138671,0.984098 2.039538,2.407577 2.702416,4.271177 l -3.416942,1.591985 c -0.580018,-1.811581 -1.646233,-2.718024 -3.199575,-2.718024 -2.52685,0 -3.789624,2.420585 -3.789624,7.260817 0,4.840977 1.293986,7.261188 3.882888,7.261188 1.449302,0 2.485049,-0.893063 3.106311,-2.679381 h -2.174417 v -4.659464 h 6.274673 z" fill="#ffffff" style="stroke-width:1" />
    <path id="path7356" d="M 73.460451,61.416964 H 69.732878 V 45.419461 H 67.869092 V 40.60468 c 1.056183,-0.413927 1.749715,-1.320182 2.081154,-2.718022 h 3.510205 z" fill="#ffffff" style="stroke-width:1" />
    <path id="path7358" d="m 82.623882,45.846578 c 0.931893,-0.284619 2.070565,-0.427117 3.416942,-0.427117 2.174418,0 3.898494,0.809278 5.172045,2.4269 1.27355,1.618178 1.910418,3.546806 1.910418,5.785689 0,2.239254 -0.662878,4.135183 -1.988076,5.688154 -1.32557,1.553342 -3.065067,2.329918 -5.218677,2.329918 -2.982021,0 -5.570737,-0.828226 -7.765777,-2.485233 l 2.050128,-3.921532 c 1.491104,1.217069 3.313089,1.824958 5.467256,1.824958 1.325013,0 2.287932,-0.310634 2.888944,-0.931895 0.600268,-0.621446 0.900867,-1.501137 0.900867,-2.640552 0,-1.138667 -0.321221,-1.99978 -0.963105,-2.582027 -0.64207,-0.582432 -1.563745,-0.873556 -2.764654,-0.873556 -1.20128,0 -2.360759,0.284993 -3.47918,0.854234 L 78.4926,49.069561 79.300204,38.119817 h 12.17685 v 4.659466 h -8.480303 z" fill="#ffffff" style="stroke-width:1" />
    <path id="path7360" d="M 100.48517,61.416964 H 98.000307 V 50.75184 h -1.24271 v -3.209793 c 0.704307,-0.275704 1.166538,-0.879875 1.387621,-1.811956 h 2.340142 v 15.686873 z" fill="#ffffff" style="stroke-width:1" />
    <path id="path7362" d="m 107.44334,61.416964 h -2.48523 V 50.75184 h -1.24253 v -3.209793 c 0.70394,-0.275704 1.16654,-0.879875 1.38763,-1.811956 h 2.34013 z" fill="#ffffff" style="stroke-width:1" />
  </g>
</svg>
