<?xml version="1.0" encoding="UTF-8"?>
<svg xmlns="http://www.w3.org/2000/svg" xmlns:ns1="http://sodipodi.sourceforge.net/DTD/sodipodi-0.dtd" viewBox="0 0 249.35936 126.4899" height="126.4899" width="249.35936" id="svg2455" version="1.1">
  <defs id="defs2459" />
  <ns1:namedview showgrid="false" id="namedview2457" guidetolerance="10" gridtolerance="10" objecttolerance="10" borderopacity="1" bordercolor="#666666" pagecolor="#ffffff" />
  <g transform="translate(58.177894,-4.2074994)" id="g2463">
    <path id="path284" d="M -50.803993,5.372799 H 183.80704 c 3.43959,0 6.20865,2.7690303 6.20865,6.208606 V 123.3242 c 0,3.4396 -2.76906,6.20864 -6.20865,6.20864 H -50.803993 c -3.439576,0 -6.208623,-2.76904 -6.208623,-6.20864 V 11.581405 c 0,-3.4395757 2.769047,-6.208606 6.208623,-6.208606 z" style="color:#000000;font-style:normal;font-variant:normal;font-weight:normal;font-stretch:normal;font-size:medium;line-height:normal;font-family:sans-serif;font-variant-ligatures:normal;font-variant-position:normal;font-variant-caps:normal;font-variant-numeric:normal;font-variant-alternates:normal;font-variant-east-asian:normal;font-feature-settings:normal;font-variation-settings:normal;text-indent:0;text-align:start;text-decoration:none;text-decoration-line:none;text-decoration-style:solid;text-decoration-color:#000000;letter-spacing:normal;word-spacing:normal;text-transform:none;writing-mode:lr-tb;direction:ltr;text-orientation:mixed;dominant-baseline:auto;baseline-shift:baseline;text-anchor:start;white-space:normal;shape-padding:0;shape-margin:0;inline-size:0;clip-rule:nonzero;display:inline;overflow:visible;visibility:visible;opacity:1;isolation:auto;mix-blend-mode:normal;color-interpolation:sRGB;color-interpolation-filters:linearRGB;solid-color:#000000;solid-opacity:1;vector-effect:none;fill:#ffffff;fill-opacity:1;fill-rule:nonzero;stroke:none;stroke-width:1.83054;stroke-linecap:butt;stroke-linejoin:miter;stroke-miterlimit:4;stroke-dasharray:none;stroke-dashoffset:0;stroke-opacity:1;color-rendering:auto;image-rendering:auto;shape-rendering:auto;text-rendering:auto;enable-background:accumulate;stop-color:#000000;stop-opacity:1" />
    <path id="path286" d="m -50.804559,4.4574994 c -3.930794,0 -7.123335,3.1924934 -7.123335,7.1233206 v 111.74322 c 0,3.93082 3.192541,7.12336 7.123335,7.12336 H 183.80658 c 3.93083,0 7.12489,-3.19254 7.12489,-7.12336 V 11.58082 c 0,-3.9308272 -3.19406,-7.1233206 -7.12489,-7.1233206 z m 0,1.8306719 H 183.80658 c 2.94837,0 5.2942,2.3442942 5.29422,5.2926487 v 111.74322 c 0,2.94837 -2.34585,5.2942 -5.29422,5.2942 H -50.804559 c -2.948345,0 -5.292676,-2.34583 -5.292676,-5.2942 V 11.58082 c 0,-2.9483545 2.344331,-5.2926487 5.292676,-5.2926487 z" style="color:#000000;font-style:normal;font-variant:normal;font-weight:normal;font-stretch:normal;font-size:medium;line-height:normal;font-family:sans-serif;font-variant-ligatures:normal;font-variant-position:normal;font-variant-caps:normal;font-variant-numeric:normal;font-variant-alternates:normal;font-variant-east-asian:normal;font-feature-settings:normal;font-variation-settings:normal;text-indent:0;text-align:start;text-decoration:none;text-decoration-line:none;text-decoration-style:solid;text-decoration-color:#000000;letter-spacing:normal;word-spacing:normal;text-transform:none;writing-mode:lr-tb;direction:ltr;text-orientation:mixed;dominant-baseline:auto;baseline-shift:baseline;text-anchor:start;white-space:normal;shape-padding:0;shape-margin:0;inline-size:0;clip-rule:nonzero;display:inline;overflow:visible;visibility:visible;opacity:1;isolation:auto;mix-blend-mode:normal;color-interpolation:sRGB;color-interpolation-filters:linearRGB;solid-color:#000000;solid-opacity:1;vector-effect:none;fill:#253898;fill-opacity:1;fill-rule:nonzero;stroke:none;stroke-width:0.5;stroke-linecap:butt;stroke-linejoin:miter;stroke-miterlimit:4;stroke-dasharray:none;stroke-dashoffset:0;stroke-opacity:1;color-rendering:auto;image-rendering:auto;shape-rendering:auto;text-rendering:auto;enable-background:accumulate;stop-color:#000000;stop-opacity:1" />
    <path d="m -50.807983,8.158402 c -1.888935,0 -3.410179,1.5324343 -3.410179,3.42865 V 123.3269 c 0,1.89045 1.519727,3.41065 3.410179,3.41065 h 70.8911 V 8.158402 Z m 71.978891,0 V 126.73755 H 111.73648 V 8.158402 Z m 91.653842,0 V 126.73755 h 70.98818 c 1.89047,0 3.41018,-1.5202 3.41018,-3.41065 V 11.587052 c 0,-1.8962157 -1.52122,-3.42865 -3.41018,-3.42865 z" style="color:#000000;font-style:normal;font-variant:normal;font-weight:normal;font-stretch:normal;font-size:medium;line-height:normal;font-family:sans-serif;font-variant-ligatures:normal;font-variant-position:normal;font-variant-caps:normal;font-variant-numeric:normal;font-variant-alternates:normal;font-variant-east-asian:normal;font-feature-settings:normal;font-variation-settings:normal;text-indent:0;text-align:start;text-decoration:none;text-decoration-line:none;text-decoration-style:solid;text-decoration-color:#000000;letter-spacing:normal;word-spacing:normal;text-transform:none;writing-mode:lr-tb;direction:ltr;text-orientation:mixed;dominant-baseline:auto;baseline-shift:baseline;text-anchor:start;white-space:normal;shape-padding:0;shape-margin:0;inline-size:0;clip-rule:nonzero;display:inline;overflow:visible;visibility:visible;opacity:1;isolation:auto;mix-blend-mode:normal;color-interpolation:sRGB;color-interpolation-filters:linearRGB;solid-color:#000000;solid-opacity:1;vector-effect:none;fill:#253898;fill-opacity:1;fill-rule:nonzero;stroke:none;stroke-width:1.83054;stroke-linecap:butt;stroke-linejoin:miter;stroke-miterlimit:4;stroke-dasharray:none;stroke-dashoffset:0;stroke-opacity:1;color-rendering:auto;image-rendering:auto;shape-rendering:auto;text-rendering:auto;enable-background:accumulate;stop-color:#000000;stop-opacity:1" id="path288" />
    <path style="fill:#ffffff;fill-opacity:1;stroke:none;stroke-width:2.17773" d="m 129.1689,107.5631 c 0.58166,-0.17915 1.28691,-0.27869 2.12304,-0.27869 1.3378,0 2.39933,0.55738 3.1991,1.67212 0.7925,1.09483 1.19239,2.38873 1.19239,3.9016 0,1.51286 -0.4217,2.80677 -1.25056,3.86179 -0.81431,1.06497 -1.89037,1.5925 -3.22818,1.5925 -1.84675,0 -3.45357,-0.55739 -4.82773,-1.67212 l 1.27964,-2.66743 c 0.93064,0.82611 2.06487,1.23419 3.40268,1.23419 0.81432,0 1.40324,-0.20904 1.77405,-0.637 0.38533,-0.41804 0.58165,-1.01521 0.58165,-1.79155 0,-0.76638 -0.20358,-1.35362 -0.61074,-1.75174 -0.39262,-0.39813 -0.95973,-0.59719 -1.71588,-0.59719 -0.74161,0 -1.45414,0.18911 -2.15212,0.55736 l -2.32662,-1.23416 0.4944,-7.4449 h 7.56152 v 3.18499 h -5.26398 z m 0,0" id="path1337" />
    <path id="path1352" d="m -37.163971,107.5631 c 0.581654,-0.17915 1.28691,-0.27869 2.12304,-0.27869 1.337801,0 2.399324,0.55738 3.199098,1.67212 0.792499,1.09483 1.192389,2.38873 1.192389,3.9016 0,1.51286 -0.421696,2.80677 -1.250557,3.86179 -0.814315,1.06497 -1.890373,1.5925 -3.228179,1.5925 -1.846751,0 -3.453574,-0.55739 -4.827733,-1.67212 l 1.279644,-2.66743 c 0.930645,0.82611 2.064872,1.23419 3.402672,1.23419 0.81432,0 1.403244,-0.20904 1.774047,-0.637 0.385349,-0.41804 0.581658,-1.01521 0.581658,-1.79155 0,-0.76638 -0.203579,-1.35362 -0.610739,-1.75174 -0.392615,-0.39813 -0.959732,-0.59719 -1.71588,-0.59719 -0.741611,0 -1.454136,0.18911 -2.152121,0.55736 l -2.326614,-1.23416 0.494404,-7.4449 h 7.561502 v 3.18499 h -5.263968 z m 0,0" style="fill:#ffffff;fill-opacity:1;stroke:none;stroke-width:2.17773" />
    <path style="fill:#ffffff;fill-opacity:1;stroke:none;stroke-width:2.17773" d="m 144.03092,102.14863 c 1.37417,0 2.51566,0.73653 3.43177,2.18967 0.90884,1.46312 1.36688,3.44378 1.36688,5.93205 0,2.46834 -0.43623,4.43906 -1.30872,5.8922 -0.85793,1.43324 -2.02851,2.14987 -3.519,2.14987 -1.49777,0 -2.67562,-0.71663 -3.5481,-2.14987 -0.87248,-1.43325 -1.30872,-3.39399 -1.30872,-5.8922 0,-2.48827 0.43624,-4.46893 1.30872,-5.93205 0.87248,-1.45314 2.06488,-2.18967 3.57717,-2.18967 z m 0.11634,13.05843 c 0.71253,0 1.29418,-0.45784 1.74496,-1.39343 0.46533,-0.9555 0.69799,-2.20959 0.69799,-3.78217 0,-1.56264 -0.21812,-2.74705 -0.63981,-3.54329 -0.40717,-0.81615 -1.04698,-1.23418 -1.91946,-1.23418 -1.74497,0 -2.61745,1.67212 -2.61745,5.01636 0,1.59247 0.23266,2.8167 0.69799,3.66272 0.46532,0.85595 1.14149,1.27399 2.03578,1.27399 z m 0,0" id="path1339" />
    <path id="path1354" d="m -22.301941,102.14863 c 1.374159,0 2.515655,0.73653 3.43176,2.18967 0.908834,1.46312 1.366887,3.44378 1.366887,5.93205 0,2.46834 -0.436236,4.43906 -1.308725,5.8922 -0.857937,1.43324 -2.028519,2.14987 -3.519008,2.14987 -1.497759,0 -2.675607,-0.71663 -3.548089,-2.14987 -0.872483,-1.43325 -1.308725,-3.39399 -1.308725,-5.8922 0,-2.48827 0.436242,-4.46893 1.308725,-5.93205 0.872482,-1.45314 2.064871,-2.18967 3.577175,-2.18967 z m 0.116332,13.05843 c 0.712529,0 1.294183,-0.45784 1.744965,-1.39343 0.465323,-0.9555 0.697984,-2.20959 0.697984,-3.78217 0,-1.56264 -0.21812,-2.74705 -0.639821,-3.54329 -0.407154,-0.81615 -1.046976,-1.23418 -1.91946,-1.23418 -1.744961,0 -2.617443,1.67212 -2.617443,5.01636 0,1.59247 0.232657,2.8167 0.697984,3.66272 0.465324,0.85595 1.141497,1.27399 2.035791,1.27399 z m 0,0" style="fill:#ffffff;fill-opacity:1;stroke:none;stroke-width:2.17773" />
    <path id="path1341" d="m 157.43886,102.14863 c 1.37415,0 2.51566,0.73653 3.43175,2.18967 0.90884,1.46312 1.3669,3.44378 1.3669,5.93205 0,2.46834 -0.43625,4.43906 -1.30873,5.8922 -0.85794,1.43324 -2.02852,2.14987 -3.51901,2.14987 -1.49776,0 -2.67561,-0.71663 -3.54809,-2.14987 -0.87248,-1.43325 -1.30872,-3.39399 -1.30872,-5.8922 0,-2.48827 0.43624,-4.46893 1.30872,-5.93205 0.87248,-1.45314 2.06487,-2.18967 3.57718,-2.18967 z m 0.11633,13.05843 c 0.71252,0 1.29419,-0.45784 1.74495,-1.39343 0.46533,-0.9555 0.69799,-2.20959 0.69799,-3.78217 0,-1.56264 -0.21811,-2.74705 -0.63981,-3.54329 -0.40717,-0.81615 -1.04698,-1.23418 -1.91946,-1.23418 -1.74497,0 -2.61745,1.67212 -2.61745,5.01636 0,1.59247 0.23266,2.8167 0.69799,3.66272 0.46532,0.85595 1.14149,1.27399 2.03579,1.27399 z m 0,0" style="fill:#ffffff;fill-opacity:1;stroke:none;stroke-width:2.17773" />
    <path style="fill:#ffffff;fill-opacity:1;stroke:none;stroke-width:2.17773" d="m -8.894022,102.14863 c 1.3741629,0 2.515659,0.73653 3.4317635,2.18967 0.908835,1.46312 1.3668875,3.44378 1.3668875,5.93205 0,2.46834 -0.4362415,4.43906 -1.3087246,5.8922 -0.8579373,1.43324 -2.0285142,2.14987 -3.5190084,2.14987 -1.497759,0 -2.675607,-0.71663 -3.548089,-2.14987 -0.872483,-1.43325 -1.308725,-3.39399 -1.308725,-5.8922 0,-2.48827 0.436242,-4.46893 1.308725,-5.93205 0.872482,-1.45314 2.064871,-2.18967 3.577171,-2.18967 z m 0.1163357,13.05843 c 0.7125295,0 1.2941836,-0.45784 1.744961,-1.39343 0.4653271,-0.9555 0.6979885,-2.20959 0.6979885,-3.78217 0,-1.56264 -0.2181204,-2.74705 -0.6398213,-3.54329 -0.4071599,-0.81615 -1.0469757,-1.23418 -1.9194595,-1.23418 -1.7449614,0 -2.6174434,1.67212 -2.6174434,5.01636 0,1.59247 0.232661,2.8167 0.697989,3.66272 0.465318,0.85595 1.141492,1.27399 2.0357857,1.27399 z m 0,0" id="path1356" />
    <path d="m 146.2787,42.979078 4.44635,5.187487 h -8.88228 c -2.53848,0 -4.58227,2.043323 -4.58227,4.581791 v 40.751201 h 6.40835 v -38.83845 h 7.0562 l -4.44635,5.187488 h 7.04199 l 8.65307,-8.434758 -8.65307,-8.434759 z" style="opacity:1;fill:#ffffff;stroke-width:1.03135" id="rect1311" />
    <path id="path1335" style="opacity:1;fill:#ffffff;stroke-width:1.03135" d="m -13.377571,42.979078 -4.446343,5.187487 h 8.8822503 c 2.5384548,0 4.5822396,2.043323 4.5822396,4.581791 v 40.751201 h -6.4083119 v -38.83845 h -7.056178 l 4.446343,5.187488 h -7.041981 l -8.653076,-8.434758 8.653076,-8.434759 z" />
    <g id="g1347" style="opacity:1;fill:#ffffff;fill-opacity:1" transform="matrix(1.0323393,0,0,1.1743999,-58.597423,27.395542)">
      <g style="fill:#ffffff" transform="translate(216.11383,77.279999)" id="g1345">
        <path style="fill:#ffffff;stroke:none" d="m 8.8298916,0 h -1.21875 v -2.796875 c 0,-0.195313 -0.085937,-0.367188 -0.25,-0.515625 -0.167969,-0.144531 -0.359375,-0.21875 -0.578125,-0.21875 -0.210937,0 -0.390625,0.074219 -0.546875,0.21875 -0.148437,0.148437 -0.21875,0.320312 -0.21875,0.515625 V 0 h -1.203125 v -2.8125 c 0,-0.1875 -0.070312,-0.351563 -0.203125,-0.5 -0.136719,-0.144531 -0.324219,-0.21875 -0.5625,-0.21875 -0.230469,0 -0.429687,0.070312 -0.59375,0.203125 -0.15625,0.136719 -0.234375,0.308594 -0.234375,0.515625 V 0 h -1.234375 v -4.65625 h 1.234375 V -4.375 c 0.363281,-0.226563 0.753906,-0.34375 1.171875,-0.34375 0.519531,0 0.929688,0.179687 1.234375,0.53125 0.425781,-0.351563 0.890625,-0.53125 1.390625,-0.53125 0.5,0 0.925781,0.152344 1.28125,0.453125 0.351563,0.304687 0.53125,0.664062 0.53125,1.078125 z m 0,0" id="path1343" />
      </g>
    </g>
    <g transform="matrix(1.0323393,0,0,1.1743999,-224.93151,27.395542)" style="opacity:1;fill:#ffffff;fill-opacity:1" id="g1362">
      <g style="fill:#ffffff" id="g1360" transform="translate(216.11383,77.279999)">
        <path id="path1358" d="m 8.8298916,0 h -1.21875 v -2.796875 c 0,-0.195313 -0.085937,-0.367188 -0.25,-0.515625 -0.167969,-0.144531 -0.359375,-0.21875 -0.578125,-0.21875 -0.210937,0 -0.390625,0.074219 -0.546875,0.21875 -0.148437,0.148437 -0.21875,0.320312 -0.21875,0.515625 V 0 h -1.203125 v -2.8125 c 0,-0.1875 -0.070312,-0.351563 -0.203125,-0.5 -0.136719,-0.144531 -0.324219,-0.21875 -0.5625,-0.21875 -0.230469,0 -0.429687,0.070312 -0.59375,0.203125 -0.15625,0.136719 -0.234375,0.308594 -0.234375,0.515625 V 0 h -1.234375 v -4.65625 h 1.234375 V -4.375 c 0.363281,-0.226563 0.753906,-0.34375 1.171875,-0.34375 0.519531,0 0.929688,0.179687 1.234375,0.53125 0.425781,-0.351563 0.890625,-0.53125 1.390625,-0.53125 0.5,0 0.925781,0.152344 1.28125,0.453125 0.351563,0.304687 0.53125,0.664062 0.53125,1.078125 z m 0,0" style="fill:#ffffff;stroke:none" />
      </g>
    </g>
    <path d="m 67.116693,42.840321 -9.491296,10.74957 v 8.388826 l 6.28712,-5.788449 v 37.309289 h 6.408352 V 56.190268 l 6.286646,5.788449 v -8.388826 z" style="opacity:1;fill:#ffffff;stroke-width:0.255648" id="rect1364" />
    <g transform="matrix(1.6648302,0,0,1.6648302,-419.65673,-96.953892)" style="opacity:1;fill:#ffffff;fill-opacity:1" id="g507">
      <g style="fill:#ffffff" id="use505" transform="translate(225.53957,77.279999)">
        <path id="path872" d="m 3.421875,-5.796875 -1.28125,0.625 C 1.878906,-5.773438 1.46875,-6.429688 0.90625,-7.140625 l 1.265625,-0.65625 c 0.53125,0.773437 0.945313,1.4375 1.25,2 z M 8.9375,-6.234375 H 3.984375 v -1.15625 H 8.9375 Z m -2.28125,2.125 H 5.984375 v 0.625 c 0,1.46875 -0.558594,2.636719 -1.671875,3.5 C 3.976563,-0.253906 3.609375,-0.515625 3.203125,-0.765625 4.234375,-1.421875 4.75,-2.300781 4.75,-3.40625 V -4.109375 H 3.328125 v -1.15625 h 6.34375 v 1.15625 H 7.9375 v 2.3125 c 0,0.117187 0.015625,0.199219 0.046875,0.25 0.03125,0.054687 0.09375,0.078125 0.1875,0.078125 h 0.21875 c 0.050781,0 0.09375,-0.015625 0.125,-0.046875 C 8.546875,-1.546875 8.566406,-1.625 8.578125,-1.75 8.585938,-1.875 8.601563,-2.085938 8.625,-2.390625 9.007813,-2.179688 9.421875,-2.050781 9.859375,-2 9.816406,-1.644531 9.753906,-1.328125 9.671875,-1.046875 9.597656,-0.773438 9.46875,-0.566406 9.28125,-0.421875 9.101563,-0.285156 8.804688,-0.21875 8.390625,-0.21875 H 7.78125 c -0.398437,0 -0.683594,-0.066406 -0.859375,-0.203125 C 6.742188,-0.554688 6.65625,-0.835938 6.65625,-1.265625 Z m 3.5625,4.203125 c -0.1875,0.382813 -0.335937,0.828125 -0.4375,1.328125 -3.085937,0 -4.917969,-0.042969 -5.5,-0.125 C 3.707031,1.222656 3.25,1.03125 2.90625,0.71875 2.738281,0.570313 2.613281,0.5 2.53125,0.5 2.425781,0.5 2.207031,0.664063 1.875,1 1.539063,1.34375 1.363281,1.550781 1.34375,1.625 1.007813,1.289063 0.660156,0.925781 0.296875,0.53125 c 0.46875,-0.386719 0.800781,-0.632813 1,-0.75 0.195313,-0.113281 0.316406,-0.203125 0.359375,-0.265625 0.039063,-0.0625 0.0625,-0.179688 0.0625,-0.359375 V -3.578125 H 0.515625 v -1.15625 H 3 v 3.71875 c 0,0.167969 0.046875,0.320312 0.140625,0.453125 0.09375,0.136719 0.234375,0.261719 0.421875,0.375 0.195313,0.1171875 0.410156,0.1953125 0.640625,0.25 0.226563,0.050781 0.738281,0.085938 1.53125,0.109375 C 6.535156,0.203125 7.3125,0.21875 8.0625,0.21875 c 0.75,0 1.46875,-0.042969 2.15625,-0.125 z m 0,0" style="fill:#ffffff;stroke:none" />
      </g>
    </g>
    <g transform="matrix(1.6648302,0,0,1.6648302,-417.23199,-96.953892)" style="opacity:1;fill:#ffffff;fill-opacity:1" id="g511">
      <g style="fill:#ffffff" id="use509" transform="translate(235.69035,77.279999)">
        <path id="path876" d="m 5.90625,-5.296875 h 3.671875 v 1.21875 h -3.5 c 0.332031,1.105469 0.796875,1.980469 1.390625,2.625 0.601563,0.648437 1.492188,1.230469 2.671875,1.75 -0.398437,0.34375 -0.792969,0.800781 -1.1875,1.375 C 7.234375,0.734375 6.023438,-0.5625 5.328125,-2.21875 4.753906,-0.695313 3.4375,0.617188 1.375,1.734375 1.144531,1.359375 0.769531,0.945313 0.25,0.5 1.59375,-0.0703125 2.546875,-0.695313 3.109375,-1.375 3.671875,-2.0625 4.039063,-2.960938 4.21875,-4.078125 H 0.734375 v -1.21875 H 4.34375 c 0.039063,-0.476563 0.0625,-0.941406 0.0625,-1.390625 0,-0.445313 -0.011719,-0.859375 -0.03125,-1.234375 0.289063,-0.019531 0.609375,-0.03125 0.953125,-0.03125 0.351563,0 0.570313,0.015625 0.65625,0.046875 0.082031,0.03125 0.125,0.078125 0.125,0.140625 0,0.0625 -0.011719,0.132812 -0.03125,0.203125 -0.105469,0.21875 -0.15625,0.625 -0.15625,1.21875 0,0.261719 -0.00781,0.609375 -0.015625,1.046875 z m 0,0" style="fill:#ffffff;stroke:none" />
      </g>
    </g>
    <g transform="matrix(1.6648302,0,0,1.6648302,-417.23199,-96.953892)" style="opacity:1;fill:#ffffff;fill-opacity:1" id="g515">
      <g style="fill:#ffffff" id="use513" transform="translate(246.15189,77.279999)">
        <path id="path880" d="m 5.8470375,-4.9375 c 0.5625,-0.582031 1,-1.613281 1.3125,-3.09375 0.226563,0.023437 0.5,0.058594 0.8125,0.109375 0.320313,0.042969 0.515625,0.074219 0.578125,0.09375 0.0625,0.023437 0.09375,0.058594 0.09375,0.109375 0,0.054687 -0.03125,0.117187 -0.09375,0.1875 -0.0625,0.074219 -0.15625,0.25 -0.28125,0.53125 h 2.6093765 c -0.304688,1.21875 -0.765626,2.183594 -1.3906265,2.890625 0.6015635,0.355469 1.3476575,0.625 2.2343775,0.8125 -0.3125,0.429687 -0.585938,0.84375 -0.812501,1.25 -0.167969,-0.0625 -0.289062,-0.109375 -0.359376,-0.140625 v 3.875 H 9.2689125 v -0.625 h -1.578125 v 0.625 H 6.4564125 V -2.109375 L 6.2064125,-2 c -0.117187,-0.195313 -0.21875,-0.363281 -0.3125,-0.5 v 0.796875 h -1.046875 v 1.046875 c 0.425781,-0.125 0.828125,-0.253906 1.203125,-0.390625 -0.011719,0.117187 -0.015625,0.273437 -0.015625,0.46875 0,0.199219 0.023438,0.421875 0.078125,0.671875 -1.398437,0.414063 -2.734375,0.890625 -4.0156249,1.421875 l -0.46875,-1.40625 C 1.7845376,0.0859375 1.9759436,0.0507813 2.2064125,0 v -3.34375 h 0.90625 c 0.195313,0 0.296875,0.042969 0.296875,0.125 0,0.042969 -0.015625,0.09375 -0.046875,0.15625 -0.0625,0.125 -0.09375,0.449219 -0.09375,0.96875 V -0.25 l 0.453125,-0.09375 v -3.546875 h -1.296875 v -3.53125 h 3.421875 z m -1.140625,-0.046875 v -1.34375 h -1.140625 v 1.34375 z m 3.859375,0.140625 c 0.238281,-0.3125 0.457031,-0.679688 0.65625,-1.109375 h -1.359375 c 0.15625,0.398437 0.390625,0.765625 0.703125,1.109375 z m -1.40625,0.03125 c -0.167969,0.25 -0.335937,0.480469 -0.5,0.6875 -0.355469,-0.269531 -0.625,-0.445313 -0.8125,-0.53125 v 0.765625 h -1 v 1.0625 h 0.78125 c -0.0625,-0.0625 -0.148437,-0.144531 -0.25,-0.25 0.976563,-0.269531 1.738281,-0.59375 2.28125,-0.96875 -0.199219,-0.21875 -0.367187,-0.472656 -0.5,-0.765625 z m 1.375,1.5625 c -0.429687,0.3125 -0.917969,0.605469 -1.46875,0.875 H 10.097038 C 9.4915685,-2.65625 8.9720375,-2.945313 8.5345375,-3.25 Z m 0.734375,3.34375 V -1.3125 h -1.578125 v 1.40625 z m 0,0" style="fill:#ffffff;stroke:none" />
      </g>
    </g>
    <g transform="matrix(1.7035349,0,0,1.7035349,-409.35527,-100.13916)" style="opacity:1;fill:#ffffff;fill-opacity:1" id="g523">
      <g style="fill:#ffffff" id="use521" transform="translate(259.30649,77.279999)">
        <path id="path888" d="m 2.328125,-5.296875 c -0.179687,0.429687 -0.40625,0.898437 -0.6875,1.40625 C 1.347656,-4.054688 0.976563,-4.226563 0.53125,-4.40625 1,-5.101563 1.398438,-6.289063 1.734375,-7.96875 c 0.351563,0.0625 0.671875,0.125 0.953125,0.1875 0.289063,0.0625 0.457031,0.109375 0.5,0.140625 C 3.226563,-7.617188 3.25,-7.582031 3.25,-7.53125 3.25,-7.488281 3.191406,-7.394531 3.078125,-7.25 2.960938,-7.101563 2.84375,-6.835938 2.71875,-6.453125 h 2.703125 v 1.15625 h -1.4375 c 0,0.59375 -0.023437,1.140625 -0.0625,1.640625 h 1.6875 v 1.140625 H 3.8125 c 0,0.011719 -0.00781,0.03125 -0.015625,0.0625 0,0.023437 0,0.039062 0,0.046875 0.738281,0.792969 1.382813,1.554687 1.9375,2.28125 v -6.4375 h 3.875 V 1.140625 H 8.28125 V 0.46875 H 6.96875 V 1.265625 H 5.734375 V 0.28125 l -1,0.59375 c -0.273437,-0.554687 -0.6875,-1.210938 -1.25,-1.984375 -0.3125,1 -0.980469,1.957031 -2,2.875 -0.355469,-0.28125 -0.75,-0.546875 -1.1875,-0.796875 0.65625,-0.449219 1.148438,-0.9453125 1.484375,-1.484375 0.34375,-0.550781 0.585938,-1.21875 0.734375,-2 H 0.5 V -3.65625 H 2.671875 C 2.722656,-4.207031 2.75,-4.753906 2.75,-5.296875 Z M 8.28125,-0.59375 v -4.828125 h -1.3125 v 4.828125 z m 0,0" style="fill:#ffffff;stroke:none" />
      </g>
    </g>
    <g transform="matrix(1.7035349,0,0,1.7035349,-401.59623,-100.13916)" style="opacity:1;fill:#ffffff;fill-opacity:1" id="g527">
      <g style="fill:#ffffff" id="use525" transform="translate(269.66443,77.279999)">
        <path id="path892" d="m 4.046875,-7.078125 c 0.0625,-0.25 0.125,-0.566406 0.1875,-0.953125 0.34375,0.023437 0.679688,0.054687 1.015625,0.09375 0.34375,0.042969 0.546875,0.078125 0.609375,0.109375 0.070313,0.023437 0.109375,0.058594 0.109375,0.109375 0,0.042969 -0.046875,0.109375 -0.140625,0.203125 -0.09375,0.09375 -0.199219,0.242187 -0.3125,0.4375 H 8.71875 V -2.9375 H 6.234375 c 0.238281,0.449219 0.53125,0.859375 0.875,1.234375 0.445313,-0.351563 0.875,-0.753906 1.28125,-1.203125 C 9.128906,-2.375 9.5,-2.054688 9.5,-1.953125 c 0,0.0625 -0.0625,0.105469 -0.1875,0.125 C 9.039063,-1.753906 8.578125,-1.46875 7.921875,-0.96875 8.566406,-0.488281 9.3125,-0.132813 10.15625,0.09375 9.769531,0.488281 9.429688,0.925781 9.140625,1.40625 7.710938,0.738281 6.640625,-0.1875 5.921875,-1.375 V 0.28125 C 5.921875,0.664063 5.875,0.953125 5.78125,1.140625 5.6875,1.328125 5.492188,1.472656 5.203125,1.578125 4.921875,1.679688 4.476563,1.765625 3.875,1.828125 3.800781,1.304688 3.679688,0.832031 3.515625,0.40625 3.878906,0.488281 4.125,0.53125 4.25,0.53125 c 0.125,0 0.210938,-0.023437 0.265625,-0.0625 C 4.566406,0.4375 4.59375,0.347656 4.59375,0.203125 V -2.9375 H 1.765625 v -4.140625 z m 3.3125,1.59375 V -6.03125 H 3.03125 v 0.546875 z M 3.03125,-4.5 v 0.53125 H 7.359375 V -4.5 Z m 1.453125,2.03125 C 4.273438,-1.632813 3.953125,-0.921875 3.515625,-0.328125 3.078125,0.265625 2.421875,0.84375 1.546875,1.40625 1.285156,1.101563 0.90625,0.789063 0.40625,0.46875 1.007813,0.195313 1.488281,-0.0820313 1.84375,-0.375 2.195313,-0.664063 2.476563,-1.023438 2.6875,-1.453125 H 0.71875 V -2.46875 Z m 0,0" style="fill:#ffffff;stroke:none" />
      </g>
    </g>
    <g transform="matrix(1.7035349,0,0,1.7035349,-402.5661,-100.13916)" style="opacity:1;fill:#ffffff;fill-opacity:1" id="g531">
      <g style="fill:#ffffff" id="use529" transform="translate(280.12598,77.279999)">
        <path id="path896" d="m 8.945257,-4.9375 c 0.5625,-0.582031 1,-1.613281 1.3125,-3.09375 0.226564,0.023437 0.500001,0.058594 0.812502,0.109375 0.320313,0.042969 0.515626,0.074219 0.578126,0.09375 0.0625,0.023437 0.09375,0.058594 0.09375,0.109375 0,0.054687 -0.03125,0.117187 -0.09375,0.1875 -0.0625,0.074219 -0.15625,0.25 -0.281251,0.53125 h 2.60938 c -0.304688,1.21875 -0.765626,2.183594 -1.390627,2.890625 0.601564,0.355469 1.347658,0.625 2.234378,0.8125 -0.3125,0.429687 -0.585938,0.84375 -0.812501,1.25 -0.167969,-0.0625 -0.289062,-0.109375 -0.359376,-0.140625 v 3.875 h -1.281252 v -0.625 h -1.578128 v 0.625 H 9.554632 V -2.109375 L 9.304632,-2 c -0.117187,-0.195313 -0.21875,-0.363281 -0.3125,-0.5 v 0.796875 H 7.945257 v 1.046875 c 0.425781,-0.125 0.828125,-0.253906 1.203125,-0.390625 -0.011719,0.117187 -0.015625,0.273437 -0.015625,0.46875 0,0.199219 0.023438,0.421875 0.078125,0.671875 C 7.812445,0.507813 6.476507,0.984375 5.195257,1.515625 L 4.7265071,0.109375 C 4.8827571,0.0859375 5.074163,0.0507813 5.304632,0 v -3.34375 h 0.90625 c 0.195313,0 0.296875,0.042969 0.296875,0.125 0,0.042969 -0.015625,0.09375 -0.046875,0.15625 -0.0625,0.125 -0.09375,0.449219 -0.09375,0.96875 V -0.25 L 6.820257,-0.34375 V -3.890625 H 5.523382 v -3.53125 H 8.945257 Z M 7.804632,-4.984375 v -1.34375 H 6.664007 v 1.34375 z m 3.859378,0.140625 c 0.238281,-0.3125 0.457032,-0.679688 0.656251,-1.109375 h -1.359377 c 0.15625,0.398437 0.390625,0.765625 0.703126,1.109375 z m -1.406253,0.03125 c -0.167969,0.25 -0.335937,0.480469 -0.5,0.6875 -0.355469,-0.269531 -0.625,-0.445313 -0.8125,-0.53125 v 0.765625 h -1 v 1.0625 h 0.78125 c -0.0625,-0.0625 -0.148437,-0.144531 -0.25,-0.25 0.976563,-0.269531 1.738281,-0.59375 2.281251,-0.96875 -0.199219,-0.21875 -0.367187,-0.472656 -0.500001,-0.765625 z M 11.63276,-3.25 c -0.429688,0.3125 -0.917971,0.605469 -1.468753,0.875 h 3.031256 C 12.589793,-2.65625 12.070261,-2.945313 11.63276,-3.25 Z m 0.734376,3.34375 V -1.3125 h -1.578128 v 1.40625 z m 0,0" style="fill:#ffffff;stroke:none" />
      </g>
    </g>
    <g transform="matrix(1.6766596,0,0,1.6766596,-370.96698,-98.244948)" style="opacity:1;fill:#ffffff;fill-opacity:1" id="g539">
      <g style="fill:#ffffff" id="use537" transform="translate(293.28055,77.279999)">
        <path id="path904" d="m 7.984375,-4.828125 c 0.40625,1.648437 1.171875,2.929687 2.296875,3.84375 -0.40625,0.355469 -0.761719,0.730469 -1.0625,1.125 -0.648437,-0.757813 -1.152344,-1.59375 -1.515625,-2.5 v 4.0625 H 6.5 V -2.46875 C 6.09375,-1.5 5.519531,-0.617188 4.78125,0.171875 4.488281,-0.0976563 4.128906,-0.367188 3.703125,-0.640625 4.859375,-1.660156 5.695313,-3.054688 6.21875,-4.828125 H 5.0625 v -1.125 H 6.5 v -2 h 1.109375 c 0.144531,0 0.21875,0.042969 0.21875,0.125 0,0.054687 -0.023437,0.121094 -0.0625,0.203125 -0.042969,0.074219 -0.0625,0.261719 -0.0625,0.5625 v 1.109375 h 2.03125 v 1.125 z M 3.578125,-5.90625 H 4.78125 v 1.140625 H 3.578125 v 0.71875 l 0.625,-0.34375 c 0.382813,0.605469 0.722656,1.179687 1.015625,1.71875 L 4.15625,-2.0625 C 4.007813,-2.425781 3.816406,-2.816406 3.578125,-3.234375 v 4.9375 H 2.375 v -4.34375 c -0.324219,0.90625 -0.75,1.695312 -1.28125,2.359375 -0.324219,-0.363281 -0.640625,-0.675781 -0.953125,-0.9375 0.820313,-0.957031 1.425781,-2.140625 1.8125,-3.546875 H 0.6875 V -5.90625 H 2.375 v -2.015625 h 1.109375 c 0.144531,0 0.21875,0.042969 0.21875,0.125 0,0.054687 -0.023437,0.125 -0.0625,0.21875 -0.042969,0.085937 -0.0625,0.351562 -0.0625,0.796875 z m 0,0" style="fill:#ffffff;stroke:none" />
      </g>
    </g>
    <g transform="matrix(1.6766596,0,0,1.6766596,-368.5423,-98.244948)" style="opacity:1;fill:#ffffff;fill-opacity:1" id="g543">
      <g style="fill:#ffffff" id="use541" transform="translate(303.63852,77.279999)">
        <path id="path908" d="M 2.171875,1.21875 V 1.734375 H 0.96875 v -9.3125 h 8.453125 v 9.28125 h -1.25 V 1.21875 Z m 3.15625,-4.5 H 4.796875 C 4.773438,-2.5 4.632813,-1.867188 4.375,-1.390625 c -0.261719,0.46875 -0.703125,0.917969 -1.328125,1.34375 -0.199219,-0.175781 -0.492187,-0.394531 -0.875,-0.65625 v 0.90625 h 6 v -6.6875 h -6 v 5.59375 c 0.5,-0.28125 0.847656,-0.597656 1.046875,-0.953125 0.207031,-0.351563 0.328125,-0.832031 0.359375,-1.4375 H 2.40625 V -4.296875 H 7.921875 V -3.28125 H 6.5 v 1.640625 c 0,0.09375 0.00781,0.15625 0.03125,0.1875 0.019531,0.03125 0.0625,0.046875 0.125,0.046875 H 6.75 c 0.101563,0 0.171875,-0.039063 0.203125,-0.125 0.03125,-0.09375 0.050781,-0.328125 0.0625,-0.703125 0.332031,0.179687 0.679688,0.292969 1.046875,0.34375 C 8.007813,-1.398438 7.9375,-1.039063 7.84375,-0.8125 7.75,-0.582031 7.625,-0.425781 7.46875,-0.34375 7.320313,-0.269531 7.101563,-0.234375 6.8125,-0.234375 H 6.40625 c -0.429687,0 -0.714844,-0.066406 -0.859375,-0.203125 -0.148437,-0.144531 -0.21875,-0.410156 -0.21875,-0.796875 z M 7.421875,-4.875 H 2.90625 v -1.078125 h 4.515625 z m 0,0" style="fill:#ffffff;stroke:none" />
      </g>
    </g>
    <g transform="matrix(1.6766596,0,0,1.6766596,-368.05736,-98.244948)" style="opacity:1;fill:#ffffff;fill-opacity:1" id="g547">
      <g style="fill:#ffffff" id="use545" transform="translate(313.99646,77.279999)">
        <path id="path912" d="m 5.836762,-4.9375 c 0.5625,-0.582031 1,-1.613281 1.3125,-3.09375 0.226563,0.023437 0.5,0.058594 0.8125,0.109375 0.320313,0.042969 0.515625,0.074219 0.578125,0.09375 0.0625,0.023437 0.09375,0.058594 0.09375,0.109375 0,0.054687 -0.03125,0.117187 -0.09375,0.1875 -0.0625,0.074219 -0.15625,0.25 -0.28125,0.53125 h 2.609374 c -0.304686,1.21875 -0.765624,2.183594 -1.390624,2.890625 0.601563,0.355469 1.347655,0.625 2.234373,0.8125 -0.3125,0.429687 -0.585936,0.84375 -0.812499,1.25 -0.167969,-0.0625 -0.289062,-0.109375 -0.359374,-0.140625 v 3.875 H 9.258637 V 1.0625 H 7.680512 v 0.625 H 6.446137 V -2.109375 L 6.196137,-2 C 6.07895,-2.195313 5.977387,-2.363281 5.883637,-2.5 v 0.796875 H 4.836762 v 1.046875 c 0.425781,-0.125 0.828125,-0.253906 1.203125,-0.390625 -0.011719,0.117187 -0.015625,0.273437 -0.015625,0.46875 0,0.199219 0.023438,0.421875 0.078125,0.671875 C 4.70395,0.507813 3.368012,0.984375 2.0867621,1.515625 l -0.46875,-1.40625 C 1.7742621,0.0859375 1.9656681,0.0507813 2.196137,0 v -3.34375 h 0.90625 c 0.195313,0 0.296875,0.042969 0.296875,0.125 0,0.042969 -0.015625,0.09375 -0.046875,0.15625 -0.0625,0.125 -0.09375,0.449219 -0.09375,0.96875 V -0.25 L 3.711762,-0.34375 V -3.890625 H 2.414887 v -3.53125 H 5.836762 Z M 4.696137,-4.984375 v -1.34375 H 3.555512 v 1.34375 z m 3.859375,0.140625 c 0.238281,-0.3125 0.457031,-0.679688 0.65625,-1.109375 H 7.852387 c 0.15625,0.398437 0.390625,0.765625 0.703125,1.109375 z m -1.40625,0.03125 c -0.167969,0.25 -0.335937,0.480469 -0.5,0.6875 -0.355469,-0.269531 -0.625,-0.445313 -0.8125,-0.53125 v 0.765625 h -1 v 1.0625 h 0.78125 c -0.0625,-0.0625 -0.148437,-0.144531 -0.25,-0.25 0.976563,-0.269531 1.738281,-0.59375 2.28125,-0.96875 -0.199219,-0.21875 -0.367187,-0.472656 -0.5,-0.765625 z m 1.375,1.5625 c -0.429687,0.3125 -0.917969,0.605469 -1.46875,0.875 h 3.03125 c -0.605469,-0.28125 -1.125,-0.570313 -1.5625,-0.875 z M 9.258637,0.09375 V -1.3125 H 7.680512 v 1.40625 z m 0,0" style="fill:#ffffff;stroke:none" />
      </g>
    </g>
  </g>
</svg>
