<?xml version="1.0" encoding="UTF-8"?>
<svg xmlns="http://www.w3.org/2000/svg" xmlns:ns1="http://sodipodi.sourceforge.net/DTD/sodipodi-0.dtd" id="svg37726" version="1.1" viewBox="0 0 185.4446 138.116" height="522.01324" width="700.89301">
  <defs id="defs37720" />
  <ns1:namedview showgrid="false" borderopacity="1.0" bordercolor="#666666" pagecolor="#ffffff" id="base" showguides="true" units="px" width="700.893px" />
  <g transform="translate(0.86934689,24.855485)" id="layer1">
    <path style="color:#000000;font-style:normal;font-variant:normal;font-weight:normal;font-stretch:normal;font-size:medium;line-height:normal;font-family:sans-serif;font-variant-ligatures:normal;font-variant-position:normal;font-variant-caps:normal;font-variant-numeric:normal;font-variant-alternates:normal;font-variant-east-asian:normal;font-feature-settings:normal;font-variation-settings:normal;text-indent:0;text-align:start;text-decoration:none;text-decoration-line:none;text-decoration-style:solid;text-decoration-color:#000000;letter-spacing:normal;word-spacing:normal;text-transform:none;writing-mode:lr-tb;direction:ltr;text-orientation:mixed;dominant-baseline:auto;baseline-shift:baseline;text-anchor:start;white-space:normal;shape-padding:0;shape-margin:0;inline-size:0;clip-rule:nonzero;display:inline;overflow:visible;visibility:visible;opacity:1;isolation:auto;mix-blend-mode:normal;color-interpolation:sRGB;color-interpolation-filters:linearRGB;solid-color:#000000;solid-opacity:1;vector-effect:none;fill:#253898;fill-opacity:1;fill-rule:nonzero;stroke:none;stroke-width:0.264583;stroke-linecap:butt;stroke-linejoin:miter;stroke-miterlimit:4;stroke-dasharray:none;stroke-dashoffset:0;stroke-opacity:1;color-rendering:auto;image-rendering:auto;shape-rendering:auto;text-rendering:auto;enable-background:accumulate;stop-color:#000000;stop-opacity:1" d="m 175.95015,-24.855485 c 4.75879,0 8.62512,3.864932 8.62512,8.62372 V 104.63562 c 0,4.75879 -3.86633,8.62512 -8.62512,8.62512 H 7.7543131 c -4.75872,0 -8.62365999,-3.86633 -8.62365999,-8.62512 V -16.231769 c 0,-4.758788 3.86493999,-8.62372 8.62365999,-8.62372 z" id="path37716" />
    <g id="g13501" transform="matrix(0.17610747,0,0,0.17610747,33.318283,-8.9570941)" style="stroke-width:1.5024" />
    <path id="path27811" style="color:#000000;font-style:normal;font-variant:normal;font-weight:normal;font-stretch:normal;font-size:medium;line-height:normal;font-family:sans-serif;font-variant-ligatures:normal;font-variant-position:normal;font-variant-caps:normal;font-variant-numeric:normal;font-variant-alternates:normal;font-variant-east-asian:normal;font-feature-settings:normal;font-variation-settings:normal;text-indent:0;text-align:start;text-decoration:none;text-decoration-line:none;text-decoration-style:solid;text-decoration-color:#000000;letter-spacing:normal;word-spacing:normal;text-transform:none;writing-mode:lr-tb;direction:ltr;text-orientation:mixed;dominant-baseline:auto;baseline-shift:baseline;text-anchor:start;white-space:normal;shape-padding:0;shape-margin:0;inline-size:0;clip-rule:nonzero;display:inline;overflow:visible;visibility:visible;opacity:1;isolation:auto;mix-blend-mode:normal;color-interpolation:sRGB;color-interpolation-filters:linearRGB;solid-color:#000000;solid-opacity:1;vector-effect:none;fill:#ffffff;fill-opacity:1;fill-rule:nonzero;stroke:none;stroke-width:0.792936;stroke-linecap:butt;stroke-linejoin:miter;stroke-miterlimit:4;stroke-dasharray:none;stroke-dashoffset:0;stroke-opacity:1;color-rendering:auto;image-rendering:auto;shape-rendering:auto;text-rendering:auto;enable-background:accumulate;stop-color:#000000;stop-opacity:1" d="m 175.95008,-22.639983 c 3.56936,0 6.40815,2.838858 6.40815,6.408218 V 104.63562 c 0,3.56936 -2.83879,6.40815 -6.40815,6.40815 H 7.7542331 c -3.56937,0 -6.40814,-2.83879 -6.40814,-6.40815 V -16.231769 c 0,-3.56936 2.83877,-6.408218 6.40814,-6.408218 z m 0.007,2.264585 -168.2059669,-4e-6 c -2.28677,0 -4.12766,1.855311 -4.12766,4.150813 V 104.63998 c 0,2.28848 1.8391,4.12766 4.12766,4.12766 H 175.95752 c 2.28856,0 4.12766,-1.83918 4.12766,-4.12766 V -16.224585 c 0,-2.295502 -1.84088,-4.150813 -4.12766,-4.150813 z" />
    <path style="fill:#ffffff;fill-opacity:1;fill-rule:nonzero;stroke:none;stroke-width:0.699037" d="M 134.66127,-18.496494 H 91.85263 l 42.80864,62.699501 -42.80864,62.700023 h 42.80864 l 42.80898,-62.700023 z" id="path17" />
    <path style="fill:#ffffff;fill-opacity:1;fill-rule:nonzero;stroke:none;stroke-width:0.699037" d="M 49.043643,-18.496494 H 6.2350131 L 49.043643,44.203007 6.2350131,106.90303 H 49.043643 L 91.85263,44.203007 Z" id="path847" />
  </g>
</svg>
