<?xml version="1.0" encoding="UTF-8"?>
<svg xmlns="http://www.w3.org/2000/svg" xmlns:ns1="http://sodipodi.sourceforge.net/DTD/sodipodi-0.dtd" viewBox="0 0 173.00171 84.848633" height="84.848633" width="173.00171" id="svg14967" version="1.1">
  <defs id="defs14971" />
  <ns1:namedview showguides="false" showgrid="false" id="namedview14969" guidetolerance="10" gridtolerance="10" objecttolerance="10" borderopacity="1" bordercolor="#666666" pagecolor="#ffffff" />
  <g transform="translate(-1.784077,-2.9603931)" id="g14975">
    <path style="color:#000000;font-style:normal;font-variant:normal;font-weight:normal;font-stretch:normal;font-size:medium;line-height:normal;font-family:sans-serif;font-variant-ligatures:normal;font-variant-position:normal;font-variant-caps:normal;font-variant-numeric:normal;font-variant-alternates:normal;font-variant-east-asian:normal;font-feature-settings:normal;font-variation-settings:normal;text-indent:0;text-align:start;text-decoration:none;text-decoration-line:none;text-decoration-style:solid;text-decoration-color:#000000;letter-spacing:normal;word-spacing:normal;text-transform:none;writing-mode:lr-tb;direction:ltr;text-orientation:mixed;dominant-baseline:auto;baseline-shift:baseline;text-anchor:start;white-space:normal;shape-padding:0;shape-margin:0;inline-size:0;clip-rule:nonzero;display:inline;overflow:visible;visibility:visible;opacity:1;isolation:auto;mix-blend-mode:normal;color-interpolation:sRGB;color-interpolation-filters:linearRGB;solid-color:#000000;solid-opacity:1;vector-effect:none;fill:#ffffff;fill-opacity:1;fill-rule:nonzero;stroke:none;stroke-width:3.18896;stroke-linecap:butt;stroke-linejoin:miter;stroke-miterlimit:4;stroke-dasharray:none;stroke-dashoffset:0;stroke-opacity:1;color-rendering:auto;image-rendering:auto;shape-rendering:auto;text-rendering:auto;enable-background:accumulate;stop-color:#000000;stop-opacity:1" d="m 14.445556,4.8044319 c -5.992049,0 -10.817439,4.8253882 -10.817439,10.8174381 v 59.525677 c 0,5.992049 4.82539,10.817439 10.817439,10.817439 H 162.12432 c 5.99204,0 10.81743,-4.82539 10.81743,-10.817439 V 15.62187 c 0,-5.9920499 -4.82539,-10.8174381 -10.81743,-10.8174381 z" id="path11391" />
    <path style="color:#000000;font-style:normal;font-variant:normal;font-weight:normal;font-stretch:normal;font-size:medium;line-height:normal;font-family:sans-serif;font-variant-ligatures:normal;font-variant-position:normal;font-variant-caps:normal;font-variant-numeric:normal;font-variant-alternates:normal;font-variant-east-asian:normal;font-feature-settings:normal;font-variation-settings:normal;text-indent:0;text-align:start;text-decoration:none;text-decoration-line:none;text-decoration-style:solid;text-decoration-color:#000000;letter-spacing:normal;word-spacing:normal;text-transform:none;writing-mode:lr-tb;direction:ltr;text-orientation:mixed;dominant-baseline:auto;baseline-shift:baseline;text-anchor:start;white-space:normal;shape-padding:0;shape-margin:0;inline-size:0;clip-rule:nonzero;display:inline;overflow:visible;visibility:visible;opacity:1;isolation:auto;mix-blend-mode:normal;color-interpolation:sRGB;color-interpolation-filters:linearRGB;solid-color:#000000;solid-opacity:1;vector-effect:none;fill:#244a38;fill-opacity:1;fill-rule:nonzero;stroke:none;stroke-width:0.5;stroke-linecap:butt;stroke-linejoin:miter;stroke-miterlimit:4;stroke-dasharray:none;stroke-dashoffset:0;stroke-opacity:1;color-rendering:auto;image-rendering:auto;shape-rendering:auto;text-rendering:auto;enable-background:accumulate;stop-color:#000000;stop-opacity:1" d="m 14.445556,3.2103931 c -6.848069,0 -12.411479,5.5634052 -12.411479,12.4114769 v 59.525677 c 0,6.848071 5.56341,12.411479 12.411479,12.411479 H 162.12432 c 6.84806,0 12.41147,-5.563409 12.41147,-12.411479 V 15.62187 c 0,-6.8480707 -5.56341,-12.4114769 -12.41147,-12.4114769 z m 0,3.1880784 H 162.12432 c 5.13603,0 9.22339,4.0873695 9.22339,9.2233985 v 59.525677 c 0,5.13603 -4.08736,9.2234 -9.22339,9.2234 H 14.445556 c -5.136029,0 -9.223399,-4.08737 -9.223399,-9.2234 V 15.62187 c 0,-5.136028 4.087371,-9.2233985 9.223399,-9.2233985 z" id="path11393" />
    <path id="path11374" style="color:#000000;font-style:normal;font-variant:normal;font-weight:normal;font-stretch:normal;font-size:medium;line-height:normal;font-family:sans-serif;font-variant-ligatures:normal;font-variant-position:normal;font-variant-caps:normal;font-variant-numeric:normal;font-variant-alternates:normal;font-variant-east-asian:normal;font-feature-settings:normal;font-variation-settings:normal;text-indent:0;text-align:start;text-decoration:none;text-decoration-line:none;text-decoration-style:solid;text-decoration-color:#000000;letter-spacing:normal;word-spacing:normal;text-transform:none;writing-mode:lr-tb;direction:ltr;text-orientation:mixed;dominant-baseline:auto;baseline-shift:baseline;text-anchor:start;white-space:normal;shape-padding:0;shape-margin:0;inline-size:0;clip-rule:nonzero;display:inline;overflow:visible;visibility:visible;opacity:1;isolation:auto;mix-blend-mode:normal;color-interpolation:sRGB;color-interpolation-filters:linearRGB;solid-color:#000000;solid-opacity:1;vector-effect:none;fill:#244a38;fill-opacity:1;fill-rule:nonzero;stroke:none;stroke-width:3.18896;stroke-linecap:butt;stroke-linejoin:miter;stroke-miterlimit:4;stroke-dasharray:none;stroke-dashoffset:0;stroke-opacity:1;color-rendering:auto;image-rendering:auto;shape-rendering:auto;text-rendering:auto;enable-background:accumulate;stop-color:#000000;stop-opacity:1" d="m 14.439322,9.6572101 c -3.290636,0 -5.939721,2.6697639 -5.939721,5.9729739 v 59.523598 c 0,3.293173 2.646548,5.939719 5.939721,5.939719 H 162.1347 c 3.29318,0 5.93972,-2.646544 5.93972,-5.939719 V 15.630184 c 0,-3.303212 -2.64908,-5.9729739 -5.93972,-5.9729739 z" />
    <path style="opacity:1;fill:#ffffff;fill-opacity:1;stroke:none;stroke-width:0.857357" d="m 133.79353,63.180508 h -2.49629 v -6.448102 c 0,-0.462613 -0.1702,-0.861171 -0.5043,-1.195675 -0.3278,-0.341621 -0.71548,-0.512432 -1.15989,-0.512432 -0.44757,0 -0.81949,0.177927 -1.12207,0.526666 -0.30258,0.341622 -0.45387,0.736622 -0.45387,1.181441 v 6.448102 h -2.44586 v -6.505039 c 0,-0.427027 -0.14498,-0.804234 -0.42865,-1.138738 -0.28682,-0.341621 -0.66505,-0.512432 -1.13468,-0.512432 -0.47278,0 -0.87622,0.163693 -1.21032,0.483964 -0.32779,0.323828 -0.49169,0.711711 -0.49169,1.167206 v 6.505039 h -2.54672 V 52.419437 h 2.54672 v 0.669008 c 0.74699,-0.5409 1.54442,-0.811351 2.39543,-0.811351 1.05903,0 1.89428,0.419909 2.50889,1.252612 0.88252,-0.814909 1.82809,-1.224143 2.83669,-1.224143 1.0149,0 1.88482,0.348738 2.60975,1.039098 0.73124,0.693919 1.09686,1.530178 1.09686,2.505223 z m 0,0" id="path1453" />
    <g id="use3113" style="opacity:1;fill:#ffffff;fill-opacity:1" transform="matrix(2.0180511,0,0,2.9119072,63.904032,62.473009)">
      <path id="path14353" d="m 6.296875,-12.140625 c 1.425781,0 2.613281,0.554687 3.5625,1.65625 0.945313,1.105469 1.421875,2.601562 1.421875,4.484375 0,1.875 -0.449219,3.367187 -1.34375,4.46875 C 9.039063,-0.425781 7.8125,0.125 6.25,0.125 4.695313,0.125 3.46875,-0.414063 2.5625,-1.5 1.65625,-2.59375 1.203125,-4.082031 1.203125,-5.96875 c 0,-1.894531 0.453125,-3.394531 1.359375,-4.5 0.90625,-1.113281 2.148438,-1.671875 3.734375,-1.671875 z M 6.40625,-2.25 c 0.75,0 1.359375,-0.347656 1.828125,-1.046875 C 8.703125,-4.003906 8.9375,-4.957031 8.9375,-6.15625 8.9375,-7.351563 8.722656,-8.253906 8.296875,-8.859375 7.867188,-9.472656 7.191406,-9.78125 6.265625,-9.78125 c -1.804687,0 -2.703125,1.273437 -2.703125,3.8125 0,1.199219 0.242188,2.121094 0.734375,2.765625 C 4.785156,-2.566406 5.488281,-2.25 6.40625,-2.25 Z m 0,0" style="fill:#ffffff;stroke:none" />
    </g>
    <g transform="matrix(2.0180511,0,0,2.9119072,90.304032,62.473009)" style="opacity:1;fill:#ffffff;fill-opacity:1" id="g15019">
      <path style="fill:#ffffff;stroke:none" d="m 6.296875,-12.140625 c 1.425781,0 2.613281,0.554687 3.5625,1.65625 0.945313,1.105469 1.421875,2.601562 1.421875,4.484375 0,1.875 -0.449219,3.367187 -1.34375,4.46875 C 9.039063,-0.425781 7.8125,0.125 6.25,0.125 4.695313,0.125 3.46875,-0.414063 2.5625,-1.5 1.65625,-2.59375 1.203125,-4.082031 1.203125,-5.96875 c 0,-1.894531 0.453125,-3.394531 1.359375,-4.5 0.90625,-1.113281 2.148438,-1.671875 3.734375,-1.671875 z M 6.40625,-2.25 c 0.75,0 1.359375,-0.347656 1.828125,-1.046875 C 8.703125,-4.003906 8.9375,-4.957031 8.9375,-6.15625 8.9375,-7.351563 8.722656,-8.253906 8.296875,-8.859375 7.867188,-9.472656 7.191406,-9.78125 6.265625,-9.78125 c -1.804687,0 -2.703125,1.273437 -2.703125,3.8125 0,1.199219 0.242188,2.121094 0.734375,2.765625 C 4.785156,-2.566406 5.488281,-2.25 6.40625,-2.25 Z m 0,0" id="path15017" />
    </g>
    <g transform="matrix(2.0933281,0,0,2.8297826,-205.42483,-271.43907)" id="g3099" style="opacity:1;fill:#ffffff;fill-opacity:1">
      <g style="fill:#ffffff" id="use3097" transform="translate(120.93311,118.08)">
        <path style="fill:#ffffff;stroke:none" d="M 5.046875,0 H 2.640625 V -8.25 H 1.4375 v -2.484375 c 0.6875,-0.21875 1.132813,-0.6875 1.34375,-1.40625 h 2.265625 z m 0,0" id="path15045" />
      </g>
    </g>
  </g>
</svg>
