<?xml version="1.0" encoding="UTF-8"?>
<svg xmlns="http://www.w3.org/2000/svg" xmlns:ns1="http://sodipodi.sourceforge.net/DTD/sodipodi-0.dtd" viewBox="0 0 501.18945 361.54355" height="361.54355" width="501.18945" id="svg3807" version="1.1">
  <defs id="defs3811" />
  <ns1:namedview showgrid="false" id="namedview3809" guidetolerance="10" gridtolerance="10" objecttolerance="10" borderopacity="1" bordercolor="#666666" pagecolor="#ffffff" />
  <g transform="translate(598.66146,28.257641)" id="g3815">
    <path style="color:#000000;font-style:normal;font-variant:normal;font-weight:normal;font-stretch:normal;font-size:medium;line-height:normal;font-family:sans-serif;font-variant-ligatures:normal;font-variant-position:normal;font-variant-caps:normal;font-variant-numeric:normal;font-variant-alternates:normal;font-variant-east-asian:normal;font-feature-settings:normal;font-variation-settings:normal;text-indent:0;text-align:start;text-decoration:none;text-decoration-line:none;text-decoration-style:solid;text-decoration-color:#000000;letter-spacing:normal;word-spacing:normal;text-transform:none;writing-mode:lr-tb;direction:ltr;text-orientation:mixed;dominant-baseline:auto;baseline-shift:baseline;text-anchor:start;white-space:normal;shape-padding:0;shape-margin:0;inline-size:0;clip-rule:nonzero;display:inline;overflow:visible;visibility:visible;opacity:1;isolation:auto;mix-blend-mode:normal;color-interpolation:sRGB;color-interpolation-filters:linearRGB;solid-color:#000000;solid-opacity:1;vector-effect:none;fill:#ffffff;fill-opacity:1;fill-rule:nonzero;stroke:none;stroke-width:7.80889;stroke-linecap:butt;stroke-linejoin:miter;stroke-miterlimit:4;stroke-dasharray:none;stroke-dashoffset:0;stroke-opacity:1;color-rendering:auto;image-rendering:auto;shape-rendering:auto;text-rendering:auto;enable-background:accumulate;stop-color:#000000;stop-opacity:1" d="m -567.67696,-23.758128 h 439.21832 c 14.67288,0 26.48535,11.812675 26.48535,26.4852582 V 302.30374 c 0,14.6736 -11.81247,26.48618 -26.48535,26.48618 h -439.21832 c -14.6729,0 -26.48529,-11.81258 -26.48529,-26.48618 V 2.7271302 c 0,-14.6725832 11.81239,-26.4852582 26.48529,-26.4852582 z" id="path14379" />
    <path style="color:#000000;font-style:normal;font-variant:normal;font-weight:normal;font-stretch:normal;font-size:medium;line-height:normal;font-family:sans-serif;font-variant-ligatures:normal;font-variant-position:normal;font-variant-caps:normal;font-variant-numeric:normal;font-variant-alternates:normal;font-variant-east-asian:normal;font-feature-settings:normal;font-variation-settings:normal;text-indent:0;text-align:start;text-decoration:none;text-decoration-line:none;text-decoration-style:solid;text-decoration-color:#000000;letter-spacing:normal;word-spacing:normal;text-transform:none;writing-mode:lr-tb;direction:ltr;text-orientation:mixed;dominant-baseline:auto;baseline-shift:baseline;text-anchor:start;white-space:normal;shape-padding:0;shape-margin:0;inline-size:0;clip-rule:nonzero;display:inline;overflow:visible;visibility:visible;opacity:1;isolation:auto;mix-blend-mode:normal;color-interpolation:sRGB;color-interpolation-filters:linearRGB;solid-color:#000000;solid-opacity:1;vector-effect:none;fill:#1b4833;fill-opacity:1;fill-rule:nonzero;stroke:none;stroke-width:1.18946;stroke-linecap:butt;stroke-linejoin:miter;stroke-miterlimit:4;stroke-dasharray:none;stroke-dashoffset:0;stroke-opacity:1;color-rendering:auto;image-rendering:auto;shape-rendering:auto;text-rendering:auto;enable-background:accumulate;stop-color:#000000;stop-opacity:1" d="m -567.67929,-27.662911 c -16.76847,0 -30.38744,13.618875 -30.38744,30.3873162 V 302.30374 c 0,16.76857 13.61897,30.38745 30.38744,30.38745 h 439.21866 c 16.76837,0 30.3939,-13.61888 30.3939,-30.38745 V 2.7244052 c 0,-16.7684412 -13.62553,-30.3873162 -30.3939,-30.3873162 z m 0,7.8097 h 439.21866 c 12.57736,0 22.58439,9.9999829 22.58449,22.5776162 V 302.30374 c 0,12.57685 -10.00713,22.58411 -22.58449,22.58411 h -439.21866 c -12.57734,0 -22.57801,-10.00726 -22.57801,-22.58411 V 2.7244052 c 0,-12.5776333 10.00067,-22.5776162 22.57801,-22.5776162 z" id="path14381" />
    <path d="m -582.24081,173.32188 v 128.99457 c 0,8.0642 6.4832,14.54766 14.54771,14.54766 h 439.25934 c 8.06441,0 14.54768,-6.48346 14.54768,-14.54766 V 173.32188 Z" style="color:#000000;font-style:normal;font-variant:normal;font-weight:normal;font-stretch:normal;font-size:medium;line-height:normal;font-family:sans-serif;font-variant-ligatures:normal;font-variant-position:normal;font-variant-caps:normal;font-variant-numeric:normal;font-variant-alternates:normal;font-variant-east-asian:normal;font-feature-settings:normal;font-variation-settings:normal;text-indent:0;text-align:start;text-decoration:none;text-decoration-line:none;text-decoration-style:solid;text-decoration-color:#000000;letter-spacing:normal;word-spacing:normal;text-transform:none;writing-mode:lr-tb;direction:ltr;text-orientation:mixed;dominant-baseline:auto;baseline-shift:baseline;text-anchor:start;white-space:normal;shape-padding:0;shape-margin:0;inline-size:0;clip-rule:nonzero;display:inline;overflow:visible;visibility:visible;opacity:1;isolation:auto;mix-blend-mode:normal;color-interpolation:sRGB;color-interpolation-filters:linearRGB;solid-color:#000000;solid-opacity:1;vector-effect:none;fill:#1b4833;fill-opacity:1;fill-rule:nonzero;stroke:none;stroke-width:7.80889;stroke-linecap:butt;stroke-linejoin:miter;stroke-miterlimit:4;stroke-dasharray:none;stroke-dashoffset:0;stroke-opacity:1;color-rendering:auto;image-rendering:auto;shape-rendering:auto;text-rendering:auto;enable-background:accumulate;stop-color:#000000;stop-opacity:1" id="path14383" />
    <path d="m -397.45325,14.325897 v 14.614858 h 11.04135 c 2.551,0 4.60447,2.053309 4.60447,4.605 V 116.7164 c 0,2.55156 -2.05347,4.60487 -4.60447,4.60487 h -11.04135 v 15.34906 h 56.73158 v -15.34906 h -13.1224 c -2.551,0 -4.60504,-2.05331 -4.60504,-4.60487 V 74.632764 h 36.49899 c 13.85531,-2.875342 24.20603,-15.099875 24.20603,-29.832642 0,-16.882592 -13.59145,-30.474225 -30.47418,-30.474225 h -12.5034 -26.89554 z m 39.62971,14.363458 h 16.38887 c 8.77866,0 15.84593,7.067709 15.84593,15.846142 0,8.778433 -7.06727,15.846275 -15.84593,15.846275 h -16.38887 z" style="opacity:1;fill:#1b4833;fill-opacity:1;stroke:none;stroke-width:2.32222;stroke-miterlimit:4;stroke-dasharray:none;stroke-opacity:1;paint-order:stroke fill markers" id="path14385" />
    <path style="opacity:1;fill:#ffffff;fill-opacity:1;fill-rule:nonzero;stroke:none;stroke-width:7.37438" d="m -521.71024,217.83825 0.69148,-8.87299 9.10275,0.58048 c 1.20981,0.10118 1.84355,0.46025 1.84355,1.15164 0,0.32028 -0.2882,0.92074 -0.80655,1.84421 -0.54737,0.92074 -0.92164,2.70787 -1.15227,5.29965 h 29.95842 v 7.83551 h -30.64972 l -0.57639,5.5308 h 26.04085 v 39.1769 c 0,2.13141 -0.40325,3.8315 -1.15228,5.0694 -0.77753,1.29692 -2.24694,2.30471 -4.37851,2.99611 -2.0741,0.75041 -5.15634,1.38292 -9.21802,1.84316 -0.40327,-3.16811 -1.58438,-6.56738 -3.57204,-10.25501 2.99584,0.52042 5.01232,0.8106 6.10698,0.8106 1.06583,0 1.7572,-0.20002 2.07403,-0.58035 0.28818,-0.40032 0.46132,-1.09483 0.46132,-2.07446 v -29.152 h -12.78997 c 2.30448,0.86054 3.9465,1.44091 4.9547,1.72926 1.06582,0.32015 1.6131,0.75043 1.6131,1.2667 0,0.55053 -0.34624,1.03685 -1.03702,1.49813 -0.69146,0.40017 -2.16047,1.8433 -4.3785,4.37903 h 7.95054 v 7.02775 h -12.44432 v 4.26398 h 13.1357 v 7.25891 h -13.1357 v 9.90997 h -9.10275 v -9.90997 h -12.90516 v -7.25891 h 12.90516 v -4.26398 h -12.21379 v -7.02775 h 7.95048 c -1.32512,-2.21857 -2.82304,-4.32092 -4.4938,-6.33739 l 6.33735,-2.53573 h -12.67471 v 41.13538 h -9.21802 v -48.97064 h 23.62113 l 0.4613,-5.5308 h -29.03662 v -7.8346 z m 9.10275,21.20066 h -9.79413 c 1.38276,2.2475 2.67905,4.4941 3.91769,6.79867 l -5.64608,2.07433 h 7.60493 c 1.67075,-2.59268 2.99576,-5.55974 3.91759,-8.873 z m 0,0" id="path14387" />
    <path style="opacity:1;fill:#ffffff;fill-opacity:1;fill-rule:nonzero;stroke:none;stroke-width:7.37438" d="m -396.35851,269.22853 v 7.02802 h -9.67895 v -57.15134 h 53.92532 v 56.92121 h -10.4855 v -6.79789 z m 33.76087,-8.1816 v -33.52987 h -33.76087 v 33.52987 z m 0,0" id="path14389" />
    <path id="path14515" d="m -233.08962,280.28301 h -10.83668 v -47.5645 h -5.48706 v -14.2868 c 3.08632,-1.26436 5.10977,-4.00778 6.03551,-8.18977 h 10.28823 z m 0,0" style="opacity:1;fill:#ffffff;fill-opacity:1;fill-rule:nonzero;stroke:none;stroke-width:9.89408" />
    <path id="path14517" d="m -184.53149,253.95276 -5.84551,7.95511 5.7064,18.38447 h -5.7064 l -3.68827,-12.28614 -3.27072,4.24282 v 8.04332 h -5.49756 v -33.14487 l 5.49756,-2.74042 v 16.97015 l 5.84551,-7.42444 z m 0,0" style="opacity:1;fill:#ffffff;fill-opacity:1;fill-rule:nonzero;stroke:none;stroke-width:5.01936" />
    <path id="path14519" d="m -147.55115,280.29234 h -5.42802 v -15.82045 c 0,-1.10637 -0.38251,-2.07809 -1.11349,-2.91672 -0.74865,-0.81775 -1.60044,-1.23466 -2.57468,-1.23466 -0.93927,0 -1.73981,0.41691 -2.43568,1.23466 -0.66155,0.83383 -0.97466,1.8119 -0.97466,2.91672 v 15.82045 h -5.35842 v -15.91008 c 0,-1.05851 -0.31308,-1.98846 -0.90519,-2.82709 -0.60851,-0.81775 -1.4439,-1.23466 -2.50511,-1.23466 -1.02641,0 -1.91365,0.4007 -2.64439,1.1545 -0.69559,0.76974 -1.04406,1.74613 -1.04406,2.91671 v 15.91022 h -5.49752 V 253.9625 h 5.49752 v 1.58736 c 1.61798,-1.28279 3.3577,-1.94345 5.21918,-1.94345 2.31387,0 4.14066,1.01012 5.49769,3.00506 1.89622,-1.98846 3.96655,-3.00506 6.19343,-3.00506 2.22676,0 4.12312,0.86588 5.70625,2.56246 1.56585,1.72383 2.36612,3.75717 2.36612,6.09975 z m 0,0" style="opacity:1;fill:#ffffff;fill-opacity:1;fill-rule:nonzero;stroke:none;stroke-width:5.01936" />
  </g>
</svg>
