<?xml version="1.0" encoding="UTF-8"?>
<svg xmlns="http://www.w3.org/2000/svg" xmlns:ns1="http://sodipodi.sourceforge.net/DTD/sodipodi-0.dtd" viewBox="0 0 163.4064 167.40439" height="167.40439" width="163.4064" id="svg97" version="1.1">
  <defs id="defs101" />
  <ns1:namedview showgrid="false" id="namedview99" guidetolerance="10" gridtolerance="10" objecttolerance="10" borderopacity="1" bordercolor="#666666" pagecolor="#ffffff" />
  <g transform="translate(-3.949,-1.2226776)" id="g105">
    <path style="color:#000000;font-style:normal;font-variant:normal;font-weight:normal;font-stretch:normal;font-size:medium;line-height:normal;font-family:sans-serif;font-variant-ligatures:normal;font-variant-position:normal;font-variant-caps:normal;font-variant-numeric:normal;font-variant-alternates:normal;font-variant-east-asian:normal;font-feature-settings:normal;font-variation-settings:normal;text-indent:0;text-align:start;text-decoration:none;text-decoration-line:none;text-decoration-style:solid;text-decoration-color:#000000;letter-spacing:normal;word-spacing:normal;text-transform:none;writing-mode:lr-tb;direction:ltr;text-orientation:mixed;dominant-baseline:auto;baseline-shift:baseline;text-anchor:start;white-space:normal;shape-padding:0;shape-margin:0;inline-size:0;clip-rule:nonzero;display:inline;overflow:visible;visibility:visible;opacity:1;isolation:auto;mix-blend-mode:normal;color-interpolation:sRGB;color-interpolation-filters:linearRGB;solid-color:#000000;solid-opacity:1;vector-effect:none;fill:#ffffff;fill-opacity:1;fill-rule:nonzero;stroke:none;stroke-width:2.41764;stroke-linecap:butt;stroke-linejoin:miter;stroke-miterlimit:4;stroke-dasharray:none;stroke-dashoffset:0;stroke-opacity:1;color-rendering:auto;image-rendering:auto;shape-rendering:auto;text-rendering:auto;enable-background:accumulate;stop-color:#000000;stop-opacity:1" d="M 13.607729,2.6815394 H 157.696 c 4.54276,0 8.19991,3.657155 8.19991,8.1999106 v 148.08784 c 0,4.54275 -3.65715,8.1999 -8.19991,8.1999 H 13.607729 c -4.5427471,0 -8.1999067,-3.65715 -8.1999067,-8.1999 l -4e-7,-148.08784 c 0,-4.5427556 3.6571591,-8.1999106 8.1999071,-8.1999106 z" id="path81" />
    <path d="M 9.0996094,57.974609 V 158.97266 c 0,2.49678 2.0071286,4.5039 4.5039066,4.5039 H 157.70312 c 2.49677,0 4.50391,-2.00712 4.50391,-4.5039 V 57.974609 H 156.89844 14.396484 Z" style="color:#000000;font-style:normal;font-variant:normal;font-weight:normal;font-stretch:normal;font-size:medium;line-height:normal;font-family:sans-serif;font-variant-ligatures:normal;font-variant-position:normal;font-variant-caps:normal;font-variant-numeric:normal;font-variant-alternates:normal;font-variant-east-asian:normal;font-feature-settings:normal;font-variation-settings:normal;text-indent:0;text-align:start;text-decoration:none;text-decoration-line:none;text-decoration-style:solid;text-decoration-color:#000000;letter-spacing:normal;word-spacing:normal;text-transform:none;writing-mode:lr-tb;direction:ltr;text-orientation:mixed;dominant-baseline:auto;baseline-shift:baseline;text-anchor:start;white-space:normal;shape-padding:0;shape-margin:0;inline-size:0;clip-rule:nonzero;display:inline;overflow:visible;visibility:visible;opacity:1;isolation:auto;mix-blend-mode:normal;color-interpolation:sRGB;color-interpolation-filters:linearRGB;solid-color:#000000;solid-opacity:1;vector-effect:none;fill:#24513d;fill-opacity:1;fill-rule:nonzero;stroke:none;stroke-width:2.41764;stroke-linecap:butt;stroke-linejoin:miter;stroke-miterlimit:4;stroke-dasharray:none;stroke-dashoffset:0;stroke-opacity:1;color-rendering:auto;image-rendering:auto;shape-rendering:auto;text-rendering:auto;enable-background:accumulate;stop-color:#000000;stop-opacity:1" id="path75" />
    <path d="m 79.128979,67.713253 -5.47851,29.169922 h 10.36133 V 67.713253 Z m 8.78321,0 v 29.169922 h 10.36132 l -5.47851,-29.169922 z m -34.35157,30.554688 v 3.642579 h 7.41211 v 3.81055 h 3.73633 v -3.81055 h 42.662111 v 3.81055 h 3.73633 v -3.81055 h 5.92383 v -3.642579 h -5.92383 -3.73633 -42.662111 -3.73633 z m 18.85743,5.171879 -9.28907,49.45898 h 20.88282 v -49.45898 z m 15.49414,0 V 152.8988 H 108.795 l -9.289061,-49.45898 z" style="opacity:1;fill:#ffffff;stroke-width:1.04573" id="rect133" />
    <path id="path414" d="m 37.843119,27.232835 c 2.024,-1.685154 3.63235,-3.36579 4.82505,-5.041909 2.16857,1.843278 3.3161,2.837204 3.45164,2.981773 0.14456,0.135536 0.21685,0.271072 0.21685,0.415641 0,0.280106 -0.28462,0.501481 -0.84935,0.668641 -0.84485,0.243963 -2.84624,1.698707 -5.99969,4.373268 2.2047,3.939556 5.11871,6.821937 8.74653,8.638108 -1.74841,1.432156 -2.99533,2.647455 -3.74077,3.650415 -3.75884,-2.963703 -6.62315,-6.830973 -8.58389,-11.601811 v 10.011531 c 0,1.192709 -0.15813,2.096277 -0.46985,2.710703 -0.31625,0.623464 -0.92165,1.075247 -1.82521,1.355353 -0.90357,0.289142 -2.28603,0.46082 -4.13834,0.524069 -0.0994,-1.725815 -0.58732,-3.180559 -1.46378,-4.373268 1.25144,0.14457 2.14145,0.216856 2.67455,0.216856 0.54214,0 0.89002,-0.07229 1.04814,-0.216856 0.15361,-0.144571 0.23494,-0.411124 0.23494,-0.79514 V 17.492373 h 3.41548 c 0.68671,0 1.03006,0.140054 1.03006,0.415642 0,0.121982 -0.0632,0.338838 -0.18071,0.650569 -0.12198,0.302695 -0.19878,0.596354 -0.23493,0.885496 -0.0362,0.280105 -0.0678,0.758997 -0.0904,1.445708 0.47889,2.123384 1.12494,4.237733 1.93364,6.343047 z m -6.3069,-2.65649 c -0.26655,4.156412 -1.0617,7.608041 -2.38542,10.354887 -1.32824,2.746847 -3.45163,5.416889 -6.37919,8.005611 -1.30114,-1.133978 -2.55709,-2.014956 -3.75884,-2.638418 4.46814,-2.769435 7.21499,-6.83549 8.24053,-12.198165 h -7.1201 v -3.523915 z m 0,0" style="opacity:1;fill:#24513d;fill-opacity:1;stroke:none;stroke-width:1.15656" />
    <path id="path418" d="m 65.259939,20.004292 c -0.10842,-0.79514 -0.27106,-1.662565 -0.48793,-2.602275 l 4.93349,-0.469856 c 0.14457,1.039103 0.24396,2.060135 0.30721,3.072131 h 10.80667 v 6.252689 h -4.06606 v -2.999845 h -18.57734 v 2.060134 h 18.52313 v 8.367039 h -15.12573 v 1.644493 h 16.69794 v 10.101889 h -4.15641 v -1.644494 h -12.54153 v 1.951707 h -3.9034 v -19.44478 h -3.3432 v -6.288832 z m -3.68656,8.52968 v 2.060135 h 10.98739 v -2.060135 z m 0,12.252379 h 12.54153 v -2.367347 h -12.54153 z m 0,0" style="opacity:1;fill:#24513d;fill-opacity:1;stroke:none;stroke-width:1.15656" />
    <path id="path422" d="m 101.52474,19.769364 c -0.15813,-0.876461 -0.32529,-1.649011 -0.506,-2.313133 l 4.75277,-0.433713 c 0.2033,1.061693 0.33431,1.978813 0.39756,2.746846 h 10.33682 v 3.144417 H 90.392779 v -3.144417 z m 10.73438,10.951242 H 95.127469 V 23.83542 H 112.25912 Z M 108.0485,28.10026 v -1.572208 h -9.035681 v 1.572208 z m -7.22856,14.52937 v 1.011996 h -3.307051 v -7.98754 h 11.927091 v 6.252689 c 0.70931,0.108429 1.21982,0.162643 1.53607,0.162643 0.31174,0 0.51052,-0.06777 0.59636,-0.198785 0.0813,-0.135535 0.1265,-0.393052 0.1265,-0.777068 V 34.714376 H 95.398539 v 10.752457 h -3.74077 V 31.660317 h 23.890341 v 9.794675 c 0,0.984889 -0.1536,1.761958 -0.45178,2.331205 -0.28915,0.56473 -0.83129,0.998442 -1.62643,1.301138 -0.7861,0.31173 -1.94719,0.515034 -3.48778,0.614426 -0.0135,-1.011997 -0.19426,-1.892976 -0.54214,-2.638418 v 0.451784 h -3.48777 V 42.62963 Z m 5.13227,-2.511919 v -1.789064 h -5.13227 v 1.789064 z m 0,0" style="opacity:1;fill:#24513d;fill-opacity:1;stroke:none;stroke-width:1.15656" />
    <path id="path426" d="m 140.99478,23.130637 h -7.28275 v -3.126345 h 7.28275 v -2.511919 h 3.30706 c 0.49244,0 0.74093,0.1265 0.74093,0.379499 0,0.135535 -0.0678,0.320767 -0.19879,0.560212 -0.13553,0.243963 -0.19879,0.768032 -0.19879,1.572208 h 7.46348 v 3.126345 h -7.49962 v 1.698708 h 6.16234 v 8.095966 h -3.48777 c 1.57671,1.314692 3.29349,2.873346 5.15033,4.680482 l -3.03598,2.367347 c -1.3147,-1.685154 -2.9095,-3.243809 -4.78892,-4.68048 v 5.222621 h -3.61427 v -5.45755 c -1.32824,1.843279 -3.1173,3.53295 -5.36719,5.05998 -0.78611,-0.831282 -1.73485,-1.680636 -2.85528,-2.548061 1.518,-0.804176 2.67456,-1.527029 3.46971,-2.168563 0.80417,-0.637015 1.54058,-1.46378 2.2047,-2.475776 h -3.48778 v -8.095966 h 6.03584 z m 0,6.9394 v -2.331205 h -2.56613 v 2.331205 z m 3.61427,-2.331205 v 2.331205 h 2.62035 v -2.331205 z m 0,5.186479 v 2.005921 l 2.36735,-2.005921 z m -11.04159,-9.252534 -3.74078,1.698707 c -0.80869,-1.902009 -1.91556,-3.74077 -3.32513,-5.511763 l 3.57813,-1.915564 c 1.54058,2.290545 2.70167,4.20159 3.48778,5.72862 z m 20.20377,17.05936 c -0.44726,1.201747 -0.759,2.502884 -0.93971,3.903412 -2.7107,0.10843 -5.18648,0.162643 -7.42733,0.162643 -4.87927,0 -8.12759,-0.180713 -9.74047,-0.54214 -1.60383,-0.352391 -2.74683,-0.840317 -3.43354,-1.463781 -0.44727,-0.411122 -0.77707,-0.614424 -0.99393,-0.614424 -0.20782,0 -0.45179,0.117464 -0.74093,0.361426 -0.2801,0.252998 -0.75448,0.695748 -1.42763,1.337281 -0.66413,0.650569 -1.13399,1.210781 -1.40957,1.680635 -1.19271,-1.242405 -2.23634,-2.295061 -3.12634,-3.162486 1.28758,-1.011997 2.24988,-1.698708 2.89141,-2.060135 0.63702,-0.361428 1.02104,-0.650569 1.15657,-0.867425 0.13102,-0.216857 0.19878,-0.605391 0.19878,-1.174639 v -8.095967 h -3.52391 v -3.361273 h 7.24661 V 37.69615 c 0,0.664123 0.26204,1.255958 0.79514,1.770993 0.52859,0.519552 1.14753,0.89905 1.86135,1.138495 0.72286,0.239445 1.87039,0.420159 3.45163,0.542141 1.59029,0.117464 3.79499,0.180713 6.61412,0.180713 2.82817,0 5.67892,-0.198784 8.54775,-0.596355 z m 0,0" style="opacity:1;fill:#24513d;fill-opacity:1;stroke:none;stroke-width:1.15656" />
    <path style="color:#000000;font-style:normal;font-variant:normal;font-weight:normal;font-stretch:normal;font-size:medium;line-height:normal;font-family:sans-serif;font-variant-ligatures:normal;font-variant-position:normal;font-variant-caps:normal;font-variant-numeric:normal;font-variant-alternates:normal;font-variant-east-asian:normal;font-feature-settings:normal;font-variation-settings:normal;text-indent:0;text-align:start;text-decoration:none;text-decoration-line:none;text-decoration-style:solid;text-decoration-color:#000000;letter-spacing:normal;word-spacing:normal;text-transform:none;writing-mode:lr-tb;direction:ltr;text-orientation:mixed;dominant-baseline:auto;baseline-shift:baseline;text-anchor:start;white-space:normal;shape-padding:0;shape-margin:0;inline-size:0;clip-rule:nonzero;display:inline;overflow:visible;visibility:visible;opacity:1;isolation:auto;mix-blend-mode:normal;color-interpolation:sRGB;color-interpolation-filters:linearRGB;solid-color:#000000;solid-opacity:1;vector-effect:none;fill:#24513d;fill-opacity:1;fill-rule:nonzero;stroke:none;stroke-width:0.5;stroke-linecap:butt;stroke-linejoin:miter;stroke-miterlimit:4;stroke-dasharray:none;stroke-dashoffset:0;stroke-opacity:1;color-rendering:auto;image-rendering:auto;shape-rendering:auto;text-rendering:auto;enable-background:accumulate;stop-color:#000000;stop-opacity:1" d="M 13.606992,1.4726776 C 8.4154666,1.4726776 4.199,5.6891287 4.199,10.880668 V 158.96907 c 0,5.19153 4.2164666,9.408 9.407992,9.408 H 157.69539 c 5.19154,0 9.41001,-4.21647 9.41001,-9.408 V 10.880668 c 0,-5.1915393 -4.21847,-9.4079904 -9.41001,-9.4079904 z m 0,2.4178184 H 157.69539 c 3.89398,0 6.99218,3.0961903 6.99219,6.990172 V 158.96907 c 0,3.89398 -3.09821,6.99219 -6.99219,6.99219 H 13.606992 c -3.8939706,0 -6.9901721,-3.09821 -6.9901721,-6.99219 V 10.880668 c 0,-3.8939817 3.0962015,-6.990172 6.9901721,-6.990172 z" id="path83" />
  </g>
</svg>
