<?xml version="1.0" encoding="UTF-8"?>
<svg xmlns="http://www.w3.org/2000/svg" xmlns:ns1="http://sodipodi.sourceforge.net/DTD/sodipodi-0.dtd" viewBox="0 0 188.24622 108.74354" height="108.74355" width="188.24622" id="svg4117" version="1.1">
  <defs id="defs4121" />
  <ns1:namedview showgrid="false" id="namedview4119" guidetolerance="10" gridtolerance="10" objecttolerance="10" borderopacity="1" bordercolor="#666666" pagecolor="#ffffff" />
  <g transform="translate(-5.776,-3.3784825)" id="g4125">
    <path style="color:#000000;font-style:normal;font-variant:normal;font-weight:normal;font-stretch:normal;font-size:medium;line-height:normal;font-family:sans-serif;font-variant-ligatures:normal;font-variant-position:normal;font-variant-caps:normal;font-variant-numeric:normal;font-variant-alternates:normal;font-variant-east-asian:normal;font-feature-settings:normal;font-variation-settings:normal;text-indent:0;text-align:start;text-decoration:none;text-decoration-line:none;text-decoration-style:solid;text-decoration-color:#000000;letter-spacing:normal;word-spacing:normal;text-transform:none;writing-mode:lr-tb;direction:ltr;text-orientation:mixed;dominant-baseline:auto;baseline-shift:baseline;text-anchor:start;white-space:normal;shape-padding:0;shape-margin:0;inline-size:0;clip-rule:nonzero;display:inline;overflow:visible;visibility:visible;opacity:1;isolation:auto;mix-blend-mode:normal;color-interpolation:sRGB;color-interpolation-filters:linearRGB;solid-color:#000000;solid-opacity:1;vector-effect:none;fill:#ffffff;fill-opacity:1;fill-rule:nonzero;stroke:none;stroke-width:3.69055;stroke-linecap:butt;stroke-linejoin:miter;stroke-miterlimit:4;stroke-dasharray:none;stroke-dashoffset:0;stroke-opacity:1;color-rendering:auto;image-rendering:auto;shape-rendering:auto;text-rendering:auto;enable-background:accumulate;stop-color:#000000;stop-opacity:1" d="M 20.388512,5.4738247 H 179.4087 c 6.93454,0 12.51722,5.5826803 12.51722,12.5172423 V 97.51096 c 0,6.93456 -5.58268,12.51724 -12.51722,12.51724 H 20.388512 c -6.934545,0 -12.5172331,-5.58268 -12.5172332,-12.51724 l -1.5e-6,-79.519893 C 7.8712772,11.056505 13.453965,5.4738247 20.388512,5.4738247 Z" id="path81" />
    <path style="color:#000000;font-style:normal;font-variant:normal;font-weight:normal;font-stretch:normal;font-size:medium;line-height:normal;font-family:sans-serif;font-variant-ligatures:normal;font-variant-position:normal;font-variant-caps:normal;font-variant-numeric:normal;font-variant-alternates:normal;font-variant-east-asian:normal;font-feature-settings:normal;font-variation-settings:normal;text-indent:0;text-align:start;text-decoration:none;text-decoration-line:none;text-decoration-style:solid;text-decoration-color:#000000;letter-spacing:normal;word-spacing:normal;text-transform:none;writing-mode:lr-tb;direction:ltr;text-orientation:mixed;dominant-baseline:auto;baseline-shift:baseline;text-anchor:start;white-space:normal;shape-padding:0;shape-margin:0;inline-size:0;clip-rule:nonzero;display:inline;overflow:visible;visibility:visible;opacity:1;isolation:auto;mix-blend-mode:normal;color-interpolation:sRGB;color-interpolation-filters:linearRGB;solid-color:#000000;solid-opacity:1;vector-effect:none;fill:#214b36;fill-opacity:1;fill-rule:nonzero;stroke:none;stroke-width:0.5;stroke-linecap:butt;stroke-linejoin:miter;stroke-miterlimit:4;stroke-dasharray:none;stroke-dashoffset:0;stroke-opacity:1;color-rendering:auto;image-rendering:auto;shape-rendering:auto;text-rendering:auto;enable-background:accumulate;stop-color:#000000;stop-opacity:1" d="M 20.387386,3.6284825 C 12.462473,3.6284825 6.026,10.064938 6.026,17.989873 V 97.51063 c 0,7.92492 6.436473,14.3614 14.361386,14.3614 H 179.40778 c 7.9249,0 14.36444,-6.43648 14.36444,-14.3614 V 17.989873 c 0,-7.924935 -6.43954,-14.3613905 -14.36444,-14.3613905 z m 0,3.6908262 H 179.40778 c 5.94417,0 10.67361,4.7263583 10.67363,10.6705643 V 97.51063 c 0,5.9442 -4.72946,10.67363 -10.67363,10.67364 H 20.387386 c -5.944181,0 -10.6705615,-4.72944 -10.6705615,-10.67364 V 17.989873 c 0,-5.944206 4.7263805,-10.6705643 10.6705615,-10.6705643 z" id="path83" />
    <path id="path75" style="color:#000000;font-style:normal;font-variant:normal;font-weight:normal;font-stretch:normal;font-size:medium;line-height:normal;font-family:sans-serif;font-variant-ligatures:normal;font-variant-position:normal;font-variant-caps:normal;font-variant-numeric:normal;font-variant-alternates:normal;font-variant-east-asian:normal;font-feature-settings:normal;font-variation-settings:normal;text-indent:0;text-align:start;text-decoration:none;text-decoration-line:none;text-decoration-style:solid;text-decoration-color:#000000;letter-spacing:normal;word-spacing:normal;text-transform:none;writing-mode:lr-tb;direction:ltr;text-orientation:mixed;dominant-baseline:auto;baseline-shift:baseline;text-anchor:start;white-space:normal;shape-padding:0;shape-margin:0;inline-size:0;clip-rule:nonzero;display:inline;overflow:visible;visibility:visible;opacity:1;isolation:auto;mix-blend-mode:normal;color-interpolation:sRGB;color-interpolation-filters:linearRGB;solid-color:#000000;solid-opacity:1;vector-effect:none;fill:#214b36;fill-opacity:1;fill-rule:nonzero;stroke:none;stroke-width:3.69055;stroke-linecap:butt;stroke-linejoin:miter;stroke-miterlimit:4;stroke-dasharray:none;stroke-dashoffset:0;stroke-opacity:1;color-rendering:auto;image-rendering:auto;shape-rendering:auto;text-rendering:auto;enable-background:accumulate;stop-color:#000000;stop-opacity:1" d="m 20.380918,11.090057 c -3.808288,0 -6.87549,3.08904 -6.87549,6.91202 V 97.51671 c 0,3.81136 3.064136,6.87551 6.87549,6.87551 H 179.42034 c 3.81134,0 6.87549,-3.06415 6.87549,-6.87551 V 18.002077 c 0,-3.82298 -3.06721,-6.91202 -6.87549,-6.91202 z" />
    <path id="path3952" style="opacity:1;fill:#ffffff;fill-opacity:1;fill-rule:evenodd;stroke:none;stroke-width:0.328689" d="m 163.87175,79.715188 c 0.87812,-0.730655 1.69435,-1.511243 2.40475,-2.408797 0.81937,-1.03623 1.48105,-2.162888 1.95153,-3.396528 0.38829,-1.015062 0.64739,-2.047122 0.82363,-3.114449 l -4.8163,-11.330119 c -1.82099,-4.27785 -4.03611,-8.384822 -6.67891,-12.213919 -1.03301,-1.493756 -2.13674,-2.938595 -3.29346,-4.342167 -1.51176,-1.83869 -3.08911,-3.621368 -4.74676,-5.329958 -0.53573,-0.551689 -1.10644,-1.06838 -1.71302,-1.540653 l -12.17004,-9.49788 c -1.10166,0.07315 -2.19266,0.201416 -3.27387,0.434751 -1.25555,0.271667 -2.48231,0.667615 -3.65809,1.195642 -0.97905,0.43653 -1.90316,0.958708 -2.79614,1.542362 l 13.13304,11.072457 c 0.63677,-0.287742 1.31599,-0.470932 2.0208,-0.448503 0.57609,0.01917 1.72074,0.198231 2.11125,0.717041 l 13.42605,17.836434 c 0.72105,0.957908 0.751,2.21118 0.42434,3.329325 -0.20125,0.68125 -0.5573,1.278939 -1.02412,1.81176 z m -1.541,0.688271 -7.65702,-15.387186 -2.26396,1.053342 c -0.12593,0.07179 -0.24783,0.145678 -0.37029,0.222069 -0.17757,0.107303 -0.33546,0.260633 -0.40686,0.462711 -0.12691,0.365486 -0.0634,0.679221 0.0982,1.019142 l 6.22949,13.198501 c 0.0954,0.20389 0.2157,0.386187 0.40999,0.50549 0.18968,0.117023 0.40468,0.212238 0.62299,0.261264 0.3204,0.07668 0.69378,0.04451 0.98687,-0.107897 z M 136.23706,44.499897 c 0.0604,-0.04544 0.11421,-0.09735 0.15952,-0.158623 l 1.68032,-2.24448 -13.2522,-11.245815 -1.85947,2.157098 c -0.19942,0.280716 -0.23818,0.613056 -0.21068,0.95228 0.0188,0.260182 0.10506,0.49073 0.26429,0.694537 0.1327,0.168587 0.29072,0.335474 0.45631,0.470626 l 11.18249,9.216244 c 0.33394,0.273983 0.45755,0.427712 0.93844,0.382099 0.22242,-0.0183 0.45979,-0.08771 0.64099,-0.223972 z" />
    <g transform="matrix(0.81812811,0,0,0.81812811,-45.260652,-107.38984)" style="opacity:1;fill:#ffffff;fill-opacity:1" id="g329">
      <g style="fill:#ffffff" id="use327" transform="translate(93.599998,180.12001)">
        <path id="path4187" d="m 18.96875,-15.5625 h 6.1875 v 2.84375 H 23.375 c -0.355469,4.53125 -1.230469,7.984375 -2.625,10.359375 1.207031,1.625 2.90625,3.003906 5.09375,4.140625 C 24.863281,2.625 23.9375,3.539063 23.0625,4.53125 21.226563,3 19.8125,1.601563 18.8125,0.34375 17.632813,1.664063 15.972656,3.070313 13.828125,4.5625 13.003906,3.601563 12.101563,2.800781 11.125,2.15625 c 2.65625,-1.28125 4.640625,-2.742188 5.953125,-4.390625 -0.648437,-1.207031 -1.25,-2.875 -1.8125,-5 l -0.65625,1.015625 c -0.71875,-0.644531 -1.46875,-1.195313 -2.25,-1.65625 1.238281,-1.644531 2.117188,-3.226563 2.640625,-4.75 0.53125,-1.53125 1.066406,-4.046875 1.609375,-7.546875 1.988281,0.335937 3.117188,0.527344 3.390625,0.578125 0.269531,0.05469 0.40625,0.164062 0.40625,0.328125 0,0.167969 -0.07031,0.339844 -0.203125,0.515625 -0.335937,0.398437 -0.746094,1.460937 -1.234375,3.1875 z m 1.234375,2.84375 h -2.125 c -0.230469,0.59375 -0.449219,1.101562 -0.65625,1.515625 0.394531,2.210937 0.910156,4.074219 1.546875,5.59375 0.695313,-1.945313 1.109375,-4.316406 1.234375,-7.109375 z M 6.09375,-3.515625 c -1.023437,1.011719 -2.167969,2.261719 -3.4375,3.75 C 1.675781,-1.023438 0.957031,-2.019531 0.5,-2.75 2.738281,-4.1875 4.601563,-5.640625 6.09375,-7.109375 V -13.09375 H 1.046875 v -2.703125 H 6.09375 v -4.09375 h 2.875 c 0.476563,0 0.71875,0.09375 0.71875,0.28125 0,0.1875 -0.058594,0.402344 -0.171875,0.640625 -0.105469,0.230469 -0.171875,0.476562 -0.203125,0.734375 -0.023437,0.261719 -0.03125,0.777344 -0.03125,1.546875 v 0.890625 h 1.5 c -0.3125,-0.90625 -0.765625,-1.8125 -1.359375,-2.71875 L 12.25,-19.65625 c 0.4375,0.8125 0.914063,1.8125 1.4375,3 l -2.171875,0.859375 h 2.828125 v 2.703125 H 9.28125 V -8.625 c 0.632813,-0.945313 1.285156,-2.269531 1.953125,-3.96875 1.625,0.792969 2.503906,1.230469 2.640625,1.3125 0.144531,0.07422 0.21875,0.179687 0.21875,0.3125 0,0.125 -0.136719,0.304687 -0.40625,0.53125 C 13.238281,-10.050781 12.425781,-8.90625 11.25,-7 L 9.28125,-8.1875 v 0.765625 c 1.820313,1.375 3.710938,2.914062 5.671875,4.609375 l -2.625,2.34375 C 11.242188,-1.820313 10.226563,-2.976563 9.28125,-3.9375 v 5.40625 c 0,0.789063 -0.125,1.390625 -0.375,1.796875 C 8.664063,3.671875 8.203125,3.96875 7.515625,4.15625 6.835938,4.351563 5.816406,4.476563 4.453125,4.53125 4.398438,3.394531 4.101563,2.257813 3.5625,1.125 c 0.914063,0.226563 1.523438,0.34375 1.828125,0.34375 0.300781,0 0.492188,-0.0625 0.578125,-0.1875 0.082031,-0.117187 0.125,-0.324219 0.125,-0.625 z m -0.453125,-4.40625 -2.8125,1.265625 C 2.390625,-7.863281 1.753906,-9.226563 0.921875,-10.75 l 2.75,-1.15625 c 0.664063,1.105469 1.320313,2.433594 1.96875,3.984375 z m 0,0" style="fill:#ffffff;stroke:none" />
      </g>
    </g>
    <g transform="matrix(0.81812811,0,0,0.81812811,-45.260652,-107.38984)" style="opacity:1;fill:#ffffff;fill-opacity:1" id="g333">
      <g style="fill:#ffffff" id="use331" transform="translate(119.8326,180.12001)">
        <path id="path4191" d="m 27.717335,-20.3125 c 0.78125,1.210937 1.300781,1.996094 1.5625,2.359375 0.269531,0.355469 0.40625,0.617187 0.40625,0.78125 0,0.167969 -0.183594,0.246094 -0.546875,0.234375 -0.355469,-0.01953 -0.824219,-0.03125 -1.40625,-0.03125 -0.574219,0 -1.445312,0.07813 -2.609375,0.234375 -2.929687,0.398437 -6.28125,0.695312 -10.0625,0.890625 -0.1875,-0.90625 -0.542969,-1.796875 -1.0625,-2.671875 6.257813,-0.101563 10.832031,-0.703125 13.71875,-1.796875 z m -6.5625,7.609375 c -0.367187,-0.9375 -0.789062,-1.8125 -1.265625,-2.625 l 3.046875,-0.9375 c 0.4375,1.03125 0.753906,1.96875 0.953125,2.8125 l -2.453125,0.75 h 2.734375 c 0.71875,-1.363281 1.195313,-2.65625 1.4375,-3.875 1.738281,0.492187 2.734375,0.773437 2.984375,0.84375 0.25,0.0625 0.375,0.171875 0.375,0.328125 0,0.148437 -0.117187,0.308594 -0.34375,0.484375 -0.375,0.261719 -0.976562,1 -1.796875,2.21875 h 2.359375 v 2.390625 h -7.5 l -0.25,1.15625 H 30.07671 V -6.75 h -9.296875 l -0.3125,0.921875 h 8.375 c -1,2.78125 -2.121094,4.828125 -3.359375,6.140625 1.34375,0.613281 3.082031,1.035156 5.21875,1.265625 -0.835937,1.113281 -1.496094,2.117188 -1.984375,3.015625 -2.460937,-0.648437 -4.367187,-1.417969 -5.71875,-2.3125 -1.40625,0.800781 -3.28125,1.546875 -5.625,2.234375 C 16.986866,3.847656 16.428273,3.101563 15.70171,2.28125 l -1,1.15625 C 13.846241,2.71875 12.998585,2.125 12.154835,1.65625 11.998585,2.539063 11.568898,3.171875 10.873585,3.546875 10.174366,3.929688 9.0688981,4.15625 7.5610851,4.21875 7.5063978,3.1875 7.1743658,2.066406 6.5610848,0.859375 c 0.914063,0.164063 1.5312503,0.25 1.8437503,0.25 0.3125,0 0.535156,-0.046875 0.671875,-0.140625 0.144531,-0.085937 0.21875,-0.320312 0.21875,-0.703125 V -4.28125 c -1.15625,0.667969 -1.9531253,1.140625 -2.3906253,1.421875 L 5.4204598,-6.09375 c 1.289063,-0.445313 2.5820313,-0.953125 3.8750003,-1.515625 V -12.09375 H 6.0923348 v -2.828125 H 9.2954601 V -19.8125 H 12.10796 c 0.363281,0 0.546875,0.101562 0.546875,0.296875 0,0.105469 -0.04297,0.234375 -0.125,0.390625 -0.167969,0.355469 -0.25,0.90625 -0.25,1.65625 v 2.546875 h 2.265625 v 2.828125 h -2.265625 v 3.046875 c 0.53125,-0.257813 1.082031,-0.550781 1.65625,-0.875 0.195313,0.8125 0.453125,1.601562 0.765625,2.359375 v -1.59375 h 3.640625 C 18.443898,-9.613281 18.518116,-10 18.561085,-10.3125 h -3.65625 v -2.390625 h 1.578125 c -0.335937,-0.78125 -0.75,-1.503906 -1.25,-2.171875 l 2.9375,-1.078125 c 0.488281,0.875 0.914063,1.714844 1.28125,2.515625 l -1.6875,0.734375 z M 17.686085,-6.75 H 14.70171 v -0.484375 c -1.292969,0.679687 -2.101562,1.117187 -2.421875,1.3125 V 0 c 0,0.664063 -0.04297,1.195313 -0.125,1.59375 2.570313,-2.0625 4.414063,-4.84375 5.53125,-8.34375 z m 5.40625,5.484375 c 0.6875,-0.675781 1.238281,-1.425781 1.65625,-2.25 h -3.25 c 0.46875,0.929687 1,1.679687 1.59375,2.25 z M 18.998585,-2.46875 C 18.193898,-1 17.189991,0.46875 15.98296,1.9375 17.908741,1.59375 19.506398,1.078125 20.779835,0.390625 20.100148,-0.410156 19.506398,-1.363281 18.998585,-2.46875 Z m 0,0" style="fill:#ffffff;stroke:none" />
      </g>
    </g>
    <g transform="matrix(2.6013757,0,0,3.2764021,-285.29206,-293.63345)" style="opacity:1;fill:#ffffff;fill-opacity:1" id="g3099">
      <g style="fill:#ffffff" transform="translate(120.93311,118.08)" id="use3097">
        <path id="path4250" d="M 5.046875,0 H 2.640625 V -8.25 H 1.4375 v -2.484375 c 0.6875,-0.21875 1.132813,-0.6875 1.34375,-1.40625 h 2.265625 z m 0,0" style="fill:#ffffff;stroke:none" />
      </g>
    </g>
    <g id="g4260" style="opacity:1;fill:#ffffff;fill-opacity:1" transform="matrix(2.2267031,0,0,3.2764021,56.200662,92.756838)">
      <path style="fill:#ffffff;stroke:none" d="M 10.890625,0 H 1.296875 C 1.410156,-1.425781 1.722656,-2.597656 2.234375,-3.515625 2.742188,-4.441406 3.363281,-5.179688 4.09375,-5.734375 4.820313,-6.285156 5.753906,-6.75 6.890625,-7.125 c 0.46875,-0.132813 0.832031,-0.335938 1.09375,-0.609375 0.269531,-0.28125 0.40625,-0.570313 0.40625,-0.875 0,-0.3125 -0.21875,-0.585938 -0.65625,-0.828125 C 7.304688,-9.675781 6.769531,-9.796875 6.125,-9.796875 c -1.179687,0 -2.230469,0.40625 -3.15625,1.21875 L 1.296875,-10.3125 c 0.789063,-0.613281 1.566406,-1.070313 2.328125,-1.375 0.757813,-0.300781 1.628906,-0.453125 2.609375,-0.453125 1.46875,0 2.585938,0.324219 3.359375,0.96875 0.769531,0.648437 1.15625,1.480469 1.15625,2.5 0,1.011719 -0.324219,1.839844 -0.96875,2.484375 -0.648437,0.636719 -1.773437,1.230469 -3.375,1.78125 -0.804687,0.292969 -1.527344,0.960937 -2.171875,2 h 6.65625 z m 0,0" id="path4258" />
    </g>
    <g id="g4266" style="opacity:1;fill:#ffffff;fill-opacity:1" transform="matrix(2.1963599,0,0,3.2764021,-174.81944,-294.12073)">
      <g style="fill:#ffffff" id="g4264" transform="translate(120.93311,118.08)">
        <path style="fill:#ffffff;stroke:none" d="M 5.046875,0 H 2.640625 V -8.25 H 1.4375 v -2.484375 c 0.6875,-0.21875 1.132813,-0.6875 1.34375,-1.40625 h 2.265625 z m 0,0" id="path4262" />
      </g>
    </g>
    <g transform="matrix(2.2878755,0,0,3.2764021,109.26899,92.756838)" style="opacity:1;fill:#ffffff;fill-opacity:1" id="g4270">
      <path id="path4268" d="M 10.890625,0 H 1.296875 C 1.410156,-1.425781 1.722656,-2.597656 2.234375,-3.515625 2.742188,-4.441406 3.363281,-5.179688 4.09375,-5.734375 4.820313,-6.285156 5.753906,-6.75 6.890625,-7.125 c 0.46875,-0.132813 0.832031,-0.335938 1.09375,-0.609375 0.269531,-0.28125 0.40625,-0.570313 0.40625,-0.875 0,-0.3125 -0.21875,-0.585938 -0.65625,-0.828125 C 7.304688,-9.675781 6.769531,-9.796875 6.125,-9.796875 c -1.179687,0 -2.230469,0.40625 -3.15625,1.21875 L 1.296875,-10.3125 c 0.789063,-0.613281 1.566406,-1.070313 2.328125,-1.375 0.757813,-0.300781 1.628906,-0.453125 2.609375,-0.453125 1.46875,0 2.585938,0.324219 3.359375,0.96875 0.769531,0.648437 1.15625,1.480469 1.15625,2.5 0,1.011719 -0.324219,1.839844 -0.96875,2.484375 -0.648437,0.636719 -1.773437,1.230469 -3.375,1.78125 -0.804687,0.292969 -1.527344,0.960937 -2.171875,2 h 6.65625 z m 0,0" style="fill:#ffffff;stroke:none" />
    </g>
  </g>
</svg>
