<?xml version="1.0" encoding="UTF-8"?>
<svg xmlns="http://www.w3.org/2000/svg" xmlns:ns1="http://sodipodi.sourceforge.net/DTD/sodipodi-0.dtd" version="1.1" id="svg20708" width="500.5" height="775.13831" viewBox="0 0 500.50001 775.1383">
  <defs id="defs20712" />
  <ns1:namedview pagecolor="#ffffff" bordercolor="#666666" borderopacity="1" objecttolerance="10" gridtolerance="10" guidetolerance="10" id="namedview20710" showgrid="false" showguides="true" />
  <g id="g20716" transform="translate(217.75423,2.285094)">
    <g id="g2076" transform="translate(-225.5142,176.79803)">
      <g transform="matrix(3.7037037,0,0,3.7037037,-461.54299,-1924.8039)" id="g3794">
        <g style="opacity:1" id="g13353">
          <path id="path13355" d="m 138.44305,472.90977 h 111.67381 c 5.63121,0 10.16463,4.53343 10.16463,10.16464 v 185.82647 c 0,5.63121 -4.53342,10.16463 -10.16463,10.16463 H 138.44305 c -5.63121,0 -10.16464,-4.53342 -10.16464,-10.16463 V 483.07441 c 0,-5.63121 4.53343,-10.16464 10.16464,-10.16464 z" style="color:#000000;font-style:normal;font-variant:normal;font-weight:normal;font-stretch:normal;font-size:medium;line-height:normal;font-family:sans-serif;font-variant-ligatures:normal;font-variant-position:normal;font-variant-caps:normal;font-variant-numeric:normal;font-variant-alternates:normal;font-variant-east-asian:normal;font-feature-settings:normal;font-variation-settings:normal;text-indent:0;text-align:start;text-decoration:none;text-decoration-line:none;text-decoration-style:solid;text-decoration-color:#000000;letter-spacing:normal;word-spacing:normal;text-transform:none;writing-mode:lr-tb;direction:ltr;text-orientation:mixed;dominant-baseline:auto;baseline-shift:baseline;text-anchor:start;white-space:normal;shape-padding:0;shape-margin:0;inline-size:0;clip-rule:nonzero;display:inline;overflow:visible;visibility:visible;isolation:auto;mix-blend-mode:normal;color-interpolation:sRGB;color-interpolation-filters:linearRGB;solid-color:#000000;solid-opacity:1;vector-effect:none;fill:#ffffff;fill-opacity:1;fill-rule:nonzero;stroke:none;stroke-width:2.99692;stroke-linecap:butt;stroke-linejoin:miter;stroke-miterlimit:4;stroke-dasharray:none;stroke-dashoffset:0;stroke-opacity:1;color-rendering:auto;image-rendering:auto;shape-rendering:auto;text-rendering:auto;enable-background:accumulate;stop-color:#000000;stop-opacity:1" />
          <path id="path13357" d="m 138.44336,471.41211 c -6.43544,0 -11.66406,5.22667 -11.66406,11.66211 v 185.82617 c 0,6.43544 5.22862,11.66406 11.66406,11.66406 h 111.67383 c 6.43543,0 11.66211,-5.22862 11.66211,-11.66406 V 483.07422 c 0,-6.43544 -5.22667,-11.66211 -11.66211,-11.66211 z m 0,2.99609 h 111.67383 c 4.82698,0 8.66601,3.83903 8.66601,8.66602 v 185.82617 c 0,4.82698 -3.83903,8.66602 -8.66601,8.66602 H 138.44336 c -4.82698,0 -8.66602,-3.83904 -8.66602,-8.66602 V 483.07422 c 0,-4.82698 3.83904,-8.66602 8.66602,-8.66602 z" style="color:#000000;font-style:normal;font-variant:normal;font-weight:normal;font-stretch:normal;font-size:medium;line-height:normal;font-family:sans-serif;font-variant-ligatures:normal;font-variant-position:normal;font-variant-caps:normal;font-variant-numeric:normal;font-variant-alternates:normal;font-variant-east-asian:normal;font-feature-settings:normal;font-variation-settings:normal;text-indent:0;text-align:start;text-decoration:none;text-decoration-line:none;text-decoration-style:solid;text-decoration-color:#000000;letter-spacing:normal;word-spacing:normal;text-transform:none;writing-mode:lr-tb;direction:ltr;text-orientation:mixed;dominant-baseline:auto;baseline-shift:baseline;text-anchor:start;white-space:normal;shape-padding:0;shape-margin:0;inline-size:0;clip-rule:nonzero;display:inline;overflow:visible;visibility:visible;isolation:auto;mix-blend-mode:normal;color-interpolation:sRGB;color-interpolation-filters:linearRGB;solid-color:#000000;solid-opacity:1;vector-effect:none;fill:#245041;fill-opacity:1;fill-rule:nonzero;stroke:none;stroke-width:0.135;stroke-linecap:butt;stroke-linejoin:miter;stroke-miterlimit:4;stroke-dasharray:none;stroke-dashoffset:0;stroke-opacity:1;color-rendering:auto;image-rendering:auto;shape-rendering:auto;text-rendering:auto;enable-background:accumulate;stop-color:#000000;stop-opacity:1" />
        </g>
        <g style="opacity:1" transform="matrix(0.93398352,0,0,0.93398352,119.29652,516.22276)" id="g13346">
          <path transform="matrix(0.28908433,0,0,0.28908433,8.0123791,-47.978844)" d="m 43.177734,22.439453 c -11.453817,0 -20.675781,9.296976 -20.675781,20.794922 V 731.45898 c 0,11.46303 9.212756,20.67383 20.675781,20.67383 H 456.83398 c 11.46303,0 20.67579,-9.2108 20.67579,-20.67383 V 43.234375 c 0,-11.497946 -9.22197,-20.794922 -20.67579,-20.794922 z" style="color:#000000;font-style:normal;font-variant:normal;font-weight:normal;font-stretch:normal;font-size:medium;line-height:normal;font-family:sans-serif;font-variant-ligatures:normal;font-variant-position:normal;font-variant-caps:normal;font-variant-numeric:normal;font-variant-alternates:normal;font-variant-east-asian:normal;font-feature-settings:normal;font-variation-settings:normal;text-indent:0;text-align:start;text-decoration:none;text-decoration-line:none;text-decoration-style:solid;text-decoration-color:#000000;letter-spacing:normal;word-spacing:normal;text-transform:none;writing-mode:lr-tb;direction:ltr;text-orientation:mixed;dominant-baseline:auto;baseline-shift:baseline;text-anchor:start;white-space:normal;shape-padding:0;shape-margin:0;inline-size:0;clip-rule:nonzero;display:inline;overflow:visible;visibility:visible;isolation:auto;mix-blend-mode:normal;color-interpolation:sRGB;color-interpolation-filters:linearRGB;solid-color:#000000;solid-opacity:1;vector-effect:none;fill:#245041;fill-opacity:1;fill-rule:nonzero;stroke:none;stroke-width:11.0997;stroke-linecap:butt;stroke-linejoin:miter;stroke-miterlimit:4;stroke-dasharray:none;stroke-dashoffset:0;stroke-opacity:1;color-rendering:auto;image-rendering:auto;shape-rendering:auto;text-rendering:auto;enable-background:accumulate;stop-color:#000000;stop-opacity:1" id="path13348" />
        </g>
      </g>
    </g>
    <path id="path21901" d="m 17.677449,391.73831 v -40.57233 h 20.078259 20.078321 v 40.57233 40.57224 H 37.755708 17.677449 Z m -136.633439,38.72238 c 0.0638,-0.2399 17.50906,-63.62698 38.767196,-140.85984 l 38.651267,-140.42341 10.850626,-0.0215 10.850688,-0.0215 -0.07915,0.3527 c -0.04326,0.19401 -13.752437,63.52496 -30.464021,140.73544 -16.711676,77.21056 -30.405149,140.44824 -30.429999,140.52827 -0.04264,0.13806 -1.027685,0.14542 -19.153867,0.14542 h -19.10865 z m 272.78438,0.29113 c -0.085,-0.28469 -63.569796,-280.35209 -63.569796,-280.44297 0,-0.0677 -2.307575,-7.43302 6.054843,-7.41765 l 13.890763,-0.958 4.42121,14.95166 c 0,0 28.90229,1.6143 32.97845,22.21021 4.34684,21.96371 -16.00488,35.1911 -16.00488,35.1911 l 22.47968,76.02184 c 0,0 36.14981,-2.99918 43.16585,27.07802 9.06148,38.84564 -20.58932,49.76094 -20.58932,49.76094 0,0 12.3418,42.37132 18.43609,63.48049 l 0.0767,0.27027 h -20.64796 c -19.59277,0 -20.65019,-0.006 -20.69148,-0.14541 z M 19.922165,260.37711 v -18.6233 h 14.923634 14.923634 v 18.6233 18.62336 H 34.845799 19.922165 Z m 6.152399,-72.16543 v -11.05766 h 8.854404 8.854403 v 11.05766 11.0576 h -8.854403 -8.854404 z" style="fill:#ffffff;fill-opacity:1;stroke-width:0.0831398" />
    <path id="rect21918" style="fill:#666666;fill-opacity:1;fill-rule:evenodd;stroke:none;stroke-width:6.13562" d="m -143.86881,72.722554 h 359.95937 v 31.343396 c 0,0 -10.79277,18.49645 -19.891,22.91614 -8.32036,4.04182 -27.71775,1.34415 -27.71775,1.34415 0,0 -23.90041,17.84498 -38.02028,21.16246 -17.13666,4.02627 -52.753129,-2.44807 -52.753129,-2.44807 0,0 -23.973119,30.99499 -58.984798,28.17137 -29.76499,-2.40048 -64.004747,-29.52252 -64.004747,-29.52252 0,0 -31.292053,29.3535 -50.61692,28.4081 -28.733226,-1.40567 -47.970746,-33.21792 -47.970746,-33.21792 z" />
    <path id="rect21921" style="fill:#ffffff;fill-opacity:1;fill-rule:evenodd;stroke:none;stroke-width:6.13562" d="m -125.95112,293.07235 h 4.67503 v 34.11045 h -4.67503 z" />
    <path id="rect21923" style="fill:#ffff00;fill-opacity:1;fill-rule:evenodd;stroke:none;stroke-width:6.13562" d="m -124.73906,281.52584 h 23.37517 v 15.58344 h -23.37517 z" />
    <path id="rect21925" style="fill:#ffff00;fill-opacity:1;fill-rule:evenodd;stroke:none;stroke-width:6.13562" d="m -124.73906,311.28366 h 23.37517 v 15.58343 h -23.37517 z" />
    <path d="m -81.884679,186.55748 h 3.295992 v 24.04857 h -3.295992 z" style="fill:#ffffff;fill-opacity:1;fill-rule:evenodd;stroke:none;stroke-width:4.32573" id="path21930" />
    <path d="m -81.030172,178.41696 h 16.479995 v 10.98664 h -16.479995 z" style="fill:#ffff00;fill-opacity:1;fill-rule:evenodd;stroke:none;stroke-width:4.32573" id="path21932" />
    <path d="m -81.030172,199.39683 h 16.479995 v 10.98664 h -16.479995 z" style="fill:#ffff00;fill-opacity:1;fill-rule:evenodd;stroke:none;stroke-width:4.32573" id="path21934" />
    <g style="opacity:1" id="g13374">
      <path transform="translate(-217.75423,-2.285094)" d="M 115.39453 519.80664 C 100.37649 519.80664 88.175781 532.00541 88.175781 547.02344 L 88.175781 651.09961 C 88.175781 666.11766 100.3765 678.31641 115.39453 678.31641 L 394.4082 678.31641 C 409.42622 678.31641 421.625 666.11765 421.625 651.09961 L 421.625 547.02344 C 421.625 532.00542 409.42622 519.80664 394.4082 519.80664 L 115.39453 519.80664 z " style="color:#000000;font-style:normal;font-variant:normal;font-weight:normal;font-stretch:normal;font-size:medium;line-height:normal;font-family:sans-serif;font-variant-ligatures:normal;font-variant-position:normal;font-variant-caps:normal;font-variant-numeric:normal;font-variant-alternates:normal;font-variant-east-asian:normal;font-feature-settings:normal;font-variation-settings:normal;text-indent:0;text-align:start;text-decoration:none;text-decoration-line:none;text-decoration-style:solid;text-decoration-color:#000000;letter-spacing:normal;word-spacing:normal;text-transform:none;writing-mode:lr-tb;direction:ltr;text-orientation:mixed;dominant-baseline:auto;baseline-shift:baseline;text-anchor:start;white-space:normal;shape-padding:0;shape-margin:0;inline-size:0;clip-rule:nonzero;display:inline;overflow:visible;visibility:visible;isolation:auto;mix-blend-mode:normal;color-interpolation:sRGB;color-interpolation-filters:linearRGB;solid-color:#000000;solid-opacity:1;vector-effect:none;fill:#ffff00;fill-opacity:1;fill-rule:nonzero;stroke:none;stroke-width:6.99375;stroke-linecap:butt;stroke-linejoin:miter;stroke-miterlimit:4;stroke-dasharray:none;stroke-dashoffset:0;stroke-opacity:1.0;color-rendering:auto;image-rendering:auto;shape-rendering:auto;text-rendering:auto;enable-background:accumulate;stop-color:#000000;stop-opacity:1;" id="path13376" />
    </g>
    <g aria-label="60" transform="matrix(2.7486465,0,0,3.4240319,-225.16576,-20.328168)" id="text22557" style="font-size:31.2979px;line-height:1.25;font-family:IrisUPC;-inkscape-font-specification:'IrisUPC, Normal';fill:#000000;fill-opacity:1;stroke:#000000;stroke-width:0.782448;stroke-opacity:1">
      <path d="m 72.373113,185.50633 q 0,2.81681 -2.253449,4.66339 -2.222151,1.81528 -5.758814,1.81528 -3.755748,0 -6.322175,-2.12826 -2.566428,-2.15956 -2.566428,-6.0405 0.0626,-5.16415 4.068727,-9.29547 4.037429,-4.13132 9.890136,-4.22522 v 3.53666 q -6.541261,1.03283 -9.201582,6.0405 1.940469,-0.68856 4.287812,-0.68856 3.411471,0 5.633622,1.78399 2.222151,1.78398 2.222151,4.53819 z m -3.72445,0.0313 q 0,-1.22062 -1.220619,-1.94047 -1.220618,-0.75115 -3.192385,-0.75115 -2.128257,0 -3.28628,0.65725 -1.126724,0.62596 -1.095426,1.78399 -0.09389,1.22061 1.158022,2.06566 1.251916,0.81374 3.223684,0.81374 1.971767,0 3.192385,-0.71985 1.220619,-0.75115 1.220619,-1.90917 z" style="font-style:normal;font-variant:normal;font-weight:normal;font-stretch:normal;font-family:'Highway Gothic Wide';-inkscape-font-specification:'Highway Gothic Wide';fill:#000000;fill-opacity:1;stroke:#000000;stroke-width:0.782448;stroke-opacity:1" id="path22563" />
      <path d="m 93.17888,181.03073 q 0,4.91377 -2.37864,7.94967 -2.347342,3.0046 -6.290878,3.0046 -4.31911,0 -6.760346,-3.47407 -2.128257,-3.0046 -2.128257,-7.4176 0,-5.00767 2.37864,-7.88707 2.378641,-2.91071 6.509963,-2.91071 3.88094,0 6.25958,2.9733 2.409938,2.942 2.409938,7.76188 z m -3.72445,0.0626 q 0,-3.31758 -1.314511,-5.19545 -1.283214,-1.87788 -3.630557,-1.87788 -2.37864,0 -3.72445,1.87788 -1.345809,1.87787 -1.345809,5.19545 0,3.34887 1.345809,5.25804 1.34581,1.87788 3.72445,1.87788 2.69162,0 3.943536,-2.34734 1.001532,-1.84658 1.001532,-4.78858 z" style="font-style:normal;font-variant:normal;font-weight:normal;font-stretch:normal;font-family:'Highway Gothic Wide';-inkscape-font-specification:'Highway Gothic Wide';fill:#000000;fill-opacity:1;stroke:#000000;stroke-width:0.782448;stroke-opacity:1" id="path22565" />
    </g>
    <g aria-label="km/h" transform="matrix(2.7453839,0,0,3.428101,-225.16576,-20.328168)" id="text22561" style="font-size:15.6222px;line-height:1.25;font-family:IrisUPC;-inkscape-font-specification:'IrisUPC, Normal';fill:#000000;fill-opacity:1;stroke-width:0.390553">
      <path d="m 105.77919,191.71895 h -1.87466 l -1.49974,-3.63997 -1.03106,1.40599 v 2.23398 h -1.874665 v -9.68577 l 1.874665,-0.95295 v 5.63961 l 2.01526,-2.59328 h 2.31209 l -2.01527,2.42144 z" style="font-style:normal;font-variant:normal;font-weight:normal;font-stretch:normal;font-family:'Highway Gothic Wide';-inkscape-font-specification:'Highway Gothic Wide';fill:#000000;fill-opacity:1;stroke-width:0.390553" id="path22568" />
      <path d="m 117.88029,191.71895 h -1.87466 v -4.54606 q 0,-0.64051 -0.35931,-1.01544 -0.34369,-0.39056 -0.95296,-0.39056 -0.54677,0 -0.93733,0.40618 -0.39055,0.39055 -0.39055,0.92171 v 4.62417 h -1.79656 v -4.54606 q 0,-0.60927 -0.40617,-0.99982 -0.40618,-0.40618 -0.9842,-0.40618 -0.54678,0 -0.90609,0.39056 -0.34369,0.39055 -0.34369,0.96857 v 4.59293 h -1.87466 v -7.63926 h 1.87466 v 0.62489 q 0.59364,-0.67175 1.84342,-0.68738 1.24978,0.0469 1.95278,1.06231 0.70299,-1.04668 2.15586,-1.06231 1.43724,0.0312 2.21835,0.9842 0.78111,0.95296 0.78111,2.07775 z" style="font-style:normal;font-variant:normal;font-weight:normal;font-stretch:normal;font-family:'Highway Gothic Wide';-inkscape-font-specification:'Highway Gothic Wide';fill:#000000;fill-opacity:1;stroke-width:0.390553" id="path22570" />
      <path d="m 127.58412,181.25207 -7.21746,10.46688 h -1.76531 l 7.13935,-10.46688 z" style="font-style:normal;font-variant:normal;font-weight:normal;font-stretch:normal;font-family:'Highway Gothic Wide';-inkscape-font-specification:'Highway Gothic Wide';fill:#000000;fill-opacity:1;stroke-width:0.390553" id="path22572" />
      <path d="m 128.22805,181.95507 1.76531,-0.87484 v 3.63997 q 0.70299,-0.703 1.85904,-0.703 1.23415,0 1.99964,0.85922 0.78111,0.8436 0.79673,2.20273 v 4.6398 h -1.87466 v -4.54606 q 0,-0.60927 -0.37494,-0.99982 -0.35931,-0.39056 -0.98419,-0.39056 -0.5624,0 -0.99982,0.4218 -0.4218,0.40618 -0.4218,0.93733 v 4.57731 h -1.76531 z" style="font-style:normal;font-variant:normal;font-weight:normal;font-stretch:normal;font-family:'Highway Gothic Wide';-inkscape-font-specification:'Highway Gothic Wide';fill:#000000;fill-opacity:1;stroke-width:0.390553" id="path22574" />
    </g>
  </g>
</svg>
