<?xml version="1.0" encoding="UTF-8"?>
<svg xmlns="http://www.w3.org/2000/svg" xmlns:ns1="http://sodipodi.sourceforge.net/DTD/sodipodi-0.dtd" viewBox="0 0 88.091476 103.08702" height="103.08702" width="88.091476" id="svg938" version="1.1">
  <defs id="defs942" />
  <ns1:namedview showguides="true" showgrid="false" id="namedview940" guidetolerance="10" gridtolerance="10" objecttolerance="10" borderopacity="1" bordercolor="#666666" pagecolor="#ffffff" height="103.08702px">
    <ns1:guide id="guide1959" orientation="1,0" position="-253.53612,3.4738047" />
  </ns1:namedview>
  <g transform="translate(-7.66753,-1.6226066)" id="g946">
    <path style="color:#000000;font-style:normal;font-variant:normal;font-weight:normal;font-stretch:normal;font-size:medium;line-height:normal;font-family:sans-serif;font-variant-ligatures:normal;font-variant-position:normal;font-variant-caps:normal;font-variant-numeric:normal;font-variant-alternates:normal;font-variant-east-asian:normal;font-feature-settings:normal;font-variation-settings:normal;text-indent:0;text-align:start;text-decoration:none;text-decoration-line:none;text-decoration-style:solid;text-decoration-color:#000000;letter-spacing:normal;word-spacing:normal;text-transform:none;writing-mode:lr-tb;direction:ltr;text-orientation:mixed;dominant-baseline:auto;baseline-shift:baseline;text-anchor:start;white-space:normal;shape-padding:0;shape-margin:0;inline-size:0;clip-rule:nonzero;display:inline;overflow:visible;visibility:visible;opacity:1;isolation:auto;mix-blend-mode:normal;color-interpolation:sRGB;color-interpolation-filters:linearRGB;solid-color:#000000;solid-opacity:1;vector-effect:none;fill:#ffffff;fill-opacity:1;fill-rule:nonzero;stroke:none;stroke-width:1.71562;stroke-linecap:butt;stroke-linejoin:miter;stroke-miterlimit:4;stroke-dasharray:none;stroke-dashoffset:0;stroke-opacity:1;color-rendering:auto;image-rendering:auto;shape-rendering:auto;text-rendering:auto;enable-background:accumulate;stop-color:#000000;stop-opacity:1" d="m 94.759502,8.4408459 c 0,-3.223658 -2.596009,-5.8196668 -5.819668,-5.8196668 h -74.45406 c -3.223656,0 -5.819665,2.5960088 -5.819665,5.8196668 V 97.890443 c 0,3.223657 2.596009,5.819667 5.819665,5.819667 h 74.45406 c 3.223659,0 5.819668,-2.59601 5.819668,-5.819667 z" id="path11391" />
    <path style="color:#000000;font-style:normal;font-variant:normal;font-weight:normal;font-stretch:normal;font-size:medium;line-height:normal;font-family:sans-serif;font-variant-ligatures:normal;font-variant-position:normal;font-variant-caps:normal;font-variant-numeric:normal;font-variant-alternates:normal;font-variant-east-asian:normal;font-feature-settings:normal;font-variation-settings:normal;text-indent:0;text-align:start;text-decoration:none;text-decoration-line:none;text-decoration-style:solid;text-decoration-color:#000000;letter-spacing:normal;word-spacing:normal;text-transform:none;writing-mode:lr-tb;direction:ltr;text-orientation:mixed;dominant-baseline:auto;baseline-shift:baseline;text-anchor:start;white-space:normal;shape-padding:0;shape-margin:0;inline-size:0;clip-rule:nonzero;display:inline;overflow:visible;visibility:visible;opacity:1;isolation:auto;mix-blend-mode:normal;color-interpolation:sRGB;color-interpolation-filters:linearRGB;solid-color:#000000;solid-opacity:1;vector-effect:none;fill:#253898;fill-opacity:1;fill-rule:nonzero;stroke:none;stroke-width:0.28294;stroke-linecap:butt;stroke-linejoin:miter;stroke-miterlimit:4;stroke-dasharray:none;stroke-dashoffset:0;stroke-opacity:1;color-rendering:auto;image-rendering:auto;shape-rendering:auto;text-rendering:auto;enable-background:accumulate;stop-color:#000000;stop-opacity:1" d="m 95.617072,8.4408496 c 0,-3.684188 -2.99305,-6.677243 -6.677241,-6.677243 H 14.485772 c -3.684187,0 -6.677242,2.993055 -6.677242,6.677243 V 97.890447 c 0,3.684193 2.993055,6.677243 6.677242,6.677243 h 74.454059 c 3.684191,0 6.677241,-2.99305 6.677241,-6.677243 z m -1.71515,0 V 97.890447 c 0,2.763133 -2.198961,4.962093 -4.962091,4.962093 H 14.485772 c -2.763125,0 -4.962088,-2.19896 -4.962088,-4.962093 V 8.4408496 c 0,-2.763128 2.198963,-4.96209 4.962088,-4.96209 h 74.454059 c 2.763129,0 4.962091,2.198963 4.962091,4.96209 z" id="path11393" />
    <path id="path11374" style="color:#000000;font-style:normal;font-variant:normal;font-weight:normal;font-stretch:normal;font-size:medium;line-height:normal;font-family:sans-serif;font-variant-ligatures:normal;font-variant-position:normal;font-variant-caps:normal;font-variant-numeric:normal;font-variant-alternates:normal;font-variant-east-asian:normal;font-feature-settings:normal;font-variation-settings:normal;text-indent:0;text-align:start;text-decoration:none;text-decoration-line:none;text-decoration-style:solid;text-decoration-color:#000000;letter-spacing:normal;word-spacing:normal;text-transform:none;writing-mode:lr-tb;direction:ltr;text-orientation:mixed;dominant-baseline:auto;baseline-shift:baseline;text-anchor:start;white-space:normal;shape-padding:0;shape-margin:0;inline-size:0;clip-rule:nonzero;display:inline;overflow:visible;visibility:visible;opacity:1;isolation:auto;mix-blend-mode:normal;color-interpolation:sRGB;color-interpolation-filters:linearRGB;solid-color:#000000;solid-opacity:1;vector-effect:none;fill:#253898;fill-opacity:1;fill-rule:nonzero;stroke:none;stroke-width:1.71562;stroke-linecap:butt;stroke-linejoin:miter;stroke-miterlimit:4;stroke-dasharray:none;stroke-dashoffset:0;stroke-opacity:1;color-rendering:auto;image-rendering:auto;shape-rendering:auto;text-rendering:auto;enable-background:accumulate;stop-color:#000000;stop-opacity:1" d="m 92.144845,8.4313429 c 0,-1.770327 -1.436305,-3.195506 -3.213396,-3.195506 H 14.478506 c -1.771689,0 -3.195503,1.423814 -3.195503,3.195506 V 97.889883 c 0,1.77169 1.423814,3.195507 3.195503,3.195507 h 74.452943 c 1.777093,0 3.213396,-1.425177 3.213396,-3.195507 z" />
    <g style="opacity:1" id="g1245" />
    <path id="path4364" style="fill:#ffffff;fill-opacity:1;fill-rule:nonzero;stroke:none;stroke-width:0.217019" d="m 31.271797,13.619928 a 4.3141724,4.3141724 0 0 0 -4.314638,4.314638 4.3141724,4.3141724 0 0 0 4.314638,4.314638 4.3141724,4.3141724 0 0 0 4.314638,-4.314638 4.3141724,4.3141724 0 0 0 -4.314638,-4.314638 z m 0,10.879991 c -2.634763,0 -4.756578,2.121821 -4.756578,4.756579 4e-5,-0.01953 0,13.742365 0,13.742371 0,1.550186 1.10671,2.733246 1.550214,3.027531 v 20.282666 c 0,1.477667 1.181398,2.585589 2.584453,2.585589 1.330513,0 2.511555,-1.107917 2.511555,-2.585589 V 48.982178 l 5.171187,3.323682 v 5.010584 c 0,1.328454 1.034103,2.364617 2.364623,2.364617 1.328447,0 2.36234,-1.036163 2.36234,-2.364617 v -6.710011 c 0,-1.034151 -0.664919,-1.624973 -1.328102,-2.068477 l -5.70425,-3.758789 v -6.553964 l 3.635773,2.483078 c 0.959545,0.66526 2.215339,0.443924 2.880604,-0.443078 0.590641,-0.884944 0.368751,-2.140371 -0.518262,-2.807707 l -5.998115,-4.041271 v -4.159727 c 0,-2.634758 -2.120678,-4.756579 -4.755442,-4.756579 z" />
    <path id="path1548" style="color:#000000;font-style:normal;font-variant:normal;font-weight:normal;font-stretch:normal;font-size:medium;line-height:normal;font-family:sans-serif;font-variant-ligatures:normal;font-variant-position:normal;font-variant-caps:normal;font-variant-numeric:normal;font-variant-alternates:normal;font-variant-east-asian:normal;font-feature-settings:normal;font-variation-settings:normal;text-indent:0;text-align:start;text-decoration:none;text-decoration-line:none;text-decoration-style:solid;text-decoration-color:#000000;letter-spacing:normal;word-spacing:normal;text-transform:none;writing-mode:lr-tb;direction:ltr;text-orientation:mixed;dominant-baseline:auto;baseline-shift:baseline;text-anchor:start;white-space:normal;shape-padding:0;shape-margin:0;inline-size:0;clip-rule:nonzero;display:inline;overflow:visible;visibility:visible;opacity:1;isolation:auto;mix-blend-mode:normal;color-interpolation:sRGB;color-interpolation-filters:linearRGB;solid-color:#000000;solid-opacity:1;vector-effect:none;fill:#ffffff;fill-opacity:1;fill-rule:nonzero;stroke:none;stroke-width:1.71562;stroke-linecap:butt;stroke-linejoin:miter;stroke-miterlimit:4;stroke-dasharray:none;stroke-dashoffset:0;stroke-opacity:1;color-rendering:auto;image-rendering:auto;shape-rendering:auto;text-rendering:auto;enable-background:accumulate;stop-color:#000000;stop-opacity:1" d="m 57.275391,10.732422 -0.699219,2.060547 h 0.699219 V 37.220703 H 53.287109 V 48.257812 H 40.869141 V 59.369141 H 28.451172 V 70.480469 H 16.033203 V 81.589844 H 3.6152344 v 7.847656 6.830078 c 0,1.77169 1.4236235,3.195313 3.1953125,3.195313 H 8.296875 L 57.873047,49.886719 H 84.476562 V 37.220703 H 81.394531 V 14.853516 h 3.082031 v -1.451172 h -25.75 v -0.609375 h 0.699219 l -0.699219,-2.060547 z m 1.451171,4.121094 h 3.082032 v 22.367187 h -3.082032 z m 4.533204,0 h 3.082031 v 22.367187 h -3.082031 z m 4.535156,0 H 70.875 v 22.367187 h -3.080078 z m 4.533203,0 h 3.080078 v 22.367187 h -3.080078 z m 4.533203,0 h 3.082031 V 37.220703 H 76.861328 Z M 58.177734,51.056641 9.7695312,99.462891 H 12.337891 L 58.822266,52.978516 h 25.654296 v -1.921875 z" transform="translate(7.66753,1.6226066)" />
    <path id="path1544" style="color:#000000;font-style:normal;font-variant:normal;font-weight:normal;font-stretch:normal;font-size:medium;line-height:normal;font-family:sans-serif;font-variant-ligatures:normal;font-variant-position:normal;font-variant-caps:normal;font-variant-numeric:normal;font-variant-alternates:normal;font-variant-east-asian:normal;font-feature-settings:normal;font-variation-settings:normal;text-indent:0;text-align:start;text-decoration:none;text-decoration-line:none;text-decoration-style:solid;text-decoration-color:#000000;letter-spacing:normal;word-spacing:normal;text-transform:none;writing-mode:lr-tb;direction:ltr;text-orientation:mixed;dominant-baseline:auto;baseline-shift:baseline;text-anchor:start;white-space:normal;shape-padding:0;shape-margin:0;inline-size:0;clip-rule:nonzero;display:inline;overflow:visible;visibility:visible;opacity:1;isolation:auto;mix-blend-mode:normal;color-interpolation:sRGB;color-interpolation-filters:linearRGB;solid-color:#000000;solid-opacity:1;vector-effect:none;fill:#253898;fill-opacity:1;fill-rule:nonzero;stroke:none;stroke-width:1.71562;stroke-linecap:butt;stroke-linejoin:miter;stroke-miterlimit:4;stroke-dasharray:none;stroke-dashoffset:0;stroke-opacity:1;color-rendering:auto;image-rendering:auto;shape-rendering:auto;text-rendering:auto;enable-background:accumulate;stop-color:#000000;stop-opacity:1" d="m 84.476562,14.853516 h -3.082031 v 22.367187 h 3.082031 z" transform="translate(7.66753,1.6226066)" />
  </g>
</svg>
