<?xml version="1.0" encoding="UTF-8"?>
<svg xmlns="http://www.w3.org/2000/svg" xmlns:ns1="http://sodipodi.sourceforge.net/DTD/sodipodi-0.dtd" viewBox="0 0 118.85402 60.489159" height="60.489159" width="118.85402" id="svg5178" version="1.1">
  <defs id="defs5182" />
  <ns1:namedview showgrid="false" id="namedview5180" guidetolerance="10" gridtolerance="10" objecttolerance="10" borderopacity="1" bordercolor="#666666" pagecolor="#ffffff" />
  <g transform="translate(-6.211,-5.5125676)" id="g5186">
    <path style="color:#000000;font-style:normal;font-variant:normal;font-weight:normal;font-stretch:normal;font-size:medium;line-height:normal;font-family:sans-serif;font-variant-ligatures:normal;font-variant-position:normal;font-variant-caps:normal;font-variant-numeric:normal;font-variant-alternates:normal;font-variant-east-asian:normal;font-feature-settings:normal;font-variation-settings:normal;text-indent:0;text-align:start;text-decoration:none;text-decoration-line:none;text-decoration-style:solid;text-decoration-color:#000000;letter-spacing:normal;word-spacing:normal;text-transform:none;writing-mode:lr-tb;direction:ltr;text-orientation:mixed;dominant-baseline:auto;baseline-shift:baseline;text-anchor:start;white-space:normal;shape-padding:0;shape-margin:0;inline-size:0;clip-rule:nonzero;display:inline;overflow:visible;visibility:visible;opacity:1;isolation:auto;mix-blend-mode:normal;color-interpolation:sRGB;color-interpolation-filters:linearRGB;solid-color:#000000;solid-opacity:1;vector-effect:none;fill:#ffffff;fill-opacity:1;fill-rule:nonzero;stroke:none;stroke-width:2.58814;stroke-linecap:butt;stroke-linejoin:miter;stroke-miterlimit:4;stroke-dasharray:none;stroke-dashoffset:0;stroke-opacity:1;color-rendering:auto;image-rendering:auto;shape-rendering:auto;text-rendering:auto;enable-background:accumulate;stop-color:#000000;stop-opacity:1" d="m 16.533233,7.0566813 h 98.208817 c 4.86312,0 8.77816,3.9150597 8.77816,8.7781707 v 39.845649 c 0,4.863111 -3.91504,8.778169 -8.77816,8.778169 H 16.533233 c -4.863102,0 -8.7781624,-3.915058 -8.7781624,-8.778169 V 15.834852 c 0,-4.863111 3.9150604,-8.7781707 8.7781624,-8.7781707 z" id="path81" />
    <path style="color:#000000;font-style:normal;font-variant:normal;font-weight:normal;font-stretch:normal;font-size:medium;line-height:normal;font-family:sans-serif;font-variant-ligatures:normal;font-variant-position:normal;font-variant-caps:normal;font-variant-numeric:normal;font-variant-alternates:normal;font-variant-east-asian:normal;font-feature-settings:normal;font-variation-settings:normal;text-indent:0;text-align:start;text-decoration:none;text-decoration-line:none;text-decoration-style:solid;text-decoration-color:#000000;letter-spacing:normal;word-spacing:normal;text-transform:none;writing-mode:lr-tb;direction:ltr;text-orientation:mixed;dominant-baseline:auto;baseline-shift:baseline;text-anchor:start;white-space:normal;shape-padding:0;shape-margin:0;inline-size:0;clip-rule:nonzero;display:inline;overflow:visible;visibility:visible;opacity:1;isolation:auto;mix-blend-mode:normal;color-interpolation:sRGB;color-interpolation-filters:linearRGB;solid-color:#000000;solid-opacity:1;vector-effect:none;fill:#253898;fill-opacity:1;fill-rule:nonzero;stroke:none;stroke-width:0.5;stroke-linecap:butt;stroke-linejoin:miter;stroke-miterlimit:4;stroke-dasharray:none;stroke-dashoffset:0;stroke-opacity:1;color-rendering:auto;image-rendering:auto;shape-rendering:auto;text-rendering:auto;enable-background:accumulate;stop-color:#000000;stop-opacity:1" d="M 16.53245,5.7625676 C 10.974812,5.7625676 6.461,10.276369 6.461,15.834016 v 39.846258 c 0,5.557643 4.513812,10.071452 10.07145,10.071452 h 98.20896 c 5.55764,0 10.07361,-4.513809 10.07361,-10.071452 V 15.834016 c 0,-5.557647 -4.51597,-10.0714484 -10.07361,-10.0714484 z m 0,2.5883244 h 98.20896 c 4.16858,0 7.48526,3.314539 7.48529,7.483124 v 39.846258 c 0,4.168573 -3.31671,7.485274 -7.48529,7.485289 H 16.53245 c -4.168577,0 -7.483125,-3.316716 -7.483125,-7.485289 V 15.834016 c 0,-4.168585 3.314548,-7.483124 7.483125,-7.483124 z" id="path83" />
    <path id="path75" style="color:#000000;font-style:normal;font-variant:normal;font-weight:normal;font-stretch:normal;font-size:medium;line-height:normal;font-family:sans-serif;font-variant-ligatures:normal;font-variant-position:normal;font-variant-caps:normal;font-variant-numeric:normal;font-variant-alternates:normal;font-variant-east-asian:normal;font-feature-settings:normal;font-variation-settings:normal;text-indent:0;text-align:start;text-decoration:none;text-decoration-line:none;text-decoration-style:solid;text-decoration-color:#000000;letter-spacing:normal;word-spacing:normal;text-transform:none;writing-mode:lr-tb;direction:ltr;text-orientation:mixed;dominant-baseline:auto;baseline-shift:baseline;text-anchor:start;white-space:normal;shape-padding:0;shape-margin:0;inline-size:0;clip-rule:nonzero;display:inline;overflow:visible;visibility:visible;opacity:1;isolation:auto;mix-blend-mode:normal;color-interpolation:sRGB;color-interpolation-filters:linearRGB;solid-color:#000000;solid-opacity:1;vector-effect:none;fill:#253898;fill-opacity:1;fill-rule:nonzero;stroke:none;stroke-width:2.58814;stroke-linecap:butt;stroke-linejoin:miter;stroke-miterlimit:4;stroke-dasharray:none;stroke-dashoffset:0;stroke-opacity:1;color-rendering:auto;image-rendering:auto;shape-rendering:auto;text-rendering:auto;enable-background:accumulate;stop-color:#000000;stop-opacity:1" d="m 16.527914,10.995264 c -2.670706,0 -4.821693,2.166303 -4.821693,4.847314 v 39.841955 c 0,2.67286 2.148839,4.821699 4.821693,4.821699 h 98.222306 c 2.67286,0 4.82168,-2.148839 4.82168,-4.821699 V 15.842578 c 0,-2.681011 -2.15097,-4.847314 -4.82168,-4.847314 z" />
    <path d="m 85.792732,32.177631 12.064926,-0.617957 0.05015,0.0093 -13.14129,13.336254 6.08612,5.997146 13.037972,-13.231408 0.0789,12.417771 9.64862,-9.791766 0.47696,-18.731757 -18.65377,0.820679 z" style="opacity:1;fill:#ffffff;stroke-width:0.348917" id="rect6457" />
    <g transform="matrix(2.4398846,0,0,2.4398846,-209.56194,-357.65916)" style="opacity:1;fill:#ffffff;fill-opacity:1" id="g3925">
      <g style="fill:#ffffff" transform="translate(93.599998,164.28)" id="use3923">
        <path id="path5477" d="m 1.953125,-3.078125 c -0.1875,0.304687 -0.382812,0.59375 -0.578125,0.875 -0.324219,-0.21875 -0.703125,-0.429688 -1.140625,-0.640625 0.96875,-1.238281 1.644531,-2.925781 2.03125,-5.0625 0.425781,0.0625 0.78125,0.132812 1.0625,0.203125 0.289063,0.0625 0.457031,0.105469 0.5,0.125 0.050781,0.023437 0.078125,0.058594 0.078125,0.109375 0,0.054687 -0.03125,0.132812 -0.09375,0.234375 -0.242187,0.386719 -0.445312,0.867187 -0.609375,1.4375 H 5.53125 c -0.117187,1.625 -0.480469,3.011719 -1.09375,4.15625 C 3.820313,-0.503906 2.890625,0.5 1.640625,1.375 1.390625,1.039063 1.003906,0.675781 0.484375,0.28125 c 1.082031,-0.5625 1.90625,-1.25 2.46875,-2.0625 -0.25,-0.382813 -0.585937,-0.816406 -1,-1.296875 z M 2.78125,-4.671875 C 2.601563,-4.253906 2.378906,-3.800781 2.109375,-3.3125 L 2.9375,-3.953125 3.609375,-3.03125 c 0.1875,-0.488281 0.320313,-1.035156 0.40625,-1.640625 z M 7.171875,-4.625 8.125,-5.21875 c 0.851563,1.136719 1.53125,2.09375 2.03125,2.875 L 8.875,-1.53125 C 8.414063,-2.445313 7.847656,-3.347656 7.171875,-4.234375 v 5.9375 h -1.375 v -9.5625 h 1.28125 c 0.144531,0 0.21875,0.03125 0.21875,0.09375 0,0.0625 -0.015625,0.140625 -0.046875,0.234375 -0.054687,0.167969 -0.078125,0.4375 -0.078125,0.8125 z m 0,0" style="fill:#ffffff;stroke:none" />
      </g>
    </g>
    <g transform="matrix(2.4398846,0,0,2.4398846,-201.56194,-357.65916)" style="opacity:1;fill:#ffffff;fill-opacity:1" id="g3929">
      <g style="fill:#ffffff" transform="translate(103.95795,164.28)" id="use3927">
        <path id="path5473" d="m 1.765625,-6.265625 h -1.3125 v -1.15625 H 4.3125 v 1.15625 H 3.140625 v 1.75 H 4.28125 v 1.125 H 3.140625 v 1.546875 c 0.351563,-0.164063 0.738281,-0.363281 1.15625,-0.59375 0.019531,0.375 0.066406,0.710937 0.140625,1 C 5.28125,-2.4375 5.96875,-3.957031 6.5,-6 H 4.4375 V -7.203125 H 9.890625 V -6 H 7.875 C 7.75,-5.46875 7.601563,-4.960938 7.4375,-4.484375 V -3.625 l 0.953125,-0.484375 c 0.550781,0.960937 1.117188,2.085937 1.703125,3.375 L 8.8125,-0.078125 C 8.414063,-1.253906 7.957031,-2.289063 7.4375,-3.1875 V 1.78125 H 6.09375 V -1.578125 C 5.632813,-0.835938 5.101563,-0.125 4.5,0.5625 4.195313,0.28125 3.796875,-0.00390625 3.296875,-0.296875 3.585938,-0.535156 3.875,-0.804688 4.15625,-1.109375 3.144531,-0.515625 2.113281,0.113281 1.0625,0.78125 L 0.34375,-0.671875 C 0.757813,-0.816406 1.234375,-1 1.765625,-1.21875 V -3.390625 H 0.5625 v -1.125 h 1.203125 z m 0,0" style="fill:#ffffff;stroke:none" />
      </g>
    </g>
  </g>
</svg>
