<?xml version="1.0" encoding="UTF-8"?>
<svg xmlns="http://www.w3.org/2000/svg" xmlns:ns1="http://sodipodi.sourceforge.net/DTD/sodipodi-0.dtd" viewBox="0 0 138.62482 165.97871" height="165.97871" width="138.62482" id="svg16730" version="1.1">
  <defs id="defs16734" />
  <ns1:namedview showgrid="false" id="namedview16732" guidetolerance="10" gridtolerance="10" objecttolerance="10" borderopacity="1" bordercolor="#666666" pagecolor="#ffffff" />
  <g transform="translate(-2.5615,-3.5872074)" id="g16738">
    <path style="color:#000000;font-style:normal;font-variant:normal;font-weight:normal;font-stretch:normal;font-size:medium;line-height:normal;font-family:sans-serif;font-variant-ligatures:normal;font-variant-position:normal;font-variant-caps:normal;font-variant-numeric:normal;font-variant-alternates:normal;font-variant-east-asian:normal;font-feature-settings:normal;font-variation-settings:normal;text-indent:0;text-align:start;text-decoration:none;text-decoration-line:none;text-decoration-style:solid;text-decoration-color:#000000;letter-spacing:normal;word-spacing:normal;text-transform:none;writing-mode:lr-tb;direction:ltr;text-orientation:mixed;dominant-baseline:auto;baseline-shift:baseline;text-anchor:start;white-space:normal;shape-padding:0;shape-margin:0;inline-size:0;clip-rule:nonzero;display:inline;overflow:visible;visibility:visible;opacity:1;isolation:auto;mix-blend-mode:normal;color-interpolation:sRGB;color-interpolation-filters:linearRGB;solid-color:#000000;solid-opacity:1;vector-effect:none;fill:#245041;fill-opacity:1;fill-rule:nonzero;stroke:none;stroke-width:0.485;stroke-linecap:butt;stroke-linejoin:miter;stroke-miterlimit:4;stroke-dasharray:none;stroke-dashoffset:0;stroke-opacity:1;color-rendering:auto;image-rendering:auto;shape-rendering:auto;text-rendering:auto;enable-background:accumulate;stop-color:#000000;stop-opacity:1" d="m 14.739731,3.8297074 c -6.5850984,0 -11.9352861,5.3482236 -11.9353059,11.9333096 L 2.804,157.38812 c -1.97e-5,6.5851 5.3502075,11.9353 11.935306,11.9353 H 129.01008 c 6.58508,0 11.93328,-5.3502 11.9333,-11.9353 l 4.3e-4,-141.625103 C 140.94383,9.177931 135.5956,3.8297074 129.0105,3.8297074 Z" id="path6631" />
    <path id="path6633" style="color:#000000;font-style:normal;font-variant:normal;font-weight:normal;font-stretch:normal;font-size:medium;line-height:normal;font-family:sans-serif;font-variant-ligatures:normal;font-variant-position:normal;font-variant-caps:normal;font-variant-numeric:normal;font-variant-alternates:normal;font-variant-east-asian:normal;font-feature-settings:normal;font-variation-settings:normal;text-indent:0;text-align:start;text-decoration:none;text-decoration-line:none;text-decoration-style:solid;text-decoration-color:#000000;letter-spacing:normal;word-spacing:normal;text-transform:none;writing-mode:lr-tb;direction:ltr;text-orientation:mixed;dominant-baseline:auto;baseline-shift:baseline;text-anchor:start;white-space:normal;shape-padding:0;shape-margin:0;inline-size:0;clip-rule:nonzero;display:inline;overflow:visible;visibility:visible;opacity:1;isolation:auto;mix-blend-mode:normal;color-interpolation:sRGB;color-interpolation-filters:linearRGB;solid-color:#000000;solid-opacity:1;vector-effect:none;fill:#ffffff;fill-opacity:1;fill-rule:nonzero;stroke:none;stroke-width:2.90864;stroke-linecap:butt;stroke-linejoin:miter;stroke-miterlimit:4;stroke-dasharray:none;stroke-dashoffset:0;stroke-opacity:1;color-rendering:auto;image-rendering:auto;shape-rendering:auto;text-rendering:auto;enable-background:accumulate;stop-color:#000000;stop-opacity:1" d="m 14.739875,6.8954801 c -4.939232,0 -8.8675267,3.9283159 -8.8675416,8.8675459 L 5.8719083,157.38813 c -1.47e-5,4.93922 3.9283097,8.86753 8.8675407,8.86753 H 129.01022 c 4.93923,0 8.86754,-3.92831 8.86755,-8.86753 l 4.3e-4,-141.625104 c 1e-5,-4.93923 -3.92832,-8.8675459 -8.86755,-8.8675459 z m -0.0061,3.1337179 H 129.0185 c 3.16439,0 5.71187,2.567336 5.71186,5.743815 l -4.3e-4,141.621097 c -1e-5,3.16685 -2.54502,5.71185 -5.71186,5.71185 H 14.733323 c -3.166834,0 -5.711855,-2.545 -5.711846,-5.71185 L 9.021902,15.773013 c 10e-6,-3.176479 2.547461,-5.743815 5.711846,-5.743815 z" />
    <path id="rect4576" style="opacity:1;fill:#ffffff;fill-opacity:1;fill-rule:evenodd;stroke-width:0.491538;stroke-linecap:round" d="m 65.867855,81.14723 -4.613868,25.93358 H 70.90823 V 81.14723 Z m 8.437274,0 v 25.93358 h 9.654244 L 79.345505,81.14723 Z m -30.045112,27.2169 v 2.58747 h 5.485839 v 3.93145 h 2.483224 v -3.93145 h 40.510669 v 3.93145 h 2.485117 v -3.93145 h 5.228034 v -2.58747 z m 15.78246,4.01778 -7.762216,45.13677 H 70.90823 l -2.28e-4,-45.13677 z m 14.262424,0 2.28e-4,45.13677 h 18.62797 l -7.762672,-45.13677 z" />
    <g id="g17743" style="opacity:1" transform="matrix(0.1846603,0,0,0.1846603,39.218901,19.404311)">
      <path style="color:#000000;font-style:normal;font-variant:normal;font-weight:normal;font-stretch:normal;font-size:medium;line-height:normal;font-family:sans-serif;font-variant-ligatures:normal;font-variant-position:normal;font-variant-caps:normal;font-variant-numeric:normal;font-variant-alternates:normal;font-variant-east-asian:normal;font-feature-settings:normal;font-variation-settings:normal;text-indent:0;text-align:start;text-decoration:none;text-decoration-line:none;text-decoration-style:solid;text-decoration-color:#000000;letter-spacing:normal;word-spacing:normal;text-transform:none;writing-mode:lr-tb;direction:ltr;text-orientation:mixed;dominant-baseline:auto;baseline-shift:baseline;text-anchor:start;white-space:normal;shape-padding:0;shape-margin:0;inline-size:0;clip-rule:nonzero;display:inline;overflow:visible;visibility:visible;isolation:auto;mix-blend-mode:normal;color-interpolation:sRGB;color-interpolation-filters:linearRGB;solid-color:#000000;solid-opacity:1;vector-effect:none;fill:#ffffff;fill-opacity:1;fill-rule:nonzero;stroke:none;stroke-width:21.9;stroke-linecap:butt;stroke-linejoin:miter;stroke-miterlimit:4;stroke-dasharray:none;stroke-dashoffset:0;stroke-opacity:1;paint-order:stroke fill markers;color-rendering:auto;image-rendering:auto;shape-rendering:auto;text-rendering:auto;enable-background:accumulate;stop-color:#000000;stop-opacity:1" d="m 33.679688,0.109375 c -9.394309,0 -18.405823,2.4084506 -24.7832036,8.7871094 C 2.5191033,15.275143 0.11328125,24.287105 0.11328125,33.679688 V 249.74414 c 0,9.39451 2.40690455,18.40669 8.78515625,24.78516 6.3778055,6.37801 15.3888465,8.78482 24.7812505,8.78515 l 286.972652,0.041 c 9.39312,0 18.40496,-2.40669 24.78321,-8.78516 6.37825,-6.37846 8.78515,-15.39064 8.78515,-24.78515 V 33.679688 c 0,-9.393061 -2.40727,-18.404897 -8.78515,-24.7832036 C 339.05767,2.5181774 330.0447,0.109375 320.65039,0.109375 Z m 0,21.900391 H 320.65039 c 5.89069,0 8.18846,1.26065 9.29883,2.371093 1.11037,1.110443 2.37109,3.408889 2.37109,9.298829 V 249.78516 c 0,5.89349 -1.26014,8.19174 -2.36914,9.30078 -1.10885,1.10889 -3.40667,2.36881 -9.29687,2.36914 l -286.972659,-0.041 c -5.891885,0 -8.18983,-1.2601 -9.298829,-2.36914 -1.108998,-1.10903 -2.36914,-3.40729 -2.36914,-9.30078 V 33.679688 c 0,-5.890418 1.259272,-8.188737 2.36914,-9.298829 1.109869,-1.110091 3.406184,-2.371093 9.296876,-2.371093 z" id="path17745" />
      <path style="color:#000000;font-style:normal;font-variant:normal;font-weight:normal;font-stretch:normal;font-size:medium;line-height:normal;font-family:sans-serif;font-variant-ligatures:normal;font-variant-position:normal;font-variant-caps:normal;font-variant-numeric:normal;font-variant-alternates:normal;font-variant-east-asian:normal;font-feature-settings:normal;font-variation-settings:normal;text-indent:0;text-align:start;text-decoration:none;text-decoration-line:none;text-decoration-style:solid;text-decoration-color:#000000;letter-spacing:normal;word-spacing:normal;text-transform:none;writing-mode:lr-tb;direction:ltr;text-orientation:mixed;dominant-baseline:auto;baseline-shift:baseline;text-anchor:start;white-space:normal;shape-padding:0;shape-margin:0;inline-size:0;clip-rule:nonzero;display:inline;overflow:visible;visibility:visible;isolation:auto;mix-blend-mode:normal;color-interpolation:sRGB;color-interpolation-filters:linearRGB;solid-color:#000000;solid-opacity:1;vector-effect:none;fill:#245041;fill-opacity:1;fill-rule:nonzero;stroke:none;stroke-width:21.9;stroke-linecap:butt;stroke-linejoin:miter;stroke-miterlimit:4;stroke-dasharray:none;stroke-dashoffset:0;stroke-opacity:1;paint-order:stroke fill markers;color-rendering:auto;image-rendering:auto;shape-rendering:auto;text-rendering:auto;enable-background:accumulate;stop-color:#000000;stop-opacity:1" d="m 343.27,249.786 c 0,15.288 -7.332,22.619 -22.617,22.619 L 33.681,272.364 c -15.285,0 -22.617,-7.331 -22.617,-22.619 L 11.063,33.679 c 0,-15.283 7.332,-22.619 22.617,-22.619 h 286.971 c 15.285,0 22.619,7.336 22.619,22.619 z" id="path17747" />
    </g>
    <path style="opacity:1;stroke-width:0.18466" fill="#ff0000" d="m 41.261803,35.4476 v -9.823746 c 0,-2.823271 1.354115,-4.177204 4.17646,-4.177204 H 98.43041 c 2.82291,0 4.17684,1.353933 4.17684,4.177204 V 35.4476 Z" id="path17160" />
    <path style="opacity:1;stroke-width:0.18466" fill="#ffffff" d="m 51.07705,30.798961 v 0.288071 h -0.686936 v -4.996914 h 4.420583 v 4.952594 h -0.703556 v -0.243751 z m 3.030276,-0.58722 V 26.688416 H 51.07705 v 3.523325 z m -1.922315,-2.653569 h -0.952846 v -0.553986 h 2.675727 v 0.553986 h -1.047024 v 0.476421 h 0.941768 v 0.553978 h -0.343284 c 0.121692,0.180969 0.240059,0.369321 0.354548,0.565246 l -0.371352,0.155117 h 0.565246 v 0.570598 h -2.836383 v -0.570598 h 1.013785 v -0.720172 h -0.84759 v -0.553986 h 0.84759 v -0.476604 z m 1.213219,1.030399 h -0.537362 v 0.720181 h 0.354548 c -0.07755,-0.147917 -0.177274,-0.304692 -0.29915,-0.47107 z" id="path17162" />
    <path style="opacity:1;stroke-width:0.18466" fill="#ffffff" d="m 64.699256,27.713281 h -0.89191 V 27.18146 h 2.958443 v 0.531821 h -1.091342 c -0.121877,0.09622 -0.252985,0.192047 -0.393326,0.288261 0.214206,0.195925 0.378553,0.417328 0.493042,0.664774 0.332389,-0.169891 0.672163,-0.421023 1.01951,-0.753415 0.306351,0.217899 0.484733,0.349194 0.534591,0.393325 0.05005,0.04433 0.07478,0.08219 0.07478,0.113572 0,0.0314 -0.04524,0.05817 -0.135725,0.08029 -0.09049,0.02212 -0.298227,0.121875 -0.623229,0.299148 0.140341,0.576142 0.517049,1.057925 1.130121,1.445888 -0.218084,0.140345 -0.419363,0.30451 -0.603839,0.493045 -0.517235,-0.417511 -0.858671,-0.971314 -1.02505,-1.66194 -0.04413,0.02585 -0.108949,0.06098 -0.193893,0.105254 0.06648,0.317618 0.09972,0.600145 0.09972,0.847591 0,0.380399 -0.09695,0.650747 -0.29084,0.811772 -0.193894,0.16047 -0.530898,0.240982 -1.011015,0.240982 -0.02215,-0.251141 -0.103594,-0.47827 -0.243752,-0.681212 0.110981,0.0033 0.20682,0.005 0.288254,0.005 0.24006,0 0.396836,-0.02213 0.470885,-0.06629 0.07368,-0.04433 0.110796,-0.116523 0.110796,-0.216051 0,-0.0999 -0.0073,-0.245598 -0.02215,-0.437828 -0.568753,0.465528 -1.272309,0.864205 -2.110666,1.196596 -0.09233,-0.228977 -0.234704,-0.406251 -0.426566,-0.531821 0.417332,-0.110979 0.848515,-0.284375 1.293545,-0.520743 0.444848,-0.236368 0.81897,-0.489166 1.121812,-0.75895 -0.02215,-0.08103 -0.04432,-0.145697 -0.06648,-0.193713 -0.428412,0.325001 -1.015631,0.644466 -1.761659,0.958206 -0.110796,-0.177273 -0.249291,-0.337934 -0.415486,-0.481965 0.712605,-0.173397 1.338787,-0.476241 1.877996,-0.908525 -0.02955,-0.03696 -0.07202,-0.07557 -0.127416,-0.11634 -0.531821,0.299149 -1.03022,0.51723 -1.495748,0.653696 -0.118368,-0.203125 -0.24209,-0.384095 -0.371168,-0.5429 0.826909,-0.181333 1.436288,-0.423244 1.827769,-0.726088 z m 0.221777,-1.368516 c -0.01108,-0.125563 -0.04229,-0.273107 -0.09418,-0.443181 l 0.880829,-0.09417 c 0.02585,0.177456 0.03878,0.356576 0.03878,0.537356 h 1.911419 v 1.124583 h -0.731255 v -0.570598 h -3.257591 v 0.570598 H 62.987823 V 26.34477 Z" id="path17164" />
    <path style="opacity:1;stroke-width:0.18466" fill="#ffffff" d="m 77.668133,26.32279 c -0.02954,-0.158805 -0.06095,-0.29933 -0.09418,-0.421206 l 0.86975,-0.07755 c 0.03675,0.192239 0.06094,0.358434 0.07202,0.49877 h 1.889075 v 0.575959 h -4.769777 v -0.575968 z m -0.1276,4.176832 v 0.182816 h -0.60384 v -1.457157 h 2.177146 v 1.141387 c 0.129077,0.01848 0.22233,0.02751 0.27976,0.02751 0.05725,0 0.09325,-0.01184 0.108026,-0.03579 0.01478,-0.02403 0.02215,-0.07126 0.02215,-0.141264 V 29.05358 h -2.974877 v 1.961089 h -0.681213 v -2.520244 h 4.359831 v 1.789176 c 0,0.180968 -0.02697,0.323152 -0.08051,0.426749 -0.05355,0.103224 -0.152345,0.182816 -0.296196,0.238024 -0.144034,0.0556 -0.356579,0.09234 -0.637077,0.110988 -0.0039,-0.184846 -0.03693,-0.345316 -0.09972,-0.481965 v 0.0831 h -0.637078 v -0.160653 h -0.936413 z m 2.088693,-2.176957 h -3.129993 v -1.257719 h 3.129993 z m -0.770034,-0.476423 v -0.288253 h -1.650864 v 0.288253 z m -0.382247,2.193579 v -0.326848 h -0.936228 v 0.326848 z" id="path17166" />
    <path style="opacity:1;stroke-width:0.18466" fill="#ffffff" d="m 93.478745,30.1508 c -0.08145,0.221594 -0.138497,0.459619 -0.172103,0.714638 -0.494884,0.01848 -0.94712,0.02767 -1.357249,0.02767 -0.890063,0 -1.481898,-0.03248 -1.775511,-0.09695 -0.293424,-0.06479 -0.503013,-0.154371 -0.628583,-0.268681 -0.08128,-0.07383 -0.141454,-0.110789 -0.180232,-0.110789 -0.03878,0 -0.08401,0.02196 -0.135538,0.06629 -0.0517,0.04433 -0.138496,0.125571 -0.260371,0.243758 -0.121876,0.11818 -0.208851,0.219556 -0.260372,0.304684 -0.218081,-0.225463 -0.408098,-0.417511 -0.570598,-0.576323 0.236177,-0.184657 0.412531,-0.310228 0.528863,-0.376522 0.116523,-0.06645 0.186512,-0.11929 0.210698,-0.157885 0.02403,-0.03878 0.03604,-0.109869 0.03604,-0.213102 v -1.479312 h -0.642618 v -0.61492 h 1.324014 v 1.983253 c 0,0.121694 0.04797,0.229905 0.144039,0.324081 0.09602,0.09418 0.209588,0.163429 0.340511,0.20774 0.131297,0.04433 0.341622,0.07755 0.631541,0.09972 0.289918,0.02212 0.692473,0.03339 1.207863,0.03339 0.5152,0 1.035023,-0.03712 1.559644,-0.110797 z m -3.689696,-3.113554 -0.681212,0.310227 c -0.14791,-0.346974 -0.350853,-0.683061 -0.609377,-1.008061 l 0.653514,-0.349195 c 0.280862,0.417336 0.493226,0.766523 0.637075,1.047029 z m 1.357438,-0.09954 h -1.329556 v -0.570781 h 1.329556 V 25.90731 h 0.603842 c 0.08863,0 0.133135,0.02403 0.133135,0.07183 0,0.02237 -0.01184,0.0556 -0.03604,0.0999 -0.0242,0.04433 -0.03604,0.140344 -0.03604,0.28807 h 1.362981 v 0.570789 h -1.368333 v 0.310228 h 1.124583 v 1.47913 h -0.636893 c 0.287881,0.240238 0.601994,0.52443 0.941767,0.852944 l -0.553985,0.432285 C 92.441266,29.705958 92.1495,29.421583 91.806213,29.159364 v 0.952844 h -0.659232 v -0.997165 c -0.24375,0.336086 -0.570606,0.644465 -0.980734,0.925146 -0.143667,-0.151232 -0.317428,-0.30635 -0.520553,-0.465336 0.276985,-0.147735 0.488421,-0.279951 0.634117,-0.396101 0.14607,-0.116523 0.279951,-0.266835 0.401826,-0.451491 H 90.044554 V 27.24813 h 1.102427 v -0.310418 z m 0,1.268614 v -0.426749 h -0.471069 v 0.426749 z m 0.65924,-0.426749 v 0.426749 h 0.476423 v -0.426749 z m 0,0.947492 v 0.365634 l 0.432102,-0.365634 z" id="path17168" />
    <path style="opacity:1;stroke-width:0.18466" fill="#ffffff" d="m 64.601755,52.052621 c -0.28844,7.873362 -2.727618,11.809948 -7.31735,11.809948 -2.161264,0 -3.936587,-1.054776 -5.325972,-3.164893 -1.389384,-2.109378 -2.084076,-4.913998 -2.084076,-8.413494 0,-3.782213 0.704849,-6.721451 2.115099,-8.818824 1.409513,-2.096627 3.226385,-3.145313 5.449511,-3.145313 1.39954,0 2.665386,0.488976 3.797539,1.466387 1.131783,0.978142 2.0272,2.393008 2.686068,4.245339 l -3.396272,1.582354 c -0.576509,-1.800626 -1.636275,-2.701577 -3.18022,-2.701577 -2.511565,0 -3.7667,2.405934 -3.7667,7.21689 0,4.811693 1.286159,7.217263 3.8594,7.217263 1.440535,0 2.470016,-0.887661 3.08752,-2.663173 h -2.161264 v -4.63128 h 6.236717 z" id="path17170" />
    <path style="opacity:1;stroke-width:0.18466" fill="#ffffff" d="M 74.450613,63.669594 H 70.745587 V 47.76887 h -1.852512 v -4.78566 c 1.049979,-0.411421 1.739131,-1.31219 2.06875,-2.701578 h 3.488971 v 23.387962 z" id="path17172" />
    <path style="opacity:1;stroke-width:0.18466" fill="#ffffff" d="m 83.558796,48.193407 c 0.926257,-0.282901 2.058039,-0.424537 3.396269,-0.424537 2.161265,0 3.875098,0.80438 5.140763,2.412215 1.265848,1.608397 1.898865,3.525355 1.898865,5.750693 0,2.22571 -0.65887,4.110163 -1.976055,5.653741 -1.31755,1.543943 -3.046522,2.315827 -5.187105,2.315827 -2.963985,0 -5.537041,-0.823215 -7.718803,-2.470198 l 2.037726,-3.897809 c 1.482084,1.209704 3.293047,1.813917 5.434186,1.813917 1.316996,0 2.274092,-0.308752 2.871469,-0.926256 0.596633,-0.617694 0.895599,-1.492056 0.895599,-2.624578 0,-1.131784 -0.319465,-1.987686 -0.95746,-2.566412 -0.638185,-0.578909 -1.554291,-0.868273 -2.747937,-0.868273 -1.194009,0 -2.346475,0.283273 -3.45813,0.849074 l -3.735677,-1.813925 0.802718,-10.883501 h 12.103188 v 4.63128 H 83.92941 Z" id="path17174" />
  </g>
</svg>
