<?xml version="1.0" encoding="UTF-8"?>
<svg xmlns="http://www.w3.org/2000/svg" xmlns:ns1="http://sodipodi.sourceforge.net/DTD/sodipodi-0.dtd" viewBox="0 0 133.72273 169.94551" height="169.94551" width="133.72273" id="svg13638" version="1.1">
  <defs id="defs13642" />
  <ns1:namedview showgrid="false" id="namedview13640" guidetolerance="10" gridtolerance="10" objecttolerance="10" borderopacity="1" bordercolor="#666666" pagecolor="#ffffff" />
  <g transform="translate(-3.6626593,-2.1410738)" id="g13646">
    <g id="g3794" transform="matrix(0.99053872,0,0,0.99053872,-121.91779,-502.03838)">
      <path id="rect2996" style="fill:#ffffff;fill-opacity:1;fill-rule:nonzero;stroke:#253898;stroke-width:2.99692;stroke-miterlimit:4;stroke-dasharray:none;stroke-dashoffset:0;stroke-opacity:1" d="m 138.44305,510.49366 h 111.67381 c 5.63121,0 10.16463,4.53343 10.16463,10.16464 v 148.24258 c 0,5.63121 -4.53342,10.16463 -10.16463,10.16463 H 138.44305 c -5.63121,0 -10.16464,-4.53342 -10.16464,-10.16463 V 520.6583 c 0,-5.63121 4.53343,-10.16464 10.16464,-10.16464 z" />
      <path d="m 20.494141,0.35330511 c -2.522775,0 -4.373036,1.85942799 -4.373047,4.40624999 L 16.120649,107.32647 H 144.44922 V 4.7595551 c 0,-2.546822 -1.85027,-4.40624999 -4.37305,-4.40624999 z" transform="matrix(0.93398352,0,0,0.93398352,119.29652,516.22276)" style="fill:#253898;fill-opacity:1;fill-rule:nonzero;stroke:#253898;stroke-width:3.20875;stroke-miterlimit:4;stroke-dasharray:none;stroke-dashoffset:0;stroke-opacity:1" id="path3776" />
    </g>
    <path style="fill:#ffffff;fill-opacity:1;stroke-width:0.0724993" d="M 73.929929,94.392988 C 73.77943,94.159848 73.313738,93.444262 72.89506,92.8028 l -0.761241,-1.166288 -1.558739,0.04134 c -0.857295,0.02274 -1.607669,0.06625 -1.667477,0.09682 -0.06374,0.03253 0.200979,0.908947 0.354815,1.347058 0.202831,0.577643 0.745259,1.678658 0.745259,1.678658 l 1.034369,0.01649 h 3.161512 z M 124.63942,91.765244 C 124.58492,88.223345 124.19891,85.01188 123.27627,80.425789 120.25073,65.387105 113.42042,52.196246 104.2759,43.731882 99.950004,39.727717 95.725306,36.824484 90.621122,34.348207 82.200021,30.26275 77.103234,28.901145 69.560096,28.721753 57.748529,28.440847 45.980399,32.883042 36.862938,41.064172 c -1.76245,1.581452 -3.89902,3.839938 -5.41309,5.721964 -7.65973,9.521273 -13.07189,24.251779 -15.32966,41.723315 -0.11685,0.904277 -0.16316,1.740556 -0.18974,3.426514 l -0.0351,2.230279 5.06451,-0.01164 c 2.78546,-0.0065 7.41224,-0.04765 10.28171,-0.09159 l 5.21722,-0.07985 0.92882,-1.44999 c 2.62313,-4.095073 4.72159,-7.897971 5.666682,-10.269372 0.762198,-1.912506 1.65674,-6.457772 2.084642,-10.592279 l 0.08822,-0.851867 h 5.844093 5.844104 l 0.597014,1.045933 c 0.65408,1.145914 0.567686,1.074705 1.422642,1.172489 l 0.430981,0.04928 -0.24973,-0.313106 C 58.978909,72.602041 58.581835,72.09996 58.233877,71.658526 l -0.632651,-0.802633 4.34328,-0.01871 4.343292,-0.01871 2.219521,0.945288 c 9.524231,4.056315 16.87785,7.675253 20.700144,10.187155 2.997394,1.969813 8.727277,6.661868 13.815107,11.312836 l 0.8015,0.732675 3.11346,0.04775 c 1.7124,0.02622 6.40425,0.06919 10.42633,0.0954 l 7.31286,0.04765 z M 112.0809,92.471953 C 105.36325,87.45116 99.176177,83.220077 94.753584,80.622498 90.415493,78.074567 82.979907,75.083885 71.553818,71.2913 69.599964,70.642767 67.93611,70.098871 67.856362,70.082641 c -0.115493,-0.0235 -0.141753,-0.08061 -0.129025,-0.280623 0.03546,-0.557505 -0.504713,-2.823573 -1.041603,-4.369573 -1.069158,-3.078697 -2.669484,-5.675797 -4.375568,-7.100898 -1.48616,-1.241413 -3.457572,-2.251491 -5.425492,-2.779842 -0.963857,-0.25878 -2.26065,-0.315031 -3.167201,-0.137402 -2.457675,0.481586 -4.715704,1.826004 -6.057392,3.606548 -1.470843,1.951961 -2.63352,6.013182 -2.796681,9.768804 -0.04221,0.971254 -0.04645,0.990389 -0.550651,2.501231 -1.039722,3.11527 -2.053498,5.638855 -3.078132,7.662373 -1.177739,2.325865 -2.148799,3.558989 -5.072079,6.4409 -2.79358,2.754051 -6.30148,5.761811 -10.09539,8.656048 -0.31981,0.243964 0.40741,-6.985895 1.15893,-11.521947 1.55882,-9.408661 4.19863,-17.714368 7.60408,-23.924749 3.85908,-7.037664 9.461563,-13.125699 16.061382,-17.453358 5.244284,-3.438807 10.816053,-5.54229 15.902616,-6.003654 1.401115,-0.127089 4.181011,-0.05319 5.484658,0.145865 2.11348,0.322646 3.766401,0.727671 5.908687,1.447836 9.4349,3.171706 18.474369,10.12105 23.959589,18.419598 2.6305,3.979657 5.04688,9.026633 7.01165,14.644852 2.38968,6.833253 4.24659,15.254485 5.02325,22.780816 0.1369,1.326643 0.13965,1.53311 0.0195,1.459334 -0.0498,-0.03057 -1.00412,-0.738386 -2.12061,-1.572847 z M 70.103176,87.373382 c -0.417764,-0.641168 -2.749079,-3.981898 -2.803415,-4.01723 -0.07093,-0.04612 -2.453172,-0.23475 -2.490712,-0.197221 -0.02807,0.02807 1.701492,4.207391 1.768066,4.272551 0.02567,0.02513 0.859678,0.06853 1.853254,0.09638 l 1.806488,0.05058 z m -4.385477,-7.494448 c -3.2e-5,-0.02165 -0.873166,-1.049261 -1.940289,-2.28357 l -1.940215,-2.244203 -0.687878,-0.198113 c -0.378331,-0.108966 -0.711148,-0.190596 -0.739583,-0.181414 -0.05689,0.01838 2.62819,4.584328 2.782922,4.732238 0.09584,0.09159 2.525195,0.260042 2.525043,0.175062 z" id="path14784" />
    <g style="font-size:41.4726px;line-height:1.25;font-family:IrisUPC;-inkscape-font-specification:'IrisUPC, Normal';fill:#253898;fill-opacity:1;stroke-width:1.03681" id="text14803" transform="scale(0.8655543,1.155329)" aria-label="2500">
      <path id="path14809" style="font-style:normal;font-variant:normal;font-weight:normal;font-stretch:normal;font-family:'Highway Gothic Wide';-inkscape-font-specification:'Highway Gothic Wide';fill:#253898;fill-opacity:1;stroke-width:1.03681" d="M 40.66588,134.51187 H 18.270677 q 0.829452,-10.90729 11.363492,-15.34486 2.737191,-1.11976 4.479041,-2.15658 1.741849,-1.07828 1.617431,-2.48835 0,-1.3686 -1.368596,-2.28099 -1.368596,-0.95387 -4.271678,-0.99535 -4.354622,0.12442 -7.713903,3.4837 l -4.022842,-3.23486 q 5.018184,-5.1426 11.612328,-5.22555 4.893766,0 7.796848,2.44688 2.903082,2.40542 2.903082,5.80617 -0.04147,2.94455 -1.575959,4.6864 -1.534486,1.70038 -5.847636,3.56665 -6.842979,3.27633 -8.170102,6.76003 H 40.66588 Z" />
      <path id="path14811" style="font-style:normal;font-variant:normal;font-weight:normal;font-stretch:normal;font-family:'Highway Gothic Wide';-inkscape-font-specification:'Highway Gothic Wide';fill:#253898;fill-opacity:1;stroke-width:1.03681" d="m 66.99126,124.97317 q 0,4.35463 -3.276335,7.21624 -3.276335,2.82013 -8.418937,2.82013 -5.598801,0 -10.699931,-3.11044 l 2.612774,-4.18873 q 3.856951,2.19804 8.087157,2.28099 3.19339,0.0415 5.059657,-1.41007 1.866267,-1.49301 1.866267,-3.64959 0.08294,-2.28099 -1.700377,-3.64959 -1.783322,-1.41007 -4.603458,-1.45154 -2.986028,0.0415 -5.972055,1.28565 l -4.31315,-1.24418 0.705034,-13.14681 h 18.538252 v 4.93524 H 50.982837 l -0.248835,4.06431 q 2.488356,-0.7465 5.349965,-0.78798 4.769349,0 7.838321,2.86161 3.068972,2.82014 3.068972,7.17476 z" />
      <path id="path14813" style="font-style:normal;font-variant:normal;font-weight:normal;font-stretch:normal;font-family:'Highway Gothic Wide';-inkscape-font-specification:'Highway Gothic Wide';fill:#253898;fill-opacity:1;stroke-width:1.03681" d="m 94.602291,120.49413 q 0,6.5112 -3.151917,10.53404 -3.110445,3.98137 -8.335993,3.98137 -5.723218,0 -8.958081,-4.60346 -2.820137,-3.98137 -2.820137,-9.829 0,-6.63562 3.151918,-10.4511 3.151917,-3.85695 8.6263,-3.85695 5.142603,0 8.29452,3.9399 3.19339,3.89842 3.19339,10.2852 z m -4.935239,0.0829 q 0,-4.3961 -1.741849,-6.88445 -1.700377,-2.48836 -4.810822,-2.48836 -3.151917,0 -4.935239,2.48836 -1.783322,2.48835 -1.783322,6.88445 0,4.43757 1.783322,6.96739 1.783322,2.48836 4.935239,2.48836 3.566644,0 5.225548,-3.11044 1.327123,-2.44689 1.327123,-6.34531 z" />
      <path id="path14815" style="font-style:normal;font-variant:normal;font-weight:normal;font-stretch:normal;font-family:'Highway Gothic Wide';-inkscape-font-specification:'Highway Gothic Wide';fill:#253898;fill-opacity:1;stroke-width:1.03681" d="m 122.6287,120.49413 q 0,6.5112 -3.15192,10.53404 -3.11044,3.98137 -8.33599,3.98137 -5.72322,0 -8.95808,-4.60346 -2.820138,-3.98137 -2.820138,-9.829 0,-6.63562 3.151918,-10.4511 3.15192,-3.85695 8.6263,-3.85695 5.1426,0 8.29452,3.9399 3.19339,3.89842 3.19339,10.2852 z m -4.93524,0.0829 q 0,-4.3961 -1.74185,-6.88445 -1.70037,-2.48836 -4.81082,-2.48836 -3.15192,0 -4.93524,2.48836 -1.78332,2.48835 -1.78332,6.88445 0,4.43757 1.78332,6.96739 1.78332,2.48836 4.93524,2.48836 3.56664,0 5.22555,-3.11044 1.32712,-2.44689 1.32712,-6.34531 z" />
    </g>
    <g style="font-size:20.2599px;line-height:1.25;font-family:IrisUPC;-inkscape-font-specification:'IrisUPC, Normal';fill:#253898;fill-opacity:1;stroke-width:0.506497" id="text14807" transform="scale(0.94860186,1.054183)" aria-label="m">
      <path id="path14818" style="font-style:normal;font-variant:normal;font-weight:normal;font-stretch:normal;font-family:'Highway Gothic Wide';-inkscape-font-specification:'Highway Gothic Wide';fill:#253898;fill-opacity:1;stroke-width:0.506497" d="m 132.71258,149.05481 h -2.43119 v -5.89563 q 0,-0.83066 -0.46597,-1.31689 -0.44572,-0.5065 -1.23586,-0.5065 -0.70909,0 -1.21559,0.52676 -0.5065,0.50649 -0.5065,1.19533 v 5.99693 h -2.32989 v -5.89563 q 0,-0.79014 -0.52675,-1.29663 -0.52676,-0.52676 -1.27638,-0.52676 -0.70909,0 -1.17507,0.5065 -0.44572,0.50649 -0.44572,1.25611 v 5.95641 h -2.43119 v -9.90709 h 2.43119 v 0.81039 q 0.76988,-0.87117 2.39067,-0.89143 1.62079,0.0608 2.53249,1.37767 0.91169,-1.35741 2.79586,-1.37767 1.86391,0.0405 2.87691,1.27637 1.01299,1.23586 1.01299,2.69457 z" />
    </g>
  </g>
</svg>
