<?xml version="1.0" encoding="UTF-8"?>
<svg xmlns="http://www.w3.org/2000/svg" xmlns:ns1="http://sodipodi.sourceforge.net/DTD/sodipodi-0.dtd" viewBox="0 0 162.14458 166.11169" height="166.11169" width="162.14458" id="svg2071" version="1.1">
  <defs id="defs2075">
    <pattern id="EMFhbasepattern" patternUnits="userSpaceOnUse" width="6" height="6" x="0" y="0" />
  </defs>
  <ns1:namedview showgrid="false" id="namedview2073" guidetolerance="10" gridtolerance="10" objecttolerance="10" borderopacity="1" bordercolor="#666666" pagecolor="#ffffff" />
  <g transform="translate(-6.8241,-4.3479975)" id="g2079">
    <path style="color:#000000;font-style:normal;font-variant:normal;font-weight:normal;font-stretch:normal;font-size:medium;line-height:normal;font-family:sans-serif;font-variant-ligatures:normal;font-variant-position:normal;font-variant-caps:normal;font-variant-numeric:normal;font-variant-alternates:normal;font-variant-east-asian:normal;font-feature-settings:normal;font-variation-settings:normal;text-indent:0;text-align:start;text-decoration:none;text-decoration-line:none;text-decoration-style:solid;text-decoration-color:#000000;letter-spacing:normal;word-spacing:normal;text-transform:none;writing-mode:lr-tb;direction:ltr;text-orientation:mixed;dominant-baseline:auto;baseline-shift:baseline;text-anchor:start;white-space:normal;shape-padding:0;shape-margin:0;inline-size:0;clip-rule:nonzero;display:inline;overflow:visible;visibility:visible;opacity:1;isolation:auto;mix-blend-mode:normal;color-interpolation:sRGB;color-interpolation-filters:linearRGB;solid-color:#000000;solid-opacity:1;vector-effect:none;fill:#ffffff;fill-opacity:1;fill-rule:nonzero;stroke:none;stroke-width:2.39897;stroke-linecap:butt;stroke-linejoin:miter;stroke-miterlimit:4;stroke-dasharray:none;stroke-dashoffset:0;stroke-opacity:1;color-rendering:auto;image-rendering:auto;shape-rendering:auto;text-rendering:auto;enable-background:accumulate;stop-color:#000000;stop-opacity:1" d="m 16.40818,5.7955256 h 142.97574 c 4.50768,0 8.1366,3.6289175 8.1366,8.1365974 V 160.87655 c 0,4.50767 -3.62892,8.13659 -8.1366,8.13659 H 16.40818 c -4.50767,0 -8.13659,-3.62892 -8.13659,-8.13659 V 13.932123 c 0,-4.5076799 3.62892,-8.1365974 8.13659,-8.1365974 z" id="path81" />
    <path d="M 11.93487,60.661667 V 160.87989 c 0,2.4775 1.99164,4.46913 4.46914,4.46913 h 142.98698 c 2.47749,0 4.46913,-1.99163 4.46913,-4.46913 V 60.661667 h -5.2676 -141.40168 z" style="color:#000000;font-style:normal;font-variant:normal;font-weight:normal;font-stretch:normal;font-size:medium;line-height:normal;font-family:sans-serif;font-variant-ligatures:normal;font-variant-position:normal;font-variant-caps:normal;font-variant-numeric:normal;font-variant-alternates:normal;font-variant-east-asian:normal;font-feature-settings:normal;font-variation-settings:normal;text-indent:0;text-align:start;text-decoration:none;text-decoration-line:none;text-decoration-style:solid;text-decoration-color:#000000;letter-spacing:normal;word-spacing:normal;text-transform:none;writing-mode:lr-tb;direction:ltr;text-orientation:mixed;dominant-baseline:auto;baseline-shift:baseline;text-anchor:start;white-space:normal;shape-padding:0;shape-margin:0;inline-size:0;clip-rule:nonzero;display:inline;overflow:visible;visibility:visible;opacity:1;isolation:auto;mix-blend-mode:normal;color-interpolation:sRGB;color-interpolation-filters:linearRGB;solid-color:#000000;solid-opacity:1;vector-effect:none;fill:#24513d;fill-opacity:1;fill-rule:nonzero;stroke:none;stroke-width:2.39897;stroke-linecap:butt;stroke-linejoin:miter;stroke-miterlimit:4;stroke-dasharray:none;stroke-dashoffset:0;stroke-opacity:1;color-rendering:auto;image-rendering:auto;shape-rendering:auto;text-rendering:auto;enable-background:accumulate;stop-color:#000000;stop-opacity:1" id="path75" />
    <path id="path414" d="m 40.456448,30.157256 c 2.008372,-1.672143 3.604304,-3.339802 4.787795,-5.00298 2.151826,1.829046 3.290495,2.815298 3.424989,2.958751 0.143444,0.134489 0.215175,0.268979 0.215175,0.412431 0,0.277944 -0.282422,0.497609 -0.842792,0.663479 -0.838326,0.242079 -2.824263,1.685591 -5.953365,4.339501 2.187677,3.909138 5.079188,6.769263 8.678997,8.571411 -1.734911,1.421098 -2.972203,2.627014 -3.711887,3.62223 -3.729818,-2.94082 -6.572012,-6.77823 -8.517611,-11.512231 v 9.93423 c 0,1.1835 -0.156909,2.080091 -0.466223,2.689773 -0.313806,0.61865 -0.914536,1.066945 -1.811116,1.344888 -0.89659,0.286909 -2.26838,0.457262 -4.10639,0.520022 -0.0986,-1.712489 -0.58278,-3.156001 -1.45248,-4.339501 1.24178,0.143454 2.12492,0.215182 2.6539,0.215182 0.53796,0 0.88315,-0.07173 1.04005,-0.215182 0.15242,-0.143454 0.23313,-0.407949 0.23313,-0.789 V 20.492002 h 3.389105 c 0.681408,0 1.022106,0.138972 1.022106,0.412433 0,0.12104 -0.06271,0.336221 -0.179314,0.645545 -0.121038,0.300358 -0.197245,0.59175 -0.233116,0.878659 -0.03592,0.277943 -0.06728,0.753137 -0.0897,1.434546 0.475191,2.106989 1.116253,4.205012 1.918709,6.294071 z M 34.19825,27.521277 c -0.2645,4.12432 -1.05351,7.549298 -2.36701,10.274935 -1.31798,2.725638 -3.42498,5.375064 -6.32993,7.943798 -1.29109,-1.125222 -2.53735,-1.999398 -3.72982,-2.618046 4.43364,-2.748052 7.15928,-6.782712 8.1769,-12.103981 h -7.06512 v -3.496706 z m 0,0" style="opacity:1;fill:#24513d;fill-opacity:1;stroke:none;stroke-width:1.14763" />
    <path id="path418" d="M 67.661577,22.984526 C 67.553994,22.195525 67.39261,21.334798 67.177415,20.402344 l 4.895397,-0.466229 c 0.143454,1.03108 0.242077,2.044229 0.304838,3.048411 h 10.72323 v 6.204411 H 79.066215 V 26.212254 H 60.632314 v 2.044227 h 18.380109 v 8.302436 H 64.003482 v 1.631795 H 80.572494 V 48.214603 H 76.448176 V 46.582806 H 64.003482 v 1.936638 H 60.130221 V 29.224801 h -3.317387 v -6.240275 z m -3.658095,8.463821 v 2.044228 h 10.902554 v -2.044228 z m 0,12.157776 H 76.448176 V 41.257054 H 64.003482 Z m 0,0" style="opacity:1;fill:#24513d;fill-opacity:1;stroke:none;stroke-width:1.14763" />
    <path id="path422" d="m 103.64637,22.751412 c -0.15691,-0.869694 -0.32278,-1.636279 -0.50209,-2.295273 l 4.71607,-0.430364 c 0.20173,1.053495 0.33173,1.963534 0.39449,2.725637 h 10.25701 V 25.87155 H 92.600362 v -3.120138 z m 10.6515,10.866685 H 97.298494 v -6.832024 h 16.999376 z m -4.17811,-2.600114 v -1.560068 h -8.96591 v 1.560068 z m -7.17275,14.417186 v 1.004183 h -3.281514 v -7.925867 h 11.834994 v 6.204411 c 0.70384,0.107591 1.21041,0.161387 1.52421,0.161387 0.30934,0 0.50658,-0.06725 0.59176,-0.19725 0.0807,-0.134489 0.12552,-0.390017 0.12552,-0.771068 V 37.581031 H 97.567471 V 48.250466 H 93.855585 V 34.550552 h 23.705875 v 9.719049 c 0,0.977284 -0.15241,1.748354 -0.44829,2.313205 -0.28692,0.56037 -0.82487,0.990733 -1.61387,1.291092 -0.78003,0.309323 -1.93216,0.511057 -3.46085,0.609682 -0.0134,-1.004183 -0.19276,-1.87836 -0.53796,-2.618046 v 0.448295 h -3.46084 v -0.87866 z m 5.09264,-2.492524 v -1.77525 h -5.09264 v 1.77525 z m 0,0" style="opacity:1;fill:#24513d;fill-opacity:1;stroke:none;stroke-width:1.14763" />
    <path id="path426" d="m 142.81165,26.086732 h -7.22652 v -3.102206 h 7.22652 v -2.492524 h 3.28153 c 0.48864,0 0.73521,0.125523 0.73521,0.376569 0,0.134488 -0.0673,0.31829 -0.19726,0.555886 -0.13448,0.24208 -0.19725,0.762102 -0.19725,1.560069 h 7.40585 v 3.102206 h -7.44171 v 1.685592 h 6.11476 v 8.033455 h -3.46084 c 1.56453,1.304541 3.26806,2.851161 5.11056,4.644343 l -3.01254,2.349069 c -1.30455,-1.672143 -2.88703,-3.218763 -4.75194,-4.644342 v 5.182297 h -3.58637 v -5.415412 c -1.31798,1.829047 -3.09323,3.505672 -5.32575,5.020911 -0.78004,-0.824863 -1.72145,-1.667659 -2.83323,-2.528387 1.50628,-0.797966 2.65391,-1.515238 3.44292,-2.151819 0.79796,-0.632096 1.52868,-1.452478 2.18768,-2.45666 h -3.46085 v -8.033455 h 5.98923 z m 0,6.885819 v -2.313205 h -2.54631 v 2.313205 z m 3.58637,-2.313205 v 2.313205 h 2.60011 v -2.313205 z m 0,5.146433 v 1.990433 l 2.34907,-1.990433 z m -10.95634,-9.181093 -3.7119,1.685591 c -0.80244,-1.887323 -1.90077,-3.711887 -3.29945,-5.469206 l 3.5505,-1.900773 c 1.52869,2.272859 2.68081,4.169148 3.46085,5.684388 z m 20.04777,16.927641 c -0.4438,1.192468 -0.75314,2.483559 -0.93245,3.873273 -2.68977,0.107593 -5.14643,0.161387 -7.36998,0.161387 -4.8416,0 -8.06484,-0.179317 -9.66526,-0.537954 -1.59145,-0.34967 -2.72563,-0.833828 -3.40703,-1.452478 -0.44382,-0.407948 -0.77107,-0.60968 -0.98626,-0.60968 -0.20622,0 -0.4483,0.116557 -0.73521,0.358635 -0.27794,0.251045 -0.74865,0.690376 -1.41661,1.326956 -0.659,0.645545 -1.12523,1.201432 -1.39868,1.667658 -1.1835,-1.232812 -2.21908,-2.27734 -3.1022,-3.138068 1.27763,-1.004183 2.23251,-1.685592 2.86908,-2.044228 0.6321,-0.358637 1.01316,-0.645546 1.14764,-0.860728 0.13001,-0.215182 0.19725,-0.600716 0.19725,-1.165569 v -8.033456 h -3.4967 v -3.33532 h 7.19065 v 10.777027 c 0,0.658995 0.26002,1.24626 0.789,1.757318 0.52451,0.515541 1.13867,0.892109 1.84698,1.129705 0.71728,0.237596 1.85595,0.416915 3.42498,0.537955 1.57801,0.116557 3.76569,0.179318 6.56305,0.179318 2.80634,0 5.63507,-0.197249 8.48175,-0.591751 z m 0,0" style="opacity:1;fill:#24513d;fill-opacity:1;stroke:none;stroke-width:1.14763" />
    <path style="color:#000000;font-style:normal;font-variant:normal;font-weight:normal;font-stretch:normal;font-size:medium;line-height:normal;font-family:sans-serif;font-variant-ligatures:normal;font-variant-position:normal;font-variant-caps:normal;font-variant-numeric:normal;font-variant-alternates:normal;font-variant-east-asian:normal;font-feature-settings:normal;font-variation-settings:normal;text-indent:0;text-align:start;text-decoration:none;text-decoration-line:none;text-decoration-style:solid;text-decoration-color:#000000;letter-spacing:normal;word-spacing:normal;text-transform:none;writing-mode:lr-tb;direction:ltr;text-orientation:mixed;dominant-baseline:auto;baseline-shift:baseline;text-anchor:start;white-space:normal;shape-padding:0;shape-margin:0;inline-size:0;clip-rule:nonzero;display:inline;overflow:visible;visibility:visible;opacity:1;isolation:auto;mix-blend-mode:normal;color-interpolation:sRGB;color-interpolation-filters:linearRGB;solid-color:#000000;solid-opacity:1;vector-effect:none;fill:#24513d;fill-opacity:1;fill-rule:nonzero;stroke:none;stroke-width:0.496;stroke-linecap:butt;stroke-linejoin:miter;stroke-miterlimit:4;stroke-dasharray:none;stroke-dashoffset:0;stroke-opacity:1;color-rendering:auto;image-rendering:auto;shape-rendering:auto;text-rendering:auto;enable-background:accumulate;stop-color:#000000;stop-opacity:1" d="m 16.40745,4.5959975 c -5.15143,0 -9.33535,4.1838953 -9.33535,9.3353495 V 160.87633 c 0,5.15145 4.18392,9.33536 9.33535,9.33536 h 142.97586 c 5.15146,0 9.33736,-4.18391 9.33736,-9.33536 V 13.931347 c 0,-5.1514542 -4.1859,-9.3353495 -9.33736,-9.3353495 z m 0,2.3991506 h 142.97586 c 3.86392,0 6.9382,3.0722829 6.93821,6.9361989 V 160.87633 c 0,3.86391 -3.07429,6.9382 -6.93821,6.9382 H 16.40745 c -3.8639,0 -6.9362,-3.07429 -6.9362,-6.9382 V 13.931347 c 0,-3.863916 3.0723,-6.9361989 6.9362,-6.9361989 z" id="path83" />
    <path d="m 81.423532,70.325117 -5.43621,28.94469 h 10.281329 v -28.94469 z m 8.715393,0 v 28.94469 H 100.42024 L 94.984034,70.325117 Z M 56.05259,100.64389 v 3.61445 h 7.35488 v 3.78113 h 3.707481 v -3.78113 h 42.332709 v 3.78113 h 3.70748 v -3.78113 h 5.87809 v -3.61445 h -5.87809 -3.70748 -42.332709 -3.707481 z m 18.711828,5.13194 -9.217347,49.0771 h 20.72158 v -49.0771 z m 15.374507,0 v 49.0771 h 20.721565 l -9.21733,-49.0771 z" style="opacity:1;fill:#ffffff;stroke-width:1.03766" id="rect133" />
    <rect transform="matrix(1,0,-0.63894941,0.76924876,0,0)" y="91.704239" x="178.1546" height="108.60072" width="7.1277108" id="rect2083" style="opacity:1;fill:#c0111e;fill-opacity:1;stroke-width:0.572601" />
  </g>
</svg>
