<?xml version="1.0" encoding="UTF-8"?>
<svg xmlns="http://www.w3.org/2000/svg" xmlns:ns1="http://sodipodi.sourceforge.net/DTD/sodipodi-0.dtd" viewBox="0 0 401 450.43002" height="450.43002" width="401" id="svg2897" version="1.1">
  <defs id="defs2901">
    <clipPath id="clip39">
      <path id="path143" d="m 156,479 h 2.89453 v 2.39453 H 156 Z m 0,0" />
    </clipPath>
  </defs>
  <ns1:namedview showgrid="false" id="namedview2899" guidetolerance="10" gridtolerance="10" objecttolerance="10" borderopacity="1" bordercolor="#666666" pagecolor="#ffffff" />
  <g transform="translate(424.40333,121.12814)" id="g2905">
    <path id="path405" d="m -397.6703,-120.62814 c -14.47308,0 -26.23201,11.7546 -26.23205,26.227673 l -9.8e-4,396.970257 c -4e-5,14.47304 11.75898,26.23208 26.23208,26.23208 h 347.539188 c 14.473101,0 26.227784,-11.75904 26.227824,-26.23208 l 9.08e-4,-396.970257 c 4e-5,-14.473073 -11.754644,-26.227673 -26.227836,-26.227673 z" style="color:#000000;font-style:normal;font-variant:normal;font-weight:normal;font-stretch:normal;font-size:medium;line-height:normal;font-family:sans-serif;font-variant-ligatures:normal;font-variant-position:normal;font-variant-caps:normal;font-variant-numeric:normal;font-variant-alternates:normal;font-variant-east-asian:normal;font-feature-settings:normal;font-variation-settings:normal;text-indent:0;text-align:start;text-decoration:none;text-decoration-line:none;text-decoration-style:solid;text-decoration-color:#000000;letter-spacing:normal;word-spacing:normal;text-transform:none;writing-mode:lr-tb;direction:ltr;text-orientation:mixed;dominant-baseline:auto;baseline-shift:baseline;text-anchor:start;white-space:normal;shape-padding:0;shape-margin:0;inline-size:0;clip-rule:nonzero;display:inline;overflow:visible;visibility:visible;opacity:1;isolation:auto;mix-blend-mode:normal;color-interpolation:sRGB;color-interpolation-filters:linearRGB;solid-color:#000000;solid-opacity:1;vector-effect:none;fill:#244f3c;fill-opacity:1;fill-rule:nonzero;stroke:none;stroke-width:1;stroke-linecap:butt;stroke-linejoin:miter;stroke-miterlimit:4;stroke-dasharray:none;stroke-dashoffset:0;stroke-opacity:1;paint-order:stroke fill markers;color-rendering:auto;image-rendering:auto;shape-rendering:auto;text-rendering:auto;enable-background:accumulate;stop-color:#000000;stop-opacity:1" />
    <path id="path407" style="color:#000000;font-style:normal;font-variant:normal;font-weight:normal;font-stretch:normal;font-size:medium;line-height:normal;font-family:sans-serif;font-variant-ligatures:normal;font-variant-position:normal;font-variant-caps:normal;font-variant-numeric:normal;font-variant-alternates:normal;font-variant-east-asian:normal;font-feature-settings:normal;font-variation-settings:normal;text-indent:0;text-align:start;text-decoration:none;text-decoration-line:none;text-decoration-style:solid;text-decoration-color:#000000;letter-spacing:normal;word-spacing:normal;text-transform:none;writing-mode:lr-tb;direction:ltr;text-orientation:mixed;dominant-baseline:auto;baseline-shift:baseline;text-anchor:start;white-space:normal;shape-padding:0;shape-margin:0;inline-size:0;clip-rule:nonzero;display:inline;overflow:visible;visibility:visible;opacity:1;isolation:auto;mix-blend-mode:normal;color-interpolation:sRGB;color-interpolation-filters:linearRGB;solid-color:#000000;solid-opacity:1;vector-effect:none;fill:#ffffff;fill-opacity:1;fill-rule:nonzero;stroke:none;stroke-width:6.39272;stroke-linecap:butt;stroke-linejoin:miter;stroke-miterlimit:4;stroke-dasharray:none;stroke-dashoffset:0;stroke-opacity:1;color-rendering:auto;image-rendering:auto;shape-rendering:auto;text-rendering:auto;enable-background:accumulate;stop-color:#000000;stop-opacity:1" d="m -397.66929,-113.8907 c -10.85562,0 -19.48996,8.63441 -19.49006,19.490044 V 302.57051 c -10e-5,10.85568 8.63434,19.48812 19.49006,19.48812 h 347.539528 c 10.855724,0 19.48996,-8.63244 19.49006,-19.48812 V -94.400656 c 0,-10.855634 -8.634236,-19.490044 -19.49006,-19.490044 z m -0.0199,6.88788 h 347.568726 c 6.95494,0 12.555449,5.64205 12.555449,12.623579 V 7.7693468 H -410.24227 V -94.379241 c 0,-6.981529 5.59871,-12.623579 12.55355,-12.623579 z M -410.24277,14.639719 H -37.565045 V 192.81003 H -410.24277 Z m 0,185.038731 h 372.677725 v 102.90374 c 0,6.96036 -5.593333,12.55548 -12.553557,12.55548 H -397.68932 c -6.96022,0 -12.55345,-5.59512 -12.55345,-12.55548 z" />
    <g transform="matrix(3.7662829,0,0,3.7662829,-804.7714,-517.54909)" id="g1128" style="opacity:1">
      <path style="opacity:1;fill:#ffffff;fill-opacity:1;fill-rule:nonzero;stroke:none;stroke-width:3.72385" d="m 187.16888,208.06545 -1.55925,1.96775 1.51886,4.53387 h -1.51886 l -0.9946,-3.03826 -0.87395,1.05441 v 1.98352 h -1.46512 v -8.18607 l 1.46512,-0.67743 v 4.1875 l 1.55915,-1.8262 z m 0,0" id="path1110" />
      <path style="opacity:1;fill:#ffffff;fill-opacity:1;fill-rule:nonzero;stroke:none;stroke-width:3.72385" d="m 197.26822,214.56721 h -1.45157 v -3.90419 c 0,-0.28331 -0.10729,-0.51979 -0.3092,-0.72426 -0.18824,-0.20449 -0.41648,-0.29931 -0.68569,-0.29931 -0.25555,0 -0.45746,0.0914 -0.6457,0.29931 -0.1746,0.20447 -0.26824,0.44095 -0.26824,0.72426 v 3.90419 h -1.42474 v -3.9356 c 0,-0.25247 -0.0975,-0.4878 -0.24189,-0.69229 -0.16094,-0.20448 -0.39016,-0.2993 -0.67204,-0.2993 -0.28189,0 -0.5111,0.0914 -0.71203,0.28331 -0.18825,0.1885 -0.28189,0.42497 -0.28189,0.70828 v 3.9356 h -1.46512 v -6.50162 h 1.46512 v 0.39413 c 0.4438,-0.31416 0.90028,-0.4878 1.39792,-0.4878 0.6184,0 1.11555,0.25246 1.47849,0.75626 0.49744,-0.5038 1.0618,-0.75626 1.65327,-0.75626 0.59109,0 1.10219,0.22047 1.53233,0.64544 0.41649,0.42497 0.63205,0.91276 0.63205,1.49548 z m 0,0" id="path1112" />
    </g>
    <g id="g1132" transform="matrix(3.7662829,0,0,3.7662829,-805.40251,-517.54909)" style="opacity:1">
      <path style="fill:#ffffff;fill-opacity:1;fill-rule:nonzero;stroke:none;stroke-width:3.61925" d="m 187.3364,126.56914 -1.50972,1.91961 1.48365,4.42293 h -1.48365 l -0.95014,-2.96394 -0.85852,1.02863 v 1.93498 h -1.41858 v -7.98578 l 1.41858,-0.66085 v 4.08506 l 1.52276,-1.78153 z m 0,0" id="path1114" />
      <path style="fill:#ffffff;fill-opacity:1;fill-rule:nonzero;stroke:none;stroke-width:3.59397" d="m 197.43648,132.91182 h -1.40565 v -3.75565 c 0,-0.25714 -0.10389,-0.5 -0.28617,-0.69672 -0.1955,-0.19669 -0.41651,-0.2879 -0.66396,-0.2879 -0.24744,0 -0.45523,0.088 -0.63751,0.2879 -0.16906,0.19672 -0.24745,0.43958 -0.24745,0.69672 v 3.75565 h -1.39261 v -3.77069 c 0,-0.25716 -0.0756,-0.48463 -0.23423,-0.68135 -0.15584,-0.19668 -0.37778,-0.2879 -0.65074,-0.2879 -0.25973,0 -0.4949,0.0879 -0.67718,0.27253 -0.18228,0.18131 -0.27295,0.40878 -0.27295,0.69672 v 3.77069 h -1.43162 v -6.25424 h 1.43162 v 0.37912 c 0.41651,-0.30219 0.87174,-0.45385 1.35361,-0.45385 0.59879,0 1.06724,0.22747 1.41858,0.71208 0.4949,-0.48461 1.02825,-0.71208 1.60087,-0.71208 0.58557,0 1.06724,0.1967 1.48376,0.6055 0.40328,0.40879 0.61201,0.89341 0.61201,1.43858 z m 0,0" id="path1116" />
    </g>
    <g id="g1124" transform="matrix(3.7662829,0,0,3.7662829,-805.77282,-517.54909)" style="opacity:1">
      <path style="fill:#ffffff;fill-opacity:1;fill-rule:nonzero;stroke:none;stroke-width:3.77064" d="m 187.43472,167.00718 -1.52855,2.04151 1.48896,4.74156 h -1.48896 l -0.97519,-3.16108 -0.85679,1.08718 v 2.0745 h -1.43637 v -8.54467 l 1.43637,-0.70846 v 4.37932 l 1.54175,-1.90975 z m 0,0" id="path1118" />
      <path style="fill:#ffffff;fill-opacity:1;fill-rule:nonzero;stroke:none;stroke-width:3.82314" d="m 197.5339,173.79039 h -1.46299 v -4.08304 c 0,-0.27955 -0.10814,-0.52686 -0.29787,-0.74072 -0.20349,-0.21386 -0.43352,-0.32974 -0.70485,-0.32974 -0.2438,0 -0.46105,0.11947 -0.6498,0.32974 -0.17598,0.21386 -0.27133,0.46117 -0.27133,0.74072 v 4.08304 h -1.43595 v -4.09951 c 0,-0.27956 -0.0786,-0.51016 -0.2438,-0.724 -0.1622,-0.21386 -0.39323,-0.32974 -0.67734,-0.32974 -0.27132,0 -0.51512,0.0956 -0.71763,0.29628 -0.18973,0.19714 -0.27034,0.46117 -0.27034,0.75746 v 4.09951 h -1.49013 v -6.78307 h 1.49013 v 0.39545 c 0.43353,-0.32854 0.8936,-0.49342 1.39535,-0.49342 0.62327,0 1.12443,0.26284 1.49013,0.77417 0.51512,-0.51015 1.07026,-0.77417 1.66629,-0.77417 0.59573,0 1.11085,0.21385 1.54439,0.65829 0.41976,0.44443 0.63702,0.97128 0.63702,1.58048 z m 0,0" id="path1120" />
    </g>
    <path style="opacity:1;fill:#ffffff;fill-opacity:1;fill-rule:nonzero;stroke:none;stroke-width:18.619" d="m -355.25379,-67.700229 h -7.05523 v -7.054736 h 7.05523 v -5.892197 h 6.47364 c 1.0926,0 1.67212,0.370973 1.67212,1.018669 0,0.266652 -0.0542,0.654984 -0.21393,1.019373 -0.16119,0.87016 -0.26665,2.179587 -0.37022,3.853063 h 6.54557 v -6.037311 h 6.8369 c 0.94409,0 1.45612,0.21317 1.45612,0.655215 0,0.526936 -0.16007,1.017952 -0.37023,1.525308 -0.16082,0.526936 -0.16082,1.746724 -0.16082,3.853133 h 8.5098 v 7.054663 h -8.5098 v 4.073724 h 11.34642 v 6.473524 h -18.83763 v 2.61862 h 14.18299 v 23.054624 h -8.72798 l 12.65561,7.056284 -5.89148,6.035912 c -3.56325,-2.475872 -8.29155,-5.381712 -14.03683,-8.655892 l 4.36385,-4.438412 h -12.72654 c 2.11048,1.599764 3.41957,2.691348 3.92699,3.271956 0.57971,0.527996 0.80128,0.871368 0.80128,1.166456 0,0.655032 -0.37098,0.945412 -1.09248,1.093656 -0.72836,0.160064 -2.17963,0.801276 -4.21692,1.962232 -2.11116,1.161332 -5.81804,3.129852 -11.27309,5.746292 -1.23523,-1.820956 -3.05588,-3.92616 -5.52762,-6.400572 5.74538,-1.746576 10.40002,-4.074136 13.89122,-6.83682 h -7.49073 v -23.055264 h 13.74618 v -2.61798 h -17.23685 v -6.474088 h 10.25442 z m 14.11019,0 h -6.54557 v 4.073576 h 6.54557 z m -7.12727,21.964172 v -2.981768 h -6.25595 v 2.981768 z m 7.41837,-2.981768 v 2.981768 h 6.47236 v -2.981768 z m 0,8.29106 v 2.908999 h 6.47236 v -2.908999 z m -7.41837,2.908999 v -2.908999 h -6.25595 v 2.908999 z m -29.45648,-30.693247 h -6.0366 v -7.273296 h 20.14638 v 7.273296 h -6.03682 v 11.782404 h 5.16176 v 7.345832 h -5.16176 v 11.49172 c 1.45125,-0.52792 3.48803,-1.382376 6.10966,-2.401644 0.16007,2.475992 0.37098,4.872288 0.7284,7.346284 -8.65563,3.562828 -14.83694,6.400008 -18.61885,8.654616 l -4.00133,-8.654616 c 2.98161,-0.802444 5.52829,-1.525308 7.70969,-2.111116 v -14.328296 h -5.81831 v -7.345984 h 5.81831 z m 0,0" id="path632" />
    <path style="opacity:1;fill:#ffffff;fill-opacity:1;fill-rule:nonzero;stroke:none;stroke-width:18.619" d="m -264.52704,-75.483289 c -0.52748,-1.598332 -1.09279,-3.128988 -1.8897,-4.507184 l 9.23749,-1.815385 c 0.80256,2.179505 1.38245,4.290921 1.74789,6.327425 h 15.05436 v 6.255608 h -32.8015 v 12.655164 h 11.05536 v -2.908852 h -9.23699 v -5.890956 h 9.23699 v -3.272712 h 6.76376 c 0.80237,0 1.23504,0.266653 1.23504,0.802596 0,0.266652 -0.0542,0.581136 -0.2128,0.944848 -0.16044,0.266652 -0.26703,0.727908 -0.42201,1.525268 h 11.70922 v 8.80086 h 3.92673 v 5.963232 h -3.92673 v 8.655032 h -12.07331 v 3.346756 h 12.07331 v 19.710084 h -7.7828 v -2.908204 h -13.8908 v 3.346224 h -7.05576 v -20.146448 h 9.67423 v -3.346756 h -9.23733 v -5.600348 h 9.23733 v -3.055776 h -11.05555 v 4.439432 c 0,5.817968 -0.57985,10.763508 -1.59943,14.90936 -1.01847,4.1437 -2.69142,8.364836 -5.09231,12.72826 -2.54488,-1.525304 -5.1621,-2.617828 -7.92889,-3.345885 3.49443,-4.291227 5.67318,-9.309687 6.61837,-14.983327 -7.63561,3.92744 -13.4547,7.274048 -17.3098,9.964416 l -4.29017,-8.36356 c 3.27211,-1.235304 6.25441,-2.402096 8.94526,-3.562828 v -17.602628 h -7.78155 v -7.781404 h 7.78155 v -16.00116 h 6.83637 c 1.01965,0 1.52531,0.21354 1.52531,0.728428 0,0.370228 -0.16007,1.01818 -0.42198,1.888988 -0.26627,0.802368 -0.37059,2.254192 -0.37059,4.291412 v 9.091804 h 5.09317 v 7.781444 h -5.09317 v 13.818832 c 1.30911,-0.65462 2.76618,-1.450812 4.29144,-2.327564 0.42228,1.525308 0.80173,2.908548 1.23527,4.07478 0.21279,-2.765468 0.37061,-6.037164 0.37061,-9.746124 v -24.874152 z m 14.1097,18.910808 v -2.908928 h -4.72853 v 2.908928 z m -4.72853,9.018136 h 4.72853 v -3.055924 h -4.72853 z m 4.29153,20.146904 v -5.235284 h -13.8919 v 5.235284 z m 0,0" id="path634" />
    <g clip-path="url(#clip39)" clip-rule="nonzero" id="g638" transform="matrix(19.789357,0,0,28.843911,-3266.3776,-13902.046)" style="opacity:1;fill:#ffffff">
      <path style="fill:#ffffff;fill-opacity:1;fill-rule:nonzero;stroke:none" d="m 158.09375,480.15625 c 0.0742,0.0742 0.12891,0.14844 0.16016,0.22656 0.0312,0.0781 0.0508,0.17188 0.0508,0.28125 0,0.19922 -0.082,0.36719 -0.23438,0.5 -0.15625,0.12891 -0.34765,0.19531 -0.57812,0.19531 -0.22657,0 -0.41016,-0.0351 -0.54297,-0.10546 -0.13281,-0.0664 -0.23047,-0.16407 -0.28516,-0.28516 -0.0586,-0.12109 -0.0859,-0.23438 -0.0859,-0.33203 0,-0.17969 0.0742,-0.33985 0.22657,-0.48438 -0.10157,-0.12109 -0.15235,-0.24609 -0.15235,-0.38672 0,-0.1875 0.0781,-0.33593 0.23438,-0.4414 0.15234,-0.10938 0.34765,-0.16406 0.57812,-0.16406 0.23438,0 0.42188,0.0586 0.5625,0.16796 0.14453,0.10938 0.21485,0.25782 0.21485,0.44532 0,0.15234 -0.0508,0.28125 -0.14844,0.38281 z m -0.61719,-0.22266 c 0.10547,0 0.19141,-0.0117 0.25391,-0.043 0.0586,-0.0312 0.0898,-0.0703 0.0898,-0.125 0,-0.0469 -0.0312,-0.0898 -0.0977,-0.1289 -0.0625,-0.0352 -0.14844,-0.0547 -0.26954,-0.0547 -0.11718,0 -0.20703,0.0195 -0.27734,0.0508 -0.0625,0.0312 -0.0937,0.0742 -0.0937,0.12891 0,0.0547 0.0312,0.0976 0.0937,0.1289 0.0703,0.0312 0.16797,0.043 0.30078,0.043 z m -0.008,1.00782 c 0.13672,0 0.24219,-0.0234 0.30859,-0.0742 0.0742,-0.0508 0.10938,-0.1211 0.10938,-0.21875 0,-0.1836 -0.14453,-0.27344 -0.42969,-0.27344 -0.14453,0 -0.25391,0.0234 -0.33203,0.0742 -0.0781,0.0469 -0.11328,0.11328 -0.11328,0.19922 0,0.19531 0.15234,0.29297 0.45703,0.29297 z m 0,0" id="path636" />
    </g>
    <g id="g2131" transform="matrix(1.7295479,0,0,1.7295479,-644.9407,-196.39313)">
      <path id="path2133" d="m 154.95508,136.07617 c -2.4787,0 -4.85017,0.63505 -6.52735,2.3125 -1.67717,1.67746 -2.3125,4.04893 -2.3125,6.52735 v 57.16796 c 0,2.47887 0.63511,4.8499 2.3125,6.52735 1.6774,1.67745 4.04885,2.3125 6.52735,2.3125 l 74.78515,0.01 c 2.4785,0 4.84995,-0.6331 6.52735,-2.31054 1.67739,-1.67745 2.3125,-4.05044 2.3125,-6.5293 v -57.17773 c 0,-2.47848 -0.6352,-4.84994 -2.3125,-6.52735 -1.6773,-1.67741 -4.04854,-2.3125 -6.52735,-2.3125 z" style="color:#000000;font-style:normal;font-variant:normal;font-weight:normal;font-stretch:normal;font-size:medium;line-height:normal;font-family:sans-serif;font-variant-ligatures:normal;font-variant-position:normal;font-variant-caps:normal;font-variant-numeric:normal;font-variant-alternates:normal;font-variant-east-asian:normal;font-feature-settings:normal;font-variation-settings:normal;text-indent:0;text-align:start;text-decoration:none;text-decoration-line:none;text-decoration-style:solid;text-decoration-color:#000000;letter-spacing:normal;word-spacing:normal;text-transform:none;writing-mode:lr-tb;direction:ltr;text-orientation:mixed;dominant-baseline:auto;baseline-shift:baseline;text-anchor:start;white-space:normal;shape-padding:0;shape-margin:0;inline-size:0;clip-rule:nonzero;display:inline;overflow:visible;visibility:visible;isolation:auto;mix-blend-mode:normal;color-interpolation:sRGB;color-interpolation-filters:linearRGB;solid-color:#000000;solid-opacity:1;vector-effect:none;fill:#ffffff;fill-opacity:1;fill-rule:nonzero;stroke:none;stroke-width:5.7097;stroke-linecap:butt;stroke-linejoin:miter;stroke-miterlimit:4;stroke-dasharray:none;stroke-dashoffset:0;stroke-opacity:1;paint-order:stroke fill markers;color-rendering:auto;image-rendering:auto;shape-rendering:auto;text-rendering:auto;enable-background:accumulate;stop-color:#000000;stop-opacity:1" />
      <path id="path2135" d="m 235.7245,202.09429 c 0,4.04495 -1.93993,5.98461 -5.98409,5.98461 l -74.78583,-0.0108 c -4.04416,0 -5.98408,-1.93966 -5.98408,-5.98461 l -2.7e-4,-57.16746 c 0,-4.04363 1.94019,-5.98461 5.98408,-5.98461 h 74.78557 c 4.04416,0 5.98462,1.94098 5.98462,5.98461 z" style="color:#000000;font-style:normal;font-variant:normal;font-weight:normal;font-stretch:normal;font-size:medium;line-height:normal;font-family:sans-serif;font-variant-ligatures:normal;font-variant-position:normal;font-variant-caps:normal;font-variant-numeric:normal;font-variant-alternates:normal;font-variant-east-asian:normal;font-feature-settings:normal;font-variation-settings:normal;text-indent:0;text-align:start;text-decoration:none;text-decoration-line:none;text-decoration-style:solid;text-decoration-color:#000000;letter-spacing:normal;word-spacing:normal;text-transform:none;writing-mode:lr-tb;direction:ltr;text-orientation:mixed;dominant-baseline:auto;baseline-shift:baseline;text-anchor:start;white-space:normal;shape-padding:0;shape-margin:0;inline-size:0;clip-rule:nonzero;display:inline;overflow:visible;visibility:visible;isolation:auto;mix-blend-mode:normal;color-interpolation:sRGB;color-interpolation-filters:linearRGB;solid-color:#000000;solid-opacity:1;vector-effect:none;fill:#244f3c;fill-opacity:1;fill-rule:nonzero;stroke:none;stroke-width:5.7097;stroke-linecap:butt;stroke-linejoin:miter;stroke-miterlimit:4;stroke-dasharray:none;stroke-dashoffset:0;stroke-opacity:1;paint-order:stroke fill markers;color-rendering:auto;image-rendering:auto;shape-rendering:auto;text-rendering:auto;enable-background:accumulate;stop-color:#000000;stop-opacity:1" />
    </g>
    <path id="path1232" d="M -387.28956,69.59453 V 54.246895 c 0,-6.996368 3.35564,-10.35156 10.34979,-10.35156 h 129.34476 c 6.99546,0 10.34987,3.355192 10.35065,10.35156 V 69.59453 Z" fill="#ff0000" style="stroke-width:0.457608" />
    <g transform="matrix(1.7295479,0,0,1.7295479,-645.44203,-196.39313)" id="g2141">
      <path style="stroke-width:0.264583" fill="#ffffff" d="m 168.39963,149.04594 v 0.41275 h -0.98425 v -7.15962 h 6.33386 v 7.09612 h -1.00806 v -0.34925 z m 4.34181,-0.84137 v -5.04825 h -4.34181 v 5.04825 z m -2.75431,-3.80206 h -1.36525 v -0.79375 h 3.83381 v 0.79375 h -1.50019 v 0.68262 h 1.34938 v 0.79375 h -0.49186 c 0.17436,0.25929 0.34396,0.52917 0.508,0.80989 l -0.53208,0.22225 h 0.80989 v 0.81756 h -4.064 v -0.81756 h 1.45256 v -1.03188 h -1.21443 v -0.79375 h 1.21443 v -0.68288 z m 1.73858,1.47637 h -0.76994 v 1.03188 h 0.508 c -0.11113,-0.21194 -0.254,-0.43657 -0.42863,-0.67496 z" id="path1234" />
      <path style="stroke-width:0.264583" fill="#ffffff" d="m 183.95397,144.62476 h -1.27794 v -0.762 h 4.23889 v 0.762 h -1.56368 c -0.17463,0.13784 -0.36248,0.27516 -0.56357,0.41301 0.30692,0.28072 0.5424,0.59796 0.70644,0.9525 0.47625,-0.24342 0.96308,-0.60325 1.46077,-1.0795 0.43894,0.31221 0.69453,0.50033 0.76596,0.56356 0.0717,0.0635 0.10716,0.11774 0.10716,0.16272 0,0.045 -0.0648,0.0833 -0.19447,0.11509 -0.12964,0.0317 -0.4273,0.17463 -0.89297,0.42863 0.20109,0.8255 0.74084,1.5158 1.61925,2.07169 -0.31247,0.20108 -0.60087,0.4363 -0.86518,0.70643 -0.7411,-0.59822 -1.23032,-1.3917 -1.46871,-2.38125 -0.0632,0.037 -0.1561,0.0873 -0.27781,0.15082 0.0952,0.45508 0.14288,0.85989 0.14288,1.21443 0,0.54505 -0.13891,0.9324 -0.41672,1.16311 -0.27782,0.22993 -0.76068,0.34528 -1.4486,0.34528 -0.0317,-0.35983 -0.14843,-0.68527 -0.34925,-0.97604 0.15902,0.005 0.29634,0.008 0.41302,0.008 0.34396,0 0.56859,-0.0317 0.67469,-0.095 0.10556,-0.0635 0.15875,-0.16696 0.15875,-0.30957 0,-0.14314 -0.0106,-0.35189 -0.0317,-0.62732 -0.81492,0.66701 -1.82298,1.23825 -3.02419,1.7145 -0.13229,-0.32809 -0.33629,-0.58209 -0.61119,-0.762 0.59796,-0.15902 1.21576,-0.40746 1.85341,-0.74613 0.63738,-0.33866 1.17342,-0.70088 1.60734,-1.08744 -0.0317,-0.11615 -0.0635,-0.20875 -0.0952,-0.27754 -0.61383,0.46566 -1.45521,0.92339 -2.52412,1.37292 -0.15875,-0.254 -0.35719,-0.48419 -0.59532,-0.69056 1.02103,-0.24845 1.91823,-0.68236 2.69082,-1.30175 -0.0423,-0.0529 -0.10319,-0.10822 -0.18257,-0.16669 -0.762,0.42862 -1.47611,0.7411 -2.14312,0.93662 -0.1696,-0.29104 -0.34687,-0.55033 -0.53181,-0.77787 1.1848,-0.25982 2.05792,-0.60643 2.61884,-1.04034 z m 0.3175,-1.96083 c -0.0159,-0.17992 -0.0606,-0.39132 -0.13494,-0.635 l 1.26207,-0.13494 c 0.037,0.25427 0.0556,0.51091 0.0556,0.76994 h 2.7387 v 1.61131 h -1.04775 v -0.81756 h -4.66751 v 0.81756 h -0.97605 v -1.61131 z" id="path1236" />
      <path style="stroke-width:0.264583" fill="#ffffff" d="m 198.77942,142.63244 c -0.0423,-0.22754 -0.0873,-0.42889 -0.13494,-0.60351 l 1.24619,-0.11113 c 0.0526,0.27543 0.0873,0.51356 0.10319,0.71464 h 2.70668 v 0.82524 h -6.83418 v -0.82524 z m -0.18256,5.98461 v 0.26194 h -0.86519 v -2.08783 h 3.11944 v 1.63539 c 0.18494,0.0265 0.31855,0.0394 0.40084,0.0394 0.082,0 0.13361,-0.0169 0.15478,-0.0513 0.0212,-0.0344 0.0317,-0.10213 0.0317,-0.2024 v -1.66714 h -4.26244 v 2.80987 h -0.97604 v -3.61103 h 6.24681 v 2.56355 c 0,0.25929 -0.0386,0.46302 -0.11536,0.61145 -0.0767,0.1479 -0.21828,0.26194 -0.42439,0.34105 -0.20638,0.0796 -0.51091,0.13229 -0.91281,0.15901 -0.006,-0.26485 -0.0529,-0.49477 -0.14288,-0.69056 v 0.11906 h -0.91281 v -0.23019 h -1.3417 z m 2.99243,-3.11917 h -4.48468 v -1.80208 h 4.48468 z m -1.10304,-0.68262 v -0.41302 h -2.36538 v 0.41302 z m -0.54796,3.14298 v -0.46831 h -1.34143 v 0.46831 z" id="path1238" />
      <path style="stroke-width:0.264583" fill="#ffffff" d="m 217.8588,148.11726 c -0.11641,0.3175 -0.19843,0.65854 -0.24632,1.02393 -0.70909,0.0265 -1.35732,0.0397 -1.94469,0.0397 -1.27529,0 -2.12328,-0.0466 -2.54397,-0.1389 -0.42069,-0.0929 -0.72099,-0.2212 -0.90064,-0.38497 -0.11642,-0.10584 -0.20267,-0.15875 -0.25823,-0.15875 -0.0556,0 -0.12039,0.0315 -0.19421,0.095 -0.0741,0.0635 -0.19844,0.17991 -0.37306,0.34925 -0.17463,0.16933 -0.29925,0.31459 -0.37306,0.43656 -0.31248,-0.32306 -0.58473,-0.59822 -0.81757,-0.82576 0.33841,-0.26459 0.59108,-0.4445 0.75777,-0.53949 0.16695,-0.0952 0.26723,-0.17092 0.30189,-0.22622 0.0344,-0.0556 0.0516,-0.15743 0.0516,-0.30533 v -2.11957 h -0.92075 v -0.88107 h 1.89707 v 2.84163 c 0,0.17436 0.0688,0.3294 0.20637,0.46434 0.13758,0.13494 0.3003,0.23416 0.48816,0.29766 0.18785,0.0635 0.48948,0.11112 0.90487,0.14287 0.4154,0.0317 0.99219,0.0479 1.73038,0.0479 0.73818,0 1.48299,-0.0532 2.2344,-0.15875 z m -5.28637,-4.46114 -0.97605,0.4445 c -0.21193,-0.49716 -0.50271,-0.9787 -0.87312,-1.44436 l 0.93636,-0.50033 c 0.40216,0.59796 0.7067,1.09828 0.91281,1.50019 z m 1.94495,-0.14261 h -1.905 v -0.81783 h 1.905 v -0.65855 h 0.86519 c 0.127,0 0.1905,0.0344 0.1905,0.10292 0,0.032 -0.0169,0.0796 -0.0513,0.14314 -0.0347,0.0635 -0.0516,0.20109 -0.0516,0.41275 h 1.95262 v 0.81783 h -1.96056 v 0.4445 h 1.61157 v 2.11931 h -0.91281 c 0.41275,0.34423 0.86254,0.75142 1.34938,1.22211 l -0.79375,0.61939 c -0.34396,-0.43921 -0.762,-0.84666 -1.25413,-1.22237 v 1.36525 h -0.9443 v -1.42875 c -0.34925,0.48154 -0.81756,0.92339 -1.4052,1.32556 -0.20611,-0.21669 -0.45508,-0.43894 -0.74586,-0.66675 0.39688,-0.21167 0.69982,-0.40111 0.90885,-0.56753 0.20902,-0.16695 0.40084,-0.38232 0.57546,-0.64691 h -0.91281 v -2.11931 h 1.57983 v -0.44476 z m 0,1.81768 v -0.61145 h -0.67495 v 0.61145 z m 0.9443,-0.61145 v 0.61145 h 0.68262 v -0.61145 z m 0,1.35758 v 0.52387 l 0.61939,-0.52387 z" id="path1240" />
    </g>
    <path id="path670" d="m -188.81968,134.787 h -10.03273 V 91.794851 h -5.15454 V 78.942934 c 2.9446,-1.136999 4.78616,-3.638491 5.61463,-7.392991 h 9.57264 z m 0,0" style="fill:#ffffff;fill-opacity:1;fill-rule:nonzero;stroke:none;stroke-width:26.1928" />
    <path id="path672" d="m -133.62924,84.402239 c -2.44221,2.728891 -5.26753,8.984879 -8.55007,18.652361 -3.28276,9.55375 -4.88595,20.1312 -4.88595,31.7324 h -8.47376 c 0,-8.64414 0.76319,-17.0605 2.28959,-25.13568 1.67901,-8.18899 4.50409,-16.719021 8.47398,-25.590573 h -22.90216 V 71.549943 h 34.04788 z m 0,0" style="fill:#ffffff;fill-opacity:1;fill-rule:nonzero;stroke:none;stroke-width:23.8541" />
    <path id="path678" d="m -361.99197,278.51125 v -50.99908 h 8.57319 c 1.31857,0 1.97786,0.36646 1.97786,1.02556 0,0.29301 -0.1465,0.73255 -0.58602,1.31858 -0.36647,0.65932 -0.51279,2.19766 -0.51279,4.68948 v 9.96531 h 23.6677 v 8.06038 h -23.6677 v 25.93907 h 29.23671 v 7.76712 h -61.99038 v -7.76712 z m 0,0" style="fill:#ffffff;fill-opacity:1;fill-rule:nonzero;stroke:none;stroke-width:18.7581" />
    <path id="path680" d="m -269.90149,232.51662 h 28.13741 v 7.10762 h -32.09416 l -2.19762,3.59043 h 30.40877 l -0.7325,14.87475 h 6.22831 v 6.44811 h -6.59458 l -0.43953,9.08592 h 5.12927 v 6.96138 h -5.49557 c -0.29302,3.66364 -1.39179,6.08156 -3.29738,7.18084 -1.90461,1.17208 -5.34906,1.97788 -10.33156,2.34412 -0.43952,-3.22416 -1.39183,-5.8618 -2.85789,-7.76692 1.97791,0.2196 3.51722,0.36648 4.61649,0.36648 1.09884,0 1.97786,-0.14652 2.49113,-0.51524 0.58603,-0.36644 0.87904,-0.87904 1.02559,-1.61164 h -27.25813 l 1.46504,-16.04702 h -4.98271 v -6.44833 h 5.64205 l 0.879,-8.86617 c -1.09881,1.46505 -2.05111,2.63787 -2.93088,3.5904 -1.97786,-1.68725 -4.17669,-3.07761 -6.59484,-4.1767 6.30156,-6.66782 10.33178,-14.14198 12.16359,-22.64165 2.78442,0.58604 5.05579,1.17203 6.81437,1.75811 1.7581,0.43952 2.71139,0.8058 2.93119,0.9523 0.21957,0.21995 0.29302,0.51278 0.29302,0.8058 0,0.36646 -0.21995,0.73254 -0.65933,1.02555 -0.51278,0.36646 -1.09881,1.02556 -1.7581,1.97787 z m 6.88782,25.5728 h 8.42667 l 0.51279,-8.06018 h -8.27991 c 1.39178,1.83139 2.71111,3.88348 4.03018,6.08183 z m -9.81874,0 h 6.81456 c -0.87902,-1.6873 -2.19763,-3.51718 -3.88364,-5.64201 l 5.34925,-2.41739 h -7.5474 z m 7.47411,6.44811 h -8.06041 l -0.9523,9.08592 h 8.20665 c -1.46508,-2.85763 -3.00414,-5.12926 -4.54297,-6.74108 z m 10.47802,0 h -8.35316 c 1.68484,2.34412 3.22416,4.68969 4.46971,7.10757 l -5.12896,1.97786 h 8.42639 z m -27.99063,-27.69793 -6.8146,5.71552 c -3.37071,-3.51718 -6.66787,-6.52132 -9.81878,-9.08593 l 6.66809,-5.86203 c 3.37045,3.0041 6.66787,6.08176 9.96529,9.23244 z m -3.37068,15.16803 -6.37484,6.3748 c -2.56461,-2.27087 -6.15509,-4.90949 -10.84479,-7.91367 l 5.86203,-6.74131 c 4.83603,3.37063 8.64645,6.0818 11.3576,8.28018 z m 0.73251,13.77544 c -4.10344,8.13362 -7.62063,15.75432 -10.55155,22.86168 -2.12433,-1.3186 -4.83597,-3.37044 -8.1334,-6.15488 4.10348,-4.98274 8.20666,-12.31008 12.23688,-21.98257 1.68486,1.68729 3.8102,3.44415 6.44807,5.27577 z m 0,0" style="fill:#ffffff;fill-opacity:1;fill-rule:nonzero;stroke:none;stroke-width:18.7581" />
    <path id="path682" d="m -178.94617,288.45163 h -34.93428 c 0.31751,-7.24224 1.42875,-13.25851 3.25512,-17.82644 1.905,-4.79101 4.20816,-8.57925 6.82828,-11.36461 2.69922,-2.78833 6.11335,-5.2366 10.2421,-7.24226 1.66688,-0.66829 3.01702,-1.67079 3.96955,-3.00741 0.95246,-1.44803 1.50806,-3.00738 1.50806,-4.45653 0,-1.55936 -0.79371,-3.00738 -2.38123,-4.23372 -1.58745,-1.22524 -3.49323,-1.78217 -5.87521,-1.78217 -4.28751,0 -8.09853,2.0049 -11.5124,6.12767 l -6.034,-8.80165 c 2.85797,-3.11878 5.63685,-5.57109 8.41572,-7.13085 2.77891,-1.5594 5.95494,-2.33913 9.44817,-2.33913 5.31961,0 9.44813,1.7822 12.22701,5.12523 2.85824,3.34156 4.28727,7.5764 4.28727,12.70126 0,5.1255 -1.19063,9.35929 -3.49329,12.5902 -2.3812,3.34155 -6.51048,6.35078 -12.30637,9.13617 -2.93762,1.55943 -5.63715,4.90242 -7.93947,10.13864 h 24.29497 z m 0,0" style="fill:#ffffff;fill-opacity:1;fill-rule:nonzero;stroke:none;stroke-width:24.0774" />
    <path id="path684" d="m -158.24179,246.78172 c 2.22244,-0.66832 4.84318,-1.11381 8.01895,-1.11381 5.0815,0 9.05124,2.22769 12.06822,6.46216 3.01698,4.23375 4.52538,9.2472 4.52538,15.15243 0,5.90535 -1.58745,10.91875 -4.68439,14.92969 -3.09637,4.1224 -7.1455,6.23944 -12.22675,6.23944 -6.98705,0 -13.10041,-2.22768 -18.26127,-6.46216 l 4.84336,-10.36181 c 3.49327,3.23015 7.78076,4.79105 12.86204,4.79105 3.09638,0 5.31961,-0.78338 6.74862,-2.45049 1.42873,-1.6708 2.14309,-4.01061 2.14309,-7.01908 0,-2.896 -0.71436,-5.23659 -2.30184,-6.79637 -1.50813,-1.55942 -3.65224,-2.22771 -6.51051,-2.22771 -2.77862,0 -5.47836,0.66829 -8.09826,2.11631 l -8.81314,-4.79105 1.90498,-28.85693 h 28.58255 v 12.36754 h -19.92842 z m 0,0" style="fill:#ffffff;fill-opacity:1;fill-rule:nonzero;stroke:none;stroke-width:24.0774" />
    <g id="g2851" transform="matrix(3.7662829,0,0,3.7662829,-805.98273,-517.54909)">
      <path style="stroke-width:0.112602" fill="#ffffff" d="m 124.34252,168.25872 c -0.163,5.18046 -1.54143,7.77064 -4.13517,7.77064 -1.22137,0 -2.22464,-0.69402 -3.0098,-2.08242 -0.78517,-1.38791 -1.17775,-3.23328 -1.17775,-5.53586 0,-2.4886 0.39832,-4.42254 1.19528,-5.80255 0.79654,-1.37953 1.82329,-2.06954 3.07962,-2.06954 0.7909,0 1.50626,0.32173 2.14606,0.96484 0.63959,0.6436 1.1456,1.57454 1.51794,2.79333 l -1.91929,1.04114 c -0.3258,-1.18476 -0.92469,-1.77757 -1.7972,-1.77757 -1.41933,0 -2.12863,1.58305 -2.12863,4.74853 0,3.16597 0.72683,4.74877 2.18102,4.74877 0.81407,0 1.39584,-0.58406 1.74481,-1.7523 h -1.22148 v -3.04726 h 3.52459 z" id="path1242" />
      <path style="stroke-width:0.112602" fill="#ffffff" d="m 136.02402,172.49973 h -1.57044 v 3.40278 h -2.00643 v -3.40278 h -6.15913 v -2.8695 l 6.15913,-9.11639 h 2.00653 v 9.16717 h 1.57044 v 2.81872 z m -3.57687,-2.81884 v -5.10428 l -3.41982,5.10428 z" id="path1244" />
      <path style="stroke-width:0.112602" fill="#ffffff" d="m 146.15691,175.90239 h -8.35758 c 0.093,-1.81135 0.36336,-3.3012 0.81125,-4.46944 0.44769,-1.168 0.98866,-2.10332 1.62272,-2.80596 0.63385,-0.70228 1.44511,-1.29072 2.43408,-1.76481 0.40698,-0.16901 0.72683,-0.42745 0.95954,-0.77458 0.23261,-0.34676 0.34896,-0.71503 0.34896,-1.10469 0,-0.38917 -0.18919,-0.73642 -0.56706,-1.04102 -0.37808,-0.30473 -0.84621,-0.45709 -1.40451,-0.45709 -1.02373,0 -1.94277,0.51662 -2.75685,1.5489 l -1.44813,-2.20914 c 0.68613,-0.77859 1.36089,-1.35864 2.02407,-1.73954 0.66306,-0.38091 1.41891,-0.5713 2.26825,-0.5713 1.27939,0 2.25647,0.41067 2.93134,1.23166 0.67444,0.82135 1.01193,1.87525 1.01193,3.16147 0,1.28682 -0.28229,2.33635 -0.84622,3.14884 -0.56435,0.8126 -1.54414,1.56627 -2.94009,2.26017 -0.69793,0.37252 -1.332,1.21879 -1.90177,2.53938 h 5.81017 v 3.04715 z" id="path1246" />
    </g>
  </g>
</svg>
