<?xml version="1.0" encoding="UTF-8"?>
<svg xmlns="http://www.w3.org/2000/svg" xmlns:ns1="http://sodipodi.sourceforge.net/DTD/sodipodi-0.dtd" viewBox="0 0 237.70151 194.74173" height="194.74173" width="237.70151" id="svg219" version="1.1">
  <defs id="defs223" />
  <ns1:namedview showguides="false" showgrid="false" id="namedview221" guidetolerance="10" gridtolerance="10" objecttolerance="10" borderopacity="1" bordercolor="#666666" pagecolor="#ffffff" />
  <g transform="translate(-3.3101109,-3.8405037)" id="g227">
    <path style="color:#000000;font-style:normal;font-variant:normal;font-weight:normal;font-stretch:normal;font-size:medium;line-height:normal;font-family:sans-serif;font-variant-ligatures:normal;font-variant-position:normal;font-variant-caps:normal;font-variant-numeric:normal;font-variant-alternates:normal;font-variant-east-asian:normal;font-feature-settings:normal;font-variation-settings:normal;text-indent:0;text-align:start;text-decoration:none;text-decoration-line:none;text-decoration-style:solid;text-decoration-color:#000000;letter-spacing:normal;word-spacing:normal;text-transform:none;writing-mode:lr-tb;direction:ltr;text-orientation:mixed;dominant-baseline:auto;baseline-shift:baseline;text-anchor:start;white-space:normal;shape-padding:0;shape-margin:0;inline-size:0;clip-rule:nonzero;display:inline;overflow:visible;visibility:visible;opacity:1;isolation:auto;mix-blend-mode:normal;color-interpolation:sRGB;color-interpolation-filters:linearRGB;solid-color:#000000;solid-opacity:1;vector-effect:none;fill:#ffffff;fill-opacity:1;fill-rule:nonzero;stroke:none;stroke-width:2.35555;stroke-linecap:butt;stroke-linejoin:miter;stroke-miterlimit:4;stroke-dasharray:none;stroke-dashoffset:0;stroke-opacity:1;color-rendering:auto;image-rendering:auto;shape-rendering:auto;text-rendering:auto;enable-background:accumulate;stop-color:#000000;stop-opacity:1" d="M 12.727175,5.2683182 H 231.5939 c 4.42608,0 7.9893,3.563222 7.9893,7.9892958 V 189.16609 c 0,4.42608 -3.56322,7.9893 -7.9893,7.9893 H 12.727175 c -4.4260676,0 -7.9892895,-3.56322 -7.9892895,-7.9893 V 13.257614 c 0,-4.4260738 3.5632219,-7.9892958 7.9892895,-7.9892958 z" id="path81" />
    <path style="color:#000000;font-style:normal;font-variant:normal;font-weight:normal;font-stretch:normal;font-size:medium;line-height:normal;font-family:sans-serif;font-variant-ligatures:normal;font-variant-position:normal;font-variant-caps:normal;font-variant-numeric:normal;font-variant-alternates:normal;font-variant-east-asian:normal;font-feature-settings:normal;font-variation-settings:normal;text-indent:0;text-align:start;text-decoration:none;text-decoration-line:none;text-decoration-style:solid;text-decoration-color:#000000;letter-spacing:normal;word-spacing:normal;text-transform:none;writing-mode:lr-tb;direction:ltr;text-orientation:mixed;dominant-baseline:auto;baseline-shift:baseline;text-anchor:start;white-space:normal;shape-padding:0;shape-margin:0;inline-size:0;clip-rule:nonzero;display:inline;overflow:visible;visibility:visible;opacity:1;isolation:auto;mix-blend-mode:normal;color-interpolation:sRGB;color-interpolation-filters:linearRGB;solid-color:#000000;solid-opacity:1;vector-effect:none;fill:#204939;fill-opacity:1;fill-rule:nonzero;stroke:none;stroke-width:0.5;stroke-linecap:butt;stroke-linejoin:miter;stroke-miterlimit:4;stroke-dasharray:none;stroke-dashoffset:0;stroke-opacity:1;color-rendering:auto;image-rendering:auto;shape-rendering:auto;text-rendering:auto;enable-background:accumulate;stop-color:#000000;stop-opacity:1" d="m 12.726462,4.0905037 c -5.058187,0 -9.1663511,4.1081557 -9.1663511,9.1663493 V 189.16589 c 0,5.05818 4.1081641,9.16635 9.1663511,9.16635 H 231.59332 c 5.05818,0 9.1683,-4.10817 9.1683,-9.16635 V 13.256853 c 0,-5.0581936 -4.11012,-9.1663493 -9.1683,-9.1663493 z m 0,2.355717 H 231.59332 c 3.79395,0 6.81258,3.016669 6.81259,6.8106323 V 189.16589 c 0,3.79395 -3.01864,6.81258 -6.81259,6.8126 H 12.726462 c -3.793957,0 -6.8106333,-3.01865 -6.8106333,-6.8126 V 13.256853 c 0,-3.7939633 3.0166763,-6.8106323 6.8106333,-6.8106323 z" id="path83" />
    <path d="m 12.722656,8.8535156 c -2.430694,0 -4.3886716,1.9700834 -4.3886716,4.4101564 V 77.109375 H 235.99023 V 13.263672 c 0,-2.440073 -1.95798,-4.4101564 -4.38867,-4.4101564 z M 8.3339844,79.277344 V 123.10938 H 235.99023 V 79.277344 Z m 0,45.999996 v 63.89258 c 0,2.43266 1.9560216,4.38867 4.3886716,4.38867 H 231.60156 c 2.43265,0 4.38867,-1.95601 4.38867,-4.38867 v -63.89258 z" style="color:#000000;font-style:normal;font-variant:normal;font-weight:normal;font-stretch:normal;font-size:medium;line-height:normal;font-family:sans-serif;font-variant-ligatures:normal;font-variant-position:normal;font-variant-caps:normal;font-variant-numeric:normal;font-variant-alternates:normal;font-variant-east-asian:normal;font-feature-settings:normal;font-variation-settings:normal;text-indent:0;text-align:start;text-decoration:none;text-decoration-line:none;text-decoration-style:solid;text-decoration-color:#000000;letter-spacing:normal;word-spacing:normal;text-transform:none;writing-mode:lr-tb;direction:ltr;text-orientation:mixed;dominant-baseline:auto;baseline-shift:baseline;text-anchor:start;white-space:normal;shape-padding:0;shape-margin:0;inline-size:0;clip-rule:nonzero;display:inline;overflow:visible;visibility:visible;opacity:1;isolation:auto;mix-blend-mode:normal;color-interpolation:sRGB;color-interpolation-filters:linearRGB;solid-color:#000000;solid-opacity:1;vector-effect:none;fill:#204939;fill-opacity:1;fill-rule:nonzero;stroke:none;stroke-width:2.35555;stroke-linecap:butt;stroke-linejoin:miter;stroke-miterlimit:4;stroke-dasharray:none;stroke-dashoffset:0;stroke-opacity:1;color-rendering:auto;image-rendering:auto;shape-rendering:auto;text-rendering:auto;enable-background:accumulate;stop-color:#000000;stop-opacity:1" id="path75" />
    <g transform="matrix(0.17281974,0,0,0.17281974,30.590527,18.519151)" id="g5104" style="opacity:1">
      <path style="color:#000000;font-style:normal;font-variant:normal;font-weight:normal;font-stretch:normal;font-size:medium;line-height:normal;font-family:sans-serif;font-variant-ligatures:normal;font-variant-position:normal;font-variant-caps:normal;font-variant-numeric:normal;font-variant-alternates:normal;font-variant-east-asian:normal;font-feature-settings:normal;font-variation-settings:normal;text-indent:0;text-align:start;text-decoration:none;text-decoration-line:none;text-decoration-style:solid;text-decoration-color:#000000;letter-spacing:normal;word-spacing:normal;text-transform:none;writing-mode:lr-tb;direction:ltr;text-orientation:mixed;dominant-baseline:auto;baseline-shift:baseline;text-anchor:start;white-space:normal;shape-padding:0;shape-margin:0;inline-size:0;clip-rule:nonzero;display:inline;overflow:visible;visibility:visible;isolation:auto;mix-blend-mode:normal;color-interpolation:sRGB;color-interpolation-filters:linearRGB;solid-color:#000000;solid-opacity:1;vector-effect:none;fill:#ffffff;fill-opacity:1;fill-rule:nonzero;stroke:none;stroke-width:22.1;stroke-linecap:butt;stroke-linejoin:miter;stroke-miterlimit:4;stroke-dasharray:none;stroke-dashoffset:0;stroke-opacity:1;paint-order:stroke fill markers;color-rendering:auto;image-rendering:auto;shape-rendering:auto;text-rendering:auto;enable-background:accumulate;stop-color:#000000;stop-opacity:1" d="m 33.679688,0.00976563 c -9.409923,0 -18.453997,2.41386577 -24.8554692,8.81640627 C 2.4227469,15.228712 0.01171875,24.270872 0.01171875,33.679688 l 0.0019531,216.064452 c 0,9.4105 2.41018775,18.4549 8.81250005,24.85742 6.4018651,6.40208 15.4431691,8.81217 24.8515621,8.8125 l 216.107426,0.041 c 9.4091,0 18.4529,-2.41015 24.85546,-8.8125 6.40257,-6.40235 8.8125,-15.44669 8.8125,-24.85742 V 33.679688 c 0,-9.408816 -2.41081,-18.450977 -8.8125,-24.8535161 -6.40168,-6.4025388 -15.44516,-8.81640627 -24.85546,-8.81640627 z m 0,22.09960937 H 249.78516 c 5.87469,0 8.14049,1.255586 9.22656,2.341797 1.08606,1.086211 2.3418,3.354331 2.3418,9.228516 V 249.78516 c 0,5.87726 -1.25466,8.14531 -2.33985,9.23046 -1.08491,1.08488 -3.35209,2.3392 -9.22461,2.33985 l -216.107419,-0.041 h -0.002 c -5.875898,0 -8.141625,-1.25487 -9.226563,-2.33984 -1.084938,-1.08497 -2.339844,-3.35297 -2.339844,-9.23047 l -0.002,-216.064452 c 0,-5.874185 1.255769,-8.142307 2.341797,-9.228516 1.086028,-1.08621 3.352485,-2.341797 9.226563,-2.341797 z" id="path5106" />
      <path style="color:#000000;font-style:normal;font-variant:normal;font-weight:normal;font-stretch:normal;font-size:medium;line-height:normal;font-family:sans-serif;font-variant-ligatures:normal;font-variant-position:normal;font-variant-caps:normal;font-variant-numeric:normal;font-variant-alternates:normal;font-variant-east-asian:normal;font-feature-settings:normal;font-variation-settings:normal;text-indent:0;text-align:start;text-decoration:none;text-decoration-line:none;text-decoration-style:solid;text-decoration-color:#000000;letter-spacing:normal;word-spacing:normal;text-transform:none;writing-mode:lr-tb;direction:ltr;text-orientation:mixed;dominant-baseline:auto;baseline-shift:baseline;text-anchor:start;white-space:normal;shape-padding:0;shape-margin:0;inline-size:0;clip-rule:nonzero;display:inline;overflow:visible;visibility:visible;isolation:auto;mix-blend-mode:normal;color-interpolation:sRGB;color-interpolation-filters:linearRGB;solid-color:#000000;solid-opacity:1;vector-effect:none;fill:#204939;fill-opacity:1;fill-rule:nonzero;stroke:none;stroke-width:22.1;stroke-linecap:butt;stroke-linejoin:miter;stroke-miterlimit:4;stroke-dasharray:none;stroke-dashoffset:0;stroke-opacity:1;paint-order:stroke fill markers;color-rendering:auto;image-rendering:auto;shape-rendering:auto;text-rendering:auto;enable-background:accumulate;stop-color:#000000;stop-opacity:1" d="m 272.404,249.786 c 0,15.288 -7.333,22.619 -22.618,22.619 L 33.68,272.364 c -15.285,0 -22.617,-7.331 -22.617,-22.619 L 11.062,33.679 c 0,-15.283 7.333,-22.619 22.617,-22.619 h 216.106 c 15.285,0 22.618,7.336 22.618,22.619 z" id="path5108" />
    </g>
    <path style="opacity:1;stroke-width:0.17282" fill="#ffff00" d="m 32.502432,33.533732 v -9.19384 c 0,-2.64224 1.267287,-3.909355 3.908664,-3.909355 h 37.347037 c 2.641898,0 3.909005,1.267115 3.909005,3.909355 v 9.19384 z" id="path3017" />
    <path style="opacity:1;stroke-width:0.17282" d="m 54.737419,24.98088 c -0.02765,-0.148451 -0.05703,-0.279795 -0.08814,-0.393855 l 0.813982,-0.07259 c 0.03439,0.17956 0.05703,0.335098 0.0674,0.46644 h 1.767946 v 0.539199 H 52.83467 v -0.539199 z m -0.119245,3.909184 v 0.171089 h -0.56512 v -1.363545 h 2.037544 v 1.068026 c 0.120801,0.01728 0.208074,0.02591 0.261822,0.02591 0.05358,0 0.08727,-0.01123 0.1011,-0.03371 0.01382,-0.02262 0.02073,-0.06654 0.02073,-0.132379 V 27.53686 h -2.784125 v 1.83535 h -0.637532 v -2.358991 h 4.080274 v 1.674621 c 0,0.16919 -0.02523,0.302433 -0.07535,0.399212 -0.05012,0.09695 -0.142577,0.171095 -0.277204,0.223113 -0.134798,0.05184 -0.333714,0.08623 -0.596228,0.103692 -0.0036,-0.172821 -0.03457,-0.323174 -0.09332,-0.450886 v 0.0776 h -0.596229 v -0.150353 h -0.876368 z m 1.95459,-2.037545 H 53.64347 v -1.176903 h 2.929294 z m -0.720658,-0.445876 v -0.269598 h -1.545008 v 0.269598 z m -0.357736,2.05327 v -0.306064 h -0.876196 v 0.306064 z" id="path3021" />
    <path style="opacity:1;stroke-width:0.17282" d="m 67.978867,28.563606 c -0.07604,0.207209 -0.129614,0.430323 -0.160895,0.668813 -0.463156,0.01728 -0.886565,0.02576 -1.270225,0.02576 -0.832991,0 -1.386878,-0.03023 -1.661662,-0.09056 -0.274783,-0.06066 -0.470933,-0.144307 -0.588277,-0.251454 -0.07605,-0.06913 -0.132381,-0.103865 -0.168672,-0.103865 -0.03629,0 -0.07864,0.0209 -0.126851,0.06221 -0.04838,0.04146 -0.129614,0.117515 -0.243676,0.228122 -0.11406,0.110607 -0.195459,0.205482 -0.243676,0.284979 -0.2041,-0.210841 -0.38193,-0.390571 -0.534012,-0.539025 0.221036,-0.172993 0.386079,-0.290509 0.494956,-0.352724 0.109049,-0.06205 0.174548,-0.11147 0.197186,-0.14759 0.02247,-0.03631 0.0337,-0.102824 0.0337,-0.199604 V 26.764382 H 63.10535 v -0.57549 h 1.239117 v 1.856083 c 0,0.114062 0.04493,0.215158 0.134799,0.303297 0.08987,0.08814 0.196151,0.152949 0.318853,0.194426 0.122702,0.04146 0.319716,0.07259 0.591043,0.09332 0.271327,0.02076 0.648074,0.03111 1.130241,0.03111 0.482167,0 0.968482,-0.03439 1.459464,-0.103522 z m -3.452938,-2.913913 -0.637532,0.29051 C 63.749969,25.615302 63.56004,25.30077 63.318092,24.996434 l 0.611609,-0.326628 c 0.262686,0.390745 0.461429,0.717373 0.596228,0.979887 z m 1.270226,-0.09332 h -1.244303 v -0.534014 h 1.244303 v -0.43032 h 0.56512 c 0.08295,0 0.12443,0.02264 0.12443,0.06757 0,0.02057 -0.01106,0.05184 -0.03353,0.09315 -0.02264,0.04148 -0.0337,0.131515 -0.0337,0.269771 h 1.27541 v 0.534014 h -1.280594 v 0.290336 h 1.052644 v 1.384458 h -0.596228 c 0.2696,0.224669 0.563393,0.49081 0.881382,0.79843 l -0.51846,0.404398 C 67.007964,28.14728 66.734908,27.88131 66.413463,27.635733 v 0.891749 h -0.61679 v -0.933227 c -0.228122,0.314534 -0.534013,0.603316 -0.917846,0.866002 -0.134626,-0.141711 -0.297249,-0.286882 -0.487178,-0.43568 0.259229,-0.138257 0.457107,-0.261823 0.593635,-0.37087 0.136528,-0.108702 0.261822,-0.249551 0.375883,-0.422373 h -0.596228 v -1.384631 h 1.031906 v -0.290337 z m 0,1.187269 V 26.34443 h -0.440864 v 0.399212 z m 0.616966,-0.399038 v 0.399214 h 0.445875 v -0.399214 z m 0,0.886565 v 0.342012 l 0.404571,-0.342012 z" id="path3023" />
    <path d="m 50.761356,44.05344 c -1.329157,-1.155817 -2.716209,-1.733561 -4.160981,-1.733561 -0.674343,0 -1.281285,0.150529 -1.82031,0.451415 -0.539543,0.301224 -0.809142,0.891052 -0.809142,1.769847 0,0.879298 0.664665,1.439064 1.993821,1.679629 2.658313,0.43343 4.603918,1.240505 5.836814,2.419822 1.23255,1.180192 1.849171,2.961958 1.849171,5.345833 0,1.878206 -0.631137,3.377245 -1.892549,4.496943 -1.26193,1.119698 -3.04854,1.679637 -5.360177,1.679637 -1.213541,0 -2.403231,-0.307101 -3.568555,-0.921129 -1.165669,-0.614029 -2.191527,-1.499039 -3.077401,-2.654684 l 2.39822,-3.034197 c 1.21354,1.589421 2.735218,2.384049 4.565379,2.384049 1.117107,0 1.988982,-0.198742 2.615108,-0.59606 0.62578,-0.39731 0.939275,-0.908682 0.939275,-1.534985 0,-0.962772 -0.298805,-1.649048 -0.895897,-2.058797 -0.597266,-0.409063 -1.444774,-0.734142 -2.54287,-0.975219 -2.350521,-0.481476 -3.978137,-1.240158 -4.883367,-2.275697 -0.905576,-1.034838 -1.358018,-2.461637 -1.358018,-4.280051 0,-1.818066 0.572898,-3.298781 1.719384,-4.442672 1.145795,-1.143552 2.547363,-1.715757 4.204358,-1.715757 1.271263,0 2.474952,0.234688 3.61176,0.704237 1.136462,0.469723 2.051716,1.113994 2.745241,1.932468 z" id="path3025" style="opacity:1;fill:#ffffff;stroke-width:0.17282" />
    <g transform="matrix(0.17281974,0,0,0.17281974,30.590527,18.519151)" style="font-style:normal;font-variant:normal;font-weight:normal;font-stretch:normal;font-size:29.8412px;line-height:125%;font-family:STJTBZ;-inkscape-font-specification:STJTBZ;text-align:center;letter-spacing:0px;word-spacing:0px;text-anchor:middle;opacity:1;fill:#000000;fill-opacity:1;stroke:none" id="text2990">
      <path d="m 73.681866,40.865506 h -6.057852 v -3.133655 h 6.057852 v -2.894145 h 3.103602 c 0.596788,2.3e-5 0.895188,0.114313 0.8952,0.342871 -1.2e-5,0.228604 -0.05465,0.472211 -0.163923,0.730822 -0.109293,0.258655 -0.163934,0.865472 -0.163922,1.820452 h 6.29645 v -2.95425 h 2.983392 c 0.696346,2.3e-5 1.04453,0.189141 1.044552,0.567354 -2.2e-5,0.119018 -0.02977,0.258049 -0.08925,0.417092 -0.139052,0.338188 -0.208568,0.994789 -0.208546,1.969804 h 6.535049 v 3.133655 h -6.535049 v 2.536247 H 83.64927 v -2.536247 h -6.29645 v 2.476142 h -3.670957 z m 14.890551,11.368945 -0.387951,5.550603 c -0.07955,1.173563 -0.293413,2.048879 -0.641575,2.625949 -0.348205,0.577065 -0.979762,1.014799 -1.894672,1.313203 -0.91495,0.298395 -2.367182,0.547163 -4.3567,0.746303 -0.139046,-1.770974 -0.596511,-3.233224 -1.372396,-4.386752 1.49168,0.278668 2.491152,0.418002 2.998418,0.418003 0.507232,-10e-7 0.875298,-0.119452 1.104201,-0.358353 0.228866,-0.238902 0.373057,-0.825836 0.432574,-1.760802 l 0.507249,-7.8182 h -3.520694 c -0.457784,3.501272 -1.417793,6.390861 -2.88003,8.668776 -1.462262,2.277916 -3.595834,4.16272 -6.400723,5.65442 -1.03454,-1.014503 -2.25819,-1.909702 -3.670957,-2.685599 5.610396,-2.088496 8.654194,-5.967691 9.131402,-11.637597 h -7.6989 v -3.163706 h 7.997604 c 0.07952,-1.432185 0.119286,-2.555965 0.119299,-3.371343 1.054555,-0.02002 1.959772,-0.01015 2.715651,0.0296 0.75585,0.03978 1.213467,0.08957 1.372853,0.149352 0.159352,0.05982 0.239037,0.164242 0.239053,0.313275 -1.6e-5,0.149063 -0.07469,0.377795 -0.224027,0.686198 -0.149368,0.308431 -0.283845,1.039404 -0.403432,2.192921 h 7.281808 l -0.328756,4.834807 2.387806,-1.28315 c 1.253071,1.910009 2.526202,4.078339 3.819398,6.504996 l -3.580799,1.7904 c -0.755891,-1.6113 -1.671124,-3.282399 -2.745704,-5.013304 z M 71.294971,49.370358 c 2.526221,0.715803 3.789335,1.28255 3.789345,1.700242 -1e-5,0.159072 -0.164084,0.377939 -0.492224,0.656602 -0.328157,0.278674 -0.721116,0.835707 -1.178877,1.6711 -0.81537,1.512341 -1.929436,2.944841 -3.3422,4.297505 -1.11407,-0.835398 -2.168335,-1.462249 -3.162796,-1.880557 2.108527,-1.988924 3.570776,-4.137219 4.386752,-6.444892 z" id="path3019" />
    </g>
    <g transform="matrix(0.14803908,0,0,0.2017485,30.590527,18.519151)" style="font-style:normal;font-variant:normal;font-weight:normal;font-stretch:normal;font-size:180.8px;line-height:125%;font-family:STJTBZ;-inkscape-font-specification:STJTBZ;text-align:center;letter-spacing:0px;word-spacing:0px;text-anchor:middle;opacity:1;fill:#ffffff;fill-opacity:1;stroke:none" id="text3021">
      <path d="m 243.14304,156.43312 c -7.47088,3.13403 -14.64188,4.70102 -21.51305,4.70098 -6.87127,4e-5 -13.65145,-1.11542 -20.34055,-3.34641 -6.68918,-2.23089 -12.02283,-5.93778 -16.00099,-11.12068 -3.97819,-5.18279 -5.96727,-11.44891 -5.96726,-18.7984 -1e-5,-9.28416 4.00759,-16.96922 12.02281,-23.0552 8.01517,-6.085787 18.0498,-9.128729 30.10391,-9.128839 13.86377,1.1e-4 24.74259,3.465146 32.63649,10.395119 7.89372,6.93017 11.84062,18.65134 11.84072,35.16354 -10e-5,8.31688 -1.35558,16.15184 -4.06645,23.50489 -2.71107,7.35312 -6.32692,13.68178 -10.84757,18.98599 -4.52081,5.30425 -10.06597,9.79371 -16.6355,13.46841 -6.56966,3.67471 -12.68681,6.14566 -18.35147,7.41287 -5.66476,1.2672 -12.47528,1.9008 -20.4316,1.9008 v -21.33648 c 1.20648,0.12141 2.53254,0.1821 3.97818,0.18208 8.68095,2e-5 16.96835,-2.35046 24.86221,-7.05146 7.89375,-4.70095 14.13045,-11.99334 18.71012,-21.87721 z M 221.81207,139.2569 c 6.74978,6e-5 11.93262,-0.93425 15.54854,-2.80293 3.61578,-1.86855 5.42371,-4.43055 5.42378,-7.68599 -7e-5,-7.95259 -7.23177,-11.92892 -21.69512,-11.92901 -6.14663,9e-5 -11.05819,1.08429 -14.7347,3.25261 -3.67658,2.1685 -5.51485,5.00177 -5.51482,8.49984 -3e-5,7.11039 6.99073,10.66554 20.97232,10.66548 z" style="fill:#ffffff" id="path3079" />
    </g>
    <g transform="matrix(2.4281801,0,0,2.4281801,-359.13684,-290.84174)" style="opacity:1;fill:#ffffff;fill-opacity:1" id="g5457">
      <g style="fill:#ffffff" id="use5455" transform="translate(161.23741,164.28)">
        <path id="path5482" d="M 2.765625,-5.796875 H 0.65625 V -6.875 H 2.765625 V -7.890625 H 3.84375 c 0.207031,0 0.3125,0.042969 0.3125,0.125 0,0.085937 -0.023437,0.171875 -0.0625,0.265625 -0.03125,0.085937 -0.046875,0.292969 -0.046875,0.625 H 6.21875 v -1.03125 h 1.046875 c 0.238281,0 0.359375,0.070312 0.359375,0.203125 0,0.042969 -0.011719,0.089844 -0.03125,0.140625 -0.054687,0.117187 -0.078125,0.34375 -0.078125,0.6875 h 2.28125 v 1.078125 H 7.515625 V -4.90625 H 6.21875 V -5.796875 H 4.046875 V -4.9375 H 2.765625 Z M 7.9375,-1.84375 7.796875,0.078125 c -0.023437,0.40625 -0.09375,0.707031 -0.21875,0.90625 -0.125,0.207031 -0.351562,0.363281 -0.671875,0.46875 -0.3125,0.101563 -0.8125,0.1875 -1.5,0.25 C 5.351563,1.085938 5.195313,0.582031 4.9375,0.1875 c 0.507813,0.09375 0.851563,0.140625 1.03125,0.140625 0.175781,0 0.300781,-0.042969 0.375,-0.125 C 6.425781,0.117188 6.476563,-0.0820313 6.5,-0.40625 L 6.6875,-3.125 H 5.453125 c -0.15625,1.21875 -0.492187,2.226562 -1,3.015625 -0.5,0.789063 -1.242187,1.445313 -2.21875,1.96875 C 1.878906,1.503906 1.457031,1.191406 0.96875,0.921875 2.914063,0.191406 3.972656,-1.15625 4.140625,-3.125 h -2.6875 v -1.09375 h 2.78125 c 0.03125,-0.5 0.046875,-0.890625 0.046875,-1.171875 0.363281,0 0.675781,0.00781 0.9375,0.015625 0.257813,0.011719 0.414063,0.027344 0.46875,0.046875 0.0625,0.023437 0.09375,0.058594 0.09375,0.109375 0,0.054687 -0.027344,0.136719 -0.078125,0.25 -0.054687,0.105469 -0.101562,0.355469 -0.140625,0.75 H 8.09375 L 7.984375,-2.53125 8.8125,-2.984375 C 9.238281,-2.316406 9.675781,-1.5625 10.125,-0.71875 L 8.890625,-0.109375 C 8.628906,-0.660156 8.3125,-1.238281 7.9375,-1.84375 Z m -6,-1 c 0.875,0.25 1.3125,0.449219 1.3125,0.59375 0,0.054687 -0.058594,0.132812 -0.171875,0.234375 -0.117187,0.09375 -0.25,0.289062 -0.40625,0.578125 -0.28125,0.523437 -0.667969,1.015625 -1.15625,1.484375 -0.386719,-0.289063 -0.75,-0.503906 -1.09375,-0.640625 0.726563,-0.695313 1.234375,-1.445313 1.515625,-2.25 z m 0,0" style="fill:#ffffff;stroke:none" />
      </g>
    </g>
    <g transform="matrix(2.4281801,0,0,2.4281801,-359.13684,-290.84174)" style="opacity:1;fill:#ffffff;fill-opacity:1" id="g5461">
      <g style="fill:#ffffff" id="use5459" transform="translate(171.59537,164.28)">
        <path id="path5486" d="m 5.3035742,-4.84375 v 1.578125 c 0,1.179687 -0.179687,2.152344 -0.53125,2.921875 -0.355469,0.769531 -0.914062,1.472656 -1.671875,2.109375 -0.34375,-0.261719 -0.730469,-0.511719 -1.15625,-0.75 0.6875,-0.386719 1.21875,-0.9648437 1.59375,-1.734375 0.382813,-0.78125 0.578125,-1.65625 0.578125,-2.625 v -4.390625 h 1.078125 c 0.164063,0 0.25,0.03125 0.25,0.09375 0,0.0625 -0.023437,0.136719 -0.0625,0.21875 -0.054687,0.15625 -0.078125,0.578125 -0.078125,1.265625 v 0.9375 l 0.984375,-0.203125 c 0.175781,0.8125 0.335938,1.710937 0.484375,2.6875 V -7.53125 h 1.0625 c 0.113281,0 0.1875,0.011719 0.21875,0.03125 0.03125,0.011719 0.046875,0.039062 0.046875,0.078125 0,0.042969 -0.011719,0.101562 -0.03125,0.171875 -0.074219,0.230469 -0.109375,0.554687 -0.109375,0.96875 v 1.015625 l 0.90625,-0.21875 c 0.238281,0.78125 0.460938,1.695312 0.671875,2.734375 v -5.0625 h 1.1093748 c 0.101563,0 0.171875,0.011719 0.203125,0.03125 0.03906,0.011719 0.0625,0.039062 0.0625,0.078125 0,0.042969 -0.01172,0.101562 -0.03125,0.171875 -0.05469,0.148437 -0.07813,0.398437 -0.07813,0.75 V 1.640625 H 9.5379491 v -3.875 l -1.046875,0.25 c -0.167969,-1.0625 -0.34375,-1.945313 -0.53125,-2.65625 v 6.09375 h -1.1875 v -3.75 l -1.015625,0.21875 C 5.6082622,-3.222656 5.4598242,-4.144531 5.3035742,-4.84375 Z m -1.40625,-0.578125 c -0.054687,1.429687 -0.21875,2.59375 -0.5,3.5 l -1.1875,-0.21875 c 0.3125,-0.9375 0.488281,-2.0625 0.53125,-3.375 z m 0,0" style="fill:#ffffff;stroke:none" />
      </g>
    </g>
    <g transform="matrix(2.4281801,0,0,2.4281801,-359.13684,-290.84174)" style="opacity:1;fill:#ffffff;fill-opacity:1" id="g5465">
      <g style="fill:#ffffff" id="use5463" transform="translate(181.84973,164.28)">
        <path id="path5490" d="m 5.0136771,-6.953125 c -0.042969,-0.257813 -0.101562,-0.550781 -0.171875,-0.875 L 6.2324271,-8 c 0.050781,0.375 0.097656,0.726562 0.140625,1.046875 h 1.578125 v 1.03125 h -1.3125 c 0.539063,0.148437 0.847656,0.230469 0.921875,0.25 0.070313,0.023437 0.109375,0.058594 0.109375,0.109375 0,0.054687 -0.046875,0.121094 -0.140625,0.203125 -0.09375,0.085937 -0.257812,0.339844 -0.484375,0.765625 h 0.953125 v 1.015625 h -1.8125 V -2.875 h 1.6875 v 1.03125 h -1.6875 v 0.515625 l 0.921875,-0.328125 c 0.226563,0.429687 0.441406,0.917969 0.640625,1.46875 0.164063,-0.363281 0.28125,-0.804688 0.34375,-1.328125 0.0625,-0.53125 0.09375,-1.25 0.09375,-2.15625 v -3.4375 c 1.164063,-0.0625 2.2578119,-0.304688 3.2812479,-0.734375 0.53125,0.75 0.796875,1.179687 0.796875,1.28125 0,0.054687 -0.02344,0.089844 -0.0625,0.109375 -0.04297,0.011719 -0.15625,0.015625 -0.34375,0.015625 -0.1875,0 -0.5625,0.042969 -1.125,0.125 -0.554685,0.074219 -0.9999979,0.121094 -1.3437479,0.140625 V -4.78125 H 12.451175 V -3.625 H 11.43555 V 1.671875 H 10.201177 V -3.625 H 9.3886771 v 0.609375 c 0,2.0625 -0.484375,3.675781 -1.453125,4.84375 C 7.6113331,1.597656 7.2324271,1.394531 6.7949271,1.21875 7.1894581,0.800781 7.4863331,0.378906 7.6855521,-0.046875 l -0.859375,0.34375 c -0.15625,-0.457031 -0.371094,-0.945313 -0.640625,-1.46875 V 0.375 c 0,0.28125 -0.046875,0.5 -0.140625,0.65625 -0.085937,0.15625 -0.25,0.273438 -0.5,0.359375 -0.25,0.082031 -0.632812,0.144531 -1.140625,0.1875 -0.011719,-0.4375 -0.117187,-0.886719 -0.3125,-1.34375 0.3125,0.0625 0.519531,0.09375 0.625,0.09375 0.101563,0 0.164063,-0.027344 0.1875,-0.078125 0.03125,-0.042969 0.046875,-0.121094 0.046875,-0.234375 V -1.84375 h -1.78125 V -2.875 h 1.78125 V -3.578125 H 2.8418021 V -4.59375 h 1.3125 C 4.0800831,-4.820313 3.9277401,-5.164063 3.7011771,-5.625 l 1.015625,-0.296875 h -1.546875 v -1.03125 z m 1.390625,1.03125 h -1.546875 c 0.175781,0.417969 0.320313,0.792969 0.4375,1.125 l -0.796875,0.203125 h 1.4375 c 0.21875,-0.457031 0.375,-0.898438 0.46875,-1.328125 z m -2.75,4.3125 c 0.5,0.167969 0.800781,0.277344 0.90625,0.328125 0.101563,0.042969 0.15625,0.089844 0.15625,0.140625 0,0.054687 -0.054687,0.132812 -0.15625,0.234375 -0.09375,0.09375 -0.199219,0.273437 -0.3125,0.53125 -0.105469,0.261719 -0.3125,0.648438 -0.625,1.171875 -0.304687,-0.179687 -0.609375,-0.324219 -0.921875,-0.4375 0.394531,-0.613281 0.710938,-1.269531 0.953125,-1.96875 z m 0,0" style="fill:#ffffff;stroke:none" />
      </g>
    </g>
    <g transform="matrix(2.4281801,0,0,2.4281801,-359.13684,-290.84174)" style="opacity:1;fill:#ffffff;fill-opacity:1" id="g5469">
      <g style="fill:#ffffff" id="use5467" transform="translate(192.31126,164.28)">
        <path id="path5494" d="m 6.1257614,-0.84375 v 1.0625 H 13.235131 V 1.359375 H 4.8132614 v -8.71875 H 12.860131 V -6.21875 H 6.1257614 v 5.296875 c 0.875,-0.46875 1.71875,-1.117188 2.53125,-1.953125 -0.667969,-0.632813 -1.359375,-1.222656 -2.078125,-1.765625 l 1,-0.921875 c 1.164063,0.980469 1.820313,1.539062 1.96875,1.671875 0.5703126,-0.738281 1.0039046,-1.46875 1.2968726,-2.1875 0.800779,0.386719 1.238278,0.605469 1.312497,0.65625 0.08203,0.042969 0.125,0.101562 0.125,0.171875 0,0.0625 -0.0625,0.132812 -0.1875,0.203125 -0.1875,0.117187 -0.417968,0.386719 -0.687499,0.8125 -0.261718,0.429687 -0.554685,0.828125 -0.874997,1.203125 0.624998,0.554687 1.312496,1.199219 2.062496,1.9375 L 11.266383,-0.125 c -0.554685,-0.664063 -1.117184,-1.285156 -1.6874966,-1.859375 -0.804687,0.78125 -1.59375,1.449219 -2.375,2 -0.375,-0.34375 -0.734375,-0.628906 -1.078125,-0.859375 z m 0,0" style="fill:#ffffff;stroke:none" />
      </g>
    </g>
    <g transform="matrix(0.16960433,0,0,0.16960433,15.318012,134.5233)" id="g6215" style="opacity:1">
      <path style="color:#000000;font-style:normal;font-variant:normal;font-weight:normal;font-stretch:normal;font-size:medium;line-height:normal;font-family:sans-serif;font-variant-ligatures:normal;font-variant-position:normal;font-variant-caps:normal;font-variant-numeric:normal;font-variant-alternates:normal;font-variant-east-asian:normal;font-feature-settings:normal;font-variation-settings:normal;text-indent:0;text-align:start;text-decoration:none;text-decoration-line:none;text-decoration-style:solid;text-decoration-color:#000000;letter-spacing:normal;word-spacing:normal;text-transform:none;writing-mode:lr-tb;direction:ltr;text-orientation:mixed;dominant-baseline:auto;baseline-shift:baseline;text-anchor:start;white-space:normal;shape-padding:0;shape-margin:0;inline-size:0;clip-rule:nonzero;display:inline;overflow:visible;visibility:visible;isolation:auto;mix-blend-mode:normal;color-interpolation:sRGB;color-interpolation-filters:linearRGB;solid-color:#000000;solid-opacity:1;vector-effect:none;fill:#ffffff;fill-opacity:1;fill-rule:nonzero;stroke:none;stroke-width:22.1;stroke-linecap:butt;stroke-linejoin:miter;stroke-miterlimit:4;stroke-dasharray:none;stroke-dashoffset:0;stroke-opacity:1;paint-order:stroke fill markers;color-rendering:auto;image-rendering:auto;shape-rendering:auto;text-rendering:auto;enable-background:accumulate;stop-color:#000000;stop-opacity:1" d="m 33.679688,0.00976563 c -9.409923,0 -18.453997,2.41386577 -24.8554692,8.81640627 C 2.4227469,15.228712 0.01171875,24.270872 0.01171875,33.679688 l 0.0019531,216.064452 c 0,9.4105 2.41018775,18.4549 8.81250005,24.85742 6.4018651,6.40208 15.4431691,8.81217 24.8515621,8.8125 l 343.667966,0.041 c 9.40911,0 18.45121,-2.40998 24.85352,-8.8125 6.40231,-6.40253 8.81445,-15.44693 8.81445,-24.85742 V 33.679688 c 0,-9.409057 -2.41252,-18.453108 -8.81445,-24.8554692 -6.40194,-6.4023613 -15.44516,-8.81445317 -24.85547,-8.81445317 z m 0,22.09960937 H 377.34375 c 5.87469,0 8.1422,1.255408 9.22852,2.341797 1.08631,1.086389 2.33984,3.354572 2.33984,9.228516 V 249.78516 c 0,5.8775 -1.25491,8.14549 -2.33984,9.23046 -1.0848,1.08484 -3.35041,2.33952 -9.22461,2.33985 l -343.667972,-0.041 c -5.875898,0 -8.141625,-1.25487 -9.226563,-2.33984 -1.084938,-1.08497 -2.339844,-3.35297 -2.339844,-9.23047 l -0.002,-216.064452 c 0,-5.874185 1.255769,-8.142307 2.341797,-9.228516 1.086028,-1.08621 3.352485,-2.341797 9.226563,-2.341797 z" id="path6217" />
      <path style="color:#000000;font-style:normal;font-variant:normal;font-weight:normal;font-stretch:normal;font-size:medium;line-height:normal;font-family:sans-serif;font-variant-ligatures:normal;font-variant-position:normal;font-variant-caps:normal;font-variant-numeric:normal;font-variant-alternates:normal;font-variant-east-asian:normal;font-feature-settings:normal;font-variation-settings:normal;text-indent:0;text-align:start;text-decoration:none;text-decoration-line:none;text-decoration-style:solid;text-decoration-color:#000000;letter-spacing:normal;word-spacing:normal;text-transform:none;writing-mode:lr-tb;direction:ltr;text-orientation:mixed;dominant-baseline:auto;baseline-shift:baseline;text-anchor:start;white-space:normal;shape-padding:0;shape-margin:0;inline-size:0;clip-rule:nonzero;display:inline;overflow:visible;visibility:visible;isolation:auto;mix-blend-mode:normal;color-interpolation:sRGB;color-interpolation-filters:linearRGB;solid-color:#000000;solid-opacity:1;vector-effect:none;fill:#204939;fill-opacity:1;fill-rule:nonzero;stroke:none;stroke-width:22.1;stroke-linecap:butt;stroke-linejoin:miter;stroke-miterlimit:4;stroke-dasharray:none;stroke-dashoffset:0;stroke-opacity:1;paint-order:stroke fill markers;color-rendering:auto;image-rendering:auto;shape-rendering:auto;text-rendering:auto;enable-background:accumulate;stop-color:#000000;stop-opacity:1" d="m 399.963,249.786 c 0,15.288 -7.332,22.619 -22.617,22.619 L 33.68,272.364 c -15.285,0 -22.617,-7.331 -22.617,-22.619 L 11.062,33.679 c 0,-15.283 7.333,-22.619 22.617,-22.619 h 343.665 c 15.285,0 22.619,7.336 22.619,22.619 z" id="path6219" />
    </g>
    <path style="opacity:1;stroke-width:0.169604" fill="#ff0000" d="m 17.194171,149.25852 v -9.02278 c 0,-2.59307 1.24371,-3.83662 3.835946,-3.83662 h 58.286901 c 2.592741,0 3.83628,1.24355 3.83628,3.83662 v 9.02278 z" id="path5630" />
    <path style="opacity:1;stroke-width:0.169604" fill="#ffffff" d="m 27.200828,144.9889 v 0.26459 h -0.63093 V 140.664 h 4.060161 v 4.54878 h -0.646195 v -0.22388 z m 2.78321,-0.53935 v -3.23604 h -2.78321 v 3.23604 z m -1.765584,-2.43721 H 27.3433 v -0.50881 h 2.457563 v 0.50881 h -0.961656 v 0.43758 h 0.864982 v 0.50882 h -0.315295 c 0.11177,0.16604 0.220486,0.3392 0.32564,0.51898 l -0.341071,0.14247 h 0.519154 v 0.52408 h -2.605119 v -0.52408 h 0.931129 v -0.66128 H 27.44014 v -0.50881 h 0.778487 v -0.43776 z m 1.114304,0.9464 h -0.493551 v 0.66129 h 0.325639 c -0.07123,-0.13569 -0.16282,-0.27968 -0.274757,-0.43249 z" id="path5632" />
    <path style="opacity:1;stroke-width:0.169604" fill="#ffffff" d="m 42.256602,142.15481 h -0.819185 v -0.48845 h 2.71723 v 0.48845 h -1.002361 c -0.111938,0.0884 -0.232355,0.1764 -0.36126,0.26459 0.196742,0.17995 0.347694,0.38348 0.452847,0.61074 0.305285,-0.15603 0.617359,-0.3867 0.936383,-0.69198 0.281372,0.20013 0.445215,0.32055 0.491006,0.36125 0.04597,0.0407 0.06869,0.0755 0.06869,0.10431 0,0.0288 -0.04154,0.0532 -0.124661,0.0738 -0.08311,0.0205 -0.273908,0.11194 -0.572415,0.27477 0.128897,0.52916 0.474893,0.97166 1.03798,1.328 -0.200304,0.1289 -0.385171,0.27968 -0.554606,0.45283 -0.475061,-0.38346 -0.788659,-0.8921 -0.941475,-1.52643 -0.04057,0.0237 -0.100068,0.056 -0.178083,0.0967 0.06108,0.29172 0.09159,0.55121 0.09159,0.77848 0,0.34938 -0.08904,0.59769 -0.267131,0.74541 -0.178084,0.14772 -0.487611,0.2215 -0.928583,0.2215 -0.02032,-0.23066 -0.09514,-0.43944 -0.223874,-0.62583 0.101932,0.004 0.189952,0.005 0.264753,0.005 0.220486,0 0.36448,-0.0204 0.432491,-0.0611 0.06767,-0.0406 0.10176,-0.10686 0.10176,-0.19845 0,-0.0916 -0.0068,-0.22557 -0.02032,-0.40196 -0.522382,0.42758 -1.168576,0.79375 -1.938583,1.09904 -0.0848,-0.21031 -0.215566,-0.37313 -0.391786,-0.48847 0.383306,-0.10192 0.779336,-0.26119 1.188083,-0.47828 0.408574,-0.21709 0.752191,-0.44945 1.030343,-0.69706 -0.02032,-0.0744 -0.0407,-0.134 -0.06108,-0.1781 -0.393484,0.29851 -0.932827,0.59193 -1.618028,0.88025 -0.10176,-0.16282 -0.228966,-0.31037 -0.381608,-0.44266 0.654501,-0.15926 1.22963,-0.43759 1.724879,-0.83446 -0.02713,-0.034 -0.06614,-0.0695 -0.117029,-0.10685 -0.48846,0.27476 -0.946226,0.47489 -1.373799,0.6004 -0.108716,-0.18657 -0.22235,-0.35277 -0.340903,-0.49863 0.759488,-0.16656 1.319013,-0.38891 1.678742,-0.66689 z m 0.203532,-1.25694 c -0.01016,-0.11532 -0.03884,-0.25083 -0.0865,-0.40704 l 0.809014,-0.0865 c 0.02373,0.16282 0.03562,0.32751 0.03562,0.49355 h 1.755574 v 1.0329 h -0.671636 v -0.52408 h -2.991987 v 0.52408 h -0.625671 v -1.0329 z" id="path5634" />
    <path style="opacity:1;stroke-width:0.169604" fill="#ffffff" d="m 56.711983,140.87752 c -0.02714,-0.14568 -0.05597,-0.27475 -0.08649,-0.38669 l 0.798837,-0.0712 c 0.03375,0.17638 0.05597,0.32903 0.06614,0.45793 h 1.735053 v 0.52917 h -4.380881 v -0.52917 z m -0.117028,3.83645 v 0.16792 H 56.04035 v -1.33835 h 1.999635 v 1.04831 c 0.118553,0.017 0.204204,0.0253 0.25695,0.0253 0.05257,0 0.08566,-0.0109 0.09922,-0.0329 0.01356,-0.0222 0.02035,-0.0655 0.02035,-0.12992 v -1.06851 H 55.68418 v 1.8012 h -0.62567 v -2.31509 h 4.004358 v 1.64346 c 0,0.16605 -0.02476,0.29681 -0.07395,0.39179 -0.04918,0.095 -0.139923,0.1679 -0.272045,0.21879 -0.132292,0.051 -0.327506,0.0848 -0.585134,0.10193 -0.0036,-0.16977 -0.03392,-0.31717 -0.09159,-0.44267 v 0.0763 h -0.585135 v -0.14755 z m 1.918226,-1.99963 h -2.874794 v -1.15501 h 2.874794 z m -0.70725,-0.43758 v -0.26459 h -1.516263 v 0.26459 z m -0.351081,2.0149 v -0.3002 h -0.859895 v 0.3002 z" id="path5636" />
    <path style="opacity:1;stroke-width:0.169604" fill="#ffffff" d="m 73.77757,144.39359 c -0.07463,0.20336 -0.127202,0.42214 -0.1579,0.65637 -0.454541,0.017 -0.870071,0.0253 -1.246592,0.0253 -0.817493,0 -1.361075,-0.0297 -1.630746,-0.0889 -0.269671,-0.0595 -0.462172,-0.14179 -0.577333,-0.24677 -0.07463,-0.0678 -0.129917,-0.10194 -0.165534,-0.10194 -0.03562,0 -0.07717,0.0203 -0.124489,0.0611 -0.04749,0.0407 -0.127204,0.11532 -0.239143,0.22388 -0.111939,0.10854 -0.191823,0.20166 -0.239142,0.27966 -0.200303,-0.2069 -0.374825,-0.3833 -0.524078,-0.52916 0.216924,-0.1696 0.378897,-0.28493 0.485747,-0.346 0.107021,-0.0608 0.171301,-0.10938 0.193519,-0.14483 0.02205,-0.0357 0.03308,-0.10092 0.03308,-0.19589 v -1.35854 h -0.590224 v -0.56478 h 1.216064 v 1.82155 c 0,0.11177 0.0441,0.21116 0.132291,0.29766 0.08819,0.0865 0.1925,0.1501 0.31292,0.1908 0.120418,0.0406 0.313768,0.0712 0.580047,0.0916 0.266279,0.0203 0.636015,0.0306 1.109211,0.0306 0.473197,0 0.950463,-0.034 1.432309,-0.10159 z m -3.388694,-2.8597 -0.62567,0.28494 c -0.135853,-0.31869 -0.322249,-0.62737 -0.559694,-0.92604 l 0.600229,-0.32056 c 0.257799,0.38331 0.452844,0.70403 0.585135,0.96166 z m 1.246592,-0.0916 h -1.221151 v -0.52408 h 1.221151 v -0.42232 h 0.554606 c 0.08141,0 0.122115,0.0222 0.122115,0.0661 0,0.0203 -0.01085,0.051 -0.03291,0.0916 -0.02222,0.0407 -0.03307,0.12908 -0.03307,0.26476 h 1.25168 v 0.52408 H 72.24112 v 0.28494 h 1.03306 v 1.35869 h -0.585134 c 0.264583,0.2205 0.552909,0.48169 0.864981,0.7834 l -0.508813,0.39705 c -0.220485,-0.28154 -0.48846,-0.54273 -0.803925,-0.78357 v 0.87516 h -0.605317 v -0.91586 c -0.223878,0.30867 -0.524077,0.59191 -0.900769,0.84971 -0.132122,-0.13891 -0.29172,-0.28137 -0.478114,-0.4274 0.254406,-0.13569 0.448604,-0.25712 0.582591,-0.36397 0.133987,-0.10685 0.25695,-0.24491 0.368889,-0.41452 h -0.585134 v -1.35869 h 1.012707 v -0.28511 z m 0,1.16535 v -0.39196 h -0.432661 v 0.39196 z m 0.605488,-0.39196 v 0.39196 h 0.437579 v -0.39196 z m 0,0.87024 v 0.33565 l 0.397043,-0.33565 z" id="path5638" />
    <path style="opacity:1;stroke-width:0.169604" fill="#ffffff" d="m 36.221912,164.50968 c -0.26492,7.23142 -2.505225,10.84704 -6.720741,10.84704 -1.985047,0 -3.615626,-0.96877 -4.891728,-2.90684 -1.276103,-1.9374 -1.914151,-4.51334 -1.914151,-7.72751 0,-3.47384 0.647378,-6.17343 1.942646,-8.0998 1.294588,-1.92569 2.963325,-2.88887 5.005196,-2.88887 1.285426,0 2.448067,0.44912 3.487912,1.34683 1.039504,0.89839 1.861917,2.1979 2.467066,3.8992 l -3.119368,1.45334 c -0.5295,-1.65381 -1.502863,-2.48131 -2.920922,-2.48131 -2.306792,0 -3.45959,2.20977 -3.45959,6.62848 0,4.41938 1.181293,6.62881 3.544729,6.62881 1.323083,0 2.268626,-0.81528 2.835783,-2.44603 h -1.985048 v -4.25368 h 5.728216 z" id="path5640" />
    <path style="opacity:1;stroke-width:0.169604" fill="#ffffff" d="m 45.267762,175.17949 h -3.40294 V 160.5752 h -1.701476 v -4.39547 c 0.964203,-0.37788 1.597339,-1.2052 1.899909,-2.4813 h 3.204507 z" id="path5642" />
    <path style="opacity:1;stroke-width:0.169604" fill="#ffffff" d="m 53.633325,160.96512 c 0.850735,-0.25983 1.89024,-0.38992 3.119362,-0.38992 1.98505,0 3.558978,0.73879 4.721616,2.21554 1.162638,1.47725 1.744041,3.23792 1.744041,5.28182 0,2.04424 -0.605147,3.77505 -1.814936,5.19278 -1.210127,1.41806 -2.798132,2.127 -4.764185,2.127 -2.72232,0 -5.085586,-0.75609 -7.089462,-2.26879 l 1.871584,-3.58001 c 1.361244,1.11107 3.024554,1.66602 4.991116,1.66602 1.209619,0 2.088677,-0.28357 2.637349,-0.85073 0.547991,-0.56733 0.822411,-1.3704 0.822411,-2.41059 0,-1.03951 -0.293246,-1.82563 -0.879229,-2.35716 -0.586153,-0.53172 -1.42756,-0.79748 -2.523882,-0.79748 -1.096663,0 -2.155163,0.26017 -3.176181,0.77985 l -3.431096,-1.66603 0.737271,-9.99615 H 61.71548 v 4.25368 h -7.74176 z" id="path5644" />
    <path style="opacity:1;stroke-width:0.169604" fill="#ffffff" d="m 77.652182,161.00074 -1.795771,14.17892 h -2.363266 l -1.758289,-8.46021 -1.966053,8.46021 h -2.344271 l -1.795941,-14.20267 h 2.268628 l 1.002023,7.70411 1.569179,-7.6802 h 2.381754 l 1.588005,7.72735 0.96437,-7.72735 h 2.249632 z" id="path5646" />
    <path style="opacity:1;stroke-width:0.460772" fill="#ffff00" d="M 153.52258,175.21501 H 102.0663 c -2.96276,0 -5.37353,-2.40984 -5.37353,-5.3726 V 149.2915 c 0,-2.96322 2.41077,-5.37398 5.37353,-5.37398 h 51.45628 c 2.96368,0 5.37444,2.41076 5.37444,5.37398 v 20.55091 c 0,2.96276 -2.41076,5.3726 -5.37444,5.3726 z" id="path6330" />
    <g transform="matrix(0.46077224,0,0,0.46077224,96.69277,143.91752)" id="g6911" style="opacity:1;fill:#000000">
      <path id="path6913" style="color:#000000;font-style:normal;font-variant:normal;font-weight:normal;font-stretch:normal;font-size:medium;line-height:normal;font-family:sans-serif;font-variant-ligatures:normal;font-variant-position:normal;font-variant-caps:normal;font-variant-numeric:normal;font-variant-alternates:normal;font-variant-east-asian:normal;font-feature-settings:normal;font-variation-settings:normal;text-indent:0;text-align:start;text-decoration:none;text-decoration-line:none;text-decoration-style:solid;text-decoration-color:#000000;letter-spacing:normal;word-spacing:normal;text-transform:none;writing-mode:lr-tb;direction:ltr;text-orientation:mixed;dominant-baseline:auto;baseline-shift:baseline;text-anchor:start;white-space:normal;shape-padding:0;shape-margin:0;inline-size:0;clip-rule:nonzero;display:inline;overflow:visible;visibility:visible;isolation:auto;mix-blend-mode:normal;color-interpolation:sRGB;color-interpolation-filters:linearRGB;solid-color:#000000;solid-opacity:1;vector-effect:none;fill:#000000;fill-opacity:1;fill-rule:nonzero;stroke:none;stroke-width:6.3;stroke-linecap:butt;stroke-linejoin:miter;stroke-miterlimit:4;stroke-dasharray:none;stroke-dashoffset:0;stroke-opacity:1;paint-order:stroke fill markers;color-rendering:auto;image-rendering:auto;shape-rendering:auto;text-rendering:auto;enable-background:accumulate;stop-color:#000000;stop-opacity:1" d="m 13.603516,2.8789062 c -3.195777,2e-7 -6.1053099,0.9950277 -8.0117191,3.0957032 C 3.6853876,8.0752848 3.0078125,10.875825 3.0078125,13.775391 v 40.375 c 0,2.898983 0.6775032,5.700637 2.5839844,7.800781 1.9064812,2.100143 4.8163301,3.09375 8.0117191,3.09375 H 121.39453 c 3.19578,0 6.1053,-0.993455 8.01172,-3.09375 1.90642,-2.100295 2.58398,-4.902015 2.58398,-7.800781 v -40.375 c 0,-2.899348 -0.67568,-5.6999549 -2.58203,-7.8007816 -1.90635,-2.1008268 -4.8175,-3.0957032 -8.01367,-3.0957032 z m 0,3.1503907 H 121.39453 c 5.219,0 7.44727,2.9160937 7.44727,7.7460941 v 40.375 c 0,4.828 -2.22927,7.74414 -7.44727,7.74414 H 13.603516 c -5.2170004,0 -7.447266,-2.91614 -7.447266,-7.74414 v -40.375 c 0,-4.8300004 2.2292656,-7.7460941 7.447266,-7.7460941 z" />
    </g>
    <path style="opacity:1;stroke-width:0.460772" d="m 111.31123,155.45065 c -0.98328,-0.85474 -2.00943,-1.28233 -3.07888,-1.28233 -0.49901,0 -0.94827,0.1115 -1.34684,0.33405 -0.39948,0.22302 -0.59854,0.65983 -0.59854,1.30952 0,0.65061 0.49165,1.06484 1.47539,1.2427 1.96704,0.32024 3.40649,0.91786 4.31882,1.79103 0.91187,0.87316 1.36849,2.19143 1.36849,3.95527 0,1.38969 -0.46722,2.4983 -1.40028,3.32723 -0.93353,0.82847 -2.25594,1.2427 -3.96587,1.2427 -0.89805,0 -1.77812,-0.22762 -2.64023,-0.68147 -0.86256,-0.45433 -1.62145,-1.10908 -2.27667,-1.96428 l 1.77443,-2.24535 c 0.89805,1.17636 2.02372,1.76384 3.37793,1.76384 0.82662,0 1.4717,-0.14652 1.93478,-0.44096 0.46307,-0.29397 0.69484,-0.67226 0.69484,-1.1358 0,-0.71235 -0.22117,-1.22012 -0.66258,-1.52331 -0.44189,-0.30273 -1.069,-0.54326 -1.88134,-0.72111 -1.73896,-0.35618 -2.94341,-0.91786 -3.61292,-1.68366 -0.67042,-0.76581 -1.00494,-1.82144 -1.00494,-3.16689 0,-1.34546 0.42391,-2.44071 1.2722,-3.28761 0.84781,-0.84598 1.88455,-1.26897 3.11067,-1.26897 0.94089,0 1.83157,0.17371 2.67247,0.52113 0.84091,0.34743 1.51779,0.82432 2.03109,1.42978 z" id="path6336" />
    <path style="opacity:1;stroke-width:0.460772" d="m 126.59781,167.20955 h -10.24113 c 0.11382,-1.90667 0.44511,-3.47422 0.99435,-4.70356 0.54832,-1.22934 1.21091,-2.21401 1.98824,-2.95309 0.77685,-0.73908 1.77075,-1.35836 2.98258,-1.85691 0.49901,-0.17832 0.89067,-0.45018 1.17589,-0.81557 0.28475,-0.36492 0.4276,-0.75244 0.4276,-1.16253 0,-0.40962 -0.23177,-0.77501 -0.69485,-1.09525 -0.46307,-0.32116 -1.03674,-0.48151 -1.72099,-0.48151 -1.25422,0 -2.38035,0.54371 -3.37792,1.63021 l -1.77443,-2.32505 c 0.8409,-0.8188 1.66754,-1.43024 2.47988,-1.83065 0.81234,-0.40088 1.73849,-0.60131 2.77937,-0.60131 1.56801,0 2.7651,0.4322 3.59172,1.29615 0.82617,0.86441 1.23994,1.97349 1.23994,3.32724 0,1.35421 -0.34558,2.45868 -1.03674,3.31387 -0.69162,0.85519 -1.89193,1.64819 -3.60231,2.37851 -0.8552,0.39211 -1.63206,1.28279 -2.33059,2.67248 h 7.11939 z" id="path6338" />
    <path style="opacity:1;stroke-width:0.460772" d="m 139.81045,167.20955 h -10.24066 c 0.11381,-1.90667 0.44511,-3.47422 0.99435,-4.70356 0.54831,-1.22934 1.21091,-2.21401 1.98823,-2.95309 0.77686,-0.73908 1.77074,-1.35836 2.98257,-1.85691 0.49856,-0.17832 0.89068,-0.45018 1.1759,-0.81557 0.28476,-0.36492 0.42759,-0.75244 0.42759,-1.16253 0,-0.40962 -0.23177,-0.77501 -0.69484,-1.09525 -0.46308,-0.32116 -1.03673,-0.48151 -1.72099,-0.48151 -1.25421,0 -2.38034,0.54371 -3.37791,1.63021 l -1.77444,-2.32505 c 0.84091,-0.8188 1.66753,-1.43024 2.47988,-1.83065 0.8128,-0.40088 1.73849,-0.60131 2.77938,-0.60131 1.56754,0 2.76509,0.4322 3.59172,1.29615 0.82662,0.86441 1.23993,1.97349 1.23993,3.32724 0,1.35421 -0.34557,2.45868 -1.03673,3.31387 -0.69162,0.85519 -1.89194,1.64819 -3.60232,2.37851 -0.8552,0.39211 -1.63251,1.28279 -2.33059,2.67248 h 7.11939 v 3.20697 z" id="path6340" />
    <path style="opacity:1;stroke-width:0.460772" d="m 152.55219,154.32821 c -0.74092,0.67779 -1.61086,2.24487 -2.60797,4.70356 -0.99804,2.45868 -1.49659,5.18461 -1.49659,8.17778 h -2.58678 c 0,-2.22691 0.24191,-4.38332 0.72664,-6.46739 0.48473,-2.08407 1.33946,-4.25754 2.56558,-6.52086 h -6.99084 v -3.20651 h 10.39042 v 3.31342 z" id="path6342" />
    <path id="path2408" d="m 217.35775,103.51096 -2.08182,2.71008 2.01734,6.19381 h -2.01734 l -1.31203,-4.15667 -1.16036,1.44659 v 2.71008 h -1.96804 v -11.17908 l 1.96804,-0.93388 v 5.7223 l 2.08182,-2.51323 z m 0,0" style="opacity:1;fill:#ffffff;fill-opacity:1;stroke:none;stroke-width:0.266652" />
    <path id="path2412" d="m 231.21055,112.41486 h -1.93392 v -5.34234 c 0,-0.38454 -0.12893,-0.71414 -0.38678,-0.98881 -0.25596,-0.27696 -0.55552,-0.41658 -0.8987,-0.41658 -0.34414,0 -0.63328,0.14191 -0.86838,0.42573 -0.23509,0.28383 -0.35266,0.61114 -0.35266,0.97966 v 5.34234 h -1.90357 v -5.38354 c 0,-0.35707 -0.10998,-0.67294 -0.32991,-0.94761 -0.21803,-0.27696 -0.51002,-0.41658 -0.87594,-0.41658 -0.36404,0 -0.67499,0.13275 -0.93283,0.39827 -0.25598,0.26322 -0.383,0.58481 -0.383,0.96592 v 5.38354 h -1.96805 v -8.9039 h 1.96805 v 0.55392 c 0.57828,-0.44863 1.19543,-0.67294 1.85049,-0.67294 0.81907,0 1.46846,0.34334 1.94909,1.03001 0.67688,-0.67409 1.40873,-1.0117 2.19557,-1.0117 0.78874,0 1.46371,0.28726 2.02493,0.86063 0.56311,0.57452 0.84561,1.26349 0.84561,2.06919 z m 0,0" style="opacity:1;fill:#ffffff;fill-opacity:1;stroke:none;stroke-width:0.266652" />
    <g transform="matrix(1.482778,0,0,1.8792364,-153.3424,-109.62043)" style="opacity:1;fill:#ffffff;fill-opacity:1" id="g3143">
      <g style="fill:#ffffff" transform="translate(232.10463,118.08)" id="use3141">
        <path id="path15165" d="M 10.890625,0 H 1.296875 C 1.410156,-1.425781 1.722656,-2.597656 2.234375,-3.515625 2.742188,-4.441406 3.363281,-5.179688 4.09375,-5.734375 4.820313,-6.285156 5.753906,-6.75 6.890625,-7.125 c 0.46875,-0.132813 0.832031,-0.335938 1.09375,-0.609375 0.269531,-0.28125 0.40625,-0.570313 0.40625,-0.875 0,-0.3125 -0.21875,-0.585938 -0.65625,-0.828125 C 7.304688,-9.675781 6.769531,-9.796875 6.125,-9.796875 c -1.179687,0 -2.230469,0.40625 -3.15625,1.21875 L 1.296875,-10.3125 c 0.789063,-0.613281 1.566406,-1.070313 2.328125,-1.375 0.757813,-0.300781 1.628906,-0.453125 2.609375,-0.453125 1.46875,0 2.585938,0.324219 3.359375,0.96875 0.769531,0.648437 1.15625,1.480469 1.15625,2.5 0,1.011719 -0.324219,1.839844 -0.96875,2.484375 -0.648437,0.636719 -1.773437,1.230469 -3.375,1.78125 -0.804687,0.292969 -1.527344,0.960937 -2.171875,2 h 6.65625 z m 0,0" style="fill:#ffffff;stroke:none" />
        <path style="fill:#ffffff;stroke:none" d="m 9.2718951,30.863599 h -9.5937499 c 0.11328096,-1.425781 0.4257809,-2.597656 0.93749974,-3.515625 0.50781296,-0.925781 1.12890596,-1.664063 1.85937496,-2.21875 0.726563,-0.550781 1.660156,-1.015625 2.796875,-1.390624 0.46875,-0.132813 0.832031,-0.335938 1.09375,-0.609375 0.269531,-0.28125 0.40625,-0.570313 0.40625,-0.875 0,-0.3125 -0.21875,-0.585938 -0.65625,-0.828125 -0.429687,-0.238281 -0.964844,-0.359375 -1.609375,-0.359375 -1.179687,0 -2.230469,0.40625 -3.15625,1.21875 L -0.3218548,20.5511 c 0.78906278,-0.613281 1.5664057,-1.070313 2.3281247,-1.375 0.757813,-0.300781 1.628906,-0.453125 2.609375,-0.453125 1.46875,0 2.585938,0.324219 3.359375,0.96875 0.7695312,0.648437 1.1562502,1.480469 1.1562502,2.5 0,1.011719 -0.324219,1.839843 -0.9687502,2.484374 -0.648437,0.636719 -1.773437,1.230469 -3.375,1.78125 -0.804687,0.292969 -1.527344,0.960937 -2.171875,2 h 6.6562502 z m 0,0" id="path7007" />
        <path id="path7015" d="m -2.2605115,30.863599 h -9.5937505 c 0.113281,-1.425781 0.425781,-2.597656 0.937501,-3.515625 0.507813,-0.925781 1.128905,-1.664063 1.8593738,-2.21875 0.7265631,-0.550781 1.6601562,-1.015625 2.7968753,-1.390624 0.4687501,-0.132813 0.8320311,-0.335938 1.0937501,-0.609375 0.269531,-0.28125 0.40625,-0.570313 0.40625,-0.875 0,-0.3125 -0.21875,-0.585938 -0.65625,-0.828125 -0.429687,-0.238281 -0.9648441,-0.359375 -1.6093752,-0.359375 -1.1796871,0 -2.2304691,0.40625 -3.15625,1.21875 L -11.854262,20.5511 c 0.789064,-0.613281 1.566407,-1.070313 2.328125,-1.375 0.7578128,-0.300781 1.628906,-0.453125 2.609375,-0.453125 1.4687502,0 2.5859382,0.324219 3.3593753,0.96875 0.7695312,0.648437 1.1562502,1.480469 1.1562502,2.5 0,1.011719 -0.324219,1.839843 -0.9687502,2.484374 -0.648437,0.636719 -1.7734371,1.230469 -3.3750002,1.78125 -0.8046871,0.292969 -1.5273442,0.960937 -2.1718753,2 h 6.6562507 z m 0,0" style="fill:#ffffff;stroke:none" />
      </g>
    </g>
    <path style="opacity:1;fill:#ffffff;fill-opacity:1;stroke:none;stroke-width:0.266652" d="m 217.35775,46.033462 -2.08182,2.71008 2.01734,6.19381 h -2.01734 l -1.31203,-4.15667 -1.16036,1.44659 v 2.71008 h -1.96804 v -11.17908 l 1.96804,-0.93388 v 5.7223 l 2.08182,-2.51323 z m 0,0" id="path7003" />
    <path style="opacity:1;fill:#ffffff;fill-opacity:1;stroke:none;stroke-width:0.266652" d="m 231.21055,54.937362 h -1.93392 v -5.34234 c 0,-0.38454 -0.12893,-0.71414 -0.38678,-0.98881 -0.25596,-0.27696 -0.55552,-0.41658 -0.8987,-0.41658 -0.34414,0 -0.63328,0.14191 -0.86838,0.42573 -0.23509,0.28383 -0.35266,0.61114 -0.35266,0.97966 v 5.34234 h -1.90357 v -5.38354 c 0,-0.35707 -0.10998,-0.67294 -0.32991,-0.94761 -0.21803,-0.27696 -0.51002,-0.41658 -0.87594,-0.41658 -0.36404,0 -0.67499,0.13275 -0.93283,0.39827 -0.25598,0.26322 -0.383,0.58481 -0.383,0.96592 v 5.38354 h -1.96805 v -8.9039 h 1.96805 v 0.55392 c 0.57828,-0.44863 1.19543,-0.67294 1.85049,-0.67294 0.81907,0 1.46846,0.34334 1.94909,1.03001 0.67688,-0.67409 1.40873,-1.0117 2.19557,-1.0117 0.78874,0 1.46371,0.28726 2.02493,0.86063 0.56311,0.57452 0.84561,1.26349 0.84561,2.06919 z m 0,0" id="path7005" />
    <path id="path7009" d="m 217.35775,161.51096 -2.08182,2.71008 2.01734,6.19381 h -2.01734 l -1.31203,-4.15667 -1.16036,1.44659 v 2.71008 h -1.96804 v -11.17908 l 1.96804,-0.93388 v 5.7223 l 2.08182,-2.51323 z m 0,0" style="opacity:1;fill:#ffffff;fill-opacity:1;stroke:none;stroke-width:0.266652" />
    <path id="path7011" d="m 231.21055,170.41486 h -1.93392 v -5.34234 c 0,-0.38454 -0.12893,-0.71414 -0.38678,-0.98881 -0.25596,-0.27696 -0.55552,-0.41658 -0.8987,-0.41658 -0.34414,0 -0.63328,0.14191 -0.86838,0.42573 -0.23509,0.28383 -0.35266,0.61114 -0.35266,0.97966 v 5.34234 h -1.90357 v -5.38354 c 0,-0.35707 -0.10998,-0.67294 -0.32991,-0.94761 -0.21803,-0.27696 -0.51002,-0.41658 -0.87594,-0.41658 -0.36404,0 -0.67499,0.13275 -0.93283,0.39827 -0.25598,0.26322 -0.383,0.58481 -0.383,0.96592 v 5.38354 h -1.96805 v -8.9039 h 1.96805 v 0.55392 c 0.57828,-0.44863 1.19543,-0.67294 1.85049,-0.67294 0.81907,0 1.46846,0.34334 1.94909,1.03001 0.67688,-0.67409 1.40873,-1.0117 2.19557,-1.0117 0.78874,0 1.46371,0.28726 2.02493,0.86063 0.56311,0.57452 0.84561,1.26349 0.84561,2.06919 z m 0,0" style="opacity:1;fill:#ffffff;fill-opacity:1;stroke:none;stroke-width:0.266652" />
    <g transform="matrix(1.3426831,0,0,1.8600788,178.17236,112.05352)" style="opacity:1;fill:#ffffff;fill-opacity:1" id="use3097">
      <path style="fill:#ffffff;stroke:none" d="M 5.046875,0 H 2.640625 V -8.25 H 1.4375 v -2.484375 c 0.6875,-0.21875 1.132813,-0.6875 1.34375,-1.40625 h 2.265625 z m 0,0" id="path825" />
    </g>
    <g transform="matrix(0.9541816,0,0,1.3333333,57.351139,-107.1472)" id="g3103" style="opacity:1;fill:#ffffff;fill-opacity:1">
      <g style="fill:#ffffff" transform="translate(127.66592,118.08)" id="use3101">
        <path style="opacity:1;fill:#ffffff;stroke:none;stroke-width:1.39506" d="m 18.798955,-7.9910735 c 0.828316,-0.2016292 1.852812,-0.3051691 3.073487,-0.3051691 1.945452,0 3.493095,0.5830915 4.642928,1.7438242 1.144385,1.1661817 1.722025,2.5503427 1.722025,4.1633799 0,1.61303731 -0.599438,2.98084972 -1.787418,4.0979868 -1.193429,1.122586 -2.762869,1.6784304 -4.708321,1.6784304 -2.675678,0 -5.002591,-0.5939895 -6.975291,-1.7874194 l 1.852812,-2.8337143 c 1.335114,0.87191196 2.969948,1.30786793 4.904501,1.30786793 1.18798,0 2.054441,-0.21797783 2.593936,-0.6539338 0.550394,-0.44685593 0.828316,-1.07899193 0.828316,-1.89640883 0,-0.8283166 -0.294269,-1.4495545 -0.871911,-1.8746108 -0.583091,-0.4196073 -1.416856,-0.6321359 -2.506745,-0.6321359 -1.07899,0 -2.114385,0.2125286 -3.117083,0.6321359 l -3.378657,-1.329666 0.719327,-7.8690045 h 10.964285 v 3.356861 h -7.629224 z m 0,0" id="path821" />
      </g>
    </g>
  </g>
</svg>
