<?xml version="1.0" encoding="UTF-8"?>
<svg xmlns="http://www.w3.org/2000/svg" xmlns:ns1="http://sodipodi.sourceforge.net/DTD/sodipodi-0.dtd" viewBox="0 0 173.00172 84.848633" height="84.848633" width="173.00172" id="svg14293" version="1.1">
  <defs id="defs14297" />
  <ns1:namedview showgrid="false" id="namedview14295" guidetolerance="10" gridtolerance="10" objecttolerance="10" borderopacity="1" bordercolor="#666666" pagecolor="#ffffff" />
  <g transform="translate(-4.2918826,-3.793929)" id="g14301">
    <path id="path11391" d="m 16.953362,5.6379678 c -5.992049,0 -10.8174394,4.8253882 -10.8174394,10.8174382 v 59.525677 c 0,5.992049 4.8253904,10.817439 10.8174394,10.817439 H 164.63213 c 5.99204,0 10.81743,-4.82539 10.81743,-10.817439 V 16.455406 c 0,-5.99205 -4.82539,-10.8174382 -10.81743,-10.8174382 z" style="color:#000000;font-style:normal;font-variant:normal;font-weight:normal;font-stretch:normal;font-size:medium;line-height:normal;font-family:sans-serif;font-variant-ligatures:normal;font-variant-position:normal;font-variant-caps:normal;font-variant-numeric:normal;font-variant-alternates:normal;font-variant-east-asian:normal;font-feature-settings:normal;font-variation-settings:normal;text-indent:0;text-align:start;text-decoration:none;text-decoration-line:none;text-decoration-style:solid;text-decoration-color:#000000;letter-spacing:normal;word-spacing:normal;text-transform:none;writing-mode:lr-tb;direction:ltr;text-orientation:mixed;dominant-baseline:auto;baseline-shift:baseline;text-anchor:start;white-space:normal;shape-padding:0;shape-margin:0;inline-size:0;clip-rule:nonzero;display:inline;overflow:visible;visibility:visible;opacity:1;isolation:auto;mix-blend-mode:normal;color-interpolation:sRGB;color-interpolation-filters:linearRGB;solid-color:#000000;solid-opacity:1;vector-effect:none;fill:#ffffff;fill-opacity:1;fill-rule:nonzero;stroke:none;stroke-width:3.18896;stroke-linecap:butt;stroke-linejoin:miter;stroke-miterlimit:4;stroke-dasharray:none;stroke-dashoffset:0;stroke-opacity:1;color-rendering:auto;image-rendering:auto;shape-rendering:auto;text-rendering:auto;enable-background:accumulate;stop-color:#000000;stop-opacity:1" />
    <path id="path11393" d="m 16.953362,4.043929 c -6.848069,0 -12.4114794,5.5634052 -12.4114794,12.411477 v 59.525677 c 0,6.848071 5.5634104,12.411479 12.4114794,12.411479 H 164.63213 c 6.84806,0 12.41147,-5.563409 12.41147,-12.411479 V 16.455406 c 0,-6.8480708 -5.56341,-12.411477 -12.41147,-12.411477 z m 0,3.1880784 H 164.63213 c 5.13603,0 9.22339,4.0873696 9.22339,9.2233986 v 59.525677 c 0,5.13603 -4.08736,9.2234 -9.22339,9.2234 H 16.953362 c -5.136029,0 -9.2233994,-4.08737 -9.2233994,-9.2234 V 16.455406 c 0,-5.136028 4.0873714,-9.2233986 9.2233994,-9.2233986 z" style="color:#000000;font-style:normal;font-variant:normal;font-weight:normal;font-stretch:normal;font-size:medium;line-height:normal;font-family:sans-serif;font-variant-ligatures:normal;font-variant-position:normal;font-variant-caps:normal;font-variant-numeric:normal;font-variant-alternates:normal;font-variant-east-asian:normal;font-feature-settings:normal;font-variation-settings:normal;text-indent:0;text-align:start;text-decoration:none;text-decoration-line:none;text-decoration-style:solid;text-decoration-color:#000000;letter-spacing:normal;word-spacing:normal;text-transform:none;writing-mode:lr-tb;direction:ltr;text-orientation:mixed;dominant-baseline:auto;baseline-shift:baseline;text-anchor:start;white-space:normal;shape-padding:0;shape-margin:0;inline-size:0;clip-rule:nonzero;display:inline;overflow:visible;visibility:visible;opacity:1;isolation:auto;mix-blend-mode:normal;color-interpolation:sRGB;color-interpolation-filters:linearRGB;solid-color:#000000;solid-opacity:1;vector-effect:none;fill:#244a38;fill-opacity:1;fill-rule:nonzero;stroke:none;stroke-width:0.5;stroke-linecap:butt;stroke-linejoin:miter;stroke-miterlimit:4;stroke-dasharray:none;stroke-dashoffset:0;stroke-opacity:1;color-rendering:auto;image-rendering:auto;shape-rendering:auto;text-rendering:auto;enable-background:accumulate;stop-color:#000000;stop-opacity:1" />
    <path d="m 16.947128,10.490746 c -3.290636,0 -5.939721,2.669764 -5.939721,5.972974 v 59.523598 c 0,3.293173 2.646548,5.939719 5.939721,5.939719 H 164.64251 c 3.29318,0 5.93972,-2.646544 5.93972,-5.939719 V 16.46372 c 0,-3.303212 -2.64908,-5.972974 -5.93972,-5.972974 z" style="color:#000000;font-style:normal;font-variant:normal;font-weight:normal;font-stretch:normal;font-size:medium;line-height:normal;font-family:sans-serif;font-variant-ligatures:normal;font-variant-position:normal;font-variant-caps:normal;font-variant-numeric:normal;font-variant-alternates:normal;font-variant-east-asian:normal;font-feature-settings:normal;font-variation-settings:normal;text-indent:0;text-align:start;text-decoration:none;text-decoration-line:none;text-decoration-style:solid;text-decoration-color:#000000;letter-spacing:normal;word-spacing:normal;text-transform:none;writing-mode:lr-tb;direction:ltr;text-orientation:mixed;dominant-baseline:auto;baseline-shift:baseline;text-anchor:start;white-space:normal;shape-padding:0;shape-margin:0;inline-size:0;clip-rule:nonzero;display:inline;overflow:visible;visibility:visible;opacity:1;isolation:auto;mix-blend-mode:normal;color-interpolation:sRGB;color-interpolation-filters:linearRGB;solid-color:#000000;solid-opacity:1;vector-effect:none;fill:#244a38;fill-opacity:1;fill-rule:nonzero;stroke:none;stroke-width:3.18896;stroke-linecap:butt;stroke-linejoin:miter;stroke-miterlimit:4;stroke-dasharray:none;stroke-dashoffset:0;stroke-opacity:1;color-rendering:auto;image-rendering:auto;shape-rendering:auto;text-rendering:auto;enable-background:accumulate;stop-color:#000000;stop-opacity:1" id="path11374" />
    <path id="path1453" d="m 122.30134,64.014044 h -2.49629 v -6.448102 c 0,-0.462613 -0.1702,-0.861171 -0.5043,-1.195675 -0.3278,-0.341621 -0.71548,-0.512432 -1.15989,-0.512432 -0.44757,0 -0.81949,0.177927 -1.12207,0.526666 -0.30258,0.341622 -0.45387,0.736622 -0.45387,1.181441 v 6.448102 h -2.44586 v -6.505039 c 0,-0.427027 -0.14498,-0.804234 -0.42865,-1.138738 -0.28682,-0.341621 -0.66505,-0.512432 -1.13468,-0.512432 -0.47278,0 -0.87622,0.163693 -1.21032,0.483964 -0.32779,0.323828 -0.49169,0.711711 -0.49169,1.167206 v 6.505039 H 108.307 V 53.252973 h 2.54672 v 0.669008 c 0.74699,-0.5409 1.54442,-0.811351 2.39543,-0.811351 1.05903,0 1.89428,0.419909 2.50889,1.252612 0.88252,-0.814909 1.82809,-1.224143 2.83669,-1.224143 1.0149,0 1.88482,0.348738 2.60975,1.039098 0.73124,0.693919 1.09686,1.530178 1.09686,2.505223 z m 0,0" style="opacity:1;fill:#ffffff;fill-opacity:1;stroke:none;stroke-width:0.857357" />
    <g transform="matrix(2.0180511,0,0,2.9119072,53.621244,63.306545)" style="opacity:1;fill:#ffffff;fill-opacity:1" id="use3109">
      <path style="fill:#ffffff;stroke:none" d="M 4.234375,-8.03125 C 4.828125,-8.175781 5.5625,-8.25 6.4375,-8.25 7.832031,-8.25 8.941406,-7.832031 9.765625,-7 10.585938,-6.164063 11,-5.171875 11,-4.015625 c 0,1.15625 -0.429687,2.136719 -1.28125,2.9375 C 8.863281,-0.273438 7.738281,0.125 6.34375,0.125 c -1.917969,0 -3.585937,-0.425781 -5,-1.28125 L 2.671875,-3.1875 c 0.957031,0.625 2.128906,0.9375 3.515625,0.9375 0.851563,0 1.472656,-0.15625 1.859375,-0.46875 0.394531,-0.320313 0.59375,-0.773438 0.59375,-1.359375 0,-0.59375 -0.210937,-1.039063 -0.625,-1.34375 C 7.597656,-5.722656 7,-5.875 6.21875,-5.875 c -0.773437,0 -1.515625,0.152344 -2.234375,0.453125 L 1.5625,-6.375 2.078125,-12.015625 H 9.9375 v 2.40625 H 4.46875 Z m 0,0" id="path14357" />
    </g>
    <g transform="matrix(2.0180511,0,0,2.9119072,78.611896,63.306545)" style="opacity:1;fill:#ffffff;fill-opacity:1" id="use3113">
      <path style="fill:#ffffff;stroke:none" d="m 6.296875,-12.140625 c 1.425781,0 2.613281,0.554687 3.5625,1.65625 0.945313,1.105469 1.421875,2.601562 1.421875,4.484375 0,1.875 -0.449219,3.367187 -1.34375,4.46875 C 9.039063,-0.425781 7.8125,0.125 6.25,0.125 4.695313,0.125 3.46875,-0.414063 2.5625,-1.5 1.65625,-2.59375 1.203125,-4.082031 1.203125,-5.96875 c 0,-1.894531 0.453125,-3.394531 1.359375,-4.5 0.90625,-1.113281 2.148438,-1.671875 3.734375,-1.671875 z M 6.40625,-2.25 c 0.75,0 1.359375,-0.347656 1.828125,-1.046875 C 8.703125,-4.003906 8.9375,-4.957031 8.9375,-6.15625 8.9375,-7.351563 8.722656,-8.253906 8.296875,-8.859375 7.867188,-9.472656 7.191406,-9.78125 6.265625,-9.78125 c -1.804687,0 -2.703125,1.273437 -2.703125,3.8125 0,1.199219 0.242188,2.121094 0.734375,2.765625 C 4.785156,-2.566406 5.488281,-2.25 6.40625,-2.25 Z m 0,0" id="path14353" />
    </g>
  </g>
</svg>
