<?xml version="1.0" encoding="UTF-8"?>
<svg xmlns="http://www.w3.org/2000/svg" xmlns:ns1="http://sodipodi.sourceforge.net/DTD/sodipodi-0.dtd" viewBox="0 0 118.85403 60.489159" height="60.489159" width="118.85403" id="svg6042" version="1.1">
  <defs id="defs6046" />
  <ns1:namedview showgrid="false" id="namedview6044" guidetolerance="10" gridtolerance="10" objecttolerance="10" borderopacity="1" bordercolor="#666666" pagecolor="#ffffff" />
  <g transform="translate(4.9832036,15.733504)" id="g6050">
    <path id="path81" d="M 103.54859,-14.189391 H 5.3397664 c -4.86312,0 -8.77816,3.91506 -8.77816,8.7781707 V 34.434429 c 0,4.863111 3.91504,8.778169 8.77816,8.778169 H 103.54859 c 4.8631,0 8.77816,-3.915058 8.77816,-8.778169 V -5.4112203 c 0,-4.8631107 -3.91506,-8.7781707 -8.77816,-8.7781707 z" style="color:#000000;font-style:normal;font-variant:normal;font-weight:normal;font-stretch:normal;font-size:medium;line-height:normal;font-family:sans-serif;font-variant-ligatures:normal;font-variant-position:normal;font-variant-caps:normal;font-variant-numeric:normal;font-variant-alternates:normal;font-variant-east-asian:normal;font-feature-settings:normal;font-variation-settings:normal;text-indent:0;text-align:start;text-decoration:none;text-decoration-line:none;text-decoration-style:solid;text-decoration-color:#000000;letter-spacing:normal;word-spacing:normal;text-transform:none;writing-mode:lr-tb;direction:ltr;text-orientation:mixed;dominant-baseline:auto;baseline-shift:baseline;text-anchor:start;white-space:normal;shape-padding:0;shape-margin:0;inline-size:0;clip-rule:nonzero;display:inline;overflow:visible;visibility:visible;opacity:1;isolation:auto;mix-blend-mode:normal;color-interpolation:sRGB;color-interpolation-filters:linearRGB;solid-color:#000000;solid-opacity:1;vector-effect:none;fill:#ffffff;fill-opacity:1;fill-rule:nonzero;stroke:none;stroke-width:2.58814;stroke-linecap:butt;stroke-linejoin:miter;stroke-miterlimit:4;stroke-dasharray:none;stroke-dashoffset:0;stroke-opacity:1;color-rendering:auto;image-rendering:auto;shape-rendering:auto;text-rendering:auto;enable-background:accumulate;stop-color:#000000;stop-opacity:1" />
    <path id="path83" d="m 103.54937,-15.483504 c 5.55764,0 10.07145,4.513801 10.07145,10.0714477 V 34.434202 c 0,5.557643 -4.51381,10.071452 -10.07145,10.071452 H 5.3404064 c -5.55764,0 -10.07361,-4.513809 -10.07361,-10.071452 V -5.4120563 c 0,-5.5576467 4.51597,-10.0714477 10.07361,-10.0714477 z m 0,2.588324 H 5.3404064 c -4.16858,0 -7.48526,3.3145391 -7.48529,7.4831237 V 34.434202 c 0,4.168573 3.31671,7.485274 7.48529,7.485289 H 103.54937 c 4.16858,0 7.48313,-3.316716 7.48313,-7.485289 V -5.4120563 c 0,-4.1685846 -3.31455,-7.4831237 -7.48313,-7.4831237 z" style="color:#000000;font-style:normal;font-variant:normal;font-weight:normal;font-stretch:normal;font-size:medium;line-height:normal;font-family:sans-serif;font-variant-ligatures:normal;font-variant-position:normal;font-variant-caps:normal;font-variant-numeric:normal;font-variant-alternates:normal;font-variant-east-asian:normal;font-feature-settings:normal;font-variation-settings:normal;text-indent:0;text-align:start;text-decoration:none;text-decoration-line:none;text-decoration-style:solid;text-decoration-color:#000000;letter-spacing:normal;word-spacing:normal;text-transform:none;writing-mode:lr-tb;direction:ltr;text-orientation:mixed;dominant-baseline:auto;baseline-shift:baseline;text-anchor:start;white-space:normal;shape-padding:0;shape-margin:0;inline-size:0;clip-rule:nonzero;display:inline;overflow:visible;visibility:visible;opacity:1;isolation:auto;mix-blend-mode:normal;color-interpolation:sRGB;color-interpolation-filters:linearRGB;solid-color:#000000;solid-opacity:1;vector-effect:none;fill:#253898;fill-opacity:1;fill-rule:nonzero;stroke:none;stroke-width:0.5;stroke-linecap:butt;stroke-linejoin:miter;stroke-miterlimit:4;stroke-dasharray:none;stroke-dashoffset:0;stroke-opacity:1;color-rendering:auto;image-rendering:auto;shape-rendering:auto;text-rendering:auto;enable-background:accumulate;stop-color:#000000;stop-opacity:1" />
    <path d="m 103.55391,-10.250808 c 2.6707,0 4.82169,2.1663031 4.82169,4.8473137 V 34.438461 c 0,2.67286 -2.14884,4.821699 -4.82169,4.821699 H 5.3315964 c -2.67286,0 -4.82168,-2.148839 -4.82168,-4.821699 V -5.4034943 c 0,-2.6810106 2.15097,-4.8473137 4.82168,-4.8473137 z" style="color:#000000;font-style:normal;font-variant:normal;font-weight:normal;font-stretch:normal;font-size:medium;line-height:normal;font-family:sans-serif;font-variant-ligatures:normal;font-variant-position:normal;font-variant-caps:normal;font-variant-numeric:normal;font-variant-alternates:normal;font-variant-east-asian:normal;font-feature-settings:normal;font-variation-settings:normal;text-indent:0;text-align:start;text-decoration:none;text-decoration-line:none;text-decoration-style:solid;text-decoration-color:#000000;letter-spacing:normal;word-spacing:normal;text-transform:none;writing-mode:lr-tb;direction:ltr;text-orientation:mixed;dominant-baseline:auto;baseline-shift:baseline;text-anchor:start;white-space:normal;shape-padding:0;shape-margin:0;inline-size:0;clip-rule:nonzero;display:inline;overflow:visible;visibility:visible;opacity:1;isolation:auto;mix-blend-mode:normal;color-interpolation:sRGB;color-interpolation-filters:linearRGB;solid-color:#000000;solid-opacity:1;vector-effect:none;fill:#253898;fill-opacity:1;fill-rule:nonzero;stroke:none;stroke-width:2.58814;stroke-linecap:butt;stroke-linejoin:miter;stroke-miterlimit:4;stroke-dasharray:none;stroke-dashoffset:0;stroke-opacity:1;color-rendering:auto;image-rendering:auto;shape-rendering:auto;text-rendering:auto;enable-background:accumulate;stop-color:#000000;stop-opacity:1" id="path75" />
    <path id="rect6457" style="opacity:1;fill:#ffffff;stroke-width:0.348917" d="m 34.289088,10.931559 -12.064926,-0.617957 -0.05015,0.0093 13.14129,13.336254 -6.08612,5.997146 L 16.19121,16.424894 16.11231,28.842665 6.4636864,19.050899 5.9867264,0.31914165 24.6405,1.1398207 Z" />
    <g transform="matrix(2.3757055,0,0,2.3757055,-177.76222,-358.10501)" style="fill:#ffffff;fill-opacity:1" id="g3913">
      <g style="fill:#ffffff" transform="translate(93.599998,142.44)" id="use3911">
        <path id="path6128" d="m 2.34375,15.991458 v 0.59375 H 1.0625 V 11.710209 H 4.46875 V 9.7414592 h 1.203125 c 0.1875,0 0.28125,0.03125 0.28125,0.09375 0,0.0625 -0.015625,0.132812 -0.046875,0.2031248 -0.023437,0.07422 -0.042969,0.183594 -0.0625,0.328125 -0.023437,0.136719 -0.03125,0.246094 -0.03125,0.328125 v 1.015625 h 3.578125 v 4.749999 H 8 v -0.46875 H 5.8125 v 3.484374 H 4.46875 v -3.484374 z m 2.125,-3.187499 h -2.125 v 2.140624 h 2.125 z M 8,14.944583 V 12.803959 H 5.8125 v 2.140624 z m 0,0" style="fill:#ffffff;stroke:none" />
      </g>
    </g>
    <g transform="matrix(2.3757055,0,0,2.3757055,-169.06212,-358.10501)" style="fill:#ffffff;fill-opacity:1" id="g3917">
      <g style="fill:#ffffff" transform="translate(103.95795,142.44)" id="use3915">
        <path id="path6124" d="m 1.765625,11.413334 h -1.3125 v -1.15625 H 4.3125 v 1.15625 H 3.140625 v 1.75 H 4.28125 v 1.124999 H 3.140625 v 1.546875 c 0.351563,-0.164063 0.738281,-0.363281 1.15625,-0.59375 0.019531,0.375 0.066406,0.710937 0.140625,1 0.84375,-1 1.53125,-2.519531 2.0625,-4.562499 H 4.4375 v -1.203125 h 5.453125 v 1.203125 H 7.875 c -0.125,0.53125 -0.273437,1.039062 -0.4375,1.515625 v 0.859374 l 0.953125,-0.484375 c 0.550781,0.960937 1.117188,2.085937 1.703125,3.375 L 8.8125,17.600832 C 8.414063,16.425052 7.957031,15.389895 7.4375,14.491458 v 4.968749 H 6.09375 V 16.100833 C 5.632813,16.84302 5.101563,17.553958 4.5,18.241457 4.195313,17.960207 3.796875,17.675051 3.296875,17.382083 3.585938,17.143802 3.875,16.87427 4.15625,16.569583 3.144531,17.163333 2.113281,17.792238 1.0625,18.460207 L 0.34375,17.007083 C 0.757813,16.862552 1.234375,16.678958 1.765625,16.460208 V 14.288333 H 0.5625 v -1.124999 h 1.203125 z m 0,0" style="fill:#ffffff;stroke:none" />
      </g>
    </g>
  </g>
</svg>
