<?xml version="1.0" encoding="UTF-8"?>
<svg xmlns="http://www.w3.org/2000/svg" xmlns:ns1="http://sodipodi.sourceforge.net/DTD/sodipodi-0.dtd" viewBox="0 0 139.59364 119.59145" height="119.59145" width="139.59364" id="svg1285" version="1.1">
  <defs id="defs1289" />
  <ns1:namedview showgrid="false" id="namedview1287" guidetolerance="10" gridtolerance="10" objecttolerance="10" borderopacity="1" bordercolor="#666666" pagecolor="#ffffff" />
  <g transform="translate(-5.4416842,-3.6832656)" id="g1293">
    <path style="color:#000000;font-style:normal;font-variant:normal;font-weight:normal;font-stretch:normal;font-size:medium;line-height:normal;font-family:sans-serif;font-variant-ligatures:normal;font-variant-position:normal;font-variant-caps:normal;font-variant-numeric:normal;font-variant-alternates:normal;font-variant-east-asian:normal;font-feature-settings:normal;font-variation-settings:normal;text-indent:0;text-align:start;text-decoration:none;text-decoration-line:none;text-decoration-style:solid;text-decoration-color:#000000;letter-spacing:normal;word-spacing:normal;text-transform:none;writing-mode:lr-tb;direction:ltr;text-orientation:mixed;dominant-baseline:auto;baseline-shift:baseline;text-anchor:start;white-space:normal;shape-padding:0;shape-margin:0;inline-size:0;clip-rule:nonzero;display:inline;overflow:visible;visibility:visible;opacity:1;isolation:auto;mix-blend-mode:normal;color-interpolation:sRGB;color-interpolation-filters:linearRGB;solid-color:#000000;solid-opacity:1;vector-effect:none;fill:#ffffff;fill-opacity:1;fill-rule:nonzero;stroke:none;stroke-width:2.6438;stroke-linecap:butt;stroke-linejoin:miter;stroke-miterlimit:4;stroke-dasharray:none;stroke-dashoffset:0;stroke-opacity:1;color-rendering:auto;image-rendering:auto;shape-rendering:auto;text-rendering:auto;enable-background:accumulate;stop-color:#000000;stop-opacity:1" d="M 15.980526,5.2552064 H 134.49577 c 4.96768,0 8.96693,3.9992477 8.96693,8.9669416 v 98.514772 c 0,4.96769 -3.99925,8.96693 -8.96693,8.96693 H 15.980526 c -4.967695,0 -8.9669431,-3.99924 -8.9669431,-8.96693 V 14.222148 c 0,-4.9676939 3.9992481,-8.9669416 8.9669431,-8.9669416 z" id="path81" />
    <path style="color:#000000;font-style:normal;font-variant:normal;font-weight:normal;font-stretch:normal;font-size:medium;line-height:normal;font-family:sans-serif;font-variant-ligatures:normal;font-variant-position:normal;font-variant-caps:normal;font-variant-numeric:normal;font-variant-alternates:normal;font-variant-east-asian:normal;font-feature-settings:normal;font-variation-settings:normal;text-indent:0;text-align:start;text-decoration:none;text-decoration-line:none;text-decoration-style:solid;text-decoration-color:#000000;letter-spacing:normal;word-spacing:normal;text-transform:none;writing-mode:lr-tb;direction:ltr;text-orientation:mixed;dominant-baseline:auto;baseline-shift:baseline;text-anchor:start;white-space:normal;shape-padding:0;shape-margin:0;inline-size:0;clip-rule:nonzero;display:inline;overflow:visible;visibility:visible;opacity:1;isolation:auto;mix-blend-mode:normal;color-interpolation:sRGB;color-interpolation-filters:linearRGB;solid-color:#000000;solid-opacity:1;vector-effect:none;fill:#245041;fill-opacity:1;fill-rule:nonzero;stroke:none;stroke-width:0.5;stroke-linecap:butt;stroke-linejoin:miter;stroke-miterlimit:4;stroke-dasharray:none;stroke-dashoffset:0;stroke-opacity:1;color-rendering:auto;image-rendering:auto;shape-rendering:auto;text-rendering:auto;enable-background:accumulate;stop-color:#000000;stop-opacity:1" d="m 15.979711,3.9332656 c -5.677153,0 -10.2880268,4.6108596 -10.2880268,10.2880264 v 98.515398 c 0,5.67715 4.6108738,10.28803 10.2880268,10.28803 H 134.49511 c 5.67715,0 10.29022,-4.61088 10.29022,-10.28803 V 14.221292 c 0,-5.6771668 -4.61307,-10.2880264 -10.29022,-10.2880264 z m 0,2.6439799 H 134.49511 c 4.25822,0 7.64622,3.385824 7.64623,7.6440465 v 98.515398 c 0,4.25822 -3.38801,7.64623 -7.64623,7.64623 H 15.979711 c -4.258209,0 -7.6440469,-3.38801 -7.6440469,-7.64623 V 14.221292 c 0,-4.2582225 3.3858379,-7.6440465 7.6440469,-7.6440465 z" id="path83" />
    <path d="m 15.974609,9.2792969 c -2.728133,0 -4.925781,2.2125061 -4.925781,4.9511721 V 62.578125 H 139.42969 V 14.230469 c 0,-2.738666 -2.19765,-4.9511721 -4.92578,-4.9511721 z M 11.048828,65.28125 v 47.45898 c 0,2.73034 2.195458,4.92579 4.925781,4.92579 H 134.50391 c 2.73032,0 4.92578,-2.19545 4.92578,-4.92579 V 65.28125 Z" style="color:#000000;font-style:normal;font-variant:normal;font-weight:normal;font-stretch:normal;font-size:medium;line-height:normal;font-family:sans-serif;font-variant-ligatures:normal;font-variant-position:normal;font-variant-caps:normal;font-variant-numeric:normal;font-variant-alternates:normal;font-variant-east-asian:normal;font-feature-settings:normal;font-variation-settings:normal;text-indent:0;text-align:start;text-decoration:none;text-decoration-line:none;text-decoration-style:solid;text-decoration-color:#000000;letter-spacing:normal;word-spacing:normal;text-transform:none;writing-mode:lr-tb;direction:ltr;text-orientation:mixed;dominant-baseline:auto;baseline-shift:baseline;text-anchor:start;white-space:normal;shape-padding:0;shape-margin:0;inline-size:0;clip-rule:nonzero;display:inline;overflow:visible;visibility:visible;opacity:1;isolation:auto;mix-blend-mode:normal;color-interpolation:sRGB;color-interpolation-filters:linearRGB;solid-color:#000000;solid-opacity:1;vector-effect:none;fill:#245041;fill-opacity:1;fill-rule:nonzero;stroke:none;stroke-width:2.6438;stroke-linecap:butt;stroke-linejoin:miter;stroke-miterlimit:4;stroke-dasharray:none;stroke-dashoffset:0;stroke-opacity:1;color-rendering:auto;image-rendering:auto;shape-rendering:auto;text-rendering:auto;enable-background:accumulate;stop-color:#000000;stop-opacity:1" id="path75" />
    <g transform="matrix(1.292964,0,0,1.292964,-73.115739,-71.017376)" style="opacity:1;fill:#ffffff;fill-opacity:1" id="g3047">
      <g style="fill:#ffffff" id="use3045" transform="translate(72,90.600006)">
        <path id="path3344" d="m 5.34375,-11.203125 h -4.0625 v -2.09375 h 4.0625 V -15.25 H 7.4375 c 0.394531,0 0.59375,0.07813 0.59375,0.234375 0,0.15625 -0.039062,0.324219 -0.109375,0.5 -0.074219,0.167969 -0.109375,0.574219 -0.109375,1.21875 h 4.21875 v -1.984375 h 2.015625 c 0.46875,0 0.703125,0.125 0.703125,0.375 0,0.08594 -0.02344,0.179687 -0.0625,0.28125 -0.09375,0.230469 -0.140625,0.671875 -0.140625,1.328125 h 4.375 v 2.09375 h -4.375 V -9.5 H 12.03125 v -1.703125 H 7.8125 V -9.53125 H 5.34375 Z m 10,7.640625 -0.265625,3.71875 c -0.05469,0.789063 -0.199219,1.378906 -0.4375,1.765625 C 14.410156,2.304688 13.988281,2.597656 13.375,2.796875 12.757813,3.003906 11.785156,3.175781 10.453125,3.3125 10.359375,2.113281 10.050781,1.128906 9.53125,0.359375 c 1,0.1875 1.671875,0.28125 2.015625,0.28125 0.34375,0 0.585938,-0.085937 0.734375,-0.25 0.15625,-0.15625 0.253906,-0.546875 0.296875,-1.171875 l 0.34375,-5.25 H 10.5625 C 10.25,-3.675781 9.601563,-1.734375 8.625,-0.203125 7.644531,1.316406 6.210938,2.578125 4.328125,3.578125 3.628906,2.898438 2.804688,2.300781 1.859375,1.78125 5.628906,0.375 7.675781,-2.226563 8,-6.03125 H 2.828125 v -2.125 H 8.1875 c 0.050781,-0.957031 0.078125,-1.710938 0.078125,-2.265625 0.707031,-0.0078 1.316406,0 1.828125,0.03125 0.507813,0.02344 0.816406,0.05469 0.921875,0.09375 0.101563,0.04297 0.15625,0.117187 0.15625,0.21875 0,0.09375 -0.05469,0.246094 -0.15625,0.453125 -0.09375,0.210937 -0.183594,0.699219 -0.265625,1.46875 h 4.890625 l -0.21875,3.25 1.609375,-0.859375 c 0.832031,1.28125 1.6875,2.734375 2.5625,4.359375 L 17.1875,-0.203125 C 16.675781,-1.285156 16.0625,-2.40625 15.34375,-3.5625 Z M 3.75,-5.484375 c 1.695313,0.480469 2.546875,0.859375 2.546875,1.140625 0,0.105469 -0.117187,0.25 -0.34375,0.4375 -0.21875,0.1875 -0.480469,0.5625 -0.78125,1.125 -0.554687,1.011719 -1.304687,1.96875 -2.25,2.875 -0.75,-0.550781 -1.460937,-0.96875 -2.125,-1.25 C 2.210938,-2.5 3.195313,-3.941406 3.75,-5.484375 Z m 0,0" style="fill:#ffffff;stroke:none" />
      </g>
    </g>
    <g transform="matrix(1.292964,0,0,1.292964,-73.115739,-71.017376)" style="opacity:1;fill:#ffffff;fill-opacity:1" id="g3051">
      <g style="fill:#ffffff" id="use3049" transform="translate(92.038124,90.600006)">
        <path id="path3348" d="m 8.4706355,-9.375 v 3.0625 c 0,2.273437 -0.351562,4.15625 -1.046875,5.65625 -0.6875,1.488281 -1.765625,2.847656 -3.234375,4.078125 -0.648437,-0.5 -1.390625,-0.984375 -2.2343751,-1.453125 1.3320311,-0.75 2.3671881,-1.8710937 3.1093751,-3.359375 0.738281,-1.5 1.109375,-3.191406 1.109375,-5.078125 v -8.5 h 2.0625 c 0.320313,0 0.484375,0.07031 0.484375,0.203125 0,0.125 -0.03125,0.265625 -0.09375,0.421875 -0.105469,0.292969 -0.15625,1.105469 -0.15625,2.4375 v 1.8125 L 10.361261,-10.5 c 0.351562,1.59375 0.671876,3.335937 0.953127,5.21875 v -9.28125 h 2.0625 c 0.207031,0 0.34375,0.01563 0.40625,0.04687 0.0625,0.03125 0.09375,0.08594 0.09375,0.15625 0,0.07422 -0.02344,0.1875 -0.0625,0.34375 -0.136719,0.449219 -0.203125,1.074219 -0.203125,1.875 v 1.9375 l 1.75,-0.40625 c 0.457031,1.5 0.890625,3.261719 1.296875,5.28125 v -9.78125 h 2.140625 c 0.195313,0 0.328125,0.02344 0.390625,0.0625 0.07031,0.03125 0.109375,0.08984 0.109375,0.171875 0,0.07422 -0.02344,0.179687 -0.0625,0.3125 -0.09375,0.28125 -0.140625,0.761719 -0.140625,1.4375 V 3.1875 h -2.4375 v -7.515625 l -2.046875,0.484375 c -0.304687,-2.0625 -0.636719,-3.769531 -1,-5.125 V 2.828125 h -2.296875 v -7.25 L 9.3456355,-4.03125 c -0.28125,-2.207031 -0.574219,-3.988281 -0.875,-5.34375 z M 5.7362605,-10.5 c -0.105469,2.773437 -0.421875,5.039062 -0.953125,6.796875 l -2.3125,-0.4375 c 0.601563,-1.820313 0.945313,-4 1.03125,-6.53125 z m 0,0" style="fill:#ffffff;stroke:none" />
      </g>
    </g>
    <g transform="matrix(1.292964,0,0,1.292964,-73.115739,-71.017376)" style="opacity:1;fill:#ffffff;fill-opacity:1" id="g3055">
      <g style="fill:#ffffff" id="use3053" transform="translate(112.07626,90.600006)">
        <path id="path3352" d="m 18.527306,-14.203125 2.0625,-0.984375 c 0.539063,0.71875 1.054688,1.539062 1.546875,2.453125 L 20.402306,-12 h 2.203125 v 2.140625 h -4.0625 c 0,1.1875 0.132813,2.703125 0.40625,4.546875 0.445313,-1.113281 0.828125,-2.347656 1.140625,-3.703125 0.613281,0.21875 1.175781,0.429687 1.6875,0.625 0.507813,0.199219 0.796875,0.324219 0.859375,0.375 0.0625,0.054687 0.09375,0.132812 0.09375,0.234375 0,0.105469 -0.07422,0.242187 -0.21875,0.40625 -0.40625,0.480469 -0.828125,1.234375 -1.265625,2.265625 -0.429687,1.03125 -0.953125,2.0625 -1.578125,3.09375 0.53125,1.335937 0.851563,2 0.96875,2 0.113281,0 0.191406,-0.171875 0.234375,-0.515625 0.03906,-0.351563 0.06641,-0.90625 0.07813,-1.65625 0.8125,0.574219 1.554688,0.929687 2.234375,1.0625 -0.199219,1.5 -0.492187,2.625 -0.875,3.375 -0.386719,0.757813 -0.835937,1.140625 -1.34375,1.140625 -0.511719,0 -1.023437,-0.28125 -1.53125,-0.84375 -0.5,-0.554687 -0.96875,-1.304687 -1.40625,-2.25 -0.742187,0.875 -1.640625,1.738281 -2.703125,2.59375 -0.687505,-0.636719 -1.32813,-1.105469 -1.92188,-1.40625 1.539063,-1.074219 2.804688,-2.285156 3.796875,-3.640625 -0.542969,-2.21875 -0.882812,-4.785156 -1.015625,-7.703125 h -3.515627 v 1.75 h 3.265627 l -0.1875,6.0625 c -0.02344,0.523437 -0.109375,0.9375 -0.265625,1.25 -0.148437,0.304687 -0.429687,0.5625 -0.84375,0.78125 C 14.218712,0.191406 13.605431,0.363281 12.792928,0.5 12.675742,-0.207031 12.49996,-0.804688 12.261679,-1.296875 11.937459,0.335938 11.214802,1.957031 10.089803,3.5625 9.3788653,3.082031 8.6444903,2.648438 7.8866773,2.265625 9.0312083,0.878906 9.7382403,-0.46875 10.011677,-1.78125 8.2616773,-1.007813 6.6523023,-0.234375 5.1835523,0.546875 l -1.0781251,-2.59375 c 0.8945311,-0.226563 1.6132811,-0.425781 2.1562501,-0.59375 V -7.6875 h -1.9375 v -2.25 h 1.9375 v -4.890625 h 2.0625 c 0.226563,0 0.378906,0.02344 0.453125,0.0625 0.070313,0.04297 0.109375,0.109375 0.109375,0.203125 0,0.09375 -0.046875,0.28125 -0.140625,0.5625 -0.09375,0.28125 -0.140625,0.761719 -0.140625,1.4375 v 2.625 h 1.5312507 v 2.25 H 8.6054273 v 4.21875 c 0.6875,-0.257813 1.148438,-0.445313 1.390625,-0.5625 0.03125,0.992187 0.0625,1.625 0.09375,1.90625 0.144531,-0.726563 0.21875,-1.679688 0.21875,-2.859375 V -12 h 5.765628 l -0.09375,-3.390625 c 0.5625,-0.01953 1.109375,-0.03125 1.640625,-0.03125 0.53125,0 0.851563,0.01563 0.96875,0.04687 0.113281,0.03125 0.171875,0.08984 0.171875,0.171875 0,0.08594 -0.03906,0.179687 -0.109375,0.28125 -0.07422,0.105469 -0.117187,0.34375 -0.125,0.71875 z M 19.839806,-12 c -0.398437,-0.75 -0.835937,-1.441406 -1.3125,-2.078125 0,0.730469 -0.01172,1.421875 -0.03125,2.078125 z m -7.171877,5.890625 c -0.01172,1.699219 -0.117187,3.105469 -0.3125,4.21875 0.207031,0.03125 0.410156,0.046875 0.609375,0.046875 0.195314,0 0.335939,-0.050781 0.421877,-0.15625 0.08203,-0.101563 0.132813,-0.335938 0.15625,-0.703125 l 0.109375,-3.40625 z m 0,0" style="fill:#ffffff;stroke:none" />
      </g>
    </g>
    <g transform="matrix(1.292964,0,0,1.292964,-73.115739,-71.017376)" style="opacity:1;fill:#ffffff;fill-opacity:1" id="g3059">
      <g style="fill:#ffffff" id="use3057" transform="translate(132.11438,90.600006)">
        <path id="path3356" d="m 10.507502,-1.640625 v 2.0625 h 13.73438 V 2.625 H 7.9450022 V -14.25 H 23.523132 v 2.21875 h -13.01563 v 10.25 c 1.675783,-0.90625 3.300783,-2.160156 4.875005,-3.765625 -1.292972,-1.226563 -2.632815,-2.367188 -4.015631,-3.421875 L 13.288753,-10.75 c 2.269535,1.898437 3.546879,2.96875 3.828129,3.21875 1.09375,-1.414063 1.925781,-2.828125 2.5,-4.234375 1.550781,0.75 2.398438,1.171875 2.546875,1.265625 0.15625,0.09375 0.234375,0.210937 0.234375,0.34375 0,0.125 -0.121094,0.261719 -0.359375,0.40625 -0.375,0.21875 -0.824219,0.742187 -1.34375,1.5625 -0.511719,0.824219 -1.074219,1.605469 -1.6875,2.34375 1.207031,1.0625 2.539063,2.308594 4,3.734375 l -2.59375,1.875 c -1.054687,-1.300781 -2.140625,-2.5 -3.265625,-3.59375 -1.542969,1.511719 -3.062503,2.804687 -4.562502,3.875 -0.742189,-0.6875 -1.433598,-1.25 -2.078128,-1.6875 z m 0,0" style="fill:#ffffff;stroke:none" />
      </g>
    </g>
    <g transform="matrix(1.3872995,0,0,2.0482694,-188.33732,-84.327233)" style="opacity:1;fill:#ffffff;fill-opacity:1" id="g3063">
      <g style="fill:#ffffff" id="use3061" transform="translate(152.1525,90.600006)">
        <path id="path3360" d="M 4.234375,-8.03125 C 4.828125,-8.175781 5.5625,-8.25 6.4375,-8.25 7.832031,-8.25 8.941406,-7.832031 9.765625,-7 10.585938,-6.164063 11,-5.171875 11,-4.015625 c 0,1.15625 -0.429687,2.136719 -1.28125,2.9375 C 8.863281,-0.273438 7.738281,0.125 6.34375,0.125 c -1.917969,0 -3.585937,-0.425781 -5,-1.28125 L 2.671875,-3.1875 c 0.957031,0.625 2.128906,0.9375 3.515625,0.9375 0.851563,0 1.472656,-0.15625 1.859375,-0.46875 0.394531,-0.320313 0.59375,-0.773438 0.59375,-1.359375 0,-0.59375 -0.210937,-1.039063 -0.625,-1.34375 C 7.597656,-5.722656 7,-5.875 6.21875,-5.875 c -0.773437,0 -1.515625,0.152344 -2.234375,0.453125 L 1.5625,-6.375 2.078125,-12.015625 H 9.9375 v 2.40625 H 4.46875 Z m 0,0" style="fill:#ffffff;stroke:none" />
      </g>
    </g>
    <g transform="matrix(1.292964,0,0,1.292964,-169.21613,-20.309376)" style="opacity:1;fill:#ffffff;fill-opacity:1" id="g3067">
      <g style="fill:#ffffff" id="use3065" transform="translate(164.37576,90.600006)">
        <path id="path3364" d="m 10.0625,-11.90625 c -1.585937,2.792969 -4.125,5.246094 -7.625,7.359375 -0.5,-0.707031 -1.171875,-1.414063 -2.015625,-2.125 4.132813,-1.75 6.910156,-4.75 8.328125,-9 1.613281,0.355469 2.53125,0.574219 2.75,0.65625 0.226563,0.08594 0.34375,0.195312 0.34375,0.328125 0,0.125 -0.0625,0.230469 -0.1875,0.3125 -0.117187,0.08594 -0.21875,0.183594 -0.3125,0.296875 2.113281,3.59375 4.9375,5.820312 8.46875,6.671875 -0.773437,0.8125 -1.453125,1.65625 -2.046875,2.53125 -1.625,-0.769531 -3.117187,-1.769531 -4.46875,-3 -1.34375,-1.238281 -2.421875,-2.582031 -3.234375,-4.03125 z m -1.46875,3.5 h 2.46875 c 0.34375,0 0.515625,0.105469 0.515625,0.3125 0,0.09375 -0.02734,0.203125 -0.07813,0.328125 -0.125,0.25 -0.1875,0.726562 -0.1875,1.421875 V 3.484375 H 8.59375 Z m 0,0" style="fill:#ffffff;stroke:none" />
      </g>
    </g>
    <g transform="matrix(1.292964,0,0,1.292964,-169.21613,-20.309376)" style="opacity:1;fill:#ffffff;fill-opacity:1" id="g3071">
      <g style="fill:#ffffff" id="use3069" transform="translate(184.2135,90.600006)">
        <path id="path3368" d="m 14.453041,-6.03125 v 6.015625 l 4,-0.140625 v -4.828125 h 2.171875 c 0.445313,0 0.671875,0.121094 0.671875,0.359375 0,0.09375 -0.02734,0.214844 -0.07813,0.359375 -0.105469,0.304687 -0.15625,0.984375 -0.15625,2.046875 V 3.3125 h -2.60937 V 2.078125 L 5.359292,2.5 v -7.484375 h 2.234375 c 0.363281,0 0.546875,0.085937 0.546875,0.25 0,0.09375 -0.046875,0.246094 -0.140625,0.453125 -0.085937,0.199219 -0.125,0.601562 -0.125,1.203125 V 0.1875 l 3.968749,-0.125 V -6.03125 H 6.078042 v -7.328125 h 2.15625 c 0.414063,0 0.625,0.09375 0.625,0.28125 0,0.08594 -0.042969,0.214844 -0.125,0.390625 -0.074219,0.179687 -0.109375,0.589844 -0.109375,1.234375 V -8.1875 h 3.218749 v -7 h 2.1875 c 0.28125,0 0.46875,0.02344 0.5625,0.0625 0.09375,0.04297 0.140625,0.117187 0.140625,0.21875 0,0.09375 -0.04687,0.265625 -0.140625,0.515625 -0.09375,0.25 -0.140625,0.859375 -0.140625,1.828125 v 4.375 h 3.25 v -5.09375 h 2.109375 c 0.445313,0 0.671875,0.121094 0.671875,0.359375 0,0.09375 -0.03906,0.234375 -0.109375,0.421875 -0.0625,0.1875 -0.105469,0.417969 -0.125,0.6875 -0.01172,0.261719 -0.01563,0.695312 -0.01563,1.296875 v 4.484375 z m 0,0" style="fill:#ffffff;stroke:none" />
      </g>
    </g>
    <g transform="matrix(1.292964,0,0,1.292964,-169.21613,-20.309376)" style="opacity:1;fill:#ffffff;fill-opacity:1" id="g3075">
      <g style="fill:#ffffff" id="use3073" transform="translate(204.45201,90.600006)">
        <path id="path3372" d="M 8.609292,0.265625 V 2.125 H 6.062417 v -15 H 20.187416 V 2.046875 h -2.734375 v -1.78125 z m 8.843749,-2.15625 V -10.65625 H 8.609292 v 8.765625 z m 0,0" style="fill:#ffffff;stroke:none" />
      </g>
    </g>
  </g>
</svg>
