<?xml version="1.0" encoding="UTF-8"?>
<svg xmlns="http://www.w3.org/2000/svg" xmlns:ns1="http://sodipodi.sourceforge.net/DTD/sodipodi-0.dtd" version="1.1" id="svg20708" width="500.5" height="775.13831" viewBox="0 0 500.50001 775.1383">
  <defs id="defs20712" />
  <ns1:namedview pagecolor="#ffffff" bordercolor="#666666" borderopacity="1" objecttolerance="10" gridtolerance="10" guidetolerance="10" id="namedview20710" showgrid="false" showguides="true" />
  <g id="g20716" transform="translate(217.75423,2.285094)">
    <g id="g2076" transform="translate(-225.5142,176.79803)">
      <g transform="matrix(3.7037037,0,0,3.7037037,-461.54299,-1924.8039)" id="g3794">
        <g style="opacity:1" id="g11713">
          <path id="path11715" d="m 138.44305,472.90977 h 111.67381 c 5.63121,0 10.16463,4.53343 10.16463,10.16464 v 185.82647 c 0,5.63121 -4.53342,10.16463 -10.16463,10.16463 H 138.44305 c -5.63121,0 -10.16464,-4.53342 -10.16464,-10.16463 V 483.07441 c 0,-5.63121 4.53343,-10.16464 10.16464,-10.16464 z" style="color:#000000;font-style:normal;font-variant:normal;font-weight:normal;font-stretch:normal;font-size:medium;line-height:normal;font-family:sans-serif;font-variant-ligatures:normal;font-variant-position:normal;font-variant-caps:normal;font-variant-numeric:normal;font-variant-alternates:normal;font-variant-east-asian:normal;font-feature-settings:normal;font-variation-settings:normal;text-indent:0;text-align:start;text-decoration:none;text-decoration-line:none;text-decoration-style:solid;text-decoration-color:#000000;letter-spacing:normal;word-spacing:normal;text-transform:none;writing-mode:lr-tb;direction:ltr;text-orientation:mixed;dominant-baseline:auto;baseline-shift:baseline;text-anchor:start;white-space:normal;shape-padding:0;shape-margin:0;inline-size:0;clip-rule:nonzero;display:inline;overflow:visible;visibility:visible;isolation:auto;mix-blend-mode:normal;color-interpolation:sRGB;color-interpolation-filters:linearRGB;solid-color:#000000;solid-opacity:1;vector-effect:none;fill:#ffffff;fill-opacity:1;fill-rule:nonzero;stroke:none;stroke-width:2.99692;stroke-linecap:butt;stroke-linejoin:miter;stroke-miterlimit:4;stroke-dasharray:none;stroke-dashoffset:0;stroke-opacity:1;color-rendering:auto;image-rendering:auto;shape-rendering:auto;text-rendering:auto;enable-background:accumulate;stop-color:#000000;stop-opacity:1" />
          <path id="path11717" d="m 138.44336,471.41211 c -6.43544,0 -11.66406,5.22667 -11.66406,11.66211 v 185.82617 c 0,6.43544 5.22862,11.66406 11.66406,11.66406 h 111.67383 c 6.43543,0 11.66211,-5.22862 11.66211,-11.66406 V 483.07422 c 0,-6.43544 -5.22667,-11.66211 -11.66211,-11.66211 z m 0,2.99609 h 111.67383 c 4.82698,0 8.66601,3.83903 8.66601,8.66602 v 185.82617 c 0,4.82698 -3.83903,8.66602 -8.66601,8.66602 H 138.44336 c -4.82698,0 -8.66602,-3.83904 -8.66602,-8.66602 V 483.07422 c 0,-4.82698 3.83904,-8.66602 8.66602,-8.66602 z" style="color:#000000;font-style:normal;font-variant:normal;font-weight:normal;font-stretch:normal;font-size:medium;line-height:normal;font-family:sans-serif;font-variant-ligatures:normal;font-variant-position:normal;font-variant-caps:normal;font-variant-numeric:normal;font-variant-alternates:normal;font-variant-east-asian:normal;font-feature-settings:normal;font-variation-settings:normal;text-indent:0;text-align:start;text-decoration:none;text-decoration-line:none;text-decoration-style:solid;text-decoration-color:#000000;letter-spacing:normal;word-spacing:normal;text-transform:none;writing-mode:lr-tb;direction:ltr;text-orientation:mixed;dominant-baseline:auto;baseline-shift:baseline;text-anchor:start;white-space:normal;shape-padding:0;shape-margin:0;inline-size:0;clip-rule:nonzero;display:inline;overflow:visible;visibility:visible;isolation:auto;mix-blend-mode:normal;color-interpolation:sRGB;color-interpolation-filters:linearRGB;solid-color:#000000;solid-opacity:1;vector-effect:none;fill:#245041;fill-opacity:1;fill-rule:nonzero;stroke:none;stroke-width:0.135;stroke-linecap:butt;stroke-linejoin:miter;stroke-miterlimit:4;stroke-dasharray:none;stroke-dashoffset:0;stroke-opacity:1;color-rendering:auto;image-rendering:auto;shape-rendering:auto;text-rendering:auto;enable-background:accumulate;stop-color:#000000;stop-opacity:1" />
        </g>
        <g style="opacity:1" transform="matrix(0.93398352,0,0,0.93398352,119.29652,516.22276)" id="g11145">
          <path transform="matrix(0.28908433,0,0,0.28908433,8.0123791,-47.978844)" d="m 43.177734,22.439453 c -11.453817,0 -20.675781,9.296976 -20.675781,20.794922 V 731.45898 c 0,11.46303 9.212756,20.67383 20.675781,20.67383 H 456.83398 c 11.46303,0 20.67579,-9.2108 20.67579,-20.67383 V 43.234375 c 0,-11.497946 -9.22197,-20.794922 -20.67579,-20.794922 z" style="color:#000000;font-style:normal;font-variant:normal;font-weight:normal;font-stretch:normal;font-size:medium;line-height:normal;font-family:sans-serif;font-variant-ligatures:normal;font-variant-position:normal;font-variant-caps:normal;font-variant-numeric:normal;font-variant-alternates:normal;font-variant-east-asian:normal;font-feature-settings:normal;font-variation-settings:normal;text-indent:0;text-align:start;text-decoration:none;text-decoration-line:none;text-decoration-style:solid;text-decoration-color:#000000;letter-spacing:normal;word-spacing:normal;text-transform:none;writing-mode:lr-tb;direction:ltr;text-orientation:mixed;dominant-baseline:auto;baseline-shift:baseline;text-anchor:start;white-space:normal;shape-padding:0;shape-margin:0;inline-size:0;clip-rule:nonzero;display:inline;overflow:visible;visibility:visible;isolation:auto;mix-blend-mode:normal;color-interpolation:sRGB;color-interpolation-filters:linearRGB;solid-color:#000000;solid-opacity:1;vector-effect:none;fill:#245041;fill-opacity:1;fill-rule:nonzero;stroke:none;stroke-width:11.0997;stroke-linecap:butt;stroke-linejoin:miter;stroke-miterlimit:4;stroke-dasharray:none;stroke-dashoffset:0;stroke-opacity:1;color-rendering:auto;image-rendering:auto;shape-rendering:auto;text-rendering:auto;enable-background:accumulate;stop-color:#000000;stop-opacity:1" id="path11147" />
        </g>
      </g>
    </g>
    <path id="path21901-4" d="M 17.724227,391.28422 V 350.1107 h 20.375808 20.375911 v 41.17352 41.17342 H 38.100035 17.724227 Z m -138.658537,39.29622 c 0.0595,-0.24376 17.76884,-64.56991 39.34194,-142.94764 l 39.224095,-142.5044 11.011392,-0.0229 11.011541,-0.0229 -0.08244,0.3577 c -0.04687,0.19527 -13.956258,64.46629 -30.915513,142.82101 -16.95958,78.35487 -30.855701,142.52993 -30.880965,142.61118 -0.04726,0.14007 -1.042639,0.14609 -19.43784,0.14609 h -19.38983 z m 276.8274,0.29644 c -0.0825,-0.29072 -64.511946,-284.50714 -64.511946,-284.59937 0,-0.0704 -2.341814,-7.54324 6.144584,-7.52772 l 14.096622,-0.97183 26.43075,89.38376 c 0,0 35.23324,5.34891 41.46207,32.24161 6.35113,27.42025 -18.44008,45.63885 -18.44008,45.63885 0,0 36.6507,125.56936 36.69245,125.70886 l 0.0821,0.27412 h -20.95406 c -19.88316,0 -20.95613,-0.006 -20.99806,-0.14609 z M 20.00221,257.97678 v -18.89912 h 15.144836 15.144823 v 18.89912 18.89939 H 35.147046 20.00221 Z m 6.24354,-73.23511 v -11.2214 h 8.985658 8.985652 v 11.2214 11.2217 H 35.231408 26.24575 Z" style="fill:#ffffff;fill-opacity:1;stroke-width:0.0843719" />
    <path id="rect21918" style="fill:#808080;fill-opacity:1;fill-rule:evenodd;stroke:none;stroke-width:6.13562" d="m -143.86881,72.722554 h 359.95937 v 31.343396 c 0,0 -10.79277,18.49645 -19.891,22.91614 -8.32036,4.04182 -27.71775,1.34415 -27.71775,1.34415 0,0 -23.90041,17.84498 -38.02028,21.16246 -17.13666,4.02627 -52.753129,-2.44807 -52.753129,-2.44807 0,0 -23.973119,30.99499 -58.984798,28.17137 -29.76499,-2.40048 -64.004747,-29.52252 -64.004747,-29.52252 0,0 -31.292053,29.3535 -50.61692,28.4081 -28.733226,-1.40567 -47.970746,-33.21792 -47.970746,-33.21792 z" />
    <g style="opacity:1" id="g11137">
      <path transform="translate(-217.50182,-2.0380571)" d="m 115.14258,519.55859 c -15.01804,0 -27.218752,12.19877 -27.218752,27.2168 v 104.07617 c 0,15.01805 12.200722,27.2168 27.218752,27.2168 h 279.01367 c 15.01802,0 27.2168,-12.19876 27.2168,-27.2168 V 546.77539 c 0,-15.01802 -12.19878,-27.2168 -27.2168,-27.2168 z" style="color:#000000;font-style:normal;font-variant:normal;font-weight:normal;font-stretch:normal;font-size:medium;line-height:normal;font-family:sans-serif;font-variant-ligatures:normal;font-variant-position:normal;font-variant-caps:normal;font-variant-numeric:normal;font-variant-alternates:normal;font-variant-east-asian:normal;font-feature-settings:normal;font-variation-settings:normal;text-indent:0;text-align:start;text-decoration:none;text-decoration-line:none;text-decoration-style:solid;text-decoration-color:#000000;letter-spacing:normal;word-spacing:normal;text-transform:none;writing-mode:lr-tb;direction:ltr;text-orientation:mixed;dominant-baseline:auto;baseline-shift:baseline;text-anchor:start;white-space:normal;shape-padding:0;shape-margin:0;inline-size:0;clip-rule:nonzero;display:inline;overflow:visible;visibility:visible;isolation:auto;mix-blend-mode:normal;color-interpolation:sRGB;color-interpolation-filters:linearRGB;solid-color:#000000;solid-opacity:1;vector-effect:none;fill:#ffff00;fill-opacity:1;fill-rule:nonzero;stroke:none;stroke-width:6.99375;stroke-linecap:butt;stroke-linejoin:miter;stroke-miterlimit:4;stroke-dasharray:none;stroke-dashoffset:0;stroke-opacity:1;color-rendering:auto;image-rendering:auto;shape-rendering:auto;text-rendering:auto;enable-background:accumulate;stop-color:#000000;stop-opacity:1" id="path11139" />
    </g>
    <g aria-label="km/h" transform="matrix(2.7453839,0,0,3.428101,-225.16576,-20.328168)" id="text22561" style="font-size:15.6222px;line-height:1.25;font-family:IrisUPC;-inkscape-font-specification:'IrisUPC, Normal';fill:#000000;fill-opacity:1;stroke-width:0.390553">
      <path d="m 105.77919,191.71895 h -1.87466 l -1.49974,-3.63997 -1.03106,1.40599 v 2.23398 h -1.874665 v -9.68577 l 1.874665,-0.95295 v 5.63961 l 2.01526,-2.59328 h 2.31209 l -2.01527,2.42144 z" style="font-style:normal;font-variant:normal;font-weight:normal;font-stretch:normal;font-family:'Highway Gothic Wide';-inkscape-font-specification:'Highway Gothic Wide';fill:#000000;fill-opacity:1;stroke-width:0.390553" id="path22568" />
      <path d="m 117.88029,191.71895 h -1.87466 v -4.54606 q 0,-0.64051 -0.35931,-1.01544 -0.34369,-0.39056 -0.95296,-0.39056 -0.54677,0 -0.93733,0.40618 -0.39055,0.39055 -0.39055,0.92171 v 4.62417 h -1.79656 v -4.54606 q 0,-0.60927 -0.40617,-0.99982 -0.40618,-0.40618 -0.9842,-0.40618 -0.54678,0 -0.90609,0.39056 -0.34369,0.39055 -0.34369,0.96857 v 4.59293 h -1.87466 v -7.63926 h 1.87466 v 0.62489 q 0.59364,-0.67175 1.84342,-0.68738 1.24978,0.0469 1.95278,1.06231 0.70299,-1.04668 2.15586,-1.06231 1.43724,0.0312 2.21835,0.9842 0.78111,0.95296 0.78111,2.07775 z" style="font-style:normal;font-variant:normal;font-weight:normal;font-stretch:normal;font-family:'Highway Gothic Wide';-inkscape-font-specification:'Highway Gothic Wide';fill:#000000;fill-opacity:1;stroke-width:0.390553" id="path22570" />
      <path d="m 127.58412,181.25207 -7.21746,10.46688 h -1.76531 l 7.13935,-10.46688 z" style="font-style:normal;font-variant:normal;font-weight:normal;font-stretch:normal;font-family:'Highway Gothic Wide';-inkscape-font-specification:'Highway Gothic Wide';fill:#000000;fill-opacity:1;stroke-width:0.390553" id="path22572" />
      <path d="m 128.22805,181.95507 1.76531,-0.87484 v 3.63997 q 0.70299,-0.703 1.85904,-0.703 1.23415,0 1.99964,0.85922 0.78111,0.8436 0.79673,2.20273 v 4.6398 h -1.87466 v -4.54606 q 0,-0.60927 -0.37494,-0.99982 -0.35931,-0.39056 -0.98419,-0.39056 -0.5624,0 -0.99982,0.4218 -0.4218,0.40618 -0.4218,0.93733 v 4.57731 h -1.76531 z" style="font-style:normal;font-variant:normal;font-weight:normal;font-stretch:normal;font-family:'Highway Gothic Wide';-inkscape-font-specification:'Highway Gothic Wide';fill:#000000;fill-opacity:1;stroke-width:0.390553" id="path22574" />
    </g>
    <path id="rect21921-4" style="fill:#ffffff;fill-opacity:1;fill-rule:evenodd;stroke:none;stroke-width:6.27569" d="m -119.24053,250.76507 h 4.78171 v 34.88906 h -4.78171 z" />
    <path transform="translate(-217.50182,-2.0380571)" d="m 99.5,240.99219 v 15.93945 h 23.91016 v -15.93945 z m 0,30.4375 v 15.93945 h 23.91016 v -15.93945 z" style="fill:#ffff00;fill-opacity:1;fill-rule:evenodd;stroke:none;stroke-width:6.27569" id="rect21923-5" />
    <g aria-label="50" transform="scale(0.91191541,1.0965929)" id="text24407" style="font-size:93.7913px;line-height:1.25;font-family:IrisUPC;-inkscape-font-specification:'IrisUPC, Normal';fill:#000000;fill-opacity:1;stroke:#000000;stroke-width:2.4;stroke-miterlimit:4;stroke-dasharray:none;stroke-opacity:1">
      <path d="m -27.226513,556.75515 q 0,9.84809 -7.409513,16.31969 -7.409513,6.3778 -19.039633,6.3778 -12.661826,0 -24.198155,-7.03434 l 5.908851,-9.47292 q 8.722591,4.97093 18.289304,5.15852 7.221929,0.0938 11.442538,-3.18891 4.220608,-3.37648 4.220608,-8.25363 0.187583,-5.15852 -3.845443,-8.25364 -4.033026,-3.1889 -10.410834,-3.28269 -6.752973,0.0938 -13.505947,2.90753 l -9.754295,-2.81374 1.594452,-29.73184 h 41.92471 v 11.16116 h -31.420084 l -0.562748,9.19155 q 5.627478,-1.68824 12.099077,-1.78203 10.785999,0 17.726556,6.4716 6.940556,6.3778 6.940556,16.22589 z" style="font-style:normal;font-variant:normal;font-weight:normal;font-stretch:normal;font-family:'Highway Gothic Wide';-inkscape-font-specification:'Highway Gothic Wide';fill:#000000;fill-opacity:1;stroke:#000000;stroke-width:2.4;stroke-miterlimit:4;stroke-dasharray:none;stroke-opacity:1" id="path24409" />
      <path d="m 35.216509,546.62569 q 0,14.72523 -7.128139,23.82299 -7.034347,9.00396 -18.8520508,9.00396 -12.9431991,0 -20.2589202,-10.41083 -6.377808,-9.00396 -6.377808,-22.22854 0,-15.00661 7.128138,-23.6354 7.1281389,-8.7226 19.5085902,-8.7226 11.6301208,0 18.7582598,8.91018 7.22193,8.81638 7.22193,23.26024 z m -11.161165,0.18758 q 0,-9.94188 -3.939234,-15.56935 -3.845443,-5.62748 -10.8797908,-5.62748 -7.1281386,0 -11.1611644,5.62748 -4.0330258,5.62747 -4.0330258,15.56935 0,10.03567 4.0330258,15.75694 4.0330258,5.62748 11.1611644,5.62748 8.0660518,0 11.8177038,-7.03435 3.001321,-5.53369 3.001321,-14.35007 z" style="font-style:normal;font-variant:normal;font-weight:normal;font-stretch:normal;font-family:'Highway Gothic Wide';-inkscape-font-specification:'Highway Gothic Wide';fill:#000000;fill-opacity:1;stroke:#000000;stroke-width:2.4;stroke-miterlimit:4;stroke-dasharray:none;stroke-opacity:1" id="path24411" />
    </g>
  </g>
</svg>
