<?xml version="1.0" encoding="UTF-8"?>
<svg xmlns="http://www.w3.org/2000/svg" xmlns:ns1="http://sodipodi.sourceforge.net/DTD/sodipodi-0.dtd" viewBox="0 0 238.69954 170.99234" height="170.99234" width="238.69954" id="svg2075" version="1.1">
  <defs id="defs2079" />
  <ns1:namedview showgrid="false" id="namedview2077" guidetolerance="10" gridtolerance="10" objecttolerance="10" borderopacity="1" bordercolor="#666666" pagecolor="#ffffff" />
  <g transform="translate(-5.37682,-2.9279254)" id="g2083">
    <path style="color:#000000;font-style:normal;font-variant:normal;font-weight:normal;font-stretch:normal;font-size:medium;line-height:normal;font-family:sans-serif;font-variant-ligatures:normal;font-variant-position:normal;font-variant-caps:normal;font-variant-numeric:normal;font-variant-alternates:normal;font-variant-east-asian:normal;font-feature-settings:normal;font-variation-settings:normal;text-indent:0;text-align:start;text-decoration:none;text-decoration-line:none;text-decoration-style:solid;text-decoration-color:#000000;letter-spacing:normal;word-spacing:normal;text-transform:none;writing-mode:lr-tb;direction:ltr;text-orientation:mixed;dominant-baseline:auto;baseline-shift:baseline;text-anchor:start;white-space:normal;shape-padding:0;shape-margin:0;inline-size:0;clip-rule:nonzero;display:inline;overflow:visible;visibility:visible;opacity:1;isolation:auto;mix-blend-mode:normal;color-interpolation:sRGB;color-interpolation-filters:linearRGB;solid-color:#000000;solid-opacity:1;vector-effect:none;fill:#ffffff;fill-opacity:1;fill-rule:nonzero;stroke:none;stroke-width:2.06754;stroke-linecap:butt;stroke-linejoin:miter;stroke-miterlimit:4;stroke-dasharray:none;stroke-dashoffset:0;stroke-opacity:1;color-rendering:auto;image-rendering:auto;shape-rendering:auto;text-rendering:auto;enable-background:accumulate;stop-color:#000000;stop-opacity:1" d="M 13.673054,4.2117313 H 235.77955 c 3.88492,0 7.01248,3.1275565 7.01248,7.0124667 V 165.62484 c 0,3.88491 -3.12756,7.01247 -7.01248,7.01247 H 13.673054 c -3.884898,0 -7.012467,-3.12756 -7.012467,-7.01247 V 11.224198 c 0,-3.8849102 3.127569,-7.0124667 7.012467,-7.0124667 z" id="path81" />
    <path style="color:#000000;font-style:normal;font-variant:normal;font-weight:normal;font-stretch:normal;font-size:medium;line-height:normal;font-family:sans-serif;font-variant-ligatures:normal;font-variant-position:normal;font-variant-caps:normal;font-variant-numeric:normal;font-variant-alternates:normal;font-variant-east-asian:normal;font-feature-settings:normal;font-variation-settings:normal;text-indent:0;text-align:start;text-decoration:none;text-decoration-line:none;text-decoration-style:solid;text-decoration-color:#000000;letter-spacing:normal;word-spacing:normal;text-transform:none;writing-mode:lr-tb;direction:ltr;text-orientation:mixed;dominant-baseline:auto;baseline-shift:baseline;text-anchor:start;white-space:normal;shape-padding:0;shape-margin:0;inline-size:0;clip-rule:nonzero;display:inline;overflow:visible;visibility:visible;opacity:1;isolation:auto;mix-blend-mode:normal;color-interpolation:sRGB;color-interpolation-filters:linearRGB;solid-color:#000000;solid-opacity:1;vector-effect:none;fill:#204939;fill-opacity:1;fill-rule:nonzero;stroke:none;stroke-width:0.5;stroke-linecap:butt;stroke-linejoin:miter;stroke-miterlimit:4;stroke-dasharray:none;stroke-dashoffset:0;stroke-opacity:1;color-rendering:auto;image-rendering:auto;shape-rendering:auto;text-rendering:auto;enable-background:accumulate;stop-color:#000000;stop-opacity:1" d="m 13.672426,3.1779254 c -4.439738,0 -8.045606,3.6058623 -8.045606,8.0456056 V 165.62466 c 0,4.43973 3.605868,8.04561 8.045606,8.04561 H 235.77904 c 4.43973,0 8.04732,-3.60588 8.04732,-8.04561 V 11.223531 c 0,-4.4397433 -3.60759,-8.0456056 -8.04732,-8.0456056 z m 0,2.06769 H 235.77904 c 3.33008,0 5.97962,2.647829 5.97963,5.9779156 V 165.62466 c 0,3.33008 -2.64955,5.97962 -5.97963,5.97964 H 13.672426 c -3.330087,0 -5.977909,-2.64956 -5.977909,-5.97964 V 11.223531 c 0,-3.3300866 2.647822,-5.9779156 5.977909,-5.9779156 z" id="path83" />
    <path d="m 13.669085,7.3585769 c -2.133495,0 -3.85208,1.7292065 -3.85208,3.8709381 V 51.553551 H 239.63835 V 11.229515 c 0,-2.1417316 -1.71858,-3.8709381 -3.85208,-3.8709381 z M 9.817005,53.456449 V 121.68556 H 239.63835 V 53.456449 Z m 0,70.132001 v 42.03975 c 0,2.13522 1.716863,3.85208 3.85208,3.85208 H 235.78627 c 2.13522,0 3.92818,-1.71822 3.85208,-3.85208 v -42.03976 z" style="color:#000000;font-style:normal;font-variant:normal;font-weight:normal;font-stretch:normal;font-size:medium;line-height:normal;font-family:sans-serif;font-variant-ligatures:normal;font-variant-position:normal;font-variant-caps:normal;font-variant-numeric:normal;font-variant-alternates:normal;font-variant-east-asian:normal;font-feature-settings:normal;font-variation-settings:normal;text-indent:0;text-align:start;text-decoration:none;text-decoration-line:none;text-decoration-style:solid;text-decoration-color:#000000;letter-spacing:normal;word-spacing:normal;text-transform:none;writing-mode:lr-tb;direction:ltr;text-orientation:mixed;dominant-baseline:auto;baseline-shift:baseline;text-anchor:start;white-space:normal;shape-padding:0;shape-margin:0;inline-size:0;clip-rule:nonzero;display:inline;overflow:visible;visibility:visible;opacity:1;isolation:auto;mix-blend-mode:normal;color-interpolation:sRGB;color-interpolation-filters:linearRGB;solid-color:#000000;solid-opacity:1;vector-effect:none;fill:#204939;fill-opacity:1;fill-rule:nonzero;stroke:none;stroke-width:2.06754;stroke-linecap:butt;stroke-linejoin:miter;stroke-miterlimit:4;stroke-dasharray:none;stroke-dashoffset:0;stroke-opacity:1;color-rendering:auto;image-rendering:auto;shape-rendering:auto;text-rendering:auto;enable-background:accumulate;stop-color:#000000;stop-opacity:1" id="path75" />
    <g transform="matrix(2.2987023,0,0,2.2987023,-350.38757,-339.85643)" style="opacity:1;fill:#ffffff;fill-opacity:1" id="g5457">
      <g style="fill:#ffffff" id="use5455" transform="translate(161.23741,164.28)">
        <path id="path5482" d="M 2.765625,-5.796875 H 0.65625 V -6.875 H 2.765625 V -7.890625 H 3.84375 c 0.207031,0 0.3125,0.042969 0.3125,0.125 0,0.085937 -0.023437,0.171875 -0.0625,0.265625 -0.03125,0.085937 -0.046875,0.292969 -0.046875,0.625 H 6.21875 v -1.03125 h 1.046875 c 0.238281,0 0.359375,0.070312 0.359375,0.203125 0,0.042969 -0.011719,0.089844 -0.03125,0.140625 -0.054687,0.117187 -0.078125,0.34375 -0.078125,0.6875 h 2.28125 v 1.078125 H 7.515625 V -4.90625 H 6.21875 V -5.796875 H 4.046875 V -4.9375 H 2.765625 Z M 7.9375,-1.84375 7.796875,0.078125 c -0.023437,0.40625 -0.09375,0.707031 -0.21875,0.90625 -0.125,0.207031 -0.351562,0.363281 -0.671875,0.46875 -0.3125,0.101563 -0.8125,0.1875 -1.5,0.25 C 5.351563,1.085938 5.195313,0.582031 4.9375,0.1875 c 0.507813,0.09375 0.851563,0.140625 1.03125,0.140625 0.175781,0 0.300781,-0.042969 0.375,-0.125 C 6.425781,0.117188 6.476563,-0.0820313 6.5,-0.40625 L 6.6875,-3.125 H 5.453125 c -0.15625,1.21875 -0.492187,2.226562 -1,3.015625 -0.5,0.789063 -1.242187,1.445313 -2.21875,1.96875 C 1.878906,1.503906 1.457031,1.191406 0.96875,0.921875 2.914063,0.191406 3.972656,-1.15625 4.140625,-3.125 h -2.6875 v -1.09375 h 2.78125 c 0.03125,-0.5 0.046875,-0.890625 0.046875,-1.171875 0.363281,0 0.675781,0.00781 0.9375,0.015625 0.257813,0.011719 0.414063,0.027344 0.46875,0.046875 0.0625,0.023437 0.09375,0.058594 0.09375,0.109375 0,0.054687 -0.027344,0.136719 -0.078125,0.25 -0.054687,0.105469 -0.101562,0.355469 -0.140625,0.75 H 8.09375 L 7.984375,-2.53125 8.8125,-2.984375 C 9.238281,-2.316406 9.675781,-1.5625 10.125,-0.71875 L 8.890625,-0.109375 C 8.628906,-0.660156 8.3125,-1.238281 7.9375,-1.84375 Z m -6,-1 c 0.875,0.25 1.3125,0.449219 1.3125,0.59375 0,0.054687 -0.058594,0.132812 -0.171875,0.234375 -0.117187,0.09375 -0.25,0.289062 -0.40625,0.578125 -0.28125,0.523437 -0.667969,1.015625 -1.15625,1.484375 -0.386719,-0.289063 -0.75,-0.503906 -1.09375,-0.640625 0.726563,-0.695313 1.234375,-1.445313 1.515625,-2.25 z m 0,0" style="fill:#ffffff;stroke:none" />
      </g>
    </g>
    <g transform="matrix(2.2987023,0,0,2.2987023,-350.38757,-339.85643)" style="opacity:1;fill:#ffffff;fill-opacity:1" id="g5461">
      <g style="fill:#ffffff" id="use5459" transform="translate(171.59537,164.28)">
        <path id="path5486" d="m 5.3035742,-4.84375 v 1.578125 c 0,1.179687 -0.179687,2.152344 -0.53125,2.921875 -0.355469,0.769531 -0.914062,1.472656 -1.671875,2.109375 -0.34375,-0.261719 -0.730469,-0.511719 -1.15625,-0.75 0.6875,-0.386719 1.21875,-0.9648437 1.59375,-1.734375 0.382813,-0.78125 0.578125,-1.65625 0.578125,-2.625 v -4.390625 h 1.078125 c 0.164063,0 0.25,0.03125 0.25,0.09375 0,0.0625 -0.023437,0.136719 -0.0625,0.21875 -0.054687,0.15625 -0.078125,0.578125 -0.078125,1.265625 v 0.9375 l 0.984375,-0.203125 c 0.175781,0.8125 0.335938,1.710937 0.484375,2.6875 V -7.53125 h 1.0625 c 0.113281,0 0.1875,0.011719 0.21875,0.03125 0.03125,0.011719 0.046875,0.039062 0.046875,0.078125 0,0.042969 -0.011719,0.101562 -0.03125,0.171875 -0.074219,0.230469 -0.109375,0.554687 -0.109375,0.96875 v 1.015625 l 0.90625,-0.21875 c 0.238281,0.78125 0.460938,1.695312 0.671875,2.734375 v -5.0625 h 1.1093748 c 0.101563,0 0.171875,0.011719 0.203125,0.03125 0.03906,0.011719 0.0625,0.039062 0.0625,0.078125 0,0.042969 -0.01172,0.101562 -0.03125,0.171875 -0.05469,0.148437 -0.07813,0.398437 -0.07813,0.75 V 1.640625 H 9.5379491 v -3.875 l -1.046875,0.25 c -0.167969,-1.0625 -0.34375,-1.945313 -0.53125,-2.65625 v 6.09375 h -1.1875 v -3.75 l -1.015625,0.21875 C 5.6082622,-3.222656 5.4598242,-4.144531 5.3035742,-4.84375 Z m -1.40625,-0.578125 c -0.054687,1.429687 -0.21875,2.59375 -0.5,3.5 l -1.1875,-0.21875 c 0.3125,-0.9375 0.488281,-2.0625 0.53125,-3.375 z m 0,0" style="fill:#ffffff;stroke:none" />
      </g>
    </g>
    <g transform="matrix(2.2987023,0,0,2.2987023,-350.38757,-339.85643)" style="opacity:1;fill:#ffffff;fill-opacity:1" id="g5465">
      <g style="fill:#ffffff" id="use5463" transform="translate(181.84973,164.28)">
        <path id="path5490" d="m 5.0136771,-6.953125 c -0.042969,-0.257813 -0.101562,-0.550781 -0.171875,-0.875 L 6.2324271,-8 c 0.050781,0.375 0.097656,0.726562 0.140625,1.046875 h 1.578125 v 1.03125 h -1.3125 c 0.539063,0.148437 0.847656,0.230469 0.921875,0.25 0.070313,0.023437 0.109375,0.058594 0.109375,0.109375 0,0.054687 -0.046875,0.121094 -0.140625,0.203125 -0.09375,0.085937 -0.257812,0.339844 -0.484375,0.765625 h 0.953125 v 1.015625 h -1.8125 V -2.875 h 1.6875 v 1.03125 h -1.6875 v 0.515625 l 0.921875,-0.328125 c 0.226563,0.429687 0.441406,0.917969 0.640625,1.46875 0.164063,-0.363281 0.28125,-0.804688 0.34375,-1.328125 0.0625,-0.53125 0.09375,-1.25 0.09375,-2.15625 v -3.4375 c 1.164063,-0.0625 2.2578119,-0.304688 3.2812479,-0.734375 0.53125,0.75 0.796875,1.179687 0.796875,1.28125 0,0.054687 -0.02344,0.089844 -0.0625,0.109375 -0.04297,0.011719 -0.15625,0.015625 -0.34375,0.015625 -0.1875,0 -0.5625,0.042969 -1.125,0.125 -0.554685,0.074219 -0.9999979,0.121094 -1.3437479,0.140625 V -4.78125 H 12.451175 V -3.625 H 11.43555 V 1.671875 H 10.201177 V -3.625 H 9.3886771 v 0.609375 c 0,2.0625 -0.484375,3.675781 -1.453125,4.84375 C 7.6113331,1.597656 7.2324271,1.394531 6.7949271,1.21875 7.1894581,0.800781 7.4863331,0.378906 7.6855521,-0.046875 l -0.859375,0.34375 c -0.15625,-0.457031 -0.371094,-0.945313 -0.640625,-1.46875 V 0.375 c 0,0.28125 -0.046875,0.5 -0.140625,0.65625 -0.085937,0.15625 -0.25,0.273438 -0.5,0.359375 -0.25,0.082031 -0.632812,0.144531 -1.140625,0.1875 -0.011719,-0.4375 -0.117187,-0.886719 -0.3125,-1.34375 0.3125,0.0625 0.519531,0.09375 0.625,0.09375 0.101563,0 0.164063,-0.027344 0.1875,-0.078125 0.03125,-0.042969 0.046875,-0.121094 0.046875,-0.234375 V -1.84375 h -1.78125 V -2.875 h 1.78125 V -3.578125 H 2.8418021 V -4.59375 h 1.3125 C 4.0800831,-4.820313 3.9277401,-5.164063 3.7011771,-5.625 l 1.015625,-0.296875 h -1.546875 v -1.03125 z m 1.390625,1.03125 h -1.546875 c 0.175781,0.417969 0.320313,0.792969 0.4375,1.125 l -0.796875,0.203125 h 1.4375 c 0.21875,-0.457031 0.375,-0.898438 0.46875,-1.328125 z m -2.75,4.3125 c 0.5,0.167969 0.800781,0.277344 0.90625,0.328125 0.101563,0.042969 0.15625,0.089844 0.15625,0.140625 0,0.054687 -0.054687,0.132812 -0.15625,0.234375 -0.09375,0.09375 -0.199219,0.273437 -0.3125,0.53125 -0.105469,0.261719 -0.3125,0.648438 -0.625,1.171875 -0.304687,-0.179687 -0.609375,-0.324219 -0.921875,-0.4375 0.394531,-0.613281 0.710938,-1.269531 0.953125,-1.96875 z m 0,0" style="fill:#ffffff;stroke:none" />
      </g>
    </g>
    <g transform="matrix(2.2987023,0,0,2.2987023,-350.38757,-339.85643)" style="opacity:1;fill:#ffffff;fill-opacity:1" id="g5469">
      <g style="fill:#ffffff" id="use5467" transform="translate(192.31126,164.28)">
        <path id="path5494" d="m 6.1257614,-0.84375 v 1.0625 H 13.235131 V 1.359375 H 4.8132614 v -8.71875 H 12.860131 V -6.21875 H 6.1257614 v 5.296875 c 0.875,-0.46875 1.71875,-1.117188 2.53125,-1.953125 -0.667969,-0.632813 -1.359375,-1.222656 -2.078125,-1.765625 l 1,-0.921875 c 1.164063,0.980469 1.820313,1.539062 1.96875,1.671875 0.5703126,-0.738281 1.0039046,-1.46875 1.2968726,-2.1875 0.800779,0.386719 1.238278,0.605469 1.312497,0.65625 0.08203,0.042969 0.125,0.101562 0.125,0.171875 0,0.0625 -0.0625,0.132812 -0.1875,0.203125 -0.1875,0.117187 -0.417968,0.386719 -0.687499,0.8125 -0.261718,0.429687 -0.554685,0.828125 -0.874997,1.203125 0.624998,0.554687 1.312496,1.199219 2.062496,1.9375 L 11.266383,-0.125 c -0.554685,-0.664063 -1.117184,-1.285156 -1.6874966,-1.859375 -0.804687,0.78125 -1.59375,1.449219 -2.375,2 -0.375,-0.34375 -0.734375,-0.628906 -1.078125,-0.859375 z m 0,0" style="fill:#ffffff;stroke:none" />
      </g>
    </g>
    <g transform="matrix(0.17291411,0,0,0.17291411,18.046973,61.662845)" id="g6215" style="opacity:1">
      <path style="color:#000000;font-style:normal;font-variant:normal;font-weight:normal;font-stretch:normal;font-size:medium;line-height:normal;font-family:sans-serif;font-variant-ligatures:normal;font-variant-position:normal;font-variant-caps:normal;font-variant-numeric:normal;font-variant-alternates:normal;font-variant-east-asian:normal;font-feature-settings:normal;font-variation-settings:normal;text-indent:0;text-align:start;text-decoration:none;text-decoration-line:none;text-decoration-style:solid;text-decoration-color:#000000;letter-spacing:normal;word-spacing:normal;text-transform:none;writing-mode:lr-tb;direction:ltr;text-orientation:mixed;dominant-baseline:auto;baseline-shift:baseline;text-anchor:start;white-space:normal;shape-padding:0;shape-margin:0;inline-size:0;clip-rule:nonzero;display:inline;overflow:visible;visibility:visible;isolation:auto;mix-blend-mode:normal;color-interpolation:sRGB;color-interpolation-filters:linearRGB;solid-color:#000000;solid-opacity:1;vector-effect:none;fill:#ffffff;fill-opacity:1;fill-rule:nonzero;stroke:none;stroke-width:22.1;stroke-linecap:butt;stroke-linejoin:miter;stroke-miterlimit:4;stroke-dasharray:none;stroke-dashoffset:0;stroke-opacity:1;paint-order:stroke fill markers;color-rendering:auto;image-rendering:auto;shape-rendering:auto;text-rendering:auto;enable-background:accumulate;stop-color:#000000;stop-opacity:1" d="m 33.679688,0.00976563 c -9.409923,0 -18.453997,2.41386577 -24.8554692,8.81640627 C 2.4227469,15.228712 0.01171875,24.270872 0.01171875,33.679688 l 0.0019531,216.064452 c 0,9.4105 2.41018775,18.4549 8.81250005,24.85742 6.4018651,6.40208 15.4431691,8.81217 24.8515621,8.8125 l 343.667966,0.041 c 9.40911,0 18.45121,-2.40998 24.85352,-8.8125 6.40231,-6.40253 8.81445,-15.44693 8.81445,-24.85742 V 33.679688 c 0,-9.409057 -2.41252,-18.453108 -8.81445,-24.8554692 -6.40194,-6.4023613 -15.44516,-8.81445317 -24.85547,-8.81445317 z m 0,22.09960937 H 377.34375 c 5.87469,0 8.1422,1.255408 9.22852,2.341797 1.08631,1.086389 2.33984,3.354572 2.33984,9.228516 V 249.78516 c 0,5.8775 -1.25491,8.14549 -2.33984,9.23046 -1.0848,1.08484 -3.35041,2.33952 -9.22461,2.33985 l -343.667972,-0.041 c -5.875898,0 -8.141625,-1.25487 -9.226563,-2.33984 -1.084938,-1.08497 -2.339844,-3.35297 -2.339844,-9.23047 l -0.002,-216.064452 c 0,-5.874185 1.255769,-8.142307 2.341797,-9.228516 1.086028,-1.08621 3.352485,-2.341797 9.226563,-2.341797 z" id="path6217" />
      <path style="color:#000000;font-style:normal;font-variant:normal;font-weight:normal;font-stretch:normal;font-size:medium;line-height:normal;font-family:sans-serif;font-variant-ligatures:normal;font-variant-position:normal;font-variant-caps:normal;font-variant-numeric:normal;font-variant-alternates:normal;font-variant-east-asian:normal;font-feature-settings:normal;font-variation-settings:normal;text-indent:0;text-align:start;text-decoration:none;text-decoration-line:none;text-decoration-style:solid;text-decoration-color:#000000;letter-spacing:normal;word-spacing:normal;text-transform:none;writing-mode:lr-tb;direction:ltr;text-orientation:mixed;dominant-baseline:auto;baseline-shift:baseline;text-anchor:start;white-space:normal;shape-padding:0;shape-margin:0;inline-size:0;clip-rule:nonzero;display:inline;overflow:visible;visibility:visible;isolation:auto;mix-blend-mode:normal;color-interpolation:sRGB;color-interpolation-filters:linearRGB;solid-color:#000000;solid-opacity:1;vector-effect:none;fill:#204939;fill-opacity:1;fill-rule:nonzero;stroke:none;stroke-width:22.1;stroke-linecap:butt;stroke-linejoin:miter;stroke-miterlimit:4;stroke-dasharray:none;stroke-dashoffset:0;stroke-opacity:1;paint-order:stroke fill markers;color-rendering:auto;image-rendering:auto;shape-rendering:auto;text-rendering:auto;enable-background:accumulate;stop-color:#000000;stop-opacity:1" d="m 399.963,249.786 c 0,15.288 -7.332,22.619 -22.617,22.619 L 33.68,272.364 c -15.285,0 -22.617,-7.331 -22.617,-22.619 L 11.062,33.679 c 0,-15.283 7.333,-22.619 22.617,-22.619 h 343.665 c 15.285,0 22.619,7.336 22.619,22.619 z" id="path6219" />
    </g>
    <path style="opacity:1;stroke-width:0.172914" fill="#ff0000" d="m 19.959739,76.685612 v -9.198857 c 0,-2.64367 1.267983,-3.911494 3.910815,-3.911494 h 59.424351 c 2.643337,0 3.911149,1.267824 3.911149,3.911494 v 9.198857 z" id="path5630" />
    <path style="opacity:1;stroke-width:0.172914" fill="#ffffff" d="m 30.161683,72.332678 v 0.269743 h -0.643242 v -4.679058 h 4.139391 v 4.637556 h -0.658814 v -0.228241 z m 2.837523,-0.549881 v -3.299192 h -2.837523 v 3.299192 z m -1.800043,-2.484772 h -0.892236 v -0.51874 h 2.505516 v 0.51874 h -0.980412 v 0.446121 h 0.881862 v 0.51874 h -0.321457 c 0.113969,0.169293 0.2248,0.345835 0.331995,0.529113 l -0.34772,0.145249 h 0.529283 v 0.534317 h -2.655958 v -0.534317 h 0.949303 V 70.263072 H 30.405654 V 69.74432 h 0.793685 v -0.446295 z m 1.136053,0.964861 h -0.503185 v 0.6742 h 0.331984 C 32.091442,70.798747 31.998022,70.651953 31.8839,70.496157 Z" id="path5632" />
    <path style="opacity:1;stroke-width:0.172914" fill="#ffffff" d="m 45.511259,69.443274 h -0.835168 v -0.497983 h 2.770257 v 0.497983 h -1.021931 c -0.114086,0.09014 -0.23689,0.17984 -0.368314,0.269754 0.200595,0.183464 0.354495,0.390961 0.46169,0.622651 0.311247,-0.159071 0.629411,-0.394247 0.954655,-0.705479 0.286864,0.204034 0.453903,0.326808 0.500597,0.368298 0.04693,0.04147 0.0701,0.07689 0.0701,0.10628 0,0.02939 -0.04234,0.05424 -0.127096,0.07527 -0.08469,0.02091 -0.279255,0.114062 -0.583586,0.280126 0.131412,0.539485 0.484166,0.990613 1.058226,1.353917 -0.204205,0.131416 -0.392685,0.285144 -0.565416,0.461674 -0.484331,-0.390948 -0.804058,-0.909514 -0.959852,-1.556232 -0.0414,0.02416 -0.101971,0.05703 -0.181565,0.09861 0.06234,0.29741 0.09339,0.561972 0.09339,0.793675 0,0.356195 -0.09068,0.609351 -0.272352,0.759944 -0.181552,0.150615 -0.497127,0.225825 -0.946703,0.225825 -0.0207,-0.235164 -0.09692,-0.448003 -0.228246,-0.63803 0.103969,0.0035 0.193656,0.0046 0.269929,0.0046 0.224788,0 0.371596,-0.02079 0.440931,-0.06237 0.06904,-0.04135 0.103737,-0.108952 0.103737,-0.202316 0,-0.09339 -0.0071,-0.229983 -0.0207,-0.409811 -0.532589,0.435923 -1.19138,0.809239 -1.97642,1.120495 -0.08645,-0.214419 -0.219765,-0.380425 -0.399424,-0.498019 0.390779,-0.103841 0.794532,-0.266281 1.211257,-0.487611 0.416549,-0.221318 0.76688,-0.458213 1.050453,-0.71066 -0.0207,-0.07585 -0.04153,-0.136608 -0.06234,-0.181571 -0.401164,0.304333 -0.951031,0.603474 -1.649599,0.897423 -0.103737,-0.165994 -0.233433,-0.316424 -0.389051,-0.45129 0.667271,-0.16237 1.253622,-0.446133 1.758536,-0.850741 -0.02764,-0.03473 -0.06739,-0.07085 -0.11931,-0.108951 -0.497997,0.280115 -0.964697,0.484161 -1.400618,0.612115 -0.110799,-0.190212 -0.226681,-0.359656 -0.347543,-0.508367 0.774301,-0.169805 1.344751,-0.396489 1.711501,-0.679903 z m 0.207497,-1.28146 c -0.01057,-0.117617 -0.03952,-0.255734 -0.08821,-0.414992 l 0.824807,-0.08816 c 0.02411,0.165983 0.03634,0.333894 0.03634,0.503175 h 1.789834 v 1.053057 h -0.684749 v -0.534305 h -3.050372 v 0.534305 h -0.637879 v -1.053057 z" id="path5634" />
    <path style="opacity:1;stroke-width:0.172914" fill="#ffffff" d="m 60.248736,68.141058 c -0.02764,-0.148526 -0.05716,-0.280116 -0.08822,-0.394236 l 0.814421,-0.0726 c 0.03446,0.179829 0.05704,0.335462 0.06739,0.466866 h 1.76891 v 0.539497 h -4.466375 v -0.539497 z m -0.119322,3.911308 v 0.171209 h -0.565415 v -1.364463 h 2.03865 v 1.068761 c 0.120875,0.01731 0.208193,0.02579 0.261966,0.02579 0.05363,0 0.08739,-0.01045 0.101146,-0.03357 0.01388,-0.02253 0.0207,-0.06679 0.0207,-0.132461 v -1.089354 h -2.785642 v 1.836347 H 58.56294 v -2.360268 h 4.082499 v 1.675533 c 0,0.169294 -0.02529,0.302603 -0.0754,0.399428 -0.05011,0.09687 -0.142669,0.171186 -0.277362,0.22306 -0.13487,0.05204 -0.333889,0.08642 -0.596549,0.103958 -0.0035,-0.173092 -0.03458,-0.323371 -0.09339,-0.451325 v 0.07771 h -0.59656 V 72.05228 Z m 1.955661,-2.03864 H 59.15419 v -1.17755 h 2.930885 z M 61.36403,69.567605 V 69.29785 h -1.545851 v 0.269755 z m -0.357929,2.054215 v -0.306052 h -0.876687 v 0.306052 z" id="path5636" />
    <path style="opacity:1;stroke-width:0.172914" fill="#ffffff" d="m 77.647347,71.725743 c -0.07609,0.207333 -0.129684,0.430382 -0.160981,0.66917 -0.463407,0.01731 -0.887048,0.02579 -1.270911,0.02579 -0.833452,0 -1.387647,-0.0302 -1.662574,-0.09072 -0.27494,-0.06075 -0.471193,-0.144552 -0.588597,-0.251588 -0.0761,-0.06911 -0.13246,-0.103957 -0.168768,-0.103957 -0.03634,0 -0.07868,0.02068 -0.126919,0.06237 -0.04846,0.04147 -0.129684,0.117616 -0.243807,0.228241 -0.114085,0.110694 -0.195571,0.205591 -0.243806,0.285121 -0.204216,-0.210934 -0.382147,-0.390774 -0.534318,-0.539485 0.221165,-0.172906 0.386298,-0.290488 0.495234,-0.352758 0.109149,-0.06203 0.174648,-0.111507 0.1973,-0.147653 0.02246,-0.03636 0.03375,-0.102912 0.03375,-0.199714 v -1.385046 h -0.601747 v -0.575806 h 1.239802 v 1.857104 c 0,0.113946 0.04493,0.215278 0.13487,0.303462 0.08986,0.08816 0.196255,0.153031 0.319022,0.194521 0.122768,0.04135 0.319892,0.0726 0.591373,0.09339 0.271469,0.02068 0.648418,0.03113 1.130854,0.03113 0.482426,0 0.969004,-0.03473 1.460263,-0.103609 z m -3.454829,-2.915504 -0.63788,0.290499 c -0.138493,-0.324915 -0.328524,-0.63962 -0.570614,-0.944116 l 0.611945,-0.326809 c 0.262836,0.390786 0.461677,0.717769 0.596549,0.980426 z m 1.270934,-0.09339 h -1.244989 v -0.534305 h 1.244989 v -0.430568 h 0.565416 c 0.08304,0 0.124508,0.02253 0.124508,0.06737 0,0.02067 -0.01057,0.05204 -0.03352,0.09339 -0.02258,0.04147 -0.03375,0.131602 -0.03375,0.269929 h 1.276098 v 0.534304 h -1.281286 v 0.290499 h 1.053217 v 1.385197 h -0.596561 c 0.269752,0.224815 0.563699,0.491096 0.881874,0.798704 l -0.518758,0.404794 c -0.224776,-0.287038 -0.497986,-0.55333 -0.819607,-0.798855 v 0.892231 h -0.617131 v -0.933733 c -0.228246,0.314694 -0.534307,0.603451 -0.918347,0.866294 -0.134693,-0.141625 -0.297415,-0.286863 -0.487436,-0.435749 0.259355,-0.138338 0.45735,-0.262134 0.593961,-0.371063 0.1366,-0.108951 0.261955,-0.249706 0.376078,-0.422623 h -0.596549 v -1.385197 h 1.032469 v -0.290673 z m 0,1.188085 V 69.50532 h -0.441107 v 0.399614 z m 0.617296,-0.399614 v 0.399614 h 0.446118 V 69.50532 Z m 0,0.887225 v 0.34221 l 0.4048,-0.34221 z" id="path5638" />
    <path style="opacity:1;stroke-width:0.172914" fill="#ffffff" d="m 39.358799,92.23439 c -0.270081,7.372534 -2.554103,11.05871 -6.851887,11.05871 -2.023796,0 -3.686193,-0.98766 -4.98719,-2.96355 -1.30101,-1.97521 -1.95151,-4.601422 -1.95151,-7.878313 0,-3.541639 0.660015,-6.293901 1.980561,-8.257865 1.319839,-1.963268 3.021155,-2.945251 5.102866,-2.945251 1.310513,0 2.495847,0.457876 3.555979,1.373105 1.059791,0.915926 1.898253,2.240805 2.515208,3.975297 l -3.180245,1.481708 c -0.539833,-1.686091 -1.532183,-2.529735 -2.977919,-2.529735 -2.351804,0 -3.527106,2.252896 -3.527106,6.757828 0,4.505617 1.204353,6.758165 3.613906,6.758165 1.348903,0 2.312908,-0.831181 2.891119,-2.493751 h -2.023783 v -4.336684 h 5.840001 z" id="path5640" />
    <path style="opacity:1;stroke-width:0.172914" fill="#ffffff" d="M 48.581179,103.11242 H 45.111835 V 88.223133 h -1.734684 v -4.481249 c 0.983023,-0.385245 1.628512,-1.228715 1.936983,-2.529712 h 3.267045 z" id="path5642" />
    <path style="opacity:1;stroke-width:0.172914" fill="#ffffff" d="m 57.109987,88.620655 c 0.867348,-0.264887 1.927127,-0.397522 3.180244,-0.397522 2.023796,0 3.628432,0.753207 4.813754,2.258773 1.185334,1.506077 1.778072,3.301109 1.778072,5.384885 0,2.084137 -0.616943,3.848725 -1.850347,5.294119 -1.233746,1.44574 -2.852742,2.16852 -4.857154,2.16852 -2.775456,0 -5.184833,-0.77084 -7.227812,-2.31308 l 1.908097,-3.64987 c 1.387822,1.132761 3.083587,1.698543 5.088528,1.698543 1.233216,0 2.129439,-0.289117 2.688809,-0.867339 0.558688,-0.578396 0.838461,-1.397149 0.838461,-2.457627 0,-1.059794 -0.298968,-1.861251 -0.896387,-2.403164 -0.597584,-0.542098 -1.455416,-0.813037 -2.573132,-0.813037 -1.118059,0 -2.197222,0.265247 -3.238159,0.795068 L 53.264908,91.62037 54.016556,81.429158 h 11.333317 v 4.336696 h -7.892836 z" id="path5644" />
    <path style="opacity:1;stroke-width:0.172914" fill="#ffffff" d="m 81.597576,88.656976 -1.830823,14.455614 h -2.409388 l -1.792598,-8.625304 -2.004412,8.625304 H 71.170338 L 69.33935,88.632758 h 2.312896 l 1.021578,7.854466 1.599801,-7.830085 h 2.42823 l 1.618997,7.878149 0.983187,-7.878149 h 2.293537 z" id="path5646" />
    <path style="opacity:1;stroke-width:0.469764" fill="#ffff00" d="m 158.94857,103.14863 h -52.46045 c -3.02057,0 -5.47839,-2.45686 -5.47839,-5.477445 V 76.719238 c 0,-3.021051 2.45782,-5.478853 5.47839,-5.478853 h 52.46045 c 3.0215,0 5.47932,2.457802 5.47932,5.478853 v 20.951947 c 0,3.020585 -2.45782,5.477445 -5.47932,5.477445 z" id="path6330" />
    <g transform="matrix(0.46976407,0,0,0.46976407,101.00973,71.240385)" id="g6911" style="opacity:1;fill:#000000">
      <path id="path6913" style="color:#000000;font-style:normal;font-variant:normal;font-weight:normal;font-stretch:normal;font-size:medium;line-height:normal;font-family:sans-serif;font-variant-ligatures:normal;font-variant-position:normal;font-variant-caps:normal;font-variant-numeric:normal;font-variant-alternates:normal;font-variant-east-asian:normal;font-feature-settings:normal;font-variation-settings:normal;text-indent:0;text-align:start;text-decoration:none;text-decoration-line:none;text-decoration-style:solid;text-decoration-color:#000000;letter-spacing:normal;word-spacing:normal;text-transform:none;writing-mode:lr-tb;direction:ltr;text-orientation:mixed;dominant-baseline:auto;baseline-shift:baseline;text-anchor:start;white-space:normal;shape-padding:0;shape-margin:0;inline-size:0;clip-rule:nonzero;display:inline;overflow:visible;visibility:visible;isolation:auto;mix-blend-mode:normal;color-interpolation:sRGB;color-interpolation-filters:linearRGB;solid-color:#000000;solid-opacity:1;vector-effect:none;fill:#000000;fill-opacity:1;fill-rule:nonzero;stroke:none;stroke-width:6.3;stroke-linecap:butt;stroke-linejoin:miter;stroke-miterlimit:4;stroke-dasharray:none;stroke-dashoffset:0;stroke-opacity:1;paint-order:stroke fill markers;color-rendering:auto;image-rendering:auto;shape-rendering:auto;text-rendering:auto;enable-background:accumulate;stop-color:#000000;stop-opacity:1" d="m 13.603516,2.8789062 c -3.195777,2e-7 -6.1053099,0.9950277 -8.0117191,3.0957032 C 3.6853876,8.0752848 3.0078125,10.875825 3.0078125,13.775391 v 40.375 c 0,2.898983 0.6775032,5.700637 2.5839844,7.800781 1.9064812,2.100143 4.8163301,3.09375 8.0117191,3.09375 H 121.39453 c 3.19578,0 6.1053,-0.993455 8.01172,-3.09375 1.90642,-2.100295 2.58398,-4.902015 2.58398,-7.800781 v -40.375 c 0,-2.899348 -0.67568,-5.6999549 -2.58203,-7.8007816 -1.90635,-2.1008268 -4.8175,-3.0957032 -8.01367,-3.0957032 z m 0,3.1503907 H 121.39453 c 5.219,0 7.44727,2.9160937 7.44727,7.7460941 v 40.375 c 0,4.828 -2.22927,7.74414 -7.44727,7.74414 H 13.603516 c -5.2170004,0 -7.447266,-2.91614 -7.447266,-7.74414 v -40.375 c 0,-4.8300004 2.2292656,-7.7460941 7.447266,-7.7460941 z" />
    </g>
    <path style="opacity:1;stroke-width:0.469764" d="m 115.91347,82.998573 c -1.00247,-0.871416 -2.04864,-1.307339 -3.13896,-1.307339 -0.50875,0 -0.96678,0.113598 -1.37313,0.340561 -0.40728,0.22737 -0.61022,0.672702 -0.61022,1.335077 0,0.663304 0.50125,1.085614 1.50418,1.266941 2.00544,0.326495 3.47297,0.935777 4.40311,1.825986 0.92966,0.890198 1.39519,2.234195 1.39519,4.032456 0,1.416813 -0.47633,2.547054 -1.4276,3.392161 -0.95175,0.844631 -2.29996,1.266941 -4.04327,1.266941 -0.91557,0 -1.81282,-0.232051 -2.69175,-0.694758 -0.8794,-0.463208 -1.65309,-1.130717 -2.3211,-2.002609 l 1.80905,-2.289171 c 0.91558,1.199317 2.06322,1.798261 3.44386,1.798261 0.84275,0 1.50041,-0.149385 1.97253,-0.449571 0.47212,-0.299699 0.70841,-0.685374 0.70841,-1.157966 0,-0.726248 -0.22549,-1.243931 -0.67551,-1.553038 -0.45052,-0.308631 -1.08987,-0.553854 -1.91806,-0.73518 -1.77289,-0.36313 -3.00085,-0.935765 -3.68342,-1.716512 -0.68351,-0.780759 -1.02456,-1.856988 -1.02456,-3.228688 0,-1.371722 0.43219,-2.48835 1.29703,-3.351763 0.86435,-0.862495 1.92132,-1.293749 3.17137,-1.293749 0.95926,0 1.86732,0.177111 2.72463,0.531308 0.85732,0.354221 1.54741,0.840403 2.07073,1.457676 z" id="path6336" />
    <path style="opacity:1;stroke-width:0.469764" d="m 131.49836,94.986942 h -10.44097 c 0.11603,-1.94387 0.45378,-3.54201 1.01375,-4.79535 0.55902,-1.253327 1.23454,-2.257205 2.02703,-3.010702 0.79202,-0.753509 1.80531,-1.384871 3.04079,-1.893146 0.50875,-0.181803 0.90805,-0.45898 1.19884,-0.831495 0.2903,-0.372038 0.43594,-0.767122 0.43594,-1.185215 0,-0.417617 -0.23629,-0.790132 -0.7084,-1.116627 -0.47212,-0.327425 -1.05698,-0.490899 -1.75458,-0.490899 -1.27869,0 -2.4268,0.554307 -3.44384,1.662013 l -1.80906,-2.370419 c 0.85731,-0.834782 1.70008,-1.458153 2.52827,-1.866373 0.8282,-0.408708 1.77242,-0.613045 2.83362,-0.613045 1.5986,0 2.81905,0.440627 3.66181,1.32144 0.84228,0.881278 1.26413,2.012006 1.26413,3.392173 0,1.380643 -0.35233,2.506667 -1.05697,3.378536 -0.70512,0.871881 -1.92885,1.680365 -3.6726,2.424931 -0.87189,0.399764 -1.66392,1.307815 -2.37608,2.724628 h 7.25832 z" id="path6338" />
    <path style="opacity:1;stroke-width:0.469764" d="m 144.96885,94.986942 h -10.4405 c 0.11603,-1.94387 0.45378,-3.54201 1.01375,-4.79535 0.55901,-1.253327 1.23454,-2.257205 2.02703,-3.010702 0.79202,-0.753509 1.80529,-1.384871 3.04078,-1.893146 0.50828,-0.181803 0.90805,-0.45898 1.19884,-0.831495 0.29031,-0.372038 0.43593,-0.767122 0.43593,-1.185215 0,-0.417617 -0.23629,-0.790132 -0.70839,-1.116627 -0.47212,-0.327425 -1.05697,-0.490899 -1.75458,-0.490899 -1.27868,0 -2.42679,0.554307 -3.44383,1.662013 l -1.80907,-2.370419 c 0.85733,-0.834782 1.70008,-1.458153 2.52827,-1.866373 0.82866,-0.408708 1.77242,-0.613045 2.83363,-0.613045 1.59813,0 2.81905,0.440627 3.66181,1.32144 0.84275,0.881278 1.26412,2.012006 1.26412,3.392173 0,1.380643 -0.35231,2.506667 -1.05696,3.378536 -0.70512,0.871881 -1.92886,1.680365 -3.67261,2.424931 -0.8719,0.399764 -1.66437,1.307815 -2.37608,2.724628 h 7.25832 v 3.26955 z" id="path6340" />
    <path style="opacity:1;stroke-width:0.469764" d="m 157.95923,81.854232 c -0.75538,0.691019 -1.64229,2.288683 -2.65886,4.79535 -1.01751,2.506667 -1.52579,5.285784 -1.52579,8.33736 h -2.63726 c 0,-2.270365 0.24663,-4.468855 0.74082,-6.593587 0.49418,-2.124744 1.3656,-4.340633 2.61564,-6.648121 h -7.12725 v -3.269086 h 10.59318 v 3.378084 z" id="path6342" />
    <path id="path2408" d="m 217.70853,91.718867 -1.96278,2.555131 1.90199,5.839632 h -1.90199 l -1.237,-3.918974 -1.09402,1.36388 v 2.555094 h -1.8555 V 89.573774 l 1.8555,-0.880481 v 5.395102 l 1.96278,-2.369528 z m 0,0" style="opacity:1;fill:#ffffff;fill-opacity:1;stroke:none;stroke-width:0.251405" />
    <path id="path2412" d="m 230.76923,100.11364 h -1.82335 v -5.036862 c 0,-0.362544 -0.12155,-0.673304 -0.36466,-0.932263 -0.24132,-0.261117 -0.52375,-0.392761 -0.84731,-0.392761 -0.32446,0 -0.59707,0.133804 -0.81872,0.401388 -0.22165,0.267599 -0.33251,0.576189 -0.33251,0.923636 v 5.036862 h -1.79471 v -5.075715 c 0,-0.336641 -0.10366,-0.634451 -0.31105,-0.89341 -0.20556,-0.261117 -0.48086,-0.392761 -0.82585,-0.392761 -0.34323,0 -0.63639,0.125164 -0.87949,0.375501 -0.24134,0.24817 -0.3611,0.551372 -0.3611,0.91067 v 5.075715 h -1.85552 v -8.394773 h 1.85552 v 0.522246 c 0.54521,-0.422977 1.12706,-0.63446 1.74467,-0.63446 0.77223,0 1.3845,0.323707 1.83764,0.971122 0.63818,-0.635554 1.32818,-0.95386 2.07003,-0.95386 0.74364,0 1.38002,0.270833 1.90914,0.811428 0.53091,0.54167 0.79727,1.191244 0.79727,1.950872 z m 0,0" style="opacity:1;fill:#ffffff;fill-opacity:1;stroke:none;stroke-width:0.251405" />
    <path style="opacity:1;fill:#ffffff;fill-opacity:1;stroke:none;stroke-width:0.251405" d="m 217.70853,33.952682 -1.96278,2.555118 1.90199,5.839645 h -1.90199 l -1.237,-3.918992 -1.09402,1.363874 v 2.555118 h -1.8555 V 31.807589 l 1.8555,-0.880481 v 5.395097 l 1.96278,-2.369523 z m 0,0" id="path7003" />
    <path style="opacity:1;fill:#ffffff;fill-opacity:1;stroke:none;stroke-width:0.251405" d="m 230.76923,42.347454 h -1.82335 v -5.036863 c 0,-0.362552 -0.12155,-0.673306 -0.36466,-0.93227 -0.24132,-0.261122 -0.52375,-0.392759 -0.84731,-0.392759 -0.32446,0 -0.59707,0.133796 -0.81872,0.401386 -0.22165,0.267601 -0.33251,0.576195 -0.33251,0.923643 v 5.036863 h -1.79471 v -5.075708 c 0,-0.336653 -0.10366,-0.634461 -0.31105,-0.893425 -0.20556,-0.261122 -0.48086,-0.392759 -0.82585,-0.392759 -0.34323,0 -0.63639,0.12516 -0.87949,0.375497 -0.24134,0.248169 -0.3611,0.55137 -0.3611,0.910687 v 5.075708 h -1.85552 v -8.394772 h 1.85552 v 0.522247 c 0.54521,-0.422977 1.12706,-0.634462 1.74467,-0.634462 0.77223,0 1.3845,0.323708 1.83764,0.971114 0.63818,-0.635544 1.32818,-0.95385 2.07003,-0.95385 0.74364,0 1.38002,0.270834 1.90914,0.811419 0.53091,0.541668 0.79727,1.191242 0.79727,1.950873 z m 0,0" id="path7005" />
    <path id="path7009" d="m 217.70853,149.02819 -1.96278,2.55512 1.90199,5.83965 h -1.90199 l -1.237,-3.91898 -1.09402,1.36387 v 2.55511 h -1.8555 V 146.8831 l 1.8555,-0.88047 v 5.39509 l 1.96278,-2.36953 z m 0,0" style="opacity:1;fill:#ffffff;fill-opacity:1;stroke:none;stroke-width:0.251405" />
    <path id="path7011" d="m 230.76923,157.42297 h -1.82335 v -5.03687 c 0,-0.36253 -0.12155,-0.6733 -0.36466,-0.93226 -0.24132,-0.26112 -0.52375,-0.39276 -0.84731,-0.39276 -0.32446,0 -0.59707,0.1338 -0.81872,0.40139 -0.22165,0.26759 -0.33251,0.57619 -0.33251,0.92363 v 5.03687 h -1.79471 v -5.07571 c 0,-0.33665 -0.10366,-0.63446 -0.31105,-0.89342 -0.20556,-0.26112 -0.48086,-0.39276 -0.82585,-0.39276 -0.34323,0 -0.63639,0.12516 -0.87949,0.37549 -0.24134,0.24818 -0.3611,0.55138 -0.3611,0.91069 v 5.07571 h -1.85552 v -8.39478 h 1.85552 v 0.52226 c 0.54521,-0.42298 1.12706,-0.63447 1.74467,-0.63447 0.77223,0 1.3845,0.32371 1.83764,0.97112 0.63818,-0.63555 1.32818,-0.95385 2.07003,-0.95385 0.74364,0 1.38002,0.27084 1.90914,0.81141 0.53091,0.54168 0.79727,1.19125 0.79727,1.95088 z m 0,0" style="opacity:1;fill:#ffffff;fill-opacity:1;stroke:none;stroke-width:0.251405" />
    <g transform="matrix(2.4817157,0,0,2.4817157,-213.38573,-254.83784)" style="opacity:1;fill:#ffffff;fill-opacity:1" id="g819">
      <g style="fill:#ffffff" id="use817" transform="translate(93.599998,164.28)">
        <path id="path2282" d="M 2.765625,-5.796875 H 0.65625 V -6.875 H 2.765625 V -7.890625 H 3.84375 c 0.207031,0 0.3125,0.042969 0.3125,0.125 0,0.085937 -0.023437,0.171875 -0.0625,0.265625 -0.03125,0.085937 -0.046875,0.292969 -0.046875,0.625 H 6.21875 v -1.03125 h 1.046875 c 0.238281,0 0.359375,0.070312 0.359375,0.203125 0,0.042969 -0.011719,0.089844 -0.03125,0.140625 -0.054687,0.117187 -0.078125,0.34375 -0.078125,0.6875 h 2.28125 v 1.078125 H 7.515625 V -4.90625 H 6.21875 V -5.796875 H 4.046875 V -4.9375 H 2.765625 Z M 7.9375,-1.84375 7.796875,0.078125 c -0.023437,0.40625 -0.09375,0.707031 -0.21875,0.90625 -0.125,0.207031 -0.351562,0.363281 -0.671875,0.46875 -0.3125,0.101563 -0.8125,0.1875 -1.5,0.25 C 5.351563,1.085938 5.195313,0.582031 4.9375,0.1875 c 0.507813,0.09375 0.851563,0.140625 1.03125,0.140625 0.175781,0 0.300781,-0.042969 0.375,-0.125 C 6.425781,0.117188 6.476563,-0.0820313 6.5,-0.40625 L 6.6875,-3.125 H 5.453125 c -0.15625,1.21875 -0.492187,2.226562 -1,3.015625 -0.5,0.789063 -1.242187,1.445313 -2.21875,1.96875 C 1.878906,1.503906 1.457031,1.191406 0.96875,0.921875 2.914063,0.191406 3.972656,-1.15625 4.140625,-3.125 h -2.6875 v -1.09375 h 2.78125 c 0.03125,-0.5 0.046875,-0.890625 0.046875,-1.171875 0.363281,0 0.675781,0.00781 0.9375,0.015625 0.257813,0.011719 0.414063,0.027344 0.46875,0.046875 0.0625,0.023437 0.09375,0.058594 0.09375,0.109375 0,0.054687 -0.027344,0.136719 -0.078125,0.25 -0.054687,0.105469 -0.101562,0.355469 -0.140625,0.75 H 8.09375 L 7.984375,-2.53125 8.8125,-2.984375 C 9.238281,-2.316406 9.675781,-1.5625 10.125,-0.71875 L 8.890625,-0.109375 C 8.628906,-0.660156 8.3125,-1.238281 7.9375,-1.84375 Z m -6,-1 c 0.875,0.25 1.3125,0.449219 1.3125,0.59375 0,0.054687 -0.058594,0.132812 -0.171875,0.234375 -0.117187,0.09375 -0.25,0.289062 -0.40625,0.578125 -0.28125,0.523437 -0.667969,1.015625 -1.15625,1.484375 -0.386719,-0.289063 -0.75,-0.503906 -1.09375,-0.640625 0.726563,-0.695313 1.234375,-1.445313 1.515625,-2.25 z m 0,0" style="fill:#ffffff;stroke:none" />
      </g>
    </g>
    <g transform="matrix(2.4817157,0,0,2.4817157,-213.38573,-254.83784)" style="opacity:1;fill:#ffffff;fill-opacity:1" id="g823">
      <g style="fill:#ffffff" id="use821" transform="translate(103.95795,164.28)">
        <path id="path2286" d="m 3.65625,-4.84375 v 1.578125 c 0,1.179687 -0.179687,2.152344 -0.53125,2.921875 C 2.769531,0.425781 2.210938,1.128906 1.453125,1.765625 1.109375,1.503906 0.722656,1.253906 0.296875,1.015625 0.984375,0.628906 1.515625,0.0507813 1.890625,-0.71875 2.273438,-1.5 2.46875,-2.375 2.46875,-3.34375 v -4.390625 h 1.078125 c 0.164063,0 0.25,0.03125 0.25,0.09375 0,0.0625 -0.023437,0.136719 -0.0625,0.21875 C 3.679688,-7.265625 3.65625,-6.84375 3.65625,-6.15625 v 0.9375 l 0.984375,-0.203125 c 0.175781,0.8125 0.335938,1.710937 0.484375,2.6875 V -7.53125 h 1.0625 c 0.113281,0 0.1875,0.011719 0.21875,0.03125 0.03125,0.011719 0.046875,0.039062 0.046875,0.078125 0,0.042969 -0.011719,0.101562 -0.03125,0.171875 C 6.347656,-7.019531 6.3125,-6.695313 6.3125,-6.28125 v 1.015625 l 0.90625,-0.21875 C 7.457031,-4.703125 7.679688,-3.789063 7.890625,-2.75 V -7.8125 H 9 c 0.101563,0 0.171875,0.011719 0.203125,0.03125 0.039063,0.011719 0.0625,0.039062 0.0625,0.078125 0,0.042969 -0.011719,0.101562 -0.03125,0.171875 -0.054687,0.148437 -0.078125,0.398437 -0.078125,0.75 V 1.640625 H 7.890625 v -3.875 l -1.046875,0.25 C 6.675781,-3.046875 6.5,-3.929688 6.3125,-4.640625 v 6.09375 H 5.125 v -3.75 l -1.015625,0.21875 C 3.960938,-3.222656 3.8125,-4.144531 3.65625,-4.84375 Z M 2.25,-5.421875 c -0.054687,1.429687 -0.21875,2.59375 -0.5,3.5 l -1.1875,-0.21875 c 0.3125,-0.9375 0.488281,-2.0625 0.53125,-3.375 z m 0,0" style="fill:#ffffff;stroke:none" />
      </g>
    </g>
    <g transform="matrix(2.4817157,0,0,2.4817157,-213.38573,-254.83784)" style="opacity:1;fill:#ffffff;fill-opacity:1" id="g827">
      <g style="fill:#ffffff" id="use825" transform="translate(114.21233,164.28)">
        <path id="path2290" d="M 4.46875,-5.671875 H 1.25 v -1.28125 h 7.953125 v 1.28125 H 5.9375 V -0.5625 H 9.859375 V 0.703125 H 0.5625 V -0.5625 h 3.90625 z m 0,0" style="fill:#ffffff;stroke:none" />
      </g>
    </g>
    <g transform="matrix(2.4817157,0,0,2.4817157,-213.38573,-254.83784)" style="opacity:1;fill:#ffffff;fill-opacity:1" id="g831">
      <g style="fill:#ffffff" id="use829" transform="translate(124.67385,164.28)">
        <path id="path2294" d="M 3.40625,0.09375 V -1.296875 L 2.1875,-0.96875 C 1.882813,-2.363281 1.46875,-3.75 0.9375,-5.125 l 1.390625,-0.46875 c 0.425781,1.40625 0.785156,2.804687 1.078125,4.1875 v -6.25 h 1.203125 c 0.175781,0 0.265625,0.03125 0.265625,0.09375 0,0.0625 -0.015625,0.132812 -0.046875,0.203125 -0.023437,0.074219 -0.042969,0.1875 -0.0625,0.34375 -0.023437,0.15625 -0.03125,0.296875 -0.03125,0.421875 v 6.6875 h 0.9375 V -7.6875 H 6.875 c 0.1875,0 0.28125,0.046875 0.28125,0.140625 0,0.042969 -0.023437,0.105469 -0.0625,0.1875 -0.042969,0.085937 -0.0625,0.386719 -0.0625,0.90625 v 4.78125 C 7.519531,-2.898438 7.914063,-4.21875 8.21875,-5.625 l 1.375,0.359375 c 0.132813,0.03125 0.203125,0.085937 0.203125,0.15625 0,0.0625 -0.042969,0.140625 -0.125,0.234375 -0.148437,0.15625 -0.355469,0.632812 -0.625,1.421875 C 8.785156,-2.660156 8.476563,-1.816406 8.125,-0.921875 7.65625,-1.097656 7.289063,-1.226563 7.03125,-1.3125 v 1.40625 h 2.9375 v 1.1875 H 0.390625 v -1.1875 z m 0,0" style="fill:#ffffff;stroke:none" />
      </g>
    </g>
    <g transform="matrix(2.4817157,0,0,2.4817157,-213.38573,-254.83784)" style="opacity:1;fill:#ffffff;fill-opacity:1" id="g835">
      <g style="fill:#ffffff" id="use833" transform="translate(134.82465,164.28)">
        <path id="path2298" d="M 2.171875,1.21875 V 1.734375 H 0.96875 v -9.3125 h 8.453125 v 9.28125 h -1.25 V 1.21875 Z m 3.15625,-4.5 H 4.796875 C 4.773438,-2.5 4.632813,-1.867188 4.375,-1.390625 c -0.261719,0.46875 -0.703125,0.917969 -1.328125,1.34375 -0.199219,-0.175781 -0.492187,-0.394531 -0.875,-0.65625 v 0.90625 h 6 v -6.6875 h -6 v 5.59375 c 0.5,-0.28125 0.847656,-0.597656 1.046875,-0.953125 0.207031,-0.351563 0.328125,-0.832031 0.359375,-1.4375 H 2.40625 V -4.296875 H 7.921875 V -3.28125 H 6.5 v 1.640625 c 0,0.09375 0.00781,0.15625 0.03125,0.1875 0.019531,0.03125 0.0625,0.046875 0.125,0.046875 H 6.75 c 0.101563,0 0.171875,-0.039063 0.203125,-0.125 0.03125,-0.09375 0.050781,-0.328125 0.0625,-0.703125 0.332031,0.179687 0.679688,0.292969 1.046875,0.34375 C 8.007813,-1.398438 7.9375,-1.039063 7.84375,-0.8125 7.75,-0.582031 7.625,-0.425781 7.46875,-0.34375 7.320313,-0.269531 7.101563,-0.234375 6.8125,-0.234375 H 6.40625 c -0.429687,0 -0.714844,-0.066406 -0.859375,-0.203125 -0.148437,-0.144531 -0.21875,-0.410156 -0.21875,-0.796875 z M 7.421875,-4.875 H 2.90625 v -1.078125 h 4.515625 z m 0,0" style="fill:#ffffff;stroke:none" />
      </g>
    </g>
    <g transform="matrix(-1.3708322,0,0,1.9330817,207.4567,157.57607)" style="opacity:1;fill:#ffffff;fill-opacity:1" id="use3113">
      <path style="fill:#ffffff;stroke:none" d="m 6.296875,-12.140625 c 1.425781,0 2.613281,0.554687 3.5625,1.65625 0.945313,1.105469 1.421875,2.601562 1.421875,4.484375 0,1.875 -0.449219,3.367187 -1.34375,4.46875 C 9.039063,-0.425781 7.8125,0.125 6.25,0.125 4.695313,0.125 3.46875,-0.414063 2.5625,-1.5 1.65625,-2.59375 1.203125,-4.082031 1.203125,-5.96875 c 0,-1.894531 0.453125,-3.394531 1.359375,-4.5 0.90625,-1.113281 2.148438,-1.671875 3.734375,-1.671875 z M 6.40625,-2.25 c 0.75,0 1.359375,-0.347656 1.828125,-1.046875 C 8.703125,-4.003906 8.9375,-4.957031 8.9375,-6.15625 8.9375,-7.351563 8.722656,-8.253906 8.296875,-8.859375 7.867188,-9.472656 7.191406,-9.78125 6.265625,-9.78125 c -1.804687,0 -2.703125,1.273437 -2.703125,3.8125 0,1.199219 0.242188,2.121094 0.734375,2.765625 C 4.785156,-2.566406 5.488281,-2.25 6.40625,-2.25 Z m 0,0" id="path5353" />
    </g>
    <g transform="matrix(1.3708322,0,0,1.9330817,175.00023,157.57607)" style="opacity:1;fill:#ffffff;fill-opacity:1" id="use3133">
      <path style="fill:#ffffff;stroke:none" d="m 8.8125,-6.4375 c 0.507813,0.40625 0.882813,0.851562 1.125,1.328125 0.25,0.46875 0.375,1.039062 0.375,1.703125 0,0.949219 -0.414062,1.777344 -1.234375,2.484375 C 8.265625,-0.222656 7.1875,0.125 5.84375,0.125 c -1.023437,0 -2,-0.226563 -2.9375,-0.6875 C 1.96875,-1.03125 1.207031,-1.671875 0.625,-2.484375 L 2.546875,-3.84375 c 0.25,0.429687 0.691406,0.804687 1.328125,1.125 C 4.507813,-2.40625 5.21875,-2.25 6,-2.25 c 0.789063,0 1.328125,-0.144531 1.609375,-0.4375 0.28125,-0.300781 0.421875,-0.613281 0.421875,-0.9375 0,-0.40625 -0.199219,-0.78125 -0.59375,-1.125 -0.398437,-0.34375 -0.886719,-0.515625 -1.46875,-0.515625 -0.125,0 -0.246094,0.00781 -0.359375,0.015625 V -7.625 H 6.59375 c 0.207031,0 0.398438,-0.097656 0.578125,-0.296875 0.1875,-0.207031 0.28125,-0.460938 0.28125,-0.765625 0,-0.300781 -0.179687,-0.550781 -0.53125,-0.75 C 6.566406,-9.644531 6.101563,-9.75 5.53125,-9.75 c -1.085937,0 -1.949219,0.335937 -2.59375,1 l -1.71875,-1.546875 c 0.570313,-0.601563 1.234375,-1.0625 1.984375,-1.375 0.757813,-0.3125 1.539063,-0.46875 2.34375,-0.46875 1.195313,0 2.195313,0.324219 3,0.96875 C 9.347656,-10.523438 9.75,-9.71875 9.75,-8.75 c 0,0.96875 -0.3125,1.742187 -0.9375,2.3125 z m 0,0" id="path5349" />
    </g>
    <path style="opacity:1;fill:#ffffff;fill-opacity:1;stroke:none;stroke-width:0.459008" d="m 184.97792,100.10447 h -3.66674 V 84.077495 H 179.481 v -4.824287 c 1.03742,-0.414846 1.71897,-1.321418 2.04623,-2.719736 h 3.45069 z m 0,0" id="path260" />
    <path style="opacity:1;fill:#ffffff;fill-opacity:1;stroke:none;stroke-width:0.459008" d="m 205.3126,81.357763 c -1.05963,0.983474 -2.30359,3.266108 -3.73025,6.847904 -1.42349,3.577735 -2.1352,7.544018 -2.1352,11.898803 h -3.69851 c 0,-3.241799 0.34474,-6.380423 1.03581,-9.413815 0.69425,-3.031366 1.91916,-6.196295 3.67312,-9.494781 h -9.98975 v -4.662402 h 14.84478 z m 0,0" id="path284" />
    <path id="path5375" d="m 205.3126,23.357763 c -1.05963,0.983474 -2.30359,3.266108 -3.73025,6.847904 -1.42349,3.577735 -2.1352,7.544018 -2.1352,11.898803 h -3.69851 c 0,-3.241799 0.34474,-6.380423 1.03581,-9.413815 0.69425,-3.031366 1.91916,-6.196295 3.67312,-9.494781 h -9.98975 v -4.662402 h 14.84478 z m 0,0" style="opacity:1;fill:#ffffff;fill-opacity:1;stroke:none;stroke-width:0.459008" />
  </g>
</svg>
