<?xml version="1.0" encoding="UTF-8"?>
<svg xmlns="http://www.w3.org/2000/svg" xmlns:ns1="http://sodipodi.sourceforge.net/DTD/sodipodi-0.dtd" viewBox="0 0 186.20219 162.37387" height="162.37387" width="186.20219" id="svg6449" version="1.1">
  <defs id="defs6453" />
  <ns1:namedview showgrid="false" id="namedview6451" guidetolerance="10" gridtolerance="10" objecttolerance="10" borderopacity="1" bordercolor="#666666" pagecolor="#ffffff" />
  <g transform="translate(-4.637851,-6.9035472)" id="g6457">
    <path id="path17489" d="m 13.802822,8.2463521 c -4.332896,0 -7.82216,3.4892699 -7.82216,7.8221539 V 160.11245 c 0,4.33289 3.489264,7.82216 7.82216,7.82216 H 181.67509 c 4.33289,0 7.82215,-3.48927 7.82215,-7.82216 V 16.068506 c 0,-4.332884 -3.48926,-7.8221539 -7.82215,-7.8221539 z" style="color:#000000;font-style:normal;font-variant:normal;font-weight:normal;font-stretch:normal;font-size:medium;line-height:normal;font-family:sans-serif;font-variant-ligatures:normal;font-variant-position:normal;font-variant-caps:normal;font-variant-numeric:normal;font-variant-alternates:normal;font-variant-east-asian:normal;font-feature-settings:normal;font-variation-settings:normal;text-indent:0;text-align:start;text-decoration:none;text-decoration-line:none;text-decoration-style:solid;text-decoration-color:#000000;letter-spacing:normal;word-spacing:normal;text-transform:none;writing-mode:lr-tb;direction:ltr;text-orientation:mixed;dominant-baseline:auto;baseline-shift:baseline;text-anchor:start;white-space:normal;shape-padding:0;shape-margin:0;inline-size:0;clip-rule:nonzero;display:inline;overflow:visible;visibility:visible;opacity:1;isolation:auto;mix-blend-mode:normal;color-interpolation:sRGB;color-interpolation-filters:linearRGB;solid-color:#000000;solid-opacity:1;vector-effect:none;fill:#ffffff;fill-opacity:1;fill-rule:nonzero;stroke:none;stroke-width:2.30595;stroke-linecap:butt;stroke-linejoin:miter;stroke-miterlimit:4;stroke-dasharray:none;stroke-dashoffset:0;stroke-opacity:1;color-rendering:auto;image-rendering:auto;shape-rendering:auto;text-rendering:auto;enable-background:accumulate;stop-color:#000000;stop-opacity:1" />
    <path id="path17491" d="M 13.802822,7.0936962 C 8.850938,7.0936962 4.828,11.116629 4.828,16.068506 V 160.11245 c 0,4.95189 4.022938,8.97482 8.974822,8.97482 H 181.67509 c 4.95188,0 8.97481,-4.02293 8.97481,-8.97482 V 16.068506 c 0,-4.951877 -4.02293,-8.9748098 -8.97481,-8.9748098 z m 0,2.3053173 H 181.67509 c 3.71389,0 6.66949,2.9556025 6.66949,6.6694925 V 160.11245 c 0,3.71389 -2.9556,6.6695 -6.66949,6.6695 H 13.802822 c -3.713897,0 -6.669505,-2.95561 -6.669505,-6.6695 V 16.068506 c 0,-3.71389 2.955608,-6.6694925 6.669505,-6.6694925 z" style="color:#000000;font-style:normal;font-variant:normal;font-weight:normal;font-stretch:normal;font-size:medium;line-height:normal;font-family:sans-serif;font-variant-ligatures:normal;font-variant-position:normal;font-variant-caps:normal;font-variant-numeric:normal;font-variant-alternates:normal;font-variant-east-asian:normal;font-feature-settings:normal;font-variation-settings:normal;text-indent:0;text-align:start;text-decoration:none;text-decoration-line:none;text-decoration-style:solid;text-decoration-color:#000000;letter-spacing:normal;word-spacing:normal;text-transform:none;writing-mode:lr-tb;direction:ltr;text-orientation:mixed;dominant-baseline:auto;baseline-shift:baseline;text-anchor:start;white-space:normal;shape-padding:0;shape-margin:0;inline-size:0;clip-rule:nonzero;display:inline;overflow:visible;visibility:visible;opacity:1;isolation:auto;mix-blend-mode:normal;color-interpolation:sRGB;color-interpolation-filters:linearRGB;solid-color:#000000;solid-opacity:1;vector-effect:none;fill:#244a38;fill-opacity:1;fill-rule:nonzero;stroke:none;stroke-width:0.380298;stroke-linecap:butt;stroke-linejoin:miter;stroke-miterlimit:4;stroke-dasharray:none;stroke-dashoffset:0;stroke-opacity:1;color-rendering:auto;image-rendering:auto;shape-rendering:auto;text-rendering:auto;enable-background:accumulate;stop-color:#000000;stop-opacity:1" />
    <path d="m 9.503048,122.13391 v 37.98297 c 0,2.38132 1.914147,4.29547 4.295457,4.29547 H 181.68234 c 2.38131,0 4.29545,-1.91415 4.29545,-4.29547 v -37.98297 z" style="color:#000000;font-style:normal;font-variant:normal;font-weight:normal;font-stretch:normal;font-size:medium;line-height:normal;font-family:sans-serif;font-variant-ligatures:normal;font-variant-position:normal;font-variant-caps:normal;font-variant-numeric:normal;font-variant-alternates:normal;font-variant-east-asian:normal;font-feature-settings:normal;font-variation-settings:normal;text-indent:0;text-align:start;text-decoration:none;text-decoration-line:none;text-decoration-style:solid;text-decoration-color:#000000;letter-spacing:normal;word-spacing:normal;text-transform:none;writing-mode:lr-tb;direction:ltr;text-orientation:mixed;dominant-baseline:auto;baseline-shift:baseline;text-anchor:start;white-space:normal;shape-padding:0;shape-margin:0;inline-size:0;clip-rule:nonzero;display:inline;overflow:visible;visibility:visible;opacity:1;isolation:auto;mix-blend-mode:normal;color-interpolation:sRGB;color-interpolation-filters:linearRGB;solid-color:#000000;solid-opacity:1;vector-effect:none;fill:#244a38;fill-opacity:1;fill-rule:nonzero;stroke:none;stroke-width:2.30595;stroke-linecap:butt;stroke-linejoin:miter;stroke-miterlimit:4;stroke-dasharray:none;stroke-dashoffset:0;stroke-opacity:1;color-rendering:auto;image-rendering:auto;shape-rendering:auto;text-rendering:auto;enable-background:accumulate;stop-color:#000000;stop-opacity:1" id="path17493" />
    <path d="m 13.798505,11.755512 c -2.379479,0 -4.295457,1.93073 -4.295457,4.319303 V 119.77595 H 185.97779 V 16.074815 c 0,-2.388573 -1.91597,-4.319303 -4.29545,-4.319303 z" style="color:#000000;font-style:normal;font-variant:normal;font-weight:normal;font-stretch:normal;font-size:medium;line-height:normal;font-family:sans-serif;font-variant-ligatures:normal;font-variant-position:normal;font-variant-caps:normal;font-variant-numeric:normal;font-variant-alternates:normal;font-variant-east-asian:normal;font-feature-settings:normal;font-variation-settings:normal;text-indent:0;text-align:start;text-decoration:none;text-decoration-line:none;text-decoration-style:solid;text-decoration-color:#000000;letter-spacing:normal;word-spacing:normal;text-transform:none;writing-mode:lr-tb;direction:ltr;text-orientation:mixed;dominant-baseline:auto;baseline-shift:baseline;text-anchor:start;white-space:normal;shape-padding:0;shape-margin:0;inline-size:0;clip-rule:nonzero;display:inline;overflow:visible;visibility:visible;opacity:1;isolation:auto;mix-blend-mode:normal;color-interpolation:sRGB;color-interpolation-filters:linearRGB;solid-color:#000000;solid-opacity:1;vector-effect:none;fill:#ffee33;fill-opacity:1;fill-rule:nonzero;stroke:none;stroke-width:2.30595;stroke-linecap:butt;stroke-linejoin:miter;stroke-miterlimit:4;stroke-dasharray:none;stroke-dashoffset:0;stroke-opacity:1;color-rendering:auto;image-rendering:auto;shape-rendering:auto;text-rendering:auto;enable-background:accumulate;stop-color:#000000;stop-opacity:1" id="path17535" />
    <g transform="matrix(1.0141271,0,0,1.0141271,-146.21251,-31.234531)" style="opacity:1;fill:#ffffff;fill-opacity:1" id="g17499">
      <g id="g17497" transform="translate(161.28,180.12001)" style="fill:#ffffff">
        <path id="path17495" d="m 17.125,-15.109375 h 8 v 2.9375 h -2.515625 c -0.230469,4.21875 -1.105469,7.570312 -2.625,10.046875 1.46875,1.542969 3.398438,2.773438 5.796875,3.703125 C 24.976563,2.429688 24.164063,3.445313 23.34375,4.625 21.207031,3.3125 19.460938,1.910156 18.109375,0.421875 c -1.304687,1.394531 -3,2.6875 -5.09375,3.875 C 12.523438,3.742188 11.851563,3.109375 11,2.390625 V 4.375 H 7.640625 v -7.5 c -2.105469,0.949219 -3.804687,1.789062 -5.09375,2.515625 L 1,-3.4375 C 1.414063,-3.769531 1.71875,-4.082031 1.90625,-4.375 2.101563,-4.675781 2.203125,-5.160156 2.203125,-5.828125 V -16.5 h 2.90625 c 0.4375,0 0.65625,0.105469 0.65625,0.3125 0,0.105469 -0.03125,0.234375 -0.09375,0.390625 -0.15625,0.386719 -0.234375,1.078125 -0.234375,2.078125 v 8.78125 c 0.957031,-0.5 1.691406,-0.910156 2.203125,-1.234375 V -19.78125 H 10.4375 c 0.332031,0 0.546875,0.02734 0.640625,0.07813 0.101563,0.05469 0.15625,0.136719 0.15625,0.25 0,0.117187 -0.04297,0.277344 -0.125,0.484375 C 11.035156,-18.757813 11,-17.921875 11,-16.453125 V -8.6875 c 1.5,-2.1875 2.84375,-6.015625 4.03125,-11.484375 1.820313,0.492187 2.925781,0.820312 3.3125,0.984375 0.394531,0.167969 0.59375,0.324219 0.59375,0.46875 0,0.136719 -0.121094,0.308594 -0.359375,0.515625 -0.230469,0.210937 -0.714844,1.242187 -1.453125,3.09375 z m 2.234375,2.9375 H 16.15625 c 0.226563,2.699219 0.804688,5.027344 1.734375,6.984375 0.925781,-2.050781 1.414063,-4.378906 1.46875,-6.984375 z M 13.9375,-7.84375 c -0.355469,0.625 -0.683594,1.132812 -0.984375,1.515625 C 12.304688,-6.847656 11.65625,-7.289063 11,-7.65625 v 9.25 C 13.019531,0.664063 14.710938,-0.613281 16.078125,-2.25 15.066406,-3.96875 14.351563,-5.832031 13.9375,-7.84375 Z m 0,0" style="fill:#ffffff;stroke:none" />
      </g>
    </g>
    <g transform="matrix(1.0141271,0,0,1.0141271,-153.11626,-31.234531)" style="opacity:1;fill:#ffffff;fill-opacity:1" id="g17505">
      <g id="g17503" transform="translate(187.51259,180.12001)" style="fill:#ffffff">
        <path id="path17501" d="M 26.602977,-0.234375 V -4.28125 h -9.625 V 0.421875 H 13.587352 V -4.90625 l -1.828125,0.734375 C 11.216258,-5.117188 10.435008,-6.0625 9.4154774,-7 12.39204,-7.300781 14.477977,-7.984375 15.665477,-9.046875 h -3.9375 L 12.071727,-14.75 h 5.4375 v -1.015625 h -6.375 v -2.515625 h 6.375 v -1.859375 h 2.796875 c 0.507813,0 0.765625,0.132812 0.765625,0.390625 0,0.105469 -0.04687,0.257812 -0.140625,0.453125 -0.08594,0.199219 -0.152344,0.539062 -0.203125,1.015625 h 2 v -2 h 2.78125 c 0.4375,0 0.65625,0.140625 0.65625,0.421875 0,0.08594 -0.03906,0.257812 -0.109375,0.515625 -0.07422,0.25 -0.125,0.605469 -0.15625,1.0625 h 5.84375 l -0.234375,5.734375 h -5.609375 v 1.109375 h 7.296875 l -0.140625,3.5625 c -0.03125,0.84375 -0.3125,1.421875 -0.84375,1.734375 -0.523437,0.304687 -1.234375,0.511719 -2.140625,0.625 v 5.359375 h -3.25 c 1.832031,0.613281 3.765625,1.296875 5.796875,2.046875 l -2.046875,2.8125 C 27.790477,3.347656 24.868602,2.164063 21.806102,1.15625 l 1.515625,-2.4375 z m -0.703125,-15.53125 V -14.75 h 2.46875 l 0.09375,-1.015625 z M 22.727977,-14.75 v -1.015625 H 20.681102 L 20.649852,-14.75 Z m -5.59375,3.3125 c 0.101563,-0.351563 0.179688,-0.722656 0.234375,-1.109375 h -2.328125 l -0.07813,1.109375 z m 5.59375,0 v -1.109375 h -2.265625 c -0.0625,0.492187 -0.121094,0.859375 -0.171875,1.109375 z m -5.4375,4.59375 h 11.171875 c -0.105469,-0.539063 -0.3125,-1.078125 -0.625,-1.609375 C 28.731883,-8.148438 29.278758,-8 29.477977,-8 c 0.195313,0 0.304688,-0.125 0.328125,-0.375 l 0.03125,-0.671875 h -3.9375 v 1.96875 h -3.171875 v -1.96875 h -3.328125 c -0.5,0.824219 -1.203125,1.558594 -2.109375,2.203125 z m 2.703125,2.796875 c 0.945313,0.042969 1.769531,0.101562 2.46875,0.171875 0.695313,0.0625 1.109375,0.125 1.234375,0.1875 0.125,0.0625 0.1875,0.15625 0.1875,0.28125 0,0.117187 -0.07422,0.273437 -0.21875,0.46875 C 23.247508,-2.375 22.696727,-1.394531 22.009227,0 21.45454,1.113281 20.313915,2.066406 18.587352,2.859375 16.868602,3.660156 14.634227,4.238281 11.884227,4.59375 11.497508,3.625 10.790477,2.59375 9.7592274,1.5 13.290477,1.550781 15.821727,1.15625 17.352977,0.3125 c 1.53125,-0.832031 2.410156,-2.285156 2.640625,-4.359375 z m 0,0" style="fill:#ffffff;stroke:none" />
      </g>
    </g>
    <g transform="matrix(1.0141271,0,0,1.0141271,-151.39663,-31.234531)" style="opacity:1;fill:#ffffff;fill-opacity:1" id="g17511">
      <g id="g17509" transform="translate(213.74519,180.12001)" style="fill:#ffffff">
        <path id="path17507" d="m 23.634227,2.25 v 2.078125 h -3.09375 v -13.03125 h 3.78125 V -19.96875 h 2.9375 c 0.414063,0 0.625,0.08594 0.625,0.25 0,0.167969 -0.04297,0.375 -0.125,0.625 -0.125,0.449219 -0.1875,1.648437 -0.1875,3.59375 h 6.171875 v 2.90625 h -6.171875 v 3.890625 h 4.828125 v 13.03125 h -3.28125 V 2.25 Z m 5.484375,-2.640625 V -5.84375 h -5.484375 v 5.453125 z M 14.321728,-15.21875 h 6.546874 V -12.375 H 9.6342276 v -2.84375 h 4.5625004 c -0.230469,-1.238281 -0.589844,-2.550781 -1.078125,-3.9375 l 3.390624,-0.78125 c 0.382813,1.085937 0.707031,2.398437 0.96875,3.9375 z M 17.915477,-2.5 c 0.988281,-0.238281 1.71875,-0.425781 2.1875,-0.5625 0.01953,0.835937 0.125,1.730469 0.3125,2.6875 -4.011719,0.925781 -7.386718,1.910156 -10.124999,2.953125 L 9.1342276,-0.8125 c 2.6445314,-0.457031 4.6757814,-0.828125 6.0937494,-1.109375 0.539063,-3.4375 0.863281,-6.738281 0.96875,-9.90625 2.144531,0.15625 3.300781,0.261719 3.46875,0.3125 0.164063,0.05469 0.25,0.140625 0.25,0.265625 0,0.117187 -0.109375,0.367187 -0.328125,0.75 -0.21875,0.375 -0.421875,1.105469 -0.609375,2.1875 z m -4.218749,-8.859375 c 0.332031,2.210937 0.628906,5.042969 0.890624,8.5 L 11.759228,-2.5 c -0.261719,-3.019531 -0.648437,-5.796875 -1.15625,-8.328125 z m 0,0" style="fill:#ffffff;stroke:none" />
      </g>
    </g>
    <path d="m 102.99791,30.252593 v 4.611785 65.669452 h 4.61179 47.73263 V 95.922044 H 107.6097 V 34.864378 h 43.12084 v 12.596586 h 4.61179 V 34.864378 30.252593 h -4.61179 z m 23.46075,17.562038 a 7.5845735,7.5845735 0 0 0 -7.58098,7.584606 7.5845735,7.5845735 0 0 0 7.5846,7.584609 7.5845735,7.5845735 0 0 0 7.58447,-7.584609 7.5845735,7.5845735 0 0 0 -7.58447,-7.584606 7.5845735,7.5845735 0 0 0 -0.004,0 z m -6.91627,17.41291 c -3.05752,-2.3e-5 -5.51895,2.46143 -5.51895,5.518946 v 22.234608 h 19.83047 V 79.509087 h 0.0173 v -0.305929 c 0,-0.869092 0.69968,-1.568637 1.56877,-1.568637 0.22151,0 0.47672,0.04588 0.7341,0.128017 l 1.52318,1.734177 v 0.01238 h 0.0109 l 3.6585,4.165203 h 6.19656 4.54697 c 1.68583,2.3e-5 3.04302,-1.357187 3.04302,-3.043018 0,-1.685808 -1.35719,-3.043056 -3.04302,-3.043012 h -7.63798 -1.08803 l -4.76886,-6.898661 -3.46082,-3.986482 c -0.97762,-1.094057 -2.15429,-1.46931 -3.81677,-1.475718 h -3.00282 -0.18207 z m 39.57462,7.653048 v 7.53768 h 12.9906 v -7.53768 z" style="opacity:1;fill:#000000;fill-opacity:1;stroke-width:0.0720063" id="path17543" />
    <path id="path883" style="color:#000000;font-style:normal;font-variant:normal;font-weight:normal;font-stretch:normal;font-size:medium;line-height:normal;font-family:sans-serif;font-variant-ligatures:normal;font-variant-position:normal;font-variant-caps:normal;font-variant-numeric:normal;font-variant-alternates:normal;font-variant-east-asian:normal;font-feature-settings:normal;font-variation-settings:normal;text-indent:0;text-align:start;text-decoration:none;text-decoration-line:none;text-decoration-style:solid;text-decoration-color:#000000;letter-spacing:normal;word-spacing:normal;text-transform:none;writing-mode:lr-tb;direction:ltr;text-orientation:mixed;dominant-baseline:auto;baseline-shift:baseline;text-anchor:start;white-space:normal;shape-padding:0;shape-margin:0;inline-size:0;clip-rule:nonzero;display:inline;overflow:visible;visibility:visible;opacity:1;isolation:auto;mix-blend-mode:normal;color-interpolation:sRGB;color-interpolation-filters:linearRGB;solid-color:#000000;solid-opacity:1;vector-effect:none;fill:#000000;fill-opacity:1;fill-rule:evenodd;stroke:none;stroke-width:0.935858;stroke-linecap:butt;stroke-linejoin:miter;stroke-miterlimit:4;stroke-dasharray:none;stroke-dashoffset:0;stroke-opacity:1;color-rendering:auto;image-rendering:auto;shape-rendering:auto;text-rendering:auto;enable-background:accumulate;stop-color:#000000;stop-opacity:1" d="m 77.866734,40.202867 -0.382515,0.928661 c 4.822961,0.116427 8.743105,3.65431 9.45565,8.298345 l 0.88315,-0.415026 c -0.87241,-4.827994 -4.945664,-8.526256 -9.956285,-8.81198 z m -1.862737,4.515435 -0.367348,0.890734 c 3.386525,0.339048 6.165536,2.629158 7.223396,5.737757 l 0.846305,-0.397688 c -1.172872,-3.307884 -4.117001,-5.763299 -7.702353,-6.230803 z m -1.400036,3.393892 -0.359757,0.871228 c 2.172073,0.648591 3.981183,2.10135 5.100589,4.015888 l 0.845218,-0.397688 c -1.22067,-2.122782 -3.203509,-3.74879 -5.58605,-4.489428 z m -1.123712,2.724215 -0.355424,0.860393 c 1.27922,0.637232 2.377693,1.5713 3.210761,2.716629 l 0.856059,-0.403106 c -0.945661,-1.348043 -2.221431,-2.441496 -3.711396,-3.173916 z m -16.870844,0.649087 c -0.375452,-0.0025 -0.763444,-10e-4 -1.165971,0.0033 -5.451797,0.07071 -7.624658,-0.0015 -11.223032,1.083617 -3.713748,1.119938 -10.27053,5.471186 -10.27053,5.471186 l -5.986988,0.324002 c 0,0 -1.15971,2.085607 -1.170307,4.039729 -0.0048,0.798667 0.294746,1.574351 0.576485,2.140142 l -1.659018,1.165971 c 2.7e-5,0 -0.305226,3.652569 2.205161,4.135089 l 5.263134,0.687013 c 0,0 -0.207989,-6.083677 6.124606,-6.314241 2.879926,0.124716 3.843978,1.444548 4.955384,2.856418 0.811091,1.200369 0.954771,2.480821 0.966588,3.326704 h -0.01515 l 0.0065,0.612247 31.912549,-0.346758 -0.0076,-0.612246 c 0,0 0.30553,-5.556839 6.146283,-5.800607 5.736838,0.262054 5.911132,5.739927 5.911132,5.739927 l 3.613869,-0.03901 1.651432,-0.882064 c 0,0 -0.0374,-1.07143 -0.09102,-2.149898 l 0.649086,-0.232976 -0.02274,-2.051291 -0.930825,-0.822465 c -0.0028,-0.0062 -0.005,-0.02391 -0.0076,-0.02924 0,0 -0.262598,-2.03206 -3.450239,-3.018959 -6.791837,-1.95556 -13.514886,-2.245263 -13.514886,-2.245263 l -12.23514,-6.266625 c 0,0 -2.599507,-0.739012 -8.231163,-0.773702 z m 4.575033,1.653601 c 0.82353,-0.01413 2.409261,0.949126 3.538016,1.57558 2.744307,1.523077 7.802047,5.271802 7.802047,5.271802 l -15.768808,-0.450785 -0.953584,-6.30449 z m -7.172464,0.172294 0.620912,6.192879 -14.186723,-0.159293 c 0,0 1.152057,-2.362726 2.088131,-3.244353 0.944213,-0.889297 3.010096,-1.864446 3.391722,-1.906083 z m 29.053962,11.691151 c -2.898755,0.03151 -5.224767,2.388112 -5.192699,5.263133 0.03206,2.872729 2.409882,5.176537 5.308644,5.145019 h 0.0011 c 2.898761,-0.03151 5.224767,-2.387152 5.192699,-5.259882 -0.03213,-2.875021 -2.409877,-5.179789 -5.308644,-5.14827 z m -43.908196,0.0097 c -0.271758,0.0028 -0.538429,0.02596 -0.798625,0.06827 -0.34678,0.05643 -0.682192,0.146376 -1.002346,0.26657 -0.159997,0.06009 -0.316066,0.127941 -0.468124,0.202634 -0.456377,0.224239 -0.87495,0.512808 -1.243994,0.852808 -0.0023,0.0023 -0.0044,0.0033 -0.0065,0.0055 -0.05929,0.05481 -0.117786,0.1116 -0.17446,0.16904 -0.05879,0.05959 -0.116427,0.11974 -0.172297,0.182051 -0.279004,0.311183 -0.520519,0.656304 -0.718437,1.027268 -0.0791,0.148274 -0.151021,0.301003 -0.21564,0.457288 -0.05668,0.137049 -0.106767,0.277866 -0.151708,0.420442 -0.0063,0.02003 -0.01342,0.0395 -0.01952,0.0596 -0.147853,0.490532 -0.224938,1.011739 -0.218891,1.550661 0.0023,0.179538 0.01265,0.356295 0.03252,0.530973 0.02979,0.261998 0.07985,0.518588 0.147368,0.767199 0.045,0.165601 0.0976,0.327961 0.158211,0.486543 0.06067,0.15871 0.129382,0.314063 0.204803,0.464872 0.03773,0.07541 0.07689,0.148867 0.118114,0.222142 0.08248,0.146548 0.171765,0.289595 0.267653,0.426949 0.04794,0.06867 0.09736,0.135336 0.148457,0.201553 0.1534,0.198662 0.321624,0.386721 0.501716,0.561315 0.06003,0.05819 0.121448,0.114818 0.184214,0.170127 0.125554,0.110607 0.256407,0.214762 0.392269,0.313164 0.475492,0.344422 1.011329,0.612352 1.588583,0.783456 0.16493,0.04888 0.33265,0.08968 0.503882,0.122447 0.342469,0.0656 0.697437,0.09799 1.059779,0.09427 h 0.0023 c 0.181018,-0.0023 0.360278,-0.01282 0.536386,-0.03252 0.01049,-0.0011 0.02092,-0.0033 0.0314,-0.0044 0.232195,-0.02735 0.459834,-0.07044 0.681598,-0.126786 0.02014,-0.005 0.04072,-0.0087 0.06068,-0.01409 0.25067,-0.06684 0.493955,-0.152379 0.728192,-0.253566 0.312342,-0.134975 0.609361,-0.298821 0.886401,-0.488711 v -0.0011 c 0.06919,-0.04744 0.137,-0.09678 0.203721,-0.147375 h 0.0011 c 0.200443,-0.152003 0.38949,-0.317831 0.565649,-0.496297 0.11742,-0.118974 0.228205,-0.243124 0.333752,-0.372762 0.158327,-0.19445 0.303233,-0.400629 0.432365,-0.616579 0.0861,-0.143969 0.165285,-0.291859 0.237317,-0.444283 0.036,-0.07622 0.07059,-0.153738 0.102938,-0.231895 0.161745,-0.390927 0.276531,-0.805033 0.338093,-1.23641 0.01226,-0.08624 0.02236,-0.173623 0.03035,-0.261151 0.0162,-0.17506 0.02281,-0.352511 0.02058,-0.532059 -0.0011,-0.08999 -0.0044,-0.178833 -0.0097,-0.267653 -0.0011,-0.0071 -0.0016,-0.01454 -0.0023,-0.0217 -0.01054,-0.159054 -0.02852,-0.315516 -0.0531,-0.470292 -0.0011,-0.01054 -0.0023,-0.02092 -0.0044,-0.0314 v -0.0011 c -0.0028,-0.01632 -0.0065,-0.03245 -0.0097,-0.04877 -0.03779,-0.215223 -0.08819,-0.425492 -0.151707,-0.630666 -0.0076,-0.02435 -0.01487,-0.04838 -0.02275,-0.0726 v -0.0011 c -0.02647,-0.08122 -0.05415,-0.161162 -0.08452,-0.240567 -0.303273,-0.793943 -0.797333,-1.49477 -1.424958,-2.048035 -0.125537,-0.110656 -0.256424,-0.214723 -0.392269,-0.313168 -0.203772,-0.147658 -0.418123,-0.282106 -0.642584,-0.399854 -0.07471,-0.03917 -0.150793,-0.07592 -0.227562,-0.111612 -0.0769,-0.03573 -0.155208,-0.06978 -0.234064,-0.101858 -0.157605,-0.06409 -0.319589,-0.121253 -0.484374,-0.170128 -0.08246,-0.02447 -0.165133,-0.04666 -0.249233,-0.06719 -0.08395,-0.02047 -0.169179,-0.03889 -0.254652,-0.05526 -0.25684,-0.04921 -0.520343,-0.08047 -0.788872,-0.09102 -0.08951,-0.0039 -0.179237,-0.0039 -0.269821,-0.0033 z m 43.933119,2.247423 h 0.0011 c 1.640857,-0.01786 2.989928,1.28722 3.008125,2.916015 0.0182,1.628791 -1.301179,2.963209 -2.942025,2.981035 h -0.0011 c -1.64084,0.01786 -2.987814,-1.28722 -3.005956,-2.916016 -0.0182,-1.628796 1.29901,-2.963208 2.939856,-2.981034 z m -43.908198,0.0086 h 0.0023 c 0.820301,-0.0089 1.56791,0.313369 2.111971,0.840884 0.06802,0.06595 0.132544,0.134837 0.193967,0.206973 0.06141,0.07214 0.119063,0.147547 0.173379,0.225392 0.05432,0.07783 0.104993,0.157512 0.151709,0.240562 v 0.0011 c 0.04666,0.08294 0.09039,0.168074 0.128949,0.255729 0.0773,0.175676 0.13696,0.359897 0.178794,0.551562 0.04178,0.191532 0.06497,0.390222 0.06719,0.593826 0.0011,0.101797 -0.0028,0.201997 -0.01193,0.301241 -0.009,0.0994 -0.02352,0.197325 -0.04228,0.293663 -0.03257,0.167075 -0.08111,0.328564 -0.140866,0.484379 -0.009,0.02352 -0.01642,0.04716 -0.02603,0.07043 v 0.0011 c -0.03662,0.08848 -0.07768,0.173955 -0.122447,0.257899 -0.269134,0.50448 -0.680767,0.922797 -1.18331,1.200647 -0.251242,0.138903 -0.525341,0.242437 -0.814881,0.304498 -0.193019,0.04139 -0.393057,0.06496 -0.598159,0.06718 h -0.0033 c -0.820423,0.0089 -1.566806,-0.31323 -2.110889,-0.840884 -0.20401,-0.197852 -0.378904,-0.424859 -0.519049,-0.674014 h -0.0011 c -0.04661,-0.08289 -0.08937,-0.168141 -0.127862,-0.255729 v -0.0011 c -0.110269,-0.250814 -0.18386,-0.520164 -0.219977,-0.801876 -0.0016,-0.01387 -0.0055,-0.02725 -0.0076,-0.04117 -0.01121,-0.09902 -0.01731,-0.199445 -0.01842,-0.301247 -0.0011,-0.101643 0.0028,-0.20214 0.01193,-0.301241 v -0.0011 c 0.01809,-0.19834 0.05578,-0.39132 0.111611,-0.576483 0.0838,-0.27795 0.208571,-0.538834 0.366266,-0.775872 0.367901,-0.552898 0.919008,-0.97521 1.567994,-1.183309 0.09275,-0.02974 0.187398,-0.05627 0.283909,-0.07694 0.193018,-0.04139 0.39305,-0.06389 0.598154,-0.0661 z" />
    <g id="surface529739" transform="matrix(0.70127822,0,0,0.70127822,-23.219417,24.74396)" style="opacity:1">
      <g id="g1023" style="fill:#000000;fill-opacity:1">
        <g transform="translate(93.599998,99)" id="use1021">
          <path style="stroke:none" d="M 17.765625,0 H 2.84375 v -20.265625 h 14.625 v 4.046875 H 6.890625 v 3.421875 H 12.84375 V -8.75 H 6.890625 v 4.703125 h 10.875 z m 0,0" id="path1044" />
        </g>
      </g>
      <g id="g1027" style="fill:#000000;fill-opacity:1">
        <g transform="translate(112.85225,99)" id="use1025">
          <path style="stroke:none" d="M 15.8125,-16.34375 H 10.265625 V 0 H 6.3125 v -16.34375 h -5.5 v -3.921875 h 15 z m 0,0" id="path1048" />
        </g>
      </g>
      <g id="g1031" style="fill:#000000;fill-opacity:1">
        <g transform="translate(129.46999,99)" id="use1029">
          <path style="stroke:none" d="m 18.140625,-4.21875 c -1.761719,2.949219 -4.242187,4.421875 -7.4375,4.421875 -2.605469,0 -4.703125,-0.957031 -6.296875,-2.875 -1.585937,-1.914063 -2.375,-4.609375 -2.375,-8.078125 0,-2.582031 0.796875,-4.84375 2.390625,-6.78125 1.601563,-1.9375 3.664063,-2.90625 6.1875,-2.90625 1.59375,0 3.066406,0.382812 4.421875,1.140625 1.351563,0.75 2.390625,1.8125 3.109375,3.1875 l -3.484375,1.890625 c -0.449219,-0.789063 -1.03125,-1.363281 -1.75,-1.71875 -0.71875,-0.363281 -1.417969,-0.546875 -2.09375,-0.546875 -1.554687,0 -2.746094,0.601562 -3.578125,1.796875 -0.835937,1.1875 -1.25,2.726562 -1.25,4.609375 0,1.875 0.414063,3.390625 1.25,4.546875 0.832031,1.148437 1.804688,1.71875 2.921875,1.71875 1.113281,0 1.953125,-0.140625 2.515625,-0.421875 0.5625,-0.28125 1.222656,-0.90625 1.984375,-1.875 z m 0,0" id="path1052" />
        </g>
      </g>
      <g id="g1035" style="fill:#000000;fill-opacity:1">
        <g transform="translate(93.599998,131.52)" id="use1033">
          <path style="stroke:none" d="" id="path1056" />
        </g>
      </g>
    </g>
    <path style="fill:#ffffff;fill-opacity:1;fill-rule:nonzero;stroke:none;stroke-width:3.09681;opacity:1" d="m 151.69165,155.37856 h -12.81692 c 0.13097,-2.74481 0.53404,-4.99585 1.20915,-6.7386 0.69526,-1.7718 1.53158,-3.19505 2.4989,-4.24069 0.98745,-1.07468 2.23692,-1.98963 3.74834,-2.73029 0.61466,-0.26127 1.09831,-0.65354 1.45097,-1.16184 0.37283,-0.53735 0.56426,-1.10373 0.56426,-1.68466 0,-0.58091 -0.30228,-1.10373 -0.8867,-1.56847 -0.56427,-0.46471 -1.27968,-0.6971 -2.13616,-0.6971 -1.56181,0 -2.97246,0.78426 -4.23201,2.32368 l -2.21675,-3.31122 c 1.04793,-1.19086 2.0757,-2.09129 3.10348,-2.67222 1.01769,-0.58091 2.17646,-0.87138 3.4662,-0.87138 1.95478,0 3.44605,0.63902 4.47382,1.91702 1.04794,1.24898 1.57189,2.83198 1.57189,4.76353 0,1.94604 -0.43326,3.52904 -1.28974,4.76349 -0.86655,1.24898 -2.36791,2.38176 -4.51414,3.42741 -1.07816,0.5809 -2.04547,1.85891 -2.90195,3.83404 h 8.90736 z m 0,0" id="path6709" />
    <path style="fill:#ffffff;fill-opacity:1;fill-rule:nonzero;stroke:none;stroke-width:1.71652;opacity:1" d="m 163.09776,146.60845 -2.05319,2.64869 2.0043,6.12142 h -2.0043 l -1.29547,-4.09076 -1.14881,1.41264 v 2.67812 h -1.93099 v -11.03623 l 1.93099,-0.91232 v 5.65055 l 2.05319,-2.47211 z m 0,0" id="path6711" />
    <path style="fill:#ffffff;fill-opacity:1;fill-rule:nonzero;stroke:none;stroke-width:1.71652;opacity:1" d="m 176.60854,155.37856 h -1.90653 v -5.26795 c 0,-0.36788 -0.13445,-0.69161 -0.3911,-0.97118 -0.26274,-0.27224 -0.56218,-0.41203 -0.90437,-0.41203 -0.32998,0 -0.61108,0.13985 -0.85552,0.41203 -0.23221,0.27957 -0.34217,0.6033 -0.34217,0.97118 v 5.26795 h -1.88211 v -5.29738 c 0,-0.35317 -0.11001,-0.66218 -0.31775,-0.94175 -0.21388,-0.27224 -0.5072,-0.41203 -0.87995,-0.41203 -0.36053,0 -0.67218,0.13236 -0.92883,0.38259 -0.24444,0.25752 -0.36665,0.58124 -0.36665,0.97119 v 5.29738 h -1.93097 v -8.77011 h 1.93097 v 0.52973 c 0.5683,-0.42672 1.17936,-0.64746 1.83321,-0.64746 0.81273,0 1.45435,0.33845 1.93098,1.00062 0.66608,-0.66217 1.39325,-1.00062 2.17542,-1.00062 0.78218,0 1.44824,0.28694 2.0043,0.85347 0.55,0.57388 0.83107,1.25078 0.83107,2.03066 z m 0,0" id="path6713" />
  </g>
</svg>
