<?xml version="1.0" encoding="UTF-8"?>
<svg xmlns="http://www.w3.org/2000/svg" xmlns:ns1="http://sodipodi.sourceforge.net/DTD/sodipodi-0.dtd" viewBox="0 0 155.90752 163.96799" height="163.96799" width="155.90752" id="svg13557" version="1.1">
  <defs id="defs13561" />
  <ns1:namedview showgrid="false" id="namedview13559" guidetolerance="10" gridtolerance="10" objecttolerance="10" borderopacity="1" bordercolor="#666666" pagecolor="#ffffff" />
  <g transform="translate(-4.291,-2.5448071)" id="g13565">
    <path style="color:#000000;font-style:normal;font-variant:normal;font-weight:normal;font-stretch:normal;font-size:medium;line-height:normal;font-family:sans-serif;font-variant-ligatures:normal;font-variant-position:normal;font-variant-caps:normal;font-variant-numeric:normal;font-variant-alternates:normal;font-variant-east-asian:normal;font-feature-settings:normal;font-variation-settings:normal;text-indent:0;text-align:start;text-decoration:none;text-decoration-line:none;text-decoration-style:solid;text-decoration-color:#000000;letter-spacing:normal;word-spacing:normal;text-transform:none;writing-mode:lr-tb;direction:ltr;text-orientation:mixed;dominant-baseline:auto;baseline-shift:baseline;text-anchor:start;white-space:normal;shape-padding:0;shape-margin:0;inline-size:0;clip-rule:nonzero;display:inline;overflow:visible;visibility:visible;opacity:1;isolation:auto;mix-blend-mode:normal;color-interpolation:sRGB;color-interpolation-filters:linearRGB;solid-color:#000000;solid-opacity:1;vector-effect:none;fill:#245041;fill-opacity:1;fill-rule:nonzero;stroke:none;stroke-width:0.5;stroke-linecap:butt;stroke-linejoin:miter;stroke-miterlimit:4;stroke-dasharray:none;stroke-dashoffset:0;stroke-opacity:1;color-rendering:auto;image-rendering:auto;shape-rendering:auto;text-rendering:auto;enable-background:accumulate;stop-color:#000000;stop-opacity:1" d="m 14.166973,2.7948071 c -5.3107751,0 -9.6256175,4.3132552 -9.6256301,9.6240189 L 4.541,156.63717 c -1.26e-5,5.31077 4.3148551,9.62563 9.62563,9.62563 h 136.15752 c 5.31076,0 9.624,-4.31486 9.62401,-9.62563 l 3.5e-4,-144.218344 c 1e-5,-5.3107637 -4.31325,-9.6240189 -9.62402,-9.6240189 z" id="path6631" />
    <path id="path6633" style="color:#000000;font-style:normal;font-variant:normal;font-weight:normal;font-stretch:normal;font-size:medium;line-height:normal;font-family:sans-serif;font-variant-ligatures:normal;font-variant-position:normal;font-variant-caps:normal;font-variant-numeric:normal;font-variant-alternates:normal;font-variant-east-asian:normal;font-feature-settings:normal;font-variation-settings:normal;text-indent:0;text-align:start;text-decoration:none;text-decoration-line:none;text-decoration-style:solid;text-decoration-color:#000000;letter-spacing:normal;word-spacing:normal;text-transform:none;writing-mode:lr-tb;direction:ltr;text-orientation:mixed;dominant-baseline:auto;baseline-shift:baseline;text-anchor:start;white-space:normal;shape-padding:0;shape-margin:0;inline-size:0;clip-rule:nonzero;display:inline;overflow:visible;visibility:visible;opacity:1;isolation:auto;mix-blend-mode:normal;color-interpolation:sRGB;color-interpolation-filters:linearRGB;solid-color:#000000;solid-opacity:1;vector-effect:none;fill:#ffffff;fill-opacity:1;fill-rule:nonzero;stroke:none;stroke-width:2.34577;stroke-linecap:butt;stroke-linejoin:miter;stroke-miterlimit:4;stroke-dasharray:none;stroke-dashoffset:0;stroke-opacity:1;color-rendering:auto;image-rendering:auto;shape-rendering:auto;text-rendering:auto;enable-background:accumulate;stop-color:#000000;stop-opacity:1" d="m 14.167089,5.2673021 c -3.983411,0 -7.1515189,3.1681229 -7.1515284,7.1515329 L 7.0152178,156.63718 c -9.5e-6,3.9834 3.1681172,7.15152 7.1515282,7.15152 H 150.32426 c 3.98341,0 7.15153,-3.16812 7.15154,-7.15152 l 3.4e-4,-144.218345 c 1e-5,-3.98341 -3.16813,-7.1515329 -7.15153,-7.1515329 z m -0.0049,2.5272921 H 150.33094 c 2.55202,0 4.60653,2.0705147 4.60652,4.6322948 L 154.93712,156.642 c -1e-5,2.55401 -2.05252,4.60652 -4.60652,4.60652 H 14.161805 c -2.554001,0 -4.6065176,-2.05251 -4.6065115,-4.60652 L 9.5556361,12.426889 c 6.1e-6,-2.5617801 2.0544849,-4.6322948 4.6065119,-4.6322948 z" />
    <path id="rect4576" style="opacity:1;fill:#ffffff;fill-opacity:1;fill-rule:evenodd;stroke-width:0.455246;stroke-linecap:round" d="m 47.134747,82.49369 -4.273211,24.01882 h 8.941439 V 82.49369 Z m 7.814324,0 v 24.01882 h 8.94144 L 59.6173,82.49369 Z m -27.826787,25.20739 v 2.39643 h 5.080802 v 3.64119 h 2.29988 v -3.64119 h 37.519639 v 3.64119 h 2.301633 v -3.64119 h 4.842035 v -2.39643 z m 14.617191,3.72114 -7.189107,41.80418 h 17.252607 l -2.1e-4,-41.80418 z m 13.209384,0 2.12e-4,41.80418 H 72.201679 L 65.01215,111.42222 Z" />
    <path id="rect2083" style="opacity:1;fill:#c0111e;fill-opacity:1;stroke-width:0.420021" d="M 79.646075,82.676119 21.611861,152.54506 h 5.962131 L 85.608209,82.676119 Z" />
    <path id="path2408" d="m 131.12626,144.52006 -2.51324,2.71008 2.43541,6.19381 h -2.43541 l -1.58393,-4.15667 -1.40082,1.44659 v 2.71008 h -2.3759 v -11.17908 l 2.3759,-0.93388 v 5.7223 l 2.51323,-2.51323 z m 0,0" style="opacity:1;fill:#ffffff;fill-opacity:1;stroke:none;stroke-width:0.292981" />
    <path id="path2412" d="m 147.84989,153.42396 h -2.3347 v -5.34234 c 0,-0.38454 -0.15565,-0.71414 -0.46694,-0.98881 -0.309,-0.27696 -0.67065,-0.41658 -1.08495,-0.41658 -0.41544,0 -0.7645,0.14191 -1.04833,0.42573 -0.28382,0.28383 -0.42574,0.61114 -0.42574,0.97966 v 5.34234 h -2.29807 v -5.38354 c 0,-0.35707 -0.13276,-0.67294 -0.39827,-0.94761 -0.26323,-0.27696 -0.61572,-0.41658 -1.05748,-0.41658 -0.43948,0 -0.81486,0.13275 -1.12615,0.39827 -0.30901,0.26322 -0.46237,0.58481 -0.46237,0.96592 v 5.38354 H 134.771 v -8.9039 h 2.37589 v 0.55392 c 0.69812,-0.44863 1.44317,-0.67294 2.23399,-0.67294 0.98881,0 1.77277,0.34334 2.35301,1.03001 0.81715,-0.67409 1.70067,-1.0117 2.65057,-1.0117 0.95219,0 1.76705,0.28726 2.44457,0.86063 0.67981,0.57452 1.02086,1.26349 1.02086,2.06919 z m 0,0" style="opacity:1;fill:#ffffff;fill-opacity:1;stroke:none;stroke-width:0.292981" />
    <g transform="matrix(1.482778,0,0,1.8792364,-242.55316,-68.611324)" style="opacity:1;fill:#ffffff;fill-opacity:1" id="g3143">
      <g style="fill:#ffffff" transform="translate(232.10463,118.08)" id="use3141">
        <path id="path15165" d="M 10.890625,0 H 1.296875 C 1.410156,-1.425781 1.722656,-2.597656 2.234375,-3.515625 2.742188,-4.441406 3.363281,-5.179688 4.09375,-5.734375 4.820313,-6.285156 5.753906,-6.75 6.890625,-7.125 c 0.46875,-0.132813 0.832031,-0.335938 1.09375,-0.609375 0.269531,-0.28125 0.40625,-0.570313 0.40625,-0.875 0,-0.3125 -0.21875,-0.585938 -0.65625,-0.828125 C 7.304688,-9.675781 6.769531,-9.796875 6.125,-9.796875 c -1.179687,0 -2.230469,0.40625 -3.15625,1.21875 L 1.296875,-10.3125 c 0.789063,-0.613281 1.566406,-1.070313 2.328125,-1.375 0.757813,-0.300781 1.628906,-0.453125 2.609375,-0.453125 1.46875,0 2.585938,0.324219 3.359375,0.96875 0.769531,0.648437 1.15625,1.480469 1.15625,2.5 0,1.011719 -0.324219,1.839844 -0.96875,2.484375 -0.648437,0.636719 -1.773437,1.230469 -3.375,1.78125 -0.804687,0.292969 -1.527344,0.960937 -2.171875,2 h 6.65625 z m 0,0" style="fill:#ffffff;stroke:none" />
      </g>
    </g>
    <g style="opacity:1" id="g16111">
      <path id="path16113" d="m 57.935547,17.107422 c -1.565396,0 -3.068776,0.400594 -4.132813,1.464844 -1.064037,1.06425 -1.464843,2.567702 -1.464843,4.132812 v 35.966797 c 0,1.565428 0.400661,3.068596 1.464843,4.132813 1.064183,1.064216 2.567617,1.464843 4.132813,1.464843 l 47.767573,0.0059 c 1.5652,0 3.06864,-0.400626 4.13282,-1.464844 1.06418,-1.064219 1.46484,-2.567384 1.46484,-4.132813 V 22.705078 c 0,-1.565191 -0.40072,-3.068622 -1.46484,-4.132812 -1.06412,-1.064191 -2.56742,-1.464844 -4.13282,-1.464844 z m 0,3.666016 h 47.767573 c 0.97891,0 1.35867,0.210213 1.54102,0.392578 0.18235,0.182365 0.39063,0.560285 0.39063,1.539062 v 35.972656 c 0,0.97937 -0.20851,1.358887 -0.39063,1.541016 -0.18191,0.181912 -0.56255,0.392081 -1.53906,0.392578 l -47.769533,-0.0078 c -0.9791,0 -1.358892,-0.208496 -1.541016,-0.390625 -0.182123,-0.18213 -0.390625,-0.561651 -0.390625,-1.541016 V 22.705078 c 0,-0.978858 0.208356,-1.356757 0.390625,-1.539062 0.182269,-0.182306 0.562115,-0.392578 1.541016,-0.392578 z" style="color:#000000;font-style:normal;font-variant:normal;font-weight:normal;font-stretch:normal;font-size:medium;line-height:normal;font-family:sans-serif;font-variant-ligatures:normal;font-variant-position:normal;font-variant-caps:normal;font-variant-numeric:normal;font-variant-alternates:normal;font-variant-east-asian:normal;font-feature-settings:normal;font-variation-settings:normal;text-indent:0;text-align:start;text-decoration:none;text-decoration-line:none;text-decoration-style:solid;text-decoration-color:#000000;letter-spacing:normal;word-spacing:normal;text-transform:none;writing-mode:lr-tb;direction:ltr;text-orientation:mixed;dominant-baseline:auto;baseline-shift:baseline;text-anchor:start;white-space:normal;shape-padding:0;shape-margin:0;inline-size:0;clip-rule:nonzero;display:inline;overflow:visible;visibility:visible;isolation:auto;mix-blend-mode:normal;color-interpolation:sRGB;color-interpolation-filters:linearRGB;solid-color:#000000;solid-opacity:1;vector-effect:none;fill:#ffffff;fill-opacity:1;fill-rule:nonzero;stroke:none;stroke-width:3.666;stroke-linecap:butt;stroke-linejoin:miter;stroke-miterlimit:4;stroke-dasharray:none;stroke-dashoffset:0;stroke-opacity:1;paint-order:stroke fill markers;color-rendering:auto;image-rendering:auto;shape-rendering:auto;text-rendering:auto;enable-background:accumulate;stop-color:#000000;stop-opacity:1" />
      <path id="path16115" d="m 109.46873,58.678268 c 0,2.544798 -1.22046,3.765094 -3.76476,3.765094 l -47.768529,-0.0068 c -2.544296,0 -3.76476,-1.220296 -3.76476,-3.765089 l -1.67e-4,-35.965715 c 0,-2.543968 1.220464,-3.765095 3.764761,-3.765095 h 47.768355 c 2.5443,0 3.7651,1.221127 3.7651,3.765095 z" style="color:#000000;font-style:normal;font-variant:normal;font-weight:normal;font-stretch:normal;font-size:medium;line-height:normal;font-family:sans-serif;font-variant-ligatures:normal;font-variant-position:normal;font-variant-caps:normal;font-variant-numeric:normal;font-variant-alternates:normal;font-variant-east-asian:normal;font-feature-settings:normal;font-variation-settings:normal;text-indent:0;text-align:start;text-decoration:none;text-decoration-line:none;text-decoration-style:solid;text-decoration-color:#000000;letter-spacing:normal;word-spacing:normal;text-transform:none;writing-mode:lr-tb;direction:ltr;text-orientation:mixed;dominant-baseline:auto;baseline-shift:baseline;text-anchor:start;white-space:normal;shape-padding:0;shape-margin:0;inline-size:0;clip-rule:nonzero;display:inline;overflow:visible;visibility:visible;isolation:auto;mix-blend-mode:normal;color-interpolation:sRGB;color-interpolation-filters:linearRGB;solid-color:#000000;solid-opacity:1;vector-effect:none;fill:#245041;fill-opacity:1;fill-rule:nonzero;stroke:none;stroke-width:3.666;stroke-linecap:butt;stroke-linejoin:miter;stroke-miterlimit:4;stroke-dasharray:none;stroke-dashoffset:0;stroke-opacity:1;paint-order:stroke fill markers;color-rendering:auto;image-rendering:auto;shape-rendering:auto;text-rendering:auto;enable-background:accumulate;stop-color:#000000;stop-opacity:1" />
    </g>
    <path style="opacity:1;stroke-width:0.166457" fill="#ff0000" d="m 54.170514,31.561412 v -8.855351 c 0,-2.544964 1.220631,-3.765427 3.764761,-3.765427 h 47.768355 c 2.54464,0 3.7651,1.220463 3.7651,3.765427 v 8.855351 z" id="path15486" />
    <path style="opacity:1;stroke-width:0.166457" fill="#ffffff" d="m 63.018208,27.371019 v 0.259674 h -0.61922 v -4.504329 h 3.984816 v 4.464382 h -0.634202 v -0.219727 z m 2.73156,-0.529332 v -3.176 h -2.73156 v 3.176 z m -1.732818,-2.39199 h -0.858918 v -0.49937 h 2.411963 v 0.49937 h -0.943811 v 0.429463 h 0.848931 v 0.499371 h -0.309444 c 0.109695,0.163127 0.216394,0.33291 0.319597,0.509522 l -0.334745,0.139822 h 0.509526 v 0.514358 h -2.556781 v -0.514358 h 0.913849 v -0.649178 h -0.764038 v -0.499371 h 0.764038 v -0.429629 z m 1.093623,0.928834 h -0.484389 v 0.649178 h 0.319597 c -0.06991,-0.133331 -0.159799,-0.274654 -0.26966,-0.424628 z" id="path15488" />
    <path style="opacity:1;stroke-width:0.166457" fill="#ffffff" d="m 75.29758,24.58952 h -0.803987 v -0.479395 h 2.666809 V 24.58952 H 76.17664 c -0.109861,0.08673 -0.228046,0.173117 -0.354553,0.259839 0.19309,0.176612 0.341237,0.376197 0.44444,0.599246 0.299623,-0.153141 0.605904,-0.379519 0.91901,-0.679145 0.276152,0.196422 0.43695,0.314773 0.481893,0.354553 0.04511,0.03993 0.06742,0.07408 0.06742,0.102374 0,0.0283 -0.04078,0.05245 -0.122346,0.07241 -0.08156,0.01999 -0.268828,0.109861 -0.561793,0.269659 0.126508,0.519347 0.46608,0.953633 1.018718,1.303357 -0.196586,0.126509 -0.378024,0.274489 -0.544315,0.444444 -0.466246,-0.376363 -0.774025,-0.875568 -0.924003,-1.498118 -0.03979,0.02331 -0.09821,0.05494 -0.17478,0.09488 0.05992,0.286301 0.08989,0.540985 0.08989,0.764034 0,0.342901 -0.08739,0.586597 -0.26217,0.731747 -0.17478,0.144652 -0.478564,0.217224 -0.911353,0.217224 -0.01998,-0.226378 -0.09338,-0.431119 -0.219723,-0.614056 0.100041,0.0033 0.186432,0.005 0.25984,0.005 0.216394,0 0.357716,-0.01999 0.424465,-0.05976 0.06642,-0.03993 0.09987,-0.105037 0.09987,-0.194755 0,-0.09005 -0.0067,-0.221388 -0.01998,-0.394672 -0.512688,0.419643 -1.146889,0.77902 -1.902604,1.078646 -0.08323,-0.206407 -0.211567,-0.366205 -0.384516,-0.4794 0.376193,-0.100041 0.764871,-0.256339 1.166032,-0.469409 0.400995,-0.213065 0.738237,-0.440944 1.011227,-0.684136 -0.01998,-0.07308 -0.03995,-0.131337 -0.05992,-0.174612 -0.38618,0.292963 -0.915514,0.580931 -1.588001,0.863743 -0.09987,-0.159798 -0.224717,-0.304616 -0.374528,-0.434452 0.642358,-0.156304 1.206814,-0.429291 1.692868,-0.818968 -0.02663,-0.03328 -0.06492,-0.06808 -0.114854,-0.104871 -0.479397,0.269665 -0.928665,0.466248 -1.348303,0.589261 -0.106699,-0.183103 -0.218225,-0.346229 -0.334579,-0.489385 0.745395,-0.163459 1.294703,-0.381519 1.647592,-0.654512 z m 0.199915,-1.23361 c -0.01,-0.113189 -0.03812,-0.246194 -0.08489,-0.399496 l 0.794,-0.0849 c 0.0233,0.159965 0.03496,0.32143 0.03496,0.484391 h 1.722997 v 1.013722 h -0.65917 v -0.514346 h -2.93647 v 0.514351 h -0.61406 V 23.35591 Z" id="path15490" />
    <path style="opacity:1;stroke-width:0.166457" fill="#ffffff" d="m 86.988028,23.3361 c -0.02663,-0.143151 -0.05493,-0.269825 -0.08489,-0.379686 l 0.784013,-0.06991 c 0.03312,0.173284 0.05493,0.323091 0.06492,0.4496 h 1.702856 v 0.519181 H 85.15534 v -0.519181 z m -0.115022,3.765094 v 0.164794 h -0.544314 v -1.313515 h 1.962529 v 1.02887 c 0.116353,0.01667 0.200414,0.02481 0.252182,0.02481 0.0516,0 0.08406,-0.01063 0.09738,-0.03229 0.01331,-0.02165 0.01998,-0.06425 0.01998,-0.127339 V 25.797673 H 85.97914 v 1.767777 h -0.614061 v -2.271805 h 3.930052 v 1.612802 c 0,0.163127 -0.0243,0.291297 -0.07258,0.384681 -0.04827,0.09305 -0.137327,0.164794 -0.266997,0.214565 -0.129837,0.05012 -0.321429,0.08323 -0.574277,0.100042 -0.0035,-0.166627 -0.03329,-0.311278 -0.08989,-0.434453 v 0.0749 h -0.574276 v -0.144811 h -0.844103 z m 1.882796,-1.962366 h -2.821447 v -1.133735 h 2.821447 z m -0.694126,-0.429457 v -0.25984 H 86.57355 v 0.25984 z m -0.344566,1.977341 v -0.294625 h -0.843937 v 0.294625 z" id="path15492" />
    <path style="opacity:1;stroke-width:0.166457" fill="#ffffff" d="m 101.24009,26.786754 c -0.0734,0.19975 -0.12484,0.414316 -0.15514,0.644188 -0.4461,0.01667 -0.85376,0.02498 -1.22346,0.02498 -0.80232,0 -1.335823,-0.0293 -1.600486,-0.08739 -0.264503,-0.05842 -0.453432,-0.139157 -0.566621,-0.242195 -0.07324,-0.06658 -0.127505,-0.09987 -0.162462,-0.09987 -0.03495,0 -0.07574,0.01983 -0.122183,0.05976 -0.04663,0.03993 -0.124842,0.113189 -0.234702,0.219721 -0.109861,0.106532 -0.188265,0.197918 -0.234708,0.274655 -0.196582,-0.203246 -0.367867,-0.376358 -0.514351,-0.519514 0.212898,-0.166455 0.371865,-0.279644 0.476736,-0.339406 0.105031,-0.05992 0.168122,-0.107529 0.189926,-0.14232 0.02165,-0.03495 0.03245,-0.09904 0.03245,-0.192091 v -1.333486 h -0.57927 v -0.554304 h 1.193497 v 1.787748 c 0,0.109695 0.04325,0.207238 0.129836,0.292133 0.08656,0.08489 0.188929,0.147315 0.306948,0.187268 0.11835,0.03993 0.307944,0.06991 0.56928,0.08988 0.26134,0.01999 0.62422,0.03013 1.0888,0.03013 0.46442,0 0.93299,-0.03345 1.4059,-0.09988 z m -3.325986,-2.806632 -0.614061,0.27965 C 97.166712,23.946998 96.983775,23.644044 96.750735,23.35108 l 0.589094,-0.314767 c 0.253178,0.376191 0.444604,0.690964 0.574275,0.943809 z m 1.223626,-0.08972 h -1.198488 v -0.514518 h 1.198488 v -0.414316 h 0.54432 c 0.0799,0 0.12001,0.02165 0.12001,0.06475 0,0.02016 -0.0106,0.05012 -0.0325,0.09006 -0.0218,0.03993 -0.0324,0.126509 -0.0324,0.259674 h 1.22862 v 0.514518 h -1.23344 v 0.279649 h 1.01372 v 1.333319 h -0.57411 c 0.25951,0.216559 0.54265,0.472738 0.84893,0.768864 l -0.49937,0.389677 c -0.21657,-0.276316 -0.47957,-0.532661 -0.78901,-0.76903 v 0.85892 h -0.59425 v -0.898873 c -0.21973,0.302955 -0.514364,0.580938 -0.884064,0.833954 -0.129504,-0.136333 -0.28614,-0.276155 -0.469243,-0.419472 0.249688,-0.13317 0.440279,-0.252352 0.571616,-0.357051 0.131665,-0.105037 0.252347,-0.240533 0.362221,-0.406989 h -0.574288 v -1.333319 h 0.993758 v -0.279815 z m 0,1.143559 V 24.64928 h -0.42462 v 0.384681 z m 0.59426,-0.384681 v 0.384681 h 0.42946 V 24.64928 Z m 0,0.85409 v 0.329582 l 0.3895,-0.329582 z" id="path15494" />
    <path style="opacity:1;stroke-width:0.166457" fill="#ffffff" d="m 75.209691,46.529563 c -0.260006,7.097232 -2.458737,10.645763 -6.596028,10.645763 -1.948214,0 -3.548532,-0.950804 -4.800955,-2.852909 -1.252423,-1.901435 -1.878635,-4.429586 -1.878635,-7.584115 0,-3.409372 0.635367,-6.05887 1.906599,-7.949489 1.270568,-1.889955 2.908338,-2.835264 4.912316,-2.835264 1.261578,0 2.402641,0.440777 3.423189,1.321833 1.020216,0.881726 1.827366,2.157121 2.421285,3.82685 l -3.061479,1.426372 c -0.519679,-1.623126 -1.474976,-2.43527 -2.866724,-2.43527 -2.263982,0 -3.395391,2.168768 -3.395391,6.505479 0,4.33737 1.159373,6.505805 3.478953,6.505805 1.298531,0 2.22653,-0.800159 2.783162,-2.400645 H 69.58777 v -4.174742 h 5.621921 z" id="path15496" />
    <path style="opacity:1;stroke-width:0.166457" fill="#ffffff" d="M 84.08768,57.001377 H 80.747885 V 42.668094 h -1.669897 v -4.313905 c 0.946474,-0.370864 1.567692,-1.182842 1.864818,-2.435265 h 3.14504 v 21.082453 z" id="path15498" />
    <path style="opacity:1;stroke-width:0.166457" fill="#ffffff" d="m 92.29801,43.050775 c 0.834945,-0.25501 1.855164,-0.382681 3.061476,-0.382681 1.948217,0 3.493114,0.725084 4.634004,2.174428 1.14106,1.449842 1.71168,3.177833 1.71168,5.183806 0,2.006306 -0.59392,3.705 -1.78126,5.096415 -1.18767,1.391752 -2.74621,2.08754 -4.67578,2.08754 -2.671805,0 -4.991218,-0.742065 -6.957908,-2.226698 l 1.836854,-3.513573 c 1.335984,1.090459 2.96843,1.635105 4.898498,1.635105 1.187172,0 2.049919,-0.278315 2.588411,-0.834945 0.537823,-0.556802 0.807315,-1.344977 0.807315,-2.365855 0,-1.020219 -0.287973,-1.791746 -0.863079,-2.313425 -0.575277,-0.521839 -1.401073,-0.782676 -2.47705,-0.782676 -1.076309,0 -2.115169,0.255343 -3.117241,0.765369 l -3.367427,-1.63511 0.723589,-9.810646 h 10.910098 v 4.174742 h -7.598101 z" id="path15500" />
  </g>
</svg>
