<?xml version="1.0" encoding="UTF-8"?>
<svg xmlns="http://www.w3.org/2000/svg" xmlns:ns1="http://sodipodi.sourceforge.net/DTD/sodipodi-0.dtd" version="1.1" id="svg1104" width="199.32205" height="109.65062" viewBox="0 0 199.32205 109.65062">
  <defs id="defs1108" />
  <ns1:namedview pagecolor="#ffffff" bordercolor="#666666" borderopacity="1" objecttolerance="10" gridtolerance="10" guidetolerance="10" id="namedview1106" showgrid="false" />
  <g transform="translate(-1.8194245,-1.61058)" id="g1112">
    <path style="color:#000000;font-style:normal;font-variant:normal;font-weight:normal;font-stretch:normal;font-size:medium;line-height:normal;font-family:sans-serif;font-variant-ligatures:normal;font-variant-position:normal;font-variant-caps:normal;font-variant-numeric:normal;font-variant-alternates:normal;font-variant-east-asian:normal;font-feature-settings:normal;font-variation-settings:normal;text-indent:0;text-align:start;text-decoration:none;text-decoration-line:none;text-decoration-style:solid;text-decoration-color:#000000;letter-spacing:normal;word-spacing:normal;text-transform:none;writing-mode:lr-tb;direction:ltr;text-orientation:mixed;dominant-baseline:auto;baseline-shift:baseline;text-anchor:start;white-space:normal;shape-padding:0;shape-margin:0;inline-size:0;clip-rule:nonzero;display:inline;overflow:visible;visibility:visible;opacity:1;isolation:auto;mix-blend-mode:normal;color-interpolation:sRGB;color-interpolation-filters:linearRGB;solid-color:#000000;solid-opacity:1;vector-effect:none;fill:#ffffff;fill-opacity:1;fill-rule:nonzero;stroke:none;stroke-width:5.31977;stroke-linecap:butt;stroke-linejoin:miter;stroke-miterlimit:4;stroke-dasharray:none;stroke-dashoffset:0;stroke-opacity:1;color-rendering:auto;image-rendering:auto;shape-rendering:auto;text-rendering:auto;enable-background:accumulate;stop-color:#000000;stop-opacity:1" d="M 22.772304,4.5205547 H 180.18713 c 9.99583,0 18.043,8.0471753 18.043,18.0430143 V 90.31039 c 0,9.99584 -8.04717,18.04301 -18.043,18.04301 H 22.772304 c -9.995822,0 -18.0429952,-8.04717 -18.0429952,-18.04301 V 22.563569 c 0,-9.995839 8.0471732,-18.0430143 18.0429952,-18.0430143 z" id="path81" />
    <path style="color:#000000;font-style:normal;font-variant:normal;font-weight:normal;font-stretch:normal;font-size:medium;line-height:normal;font-family:sans-serif;font-variant-ligatures:normal;font-variant-position:normal;font-variant-caps:normal;font-variant-numeric:normal;font-variant-alternates:normal;font-variant-east-asian:normal;font-feature-settings:normal;font-variation-settings:normal;text-indent:0;text-align:start;text-decoration:none;text-decoration-line:none;text-decoration-style:solid;text-decoration-color:#000000;letter-spacing:normal;word-spacing:normal;text-transform:none;writing-mode:lr-tb;direction:ltr;text-orientation:mixed;dominant-baseline:auto;baseline-shift:baseline;text-anchor:start;white-space:normal;shape-padding:0;shape-margin:0;inline-size:0;clip-rule:nonzero;display:inline;overflow:visible;visibility:visible;opacity:1;isolation:auto;mix-blend-mode:normal;color-interpolation:sRGB;color-interpolation-filters:linearRGB;solid-color:#000000;solid-opacity:1;vector-effect:none;fill:#1e4e34;fill-opacity:1;fill-rule:nonzero;stroke:none;stroke-width:0.5;stroke-linecap:butt;stroke-linejoin:miter;stroke-miterlimit:4;stroke-dasharray:none;stroke-dashoffset:0;stroke-opacity:1;color-rendering:auto;image-rendering:auto;shape-rendering:auto;text-rendering:auto;enable-background:accumulate;stop-color:#000000;stop-opacity:1" d="m 22.770693,1.86058 c -11.423398,0 -20.7012685,9.277853 -20.7012685,20.701269 V 90.30993 c 0,11.4234 9.2778705,20.70127 20.7012685,20.70127 H 180.1858 c 11.42339,0 20.70568,-9.27787 20.70568,-20.70127 V 22.561849 c 0,-11.423416 -9.28229,-20.701269 -20.70568,-20.701269 z m 0,5.3201487 H 180.1858 c 8.56826,0 15.38553,6.8128393 15.38556,15.3811203 V 90.30993 c 0,8.56827 -6.8173,15.38554 -15.38556,15.38557 H 22.770693 c -8.568263,0 -15.3811198,-6.8173 -15.3811198,-15.38557 V 22.561849 c 0,-8.568281 6.8128568,-15.3811203 15.3811198,-15.3811203 z" id="path83" />
    <path id="path75" style="color:#000000;font-style:normal;font-variant:normal;font-weight:normal;font-stretch:normal;font-size:medium;line-height:normal;font-family:sans-serif;font-variant-ligatures:normal;font-variant-position:normal;font-variant-caps:normal;font-variant-numeric:normal;font-variant-alternates:normal;font-variant-east-asian:normal;font-feature-settings:normal;font-variation-settings:normal;text-indent:0;text-align:start;text-decoration:none;text-decoration-line:none;text-decoration-style:solid;text-decoration-color:#000000;letter-spacing:normal;word-spacing:normal;text-transform:none;writing-mode:lr-tb;direction:ltr;text-orientation:mixed;dominant-baseline:auto;baseline-shift:baseline;text-anchor:start;white-space:normal;shape-padding:0;shape-margin:0;inline-size:0;clip-rule:nonzero;display:inline;overflow:visible;visibility:visible;opacity:1;isolation:auto;mix-blend-mode:normal;color-interpolation:sRGB;color-interpolation-filters:linearRGB;solid-color:#000000;solid-opacity:1;vector-effect:none;fill:#1e4e34;fill-opacity:1;fill-rule:nonzero;stroke:none;stroke-width:5.31977;stroke-linecap:butt;stroke-linejoin:miter;stroke-miterlimit:4;stroke-dasharray:none;stroke-dashoffset:0;stroke-opacity:1;color-rendering:auto;image-rendering:auto;shape-rendering:auto;text-rendering:auto;enable-background:accumulate;stop-color:#000000;stop-opacity:1" d="m 22.76137,12.61608 c -5.489477,0 -9.910704,4.452709 -9.910704,9.963365 V 90.31868 c 0,5.49391 4.416811,9.91072 9.910704,9.91072 h 157.44254 c 5.49389,0 9.91069,-4.41681 9.91069,-9.91072 V 22.579445 c 0,-5.510656 -4.42123,-9.963365 -9.91069,-9.963365 z" />
    <path id="rect1116" style="opacity:1;fill:#ffffff;stroke-width:1.05659" d="M 121.65,84.158203 143.53379,63.794094 165.41758,84.158203 143.53379,29.404 Z" />
    <g id="g296" style="opacity:1;fill:#ffffff;fill-opacity:1" transform="matrix(6.1307379,0,0,6.1307379,-539.13131,-399.21695)">
      <g style="fill:#ffffff" transform="translate(93.599998,77.279999)" id="use294">
        <path style="fill:#ffffff;stroke:none" d="M 2.65625,0.96875 V 1.578125 H 1.421875 V -4.96875 h 2.15625 v -1.109375 h -2.96875 v -1.15625 h 9.1875 v 1.15625 H 6.75 V -4.96875 H 9.015625 V 1.515625 H 7.71875 V 0.96875 Z m 2.125,-5.9375 H 5.515625 V -6.078125 H 4.78125 Z m 2.9375,2.859375 v -1.75 H 6.75 v 1.515625 c 0,0.105469 0.035156,0.179687 0.109375,0.21875 0.070313,0.042969 0.175781,0.0625 0.3125,0.0625 0.144531,0 0.328125,-0.015625 0.546875,-0.046875 z m -4.15625,-1.75 H 2.65625 v 2.515625 c 0.5625,-0.6875 0.863281,-1.523438 0.90625,-2.515625 z m 4.15625,3.71875 V -1 c -0.417969,0.042969 -0.789062,0.0625 -1.109375,0.0625 -0.324219,0 -0.589844,-0.046875 -0.796875,-0.140625 -0.199219,-0.101563 -0.296875,-0.351563 -0.296875,-0.75 v -2.03125 H 4.78125 c 0,1.367187 -0.4375,2.507812 -1.3125,3.421875 C 3.238281,-0.65625 2.96875,-0.84375 2.65625,-1 v 0.859375 z m 0,0" id="path881" />
      </g>
    </g>
  </g>
</svg>
