<?xml version="1.0" encoding="UTF-8"?>
<svg xmlns="http://www.w3.org/2000/svg" xmlns:ns1="http://sodipodi.sourceforge.net/DTD/sodipodi-0.dtd" viewBox="0 0 109.40063 133.172" height="133.172" width="109.40063" id="svg7027" version="1.1">
  <defs id="defs7031" />
  <ns1:namedview showgrid="false" id="namedview7029" guidetolerance="10" gridtolerance="10" objecttolerance="10" borderopacity="1" bordercolor="#666666" pagecolor="#ffffff" />
  <g transform="translate(-2.8715924,-4.4176155)" id="g7035">
    <path style="color:#000000;font-style:normal;font-variant:normal;font-weight:normal;font-stretch:normal;font-size:medium;line-height:normal;font-family:sans-serif;font-variant-ligatures:normal;font-variant-position:normal;font-variant-caps:normal;font-variant-numeric:normal;font-variant-alternates:normal;font-variant-east-asian:normal;font-feature-settings:normal;font-variation-settings:normal;text-indent:0;text-align:start;text-decoration:none;text-decoration-line:none;text-decoration-style:solid;text-decoration-color:#000000;letter-spacing:normal;word-spacing:normal;text-transform:none;writing-mode:lr-tb;direction:ltr;text-orientation:mixed;dominant-baseline:auto;baseline-shift:baseline;text-anchor:start;white-space:normal;shape-padding:0;shape-margin:0;inline-size:0;clip-rule:nonzero;display:inline;overflow:visible;visibility:visible;opacity:1;isolation:auto;mix-blend-mode:normal;color-interpolation:sRGB;color-interpolation-filters:linearRGB;solid-color:#000000;solid-opacity:1;vector-effect:none;fill:#ffffff;fill-opacity:1;fill-rule:nonzero;stroke:none;stroke-width:3.28256;stroke-linecap:butt;stroke-linejoin:miter;stroke-miterlimit:4;stroke-dasharray:none;stroke-dashoffset:0;stroke-opacity:1;color-rendering:auto;image-rendering:auto;shape-rendering:auto;text-rendering:auto;enable-background:accumulate;stop-color:#000000;stop-opacity:1" d="m 15.896292,6.3089512 h 83.350313 c 6.167935,0 11.133435,4.9655048 11.133435,11.1334318 V 124.56619 c 0,6.16792 -4.9655,11.13342 -11.133435,11.13342 H 15.896292 c -6.1679163,0 -11.1334196,-4.9655 -11.1334196,-11.13342 V 17.442383 c 0,-6.167927 4.9655033,-11.1334318 11.1334196,-11.1334318 z" id="path81" />
    <path style="color:#000000;font-style:normal;font-variant:normal;font-weight:normal;font-stretch:normal;font-size:medium;line-height:normal;font-family:sans-serif;font-variant-ligatures:normal;font-variant-position:normal;font-variant-caps:normal;font-variant-numeric:normal;font-variant-alternates:normal;font-variant-east-asian:normal;font-feature-settings:normal;font-variation-settings:normal;text-indent:0;text-align:start;text-decoration:none;text-decoration-line:none;text-decoration-style:solid;text-decoration-color:#000000;letter-spacing:normal;word-spacing:normal;text-transform:none;writing-mode:lr-tb;direction:ltr;text-orientation:mixed;dominant-baseline:auto;baseline-shift:baseline;text-anchor:start;white-space:normal;shape-padding:0;shape-margin:0;inline-size:0;clip-rule:nonzero;display:inline;overflow:visible;visibility:visible;opacity:1;isolation:auto;mix-blend-mode:normal;color-interpolation:sRGB;color-interpolation-filters:linearRGB;solid-color:#000000;solid-opacity:1;vector-effect:none;fill:#253898;fill-opacity:1;fill-rule:nonzero;stroke:none;stroke-width:0.5;stroke-linecap:butt;stroke-linejoin:miter;stroke-miterlimit:4;stroke-dasharray:none;stroke-dashoffset:0;stroke-opacity:1;color-rendering:auto;image-rendering:auto;shape-rendering:auto;text-rendering:auto;enable-background:accumulate;stop-color:#000000;stop-opacity:1" d="m 15.895298,4.6676155 c -7.0488009,0 -12.7737056,5.7248935 -12.7737056,12.7737065 V 124.56591 c 0,7.04879 5.7249047,12.7737 12.7737056,12.7737 h 83.350487 c 7.048795,0 12.776435,-5.72491 12.776435,-12.7737 V 17.441322 c 0,-7.048813 -5.72764,-12.7737065 -12.776435,-12.7737065 z m 0,3.282795 h 83.350487 c 5.287035,0 9.493625,4.2038585 9.493655,9.4909115 V 124.56591 c 0,5.28703 -4.20662,9.49363 -9.493655,9.49365 H 15.895298 c -5.287042,0 -9.4909116,-4.20662 -9.4909116,-9.49365 V 17.441322 c 0,-5.287053 4.2038696,-9.4909115 9.4909116,-9.4909115 z" id="path83" />
    <path id="path75" style="color:#000000;font-style:normal;font-variant:normal;font-weight:normal;font-stretch:normal;font-size:medium;line-height:normal;font-family:sans-serif;font-variant-ligatures:normal;font-variant-position:normal;font-variant-caps:normal;font-variant-numeric:normal;font-variant-alternates:normal;font-variant-east-asian:normal;font-feature-settings:normal;font-variation-settings:normal;text-indent:0;text-align:start;text-decoration:none;text-decoration-line:none;text-decoration-style:solid;text-decoration-color:#000000;letter-spacing:normal;word-spacing:normal;text-transform:none;writing-mode:lr-tb;direction:ltr;text-orientation:mixed;dominant-baseline:auto;baseline-shift:baseline;text-anchor:start;white-space:normal;shape-padding:0;shape-margin:0;inline-size:0;clip-rule:nonzero;display:inline;overflow:visible;visibility:visible;opacity:1;isolation:auto;mix-blend-mode:normal;color-interpolation:sRGB;color-interpolation-filters:linearRGB;solid-color:#000000;solid-opacity:1;vector-effect:none;fill:#253898;fill-opacity:1;fill-rule:nonzero;stroke:none;stroke-width:3.28256;stroke-linecap:butt;stroke-linejoin:miter;stroke-miterlimit:4;stroke-dasharray:none;stroke-dashoffset:0;stroke-opacity:1;color-rendering:auto;image-rendering:auto;shape-rendering:auto;text-rendering:auto;enable-background:accumulate;stop-color:#000000;stop-opacity:1" d="m 15.889545,11.304291 c -3.387278,0 -6.115394,2.747541 -6.115394,6.147888 V 124.57131 c 0,3.39001 2.725391,6.11539 6.115394,6.11539 h 83.36742 c 3.389995,0 6.115385,-2.72538 6.115385,-6.11539 V 17.452179 c 0,-3.400347 -2.72813,-6.147888 -6.115385,-6.147888 z" />
    <path d="m 30.794885,37.283597 v 7.952497 h 6.008139 c 1.388115,0 2.50551,1.117668 2.50551,2.505796 v 45.257465 c 0,1.388136 -1.117395,2.505758 -2.50551,2.505758 h -6.008139 v 8.352137 h 30.870364 v -8.352137 h -7.140496 c -1.38812,0 -2.505806,-1.117622 -2.505806,-2.505758 V 70.099484 H 71.87979 c 7.539364,-1.564492 13.171654,-8.216595 13.171654,-16.233449 0,-9.186668 -7.395785,-16.582438 -16.582492,-16.582438 H 61.665249 47.030125 Z m 21.564443,7.815845 h 8.917973 c 4.776929,0 8.622525,3.845855 8.622525,8.622775 0,4.776866 -3.845596,8.622484 -8.622525,8.622484 h -8.917973 z" style="opacity:1;fill:#ffffff;fill-opacity:1;stroke:none;stroke-width:1.26363;stroke-miterlimit:4;stroke-dasharray:none;stroke-opacity:1;paint-order:stroke fill markers" id="path955" />
  </g>
</svg>
