<?xml version="1.0" encoding="UTF-8"?>
<svg xmlns="http://www.w3.org/2000/svg" xmlns:ns1="http://sodipodi.sourceforge.net/DTD/sodipodi-0.dtd" viewBox="0 0 401 383.51193" height="383.51193" width="401" id="svg2203" version="1.1">
  <defs id="defs2207" />
  <ns1:namedview showgrid="false" id="namedview2205" guidetolerance="10" gridtolerance="10" objecttolerance="10" borderopacity="1" bordercolor="#666666" pagecolor="#ffffff" />
  <g transform="translate(488.64317,161.5691)" id="g2211">
    <path style="color:#000000;font-style:normal;font-variant:normal;font-weight:normal;font-stretch:normal;font-size:medium;line-height:normal;font-family:sans-serif;font-variant-ligatures:normal;font-variant-position:normal;font-variant-caps:normal;font-variant-numeric:normal;font-variant-alternates:normal;font-variant-east-asian:normal;font-feature-settings:normal;font-variation-settings:normal;text-indent:0;text-align:start;text-decoration:none;text-decoration-line:none;text-decoration-style:solid;text-decoration-color:#000000;letter-spacing:normal;word-spacing:normal;text-transform:none;writing-mode:lr-tb;direction:ltr;text-orientation:mixed;dominant-baseline:auto;baseline-shift:baseline;text-anchor:start;white-space:normal;shape-padding:0;shape-margin:0;inline-size:0;clip-rule:nonzero;display:inline;overflow:visible;visibility:visible;opacity:1;isolation:auto;mix-blend-mode:normal;color-interpolation:sRGB;color-interpolation-filters:linearRGB;solid-color:#000000;solid-opacity:1;vector-effect:none;fill:#244f3c;fill-opacity:1;fill-rule:nonzero;stroke:none;stroke-width:1;stroke-linecap:butt;stroke-linejoin:miter;stroke-miterlimit:4;stroke-dasharray:none;stroke-dashoffset:0;stroke-opacity:1;paint-order:stroke fill markers;color-rendering:auto;image-rendering:auto;shape-rendering:auto;text-rendering:auto;enable-background:accumulate;stop-color:#000000;stop-opacity:1" d="m -463.15689,-161.0691 c -13.78523,0 -24.98531,11.19596 -24.98534,24.98119 l -9.4e-4,332.54536 c -3e-5,13.7852 11.20012,24.98539 24.98539,24.98539 h 350.03253 c 13.78518,0 24.98112,-11.20019 24.98116,-24.98539 l 9.2e-4,-332.54536 c 4e-5,-13.78523 -11.19598,-24.98119 -24.98122,-24.98119 z" id="path6631" />
    <path id="path6633" style="color:#000000;font-style:normal;font-variant:normal;font-weight:normal;font-stretch:normal;font-size:medium;line-height:normal;font-family:sans-serif;font-variant-ligatures:normal;font-variant-position:normal;font-variant-caps:normal;font-variant-numeric:normal;font-variant-alternates:normal;font-variant-east-asian:normal;font-feature-settings:normal;font-variation-settings:normal;text-indent:0;text-align:start;text-decoration:none;text-decoration-line:none;text-decoration-style:solid;text-decoration-color:#000000;letter-spacing:normal;word-spacing:normal;text-transform:none;writing-mode:lr-tb;direction:ltr;text-orientation:mixed;dominant-baseline:auto;baseline-shift:baseline;text-anchor:start;white-space:normal;shape-padding:0;shape-margin:0;inline-size:0;clip-rule:nonzero;display:inline;overflow:visible;visibility:visible;opacity:1;isolation:auto;mix-blend-mode:normal;color-interpolation:sRGB;color-interpolation-filters:linearRGB;solid-color:#000000;solid-opacity:1;vector-effect:none;fill:#ffffff;fill-opacity:1;fill-rule:nonzero;stroke:none;stroke-width:6.08892;stroke-linecap:butt;stroke-linejoin:miter;stroke-miterlimit:4;stroke-dasharray:none;stroke-dashoffset:0;stroke-opacity:1;color-rendering:auto;image-rendering:auto;shape-rendering:auto;text-rendering:auto;enable-background:accumulate;stop-color:#000000;stop-opacity:1" d="m -463.15641,-154.65037 c -10.33972,0 -18.56375,8.22221 -18.56377,18.56192 v 332.54626 c -4e-5,10.33974 8.22217,18.56377 18.56192,18.56377 h 350.03297 c 10.33977,0 18.56375,-8.22403 18.56377,-18.56377 v -332.54626 c 4e-5,-10.33971 -8.22206,-18.56192 -18.56191,-18.56192 z m -0.0185,6.55869 h 350.06261 c 6.62435,0 11.95692,5.37577 11.9569,12.02548 V -34.519732 H -475.13185 V -136.0662 c 0,-6.64971 5.33261,-12.02548 11.9569,-12.02548 z m -11.9569,120.113947 h 373.97644 l -0.002,115.853965 h -373.97457 z m 0,122.397815 h 373.97457 V 196.47079 c -1e-5,6.62956 -5.32746,11.9569 -11.95689,11.9569 h -350.06082 c -6.62945,0 -11.9569,-5.32734 -11.9569,-11.9569 z" />
    <path style="opacity:1;fill:#ffffff;fill-opacity:1;fill-rule:nonzero;stroke:none;stroke-width:18.6329" d="m -425.15499,151.51112 h -23.21818 v -7.64275 h 23.7279 v -12.08206 h -19.06988 v -7.35118 h 48.32933 v 7.35118 h -20.37974 v 12.08206 h 24.81958 v 7.64275 h -22.85478 c 4.36802,11.79105 12.9557,19.28798 25.62033,22.49032 -2.18132,2.40323 -4.51062,5.31348 -6.91435,8.80685 -11.64527,-5.74973 -19.43323,-13.17376 -23.43686,-22.2722 -3.92966,9.24364 -12.51884,16.74061 -25.69269,22.56378 -1.8909,-2.83633 -4.29409,-5.31349 -7.27882,-7.35118 15.64886,-4.65856 24.45568,-12.73752 26.34816,-24.23757 z m 0,0" id="path620" />
    <path style="opacity:1;fill:#ffffff;fill-opacity:1;fill-rule:nonzero;stroke:none;stroke-width:18.6329" d="m -310.393,142.5585 v 9.89855 h -15.64884 v 3.20079 h 16.88583 v 6.55097 h -16.88583 v 3.13209 h 20.37972 v 6.69624 h -20.37972 v 10.62645 h -7.71505 v -10.62645 h -17.97802 v -6.69624 h 17.97802 v -3.13209 h -15.21197 v -2.11271 c -0.36967,0.7289 -0.72887,1.3099 -1.0194,1.96483 -0.36967,0.581 -0.72887,1.16727 -1.0194,1.74827 -0.26403,0.65492 -0.65494,1.45252 -1.09331,2.47716 l -7.49696,15.72122 c -3.27469,-2.1127 -5.96841,-4.07753 -8.079,-5.89553 4.51062,-5.23952 8.80683,-12.37363 13.02856,-21.54439 1.96483,1.74827 3.85569,3.2008 5.67739,4.44196 V 155.661 h 15.212 v -3.20073 h -13.31953 v -6.4776 h 13.31953 v -3.42259 h -16.88633 v -6.40524 h 16.88633 v -3.56519 h -12.95618 v -6.7728 h 12.95618 v -5.82267 h 7.35109 c 0.80285,0 1.162,0.26402 1.162,0.80284 0,0.52822 -0.15831,1.09332 -0.36968,1.74826 -0.26398,0.58099 -0.42256,1.67433 -0.42256,3.27473 h 15.64888 v 10.33536 h 5.31345 v 6.40525 z m -7.86087,-6.40521 v -3.56522 h -7.78797 v 3.56522 z m -7.78797,9.82623 h 7.78797 v -3.42263 h -7.78797 z m -21.03459,-15.43075 -6.76911,5.96842 c -2.18139,-2.32926 -5.67738,-5.23953 -10.2625,-8.73397 l 6.4047,-6.11418 c 3.42256,2.76767 6.98725,5.67739 10.62691,8.87973 z m -2.91022,16.23143 -6.76864,6.40471 c -2.25529,-2.25529 -5.82314,-5.16559 -10.77219,-8.80683 l 6.40521,-6.4776 c 4.36806,3.4226 8.07903,6.33178 11.13562,8.87972 z m 0,0" id="path622" />
    <path style="opacity:1;fill:#ffffff;fill-opacity:1;fill-rule:nonzero;stroke:none;stroke-width:23.9693" d="m -242.63904,149.42278 c 1.48969,2.01357 2.58706,4.25452 3.2125,6.48732 0.70505,2.12726 1.01777,4.92025 1.01777,8.05428 0,5.70788 -1.56361,10.40568 -4.7022,14.20954 -3.13291,3.80794 -6.97313,5.59419 -11.5963,5.59419 -4.54301,0 -8.14841,-0.89313 -10.8128,-2.90667 -2.74058,-1.90001 -4.6226,-4.70107 -5.79787,-8.16717 -1.17697,-3.58066 -1.72281,-6.71462 -1.72281,-9.51095 0,-5.14761 1.48969,-9.84621 4.54299,-13.98539 -2.03553,-3.35329 -3.0533,-7.04756 -3.0533,-10.96505 0,-5.48055 1.56362,-9.73421 4.70221,-12.75535 3.05899,-3.02039 6.97369,-4.58742 11.5963,-4.58742 4.7022,0 8.46226,1.56703 11.28301,4.81471 2.89979,3.13407 4.38949,7.38045 4.38949,12.64332 0,4.36006 -1.09737,8.05435 -3.05899,11.07715 z m -12.37925,-6.38176 c 2.19473,0 3.83795,-0.32464 5.09452,-1.23405 1.2509,-0.89313 1.88203,-2.12727 1.88203,-3.58066 0,-1.45328 -0.70505,-2.68745 -1.96163,-3.69422 -1.25089,-1.0068 -3.0533,-1.56699 -5.48685,-1.56699 -2.27434,0 -4.15067,0.40586 -5.48684,1.3397 -1.3305,1.00677 -1.96162,2.2328 -1.96162,3.80787 0,1.56703 0.62543,2.80117 1.96162,3.6943 1.33047,0.89312 3.36601,1.23405 5.95478,1.23405 z m -0.0568,28.86644 c 2.74058,0 4.7818,-0.81198 6.19019,-2.2409 1.41009,-1.45339 2.11513,-3.46694 2.11513,-6.15443 0,-5.26125 -2.89978,-7.94056 -8.54015,-7.94056 -2.89978,0 -5.16844,0.81191 -6.73831,2.23276 -1.48968,1.33968 -2.27433,3.24772 -2.27433,5.7078 0,5.59416 3.05899,8.39214 9.24576,8.39214 z m 0,0" id="path624" />
    <path style="opacity:1;fill:#ffffff;fill-opacity:1;fill-rule:nonzero;stroke:none;stroke-width:24.1466" d="m -189.44443,169.17959 h -6.5306 v 14.02165 h -8.33998 v -14.02165 h -25.49266 v -11.64704 l 25.49266,-37.31489 h 8.33998 v 37.54139 h 6.5306 z m -14.87058,-11.42054 v -20.91929 l -14.1626,20.91929 z m 0,0" id="path626" />
    <path style="opacity:1;fill:#ffffff;fill-opacity:1;fill-rule:nonzero;stroke:none;stroke-width:13.3585" d="m -155.95902,160.67262 -5.59345,7.05888 5.44859,16.2643 h -5.44859 l -3.56788,-10.89912 -3.13508,3.78247 v 7.11546 h -5.25578 v -29.36578 l 5.25578,-2.43014 v 15.02176 l 5.59309,-6.5511 z m 0,0" id="path628" />
    <path style="opacity:1;fill:#ffffff;fill-opacity:1;fill-rule:nonzero;stroke:none;stroke-width:13.3585" d="m -119.72998,183.9963 h -5.20716 v -14.00545 c 0,-1.01632 -0.38488,-1.86463 -1.10917,-2.59813 -0.6753,-0.73357 -1.49405,-1.07372 -2.45977,-1.07372 -0.91672,0 -1.64101,0.32788 -2.31631,1.07372 -0.62632,0.7335 -0.96221,1.58181 -0.96221,2.59813 v 14.00545 h -5.11093 v -14.11813 c 0,-0.90569 -0.34991,-1.74988 -0.86775,-2.48344 -0.57733,-0.73354 -1.39959,-1.07368 -2.41078,-1.07368 -1.01121,0 -1.83346,0.32788 -2.55425,1.01632 -0.67529,0.6762 -1.0112,1.52448 -1.0112,2.5408 v 14.11813 h -5.25579 v -23.32318 h 5.25579 v 1.41385 c 1.59203,-1.12697 3.22955,-1.74987 5.01472,-1.74987 2.21834,0 4.00175,0.90565 5.30372,2.71292 1.78447,-1.80727 3.80897,-2.71292 5.93074,-2.71292 2.12037,0 3.95382,0.79089 5.49686,2.31538 1.49407,1.52448 2.26733,3.27433 2.26733,5.36472 z m 0,0" id="path630" />
    <path style="opacity:1;fill:#ffffff;fill-opacity:1;fill-rule:nonzero;stroke:none;stroke-width:18.5299" d="m -398.05264,-121.49325 c 1.81212,2.67892 3.10946,4.70641 3.90785,6.00802 0.79863,1.30265 1.22911,2.10101 1.22911,2.31639 0,0.72513 -0.52522,0.94019 -1.30262,0.7986 -0.86669,-0.0495 -1.88042,-0.15748 -3.04126,-0.15748 -1.16078,0 -2.67881,0.15748 -4.63277,0.36733 -12.59468,1.51797 -26.27502,2.60531 -40.89615,3.40366 -0.36774,-2.101 -1.22908,-4.70627 -2.82589,-7.67242 18.31314,0 34.09247,-1.66514 47.55595,-5.0688 z m -4.48576,27.722765 c -1.81212,-1.160881 -4.19681,-2.24295 -7.02115,-3.256682 2.24285,-3.618963 4.41746,-8.179293 6.51426,-13.680323 4.84819,2.02753 7.45557,3.18307 7.81742,3.40368 0.36737,0.15748 0.57813,0.52522 0.57813,0.86665 0,0.42036 -0.20986,0.79864 -0.57813,1.22915 -2.38989,2.16934 -4.77977,6.007879 -7.31053,11.43645 z m -10.13384,-5.428569 -8.10684,1.812118 c -0.79863,-3.471954 -2.10103,-6.949214 -3.90799,-10.568254 l 8.17891,-2.10104 c 1.665,4.05504 2.96766,7.67253 3.83431,10.857678 z m -14.47664,1.880419 -7.31057,3.692575 c -2.10107,-4.055034 -4.27038,-7.52807 -6.73176,-10.49579 l 8.03445,-3.83434 c 2.46343,3.90795 4.48562,7.45545 6.00788,10.640139 z m -1.37623,11.725839 h -18.02317 v -6.804188 h 24.32055 v -4.632766 h 7.74495 c 1.01373,0 1.5915,0.209856 1.5915,0.651631 0,0.367338 -0.0495,0.940228 -0.31568,1.591535 -0.20985,0.651596 -0.36737,1.444458 -0.52525,2.389923 h 23.88621 v 6.804187 h -17.95075 c 5.21057,7.455065 12.23221,12.232793 21.06286,14.331787 -1.95392,2.242808 -4.055,4.848075 -6.22484,7.817342 -8.61318,-3.766039 -15.63433,-9.554414 -20.84601,-17.299367 v 21.063405 h -8.46876 v -21.063405 c -4.99516,7.454993 -11.8708,13.462874 -20.55703,17.95075 -1.5915,-2.027498 -3.83445,-4.19684 -6.80368,-6.442302 8.97511,-3.114842 15.99683,-8.54126 21.06344,-16.35821 z m 0,0" id="path596" />
    <path style="opacity:1;fill:#ffffff;fill-opacity:1;fill-rule:nonzero;stroke:none;stroke-width:18.5299" d="m -338.47989,-116.42599 c -0.36737,-1.44973 -0.86676,-3.11478 -1.37622,-4.84815 l 10.4232,-1.518 c 0.36734,1.73862 0.72509,3.83432 1.08723,6.36927 h 24.2486 v 6.87672 h -16.21369 c 5.42854,3.33015 10.27831,6.3693 14.4042,9.33695 l -6.29736,5.137105 h 1.08734 v 27.578203 c 0,1.953924 -0.3675,3.471954 -1.01375,4.485726 -0.57811,1.013764 -1.81222,1.738543 -3.69264,2.316377 -1.81213,0.525252 -4.55923,0.940196 -8.32372,1.160775 -0.36735,-3.256572 -1.22913,-6.007881 -2.6789,-8.324297 2.53182,0.26259 4.19685,0.420394 5.06881,0.420394 0.94017,0 1.59154,-0.04951 1.81213,-0.262589 0.26263,-0.209857 0.42037,-0.651631 0.42037,-1.229077 v -1.302687 h -29.60403 v 10.712683 h -8.17985 v -35.539617 h 43.71935 l -3.33017,-3.114769 c -14.40415,0.157481 -28.59133,0.725098 -42.41613,1.66511 -0.57813,-2.531799 -0.94026,-4.921687 -1.22915,-7.166147 3.25658,-0.57812 5.86296,-1.16077 7.67246,-1.95395 1.81218,-0.7986 3.7661,-2.10104 5.79099,-3.90792 h -17.51691 v -6.87615 z m 12.45014,6.87611 h -9.62692 c -2.02749,1.59154 -4.70628,3.54557 -8.10681,6.00798 6.94862,-0.0495 13.24595,-0.26258 18.96386,-0.52525 -1.88045,-1.15567 -3.61906,-2.1693 -5.06872,-2.96779 z m 6.51421,23.886198 v -2.894151 h -29.60453 v 2.894151 z m -29.60453,6.080417 v 2.894187 h 29.60453 v -2.894187 z m 0,0" id="path598" />
    <path style="opacity:1;fill:#ffffff;fill-opacity:1;fill-rule:nonzero;stroke:none;stroke-width:23.7298" d="m -238.4093,-60.374416 h -8.48665 v -41.713514 h -4.36201 v -12.58047 c 2.41271,-1.10546 4.05126,-3.53154 4.75184,-7.17511 h 8.09735 z m 0,0" id="path600" />
    <path style="opacity:1;fill:#ffffff;fill-opacity:1;fill-rule:nonzero;stroke:none;stroke-width:23.7298" d="m -189.44896,-60.374416 h -34.33702 c 0.39532,-7.279289 1.48033,-13.132272 3.27151,-17.766508 1.87024,-4.636641 4.12462,-8.387508 6.69661,-11.146205 2.64431,-2.866888 5.99489,-5.189298 10.04392,-7.175112 1.63286,-0.640941 2.88158,-1.76186 3.89293,-3.09113 0.93228,-1.433439 1.48042,-2.866849 1.48042,-4.412359 0,-1.54562 -0.78001,-2.86689 -2.4127,-4.08409 -1.48032,-1.21752 -3.42404,-1.87389 -5.68358,-1.87389 -4.2037,0 -7.94197,2.09802 -11.29023,6.06997 l -5.9955,-8.60697 c 2.80252,-3.20317 5.60504,-5.51736 8.33126,-7.06294 2.72345,-1.54551 5.83949,-2.31434 9.26585,-2.31434 5.21513,0 9.26523,1.65761 11.99037,5.07706 2.80244,3.30726 4.20371,7.39135 4.20371,12.47005 0,5.189148 -1.16957,9.269186 -3.42405,12.57975 -2.33915,3.307264 -6.38532,6.294254 -12.14682,9.048861 -2.8816,1.433515 -5.45251,4.852882 -7.70859,10.042001 h 23.82644 z m 0,0" id="path602" />
    <path style="fill:#ffffff;fill-opacity:1;fill-rule:nonzero;stroke:none;stroke-width:12.9832" d="m -155.95902,-82.187887 -5.41577,6.886157 5.32227,15.866247 h -5.32227 l -3.40836,-10.63243 -3.07972,3.689954 v 6.941289 h -5.0888 v -28.647139 l 5.0888,-2.370659 v 14.654213 l 5.46252,-6.390824 z m 0,0" id="path604" />
    <path style="fill:#ffffff;fill-opacity:1;fill-rule:nonzero;stroke:none;stroke-width:12.8925" d="m -119.72749,-59.43498 h -5.04241 v -13.472523 c 0,-0.922435 -0.37268,-1.793644 -1.02657,-2.499335 -0.70132,-0.705583 -1.49413,-1.03278 -2.38179,-1.03278 -0.88767,0 -1.63303,0.315682 -2.28692,1.03278 -0.60646,0.705691 -0.88766,1.5769 -0.88766,2.499335 v 13.472523 h -4.99566 v -13.526475 c 0,-0.922508 -0.27105,-1.738508 -0.84023,-2.444199 -0.55902,-0.705548 -1.35522,-1.03278 -2.33436,-1.03278 -0.93171,0 -1.77532,0.315323 -2.42921,0.977643 -0.65388,0.650411 -0.97914,1.466412 -0.97914,2.499336 v 13.526475 h -5.13558 v -22.435647 h 5.13558 v 1.360012 c 1.49412,-1.084042 3.12715,-1.62809 4.85572,-1.62809 2.14802,0 3.82848,0.816 5.08882,2.554436 1.77534,-1.738436 3.68856,-2.554436 5.74273,-2.554436 2.10057,0 3.82847,0.705619 5.32259,2.172103 1.44669,1.466447 2.19544,3.204917 2.19544,5.160563 z m 0,0" id="path606" />
    <path style="opacity:1;fill:#ffffff;fill-opacity:1;fill-rule:nonzero;stroke:none;stroke-width:18.4058" d="m -421.1344,4.2314112 c -0.31353,-1.4347715 -0.86084,-2.8069475 -1.58084,-4.10088619 l 10.64097,-1.58088171 c 0.64725,2.01398211 1.07999,3.9549186 1.29393,5.6802208 h 22.64776 v 6.5426339 h -48.60289 v 21.784845 c 0,5.392775 -0.52174,10.209994 -1.36698,14.379787 -0.93395,4.16875 -2.37395,8.412044 -4.38782,12.726297 -2.22789,-1.580882 -4.60177,-3.093891 -7.18964,-4.455702 2.08694,-3.234762 3.59482,-6.902585 4.38786,-11.072407 0.79326,-4.24172 1.15303,-10.640864 1.15303,-19.196977 V 4.2320187 Z m -6.32711,12.5103768 c -0.31353,-0.720261 -0.79326,-2.013906 -1.58092,-3.954776 l 8.12406,-1.940936 c 0.64725,2.300925 1.2209,4.241861 1.58085,5.895712 h 6.75816 v 23.582253 h -5.24871 c 2.94782,4.387858 5.24871,8.340584 7.04666,11.79134 l -6.47118,3.093929 -1.86787,-4.027813 c -3.95477,2.154777 -8.34001,4.815653 -13.15727,8.052569 -1.86787,-2.373923 -3.23477,-4.455664 -4.16875,-6.111233 0.72025,-0.79326 1.22093,-1.65388 1.58088,-2.587764 0.36508,-0.93395 0.52174,-2.300887 0.52174,-4.027879 V 16.741314 Z m 7.98053,8.987515 V 22.20759 h -7.40556 v 3.521713 z m -0.15641,9.059052 v -3.594826 h -7.26163 v 3.594826 z m -2.66087,11.000377 c -0.57425,-0.933884 -1.22086,-1.940832 -1.94086,-2.87482 l 5.53615,-2.587868 h -8.19605 v 8.124636 c 1.29397,-0.647292 2.87481,-1.580881 4.6018,-2.660875 z m 19.26844,1.507884 v 13.876232 h -7.11765 V 14.942292 h 20.77846 c -1.367,6.97415 -3.23486,13.157347 -5.53622,18.406014 3.95477,4.601812 5.96767,8.98705 5.96767,13.157347 0,2.58783 -1.00698,4.528662 -2.87482,5.823673 -1.86786,1.220827 -4.88868,2.086942 -8.91548,2.587868 -0.20842,-3.161763 -1.00695,-5.679756 -2.30092,-7.621157 z m 0,-0.313538 c 1.29389,0.20843 2.37392,0.313538 3.23483,0.313538 1.94087,0 2.94782,-0.647254 2.94782,-1.940946 0,-1.867863 -1.94094,-5.392661 -5.82418,-10.56947 2.15482,-5.679613 3.59475,-10.137356 4.24176,-13.444764 h -4.60181 z m 0,0" id="path608" />
    <path style="opacity:1;fill:#ffffff;fill-opacity:1;fill-rule:nonzero;stroke:none;stroke-width:18.4058" d="m -348.32882,15.950863 h 6.32662 v -4.387867 h 14.88319 c -0.86084,-3.4487057 -2.15481,-6.6860961 -4.02779,-9.7779744 l 9.49047,-3.0886892 c 1.79999,4.1009147 3.08874,7.7650089 4.09572,11.0003769 l -7.62115,1.8678627 h 19.69995 v 7.046113 h -19.5559 c -0.0493,3.161764 -0.15669,5.53619 -0.20834,7.117574 h 16.24909 l -1.44003,23.007826 c -0.31335,4.742607 -1.65389,7.764496 -4.09564,9.13093 -2.44699,1.367051 -6.11114,2.227927 -10.92843,2.51487 -0.15669,-3.307873 -1.15301,-6.471174 -2.94784,-9.562483 3.38089,0.720252 5.53569,1.079984 6.54266,1.079984 1.00696,0 1.72173,-0.156408 2.15479,-0.417563 0.52174,-0.208421 0.72026,-1.006948 0.86087,-2.227813 l 1.07997,-16.464679 h -8.19651 c -0.8609,6.398679 -2.44701,11.719424 -4.74785,16.033202 -2.30086,4.241719 -5.96769,8.484083 -11.14435,12.725793 -1.80002,-1.79999 -4.31484,-3.594816 -7.69309,-5.320156 5.96766,-4.387934 10.06593,-8.915561 12.43826,-13.660854 2.30084,-4.815653 3.52176,-12.797795 3.59481,-23.942166 h -7.98106 v 4.674839 h -6.83011 v 15.242675 c 3.66782,-1.08006 6.61465,-2.08698 8.69954,-2.947894 -0.0492,2.087018 0.0495,4.601774 0.41756,7.549127 -10.06547,3.234761 -17.83052,6.255151 -23.29474,9.059479 l -4.10088,-9.275009 c 2.66084,-0.417553 5.96767,-1.15302 9.99397,-2.154805 V 23.30257 h -8.26863 v -7.333597 h 8.26863 V 0.44086411 h 7.2616 c 1.14783,0 1.8,0.2084209 1.8,0.72025219 0,0.417563 -0.15641,1.0068818 -0.41757,1.794798 -0.31352,0.7202521 -0.36504,2.2278414 -0.36504,4.455654 z m 0,0" id="path610" />
    <path style="opacity:1;fill:#ffffff;fill-opacity:1;fill-rule:nonzero;stroke:none;stroke-width:24.2898" d="m -238.41353,60.862585 h -36.12025 c 0.41586,-7.146741 1.55728,-13.080325 3.44136,-17.586891 1.96733,-4.730059 4.33876,-8.463668 7.04372,-11.211456 2.78757,-2.751992 6.30667,-5.168636 10.56591,-7.146778 1.71763,-0.638352 3.03119,-1.651194 4.09505,-2.967295 0.98068,-1.427634 1.55727,-2.967077 1.55727,-4.394891 0,-1.53949 -0.8205,-2.967152 -2.53796,-4.179513 -1.55718,-1.212759 -3.6018,-1.762831 -5.97855,-1.762831 -4.42203,0 -8.3543,1.978143 -11.87648,6.046056 l -6.30611,-8.6829647 c 2.94802,-3.078933 5.89595,-5.4956807 8.76314,-7.0351705 2.86485,-1.53941379 6.14332,-2.30515809 9.74689,-2.30515809 5.4859,0 9.74682,1.76279309 12.61345,5.05697039 2.94802,3.2942432 4.42203,7.4738609 4.42203,12.5299289 0,5.057066 -1.23038,9.233389 -3.60181,12.420798 -2.45469,3.294168 -6.71626,6.269359 -12.77688,9.013275 -3.0312,1.539271 -5.73558,4.833477 -8.1088,10.002256 h 25.06278 z m 0,0" id="path612" />
    <path style="opacity:1;fill:#ffffff;fill-opacity:1;fill-rule:nonzero;stroke:none;stroke-width:23.2847" d="m -189.44443,47.34282 h -6.24721 v 13.519765 h -7.97804 V 47.34282 h -24.38653 V 35.911098 l 24.38653,-36.27216879 h 7.97804 V 36.241312 h 6.24721 z M -203.66968,36.241312 V 15.796429 l -13.54811,20.444883 z m 0,0" id="path614" />
    <path style="fill:#ffffff;fill-opacity:1;fill-rule:nonzero;stroke:none;stroke-width:13.5263" d="m -155.95902,38.842705 -5.48332,7.32348 5.34131,17.009227 h -5.34131 l -3.4982,-11.339627 -3.07354,3.899992 v 7.441789 h -5.15264 V 32.525528 l 5.15264,-2.541417 v 15.709812 l 5.53065,-6.850829 z m 0,0" id="path616" />
    <path style="fill:#ffffff;fill-opacity:1;fill-rule:nonzero;stroke:none;stroke-width:13.7146" d="m -119.73072,63.175915 h -5.24811 v -14.64696 c 0,-1.002829 -0.38791,-1.890005 -1.06853,-2.657145 -0.72998,-0.767177 -1.55518,-1.182871 -2.52848,-1.182871 -0.87457,0 -1.65393,0.428573 -2.33101,1.182871 -0.63125,0.76714 -0.97331,1.654316 -0.97331,2.657145 v 14.64696 h -5.15114 V 48.469872 c 0,-1.002867 -0.28211,-1.830097 -0.87457,-2.59716 -0.58187,-0.767178 -1.41059,-1.182871 -2.42975,-1.182871 -0.9733,0 -1.84788,0.342942 -2.57433,1.062833 -0.68061,0.707164 -0.96979,1.654317 -0.96979,2.717198 v 14.706043 h -5.34545 V 38.843208 h 5.34545 v 1.418589 c 1.55518,-1.178571 3.20558,-1.770007 5.00549,-1.770007 2.2358,0 4.03361,0.942853 5.34546,2.777136 1.84788,-1.830049 3.83928,-2.777136 5.97738,-2.777136 2.13706,0 3.98494,0.767111 5.54012,2.361442 1.5058,1.594303 2.28515,3.484261 2.28515,5.6696 z m 0,0" id="path618" />
  </g>
</svg>
