<?xml version="1.0" encoding="UTF-8"?>
<svg xmlns="http://www.w3.org/2000/svg" xmlns:ns1="http://sodipodi.sourceforge.net/DTD/sodipodi-0.dtd" viewBox="0 0 147.26466 76.062225" height="76.062225" width="147.26466" id="svg10" version="1.1">
  <defs id="defs14" />
  <ns1:namedview showgrid="false" id="namedview12" guidetolerance="10" gridtolerance="10" objecttolerance="10" borderopacity="1" bordercolor="#666666" pagecolor="#ffffff" />
  <g transform="translate(-4.3444189,-4.9309312)" id="g18">
    <path style="color:#000000;font-style:normal;font-variant:normal;font-weight:normal;font-stretch:normal;font-size:medium;line-height:normal;font-family:sans-serif;font-variant-ligatures:normal;font-variant-position:normal;font-variant-caps:normal;font-variant-numeric:normal;font-variant-alternates:normal;font-variant-east-asian:normal;font-feature-settings:normal;font-variation-settings:normal;text-indent:0;text-align:start;text-decoration:none;text-decoration-line:none;text-decoration-style:solid;text-decoration-color:#000000;letter-spacing:normal;word-spacing:normal;text-transform:none;writing-mode:lr-tb;direction:ltr;text-orientation:mixed;dominant-baseline:auto;baseline-shift:baseline;text-anchor:start;white-space:normal;shape-padding:0;shape-margin:0;inline-size:0;clip-rule:nonzero;display:inline;overflow:visible;visibility:visible;opacity:1;isolation:auto;mix-blend-mode:normal;color-interpolation:sRGB;color-interpolation-filters:linearRGB;solid-color:#000000;solid-opacity:1;vector-effect:none;fill:#ffffff;fill-opacity:1;fill-rule:nonzero;stroke:none;stroke-width:2.24504;stroke-linecap:butt;stroke-linejoin:miter;stroke-miterlimit:4;stroke-dasharray:none;stroke-dashoffset:0;stroke-opacity:1;color-rendering:auto;image-rendering:auto;shape-rendering:auto;text-rendering:auto;enable-background:accumulate;stop-color:#000000;stop-opacity:1" d="m 13.33141,6.3034886 h 129.29005 c 4.21844,0 7.61447,3.3960537 7.61447,7.6144774 v 58.089075 c 0,4.218423 -3.39603,7.614476 -7.61447,7.614476 H 13.33141 c -4.2184171,0 -7.6144716,-3.396052 -7.6144716,-7.614476 V 13.917966 c 0,-4.2184237 3.3960545,-7.6144774 7.6144716,-7.6144774 z" id="path81" />
    <path style="color:#000000;font-style:normal;font-variant:normal;font-weight:normal;font-stretch:normal;font-size:medium;line-height:normal;font-family:sans-serif;font-variant-ligatures:normal;font-variant-position:normal;font-variant-caps:normal;font-variant-numeric:normal;font-variant-alternates:normal;font-variant-east-asian:normal;font-feature-settings:normal;font-variation-settings:normal;text-indent:0;text-align:start;text-decoration:none;text-decoration-line:none;text-decoration-style:solid;text-decoration-color:#000000;letter-spacing:normal;word-spacing:normal;text-transform:none;writing-mode:lr-tb;direction:ltr;text-orientation:mixed;dominant-baseline:auto;baseline-shift:baseline;text-anchor:start;white-space:normal;shape-padding:0;shape-margin:0;inline-size:0;clip-rule:nonzero;display:inline;overflow:visible;visibility:visible;opacity:1;isolation:auto;mix-blend-mode:normal;color-interpolation:sRGB;color-interpolation-filters:linearRGB;solid-color:#000000;solid-opacity:1;vector-effect:none;fill:#2c4e36;fill-opacity:1;fill-rule:nonzero;stroke:none;stroke-width:0.5;stroke-linecap:butt;stroke-linejoin:miter;stroke-miterlimit:4;stroke-dasharray:none;stroke-dashoffset:0;stroke-opacity:1;color-rendering:auto;image-rendering:auto;shape-rendering:auto;text-rendering:auto;enable-background:accumulate;stop-color:#000000;stop-opacity:1" d="m 13.330731,5.1809312 c -4.820881,0 -8.7363121,3.9154219 -8.7363121,8.7363098 v 58.089603 c 0,4.820885 3.9154311,8.736312 8.7363121,8.736312 H 142.62091 c 4.82088,0 8.73818,-3.915427 8.73818,-8.736312 V 13.917241 c 0,-4.8208879 -3.9173,-8.7363098 -8.73818,-8.7363098 z m 0,2.2451989 H 142.62091 c 3.61596,0 6.49296,2.8751419 6.49299,6.4911109 v 58.089603 c 0,3.615959 -2.87703,6.492975 -6.49299,6.492989 H 13.330731 c -3.6159631,0 -6.4911127,-2.87703 -6.4911127,-6.492989 V 13.917241 c 0,-3.615969 2.8751496,-6.4911109 6.4911127,-6.4911109 z" id="path83" />
    <path id="path75" style="color:#000000;font-style:normal;font-variant:normal;font-weight:normal;font-stretch:normal;font-size:medium;line-height:normal;font-family:sans-serif;font-variant-ligatures:normal;font-variant-position:normal;font-variant-caps:normal;font-variant-numeric:normal;font-variant-alternates:normal;font-variant-east-asian:normal;font-feature-settings:normal;font-variation-settings:normal;text-indent:0;text-align:start;text-decoration:none;text-decoration-line:none;text-decoration-style:solid;text-decoration-color:#000000;letter-spacing:normal;word-spacing:normal;text-transform:none;writing-mode:lr-tb;direction:ltr;text-orientation:mixed;dominant-baseline:auto;baseline-shift:baseline;text-anchor:start;white-space:normal;shape-padding:0;shape-margin:0;inline-size:0;clip-rule:nonzero;display:inline;overflow:visible;visibility:visible;opacity:1;isolation:auto;mix-blend-mode:normal;color-interpolation:sRGB;color-interpolation-filters:linearRGB;solid-color:#000000;solid-opacity:1;vector-effect:none;fill:#2c4e36;fill-opacity:1;fill-rule:nonzero;stroke:none;stroke-width:2.24504;stroke-linecap:butt;stroke-linejoin:miter;stroke-miterlimit:4;stroke-dasharray:none;stroke-dashoffset:0;stroke-opacity:1;color-rendering:auto;image-rendering:auto;shape-rendering:auto;text-rendering:auto;enable-background:accumulate;stop-color:#000000;stop-opacity:1" d="m 13.326796,9.7199469 c -2.31666,0 -4.1824975,1.8791231 -4.1824975,4.2047211 v 58.085869 c 0,2.318529 1.8639745,4.182503 4.1824975,4.182503 H 142.62855 c 2.31853,0 4.18249,-1.863974 4.18249,-4.182503 V 13.924668 c 0,-2.325598 -1.86583,-4.2047211 -4.18249,-4.2047211 z" />
    <path style="opacity:1;fill:#ffffff;fill-opacity:1;fill-rule:nonzero;stroke:none;stroke-width:2.42129" d="m 36.138385,23.832501 h -6.16674 v -2.875289 h 6.885561 c 0.274288,-1.229582 0.510743,-2.610473 0.718824,-4.123783 2.194299,0.255375 3.414406,0.416172 3.669777,0.491838 0.245912,0.05666 0.378327,0.151325 0.378327,0.302663 0,0.132439 -0.07567,0.293194 -0.226997,0.491812 -0.30266,0.51075 -0.662074,1.456555 -1.059316,2.83747 h 11.349831 v 2.875289 H 39.505501 c -0.378329,1.210649 -0.822865,2.440207 -1.324147,3.669766 H 49.87168 v 2.875289 h -5.410096 v 6.393748 h 6.999072 v 2.761779 H 33.452258 v -2.761779 h 7.717883 v -6.393748 h -4.388599 c -1.31469,2.402386 -3.09283,4.672352 -5.334419,6.809897 -0.964737,-0.756656 -1.929471,-1.380891 -2.913123,-1.891639 1.986218,-1.588974 3.575194,-3.272526 4.766928,-5.069588 1.182272,-1.815973 2.128092,-3.944075 2.837457,-6.393725 z m 0,0" id="path32" />
    <path style="opacity:1;fill:#ffffff;fill-opacity:1;fill-rule:nonzero;stroke:none;stroke-width:2.41956" d="m 28.628478,57.590306 v 7.523297 l 5.028147,-0.151217 v -6.048897 h 2.684184 c 0.576532,0 0.86954,0.151218 0.86954,0.453668 0,0.104034 -0.03775,0.25519 -0.113472,0.453666 -0.132343,0.378055 -0.188966,1.2287 -0.188966,2.532986 v 6.918409 H 33.656625 V 67.759995 L 17.249,68.289272 v -9.375783 h 2.797612 c 0.453668,0 0.6805,0.113473 0.6805,0.340262 0,0.104035 -0.06615,0.283549 -0.189039,0.529279 -0.103962,0.25519 -0.151217,0.756112 -0.151217,1.512221 v 4.083003 l 4.990335,-0.151215 v -7.636733 h -7.220864 v -9.148949 h 2.684196 c 0.529278,0 0.793915,0.11347 0.793915,0.340237 0,0.104035 -0.05671,0.264651 -0.151215,0.491484 -0.103962,0.226713 -0.151217,0.746653 -0.151217,1.550017 v 4.083003 h 4.045196 v -8.770894 h 2.722002 c 0.349701,0 0.576533,0.02831 0.6805,0.07549 0.122871,0.05661 0.189042,0.141779 0.189042,0.26465 0,0.132344 -0.06615,0.359159 -0.189042,0.680502 -0.103963,0.302443 -0.151217,1.058554 -0.151217,2.268334 v 5.481797 h 4.045202 v -6.38901 h 2.684183 c 0.52928,0 0.79393,0.151217 0.79393,0.453667 0,0.132343 -0.03775,0.321341 -0.113471,0.567072 -0.07549,0.226711 -0.132343,0.51038 -0.151216,0.831721 0,0.330803 0,0.869542 0,1.625652 v 5.595227 z m 0,0" id="path38" />
    <path style="opacity:1;fill:#ffffff;fill-opacity:1;fill-rule:nonzero;stroke:none;stroke-width:2.6036" d="m 48.145157,66.964016 v 2.481571 H 44.727931 V 49.267674 H 63.766765 V 69.364223 H 60.064783 V 66.964016 Z M 60.064783,64.075659 V 52.237395 H 48.145157 v 11.838264 z m 0,0" id="path40" />
    <ellipse ry="27.581305" rx="33.625614" cy="43.083675" cx="106.77561" id="path1452" style="opacity:1;fill:#ffffff;stroke-width:0.983678" />
    <g style="opacity:1;fill:#2c4e36;fill-opacity:1" transform="translate(-0.35448312,-0.24786662)" id="g1456">
      <path id="path1205" d="m 105.57571,52.328711 h -2.866 v 7.279528 H 99.079424 V 52.328711 H 87.902 V 46.194276 L 99.079424,26.727679 h 3.630286 v 19.630184 h 2.866 z M 99.079424,46.357863 V 35.397679 l -6.209688,10.960184 z m 0,0" style="fill:#2c4e36;fill-opacity:1;fill-rule:nonzero;stroke:none;stroke-width:4.00036" />
      <path id="path1237" d="m 124.26515,41.777485 c 0.75135,1.104203 1.28803,2.249299 1.61005,3.435282 0.32182,1.145096 0.48299,2.576467 0.48299,4.253212 0,3.005872 -0.77818,5.520989 -2.30773,7.524902 -1.54298,1.963017 -3.46159,2.944524 -5.74252,2.944524 -2.25409,0 -4.05194,-0.511201 -5.36684,-1.554052 -1.32828,-1.022403 -2.2809,-2.474222 -2.84439,-4.335001 -0.57694,-1.840326 -0.85871,-3.517074 -0.85871,-4.989336 0,-2.719601 0.75136,-5.173372 2.25407,-7.361321 -1.00627,-1.799431 -1.50271,-3.721553 -1.50271,-5.807262 0,-2.883183 0.76479,-5.112025 2.30772,-6.706979 1.52957,-1.635847 3.44819,-2.453775 5.74253,-2.453775 2.32115,0 4.18613,0.858824 5.58151,2.535568 1.42222,1.635847 2.14674,3.885143 2.14674,6.70698 0,2.290184 -0.50987,4.232757 -1.50271,5.807258 z m -6.11819,-3.353487 c 1.07336,0 1.90522,-0.204475 2.5224,-0.654341 0.60378,-0.490755 0.91237,-1.104194 0.91237,-1.881224 0,-0.756579 -0.32185,-1.410916 -0.96604,-1.963017 -0.61719,-0.531649 -1.5027,-0.817928 -2.68343,-0.817928 -1.15386,0 -2.06621,0.245384 -2.73707,0.736135 -0.64404,0.490754 -0.96603,1.145092 -0.96603,1.963017 0,0.817928 0.32181,1.472262 0.96603,1.963017 0.67086,0.449862 1.66374,0.654341 2.95177,0.654341 z m -0.0535,15.213392 c 1.35514,0 2.37482,-0.368065 3.05909,-1.145095 0.71111,-0.756576 1.07338,-1.840325 1.07338,-3.271696 0,-2.780946 -1.4222,-4.171411 -4.23982,-4.171411 -1.4356,0 -2.54922,0.38852 -3.32744,1.145088 -0.75134,0.715687 -1.12703,1.717644 -1.12703,3.026323 0,2.944529 1.51616,4.416791 4.56182,4.416791 z m 0,0" style="fill:#2c4e36;fill-opacity:1;fill-rule:nonzero;stroke:none;stroke-width:4.24029" />
    </g>
  </g>
</svg>
