<?xml version="1.0" encoding="UTF-8"?>
<svg xmlns="http://www.w3.org/2000/svg" xmlns:ns1="http://sodipodi.sourceforge.net/DTD/sodipodi-0.dtd" viewBox="0 0 173.00172 84.848633" height="84.848633" width="173.00172" id="svg12516" version="1.1">
  <defs id="defs12520" />
  <ns1:namedview showgrid="false" id="namedview12518" guidetolerance="10" gridtolerance="10" objecttolerance="10" borderopacity="1" bordercolor="#666666" pagecolor="#ffffff" />
  <g transform="translate(-3.057,-2.4272006)" id="g12524">
    <path id="path11391" d="m 15.718479,4.2712394 c -5.9920492,0 -10.8174395,4.8253899 -10.8174395,10.8174396 v 59.525677 c 0,5.992049 4.8253903,10.817439 10.8174395,10.817439 H 163.39725 c 5.99204,0 10.81743,-4.82539 10.81743,-10.817439 V 15.088679 c 0,-5.9920497 -4.82539,-10.8174396 -10.81743,-10.8174396 z" style="color:#000000;font-style:normal;font-variant:normal;font-weight:normal;font-stretch:normal;font-size:medium;line-height:normal;font-family:sans-serif;font-variant-ligatures:normal;font-variant-position:normal;font-variant-caps:normal;font-variant-numeric:normal;font-variant-alternates:normal;font-variant-east-asian:normal;font-feature-settings:normal;font-variation-settings:normal;text-indent:0;text-align:start;text-decoration:none;text-decoration-line:none;text-decoration-style:solid;text-decoration-color:#000000;letter-spacing:normal;word-spacing:normal;text-transform:none;writing-mode:lr-tb;direction:ltr;text-orientation:mixed;dominant-baseline:auto;baseline-shift:baseline;text-anchor:start;white-space:normal;shape-padding:0;shape-margin:0;inline-size:0;clip-rule:nonzero;display:inline;overflow:visible;visibility:visible;opacity:1;isolation:auto;mix-blend-mode:normal;color-interpolation:sRGB;color-interpolation-filters:linearRGB;solid-color:#000000;solid-opacity:1;vector-effect:none;fill:#ffffff;fill-opacity:1;fill-rule:nonzero;stroke:none;stroke-width:3.18896;stroke-linecap:butt;stroke-linejoin:miter;stroke-miterlimit:4;stroke-dasharray:none;stroke-dashoffset:0;stroke-opacity:1;color-rendering:auto;image-rendering:auto;shape-rendering:auto;text-rendering:auto;enable-background:accumulate;stop-color:#000000;stop-opacity:1" />
    <path id="path11393" d="M 15.718479,2.6772006 C 8.87041,2.6772006 3.307,8.2406074 3.307,15.088679 v 59.525677 c 0,6.848071 5.56341,12.411479 12.411479,12.411479 H 163.39725 c 6.84806,0 12.41147,-5.563409 12.41147,-12.411479 V 15.088679 c 0,-6.8480705 -5.56341,-12.4114784 -12.41147,-12.4114784 z m 0,3.1880784 H 163.39725 c 5.13603,0 9.22339,4.0873712 9.22339,9.2234 v 59.525677 c 0,5.13603 -4.08736,9.2234 -9.22339,9.2234 H 15.718479 c -5.136029,0 -9.223399,-4.08737 -9.223399,-9.2234 V 15.088679 c 0,-5.1360277 4.087371,-9.2234 9.223399,-9.2234 z" style="color:#000000;font-style:normal;font-variant:normal;font-weight:normal;font-stretch:normal;font-size:medium;line-height:normal;font-family:sans-serif;font-variant-ligatures:normal;font-variant-position:normal;font-variant-caps:normal;font-variant-numeric:normal;font-variant-alternates:normal;font-variant-east-asian:normal;font-feature-settings:normal;font-variation-settings:normal;text-indent:0;text-align:start;text-decoration:none;text-decoration-line:none;text-decoration-style:solid;text-decoration-color:#000000;letter-spacing:normal;word-spacing:normal;text-transform:none;writing-mode:lr-tb;direction:ltr;text-orientation:mixed;dominant-baseline:auto;baseline-shift:baseline;text-anchor:start;white-space:normal;shape-padding:0;shape-margin:0;inline-size:0;clip-rule:nonzero;display:inline;overflow:visible;visibility:visible;opacity:1;isolation:auto;mix-blend-mode:normal;color-interpolation:sRGB;color-interpolation-filters:linearRGB;solid-color:#000000;solid-opacity:1;vector-effect:none;fill:#244a38;fill-opacity:1;fill-rule:nonzero;stroke:none;stroke-width:0.5;stroke-linecap:butt;stroke-linejoin:miter;stroke-miterlimit:4;stroke-dasharray:none;stroke-dashoffset:0;stroke-opacity:1;color-rendering:auto;image-rendering:auto;shape-rendering:auto;text-rendering:auto;enable-background:accumulate;stop-color:#000000;stop-opacity:1" />
    <path d="m 15.712245,9.1240194 c -3.290636,0 -5.9397213,2.6697636 -5.9397213,5.9729736 v 59.523598 c 0,3.293173 2.6465483,5.939719 5.9397213,5.939719 H 163.40763 c 3.29318,0 5.93972,-2.646544 5.93972,-5.939719 V 15.096993 c 0,-3.303212 -2.64908,-5.9729736 -5.93972,-5.9729736 z" style="color:#000000;font-style:normal;font-variant:normal;font-weight:normal;font-stretch:normal;font-size:medium;line-height:normal;font-family:sans-serif;font-variant-ligatures:normal;font-variant-position:normal;font-variant-caps:normal;font-variant-numeric:normal;font-variant-alternates:normal;font-variant-east-asian:normal;font-feature-settings:normal;font-variation-settings:normal;text-indent:0;text-align:start;text-decoration:none;text-decoration-line:none;text-decoration-style:solid;text-decoration-color:#000000;letter-spacing:normal;word-spacing:normal;text-transform:none;writing-mode:lr-tb;direction:ltr;text-orientation:mixed;dominant-baseline:auto;baseline-shift:baseline;text-anchor:start;white-space:normal;shape-padding:0;shape-margin:0;inline-size:0;clip-rule:nonzero;display:inline;overflow:visible;visibility:visible;opacity:1;isolation:auto;mix-blend-mode:normal;color-interpolation:sRGB;color-interpolation-filters:linearRGB;solid-color:#000000;solid-opacity:1;vector-effect:none;fill:#244a38;fill-opacity:1;fill-rule:nonzero;stroke:none;stroke-width:3.18896;stroke-linecap:butt;stroke-linejoin:miter;stroke-miterlimit:4;stroke-dasharray:none;stroke-dashoffset:0;stroke-opacity:1;color-rendering:auto;image-rendering:auto;shape-rendering:auto;text-rendering:auto;enable-background:accumulate;stop-color:#000000;stop-opacity:1" id="path11374" />
    <g transform="matrix(2.1141894,0,0,2.9010513,65.66832,61.75702)" style="opacity:1;fill:#ffffff;fill-opacity:1" id="use3117">
      <path id="path12566" d="m 6.296875,-12.140625 c 1.425781,0 2.613281,0.554687 3.5625,1.65625 0.945313,1.105469 1.421875,2.601562 1.421875,4.484375 0,1.875 -0.449219,3.367187 -1.34375,4.46875 C 9.039063,-0.425781 7.8125,0.125 6.25,0.125 4.695313,0.125 3.46875,-0.414063 2.5625,-1.5 1.65625,-2.59375 1.203125,-4.082031 1.203125,-5.96875 c 0,-1.894531 0.453125,-3.394531 1.359375,-4.5 0.90625,-1.113281 2.148438,-1.671875 3.734375,-1.671875 z M 6.40625,-2.25 c 0.75,0 1.359375,-0.347656 1.828125,-1.046875 C 8.703125,-4.003906 8.9375,-4.957031 8.9375,-6.15625 8.9375,-7.351563 8.722656,-8.253906 8.296875,-8.859375 7.867188,-9.472656 7.191406,-9.78125 6.265625,-9.78125 c -1.804687,0 -2.703125,1.273437 -2.703125,3.8125 0,1.199219 0.242188,2.121094 0.734375,2.765625 C 4.785156,-2.566406 5.488281,-2.25 6.40625,-2.25 Z m 0,0" style="fill:#ffffff;stroke:none" />
    </g>
    <g transform="matrix(1.741789,0,0,1.9665267,-428.29671,-205.98497)" style="opacity:1;fill:#ffffff;fill-opacity:1" id="g321">
      <g style="fill:#ffffff" id="use319" transform="matrix(0.46324831,0,0,0.46324831,299.76899,136.60241)">
        <path id="path1453" d="m 20.484375,0 h -3.09375 v -7.078125 c 0,-0.507813 -0.210937,-0.945313 -0.625,-1.3125 -0.40625,-0.375 -0.886719,-0.5625 -1.4375,-0.5625 -0.554687,0 -1.015625,0.195312 -1.390625,0.578125 C 13.5625,-8 13.375,-7.566406 13.375,-7.078125 V 0 h -3.03125 v -7.140625 c 0,-0.46875 -0.179687,-0.882813 -0.53125,-1.25 -0.355469,-0.375 -0.824219,-0.5625 -1.40625,-0.5625 -0.585937,0 -1.085937,0.179687 -1.5,0.53125 C 6.5,-8.066406 6.296875,-7.640625 6.296875,-7.140625 V 0 h -3.15625 v -11.8125 h 3.15625 v 0.734375 c 0.925781,-0.59375 1.914063,-0.890625 2.96875,-0.890625 1.3125,0 2.347656,0.460937 3.109375,1.375 1.09375,-0.894531 2.265625,-1.34375 3.515625,-1.34375 1.257813,0 2.335938,0.382812 3.234375,1.140625 0.90625,0.761719 1.359375,1.679687 1.359375,2.75 z m 0,0" style="fill:#ffffff;stroke:none" />
      </g>
    </g>
  </g>
</svg>
