<?xml version="1.0" encoding="UTF-8"?>
<svg xmlns="http://www.w3.org/2000/svg" xmlns:ns1="http://sodipodi.sourceforge.net/DTD/sodipodi-0.dtd" viewBox="0 0 137.10083 63.783325" height="63.783325" width="137.10083" id="svg2237" version="1.1">
  <defs id="defs2241" />
  <ns1:namedview showgrid="false" id="namedview2239" guidetolerance="10" gridtolerance="10" objecttolerance="10" borderopacity="1" bordercolor="#666666" pagecolor="#ffffff" />
  <g transform="translate(-2.0180842,-3.9451135)" id="g2245">
    <path id="path11391" d="m 14.838957,5.8096244 c -6.0690028,0 -10.9563628,4.8873586 -10.9563628,10.9563606 V 54.90756 c 0,6.06901 4.88736,10.95636 10.9563628,10.95636 H 126.29803 c 6.069,0 10.95637,-4.88735 10.95637,-10.95636 V 16.765985 c 0,-6.069002 -4.88737,-10.9563606 -10.95637,-10.9563606 z" style="color:#000000;font-style:normal;font-variant:normal;font-weight:normal;font-stretch:normal;font-size:medium;line-height:normal;font-family:sans-serif;font-variant-ligatures:normal;font-variant-position:normal;font-variant-caps:normal;font-variant-numeric:normal;font-variant-alternates:normal;font-variant-east-asian:normal;font-feature-settings:normal;font-variation-settings:normal;text-indent:0;text-align:start;text-decoration:none;text-decoration-line:none;text-decoration-style:solid;text-decoration-color:#000000;letter-spacing:normal;word-spacing:normal;text-transform:none;writing-mode:lr-tb;direction:ltr;text-orientation:mixed;dominant-baseline:auto;baseline-shift:baseline;text-anchor:start;white-space:normal;shape-padding:0;shape-margin:0;inline-size:0;clip-rule:nonzero;display:inline;overflow:visible;visibility:visible;opacity:1;isolation:auto;mix-blend-mode:normal;color-interpolation:sRGB;color-interpolation-filters:linearRGB;solid-color:#000000;solid-opacity:1;vector-effect:none;fill:#ffffff;fill-opacity:1;fill-rule:nonzero;stroke:none;stroke-width:3.22992;stroke-linecap:butt;stroke-linejoin:miter;stroke-miterlimit:4;stroke-dasharray:none;stroke-dashoffset:0;stroke-opacity:1;color-rendering:auto;image-rendering:auto;shape-rendering:auto;text-rendering:auto;enable-background:accumulate;stop-color:#000000;stop-opacity:1" />
    <path id="path11393" d="m 14.838957,4.1951135 c -6.9360158,0 -12.5708728,5.6348557 -12.5708728,12.5708715 V 54.90756 c 0,6.93602 5.634857,12.57088 12.5708728,12.57088 H 126.29803 c 6.93603,0 12.57088,-5.63486 12.57088,-12.57088 V 16.765985 c 0,-6.9360158 -5.63485,-12.5708715 -12.57088,-12.5708715 z m 0,3.2290219 H 126.29803 c 5.20201,0 9.34185,4.1398616 9.34185,9.3418496 V 54.90756 c 0,5.20199 -4.13984,9.34185 -9.34185,9.34185 H 14.838957 c -5.2019868,0 -9.3418518,-4.13986 -9.3418518,-9.34185 V 16.765985 c 0,-5.201987 4.139866,-9.3418496 9.3418518,-9.3418496 z" style="color:#000000;font-style:normal;font-variant:normal;font-weight:normal;font-stretch:normal;font-size:medium;line-height:normal;font-family:sans-serif;font-variant-ligatures:normal;font-variant-position:normal;font-variant-caps:normal;font-variant-numeric:normal;font-variant-alternates:normal;font-variant-east-asian:normal;font-feature-settings:normal;font-variation-settings:normal;text-indent:0;text-align:start;text-decoration:none;text-decoration-line:none;text-decoration-style:solid;text-decoration-color:#000000;letter-spacing:normal;word-spacing:normal;text-transform:none;writing-mode:lr-tb;direction:ltr;text-orientation:mixed;dominant-baseline:auto;baseline-shift:baseline;text-anchor:start;white-space:normal;shape-padding:0;shape-margin:0;inline-size:0;clip-rule:nonzero;display:inline;overflow:visible;visibility:visible;opacity:1;isolation:auto;mix-blend-mode:normal;color-interpolation:sRGB;color-interpolation-filters:linearRGB;solid-color:#000000;solid-opacity:1;vector-effect:none;fill:#2138a5;fill-opacity:1;fill-rule:nonzero;stroke:none;stroke-width:0.5;stroke-linecap:butt;stroke-linejoin:miter;stroke-miterlimit:4;stroke-dasharray:none;stroke-dashoffset:0;stroke-opacity:1;color-rendering:auto;image-rendering:auto;shape-rendering:auto;text-rendering:auto;enable-background:accumulate;stop-color:#000000;stop-opacity:1" />
    <path d="m 14.832642,10.724725 c -3.332895,0 -6.0160018,2.70405 -6.0160018,6.049682 V 54.91388 c 0,3.33546 2.6805378,6.016 6.0160018,6.016 H 126.30856 c 3.33547,0 6.016,-2.68053 6.016,-6.016 V 16.774407 c 0,-3.345633 -2.6831,-6.049682 -6.016,-6.049682 z" style="color:#000000;font-style:normal;font-variant:normal;font-weight:normal;font-stretch:normal;font-size:medium;line-height:normal;font-family:sans-serif;font-variant-ligatures:normal;font-variant-position:normal;font-variant-caps:normal;font-variant-numeric:normal;font-variant-alternates:normal;font-variant-east-asian:normal;font-feature-settings:normal;font-variation-settings:normal;text-indent:0;text-align:start;text-decoration:none;text-decoration-line:none;text-decoration-style:solid;text-decoration-color:#000000;letter-spacing:normal;word-spacing:normal;text-transform:none;writing-mode:lr-tb;direction:ltr;text-orientation:mixed;dominant-baseline:auto;baseline-shift:baseline;text-anchor:start;white-space:normal;shape-padding:0;shape-margin:0;inline-size:0;clip-rule:nonzero;display:inline;overflow:visible;visibility:visible;opacity:1;isolation:auto;mix-blend-mode:normal;color-interpolation:sRGB;color-interpolation-filters:linearRGB;solid-color:#000000;solid-opacity:1;vector-effect:none;fill:#2138a5;fill-opacity:1;fill-rule:nonzero;stroke:none;stroke-width:3.22992;stroke-linecap:butt;stroke-linejoin:miter;stroke-miterlimit:4;stroke-dasharray:none;stroke-dashoffset:0;stroke-opacity:1;color-rendering:auto;image-rendering:auto;shape-rendering:auto;text-rendering:auto;enable-background:accumulate;stop-color:#000000;stop-opacity:1" id="path11374" />
    <path style="opacity:1;fill:#ffffff;fill-opacity:1;fill-rule:nonzero;stroke:none;stroke-width:3.17457" d="m 37.586066,31.92748 c 2.207314,-1.488082 4.067423,-3.050575 5.555505,-4.712275 2.30652,2.380932 3.472191,3.745015 3.472191,4.067423 0,0.235546 -0.297458,0.396823 -0.89285,0.496029 -0.570437,0.09905 -1.711284,0.719263 -3.422602,1.835317 -1.723699,1.09126 -3.298575,2.033696 -4.712244,2.82734 v 8.58129 c 0,0.595232 0.0619,0.992052 0.198403,1.190465 0.124118,0.16126 0.45882,0.247934 0.992053,0.247934 h 1.934493 c 0.595233,0 0.992055,-0.08666 1.190465,-0.247934 0.223165,-0.161261 0.372028,-0.545647 0.446441,-1.14088 0.09905,-0.595233 0.161261,-1.686493 0.198403,-3.27378 1.649288,1.029259 3.186955,1.67411 4.613037,1.934523 -0.297456,1.959316 -0.781231,3.546603 -1.438463,4.811449 -0.669644,1.289669 -1.971727,1.934521 -3.918631,1.934521 h -5.10905 c -1.326881,0 -2.21973,-0.322409 -2.678555,-0.942468 -0.434025,-0.595232 -0.644834,-1.612081 -0.644834,-3.025749 V 21.510909 h 3.869003 c 0.496027,0 0.744055,0.14888 0.744055,0.446408 0,0.09905 -0.04952,0.272695 -0.148879,0.496027 -0.173666,0.396822 -0.247941,0.979674 -0.247941,1.736112 z m -11.706252,2.182521 h -7.390806 v -4.067424 h 7.390806 v -8.28367 h 3.819411 c 0.520826,0 0.793643,0.173642 0.793643,0.496026 0,0.173641 -0.0744,0.347235 -0.198403,0.545645 -0.272823,0.471234 -0.396823,1.463289 -0.396823,2.976164 v 25.247774 h -4.017821 v -5.753915 c -2.91416,1.450906 -5.158682,2.690959 -6.745971,3.720219 l -1.984108,-4.563452 c 2.182518,-0.657232 5.084278,-1.835317 8.730079,-3.521809 z m 0,0" id="path897" />
    <path style="opacity:1;fill:#ffffff;fill-opacity:1;fill-rule:nonzero;stroke:none;stroke-width:3.17457" d="m 67.92042,24.139837 c -0.297456,-1.15326 -0.620056,-2.04611 -0.942467,-2.678547 l 5.357094,-0.84323 c 0.297458,1.264877 0.508441,2.430517 0.644852,3.521777 h 11.607039 v 3.52181 H 55.569326 v -3.52181 z m 4.36504,15.47605 v 8.184468 c 0,0.855645 -0.173642,1.550082 -0.496027,2.083314 -0.334822,0.520822 -0.979674,0.942437 -1.934523,1.240053 -0.930053,0.322443 -2.306517,0.595233 -4.117008,0.793644 -0.272697,-1.562463 -0.868056,-3.025749 -1.785699,-4.414627 1.314465,0.198403 2.207315,0.297458 2.678548,0.297458 0.496027,0 0.806024,-0.09905 0.942435,-0.297458 0.161259,-0.173642 0.247936,-0.471235 0.247936,-0.89285 v -6.994002 h -7.837233 v -9.870926 h 20.783528 v 9.870926 z m 3.968219,-3.27378 V 33.167533 H 64.24982 v 3.174574 z m -14.583202,4.265836 c 0.855644,0.396823 1.698874,0.843261 2.529725,1.33929 0.855642,0.471234 1.351669,0.76885 1.488081,0.892849 0.161261,0.09905 0.247934,0.235546 0.247934,0.396821 0,0.136498 -0.198403,0.322411 -0.595233,0.545614 -1.091259,0.595233 -3.509398,2.504963 -7.241999,5.753917 -0.967261,-0.892848 -2.083315,-1.636873 -3.372985,-2.232106 2.442931,-1.711287 4.761863,-3.943427 6.944381,-6.696385 z m 23.263665,6.101152 -3.27378,2.976164 C 79.34143,47.527534 76.898499,45.605422 74.319156,43.881723 l 3.025783,-2.827339 c 2.777753,1.92211 5.307476,3.807014 7.589203,5.654711 z m 0,0" id="path899" />
    <path style="opacity:1;fill:#ffffff;fill-opacity:1;fill-rule:nonzero;stroke:none;stroke-width:3.17457" d="m 105.91275,35.697289 c -1.32688,1.463288 -2.80255,2.728133 -4.41466,3.819394 h 1.98411 c 0.55802,0 0.84326,0.1365 0.84326,0.396821 0,0.136498 -0.0867,0.347234 -0.24794,0.644851 -0.13649,0.272698 -0.1984,0.83085 -0.1984,1.686494 0,3.013371 -0.62002,5.158686 -1.83528,6.448355 -1.19047,1.314465 -3.025785,2.455344 -5.505922,3.422574 -0.96723,-1.165642 -2.008904,-2.17011 -3.124956,-3.025752 2.802547,-0.793642 4.56345,-1.760906 5.257889,-2.876957 0.719231,-1.091262 1.10364,-2.926579 1.140847,-5.50592 -2.083315,1.289669 -4.166629,2.368551 -6.249945,3.224193 -0.930055,-1.450875 -1.860078,-2.678548 -2.777753,-3.670604 4.427041,-0.892848 7.713233,-2.405722 9.87096,-4.563449 H 95.496267 V 21.858111 h 22.767643 v 13.839178 h -5.05948 c 2.14532,1.785698 5.3571,3.000957 9.62292,3.620982 -0.99205,1.388878 -1.81049,2.827372 -2.43051,4.315455 -2.65375,-1.116055 -4.78665,-2.157727 -6.39877,-3.124989 -0.1984,0.43403 -0.29745,1.240084 -0.29745,2.43055 v 8.482052 h -4.16663 V 39.8143 h 3.3234 c -1.72371,-1.091262 -3.29858,-2.455311 -4.71228,-4.117011 z m 7.98602,-8.283674 V 25.18151 h -5.15867 v 2.232105 z m -9.27569,-2.232105 h -5.109103 v 2.232105 h 5.109103 z m 4.11701,7.440409 h 5.15868 v -2.281725 h -5.15868 z m -9.226113,-2.281725 v 2.281725 h 5.109103 v -2.281725 z m 0,0" id="path901" />
  </g>
</svg>
