<?xml version="1.0" encoding="UTF-8"?>
<svg xmlns="http://www.w3.org/2000/svg" xmlns:ns1="http://sodipodi.sourceforge.net/DTD/sodipodi-0.dtd" viewBox="0 0 335.61295 292.6645" height="292.66449" width="335.61295" id="svg1653" version="1.1">
  <defs id="defs1657">
    <pattern y="0" x="0" height="6" width="6" patternUnits="userSpaceOnUse" id="EMFhbasepattern" />
    <pattern y="0" x="0" height="6" width="6" patternUnits="userSpaceOnUse" id="EMFhbasepattern-0" />
  </defs>
  <ns1:namedview showgrid="false" id="namedview1655" guidetolerance="10" gridtolerance="10" objecttolerance="10" borderopacity="1" bordercolor="#666666" pagecolor="#ffffff" />
  <g transform="translate(-273.78288,90.395125)" id="g1661">
    <g transform="matrix(5.0985187,0,0,5.0985187,-935.69911,-277.56179)" style="fill:#000000;fill-opacity:1" id="g143">
      <g transform="translate(204.51292,77.279999)" id="use141" />
    </g>
    <path style="color:#000000;font-style:normal;font-variant:normal;font-weight:normal;font-stretch:normal;font-size:medium;line-height:normal;font-family:sans-serif;font-variant-ligatures:normal;font-variant-position:normal;font-variant-caps:normal;font-variant-numeric:normal;font-variant-alternates:normal;font-variant-east-asian:normal;font-feature-settings:normal;font-variation-settings:normal;text-indent:0;text-align:start;text-decoration:none;text-decoration-line:none;text-decoration-style:solid;text-decoration-color:#000000;letter-spacing:normal;word-spacing:normal;text-transform:none;writing-mode:lr-tb;direction:ltr;text-orientation:mixed;dominant-baseline:auto;baseline-shift:baseline;text-anchor:start;white-space:normal;shape-padding:0;shape-margin:0;inline-size:0;clip-rule:nonzero;display:inline;overflow:visible;visibility:visible;opacity:1;isolation:auto;mix-blend-mode:normal;color-interpolation:sRGB;color-interpolation-filters:linearRGB;solid-color:#000000;solid-opacity:1;vector-effect:none;fill:#ffffff;fill-opacity:1;fill-rule:nonzero;stroke:none;stroke-width:4.15628;stroke-linecap:butt;stroke-linejoin:miter;stroke-miterlimit:4;stroke-dasharray:none;stroke-dashoffset:0;stroke-opacity:1;color-rendering:auto;image-rendering:auto;shape-rendering:auto;text-rendering:auto;enable-background:accumulate;stop-color:#000000;stop-opacity:1" d="m 290.30193,-87.974834 c -7.80966,0 -14.09875,6.289097 -14.09875,14.09874 V 185.75034 c 0,7.80964 6.28909,14.09873 14.09875,14.09873 H 592.8768 c 7.80964,0 14.09874,-6.28909 14.09874,-14.09873 V -73.876094 c 0,-7.809643 -6.2891,-14.09874 -14.09874,-14.09874 z" id="path17489" />
    <path style="color:#000000;font-style:normal;font-variant:normal;font-weight:normal;font-stretch:normal;font-size:medium;line-height:normal;font-family:sans-serif;font-variant-ligatures:normal;font-variant-position:normal;font-variant-caps:normal;font-variant-numeric:normal;font-variant-alternates:normal;font-variant-east-asian:normal;font-feature-settings:normal;font-variation-settings:normal;text-indent:0;text-align:start;text-decoration:none;text-decoration-line:none;text-decoration-style:solid;text-decoration-color:#000000;letter-spacing:normal;word-spacing:normal;text-transform:none;writing-mode:lr-tb;direction:ltr;text-orientation:mixed;dominant-baseline:auto;baseline-shift:baseline;text-anchor:start;white-space:normal;shape-padding:0;shape-margin:0;inline-size:0;clip-rule:nonzero;display:inline;overflow:visible;visibility:visible;opacity:1;isolation:auto;mix-blend-mode:normal;color-interpolation:sRGB;color-interpolation-filters:linearRGB;solid-color:#000000;solid-opacity:1;vector-effect:none;fill:#244a38;fill-opacity:1;fill-rule:nonzero;stroke:none;stroke-width:0.685453;stroke-linecap:butt;stroke-linejoin:miter;stroke-miterlimit:4;stroke-dasharray:none;stroke-dashoffset:0;stroke-opacity:1;color-rendering:auto;image-rendering:auto;shape-rendering:auto;text-rendering:auto;enable-background:accumulate;stop-color:#000000;stop-opacity:1" d="m 290.30193,-90.052399 c -8.92533,0 -16.17632,7.250979 -16.17632,16.176305 V 185.75034 c 0,8.92532 7.25099,16.1763 16.17632,16.1763 H 592.8768 c 8.92532,0 16.1763,-7.25098 16.1763,-16.1763 V -73.876094 c 0,-8.925325 -7.25098,-16.176305 -16.1763,-16.176305 z m 0,4.155131 H 592.8768 c 6.69397,0 12.02117,5.327211 12.02117,12.021174 V 185.75034 c 0,6.69395 -5.3272,12.02117 -12.02117,12.02117 H 290.30193 c -6.69397,0 -12.02119,-5.32722 -12.02119,-12.02117 V -73.876094 c 0,-6.693962 5.32722,-12.021174 12.02119,-12.021174 z" id="path17491" />
    <path id="path17493" style="color:#000000;font-style:normal;font-variant:normal;font-weight:normal;font-stretch:normal;font-size:medium;line-height:normal;font-family:sans-serif;font-variant-ligatures:normal;font-variant-position:normal;font-variant-caps:normal;font-variant-numeric:normal;font-variant-alternates:normal;font-variant-east-asian:normal;font-feature-settings:normal;font-variation-settings:normal;text-indent:0;text-align:start;text-decoration:none;text-decoration-line:none;text-decoration-style:solid;text-decoration-color:#000000;letter-spacing:normal;word-spacing:normal;text-transform:none;writing-mode:lr-tb;direction:ltr;text-orientation:mixed;dominant-baseline:auto;baseline-shift:baseline;text-anchor:start;white-space:normal;shape-padding:0;shape-margin:0;inline-size:0;clip-rule:nonzero;display:inline;overflow:visible;visibility:visible;opacity:1;isolation:auto;mix-blend-mode:normal;color-interpolation:sRGB;color-interpolation-filters:linearRGB;solid-color:#000000;solid-opacity:1;vector-effect:none;fill:#244a38;fill-opacity:1;fill-rule:nonzero;stroke:none;stroke-width:4.15628;stroke-linecap:butt;stroke-linejoin:miter;stroke-miterlimit:4;stroke-dasharray:none;stroke-dashoffset:0;stroke-opacity:1;color-rendering:auto;image-rendering:auto;shape-rendering:auto;text-rendering:auto;enable-background:accumulate;stop-color:#000000;stop-opacity:1" d="m 276.41602,114.08789 v 68.46094 c 0,4.2921 3.45008,7.74219 7.74218,7.74219 h 302.59571 c 4.29211,0 7.74218,-3.45009 7.74218,-7.74219 v -68.46094 z" transform="translate(6.1359469,3.2094908)" />
    <path id="path17535" style="color:#000000;font-style:normal;font-variant:normal;font-weight:normal;font-stretch:normal;font-size:medium;line-height:normal;font-family:sans-serif;font-variant-ligatures:normal;font-variant-position:normal;font-variant-caps:normal;font-variant-numeric:normal;font-variant-alternates:normal;font-variant-east-asian:normal;font-feature-settings:normal;font-variation-settings:normal;text-indent:0;text-align:start;text-decoration:none;text-decoration-line:none;text-decoration-style:solid;text-decoration-color:#000000;letter-spacing:normal;word-spacing:normal;text-transform:none;writing-mode:lr-tb;direction:ltr;text-orientation:mixed;dominant-baseline:auto;baseline-shift:baseline;text-anchor:start;white-space:normal;shape-padding:0;shape-margin:0;inline-size:0;clip-rule:nonzero;display:inline;overflow:visible;visibility:visible;opacity:1;isolation:auto;mix-blend-mode:normal;color-interpolation:sRGB;color-interpolation-filters:linearRGB;solid-color:#000000;solid-opacity:1;vector-effect:none;fill:#ffee33;fill-opacity:1;fill-rule:nonzero;stroke:none;stroke-width:4.15628;stroke-linecap:butt;stroke-linejoin:miter;stroke-miterlimit:4;stroke-dasharray:none;stroke-dashoffset:0;stroke-opacity:1;color-rendering:auto;image-rendering:auto;shape-rendering:auto;text-rendering:auto;enable-background:accumulate;stop-color:#000000;stop-opacity:1" d="m 284.1582,-84.859375 c -4.2888,0 -7.74218,3.479969 -7.74218,7.785156 V 109.83789 H 594.49609 V -77.074219 c 0,-4.30519 -3.45337,-7.785156 -7.74218,-7.785156 z" transform="translate(6.1359469,3.2094908)" />
    <g id="g17499" style="opacity:1;fill:#ffffff;fill-opacity:1" transform="matrix(1.8278741,0,0,1.8278741,41.541538,-159.13563)">
      <g style="fill:#ffffff" transform="translate(161.28,180.12001)" id="g17497">
        <path style="fill:#ffffff;stroke:none" d="m 17.125,-15.109375 h 8 v 2.9375 h -2.515625 c -0.230469,4.21875 -1.105469,7.570312 -2.625,10.046875 1.46875,1.542969 3.398438,2.773438 5.796875,3.703125 C 24.976563,2.429688 24.164063,3.445313 23.34375,4.625 21.207031,3.3125 19.460938,1.910156 18.109375,0.421875 c -1.304687,1.394531 -3,2.6875 -5.09375,3.875 C 12.523438,3.742188 11.851563,3.109375 11,2.390625 V 4.375 H 7.640625 v -7.5 c -2.105469,0.949219 -3.804687,1.789062 -5.09375,2.515625 L 1,-3.4375 C 1.414063,-3.769531 1.71875,-4.082031 1.90625,-4.375 2.101563,-4.675781 2.203125,-5.160156 2.203125,-5.828125 V -16.5 h 2.90625 c 0.4375,0 0.65625,0.105469 0.65625,0.3125 0,0.105469 -0.03125,0.234375 -0.09375,0.390625 -0.15625,0.386719 -0.234375,1.078125 -0.234375,2.078125 v 8.78125 c 0.957031,-0.5 1.691406,-0.910156 2.203125,-1.234375 V -19.78125 H 10.4375 c 0.332031,0 0.546875,0.02734 0.640625,0.07813 0.101563,0.05469 0.15625,0.136719 0.15625,0.25 0,0.117187 -0.04297,0.277344 -0.125,0.484375 C 11.035156,-18.757813 11,-17.921875 11,-16.453125 V -8.6875 c 1.5,-2.1875 2.84375,-6.015625 4.03125,-11.484375 1.820313,0.492187 2.925781,0.820312 3.3125,0.984375 0.394531,0.167969 0.59375,0.324219 0.59375,0.46875 0,0.136719 -0.121094,0.308594 -0.359375,0.515625 -0.230469,0.210937 -0.714844,1.242187 -1.453125,3.09375 z m 2.234375,2.9375 H 16.15625 c 0.226563,2.699219 0.804688,5.027344 1.734375,6.984375 0.925781,-2.050781 1.414063,-4.378906 1.46875,-6.984375 z M 13.9375,-7.84375 c -0.355469,0.625 -0.683594,1.132812 -0.984375,1.515625 C 12.304688,-6.847656 11.65625,-7.289063 11,-7.65625 v 9.25 C 13.019531,0.664063 14.710938,-0.613281 16.078125,-2.25 15.066406,-3.96875 14.351563,-5.832031 13.9375,-7.84375 Z m 0,0" id="path17495" />
      </g>
    </g>
    <g id="g17505" style="opacity:1;fill:#ffffff;fill-opacity:1" transform="matrix(1.8278741,0,0,1.8278741,61.541538,-159.13563)">
      <g style="fill:#ffffff" transform="translate(187.51259,180.12001)" id="g17503">
        <path style="fill:#ffffff;stroke:none" d="M 26.602977,-0.234375 V -4.28125 h -9.625 V 0.421875 H 13.587352 V -4.90625 l -1.828125,0.734375 C 11.216258,-5.117188 10.435008,-6.0625 9.4154774,-7 12.39204,-7.300781 14.477977,-7.984375 15.665477,-9.046875 h -3.9375 L 12.071727,-14.75 h 5.4375 v -1.015625 h -6.375 v -2.515625 h 6.375 v -1.859375 h 2.796875 c 0.507813,0 0.765625,0.132812 0.765625,0.390625 0,0.105469 -0.04687,0.257812 -0.140625,0.453125 -0.08594,0.199219 -0.152344,0.539062 -0.203125,1.015625 h 2 v -2 h 2.78125 c 0.4375,0 0.65625,0.140625 0.65625,0.421875 0,0.08594 -0.03906,0.257812 -0.109375,0.515625 -0.07422,0.25 -0.125,0.605469 -0.15625,1.0625 h 5.84375 l -0.234375,5.734375 h -5.609375 v 1.109375 h 7.296875 l -0.140625,3.5625 c -0.03125,0.84375 -0.3125,1.421875 -0.84375,1.734375 -0.523437,0.304687 -1.234375,0.511719 -2.140625,0.625 v 5.359375 h -3.25 c 1.832031,0.613281 3.765625,1.296875 5.796875,2.046875 l -2.046875,2.8125 C 27.790477,3.347656 24.868602,2.164063 21.806102,1.15625 l 1.515625,-2.4375 z m -0.703125,-15.53125 V -14.75 h 2.46875 l 0.09375,-1.015625 z M 22.727977,-14.75 v -1.015625 H 20.681102 L 20.649852,-14.75 Z m -5.59375,3.3125 c 0.101563,-0.351563 0.179688,-0.722656 0.234375,-1.109375 h -2.328125 l -0.07813,1.109375 z m 5.59375,0 v -1.109375 h -2.265625 c -0.0625,0.492187 -0.121094,0.859375 -0.171875,1.109375 z m -5.4375,4.59375 h 11.171875 c -0.105469,-0.539063 -0.3125,-1.078125 -0.625,-1.609375 C 28.731883,-8.148438 29.278758,-8 29.477977,-8 c 0.195313,0 0.304688,-0.125 0.328125,-0.375 l 0.03125,-0.671875 h -3.9375 v 1.96875 h -3.171875 v -1.96875 h -3.328125 c -0.5,0.824219 -1.203125,1.558594 -2.109375,2.203125 z m 2.703125,2.796875 c 0.945313,0.042969 1.769531,0.101562 2.46875,0.171875 0.695313,0.0625 1.109375,0.125 1.234375,0.1875 0.125,0.0625 0.1875,0.15625 0.1875,0.28125 0,0.117187 -0.07422,0.273437 -0.21875,0.46875 C 23.247508,-2.375 22.696727,-1.394531 22.009227,0 21.45454,1.113281 20.313915,2.066406 18.587352,2.859375 16.868602,3.660156 14.634227,4.238281 11.884227,4.59375 11.497508,3.625 10.790477,2.59375 9.7592274,1.5 13.290477,1.550781 15.821727,1.15625 17.352977,0.3125 c 1.53125,-0.832031 2.410156,-2.285156 2.640625,-4.359375 z m 0,0" id="path17501" />
      </g>
    </g>
    <g id="g17511" style="opacity:1;fill:#ffffff;fill-opacity:1" transform="matrix(1.8278741,0,0,1.8278741,97.084432,-159.13563)">
      <g style="fill:#ffffff" transform="translate(213.74519,180.12001)" id="g17509">
        <path style="fill:#ffffff;stroke:none" d="m 23.634227,2.25 v 2.078125 h -3.09375 v -13.03125 h 3.78125 V -19.96875 h 2.9375 c 0.414063,0 0.625,0.08594 0.625,0.25 0,0.167969 -0.04297,0.375 -0.125,0.625 -0.125,0.449219 -0.1875,1.648437 -0.1875,3.59375 h 6.171875 v 2.90625 h -6.171875 v 3.890625 h 4.828125 v 13.03125 h -3.28125 V 2.25 Z m 5.484375,-2.640625 V -5.84375 h -5.484375 v 5.453125 z M 14.321728,-15.21875 h 6.546874 V -12.375 H 9.6342276 v -2.84375 h 4.5625004 c -0.230469,-1.238281 -0.589844,-2.550781 -1.078125,-3.9375 l 3.390624,-0.78125 c 0.382813,1.085937 0.707031,2.398437 0.96875,3.9375 z M 17.915477,-2.5 c 0.988281,-0.238281 1.71875,-0.425781 2.1875,-0.5625 0.01953,0.835937 0.125,1.730469 0.3125,2.6875 -4.011719,0.925781 -7.386718,1.910156 -10.124999,2.953125 L 9.1342276,-0.8125 c 2.6445314,-0.457031 4.6757814,-0.828125 6.0937494,-1.109375 0.539063,-3.4375 0.863281,-6.738281 0.96875,-9.90625 2.144531,0.15625 3.300781,0.261719 3.46875,0.3125 0.164063,0.05469 0.25,0.140625 0.25,0.265625 0,0.117187 -0.109375,0.367187 -0.328125,0.75 -0.21875,0.375 -0.421875,1.105469 -0.609375,2.1875 z m -4.218749,-8.859375 c 0.332031,2.210937 0.628906,5.042969 0.890624,8.5 L 11.759228,-2.5 c -0.261719,-3.019531 -0.648437,-5.796875 -1.15625,-8.328125 z m 0,0" id="path17507" />
      </g>
    </g>
    <path id="path17543" style="opacity:1;fill:#000000;fill-opacity:1;stroke-width:0.129785" d="m 451.06816,-48.310539 v 8.312332 118.363372 h 8.31234 86.03383 V 70.052818 H 459.3805 V -39.998207 h 77.7215 v 22.70423 h 8.31233 v -22.70423 -8.312332 H 537.102 Z m 42.28592,31.654016 a 13.670521,13.670521 0 0 0 -13.66404,13.6705786 13.670521,13.670521 0 0 0 13.67058,13.6705824 13.670521,13.670521 0 0 0 13.67032,-13.6705824 13.670521,13.670521 0 0 0 -13.67032,-13.6705786 13.670521,13.670521 0 0 0 -0.007,0 z m -12.46596,31.38522 c -5.5109,-4e-5 -9.94741,4.436512 -9.94741,9.947412 v 40.075916 h 35.74266 V 40.469921 h 0.0312 V 39.91851 c 0,-1.566457 1.26111,-2.827334 2.82757,-2.827334 0.39925,0 0.85924,0.08274 1.32315,0.230746 l 2.74539,3.125702 v 0.0223 h 0.0196 l 6.59413,7.507403 h 11.16875 8.19551 c 3.03855,4.9e-5 5.48477,-2.446205 5.48477,-5.484762 0,-3.038521 -2.44622,-5.484843 -5.48477,-5.484767 h -13.76679 -1.96107 l -8.59545,-12.434216 -6.23782,-7.185279 c -1.76207,-1.971943 -3.88292,-2.6483 -6.8794,-2.659853 h -5.4123 -0.32817 z m 71.32975,13.793946 V 42.10864 h 23.41441 V 28.522643 Z" />
    <path transform="translate(222.2695,-97.247147)" d="m 183.50195,66.871094 -0.68945,1.673828 c 8.69296,0.20985 15.75867,6.586569 17.04297,14.957031 l 1.5918,-0.748047 c -1.57244,-8.702031 -8.91412,-15.36782 -17.94532,-15.882812 z m -3.35742,8.138672 -0.66211,1.605468 c 6.10391,0.611103 11.11283,4.738824 13.01953,10.341797 l 1.52539,-0.716797 c -2.114,-5.962167 -7.42053,-10.387835 -13.88281,-11.230468 z m -2.52344,6.117187 -0.64843,1.570313 c 3.91497,1.169028 7.17573,3.787497 9.19336,7.238281 l 1.52343,-0.716797 c -2.20015,-3.826126 -5.77404,-6.756862 -10.06836,-8.091797 z m -2.02539,4.910156 -0.64062,1.550782 c 2.30568,1.148555 4.28558,2.832129 5.78711,4.896484 l 1.54297,-0.726563 c -1.70447,-2.429728 -4.00393,-4.400581 -6.68946,-5.720703 z m -30.4082,1.169922 c -0.67672,-0.0044 -1.37604,-0.0019 -2.10156,0.0059 -9.82638,0.127466 -13.74277,-0.0028 -20.22852,1.953125 -6.6937,2.01859 -18.51172,9.861328 -18.51172,9.861328 l -10.791012,0.583984 c 0,0 -2.090276,3.759122 -2.109376,7.281252 -0.0087,1.43953 0.531253,2.83763 1.039063,3.85742 l -2.990234,2.10156 c 5e-5,0 -0.550141,6.58343 3.974609,7.45313 l 9.48633,1.23828 c 0,0 -0.37488,-10.96529 11.03906,-11.38086 5.19081,0.22479 6.92843,2.60367 8.93164,5.14844 1.46192,2.16356 1.72089,4.47146 1.74219,5.99609 h -0.0273 l 0.0117,1.10352 57.51954,-0.625 -0.0137,-1.10352 c 0,0 0.55069,-10.01571 11.07813,-10.45508 10.34014,0.47233 10.65429,10.34571 10.65429,10.34571 l 6.51368,-0.0703 2.97656,-1.58984 c 0,0 -0.0674,-1.93116 -0.16406,-3.875 l 1.16992,-0.41992 -0.041,-3.69727 -1.67773,-1.48242 c -0.005,-0.011 -0.009,-0.0431 -0.0137,-0.0527 0,0 -0.47331,-3.66261 -6.21875,-5.44141 -12.24168,-3.52471 -24.35938,-4.046876 -24.35938,-4.046876 L 160.02344,88.601562 c 0,0 -4.68538,-1.332005 -14.83594,-1.394531 z m 8.24609,2.980469 c 1.48434,-0.02547 4.34248,1.710716 6.37696,2.839844 4.94637,2.745211 14.0625,9.501956 14.0625,9.501956 l -28.42188,-0.8125 -1.71875,-11.363284 z m -12.92773,0.310547 1.11914,11.162113 -25.57031,-0.28711 c 0,0 2.07648,-4.258604 3.76367,-5.847659 1.70186,-1.602879 5.42543,-3.360499 6.11328,-3.435547 z m 52.36719,21.072263 c -5.22475,0.0568 -9.41718,4.30436 -9.35938,9.48633 0.0578,5.17784 4.3436,9.33025 9.56836,9.27344 h 0.002 c 5.22476,-0.0568 9.41718,-4.30263 9.35938,-9.48047 -0.0579,-5.18197 -4.34359,-9.33611 -9.56836,-9.2793 z m -79.14063,0.0176 c -0.48982,0.005 -0.97047,0.0468 -1.43945,0.12305 -0.62504,0.10171 -1.22959,0.26383 -1.80664,0.48047 -0.28838,0.1083 -0.56968,0.2306 -0.84375,0.36523 -0.82258,0.40417 -1.57702,0.92429 -2.24219,1.53711 -0.004,0.004 -0.008,0.006 -0.0117,0.01 -0.10686,0.0988 -0.2123,0.20115 -0.31445,0.30468 -0.10596,0.10741 -0.20985,0.21582 -0.31055,0.32813 -0.50288,0.56088 -0.93819,1.18293 -1.29492,1.85156 -0.14257,0.26725 -0.2722,0.54253 -0.38867,0.82422 -0.10215,0.24702 -0.19244,0.50083 -0.27344,0.75781 -0.0113,0.0361 -0.0242,0.0712 -0.0352,0.10742 -0.26649,0.88414 -0.40543,1.82357 -0.39453,2.79493 0.004,0.3236 0.0228,0.64219 0.0586,0.95703 0.0537,0.47223 0.14393,0.93471 0.26562,1.38281 0.0811,0.29848 0.17592,0.59112 0.28516,0.87695 0.10934,0.28606 0.2332,0.56607 0.36914,0.83789 0.068,0.13592 0.13859,0.26832 0.21289,0.40039 0.14865,0.26414 0.30959,0.52197 0.48242,0.76954 0.0864,0.12378 0.17548,0.24393 0.26758,0.36328 0.27649,0.35807 0.5797,0.69703 0.9043,1.01172 0.10819,0.10489 0.2189,0.20695 0.33203,0.30664 0.2263,0.19936 0.46215,0.38709 0.70703,0.56445 0.85703,0.62079 1.82283,1.10371 2.86328,1.41211 0.29727,0.0881 0.59957,0.16163 0.9082,0.2207 0.61727,0.11824 1.25707,0.17662 1.91016,0.16992 h 0.004 c 0.32627,-0.004 0.64937,-0.0231 0.96679,-0.0586 0.0189,-0.002 0.0377,-0.006 0.0566,-0.008 0.41851,-0.0493 0.82881,-0.12696 1.22852,-0.22852 0.0363,-0.009 0.0734,-0.0158 0.10937,-0.0254 0.45181,-0.12048 0.89031,-0.27465 1.3125,-0.45703 0.56297,-0.24328 1.09832,-0.5386 1.59766,-0.88086 v -0.002 c 0.12471,-0.0855 0.24693,-0.17444 0.36719,-0.26563 h 0.002 c 0.36128,-0.27397 0.70202,-0.57286 1.01953,-0.89453 0.21164,-0.21444 0.41132,-0.43821 0.60156,-0.67187 0.28537,-0.35048 0.54655,-0.7221 0.7793,-1.11133 0.15518,-0.25949 0.29791,-0.52605 0.42774,-0.80078 0.0649,-0.13738 0.12724,-0.2771 0.18554,-0.41797 0.29153,-0.70461 0.49842,-1.451 0.60938,-2.22852 0.0221,-0.15544 0.0403,-0.31294 0.0547,-0.4707 0.0292,-0.31553 0.0411,-0.63537 0.0371,-0.95899 -0.002,-0.1622 -0.008,-0.32233 -0.0176,-0.48242 -0.002,-0.0128 -0.003,-0.0262 -0.004,-0.0391 -0.019,-0.28668 -0.0514,-0.56869 -0.0957,-0.84766 -0.002,-0.019 -0.004,-0.0377 -0.008,-0.0566 v -0.002 c -0.005,-0.0294 -0.0116,-0.0585 -0.0176,-0.0879 -0.0681,-0.38792 -0.15896,-0.76691 -0.27344,-1.13672 -0.0136,-0.0439 -0.0268,-0.0872 -0.041,-0.13086 v -0.002 c -0.0477,-0.14639 -0.0976,-0.29048 -0.15234,-0.4336 -0.54662,-1.43101 -1.43712,-2.69419 -2.56836,-3.6914 -0.22627,-0.19945 -0.46218,-0.38702 -0.70703,-0.56446 -0.36728,-0.26614 -0.75363,-0.50847 -1.1582,-0.7207 -0.13466,-0.0706 -0.27179,-0.13684 -0.41016,-0.20117 -0.13861,-0.0644 -0.27975,-0.12578 -0.42188,-0.18359 -0.28407,-0.11552 -0.57603,-0.21855 -0.87304,-0.30664 -0.14862,-0.0441 -0.29764,-0.0841 -0.44922,-0.1211 -0.15132,-0.0369 -0.30493,-0.0701 -0.45899,-0.0996 -0.46293,-0.0887 -0.93787,-0.14503 -1.42187,-0.16406 -0.16134,-0.007 -0.32306,-0.007 -0.48633,-0.006 z m 79.18555,4.05078 h 0.002 c 2.9575,-0.0322 5.38908,2.3201 5.42188,5.25586 0.0328,2.93575 -2.34526,5.34092 -5.30274,5.37305 h -0.002 c -2.95747,0.0322 -5.38527,-2.3201 -5.41797,-5.25586 -0.0328,-2.93576 2.34135,-5.34092 5.29883,-5.37305 z m -79.14063,0.0156 h 0.004 c 1.47852,-0.0161 2.82602,0.56482 3.80664,1.51562 0.1226,0.11887 0.2389,0.24303 0.34961,0.37305 0.11069,0.13003 0.2146,0.26594 0.3125,0.40625 0.0979,0.14029 0.18924,0.2839 0.27344,0.43359 v 0.002 c 0.0841,0.14949 0.16292,0.30294 0.23242,0.46093 0.13933,0.31664 0.24686,0.64868 0.32226,0.99414 0.0753,0.34522 0.1171,0.70334 0.1211,1.07032 0.002,0.18348 -0.005,0.36408 -0.0215,0.54296 -0.0163,0.17916 -0.0424,0.35566 -0.0762,0.5293 -0.0587,0.30114 -0.1462,0.59221 -0.2539,0.87305 -0.0163,0.0424 -0.0296,0.085 -0.0469,0.12695 v 0.002 c -0.066,0.15946 -0.14,0.31354 -0.2207,0.46484 -0.48509,0.90928 -1.22702,1.66326 -2.13281,2.16406 -0.45284,0.25036 -0.94688,0.43697 -1.46875,0.54883 -0.3479,0.0746 -0.70845,0.11709 -1.07813,0.12109 h -0.006 c -1.47874,0.0161 -2.82403,-0.56457 -3.80469,-1.51562 -0.36771,-0.35661 -0.68294,-0.76577 -0.93554,-1.21485 h -0.002 c -0.084,-0.14939 -0.16107,-0.30306 -0.23046,-0.46093 v -0.002 c -0.19875,-0.45207 -0.33139,-0.93755 -0.39649,-1.44531 -0.003,-0.025 -0.01,-0.0491 -0.0137,-0.0742 -0.0202,-0.17848 -0.0312,-0.35948 -0.0332,-0.54297 -0.002,-0.1832 0.005,-0.36434 0.0215,-0.54296 v -0.002 c 0.0326,-0.35749 0.10053,-0.70532 0.20117,-1.03906 0.15104,-0.50098 0.37593,-0.9712 0.66016,-1.39844 0.66311,-0.99655 1.65643,-1.75773 2.82617,-2.13281 0.16717,-0.0536 0.33777,-0.10142 0.51172,-0.13867 0.3479,-0.0746 0.70844,-0.11514 1.07812,-0.11914 z" style="color:#000000;font-style:normal;font-variant:normal;font-weight:normal;font-stretch:normal;font-size:medium;line-height:normal;font-family:sans-serif;font-variant-ligatures:normal;font-variant-position:normal;font-variant-caps:normal;font-variant-numeric:normal;font-variant-alternates:normal;font-variant-east-asian:normal;font-feature-settings:normal;font-variation-settings:normal;text-indent:0;text-align:start;text-decoration:none;text-decoration-line:none;text-decoration-style:solid;text-decoration-color:#000000;letter-spacing:normal;word-spacing:normal;text-transform:none;writing-mode:lr-tb;direction:ltr;text-orientation:mixed;dominant-baseline:auto;baseline-shift:baseline;text-anchor:start;white-space:normal;shape-padding:0;shape-margin:0;inline-size:0;clip-rule:nonzero;display:inline;overflow:visible;visibility:visible;opacity:1;isolation:auto;mix-blend-mode:normal;color-interpolation:sRGB;color-interpolation-filters:linearRGB;solid-color:#000000;solid-opacity:1;vector-effect:none;fill:#000000;fill-opacity:1;fill-rule:evenodd;stroke:none;stroke-width:1.6868;stroke-linecap:butt;stroke-linejoin:miter;stroke-miterlimit:4;stroke-dasharray:none;stroke-dashoffset:0;stroke-opacity:1;color-rendering:auto;image-rendering:auto;shape-rendering:auto;text-rendering:auto;enable-background:accumulate;stop-color:#000000;stop-opacity:1" id="path883" />
    <g style="opacity:1" transform="matrix(1.2639918,0,0,1.2639918,223.57263,-58.239362)" id="surface529739">
      <g style="fill:#000000;fill-opacity:1" id="g1023">
        <g id="use1021" transform="translate(93.599998,99)">
          <path id="path1044" d="M 17.765625,0 H 2.84375 v -20.265625 h 14.625 v 4.046875 H 6.890625 v 3.421875 H 12.84375 V -8.75 H 6.890625 v 4.703125 h 10.875 z m 0,0" style="stroke:none" />
        </g>
      </g>
      <g style="fill:#000000;fill-opacity:1" id="g1027">
        <g id="use1025" transform="translate(112.85225,99)">
          <path id="path1048" d="M 15.8125,-16.34375 H 10.265625 V 0 H 6.3125 v -16.34375 h -5.5 v -3.921875 h 15 z m 0,0" style="stroke:none" />
        </g>
      </g>
      <g style="fill:#000000;fill-opacity:1" id="g1031">
        <g id="use1029" transform="translate(129.46999,99)">
          <path id="path1052" d="m 18.140625,-4.21875 c -1.761719,2.949219 -4.242187,4.421875 -7.4375,4.421875 -2.605469,0 -4.703125,-0.957031 -6.296875,-2.875 -1.585937,-1.914063 -2.375,-4.609375 -2.375,-8.078125 0,-2.582031 0.796875,-4.84375 2.390625,-6.78125 1.601563,-1.9375 3.664063,-2.90625 6.1875,-2.90625 1.59375,0 3.066406,0.382812 4.421875,1.140625 1.351563,0.75 2.390625,1.8125 3.109375,3.1875 l -3.484375,1.890625 c -0.449219,-0.789063 -1.03125,-1.363281 -1.75,-1.71875 -0.71875,-0.363281 -1.417969,-0.546875 -2.09375,-0.546875 -1.554687,0 -2.746094,0.601562 -3.578125,1.796875 -0.835937,1.1875 -1.25,2.726562 -1.25,4.609375 0,1.875 0.414063,3.390625 1.25,4.546875 0.832031,1.148437 1.804688,1.71875 2.921875,1.71875 1.113281,0 1.953125,-0.140625 2.515625,-0.421875 0.5625,-0.28125 1.222656,-0.90625 1.984375,-1.875 z m 0,0" style="stroke:none" />
        </g>
      </g>
      <g style="fill:#000000;fill-opacity:1" id="g1035">
        <g id="use1033" transform="translate(93.599998,131.52)">
          <path id="path1056" d="" style="stroke:none" />
        </g>
      </g>
    </g>
  </g>
</svg>
