<?xml version="1.0" encoding="UTF-8"?>
<svg xmlns="http://www.w3.org/2000/svg" xmlns:ns1="http://sodipodi.sourceforge.net/DTD/sodipodi-0.dtd" viewBox="0 0 155.52571 94.318359" height="94.318359" width="155.52571" id="svg2782" version="1.1">
  <defs id="defs2786" />
  <ns1:namedview showgrid="false" id="namedview2784" guidetolerance="10" gridtolerance="10" objecttolerance="10" borderopacity="1" bordercolor="#666666" pagecolor="#ffffff" />
  <g transform="translate(-2.7442305,-2.3691194)" id="g2790">
    <path style="color:#000000;font-style:normal;font-variant:normal;font-weight:normal;font-stretch:normal;font-size:medium;line-height:normal;font-family:sans-serif;font-variant-ligatures:normal;font-variant-position:normal;font-variant-caps:normal;font-variant-numeric:normal;font-variant-alternates:normal;font-variant-east-asian:normal;font-feature-settings:normal;font-variation-settings:normal;text-indent:0;text-align:start;text-decoration:none;text-decoration-line:none;text-decoration-style:solid;text-decoration-color:#000000;letter-spacing:normal;word-spacing:normal;text-transform:none;writing-mode:lr-tb;direction:ltr;text-orientation:mixed;dominant-baseline:auto;baseline-shift:baseline;text-anchor:start;white-space:normal;shape-padding:0;shape-margin:0;inline-size:0;clip-rule:nonzero;display:inline;overflow:visible;visibility:visible;opacity:1;isolation:auto;mix-blend-mode:normal;color-interpolation:sRGB;color-interpolation-filters:linearRGB;solid-color:#000000;solid-opacity:1;vector-effect:none;fill:#ffffff;fill-opacity:1;fill-rule:nonzero;stroke:none;stroke-width:2.31349;stroke-linecap:butt;stroke-linejoin:miter;stroke-miterlimit:4;stroke-dasharray:none;stroke-dashoffset:0;stroke-opacity:1;color-rendering:auto;image-rendering:auto;shape-rendering:auto;text-rendering:auto;enable-background:accumulate;stop-color:#000000;stop-opacity:1" d="m 11.939109,3.7163107 c -4.347029,0 -7.847687,3.5006565 -7.847687,7.8476863 v 75.928609 c 0,4.34703 3.500658,7.847684 7.847687,7.847684 H 149.07506 c 4.34703,0 7.84769,-3.500654 7.84769,-7.847684 V 11.563997 c 0,-4.3470298 -3.50066,-7.8476863 -7.84769,-7.8476863 z" id="path11391" />
    <path style="color:#000000;font-style:normal;font-variant:normal;font-weight:normal;font-stretch:normal;font-size:medium;line-height:normal;font-family:sans-serif;font-variant-ligatures:normal;font-variant-position:normal;font-variant-caps:normal;font-variant-numeric:normal;font-variant-alternates:normal;font-variant-east-asian:normal;font-feature-settings:normal;font-variation-settings:normal;text-indent:0;text-align:start;text-decoration:none;text-decoration-line:none;text-decoration-style:solid;text-decoration-color:#000000;letter-spacing:normal;word-spacing:normal;text-transform:none;writing-mode:lr-tb;direction:ltr;text-orientation:mixed;dominant-baseline:auto;baseline-shift:baseline;text-anchor:start;white-space:normal;shape-padding:0;shape-margin:0;inline-size:0;clip-rule:nonzero;display:inline;overflow:visible;visibility:visible;opacity:1;isolation:auto;mix-blend-mode:normal;color-interpolation:sRGB;color-interpolation-filters:linearRGB;solid-color:#000000;solid-opacity:1;vector-effect:none;fill:#244a38;fill-opacity:1;fill-rule:nonzero;stroke:none;stroke-width:0.381539;stroke-linecap:butt;stroke-linejoin:miter;stroke-miterlimit:4;stroke-dasharray:none;stroke-dashoffset:0;stroke-opacity:1;color-rendering:auto;image-rendering:auto;shape-rendering:auto;text-rendering:auto;enable-background:accumulate;stop-color:#000000;stop-opacity:1" d="M 11.939109,2.5598889 C 6.971066,2.5598889 2.935,6.5959532 2.935,11.563997 v 75.928609 c 0,4.968045 4.036066,9.004104 9.004109,9.004104 H 149.07506 c 4.96805,0 9.00411,-4.03606 9.00411,-9.004104 V 11.563997 c 0,-4.9680428 -4.03606,-9.0041081 -9.00411,-9.0041081 z m 0,2.3128433 H 149.07506 c 3.72603,0 6.69126,2.965249 6.69126,6.6912648 v 75.928609 c 0,3.726016 -2.96523,6.691265 -6.69126,6.691265 H 11.939109 c -3.726015,0 -6.691265,-2.965249 -6.691265,-6.691265 V 11.563997 c 0,-3.7260148 2.965251,-6.6912648 6.691265,-6.6912648 z" id="path11393" />
    <path id="path11374" style="color:#000000;font-style:normal;font-variant:normal;font-weight:normal;font-stretch:normal;font-size:medium;line-height:normal;font-family:sans-serif;font-variant-ligatures:normal;font-variant-position:normal;font-variant-caps:normal;font-variant-numeric:normal;font-variant-alternates:normal;font-variant-east-asian:normal;font-feature-settings:normal;font-variation-settings:normal;text-indent:0;text-align:start;text-decoration:none;text-decoration-line:none;text-decoration-style:solid;text-decoration-color:#000000;letter-spacing:normal;word-spacing:normal;text-transform:none;writing-mode:lr-tb;direction:ltr;text-orientation:mixed;dominant-baseline:auto;baseline-shift:baseline;text-anchor:start;white-space:normal;shape-padding:0;shape-margin:0;inline-size:0;clip-rule:nonzero;display:inline;overflow:visible;visibility:visible;opacity:1;isolation:auto;mix-blend-mode:normal;color-interpolation:sRGB;color-interpolation-filters:linearRGB;solid-color:#000000;solid-opacity:1;vector-effect:none;fill:#244a38;fill-opacity:1;fill-rule:nonzero;stroke:none;stroke-width:2.31349;stroke-linecap:butt;stroke-linejoin:miter;stroke-miterlimit:4;stroke-dasharray:none;stroke-dashoffset:0;stroke-opacity:1;color-rendering:auto;image-rendering:auto;shape-rendering:auto;text-rendering:auto;enable-background:accumulate;stop-color:#000000;stop-opacity:1" d="m 11.934586,7.2368392 c -2.3872448,0 -4.309067,1.936823 -4.309067,4.3331898 V 87.49713 c 0,2.389085 1.9199822,4.309066 4.309067,4.309066 H 149.0826 c 2.38909,0 4.30907,-1.91998 4.30907,-4.309066 V 11.570029 c 0,-2.3963678 -1.92182,-4.3331898 -4.30907,-4.3331898 z" />
    <path style="opacity:1;fill:#ffffff;fill-opacity:1;fill-rule:nonzero;stroke:none;stroke-width:2.84618" d="m 28.868931,56.629497 -0.978376,0.17788 V 78.909815 H 24.822009 V 57.252093 c -0.478072,0.0333 -0.822727,0.0666 -1.022849,0.0888 v 7.693614 c 0,6.759696 -0.833844,11.696038 -2.490413,14.809055 -0.922788,-0.800491 -1.867811,-1.467551 -2.846189,-2.001211 0.822725,-1.689924 1.400858,-3.524377 1.734396,-5.514488 0.32242,-2.01234 0.489189,-4.936371 0.489189,-8.760934 v -8.716451 c 4.235927,-0.20008 7.782543,-1.045062 10.628732,-2.534871 l 2.045697,2.712759 V 54.539192 H 45.14557 v 11.562636 h -8.760934 v 3.246419 c 0,0.65596 0.355774,0.978376 1.06732,0.978376 h 4.491653 c 0.26669,0 0.455819,-0.0444 0.578119,-0.133479 0.144579,-0.111279 0.244486,-0.366902 0.311316,-0.756032 0.0888,-0.378002 0.144579,-0.989477 0.177879,-1.823325 1.122907,0.600374 2.268043,1.000606 3.424305,1.200721 -0.21118,1.456452 -0.466944,2.512672 -0.756004,3.157504 -0.266687,0.655961 -0.667088,1.100677 -1.200748,1.334151 -0.511405,0.21118 -1.278564,0.311286 -2.312529,0.311286 H 36.74041 c -1.222963,0 -2.090161,-0.266687 -2.623821,-0.80049 -0.511424,-0.53366 -0.756017,-1.489779 -0.756017,-2.890645 V 55.962207 c -0.422482,-0.02278 -0.933906,0 -1.55651,0.0888 -0.03336,1.245208 -0.04449,2.979589 -0.04449,5.203173 0,2.201355 0.100072,4.180338 0.311303,5.959204 0.233472,1.756638 0.589249,3.201961 1.067321,4.358225 0.46695,1.134035 1.378621,2.001239 2.712771,2.623843 1.334142,0.622604 3.046323,1.045092 5.158705,1.289664 2.101283,0.233387 4.024709,0.355775 5.781318,0.355775 -0.867176,1.356406 -1.467551,2.679428 -1.823325,3.957993 C 42.210423,79.46534 39.920124,79.087338 38.119027,78.642619 36.306803,78.220131 34.872589,77.719829 33.805271,77.130583 32.73795,76.530209 31.93746,75.885377 31.4038,75.173828 30.892374,74.462282 30.425422,73.42832 29.980706,72.060811 29.53599,70.704433 29.224686,69.236853 29.0468,67.658102 c -0.155658,-1.567624 -0.222372,-3.402077 -0.222372,-5.51449 0,-2.101282 0.0111,-3.935735 0.04449,-5.514487 z m 8.805399,6.626296 v -5.825805 h -1.156264 v 5.825805 z m 4.224793,0 v -5.825805 h -1.245206 v 5.825805 z m 0,0" id="path91" />
    <path style="opacity:1;fill:#ffffff;fill-opacity:1;fill-rule:nonzero;stroke:none;stroke-width:2.84618" d="m 68.813715,56.362667 v -3.957965 h 3.068558 c 0.53366,0 0.80049,0.0888 0.80049,0.266689 0,0.17788 -0.0666,0.38913 -0.177879,0.622602 -0.17788,0.53366 -0.266687,1.556495 -0.266687,3.068533 h 6.893096 l -1.556495,6.492864 -3.379849,-0.444716 0.756005,-3.024075 h -2.712757 v 4.580597 h 5.069771 c -0.80049,4.269282 -2.079054,7.537959 -3.824565,9.783769 1.567623,1.278565 3.624421,2.223585 6.18155,2.846189 -0.978378,1.067321 -1.86781,2.223583 -2.668301,3.468791 -2.379242,-1.222978 -4.302639,-2.490414 -5.781319,-3.824565 -1.545395,1.334151 -3.579964,2.579357 -6.092606,3.735621 -0.51143,-0.92279 -1.234107,-1.812224 -2.179125,-2.668301 -0.478074,0.978377 -1.056192,1.923397 -1.734383,2.846187 -1.04509,-0.744904 -2.13464,-1.400864 -3.290902,-1.956752 1.712152,-1.600981 2.901772,-3.657807 3.557733,-6.181578 -3.680036,1.634336 -6.515122,3.024073 -8.494105,4.180337 l -1.734387,-3.691135 c 1.178493,-0.322416 2.512643,-0.756032 4.002451,-1.289692 v -7.871473 h -3.335391 v -3.246447 h 3.335391 v -6.893096 h 3.068531 c 0.444716,0 0.66709,0.122379 0.66709,0.355772 0,0.244489 -0.0666,0.567018 -0.177879,0.978379 -0.122379,0.422488 -0.17788,1.011734 -0.17788,1.778866 v 3.780079 h 2.979589 v 3.246447 h -2.979589 v 6.581808 c 1.245207,-0.555888 2.190227,-0.989506 2.846187,-1.289692 0.02278,0.92279 0.100179,1.71218 0.222289,2.357013 0.289058,-1.534267 0.444716,-3.346491 0.444716,-5.425546 v -9.205651 z m 0,7.604672 v -4.580597 h -3.37985 v 4.580597 z m 2.445956,7.337813 c 0.733774,-1.178493 1.334151,-2.646043 1.778867,-4.402682 h -3.513277 c 0.355774,1.723281 0.93392,3.190833 1.73441,4.402682 z M 65.433865,66.90247 c -0.122379,3.768979 -0.867204,7.059882 -2.223582,9.872713 2.401471,-0.622604 4.358223,-1.60098 5.870262,-2.935131 -1.334151,-1.86781 -2.256943,-4.180337 -2.757245,-6.937582 z m 0,0" id="path93" />
    <path style="opacity:1;fill:#ffffff;fill-opacity:1;fill-rule:nonzero;stroke:none;stroke-width:2.84618" d="M 90.536657,59.164398 H 84.08825 v -3.290905 h 8.004902 c 0.53366,-1.211848 1.022862,-2.501543 1.46758,-3.869049 1.122907,0.266687 2.134639,0.52256 3.024073,0.756032 0.911662,0.244487 1.423095,0.38913 1.512033,0.444716 0.11128,0.0666 0.17788,0.17788 0.17788,0.355774 0,0.15568 -0.17788,0.378002 -0.533657,0.667061 -0.333546,0.266689 -0.733776,0.822748 -1.20075,1.645466 h 11.829479 v 3.290905 H 94.716986 c -0.978376,1.72328 -2.134641,3.457663 -3.468791,5.203172 h 4.447167 v -4.002452 h 3.379846 c 0.71155,0 1.067332,0.16678 1.067332,0.489205 0,0.155679 -0.0777,0.378002 -0.222292,0.66706 -0.15568,0.300188 -0.22229,1.245206 -0.22229,2.846187 h 7.293372 v 3.290905 h -7.293372 v 3.201961 h 10.006112 v 3.157502 H 99.697958 v 5.959206 H 95.695505 V 74.017938 H 83.065558 v -3.157502 h 12.629956 v -3.201961 c -4.158109,0 -7.248898,0.177879 -9.294595,0.53366 -0.300188,-1.245207 -0.53366,-2.468157 -0.711546,-3.691135 1.000634,-0.322417 1.84558,-0.867205 2.534899,-1.645467 0.711548,-0.767132 1.47868,-2.00121 2.312528,-3.691135 z m 0,0" id="path95" />
    <path style="opacity:1;fill:#ffffff;fill-opacity:1;fill-rule:nonzero;stroke:none;stroke-width:2.84618" d="m 133.62812,56.362667 c 0.44471,-0.889432 0.95611,-2.279168 1.5565,-4.180337 2.15686,0.65596 3.34647,1.045092 3.55772,1.156264 0.20001,0.0888 0.31131,0.222287 0.31131,0.400258 0,0.15568 -0.12231,0.311289 -0.35576,0.489175 -0.38914,0.244489 -0.9228,0.956148 -1.60098,2.13464 h 5.3366 v 2.890675 h -7.8715 c -0.0666,0.51143 -0.15562,0.967248 -0.26668,1.378607 h 5.87026 v 14.675654 h -3.55774 v -1.378609 h -7.15993 v 1.156265 h -3.46879 v -14.45331 h 4.6695 c 0.0888,-0.444717 0.15562,-0.900533 0.2223,-1.378607 h -6.71523 v -2.890675 h 4.75847 c -0.62261,-0.822718 -1.26746,-1.61208 -1.91229,-2.356985 l 3.24644,-1.689922 c 0.80049,1.011734 1.5565,2.090155 2.26804,3.246417 l -2.00121,0.80049 z m -4.18035,8.004903 h 7.15993 v -1.156263 h -7.15993 z m 0,3.379849 h 7.15993 v -1.156265 h -7.15993 z m 7.15993,2.357012 h -7.15993 v 1.378609 h 7.15993 z m -12.62995,-10.940033 -3.73562,1.289664 c -0.44473,-1.712152 -1.28966,-3.702263 -2.53488,-5.959205 l 3.6022,-1.556495 c 1.00059,1.867811 1.89003,3.946865 2.6683,6.226036 z m 20.01226,16.143205 c -0.53366,1.122906 -0.93391,2.368113 -1.20074,3.735621 -2.4904,0.02278 -4.69177,0.0444 -6.5818,0.0444 -5.3366,0 -8.83875,-0.17788 -10.49532,-0.533661 -1.66769,-0.355774 -2.80172,-0.844976 -3.42433,-1.46758 -0.30019,-0.333516 -0.52254,-0.489174 -0.66705,-0.489174 -0.15562,0 -0.31132,0.0555 -0.48922,0.177879 -0.15561,0.111279 -0.52252,0.489175 -1.11176,1.111777 -0.60039,0.644862 -1.05622,1.20075 -1.37864,1.645466 -1.15627,-1.156262 -2.15688,-2.25694 -2.97959,-3.290903 1.89003,-1.33415 3.02408,-2.090184 3.37984,-2.26807 0.35578,-0.20008 0.53366,-0.767133 0.53366,-1.689923 v -7.560178 h -3.42433 v -3.379846 h 7.07102 v 10.139543 c 0,1.156263 0.27806,2.045697 0.84493,2.668299 0.55591,0.600376 1.51205,0.989506 2.8462,1.20075 1.35638,0.233387 3.86904,0.355775 7.51573,0.355775 3.66889,0 6.85973,-0.133479 9.5614,-0.40026 z m 0,0" id="path97" />
    <g id="g1648" style="opacity:1;fill:#ffffff;fill-opacity:1" transform="matrix(1.7578835,0,0,1.7578835,-146.75236,-408.50597)">
      <g transform="translate(93.599998,251.16)" id="use1646" style="fill:#ffffff">
        <path style="fill:#ffffff;stroke:none" d="m 5.90625,-5.296875 h 3.671875 v 1.21875 h -3.5 c 0.332031,1.105469 0.796875,1.980469 1.390625,2.625 0.601563,0.648437 1.492188,1.230469 2.671875,1.75 -0.398437,0.34375 -0.792969,0.800781 -1.1875,1.375 C 7.234375,0.734375 6.023438,-0.5625 5.328125,-2.21875 4.753906,-0.695313 3.4375,0.617188 1.375,1.734375 1.144531,1.359375 0.769531,0.945313 0.25,0.5 1.59375,-0.0703125 2.546875,-0.695313 3.109375,-1.375 3.671875,-2.0625 4.039063,-2.960938 4.21875,-4.078125 H 0.734375 v -1.21875 H 4.34375 c 0.039063,-0.476563 0.0625,-0.941406 0.0625,-1.390625 0,-0.445313 -0.011719,-0.859375 -0.03125,-1.234375 0.289063,-0.019531 0.609375,-0.03125 0.953125,-0.03125 0.351563,0 0.570313,0.015625 0.65625,0.046875 0.082031,0.03125 0.125,0.078125 0.125,0.140625 0,0.0625 -0.011719,0.132812 -0.03125,0.203125 -0.105469,0.21875 -0.15625,0.625 -0.15625,1.21875 0,0.261719 -0.00781,0.609375 -0.015625,1.046875 z m 0,0" id="path2097" />
      </g>
    </g>
    <g id="g1652" style="opacity:1;fill:#ffffff;fill-opacity:1" transform="matrix(1.7578835,0,0,1.7578835,-146.75236,-408.50597)">
      <g transform="translate(103.95795,251.16)" id="use1650" style="fill:#ffffff">
        <path style="fill:#ffffff;stroke:none" d="m 9.2627322,-7.734375 h 1.2656248 c 0.144531,0 0.21875,0.042969 0.21875,0.125 0,0.042969 -0.01563,0.101562 -0.04687,0.171875 -0.05469,0.148437 -0.07813,0.367187 -0.07813,0.65625 v 3.875 c 0,0.449219 -0.171875,0.757812 -0.515625,0.921875 -0.3359368,0.167969 -0.7890618,0.265625 -1.3593752,0.296875 -0.03125,-0.4375 -0.15625,-0.851563 -0.375,-1.25 0.289063,0.054687 0.488281,0.078125 0.5937504,0.078125 0.101563,0 0.175781,-0.00781 0.21875,-0.03125 C 9.2353882,-2.921875 9.2627322,-3 9.2627322,-3.125 Z M 3.0908568,-6.375 h -1.0625 v -1.0625 h 5.09375 v 1.0625 h -0.75 v 1.203125 h 0.90625 V -4.125 h -0.90625 v 1.890625 h 0.59375 c 0.1875,0 0.28125,0.046875 0.28125,0.140625 0,0.042969 -0.027344,0.109375 -0.078125,0.203125 -0.054687,0.085937 -0.078125,0.230469 -0.078125,0.4375 h 2.9843752 v 1 H 7.0752318 v 0.78125 H 11.075232 V 1.4375 H 1.6846068 V 0.328125 h 4.078125 v -0.78125 h -3.015625 v -1 h 3.015625 v -0.5 h -0.65625 V -4.125 h -0.84375 c -0.074219,0.542969 -0.234375,1.007812 -0.484375,1.390625 -0.25,0.375 -0.621094,0.734375 -1.109375,1.078125 -0.375,-0.289063 -0.730469,-0.53125 -1.0625,-0.71875 0.445313,-0.25 0.78125,-0.507813 1,-0.78125 0.21875,-0.269531 0.359375,-0.59375 0.421875,-0.96875 h -1.296875 v -1.046875 h 1.359375 z m 2.015625,0 h -0.796875 v 1.203125 h 0.796875 z m 2.34375,-0.5625 h 1.140625 c 0.15625,0 0.234375,0.039062 0.234375,0.109375 0,0.074219 -0.027344,0.164062 -0.078125,0.265625 -0.042969,0.09375 -0.0625,0.296875 -0.0625,0.609375 V -3.25 h -1.234375 z m 0,0" id="path2101" />
      </g>
    </g>
    <g id="g1656" style="opacity:1;fill:#ffffff;fill-opacity:1" transform="matrix(1.7578835,0,0,1.7578835,-142.75236,-408.50597)">
      <g transform="translate(114.21233,251.16)" id="use1654" style="fill:#ffffff">
        <path style="fill:#ffffff;stroke:none" d="m 4.2627318,-5.578125 h -2.265625 v -1.15625 h 2.8125 c 0.1875,-0.425781 0.359375,-0.878906 0.515625,-1.359375 0.394531,0.09375 0.75,0.183594 1.0625,0.265625 0.320313,0.085937 0.5,0.136719 0.53125,0.15625 0.039063,0.023437 0.0625,0.0625 0.0625,0.125 0,0.054687 -0.0625,0.132812 -0.1875,0.234375 -0.117187,0.09375 -0.257812,0.289062 -0.421875,0.578125 h 4.1562502 v 1.15625 H 5.7314818 c -0.34375,0.605469 -0.75,1.214844 -1.21875,1.828125 h 1.5625 v -1.40625 h 1.1875 c 0.25,0 0.375,0.058594 0.375,0.171875 0,0.054687 -0.027344,0.132812 -0.078125,0.234375 -0.054687,0.105469 -0.078125,0.4375 -0.078125,1 h 2.5625002 v 1.15625 H 7.4814818 v 1.125 h 3.5156252 v 1.109375 H 7.4814818 v 2.09375 h -1.40625 v -2.09375 h -4.4375 V -1.46875 h 4.4375 v -1.125 c -1.460937,0 -2.546875,0.0625 -3.265625,0.1875 -0.105469,-0.4375 -0.1875,-0.867188 -0.25,-1.296875 0.351563,-0.113281 0.648438,-0.304688 0.890625,-0.578125 0.25,-0.269531 0.519531,-0.703125 0.8125,-1.296875 z m 0,0" id="path2105" />
      </g>
    </g>
    <g id="g1660" style="opacity:1;fill:#ffffff;fill-opacity:1" transform="matrix(1.7578835,0,0,1.7578835,-140.75236,-408.50597)">
      <g transform="translate(124.67385,251.16)" id="use1658" style="fill:#ffffff">
        <path style="fill:#ffffff;stroke:none" d="M 6.7471068,-6.296875 H 5.1377318 V -5.5 h -1.5625 c -0.042969,0.136719 -0.109375,0.328125 -0.203125,0.578125 h 0.921875 c 0.09375,0 0.160156,0.011719 0.203125,0.03125 0.039063,0.023437 0.0625,0.058594 0.0625,0.109375 0,0.042969 -0.011719,0.09375 -0.03125,0.15625 -0.054687,0.148437 -0.078125,0.464844 -0.078125,0.953125 h 0.703125 v 1.03125 h -0.703125 v 0.71875 c 0.175781,-0.0625 0.390625,-0.125 0.640625,-0.1875 -0.023437,0.355469 0,0.703125 0.0625,1.046875 -0.273437,0.0625 -0.507812,0.132812 -0.703125,0.203125 v 2.53125 H 3.3408568 V -0.5 c -0.46875,0.179687 -0.976562,0.382812 -1.515625,0.609375 l -0.453125,-1.3125 c 0.71875,-0.132813 1.375,-0.28125 1.96875,-0.4375 v -1 c -0.574219,0.011719 -1.109375,0.042969 -1.609375,0.09375 -0.117187,-0.445313 -0.203125,-0.804688 -0.265625,-1.078125 0.320313,-0.125 0.640625,-0.75 0.953125,-1.875 h -0.921875 v -1.0625 h 1.203125 c 0.113281,-0.507813 0.203125,-1.007813 0.265625,-1.5 0.769531,0.136719 1.195313,0.226562 1.28125,0.265625 0.09375,0.03125 0.140625,0.085937 0.140625,0.15625 0,0.0625 -0.03125,0.132812 -0.09375,0.203125 -0.167969,0.21875 -0.304687,0.511719 -0.40625,0.875 h 1.171875 V -7.375 h 6.0000002 v 1.078125 H 9.2939822 v 1.125 h 1.5624998 v 5.34375 c 0,0.320313 -0.04297,0.5625 -0.125,0.71875 -0.07422,0.164063 -0.242187,0.296875 -0.5,0.390625 -0.2499998,0.101563 -0.6562498,0.179688 -1.2187498,0.234375 -0.01172,-0.46875 -0.121094,-0.898437 -0.3281254,-1.28125 0.3828134,0.082031 0.6328134,0.125 0.7500004,0.125 0.113281,0 0.1875,-0.027344 0.21875,-0.078125 0.03125,-0.042969 0.04687,-0.121094 0.04687,-0.234375 v -1.15625 l -0.46875,0.328125 C 9.1689822,-1 9.0908572,-1.210938 8.9971072,-1.421875 c -0.125,0.53125 -0.3398444,1.148437 -0.6406254,1.84375 -0.3125,-0.1875 -0.65625,-0.34375 -1.03125,-0.46875 0.269531,-0.46875 0.476563,-0.9375 0.625,-1.40625 -0.1875,-0.21875 -0.3125,-0.351563 -0.375,-0.40625 -0.105469,0.5625 -0.34375,1.230469 -0.71875,2 -0.125,-0.0859375 -0.296875,-0.171875 -0.515625,-0.265625 v 1.671875 h -1.0625 v -6.71875 h 1.484375 z m 1.515625,0 h -0.5 c 0.00781,0.25 0.015625,0.625 0.015625,1.125 h 0.484375 z m -4.921875,1.453125 c -0.1875,0.511719 -0.34375,0.902344 -0.46875,1.171875 h 0.46875 z m 5.9218754,0.703125 c 0,0.375 -0.02344,0.820312 -0.0625,1.328125 0.113281,0.148437 0.28125,0.402344 0.5,0.765625 v -2.09375 z m -1.5000004,0 c 0,0.375 -0.011719,0.714844 -0.03125,1.015625 0.101563,0.105469 0.25,0.25 0.4375,0.4375 0.050781,-0.445313 0.078125,-0.929688 0.078125,-1.453125 z M 6.3408568,-1.1875 c 0.257813,-0.613281 0.394531,-1.597656 0.40625,-2.953125 h -0.40625 z m 0,0" id="path2109" />
      </g>
    </g>
  </g>
</svg>
