<?xml version="1.0" encoding="UTF-8"?>
<svg xmlns="http://www.w3.org/2000/svg" xmlns:ns1="http://sodipodi.sourceforge.net/DTD/sodipodi-0.dtd" version="1.1" id="svg7027" width="105.75815" height="133.98267" viewBox="0 0 105.75815 133.98267">
  <defs id="defs7031" />
  <ns1:namedview pagecolor="#ffffff" bordercolor="#666666" borderopacity="1" objecttolerance="10" gridtolerance="10" guidetolerance="10" id="namedview7029" showgrid="false" />
  <g id="g7035" transform="translate(-153.24071,-35.970861)">
    <path style="color:#000000;font-style:normal;font-variant:normal;font-weight:normal;font-stretch:normal;font-size:medium;line-height:normal;font-family:sans-serif;font-variant-ligatures:normal;font-variant-position:normal;font-variant-caps:normal;font-variant-numeric:normal;font-variant-alternates:normal;font-variant-east-asian:normal;font-feature-settings:normal;font-variation-settings:normal;text-indent:0;text-align:start;text-decoration:none;text-decoration-line:none;text-decoration-style:solid;text-decoration-color:#000000;letter-spacing:normal;word-spacing:normal;text-transform:none;writing-mode:lr-tb;direction:ltr;text-orientation:mixed;dominant-baseline:auto;baseline-shift:baseline;text-anchor:start;white-space:normal;shape-padding:0;shape-margin:0;inline-size:0;clip-rule:nonzero;display:inline;overflow:visible;visibility:visible;opacity:1;isolation:auto;mix-blend-mode:normal;color-interpolation:sRGB;color-interpolation-filters:linearRGB;solid-color:#000000;solid-opacity:1;vector-effect:none;fill:#ffffff;fill-opacity:1;fill-rule:nonzero;stroke:none;stroke-width:3.17328;stroke-linecap:butt;stroke-linejoin:miter;stroke-miterlimit:4;stroke-dasharray:none;stroke-dashoffset:0;stroke-opacity:1;color-rendering:auto;image-rendering:auto;shape-rendering:auto;text-rendering:auto;enable-background:accumulate;stop-color:#000000;stop-opacity:1" d="m 165.83162,37.799053 h 80.57545 c 5.96259,0 10.76278,4.800196 10.76278,10.762781 V 157.36386 c 0,5.96258 -4.80019,10.76277 -10.76278,10.76277 h -80.57545 c -5.96258,0 -10.76277,-4.80019 -10.76277,-10.76277 V 48.561834 c 0,-5.962585 4.80019,-10.762781 10.76277,-10.762781 z" id="path81-3" />
    <path style="color:#000000;font-style:normal;font-variant:normal;font-weight:normal;font-stretch:normal;font-size:medium;line-height:normal;font-family:sans-serif;font-variant-ligatures:normal;font-variant-position:normal;font-variant-caps:normal;font-variant-numeric:normal;font-variant-alternates:normal;font-variant-east-asian:normal;font-feature-settings:normal;font-variation-settings:normal;text-indent:0;text-align:start;text-decoration:none;text-decoration-line:none;text-decoration-style:solid;text-decoration-color:#000000;letter-spacing:normal;word-spacing:normal;text-transform:none;writing-mode:lr-tb;direction:ltr;text-orientation:mixed;dominant-baseline:auto;baseline-shift:baseline;text-anchor:start;white-space:normal;shape-padding:0;shape-margin:0;inline-size:0;clip-rule:nonzero;display:inline;overflow:visible;visibility:visible;opacity:1;isolation:auto;mix-blend-mode:normal;color-interpolation:sRGB;color-interpolation-filters:linearRGB;solid-color:#000000;solid-opacity:1;vector-effect:none;fill:#253898;fill-opacity:1;fill-rule:nonzero;stroke:none;stroke-width:0.483;stroke-linecap:butt;stroke-linejoin:miter;stroke-miterlimit:4;stroke-dasharray:none;stroke-dashoffset:0;stroke-opacity:1;color-rendering:auto;image-rendering:auto;shape-rendering:auto;text-rendering:auto;enable-background:accumulate;stop-color:#000000;stop-opacity:1" d="m 165.83066,36.212361 c -6.81414,0 -12.34845,5.534302 -12.34845,12.348447 V 157.36359 c 0,6.81412 5.53431,12.34844 12.34845,12.34844 h 80.57561 c 6.81413,0 12.35109,-5.53432 12.35109,-12.34844 V 48.560808 c 0,-6.814145 -5.53696,-12.348447 -12.35109,-12.348447 z m 0,3.173505 h 80.57561 c 5.11102,0 9.17757,4.063905 9.1776,9.174942 V 157.36359 c 0,5.11102 -4.06658,9.17757 -9.1776,9.17759 h -80.57561 c -5.11103,0 -9.17495,-4.06657 -9.17495,-9.17759 V 48.560808 c 0,-5.111037 4.06392,-9.174942 9.17495,-9.174942 z" id="path83-4" />
    <path id="path75-7" style="color:#000000;font-style:normal;font-variant:normal;font-weight:normal;font-stretch:normal;font-size:medium;line-height:normal;font-family:sans-serif;font-variant-ligatures:normal;font-variant-position:normal;font-variant-caps:normal;font-variant-numeric:normal;font-variant-alternates:normal;font-variant-east-asian:normal;font-feature-settings:normal;font-variation-settings:normal;text-indent:0;text-align:start;text-decoration:none;text-decoration-line:none;text-decoration-style:solid;text-decoration-color:#000000;letter-spacing:normal;word-spacing:normal;text-transform:none;writing-mode:lr-tb;direction:ltr;text-orientation:mixed;dominant-baseline:auto;baseline-shift:baseline;text-anchor:start;white-space:normal;shape-padding:0;shape-margin:0;inline-size:0;clip-rule:nonzero;display:inline;overflow:visible;visibility:visible;opacity:1;isolation:auto;mix-blend-mode:normal;color-interpolation:sRGB;color-interpolation-filters:linearRGB;solid-color:#000000;solid-opacity:1;vector-effect:none;fill:#253898;fill-opacity:1;fill-rule:nonzero;stroke:none;stroke-width:3.17328;stroke-linecap:butt;stroke-linejoin:miter;stroke-miterlimit:4;stroke-dasharray:none;stroke-dashoffset:0;stroke-opacity:1;color-rendering:auto;image-rendering:auto;shape-rendering:auto;text-rendering:auto;enable-background:accumulate;stop-color:#000000;stop-opacity:1" d="m 165.8251,42.62809 c -3.27451,0 -5.91181,2.656071 -5.91181,5.943215 V 157.36881 c 0,3.27715 2.63466,5.9118 5.91181,5.9118 h 80.59198 c 3.27714,0 5.9118,-2.63465 5.9118,-5.9118 V 48.571305 c 0,-3.287144 -2.63731,-5.943215 -5.9118,-5.943215 z" />
    <path d="m 188.10906,95.097021 v 6.383479 h 4.82274 c 1.11425,0 2.01118,0.89715 2.01118,2.0114 v 36.32823 c 0,1.11426 -0.89693,2.01138 -2.01118,2.01138 h -4.82274 v 6.70426 h 24.77968 v -6.70426 h -5.73168 c -1.11425,0 -2.01142,-0.89712 -2.01142,-2.01138 v -18.38176 h 15.94232 c 6.05186,-1.25582 10.57291,-6.59547 10.57291,-13.03061 0,-7.37415 -5.93661,-13.310738 -13.31079,-13.310738 h -5.46134 -11.74763 z m 17.30981,6.273789 h 7.15846 c 3.83445,0 6.92131,3.08707 6.92131,6.92151 0,3.8344 -3.08686,6.92128 -6.92131,6.92128 h -7.15846 z" style="opacity:1;fill:#ffffff;fill-opacity:1;stroke:none;stroke-width:1.01432;stroke-miterlimit:4;stroke-dasharray:none;stroke-opacity:1;paint-order:stroke fill markers" id="path955-4" />
    <path id="rect7739" style="opacity:1;fill:#ffffff;stroke-width:0.709802" d="m 171.01966,91.944846 h 11.79832 l 23.99668,-20.90625 23.89653,20.90625 H 242.6095 L 206.81466,61.280784 Z" />
  </g>
</svg>
