<?xml version="1.0" encoding="UTF-8"?>
<svg xmlns="http://www.w3.org/2000/svg" xmlns:ns1="http://sodipodi.sourceforge.net/DTD/sodipodi-0.dtd" id="svg37726" version="1.1" viewBox="0 0 359.29172 138.116" height="522.01324" width="1357.953">
  <defs id="defs37720" />
  <ns1:namedview showgrid="false" borderopacity="1.0" bordercolor="#666666" pagecolor="#ffffff" id="base" showguides="true" units="px" width="700.893px" />
  <g transform="translate(0.86934689,24.855485)" id="layer1">
    <path style="color:#000000;font-style:normal;font-variant:normal;font-weight:normal;font-stretch:normal;font-size:medium;line-height:normal;font-family:sans-serif;font-variant-ligatures:normal;font-variant-position:normal;font-variant-caps:normal;font-variant-numeric:normal;font-variant-alternates:normal;font-variant-east-asian:normal;font-feature-settings:normal;font-variation-settings:normal;text-indent:0;text-align:start;text-decoration:none;text-decoration-line:none;text-decoration-style:solid;text-decoration-color:#000000;letter-spacing:normal;word-spacing:normal;text-transform:none;writing-mode:lr-tb;direction:ltr;text-orientation:mixed;dominant-baseline:auto;baseline-shift:baseline;text-anchor:start;white-space:normal;shape-padding:0;shape-margin:0;inline-size:0;clip-rule:nonzero;display:inline;overflow:visible;visibility:visible;opacity:1;isolation:auto;mix-blend-mode:normal;color-interpolation:sRGB;color-interpolation-filters:linearRGB;solid-color:#000000;solid-opacity:1;vector-effect:none;fill:#253898;fill-opacity:1;fill-rule:nonzero;stroke:none;stroke-width:0.264583;stroke-linecap:butt;stroke-linejoin:miter;stroke-miterlimit:4;stroke-dasharray:none;stroke-dashoffset:0;stroke-opacity:1;color-rendering:auto;image-rendering:auto;shape-rendering:auto;text-rendering:auto;enable-background:accumulate;stop-color:#000000;stop-opacity:1" d="m 7.755774,-24.855485 c -4.7587887,0 -8.62512089,3.864932 -8.62512089,8.62372 V 104.63562 c 0,4.75879 3.86633219,8.62512 8.62512089,8.62512 H 349.79863 c 4.75872,0 8.62366,-3.86633 8.62366,-8.62512 V -16.231765 c 0,-4.758788 -3.86494,-8.62372 -8.62366,-8.62372 z" id="path37716" />
    <g id="g13501" transform="matrix(0.17610747,0,0,0.17610747,33.318283,-8.9570941)" style="stroke-width:1.5024" />
    <path id="path27811" style="color:#000000;font-style:normal;font-variant:normal;font-weight:normal;font-stretch:normal;font-size:medium;line-height:normal;font-family:sans-serif;font-variant-ligatures:normal;font-variant-position:normal;font-variant-caps:normal;font-variant-numeric:normal;font-variant-alternates:normal;font-variant-east-asian:normal;font-feature-settings:normal;font-variation-settings:normal;text-indent:0;text-align:start;text-decoration:none;text-decoration-line:none;text-decoration-style:solid;text-decoration-color:#000000;letter-spacing:normal;word-spacing:normal;text-transform:none;writing-mode:lr-tb;direction:ltr;text-orientation:mixed;dominant-baseline:auto;baseline-shift:baseline;text-anchor:start;white-space:normal;shape-padding:0;shape-margin:0;inline-size:0;clip-rule:nonzero;display:inline;overflow:visible;visibility:visible;opacity:1;isolation:auto;mix-blend-mode:normal;color-interpolation:sRGB;color-interpolation-filters:linearRGB;solid-color:#000000;solid-opacity:1;vector-effect:none;fill:#ffffff;fill-opacity:1;fill-rule:nonzero;stroke:none;stroke-width:0.792936;stroke-linecap:butt;stroke-linejoin:miter;stroke-miterlimit:4;stroke-dasharray:none;stroke-dashoffset:0;stroke-opacity:1;color-rendering:auto;image-rendering:auto;shape-rendering:auto;text-rendering:auto;enable-background:accumulate;stop-color:#000000;stop-opacity:1" d="m 7.7558433,-22.639983 c -3.5693598,-4.6e-5 -6.4081487,2.838858 -6.4081487,6.408218 V 104.63562 c 0,3.56936 2.8387889,6.4081 6.4081487,6.40815 l 342.0412667,0.004 c 3.56937,4e-5 6.40814,-2.83879 6.40814,-6.40815 V -16.227383 c 0,-3.56936 -2.83877,-6.408172 -6.40814,-6.408218 z m -0.00744,2.264585 342.0513867,0.0044 c 2.28677,2.9e-5 4.12766,1.855311 4.12766,4.150813 V 104.64437 c 0,2.28848 -1.8391,4.12769 -4.12766,4.12766 l -342.0513861,-0.004 c -2.288564,-3e-5 -4.1276643,-1.83918 -4.1276643,-4.12766 V -16.224585 c 0,-2.295502 1.8408823,-4.150842 4.1276637,-4.150813 z" />
    <path style="fill:#ffffff;fill-opacity:1;fill-rule:nonzero;stroke:none;stroke-width:0.699037" d="M 49.044658,-18.496494 H 91.853293 L 49.044658,44.203007 91.853293,106.90303 H 49.044658 L 6.2356748,44.203007 Z" id="path17" />
    <path style="fill:#ffffff;fill-opacity:1;fill-rule:nonzero;stroke:none;stroke-width:0.699037" d="m 134.66228,-18.496494 h 42.80863 l -42.80863,62.699501 42.80863,62.700023 H 134.66228 L 91.853293,44.203007 Z" id="path847" />
    <path style="fill:#ffffff;fill-opacity:1;fill-rule:nonzero;stroke:none;stroke-width:0.699037" d="m 308.50829,-18.496492 h -42.80864 l 42.80864,62.6995 -42.80864,62.700022 h 42.80864 l 42.80898,-62.700022 z" id="path17-0" />
    <path style="fill:#ffffff;fill-opacity:1;fill-rule:nonzero;stroke:none;stroke-width:0.699037" d="m 222.89066,-18.496492 h -42.80863 l 42.80863,62.6995 -42.80863,62.700022 h 42.80863 l 42.80899,-62.700022 z" id="path847-3" />
  </g>
</svg>
