<?xml version="1.0" encoding="UTF-8"?>
<svg xmlns="http://www.w3.org/2000/svg" xmlns:ns1="http://sodipodi.sourceforge.net/DTD/sodipodi-0.dtd" viewBox="0 0 160.34117 106.49213" height="106.49213" width="160.34117" id="svg4929" version="1.1">
  <defs id="defs4933" />
  <ns1:namedview showgrid="false" id="namedview4931" guidetolerance="10" gridtolerance="10" objecttolerance="10" borderopacity="1" bordercolor="#666666" pagecolor="#ffffff" />
  <g transform="translate(249.17699,0.15747641)" id="g4937">
    <path style="color:#000000;font-style:normal;font-variant:normal;font-weight:normal;font-stretch:normal;font-size:medium;line-height:normal;font-family:sans-serif;font-variant-ligatures:normal;font-variant-position:normal;font-variant-caps:normal;font-variant-numeric:normal;font-variant-alternates:normal;font-variant-east-asian:normal;font-feature-settings:normal;font-variation-settings:normal;text-indent:0;text-align:start;text-decoration:none;text-decoration-line:none;text-decoration-style:solid;text-decoration-color:#000000;letter-spacing:normal;word-spacing:normal;text-transform:none;writing-mode:lr-tb;direction:ltr;text-orientation:mixed;dominant-baseline:auto;baseline-shift:baseline;text-anchor:start;white-space:normal;shape-padding:0;shape-margin:0;inline-size:0;clip-rule:nonzero;display:inline;overflow:visible;visibility:visible;opacity:1;isolation:auto;mix-blend-mode:normal;color-interpolation:sRGB;color-interpolation-filters:linearRGB;solid-color:#000000;solid-opacity:1;vector-effect:none;fill:#ffffff;fill-opacity:1;fill-rule:nonzero;stroke:none;stroke-width:3.61379;stroke-linecap:butt;stroke-linejoin:miter;stroke-miterlimit:4;stroke-dasharray:none;stroke-dashoffset:0;stroke-opacity:1;color-rendering:auto;image-rendering:auto;shape-rendering:auto;text-rendering:auto;enable-background:accumulate;stop-color:#000000;stop-opacity:1" d="m -234.86321,1.8994936 h 131.71264 c 6.790296,0 12.256856,5.46655 12.256856,12.2568804 v 77.865915 c 0,6.790325 -5.46656,12.256881 -12.256856,12.256881 h -131.71264 c -6.79031,0 -12.25688,-5.466556 -12.25688,-12.256881 l -1e-5,-77.865915 c 0,-6.7903304 5.46658,-12.2568804 12.25689,-12.2568804 z" id="path4887" />
    <path style="color:#000000;font-style:normal;font-variant:normal;font-weight:normal;font-stretch:normal;font-size:medium;line-height:normal;font-family:sans-serif;font-variant-ligatures:normal;font-variant-position:normal;font-variant-caps:normal;font-variant-numeric:normal;font-variant-alternates:normal;font-variant-east-asian:normal;font-feature-settings:normal;font-variation-settings:normal;text-indent:0;text-align:start;text-decoration:none;text-decoration-line:none;text-decoration-style:solid;text-decoration-color:#000000;letter-spacing:normal;word-spacing:normal;text-transform:none;writing-mode:lr-tb;direction:ltr;text-orientation:mixed;dominant-baseline:auto;baseline-shift:baseline;text-anchor:start;white-space:normal;shape-padding:0;shape-margin:0;inline-size:0;clip-rule:nonzero;display:inline;overflow:visible;visibility:visible;opacity:1;isolation:auto;mix-blend-mode:normal;color-interpolation:sRGB;color-interpolation-filters:linearRGB;solid-color:#000000;solid-opacity:1;vector-effect:none;fill:#214b36;fill-opacity:1;fill-rule:nonzero;stroke:none;stroke-width:0.5;stroke-linecap:butt;stroke-linejoin:miter;stroke-miterlimit:4;stroke-dasharray:none;stroke-dashoffset:0;stroke-opacity:1;color-rendering:auto;image-rendering:auto;shape-rendering:auto;text-rendering:auto;enable-background:accumulate;stop-color:#000000;stop-opacity:1" d="m -234.86432,0.09252359 c -7.76007,0 -14.06267,6.30258001 -14.06267,14.06268041 v 77.866762 c 0,7.760084 6.3026,14.062684 14.06267,14.062684 h 131.71284 c 7.760066,0 14.065666,-6.3026 14.065666,-14.062684 V 14.155204 c 0,-7.7601004 -6.3056,-14.06268041 -14.065666,-14.06268041 z m 0,3.61406001 h 131.71284 c 5.820536,0 10.451606,4.62806 10.451626,10.4486204 v 77.866762 c 0,5.820564 -4.63109,10.451624 -10.451626,10.451624 h -131.71284 c -5.82054,0 -10.44862,-4.63106 -10.44862,-10.451624 V 14.155204 c 0,-5.8205604 4.62808,-10.4486204 10.44862,-10.4486204 z" id="path4889" />
    <path id="path4891" style="color:#000000;font-style:normal;font-variant:normal;font-weight:normal;font-stretch:normal;font-size:medium;line-height:normal;font-family:sans-serif;font-variant-ligatures:normal;font-variant-position:normal;font-variant-caps:normal;font-variant-numeric:normal;font-variant-alternates:normal;font-variant-east-asian:normal;font-feature-settings:normal;font-variation-settings:normal;text-indent:0;text-align:start;text-decoration:none;text-decoration-line:none;text-decoration-style:solid;text-decoration-color:#000000;letter-spacing:normal;word-spacing:normal;text-transform:none;writing-mode:lr-tb;direction:ltr;text-orientation:mixed;dominant-baseline:auto;baseline-shift:baseline;text-anchor:start;white-space:normal;shape-padding:0;shape-margin:0;inline-size:0;clip-rule:nonzero;display:inline;overflow:visible;visibility:visible;opacity:1;isolation:auto;mix-blend-mode:normal;color-interpolation:sRGB;color-interpolation-filters:linearRGB;solid-color:#000000;solid-opacity:1;vector-effect:none;fill:#214b36;fill-opacity:1;fill-rule:nonzero;stroke:none;stroke-width:3.61379;stroke-linecap:butt;stroke-linejoin:miter;stroke-miterlimit:4;stroke-dasharray:none;stroke-dashoffset:0;stroke-opacity:1;color-rendering:auto;image-rendering:auto;shape-rendering:auto;text-rendering:auto;enable-background:accumulate;stop-color:#000000;stop-opacity:1" d="m -234.87065,7.3989036 c -3.72908,0 -6.73248,3.0247904 -6.73248,6.7682604 V 92.02792 c 0,3.732085 3.0004,6.732502 6.73248,6.732502 h 131.73147 c 3.732066,0 6.732486,-3.000417 6.732486,-6.732502 V 14.167164 c 0,-3.74347 -3.00342,-6.7682604 -6.732486,-6.7682604 z" />
    <path id="path4893" style="opacity:1;fill:#ffffff;fill-opacity:1;fill-rule:evenodd;stroke:none;stroke-width:0.321852" d="m -118.36436,74.596662 c 0.85985,-0.715458 1.65911,-1.47981 2.35473,-2.358695 0.80233,-1.014677 1.45024,-2.117901 1.91094,-3.325882 0.38021,-0.993949 0.63392,-2.004543 0.8065,-3.04967 l -4.71613,-11.094457 c -1.78311,-4.188873 -3.95216,-8.210422 -6.53999,-11.959875 -1.01152,-1.462687 -2.09229,-2.877474 -3.22495,-4.251852 -1.48032,-1.800446 -3.02486,-3.546045 -4.64803,-5.219097 -0.52459,-0.540214 -1.08343,-1.046158 -1.67739,-1.508608 l -11.91691,-9.300329 c -1.07875,0.07163 -2.14706,0.197227 -3.20578,0.425709 -1.22943,0.266016 -2.43068,0.653729 -3.582,1.170773 -0.95869,0.42745 -1.86358,0.938767 -2.73798,1.510282 l 12.85988,10.842154 c 0.62352,-0.281757 1.28861,-0.461137 1.97876,-0.439174 0.56411,0.01877 1.68495,0.194108 2.06734,0.702127 l 13.1468,17.465444 c 0.70605,0.937984 0.73538,2.165188 0.41551,3.260076 -0.19706,0.667081 -0.54571,1.252338 -1.00282,1.774076 z m -1.50895,0.673955 -7.49776,-15.067139 -2.21687,1.031433 c -0.12331,0.0703 -0.24267,0.142648 -0.36259,0.21745 -0.17387,0.105071 -0.32848,0.255212 -0.39839,0.453087 -0.12427,0.357884 -0.0621,0.665093 0.0961,0.997944 l 6.09992,12.923978 c 0.0934,0.199649 0.21122,0.378154 0.40147,0.494976 0.18573,0.114589 0.39626,0.207823 0.61003,0.25583 0.31373,0.07509 0.67935,0.04358 0.96634,-0.105653 z m -25.55095,-35.156784 c 0.0591,-0.04449 0.11183,-0.09533 0.1562,-0.155323 l 1.64537,-2.197796 -12.97656,-11.011907 -1.82079,2.112231 c -0.19528,0.274877 -0.23323,0.600305 -0.2063,0.932473 0.0184,0.254771 0.10287,0.480523 0.25879,0.680091 0.12994,0.165081 0.28467,0.328496 0.44682,0.460837 l 10.9499,9.024551 c 0.32699,0.268284 0.44803,0.418815 0.91892,0.374151 0.21779,-0.01792 0.45023,-0.08589 0.62766,-0.219313 z" />
    <g transform="matrix(0.8011114,0,0,0.8011114,-299.1469,-108.61667)" style="opacity:1;fill:#ffffff;fill-opacity:1" id="g4899">
      <g style="fill:#ffffff" id="g4897" transform="translate(93.599998,180.12001)">
        <path id="path4895" d="m 18.96875,-15.5625 h 6.1875 v 2.84375 H 23.375 c -0.355469,4.53125 -1.230469,7.984375 -2.625,10.359375 1.207031,1.625 2.90625,3.003906 5.09375,4.140625 C 24.863281,2.625 23.9375,3.539063 23.0625,4.53125 21.226563,3 19.8125,1.601563 18.8125,0.34375 17.632813,1.664063 15.972656,3.070313 13.828125,4.5625 13.003906,3.601563 12.101563,2.800781 11.125,2.15625 c 2.65625,-1.28125 4.640625,-2.742188 5.953125,-4.390625 -0.648437,-1.207031 -1.25,-2.875 -1.8125,-5 l -0.65625,1.015625 c -0.71875,-0.644531 -1.46875,-1.195313 -2.25,-1.65625 1.238281,-1.644531 2.117188,-3.226563 2.640625,-4.75 0.53125,-1.53125 1.066406,-4.046875 1.609375,-7.546875 1.988281,0.335937 3.117188,0.527344 3.390625,0.578125 0.269531,0.05469 0.40625,0.164062 0.40625,0.328125 0,0.167969 -0.07031,0.339844 -0.203125,0.515625 -0.335937,0.398437 -0.746094,1.460937 -1.234375,3.1875 z m 1.234375,2.84375 h -2.125 c -0.230469,0.59375 -0.449219,1.101562 -0.65625,1.515625 0.394531,2.210937 0.910156,4.074219 1.546875,5.59375 0.695313,-1.945313 1.109375,-4.316406 1.234375,-7.109375 z M 6.09375,-3.515625 c -1.023437,1.011719 -2.167969,2.261719 -3.4375,3.75 C 1.675781,-1.023438 0.957031,-2.019531 0.5,-2.75 2.738281,-4.1875 4.601563,-5.640625 6.09375,-7.109375 V -13.09375 H 1.046875 v -2.703125 H 6.09375 v -4.09375 h 2.875 c 0.476563,0 0.71875,0.09375 0.71875,0.28125 0,0.1875 -0.058594,0.402344 -0.171875,0.640625 -0.105469,0.230469 -0.171875,0.476562 -0.203125,0.734375 -0.023437,0.261719 -0.03125,0.777344 -0.03125,1.546875 v 0.890625 h 1.5 c -0.3125,-0.90625 -0.765625,-1.8125 -1.359375,-2.71875 L 12.25,-19.65625 c 0.4375,0.8125 0.914063,1.8125 1.4375,3 l -2.171875,0.859375 h 2.828125 v 2.703125 H 9.28125 V -8.625 c 0.632813,-0.945313 1.285156,-2.269531 1.953125,-3.96875 1.625,0.792969 2.503906,1.230469 2.640625,1.3125 0.144531,0.07422 0.21875,0.179687 0.21875,0.3125 0,0.125 -0.136719,0.304687 -0.40625,0.53125 C 13.238281,-10.050781 12.425781,-8.90625 11.25,-7 L 9.28125,-8.1875 v 0.765625 c 1.820313,1.375 3.710938,2.914062 5.671875,4.609375 l -2.625,2.34375 C 11.242188,-1.820313 10.226563,-2.976563 9.28125,-3.9375 v 5.40625 c 0,0.789063 -0.125,1.390625 -0.375,1.796875 C 8.664063,3.671875 8.203125,3.96875 7.515625,4.15625 6.835938,4.351563 5.816406,4.476563 4.453125,4.53125 4.398438,3.394531 4.101563,2.257813 3.5625,1.125 c 0.914063,0.226563 1.523438,0.34375 1.828125,0.34375 0.300781,0 0.492188,-0.0625 0.578125,-0.1875 0.082031,-0.117187 0.125,-0.324219 0.125,-0.625 z m -0.453125,-4.40625 -2.8125,1.265625 C 2.390625,-7.863281 1.753906,-9.226563 0.921875,-10.75 l 2.75,-1.15625 c 0.664063,1.105469 1.320313,2.433594 1.96875,3.984375 z m 0,0" style="fill:#ffffff;stroke:none" />
      </g>
    </g>
    <g transform="matrix(0.8011114,0,0,0.8011114,-299.1469,-108.61667)" style="opacity:1;fill:#ffffff;fill-opacity:1" id="g4905">
      <g style="fill:#ffffff" id="g4903" transform="translate(119.8326,180.12001)">
        <path id="path4901" d="m 27.717335,-20.3125 c 0.78125,1.210937 1.300781,1.996094 1.5625,2.359375 0.269531,0.355469 0.40625,0.617187 0.40625,0.78125 0,0.167969 -0.183594,0.246094 -0.546875,0.234375 -0.355469,-0.01953 -0.824219,-0.03125 -1.40625,-0.03125 -0.574219,0 -1.445312,0.07813 -2.609375,0.234375 -2.929687,0.398437 -6.28125,0.695312 -10.0625,0.890625 -0.1875,-0.90625 -0.542969,-1.796875 -1.0625,-2.671875 6.257813,-0.101563 10.832031,-0.703125 13.71875,-1.796875 z m -6.5625,7.609375 c -0.367187,-0.9375 -0.789062,-1.8125 -1.265625,-2.625 l 3.046875,-0.9375 c 0.4375,1.03125 0.753906,1.96875 0.953125,2.8125 l -2.453125,0.75 h 2.734375 c 0.71875,-1.363281 1.195313,-2.65625 1.4375,-3.875 1.738281,0.492187 2.734375,0.773437 2.984375,0.84375 0.25,0.0625 0.375,0.171875 0.375,0.328125 0,0.148437 -0.117187,0.308594 -0.34375,0.484375 -0.375,0.261719 -0.976562,1 -1.796875,2.21875 h 2.359375 v 2.390625 h -7.5 l -0.25,1.15625 H 30.07671 V -6.75 h -9.296875 l -0.3125,0.921875 h 8.375 c -1,2.78125 -2.121094,4.828125 -3.359375,6.140625 1.34375,0.613281 3.082031,1.035156 5.21875,1.265625 -0.835937,1.113281 -1.496094,2.117188 -1.984375,3.015625 -2.460937,-0.648437 -4.367187,-1.417969 -5.71875,-2.3125 -1.40625,0.800781 -3.28125,1.546875 -5.625,2.234375 C 16.986866,3.847656 16.428273,3.101563 15.70171,2.28125 l -1,1.15625 C 13.846241,2.71875 12.998585,2.125 12.154835,1.65625 11.998585,2.539063 11.568898,3.171875 10.873585,3.546875 10.174366,3.929688 9.0688981,4.15625 7.5610851,4.21875 7.5063978,3.1875 7.1743658,2.066406 6.5610848,0.859375 c 0.914063,0.164063 1.5312503,0.25 1.8437503,0.25 0.3125,0 0.535156,-0.046875 0.671875,-0.140625 0.144531,-0.085937 0.21875,-0.320312 0.21875,-0.703125 V -4.28125 c -1.15625,0.667969 -1.9531253,1.140625 -2.3906253,1.421875 L 5.4204598,-6.09375 c 1.289063,-0.445313 2.5820313,-0.953125 3.8750003,-1.515625 V -12.09375 H 6.0923348 v -2.828125 H 9.2954601 V -19.8125 H 12.10796 c 0.363281,0 0.546875,0.101562 0.546875,0.296875 0,0.105469 -0.04297,0.234375 -0.125,0.390625 -0.167969,0.355469 -0.25,0.90625 -0.25,1.65625 v 2.546875 h 2.265625 v 2.828125 h -2.265625 v 3.046875 c 0.53125,-0.257813 1.082031,-0.550781 1.65625,-0.875 0.195313,0.8125 0.453125,1.601562 0.765625,2.359375 v -1.59375 h 3.640625 C 18.443898,-9.613281 18.518116,-10 18.561085,-10.3125 h -3.65625 v -2.390625 h 1.578125 c -0.335937,-0.78125 -0.75,-1.503906 -1.25,-2.171875 l 2.9375,-1.078125 c 0.488281,0.875 0.914063,1.714844 1.28125,2.515625 l -1.6875,0.734375 z M 17.686085,-6.75 H 14.70171 v -0.484375 c -1.292969,0.679687 -2.101562,1.117187 -2.421875,1.3125 V 0 c 0,0.664063 -0.04297,1.195313 -0.125,1.59375 2.570313,-2.0625 4.414063,-4.84375 5.53125,-8.34375 z m 5.40625,5.484375 c 0.6875,-0.675781 1.238281,-1.425781 1.65625,-2.25 h -3.25 c 0.46875,0.929687 1,1.679687 1.59375,2.25 z M 18.998585,-2.46875 C 18.193898,-1 17.189991,0.46875 15.98296,1.9375 17.908741,1.59375 19.506398,1.078125 20.779835,0.390625 20.100148,-0.410156 19.506398,-1.363281 18.998585,-2.46875 Z m 0,0" style="fill:#ffffff;stroke:none" />
      </g>
    </g>
    <g transform="matrix(2.5472682,0,0,3.2082544,-534.18576,-290.98649)" style="opacity:1;fill:#ffffff;fill-opacity:1" id="g4911">
      <g style="fill:#ffffff" transform="translate(120.93311,118.08)" id="g4909">
        <path id="path4907" d="M 5.046875,0 H 2.640625 V -8.25 H 1.4375 v -2.484375 c 0.6875,-0.21875 1.132813,-0.6875 1.34375,-1.40625 h 2.265625 z m 0,0" style="fill:#ffffff;stroke:none" />
      </g>
    </g>
    <g id="g4921" style="opacity:1;fill:#ffffff;fill-opacity:1" transform="matrix(2.1506766,0,0,3.2082544,-426.01092,-291.46364)">
      <g style="fill:#ffffff" id="g4919" transform="translate(120.93311,118.08)">
        <path id="path4927" d="m -9.8321631,0 h -2.4062509 v -8.25 h -1.203125 v -2.484375 c 0.6875,-0.21875 1.132813,-0.6875 1.34375,-1.40625 h 2.2656259 z m 0,0" style="fill:#ffffff;stroke:none" />
      </g>
    </g>
    <g transform="matrix(2.2402887,0,0,3.2082544,-173.83141,87.367051)" style="opacity:1;fill:#ffffff;fill-opacity:1" id="g4925">
      <path id="path4923" d="M 10.890625,0 H 1.296875 C 1.410156,-1.425781 1.722656,-2.597656 2.234375,-3.515625 2.742188,-4.441406 3.363281,-5.179688 4.09375,-5.734375 4.820313,-6.285156 5.753906,-6.75 6.890625,-7.125 c 0.46875,-0.132813 0.832031,-0.335938 1.09375,-0.609375 0.269531,-0.28125 0.40625,-0.570313 0.40625,-0.875 0,-0.3125 -0.21875,-0.585938 -0.65625,-0.828125 C 7.304688,-9.675781 6.769531,-9.796875 6.125,-9.796875 c -1.179687,0 -2.230469,0.40625 -3.15625,1.21875 L 1.296875,-10.3125 c 0.789063,-0.613281 1.566406,-1.070313 2.328125,-1.375 0.757813,-0.300781 1.628906,-0.453125 2.609375,-0.453125 1.46875,0 2.585938,0.324219 3.359375,0.96875 0.769531,0.648437 1.15625,1.480469 1.15625,2.5 0,1.011719 -0.324219,1.839844 -0.96875,2.484375 -0.648437,0.636719 -1.773437,1.230469 -3.375,1.78125 -0.804687,0.292969 -1.527344,0.960937 -2.171875,2 h 6.65625 z m 0,0" style="fill:#ffffff;stroke:none" />
    </g>
  </g>
</svg>
