<?xml version="1.0" encoding="UTF-8"?>
<svg xmlns="http://www.w3.org/2000/svg" xmlns:ns1="http://sodipodi.sourceforge.net/DTD/sodipodi-0.dtd" viewBox="0 0 252.7309 92.083687" height="92.083687" width="252.7309" id="svg10812" version="1.1">
  <defs id="defs10816" />
  <ns1:namedview showgrid="false" id="namedview10814" guidetolerance="10" gridtolerance="10" objecttolerance="10" borderopacity="1" bordercolor="#666666" pagecolor="#ffffff" />
  <g transform="translate(-2.3079934,-1.189496)" id="g10820">
    <path style="color:#000000;font-style:normal;font-variant:normal;font-weight:normal;font-stretch:normal;font-size:medium;line-height:normal;font-family:sans-serif;font-variant-ligatures:normal;font-variant-position:normal;font-variant-caps:normal;font-variant-numeric:normal;font-variant-alternates:normal;font-variant-east-asian:normal;font-feature-settings:normal;font-variation-settings:normal;text-indent:0;text-align:start;text-decoration:none;text-decoration-line:none;text-decoration-style:solid;text-decoration-color:#000000;letter-spacing:normal;word-spacing:normal;text-transform:none;writing-mode:lr-tb;direction:ltr;text-orientation:mixed;dominant-baseline:auto;baseline-shift:baseline;text-anchor:start;white-space:normal;shape-padding:0;shape-margin:0;inline-size:0;clip-rule:nonzero;display:inline;overflow:visible;visibility:visible;opacity:1;isolation:auto;mix-blend-mode:normal;color-interpolation:sRGB;color-interpolation-filters:linearRGB;solid-color:#000000;solid-opacity:1;vector-effect:none;fill:#ffffff;fill-opacity:1;fill-rule:nonzero;stroke:none;stroke-width:4.17954;stroke-linecap:butt;stroke-linejoin:miter;stroke-miterlimit:4;stroke-dasharray:none;stroke-dashoffset:0;stroke-opacity:1;color-rendering:auto;image-rendering:auto;shape-rendering:auto;text-rendering:auto;enable-background:accumulate;stop-color:#000000;stop-opacity:1" d="m 18.89827,3.6021823 c -7.853319,0 -14.1775888,6.3242682 -14.1775888,14.1775887 v 58.903123 c 0,7.85333 6.3242698,14.177588 14.1775888,14.177588 h 219.55034 c 7.85331,0 14.17759,-6.324258 14.17759,-14.177588 V 17.779771 c 0,-7.8533205 -6.32428,-14.1775887 -14.17759,-14.1775887 z" id="path11391" />
    <path style="color:#000000;font-style:normal;font-variant:normal;font-weight:normal;font-stretch:normal;font-size:medium;line-height:normal;font-family:sans-serif;font-variant-ligatures:normal;font-variant-position:normal;font-variant-caps:normal;font-variant-numeric:normal;font-variant-alternates:normal;font-variant-east-asian:normal;font-feature-settings:normal;font-variation-settings:normal;text-indent:0;text-align:start;text-decoration:none;text-decoration-line:none;text-decoration-style:solid;text-decoration-color:#000000;letter-spacing:normal;word-spacing:normal;text-transform:none;writing-mode:lr-tb;direction:ltr;text-orientation:mixed;dominant-baseline:auto;baseline-shift:baseline;text-anchor:start;white-space:normal;shape-padding:0;shape-margin:0;inline-size:0;clip-rule:nonzero;display:inline;overflow:visible;visibility:visible;opacity:1;isolation:auto;mix-blend-mode:normal;color-interpolation:sRGB;color-interpolation-filters:linearRGB;solid-color:#000000;solid-opacity:1;vector-effect:none;fill:#24503f;fill-opacity:1;fill-rule:nonzero;stroke:none;stroke-width:0.647003;stroke-linecap:butt;stroke-linejoin:miter;stroke-miterlimit:4;stroke-dasharray:none;stroke-dashoffset:0;stroke-opacity:1;color-rendering:auto;image-rendering:auto;shape-rendering:auto;text-rendering:auto;enable-background:accumulate;stop-color:#000000;stop-opacity:1" d="m 18.89827,1.5129975 c -8.9752404,0 -16.2667751,7.2915332 -16.2667751,16.2667735 v 58.903123 c 0,8.975245 7.2915347,16.266784 16.2667751,16.266784 h 219.55034 c 8.97526,0 16.26678,-7.291539 16.26678,-16.266784 V 17.779771 c 0,-8.9752403 -7.29152,-16.2667735 -16.26678,-16.2667735 z m 0,4.1783711 h 219.55034 c 6.73142,0 12.0884,5.3570034 12.0884,12.0884024 v 58.903123 c 0,6.731402 -5.35698,12.088403 -12.0884,12.088403 H 18.89827 c -6.731398,0 -12.088404,-5.357001 -12.088404,-12.088403 V 17.779771 c 0,-6.731398 5.357008,-12.0884024 12.088404,-12.0884024 z" id="path11393" />
    <path id="path11374" style="color:#000000;font-style:normal;font-variant:normal;font-weight:normal;font-stretch:normal;font-size:medium;line-height:normal;font-family:sans-serif;font-variant-ligatures:normal;font-variant-position:normal;font-variant-caps:normal;font-variant-numeric:normal;font-variant-alternates:normal;font-variant-east-asian:normal;font-feature-settings:normal;font-variation-settings:normal;text-indent:0;text-align:start;text-decoration:none;text-decoration-line:none;text-decoration-style:solid;text-decoration-color:#000000;letter-spacing:normal;word-spacing:normal;text-transform:none;writing-mode:lr-tb;direction:ltr;text-orientation:mixed;dominant-baseline:auto;baseline-shift:baseline;text-anchor:start;white-space:normal;shape-padding:0;shape-margin:0;inline-size:0;clip-rule:nonzero;display:inline;overflow:visible;visibility:visible;opacity:1;isolation:auto;mix-blend-mode:normal;color-interpolation:sRGB;color-interpolation-filters:linearRGB;solid-color:#000000;solid-opacity:1;vector-effect:none;fill:#24503f;fill-opacity:1;fill-rule:nonzero;stroke:none;stroke-width:4.17954;stroke-linecap:butt;stroke-linejoin:miter;stroke-miterlimit:4;stroke-dasharray:none;stroke-dashoffset:0;stroke-opacity:1;color-rendering:auto;image-rendering:auto;shape-rendering:auto;text-rendering:auto;enable-background:accumulate;stop-color:#000000;stop-opacity:1" d="m 18.890099,9.9623493 c -4.312783,0 -7.784739,3.4990557 -7.784739,7.8283187 v 58.900404 c 0,4.316102 3.468631,7.784735 7.784739,7.784735 H 238.46224 c 4.3161,0 7.78472,-3.46862 7.78472,-7.784735 V 17.790668 c 0,-4.329264 -3.47193,-7.8283187 -7.78472,-7.8283187 z" />
    <path d="m 30.95089,48.743939 c -0.778791,1.270173 -1.631754,2.498622 -2.535708,3.694622 -1.302618,-1.251628 -2.8602,-2.498622 -4.635659,-3.768791 2.354914,-2.841659 4.436327,-6.374032 6.230327,-10.57394 1.770821,-4.199908 3.040994,-8.511071 3.764157,-12.965943 1.882077,0.398668 3.476745,0.760249 4.779363,1.089382 1.307256,0.343051 2.048964,0.579456 2.248296,0.723163 0.180791,0.143694 0.287423,0.343051 0.287423,0.579456 0,0.254949 -0.143694,0.579458 -0.435751,1.015209 -0.922499,1.010575 -2.206575,3.838327 -3.83833,8.473989 v 33.53436 H 30.95089 Z M 54.272892,32.083377 v -6.443566 h 4.853536 c 0.667535,0 1.01521,0.199322 1.01521,0.579458 0,0.250326 -0.129787,0.579456 -0.366216,1.010572 -0.199322,0.435754 -0.287423,1.525133 -0.287423,3.263506 v 1.59003 h 7.89453 v 13.837445 h -7.89453 v 4.199908 h 9.271321 l -0.505286,10.791816 c -0.111255,2.062868 -0.760249,3.421118 -1.956249,4.056201 -1.214542,0.616545 -3.027087,1.052296 -5.432995,1.302621 -0.199322,-1.789366 -0.653628,-3.439658 -1.376791,-4.923071 v 9.053444 H 54.272882 V 55.11797 H 51.375595 C 50.79614,61.255583 47.824681,66.345538 42.465859,70.401741 41.163238,69.1872 39.443407,67.940206 37.324911,66.63295 42.340696,63.921089 45.256524,60.096669 46.086308,55.11797 H 38.55336 l 0.509924,-14.050684 h 7.315071 v -4.130373 h -7.171367 v -4.853536 h 7.171367 v -6.299862 h 4.343612 c 0.871505,0 1.307256,0.25495 1.307256,0.723163 0,0.199322 -0.07416,0.509924 -0.217887,0.94104 -0.148353,0.435751 -0.217888,1.506588 -0.217888,3.189333 v 1.446326 z m 5.215118,4.853536 v 4.130373 h 2.392 v -4.130373 z m -5.215118,4.130373 v -4.130373 h -2.679409 v 4.130373 z M 46.378365,50.12073 V 45.920822 H 44.204242 L 43.91682,50.12073 Z m 7.894527,0 v -4.199908 h -2.679409 v 4.199908 z m 5.215118,4.99724 v 5.868746 c 0.815877,0.106632 1.46487,0.143694 1.956249,0.143694 0.523831,0 0.885412,-0.09272 1.084745,-0.292047 0.236418,-0.231794 0.361581,-0.760246 0.361581,-1.59003 l 0.148353,-4.130373 z" style="opacity:1;fill:#ffffff;fill-opacity:1;fill-rule:nonzero;stroke:none;stroke-width:4.63565" id="path9929" />
    <path d="m 115.92602,66.127664 -31.79599,1.6642 V 36.21375 h 5.432995 c 0.611907,0 1.010571,0.05563 1.158914,0.143694 0.143693,0.111256 0.217887,0.25495 0.217887,0.435754 0,0.199322 -0.07416,0.542372 -0.217887,1.01521 -0.148353,0.431116 -0.217888,1.919163 -0.217888,4.417781 v 19.627384 l 9.415025,-0.505286 V 26.219269 h 5.720404 c 0.95958,0 1.45096,0.180791 1.45096,0.505286 0,0.292047 -0.11125,0.690715 -0.29204,1.158914 -0.19932,0.491382 -0.28739,1.88208 -0.28739,4.199908 v 28.903339 l 9.41503,-0.435751 V 36.070046 h 5.79458 c 0.57944,0 0.94102,0.051 1.08937,0.143694 0.14359,0.106631 0.21313,0.254949 0.21313,0.43575 0,0.199322 -0.0695,0.560918 -0.21313,1.084745 -0.14845,0.491382 -0.21799,1.863535 -0.21799,4.130373 v 27.957664 h -6.66607 z" style="opacity:1;fill:#ffffff;fill-opacity:1;fill-rule:nonzero;stroke:none;stroke-width:4.63565" id="path9931" />
    <path d="m 133.12837,43.820868 h 43.02357 v 5.938281 h -43.02357 z" style="opacity:1;fill:#ffffff;fill-opacity:1;fill-rule:nonzero;stroke:none;stroke-width:4.63565" id="path9933" />
    <path d="m 193.28681,33.316464 h -6.08201 v -5.358822 h 17.88904 v 5.358822 h -5.43301 v 8.112404 h 5.28928 v 5.215117 h -5.28928 v 7.171367 c 1.63174,-0.760249 3.42574,-1.682744 5.36347,-2.753582 0.088,1.738373 0.30596,3.295954 0.64897,4.635659 3.91252,-4.635659 7.10184,-11.677225 9.56338,-21.147879 h -9.56338 v -5.581337 h 25.27827 v 5.581337 h -9.34087 c -0.57943,2.461536 -1.27016,4.81645 -2.03042,7.023025 v 3.986666 l 4.4178,-2.248293 c 2.55426,4.454868 5.18268,9.669985 7.89916,15.645349 l -5.9429,3.040994 c -1.84501,-5.446902 -3.96349,-10.24481 -6.37406,-14.412266 v 23.034593 h -6.22567 V 55.043801 c -2.13705,3.444296 -4.60321,6.740247 -7.38926,9.924946 -1.41386,-1.302619 -3.25886,-2.623782 -5.5767,-3.982031 1.33973,-1.107921 2.67942,-2.354914 3.98205,-3.768792 -4.69131,2.753582 -9.47065,5.669414 -14.34275,8.766032 l -3.32839,-6.735613 c 1.91916,-0.672169 4.12575,-1.520495 6.58728,-2.535705 V 46.643985 h -5.5767 v -5.215117 h 5.5767 z" style="opacity:1;fill:#ffffff;fill-opacity:1;fill-rule:nonzero;stroke:none;stroke-width:4.63565" id="path9935" />
  </g>
</svg>
