<?xml version="1.0" encoding="UTF-8"?>
<svg xmlns="http://www.w3.org/2000/svg" xmlns:ns1="http://sodipodi.sourceforge.net/DTD/sodipodi-0.dtd" version="1.1" id="svg1569" width="125.217" height="62.409981" viewBox="0 0 125.217 62.40998">
  <defs id="defs1573" />
  <ns1:namedview pagecolor="#ffffff" bordercolor="#666666" borderopacity="1" objecttolerance="10" gridtolerance="10" guidetolerance="10" id="namedview1571" showgrid="false" />
  <g id="g1577" transform="translate(698.65982,1046.454)">
    <path id="path4503" d="m -686.30562,-1044.6488 h 100.50771 c 5.84423,0 10.54908,4.7049 10.54908,10.5491 v 37.70265 c 0,5.84418 -4.70485,10.54908 -10.54908,10.54908 h -100.50771 c -5.84418,0 -10.54908,-4.7049 -10.54908,-10.54908 v -37.70265 c 0,-5.8442 4.7049,-10.5491 10.54908,-10.5491 z" style="color:#000000;font-style:normal;font-variant:normal;font-weight:normal;font-stretch:normal;font-size:medium;line-height:normal;font-family:sans-serif;font-variant-ligatures:normal;font-variant-position:normal;font-variant-caps:normal;font-variant-numeric:normal;font-variant-alternates:normal;font-variant-east-asian:normal;font-feature-settings:normal;font-variation-settings:normal;text-indent:0;text-align:start;text-decoration:none;text-decoration-line:none;text-decoration-style:solid;text-decoration-color:#000000;letter-spacing:normal;word-spacing:normal;text-transform:none;writing-mode:lr-tb;direction:ltr;text-orientation:mixed;dominant-baseline:auto;baseline-shift:baseline;text-anchor:start;white-space:normal;shape-padding:0;shape-margin:0;inline-size:0;clip-rule:nonzero;display:inline;overflow:visible;visibility:visible;opacity:1;isolation:auto;mix-blend-mode:normal;color-interpolation:sRGB;color-interpolation-filters:linearRGB;solid-color:#000000;solid-opacity:1;vector-effect:none;fill:#ffffff;fill-opacity:1;fill-rule:nonzero;stroke:none;stroke-width:3.11028;stroke-linecap:butt;stroke-linejoin:miter;stroke-miterlimit:4;stroke-dasharray:none;stroke-dashoffset:0;stroke-opacity:1;color-rendering:auto;image-rendering:auto;shape-rendering:auto;text-rendering:auto;enable-background:accumulate;stop-color:#000000;stop-opacity:1" />
    <path id="path4505" d="m -686.30653,-1046.204 c -6.67886,0 -12.10329,5.4244 -12.10329,12.1033 v 37.70339 c 0,6.67883 5.42443,12.10329 12.10329,12.10329 h 100.50785 c 6.67883,0 12.10586,-5.42446 12.10586,-12.10329 v -37.70339 c 0,-6.6789 -5.42703,-12.1033 -12.10586,-12.1033 z m 0,3.1105 h 100.50785 c 5.00954,0 8.99535,3.9832 8.99538,8.9928 v 37.70339 c 0,5.00954 -3.98584,8.99535 -8.99538,8.99539 h -100.50785 c -5.00958,0 -8.99278,-3.98585 -8.99278,-8.99539 v -37.70339 c 0,-5.0096 3.9832,-8.9928 8.99278,-8.9928 z" style="color:#000000;font-style:normal;font-variant:normal;font-weight:normal;font-stretch:normal;font-size:medium;line-height:normal;font-family:sans-serif;font-variant-ligatures:normal;font-variant-position:normal;font-variant-caps:normal;font-variant-numeric:normal;font-variant-alternates:normal;font-variant-east-asian:normal;font-feature-settings:normal;font-variation-settings:normal;text-indent:0;text-align:start;text-decoration:none;text-decoration-line:none;text-decoration-style:solid;text-decoration-color:#000000;letter-spacing:normal;word-spacing:normal;text-transform:none;writing-mode:lr-tb;direction:ltr;text-orientation:mixed;dominant-baseline:auto;baseline-shift:baseline;text-anchor:start;white-space:normal;shape-padding:0;shape-margin:0;inline-size:0;clip-rule:nonzero;display:inline;overflow:visible;visibility:visible;opacity:1;isolation:auto;mix-blend-mode:normal;color-interpolation:sRGB;color-interpolation-filters:linearRGB;solid-color:#000000;solid-opacity:1;vector-effect:none;fill:#253898;fill-opacity:1;fill-rule:nonzero;stroke:none;stroke-width:0.5;stroke-linecap:butt;stroke-linejoin:miter;stroke-miterlimit:4;stroke-dasharray:none;stroke-dashoffset:0;stroke-opacity:1;color-rendering:auto;image-rendering:auto;shape-rendering:auto;text-rendering:auto;enable-background:accumulate;stop-color:#000000;stop-opacity:1" />
    <path d="m -686.312,-1039.9156 c -3.20948,0 -5.79443,2.6033 -5.79443,5.8252 v 37.69818 c 0,3.2121 2.58234,5.79445 5.79443,5.79445 h 100.52392 c 3.21206,0 5.79439,-2.58235 5.79439,-5.79445 v -37.69818 c 0,-3.2219 -2.5849,-5.8252 -5.79439,-5.8252 z" style="color:#000000;font-style:normal;font-variant:normal;font-weight:normal;font-stretch:normal;font-size:medium;line-height:normal;font-family:sans-serif;font-variant-ligatures:normal;font-variant-position:normal;font-variant-caps:normal;font-variant-numeric:normal;font-variant-alternates:normal;font-variant-east-asian:normal;font-feature-settings:normal;font-variation-settings:normal;text-indent:0;text-align:start;text-decoration:none;text-decoration-line:none;text-decoration-style:solid;text-decoration-color:#000000;letter-spacing:normal;word-spacing:normal;text-transform:none;writing-mode:lr-tb;direction:ltr;text-orientation:mixed;dominant-baseline:auto;baseline-shift:baseline;text-anchor:start;white-space:normal;shape-padding:0;shape-margin:0;inline-size:0;clip-rule:nonzero;display:inline;overflow:visible;visibility:visible;opacity:1;isolation:auto;mix-blend-mode:normal;color-interpolation:sRGB;color-interpolation-filters:linearRGB;solid-color:#000000;solid-opacity:1;vector-effect:none;fill:#253898;fill-opacity:1;fill-rule:nonzero;stroke:#253898;stroke-width:1.45495;stroke-linecap:butt;stroke-linejoin:miter;stroke-miterlimit:4;stroke-dasharray:none;stroke-dashoffset:0;stroke-opacity:1;color-rendering:auto;image-rendering:auto;shape-rendering:auto;text-rendering:auto;enable-background:accumulate;stop-color:#000000;stop-opacity:1" id="path4507" />
    <g id="g3897" style="opacity:1;fill:#ffffff;fill-opacity:1" transform="matrix(3.1226913,0,0,3.1226913,-979.32083,-1383.2897)">
      <g style="fill:#ffffff" transform="translate(93.599998,120.84)" id="use3895">
        <path style="fill:#ffffff;stroke:none" d="m 3.796875,-6.40625 -1,1.03125 C 2.160156,-5.9375 1.5625,-6.390625 1,-6.734375 L 1.9375,-7.78125 c 0.664063,0.460937 1.285156,0.917969 1.859375,1.375 z M 9.9375,-4.734375 C 9.882813,-4.441406 9.859375,-4.1875 9.859375,-3.96875 c 0,0.210937 0.00391,0.386719 0.015625,0.53125 -0.648437,0.09375 -1.167969,0.140625 -1.5625,0.140625 -0.386719,0 -0.683594,-0.0625 -0.890625,-0.1875 -0.210937,-0.125 -0.3125,-0.40625 -0.3125,-0.84375 V -6.3125 h -1.4375 v 0.828125 c 0,0.542969 -0.125,1.015625 -0.375,1.421875 -0.25,0.40625 -0.636719,0.789062 -1.15625,1.140625 C 3.816406,-3.160156 3.4375,-3.414063 3,-3.6875 c 0.519531,-0.300781 0.890625,-0.59375 1.109375,-0.875 0.226563,-0.289063 0.34375,-0.820313 0.34375,-1.59375 v -1.3125 H 8.40625 v 2.5625 c 0,0.125 0.015625,0.214844 0.046875,0.265625 C 8.492188,-4.585938 8.59375,-4.5625 8.75,-4.5625 c 0.15625,0 0.550781,-0.054688 1.1875,-0.171875 z m -6.90625,0.640625 -1,1.015625 C 1.570313,-3.453125 0.984375,-3.863281 0.265625,-4.3125 L 1.1875,-5.375 c 0.925781,0.625 1.539063,1.054687 1.84375,1.28125 z m 0.375,2.109375 C 2.738281,-0.753906 2.144531,0.445313 1.625,1.625 1.195313,1.394531 0.742188,1.128906 0.265625,0.828125 0.890625,0.117188 1.59375,-1.09375 2.375,-2.8125 c 0.3125,0.304687 0.65625,0.578125 1.03125,0.828125 z m 1.765625,3.09375 v 0.5625 H 3.890625 V -2.78125 H 9.03125 V 1.640625 H 7.6875 V 1.109375 Z M 7.6875,0 V -1.640625 H 5.171875 V 0 Z m 0,0" id="path3989" />
      </g>
    </g>
    <g id="g3901" style="opacity:1;fill:#ffffff;fill-opacity:1" transform="matrix(3.1226913,0,0,3.1226913,-977.30405,-1383.2897)">
      <g style="fill:#ffffff" transform="translate(103.95795,120.84)" id="use3899">
        <path style="fill:#ffffff;stroke:none" d="M 9.046875,-6.1875 V 0.203125 C 9.046875,0.535156 8.992188,0.800781 8.890625,1 8.785156,1.207031 8.582031,1.375 8.28125,1.5 7.988281,1.625 7.5625,1.703125 7,1.734375 6.914063,1.160156 6.757813,0.691406 6.53125,0.328125 6.988281,0.398438 7.285156,0.4375 7.421875,0.4375 7.566406,0.4375 7.65625,0.414063 7.6875,0.375 7.71875,0.34375 7.734375,0.28125 7.734375,0.1875 v -6.375 H 3.40625 L 2.625,-5.421875 C 2.195313,-5.816406 1.617188,-6.238281 0.890625,-6.6875 l 0.9375,-1.046875 c 0.519531,0.335937 1,0.671875 1.4375,1.015625 V -7.328125 H 10 V -6.1875 Z M 4.9375,-1.21875 v 0.765625 H 3.734375 V -5.34375 H 7.125 v 4.6875 H 5.890625 v -0.5625 z m 0.953125,-1 V -4.25 H 4.9375 v 2.03125 z m -2.8125,-1.875 -1.03125,1.046875 C 1.523438,-3.460938 0.945313,-3.863281 0.3125,-4.25 l 0.90625,-1.078125 c 0.738281,0.460937 1.359375,0.871094 1.859375,1.234375 z m 0.375,2.125 C 2.648438,-0.570313 2.019531,0.640625 1.5625,1.671875 1.039063,1.328125 0.613281,1.015625 0.28125,0.734375 1.019531,-0.210938 1.71875,-1.375 2.375,-2.75 c 0.332031,0.324219 0.691406,0.585937 1.078125,0.78125 z m 0,0" id="path3993" />
      </g>
    </g>
    <g id="g3905" style="opacity:1;fill:#ffffff;fill-opacity:1" transform="matrix(3.1226913,0,0,3.1226913,-976.72783,-1383.2897)">
      <g style="fill:#ffffff" transform="translate(114.21233,120.84)" id="use3903">
        <path style="fill:#ffffff;stroke:none" d="m 8.4270966,-7.34375 1.0625,-0.515625 c 0.28125,0.375 0.5468754,0.796875 0.7968754,1.265625 L 9.3958466,-6.203125 H 10.536473 V -5.09375 H 8.4427216 c 0,0.617187 0.066406,1.398437 0.203125,2.34375 0.226563,-0.570313 0.425781,-1.207031 0.59375,-1.90625 0.3125,0.105469 0.597656,0.210937 0.8593754,0.3125 0.269531,0.105469 0.421876,0.171875 0.453126,0.203125 0.03125,0.023437 0.04687,0.058594 0.04687,0.109375 0,0.054687 -0.03906,0.125 -0.109376,0.21875 -0.210937,0.25 -0.429688,0.640625 -0.6562506,1.171875 -0.21875,0.53125 -0.492187,1.0625 -0.8125,1.59375 0.269531,0.6875 0.429688,1.03125 0.484375,1.03125 0.0625,0 0.101563,-0.085938 0.125,-0.265625 0.019531,-0.175781 0.035156,-0.457031 0.046875,-0.84375 0.4257816,0.292969 0.8125006,0.476562 1.1562516,0.546875 C 10.727879,0.191406 10.575536,0.769531 10.380222,1.15625 10.181003,1.550781 9.9505346,1.75 9.6927216,1.75 9.4310026,1.75 9.1653776,1.601563 8.8958466,1.3125 8.6341276,1.03125 8.3880346,0.644531 8.1614716,0.15625 c -0.375,0.445313 -0.839844,0.890625 -1.390625,1.328125 -0.355469,-0.324219 -0.6875,-0.5625 -1,-0.71875 0.800781,-0.554687 1.457031,-1.179688 1.96875,-1.890625 -0.28125,-1.144531 -0.460937,-2.46875 -0.53125,-3.96875 h -1.8125 v 0.890625 h 1.6875 l -0.09375,3.140625 c -0.011719,0.273437 -0.058594,0.492187 -0.140625,0.65625 -0.074219,0.15625 -0.21875,0.292969 -0.4375,0.40625 -0.210937,0.101563 -0.527344,0.191406 -0.953125,0.265625 -0.0625,-0.375 -0.15625,-0.6875 -0.28125,-0.9375 -0.167969,0.84375 -0.539062,1.679688 -1.109375,2.515625 -0.367187,-0.25 -0.746094,-0.476562 -1.140625,-0.671875 0.59375,-0.71875 0.957031,-1.414063 1.09375,-2.09375 C 3.1145966,-0.523438 2.2786596,-0.125 1.5208467,0.28125 L 0.97397188,-1.0625 C 1.4310027,-1.175781 1.8020966,-1.28125 2.0833466,-1.375 V -3.984375 H 1.0833469 v -1.15625 h 0.9999997 v -2.53125 h 1.0625 c 0.125,0 0.203125,0.011719 0.234375,0.03125 0.039063,0.023437 0.0625,0.058594 0.0625,0.109375 0,0.054687 -0.027344,0.152344 -0.078125,0.296875 -0.042969,0.136719 -0.0625,0.382812 -0.0625,0.734375 v 1.359375 h 0.78125 v 1.15625 h -0.78125 v 2.1875 c 0.351563,-0.132813 0.585938,-0.226563 0.703125,-0.28125 0.019531,0.511719 0.039063,0.839844 0.0625,0.984375 0.070313,-0.382813 0.109375,-0.878906 0.109375,-1.484375 v -3.625 h 2.984375 l -0.046875,-1.75 c 0.289063,-0.019531 0.570313,-0.03125 0.84375,-0.03125 0.28125,0 0.445313,0.011719 0.5,0.03125 0.0625,0.023437 0.09375,0.054687 0.09375,0.09375 0,0.042969 -0.023437,0.089844 -0.0625,0.140625 -0.03125,0.054687 -0.054687,0.179687 -0.0625,0.375 z m 0.6875,1.140625 c -0.210937,-0.382813 -0.4375,-0.742188 -0.6875,-1.078125 0,0.375 -0.00781,0.734375 -0.015625,1.078125 z m -3.71875,3.046875 c 0,0.875 -0.054687,1.605469 -0.15625,2.1875 0.101563,0.011719 0.207031,0.015625 0.3125,0.015625 0.101563,0 0.175781,-0.023438 0.21875,-0.078125 0.039063,-0.0625 0.066406,-0.1875 0.078125,-0.375 l 0.0625,-1.75 z m 0,0" id="path3997" />
      </g>
    </g>
  </g>
</svg>
