<?xml version="1.0" encoding="UTF-8"?>
<svg xmlns="http://www.w3.org/2000/svg" xmlns:ns1="http://sodipodi.sourceforge.net/DTD/sodipodi-0.dtd" viewBox="0 0 125.21708 62.841663" height="62.841663" width="125.21708" id="svg1569" version="1.1">
  <defs id="defs1573" />
  <ns1:namedview showgrid="false" id="namedview1571" guidetolerance="10" gridtolerance="10" objecttolerance="10" borderopacity="1" bordercolor="#666666" pagecolor="#ffffff" />
  <g transform="translate(-2.0912624,-6.5676869)" id="g1577">
    <path id="path81" d="m 14.820255,8.4210291 h 99.758205 c 6.02515,0 10.87571,4.8505639 10.87571,10.8757169 v 37.384853 c 0,6.025145 -4.85056,10.875721 -10.87571,10.875721 H 14.820255 c -6.0251418,0 -10.8757048,-4.850576 -10.8757048,-10.875721 V 19.296746 c 0,-6.025153 4.850563,-10.8757169 10.8757048,-10.8757169 z" style="color:#000000;font-style:normal;font-variant:normal;font-weight:normal;font-stretch:normal;font-size:medium;line-height:normal;font-family:sans-serif;font-variant-ligatures:normal;font-variant-position:normal;font-variant-caps:normal;font-variant-numeric:normal;font-variant-alternates:normal;font-variant-east-asian:normal;font-feature-settings:normal;font-variation-settings:normal;text-indent:0;text-align:start;text-decoration:none;text-decoration-line:none;text-decoration-style:solid;text-decoration-color:#000000;letter-spacing:normal;word-spacing:normal;text-transform:none;writing-mode:lr-tb;direction:ltr;text-orientation:mixed;dominant-baseline:auto;baseline-shift:baseline;text-anchor:start;white-space:normal;shape-padding:0;shape-margin:0;inline-size:0;clip-rule:nonzero;display:inline;overflow:visible;visibility:visible;opacity:1;isolation:auto;mix-blend-mode:normal;color-interpolation:sRGB;color-interpolation-filters:linearRGB;solid-color:#000000;solid-opacity:1;vector-effect:none;fill:#ffffff;fill-opacity:1;fill-rule:nonzero;stroke:none;stroke-width:3.20658;stroke-linecap:butt;stroke-linejoin:miter;stroke-miterlimit:4;stroke-dasharray:none;stroke-dashoffset:0;stroke-opacity:1;color-rendering:auto;image-rendering:auto;shape-rendering:auto;text-rendering:auto;enable-background:accumulate;stop-color:#000000;stop-opacity:1" />
    <path id="path83" d="m 14.819284,6.8176869 c -6.8856362,0 -12.4780216,5.5923741 -12.4780216,12.4780221 v 37.385613 c 0,6.88564 5.5923854,12.478028 12.4780216,12.478028 h 99.758376 c 6.88563,0 12.48068,-5.592388 12.48068,-12.478028 V 19.295709 c 0,-6.885648 -5.59505,-12.4780221 -12.48068,-12.4780221 z m 0,3.2068051 h 99.758376 c 5.16465,0 9.27387,4.106548 9.27389,9.271217 v 37.385613 c 0,5.164651 -4.10924,9.273878 -9.27389,9.273898 H 14.819284 c -5.1646586,0 -9.2712163,-4.109247 -9.2712163,-9.273898 V 19.295709 c 0,-5.164669 4.1065577,-9.271217 9.2712163,-9.271217 z" style="color:#000000;font-style:normal;font-variant:normal;font-weight:normal;font-stretch:normal;font-size:medium;line-height:normal;font-family:sans-serif;font-variant-ligatures:normal;font-variant-position:normal;font-variant-caps:normal;font-variant-numeric:normal;font-variant-alternates:normal;font-variant-east-asian:normal;font-feature-settings:normal;font-variation-settings:normal;text-indent:0;text-align:start;text-decoration:none;text-decoration-line:none;text-decoration-style:solid;text-decoration-color:#000000;letter-spacing:normal;word-spacing:normal;text-transform:none;writing-mode:lr-tb;direction:ltr;text-orientation:mixed;dominant-baseline:auto;baseline-shift:baseline;text-anchor:start;white-space:normal;shape-padding:0;shape-margin:0;inline-size:0;clip-rule:nonzero;display:inline;overflow:visible;visibility:visible;opacity:1;isolation:auto;mix-blend-mode:normal;color-interpolation:sRGB;color-interpolation-filters:linearRGB;solid-color:#000000;solid-opacity:1;vector-effect:none;fill:#253898;fill-opacity:1;fill-rule:nonzero;stroke:none;stroke-width:0.5;stroke-linecap:butt;stroke-linejoin:miter;stroke-miterlimit:4;stroke-dasharray:none;stroke-dashoffset:0;stroke-opacity:1;color-rendering:auto;image-rendering:auto;shape-rendering:auto;text-rendering:auto;enable-background:accumulate;stop-color:#000000;stop-opacity:1" />
    <path d="m 14.813665,13.300737 c -3.30887,0 -5.9738361,2.683942 -5.9738361,6.005578 v 37.380281 c 0,3.311538 2.6623041,5.973835 5.9738361,5.973835 h 99.774905 c 3.31153,0 5.97383,-2.662297 5.97383,-5.973835 V 19.306315 c 0,-3.321636 -2.66497,-6.005578 -5.97383,-6.005578 z" style="color:#000000;font-style:normal;font-variant:normal;font-weight:normal;font-stretch:normal;font-size:medium;line-height:normal;font-family:sans-serif;font-variant-ligatures:normal;font-variant-position:normal;font-variant-caps:normal;font-variant-numeric:normal;font-variant-alternates:normal;font-variant-east-asian:normal;font-feature-settings:normal;font-variation-settings:normal;text-indent:0;text-align:start;text-decoration:none;text-decoration-line:none;text-decoration-style:solid;text-decoration-color:#000000;letter-spacing:normal;word-spacing:normal;text-transform:none;writing-mode:lr-tb;direction:ltr;text-orientation:mixed;dominant-baseline:auto;baseline-shift:baseline;text-anchor:start;white-space:normal;shape-padding:0;shape-margin:0;inline-size:0;clip-rule:nonzero;display:inline;overflow:visible;visibility:visible;opacity:1;isolation:auto;mix-blend-mode:normal;color-interpolation:sRGB;color-interpolation-filters:linearRGB;solid-color:#000000;solid-opacity:1;vector-effect:none;fill:#253898;fill-opacity:1;fill-rule:nonzero;stroke:#253898;stroke-width:1.5;stroke-linecap:butt;stroke-linejoin:miter;stroke-miterlimit:4;stroke-dasharray:none;stroke-dashoffset:0;stroke-opacity:1;color-rendering:auto;image-rendering:auto;shape-rendering:auto;text-rendering:auto;enable-background:accumulate;stop-color:#000000;stop-opacity:1" id="path75" />
    <g transform="matrix(1.2653779,0,0,1.2653779,-103.87575,-234.95468)" style="opacity:1;fill:#ffffff;fill-opacity:1" id="g393">
      <g style="fill:#ffffff" id="use391" transform="translate(93.599998,224.04001)">
        <path id="path1602" d="m 11.671875,-17.96875 c -0.07422,-0.613281 -0.242187,-1.28125 -0.5,-2 l 3.8125,-0.421875 c 0.207031,1.125 0.335938,1.933594 0.390625,2.421875 h 8.890625 v 2.546875 H 20.4375 c -1.15625,1.210937 -2.484375,2.230469 -3.984375,3.0625 2.9375,0.855469 6.019531,1.304687 9.25,1.34375 -0.679687,1.054687 -1.246094,2.136719 -1.703125,3.25 l -2.203125,-0.46875 v 1.9375 H 14.71875 c -0.05469,0.386719 -0.15625,0.824219 -0.3125,1.3125 H 22.875 V 0.84375 c 0,0.882813 -0.105469,1.550781 -0.3125,2 -0.199219,0.445313 -0.609375,0.785156 -1.234375,1.015625 -0.617187,0.238281 -1.59375,0.429688 -2.9375,0.578125 C 18.304688,3.28125 18.007813,2.253906 17.5,1.359375 18.226563,1.535156 18.710938,1.625 18.953125,1.625 19.191406,1.625 19.351563,1.582031 19.4375,1.5 19.53125,1.425781 19.578125,1.238281 19.578125,0.9375 v -3.484375 h -2.21875 V 3.09375 H 14.25 V -2.546875 H 12.09375 V 3.09375 h -3.125 V -2.546875 H 6.796875 V 4.21875 H 3.625 v -9.203125 h 7.078125 c 0.125,-0.28125 0.25,-0.71875 0.375,-1.3125 H 4.5625 v -2.3125 C 3.738281,-8.429688 2.96875,-8.269531 2.25,-8.125 1.90625,-8.9375 1.304688,-9.925781 0.453125,-11.09375 3.929688,-11.320313 7.007813,-11.78125 9.6875,-12.46875 8.457031,-13.25 7.265625,-14.234375 6.109375,-15.421875 H 2.125 v -2.546875 z m 4.59375,2.546875 h -6.0625 c 0.90625,0.667969 1.894531,1.261719 2.96875,1.78125 1.207031,-0.539063 2.238281,-1.132813 3.09375,-1.78125 z m -3.328125,4.59375 c -1.824219,0.65625 -4.414062,1.355469 -7.765625,2.09375 H 19.65625 c -2.59375,-0.632813 -4.835937,-1.332031 -6.71875,-2.09375 z m 0,0" style="fill:#ffffff;stroke:none" />
      </g>
    </g>
    <g transform="matrix(1.2653779,0,0,1.2653779,-103.87575,-234.95468)" style="opacity:1;fill:#ffffff;fill-opacity:1" id="g397">
      <g style="fill:#ffffff" id="use395" transform="translate(119.8326,224.04001)">
        <path id="path1606" d="m 11.390625,-14.75 v -5.3125 H 14.6875 c 0.363281,0 0.546875,0.07813 0.546875,0.234375 0,0.15625 -0.07031,0.375 -0.203125,0.65625 -0.125,0.28125 -0.1875,0.914062 -0.1875,1.890625 V -14.75 h 1.578125 c 0.789063,-1.34375 1.457031,-2.878906 2,-4.609375 1.207031,0.492187 2.300781,0.882812 3.28125,1.171875 0.289063,0.09375 0.4375,0.21875 0.4375,0.375 0,0.15625 -0.1875,0.367187 -0.5625,0.625 -0.375,0.25 -1.011719,1.0625 -1.90625,2.4375 H 24.8125 v 5.96875 h -3.453125 v -3.265625 H 4.9375 V -8.78125 H 1.703125 V -14.75 H 6.75 C 6.113281,-15.625 5.316406,-16.492188 4.359375,-17.359375 L 7.5,-19.09375 c 0.820313,0.980469 1.660156,2.074219 2.515625,3.28125 L 7.96875,-14.75 Z m 0.15625,14.296875 H 3.75 v -2.5625 h 7.796875 V -4.40625 h -5.9375 v -6.375 h 15.0625 v 6.375 H 14.84375 v 1.390625 h 7.828125 v 2.5625 H 14.84375 V 1.125 h 10.1875 V 3.796875 H 1.390625 V 1.125 h 10.15625 z M 17.34375,-6.71875 v -1.625 h -8.5 v 1.625 z m 0,0" style="fill:#ffffff;stroke:none" />
      </g>
    </g>
    <g transform="matrix(1.2653779,0,0,1.2653779,-103.87575,-234.95468)" style="opacity:1;fill:#ffffff;fill-opacity:1" id="g401">
      <g style="fill:#ffffff" id="use399" transform="translate(146.0652,224.04001)">
        <path id="path1610" d="m 18.703125,-15.5 -0.109375,1.046875 h 4.515625 V -2.8125 h 2.234375 v 2.390625 h -4.828125 c 1.988281,1.03125 3.625,1.941406 4.90625,2.734375 L 23.25,4.703125 C 21.613281,3.347656 19.785156,2.148438 17.765625,1.109375 l 1.28125,-1.53125 H 14.75 c 0.832031,0.6875 1.347656,1.097656 1.546875,1.234375 0.207031,0.132813 0.3125,0.269531 0.3125,0.40625 0,0.144531 -0.179687,0.265625 -0.53125,0.359375 -0.34375,0.101563 -1.070312,0.5 -2.171875,1.1875 -1.105469,0.6875 -2.25,1.320313 -3.4375,1.90625 -0.699219,-0.855469 -1.328125,-1.5625 -1.890625,-2.125 1.851563,-0.71875 3.488281,-1.710937 4.90625,-2.96875 h -2.9375 L 10.78125,0.125 c -3.074219,2.207031 -4.914062,3.539063 -5.515625,4 L 3.46875,1.5 C 3.863281,1.09375 4.15625,0.707031 4.34375,0.34375 4.53125,-0.0195313 4.625,-0.609375 4.625,-1.421875 V -4.4375 H 1.203125 V -7.21875 H 4.625 V -9.734375 H 3.3125 L 2.734375,-8.84375 c -0.65625,-0.539063 -1.4375,-1.070313 -2.34375,-1.59375 1.675781,-2.257813 3.054688,-5.582031 4.140625,-9.96875 0.96875,0.1875 1.765625,0.367187 2.390625,0.53125 0.632813,0.167969 0.992188,0.28125 1.078125,0.34375 0.082031,0.0625 0.125,0.15625 0.125,0.28125 0,0.117187 -0.136719,0.328125 -0.40625,0.640625 -0.273437,0.304687 -0.5625,0.828125 -0.875,1.578125 h 3.8125 V -14.25 h -4.9375 c -0.304687,0.699219 -0.601562,1.3125 -0.890625,1.84375 H 10.5 v 2.671875 H 7.6875 v 2.515625 h 3.140625 V -4.4375 H 7.6875 v 3.75 c 0.40625,-0.289063 1.085938,-0.921875 2.046875,-1.890625 0.101563,0.40625 0.273438,0.90625 0.515625,1.5 V -2.8125 h 1.484375 v -11.640625 h 3.875 L 15.6875,-15.5 h -4.71875 v -2.4375 h 4.921875 l 0.21875,-2.390625 2.8125,0.203125 c 0.363281,0.04297 0.546875,0.132812 0.546875,0.265625 0,0.136719 -0.05859,0.296875 -0.171875,0.484375 -0.117187,0.1875 -0.226562,0.667969 -0.328125,1.4375 H 24.375 V -15.5 Z m -4.171875,4.171875 h 5.703125 V -12.125 H 14.53125 Z m 0,2.78125 h 5.703125 V -9.34375 H 14.53125 Z m 0,2.828125 h 5.703125 V -6.5 H 14.53125 Z m 5.703125,2.125 H 14.53125 v 0.78125 h 5.703125 z m 0,0" style="fill:#ffffff;stroke:none" />
      </g>
    </g>
  </g>
</svg>
